<?xml version="1.0" encoding="utf-8"?>
<!-- Generator: Adobe Illustrator 16.0.0, SVG Export Plug-In . SVG Version: 6.00 Build 0)  -->
<!DOCTYPE svg PUBLIC "-//W3C//DTD SVG 1.1//EN" "http://www.w3.org/Graphics/SVG/1.1/DTD/svg11.dtd">
<svg version="1.1" id="Capa_1" xmlns="http://www.w3.org/2000/svg" xmlns:xlink="http://www.w3.org/1999/xlink" x="0px" y="0px"
	 width="18.375px" height="18.273px" viewBox="0 0 18.375 18.273" enable-background="new 0 0 18.375 18.273" xml:space="preserve">
<path fill="#FFFFFF" d="M5.695,8.508c-0.645,2.222-1.314,4.437-1.922,6.67c-0.23,0.845-0.526,1.276-1.513,0.932
	c-0.916-0.318-1.072-0.771-0.726-1.635c1.313-3.28,1.952-6.736,2.338-10.217c0.221-1.992,1.834-1.395,2.852-1.863
	C7.71,1.94,7.907,2.903,8.25,3.507c0.26,0.459,0.504,0.928,0.732,1.35c0.475-0.095,0.537-0.393,0.664-0.622
	c1.07-1.929,1.061-1.874,3.254-1.57c1.056,0.146,1.445,0.6,1.574,1.639c0.436,3.527,1.066,7.022,2.406,10.341
	c0.366,0.907-0.072,1.205-0.824,1.469c-0.774,0.271-1.183,0.084-1.41-0.718c-0.629-2.221-1.301-4.431-2.07-7.023
	c-0.266,2.443,0.126,4.434,0.564,6.4c0.27,1.208-0.027,1.691-1.301,1.648c-1.773-0.06-3.552-0.059-5.326,0
	c-1.267,0.041-1.557-0.431-1.306-1.648C5.63,12.729,6.001,10.662,5.695,8.508z"/>
</svg>
