<?xml version="1.0" encoding="utf-8"?>
<!-- Generator: Adobe Illustrator 16.0.0, SVG Export Plug-In . SVG Version: 6.00 Build 0)  -->
<!DOCTYPE svg PUBLIC "-//W3C//DTD SVG 1.1//EN" "http://www.w3.org/Graphics/SVG/1.1/DTD/svg11.dtd">
<svg version="1.1" id="Capa_1" xmlns="http://www.w3.org/2000/svg" xmlns:xlink="http://www.w3.org/1999/xlink" x="0px" y="0px"
	 width="18.375px" height="18.273px" viewBox="0 0 18.375 18.273" enable-background="new 0 0 18.375 18.273" xml:space="preserve">
<path fill="#FFFFFF" d="M5.582,2.701c0,0-1.534-0.418-3.032,2.822C2.455,5.73,4.759,7.494,4.759,7.494l0.405-0.438
	c0,0,0.209,2.568,1.01,3.938c0.901,1.539,0.349,3.625-0.697,5.263c-0.847,1.327,8.489-0.233,8.489-0.233s-0.797-1.677-1.17-3.356
	c-0.418-1.882-0.062-5.339,0.627-5.646l0.429,0.472l1.977-2.568c0.033-1.395-3.533-3.156-3.973-2.19
	C11.148,4.288,6.654,5.38,5.582,2.701z"/>
</svg>
