<?xml version="1.0" encoding="utf-8"?>
<!-- Generator: Adobe Illustrator 16.0.0, SVG Export Plug-In . SVG Version: 6.00 Build 0)  -->
<!DOCTYPE svg PUBLIC "-//W3C//DTD SVG 1.1//EN" "http://www.w3.org/Graphics/SVG/1.1/DTD/svg11.dtd">
<svg version="1.1" id="Capa_1" xmlns="http://www.w3.org/2000/svg" xmlns:xlink="http://www.w3.org/1999/xlink" x="0px" y="0px"
	 width="18.375px" height="18.273px" viewBox="0 0 18.375 18.273" enable-background="new 0 0 18.375 18.273" xml:space="preserve">
<path fill="#FFFFFF" d="M6.439,3.253l6.948-0.283c2.006,1.034,1.733,5.139,0.818,7.022c-0.427,0.441-0.932,5.47-0.932,5.47
	s-3.038,1.973-2.735,0.653c-0.579-1.482-0.358-2.458-0.777-3.971c-0.314-1.123-0.642-2.536-0.42-3.716c0,0,0.109,0.718-0.764,2.611
	c-0.394,0.855-1.271,3.814-1.161,4.755c0.133,1.126-3.205,0-3.205,0L4.984,8C4.985,8.002,5.407,4.596,6.439,3.253z"/>
</svg>
