<?xml version="1.0" encoding="utf-8"?>
<!-- Generator: Adobe Illustrator 16.0.0, SVG Export Plug-In . SVG Version: 6.00 Build 0)  -->
<!DOCTYPE svg PUBLIC "-//W3C//DTD SVG 1.1//EN" "http://www.w3.org/Graphics/SVG/1.1/DTD/svg11.dtd">
<svg version="1.1" id="Capa_1" xmlns="http://www.w3.org/2000/svg" xmlns:xlink="http://www.w3.org/1999/xlink" x="0px" y="0px"
	 width="18.375px" height="18.273px" viewBox="0 0 18.375 18.273" enable-background="new 0 0 18.375 18.273" xml:space="preserve">
<g>
	<path fill="#FFFFFF" d="M8.359,16.404c-0.78,0.005-1.561,0.02-2.34,0.045c-1.31,0.043-1.61-0.444-1.351-1.703
		c0.437-2.114,0.82-4.252,0.503-6.479c-0.667,2.297-1.359,4.589-1.988,6.898c-0.238,0.875-0.544,1.319-1.565,0.964
		c-0.947-0.331-1.109-0.797-0.75-1.691c1.357-3.392,2.019-6.966,2.418-10.565c0.228-2.061,1.896-1.442,2.949-1.928
		c1.021-0.469,1.224,0.526,1.579,1.15C8.083,3.57,8.335,4.054,8.571,4.49"/>
	<path fill="#FFFFFF" d="M9.378,4.491C9.484,4.469,9.571,4.438,9.642,4.4C9.9,4.262,9.961,4.034,10.064,3.848
		c1.106-1.995,1.097-1.938,3.365-1.625c1.092,0.15,1.495,0.62,1.627,1.695c0.45,3.647,1.104,7.262,2.488,10.693
		c0.379,0.938-0.074,1.247-0.852,1.52c-0.801,0.28-1.223,0.087-1.459-0.742c-0.65-2.297-1.346-4.583-2.142-7.265
		c-0.274,2.526,0.13,4.586,0.585,6.62c0.277,1.25-0.029,1.75-1.346,1.706c-0.788-0.027-1.577-0.042-2.366-0.046
		c-0.267,0-0.534,0-0.802,0"/>
</g>
</svg>
