<?xml version="1.0" encoding="utf-8"?>
<!-- Generator: Adobe Illustrator 16.0.0, SVG Export Plug-In . SVG Version: 6.00 Build 0)  -->
<!DOCTYPE svg PUBLIC "-//W3C//DTD SVG 1.1//EN" "http://www.w3.org/Graphics/SVG/1.1/DTD/svg11.dtd">
<svg version="1.1" id="Capa_1" xmlns="http://www.w3.org/2000/svg" xmlns:xlink="http://www.w3.org/1999/xlink" x="0px" y="0px"
	 width="18.375px" height="18.273px" viewBox="0 0 18.375 18.273" enable-background="new 0 0 18.375 18.273" xml:space="preserve">
<g>
	<path fill="#FFFFFF" d="M10.191,6.991C9.838,7.409,9.585,7.884,9.549,8.431c-0.129,1.917-0.183,3.834,0.041,5.75
		c0.08,0.68,0.311,1.127,1.135,1.069c0.42-0.029,0.857,0.142,1.278,0.255c0.25,0.066,0.601,0.137,0.604,0.438
		c0.006,0.354-0.371,0.397-0.64,0.479c-0.94,0.285-1.913,0.354-2.885,0.34c-0.922-0.015-1.849-0.075-2.734-0.377
		c-0.223-0.076-0.519-0.14-0.518-0.433c0-0.299,0.309-0.354,0.526-0.426c0.53-0.176,1.079-0.319,1.64-0.305
		c0.458,0.011,0.676-0.198,0.748-0.606c0.084-0.479,0.19-0.956,0.214-1.438c0.07-1.433,0.07-2.866-0.017-4.301
		C8.895,8.061,8.573,7.389,8.118,6.744C6.884,5.001,5.653,3.256,4.251,1.51c3.337,0,6.587,0,9.872,0
		c-1.313,1.816-2.611,3.615-3.911,5.415c-0.566,0-1.132,0-1.811,0C9.058,7.367,9.628,7.097,10.191,6.991z"/>
</g>
</svg>
