<?xml version="1.0" encoding="utf-8"?>
<!-- Generator: Adobe Illustrator 16.0.0, SVG Export Plug-In . SVG Version: 6.00 Build 0)  -->
<!DOCTYPE svg PUBLIC "-//W3C//DTD SVG 1.1//EN" "http://www.w3.org/Graphics/SVG/1.1/DTD/svg11.dtd">
<svg version="1.1" id="Capa_1" xmlns="http://www.w3.org/2000/svg" xmlns:xlink="http://www.w3.org/1999/xlink" x="0px" y="0px"
	 width="18.375px" height="18.273px" viewBox="0 0 18.375 18.273" enable-background="new 0 0 18.375 18.273" xml:space="preserve">
<g>
	<path fill="#FFFFFF" d="M13.227,12.636c-2.859-1.269-6.289,0.681-9.602-0.434c-1-0.336-2.248-0.521-2.146-1.81
		c0.112-1.413,1.345-1.25,2.426-1.19C5.824,9.308,7.177,8.01,8.624,7.064c1.14-0.746,2.069-1.038,3.235-0.09
		c0.783,0.634,1.774,0.825,2.604,0.037c1.245-1.185,1.732-0.67,1.928,0.747c0.064,0.476,0.17,0.946,0.252,1.419
		C17.188,12.271,16.879,12.627,13.227,12.636z"/>
</g>
</svg>
