<?xml version="1.0" encoding="utf-8"?>
<!-- Generator: Adobe Illustrator 16.0.0, SVG Export Plug-In . SVG Version: 6.00 Build 0)  -->
<!DOCTYPE svg PUBLIC "-//W3C//DTD SVG 1.1//EN" "http://www.w3.org/Graphics/SVG/1.1/DTD/svg11.dtd">
<svg version="1.1" id="Capa_1" xmlns="http://www.w3.org/2000/svg" xmlns:xlink="http://www.w3.org/1999/xlink" x="0px" y="0px"
	 width="18.375px" height="18.273px" viewBox="0 0 18.375 18.273" enable-background="new 0 0 18.375 18.273" xml:space="preserve">
<g>
	<path fill="#FFFFFF" d="M3.028,7.976l6.159,5.886l5.801-6.247c0,0,0.144,0.063,1.498,3.105c0.949,2.131,1.42,5.333-0.432,5.58
		C14.202,16.547,2.65,16.672,2.65,16.672s-2.51-0.133-1.235-4.544C2.226,9.325,3.028,7.976,3.028,7.976z"/>
	<polygon fill="#FFFFFF" points="3.09,6.855 9.188,12.364 14.525,6.85 	"/>
	<path fill="#FFFFFF" d="M3.09,5.967c0,0,0.046-4.074,5.278-4.354c5.231-0.277,6.157,4.354,6.157,4.354h-0.555
		c0,0-1.451-3.565-4.214-3.705c-2.914-0.146-3.206,0.276-3.52,0.324c-0.71,0.107-2.541,1.612-2.407,3.38L3.09,5.967L3.09,5.967z"/>
</g>
</svg>
