<?xml version="1.0" encoding="utf-8"?>
<!-- Generator: Adobe Illustrator 16.0.0, SVG Export Plug-In . SVG Version: 6.00 Build 0)  -->
<!DOCTYPE svg PUBLIC "-//W3C//DTD SVG 1.1//EN" "http://www.w3.org/Graphics/SVG/1.1/DTD/svg11.dtd">
<svg version="1.1" id="Capa_1" xmlns="http://www.w3.org/2000/svg" xmlns:xlink="http://www.w3.org/1999/xlink" x="0px" y="0px"
	 width="18.375px" height="18.273px" viewBox="0 0 18.375 18.273" enable-background="new 0 0 18.375 18.273" xml:space="preserve">
<path fill="#FFFFFF" d="M9.498,17.285c-1.107-0.057-2.327,0.165-3.295-0.232c-1.413-0.579-0.044-2.004-0.493-2.979
	c-0.117-0.254-0.084-0.572-0.157-0.853C4.83,10.437,3.849,7.712,4.921,4.742c0.295-0.816-0.145-1.896-0.239-2.855
	c-0.041-0.412,0.019-0.832,0.503-0.9c0.642-0.089,0.465,0.45,0.516,0.797c0.093,0.619,0.222,1.237,0.267,1.861
	c0.158,2.19,2.534,2.117,3.53,3.46c0.143,0.192,3.247-2.406,3.427-2.903c0.281-0.78,0.407-1.587,0.437-2.415
	c0.011-0.329,0.029-0.747,0.505-0.725c0.546,0.026,0.567,0.467,0.489,0.858c-0.412,2.071-0.625,4.107,0.554,6.042
	c0.214,0.351-0.101,0.742-0.259,1.089c-0.938,2.063-1.412,4.225-1.195,6.484c0.125,1.307-0.42,1.758-1.637,1.701
	c-0.771-0.035-1.545-0.006-2.318-0.006C9.5,17.249,9.499,17.268,9.498,17.285z"/>
</svg>
