<?xml version="1.0" encoding="utf-8"?>
<!-- Generator: Adobe Illustrator 16.0.0, SVG Export Plug-In . SVG Version: 6.00 Build 0)  -->
<!DOCTYPE svg PUBLIC "-//W3C//DTD SVG 1.1//EN" "http://www.w3.org/Graphics/SVG/1.1/DTD/svg11.dtd">
<svg version="1.1" id="Capa_1" xmlns="http://www.w3.org/2000/svg" xmlns:xlink="http://www.w3.org/1999/xlink" x="0px" y="0px"
	 width="18.375px" height="18.273px" viewBox="0 0 18.375 18.273" enable-background="new 0 0 18.375 18.273" xml:space="preserve">
<path fill="#6CC4CC" d="M8.646,6.165C7.097,5.418,7.314,5.153,7.757,4.378c0.594-1.039,1.798-0.865,2.25-0.766
	c0.956,0.211,1.408,1.256,1.233,2.195C10.99,7.151,10.066,8,8.973,8.663C7.462,9.58,5.91,10.43,4.376,11.311
	c-0.435,0.25-0.866,0.505-1.54,0.898c4.283,0,8.273,0,12.508,0c-1.98-1.164-3.777-2.221-5.607-3.294
	c0.389-0.443,0.625-0.234,0.826-0.122c1.867,1.04,3.729,2.088,5.586,3.146c0.238,0.137,0.627,0.233,0.525,0.604
	c-0.098,0.355-0.48,0.285-0.761,0.286c-4.459,0.007-8.917,0.008-13.377,0.002c-0.316,0-0.75,0.079-0.841-0.335
	c-0.088-0.402,0.339-0.528,0.612-0.685c1.567-0.896,3.139-1.784,4.718-2.659c0.872-0.482,1.75-0.956,2.505-1.61
	c0.941-0.816,1.583-2.015,1.207-2.723C10.506,4.389,9.1,3.664,8.348,4.6C7.628,5.495,8.209,5.307,8.646,6.165z"/>
</svg>
