<?xml version="1.0" encoding="utf-8"?>
<!-- Generator: Adobe Illustrator 16.0.0, SVG Export Plug-In . SVG Version: 6.00 Build 0)  -->
<!DOCTYPE svg PUBLIC "-//W3C//DTD SVG 1.1//EN" "http://www.w3.org/Graphics/SVG/1.1/DTD/svg11.dtd">
<svg version="1.1" id="Capa_1" xmlns="http://www.w3.org/2000/svg" xmlns:xlink="http://www.w3.org/1999/xlink" x="0px" y="0px"
	 width="18.375px" height="18.273px" viewBox="0 0 18.375 18.273" enable-background="new 0 0 18.375 18.273" xml:space="preserve">
<g>
	<path fill="#6CC4CC" d="M11.971,11.448c-0.283-0.112-0.75-0.763-0.693-1.585c0.029-0.387,0.656-3.153,0.949-3.031
		c0.434,0.178,0.002,1.738,0.24,1.859c0.414,0.379,2.963,0.207,3.24,0.494c0.406-1.161-0.191-1.151-0.742-1.146
		c-1.095,0.008-1.533,0.516-1.396-1.293c0.031-0.399-0.141-1.525-0.963-1.432c-0.265,0.032-1.252-0.295-1.517-0.498
		c-1.3-1.006-3.047-0.941-3.497-0.847C6.806,4.138,6.265,5.406,5.666,6.458C5.428,6.875,5.628,7.122,5.937,7.26
		c0.379,0.168,0.702-0.099,0.702-0.099C6.44,6.795,6.905,6.156,7.152,5.825C7.603,5.22,8.091,4.916,8.607,5.313
		C9.067,5.666,8.704,6.128,8.5,6.596C8.275,7.113,8.067,7.632,7.878,8.158c-0.227,0.631-2.286,3.237-2.769,3.34
		c-0.341,0.073,2.326,0.105,2.262,0.453c-0.161,0.773-0.04,1.392-1.066,1.6c-0.285,0.002-0.57,0.005-0.855,0.005
		c-0.786,0.008-2.204-0.018-2.291,0.374c-0.235,0.188-0.242,0.37,0.003,1.016c1.447-0.604,4.427-0.052,5.202-0.499
		c0.413-0.173,0.349-1.25,0.501-2.518c2.478,0.209,2.619,0.861,2.804,3.178c0.048,0.604,0.013,1.162,0.263,1.715
		c0.242,0.535,0.346,1.3,1.828,0.854C12.744,15.995,13.507,12.057,11.971,11.448z"/>
	<path fill="#6CC4CC" d="M9.142,2.401c0.81,1.039,1.801,0.883,1.885,1.068c0.322,0.725,0.895,1.264,1.824,1.265
		c1.155,0,1.92-0.708,1.947-1.936c0.026-1.21-0.697-2.033-1.822-2.059c-0.824-0.018-1.006,0.179-1.48,0.549
		C11.219,1.504,10.624,2.986,9.142,2.401z"/>
</g>
</svg>
