<?xml version="1.0" encoding="utf-8"?>
<!-- Generator: Adobe Illustrator 16.0.0, SVG Export Plug-In . SVG Version: 6.00 Build 0)  -->
<!DOCTYPE svg PUBLIC "-//W3C//DTD SVG 1.1//EN" "http://www.w3.org/Graphics/SVG/1.1/DTD/svg11.dtd">
<svg version="1.1" id="Capa_1" xmlns="http://www.w3.org/2000/svg" xmlns:xlink="http://www.w3.org/1999/xlink" x="0px" y="0px"
	 width="18.375px" height="18.273px" viewBox="0 0 18.375 18.273" enable-background="new 0 0 18.375 18.273" xml:space="preserve">
<path fill="#FFFFFF" d="M5.443,17.898c0.074-1.6,0.693-2.935,1.005-4.333c0.479-2.154,1.016-4.302,1.639-6.42
	c0.167-0.569-0.2-2.437,1.52-1.034c0.071,0.059,1.265-0.002,1.552-0.788c0.258-0.705,0.633-1.374,0.847-2.092
	c0.161-0.539,0.415-1.243-0.249-1.604c-0.6-0.326-0.974,0.226-1.321,0.635c-0.232,0.272-0.424,0.765-0.86,0.357
	C9.232,2.301,9.494,1.905,9.712,1.602c0.601-0.833,1.358-1.496,2.448-1.116c1.15,0.399,1.255,1.405,0.984,2.416
	c-0.223,0.827-0.613,1.606-0.895,2.42C12,6.05,11.158,6.903,12.665,7.317c0.457,0.126,0.228,0.543,0.05,0.8
	c-2.24,3.229-4.493,6.452-6.75,9.672C5.921,17.85,5.768,17.834,5.443,17.898z"/>
</svg>
