<?xml version="1.0" encoding="utf-8"?>
<!-- Generator: Adobe Illustrator 16.0.0, SVG Export Plug-In . SVG Version: 6.00 Build 0)  -->
<!DOCTYPE svg PUBLIC "-//W3C//DTD SVG 1.1//EN" "http://www.w3.org/Graphics/SVG/1.1/DTD/svg11.dtd">
<svg version="1.1" id="Capa_1" xmlns="http://www.w3.org/2000/svg" xmlns:xlink="http://www.w3.org/1999/xlink" x="0px" y="0px"
	 width="36.334px" height="36.41px" viewBox="0 0 36.334 36.41" enable-background="new 0 0 36.334 36.41" xml:space="preserve">
<g id="Capa_9" display="none">
</g>
<g id="Capa_3">
</g>
<path opacity="0.8" fill="#8866A9" enable-background="new    " d="M18.64,6.488c0,0-13.967-0.544-16.932,11.805h16.856L18.64,6.488
	z"/>
<path opacity="0.8" fill="#6CC4CC" enable-background="new    " d="M19.976,2.916l0.063,15.377h14.586
	C33.972,4.781,19.976,2.916,19.976,2.916z M26.687,14.237c-1.707,0-3.092-1.288-3.092-2.876s1.385-2.876,3.092-2.876
	c1.709,0,3.094,1.288,3.094,2.876S28.396,14.237,26.687,14.237z"/>
<path fill="#D999C4" d="M9.468,19.904l-7.38,0.002c0,0,0.682,10.814,9.402,11.603c5.213,0.47,6.896-3.257,7.131-4.671
	c0.175-1.035,0.846-5.264-3.063-6.336c-1.756-0.482-4.134,0.063-4.603,1.75c-0.392,1.4,0.896,2.324,2.35,2.402
	c2.078,0.107,2.489-1.559,2.489-1.559s1.929,2.115,0.607,4.443c-0.716,1.264-3.204,3.268-6.079,0.286
	C7.314,24.713,9.468,19.904,9.468,19.904z"/>
</svg>
