<?xml version="1.0" encoding="utf-8"?>
<!-- Generator: Adobe Illustrator 16.0.0, SVG Export Plug-In . SVG Version: 6.00 Build 0)  -->
<!DOCTYPE svg PUBLIC "-//W3C//DTD SVG 1.1//EN" "http://www.w3.org/Graphics/SVG/1.1/DTD/svg11.dtd">
<svg version="1.1" id="Capa_1" xmlns="http://www.w3.org/2000/svg" xmlns:xlink="http://www.w3.org/1999/xlink" x="0px" y="0px"
	 width="512px" height="512px" viewBox="-237.833 -237.795 512 512" enable-background="new -237.833 -237.795 512 512"
	 xml:space="preserve">
<g id="Capa_9" display="none">
	
		<image display="inline" overflow="visible" enable-background="new    " width="226" height="223" xlink:href="1381494A.jpeg"  transform="matrix(-2.8361 0 0 2.8361 3658.4355 -2783.668)">
	</image>
</g>
<g id="Capa_3">
</g>
<g id="Capa_4">
	<path opacity="0.8" fill="#8866A9" enable-background="new    " d="M39.3-137.922c0,0-189.949-7.397-230.27,160.545H38.264
		L39.3-137.922z"/>
	<g>
		<path opacity="0.8" fill="#6CC4CC" enable-background="new    " d="M57.461-186.496l0.863,209.119h198.362
			C247.802-161.13,57.461-186.496,57.461-186.496z M148.726-32.538c-23.214,0-42.046-17.511-42.046-39.112
			s18.832-39.112,42.046-39.112c23.242,0,42.074,17.511,42.074,39.112S171.968-32.538,148.726-32.538z"/>
	</g>
	<path fill="#D999C4" d="M-85.44,44.537l-100.363,0.026c0,0,9.276,147.058,127.869,157.79c70.891,6.388,93.782-44.292,96.976-63.522
		c2.377-14.078,11.501-71.584-41.656-86.166c-23.885-6.561-56.224,0.85-62.598,23.799c-5.333,19.045,12.185,31.608,31.96,32.671
		c28.254,1.447,33.846-21.209,33.846-21.209s26.237,28.792,8.254,60.453c-9.735,17.159-43.575,44.425-82.673,3.891
		C-114.731,109.932-85.44,44.537-85.44,44.537z"/>
</g>
</svg>
