<?xml version="1.0" encoding="utf-8"?>
<!-- Generator: Adobe Illustrator 16.0.0, SVG Export Plug-In . SVG Version: 6.00 Build 0)  -->
<!DOCTYPE svg PUBLIC "-//W3C//DTD SVG 1.1//EN" "http://www.w3.org/Graphics/SVG/1.1/DTD/svg11.dtd">
<svg version="1.1" id="Capa_1" xmlns="http://www.w3.org/2000/svg" xmlns:xlink="http://www.w3.org/1999/xlink" x="0px" y="0px"
	 width="18px" height="18px" viewBox="9.167 9.205 18 18" enable-background="new 9.167 9.205 18 18" xml:space="preserve">
<g id="Capa_9" display="none">
	
		<image display="inline" overflow="visible" enable-background="new    " width="226" height="223" xlink:href="501046C3.jpeg"  transform="matrix(-2.8361 0 0 2.8361 3658.4355 -2783.668)">
	</image>
</g>
<g id="Capa_3">
</g>
<g id="Capa_4">
	<path opacity="0.8" fill="#8866A9" enable-background="new    " d="M18.385,13.397c0,0-6.435-0.25-7.801,5.438h7.766L18.385,13.397
		z"/>
	<g>
		<path opacity="0.8" fill="#6CC4CC" enable-background="new    " d="M19.001,11.751l0.028,7.083h6.72
			C25.448,12.611,19.001,11.751,19.001,11.751z M22.092,16.967c-0.787,0-1.425-0.593-1.425-1.325c0-0.731,0.638-1.325,1.425-1.325
			s1.425,0.593,1.425,1.325C23.517,16.374,22.879,16.967,22.092,16.967z"/>
	</g>
	<path fill="#D999C4" d="M14.159,19.578h-3.4c0,0,0.314,4.982,4.332,5.346c2.401,0.217,3.178-1.5,3.285-2.152
		c0.081-0.477,0.39-2.424-1.411-2.92c-0.809-0.221-1.905,0.031-2.121,0.807c-0.181,0.646,0.413,1.072,1.083,1.107
		c0.957,0.051,1.146-0.717,1.146-0.717s0.89,0.975,0.28,2.047c-0.33,0.582-1.476,1.506-2.8,0.133
		C13.167,21.793,14.159,19.578,14.159,19.578z"/>
</g>
</svg>
