<?xml version="1.0" encoding="utf-8"?>
<!-- Generator: Adobe Illustrator 16.0.0, SVG Export Plug-In . SVG Version: 6.00 Build 0)  -->
<!DOCTYPE svg PUBLIC "-//W3C//DTD SVG 1.1//EN" "http://www.w3.org/Graphics/SVG/1.1/DTD/svg11.dtd">
<svg version="1.1" id="Capa_1" xmlns="http://www.w3.org/2000/svg" xmlns:xlink="http://www.w3.org/1999/xlink" x="0px" y="0px"
	 width="18.375px" height="18.273px" viewBox="0 0 18.375 18.273" enable-background="new 0 0 18.375 18.273" xml:space="preserve">
<path fill="#FFFFFF" d="M7.608,1.2L12.525,1c1.42,0.731,1.447,2.902,0.43,3.959c-0.301,0.311-0.51,4.882-0.51,4.882v7.354H10.96
	c0,0-0.665-5.959-0.45-6.892c-0.41-1.049-0.254-1.741-0.551-2.81c-0.221-0.795-0.453-1.795-0.296-2.63c0,0,0.077,0.508-0.541,1.848
	c-0.279,0.605-0.899,2.7-0.822,3.365c0.094,0.797-1.003,7.132-1.003,7.132l-1.422-0.09l0.157-7.042L6.579,4.56
	C6.579,4.56,6.877,2.15,7.608,1.2z"/>
</svg>
