<?xml version="1.0" encoding="utf-8"?>
<!-- Generator: Adobe Illustrator 16.0.0, SVG Export Plug-In . SVG Version: 6.00 Build 0)  -->
<!DOCTYPE svg PUBLIC "-//W3C//DTD SVG 1.1//EN" "http://www.w3.org/Graphics/SVG/1.1/DTD/svg11.dtd">
<svg version="1.1" id="Capa_1" xmlns="http://www.w3.org/2000/svg" xmlns:xlink="http://www.w3.org/1999/xlink" x="0px" y="0px"
	 width="18.375px" height="18.273px" viewBox="0 0 18.375 18.273" enable-background="new 0 0 18.375 18.273" xml:space="preserve">
<path fill="#FFFFFF" d="M7.788,1.233l4.917-0.2c1.42,0.731,1.226,3.637,0.579,4.97c-0.301,0.312-0.659,3.871-0.659,3.871
	l0.451,7.367h-2.667c0,0,0.065-5.972,0.28-6.905c-0.41-1.049-0.254-1.74-0.551-2.81c-0.221-0.795-0.453-1.795-0.296-2.63
	c0,0,0.077,0.508-0.541,1.848c-0.279,0.605-0.899,2.7-0.822,3.365c0.094,0.797-0.112,7.132-0.112,7.132l-2.313-0.09l0.157-7.042
	l0.547-5.516C6.759,4.594,7.057,2.183,7.788,1.233z"/>
</svg>
