<?xml version="1.0" encoding="utf-8"?>
<!-- Generator: Adobe Illustrator 16.0.0, SVG Export Plug-In . SVG Version: 6.00 Build 0)  -->
<!DOCTYPE svg PUBLIC "-//W3C//DTD SVG 1.1//EN" "http://www.w3.org/Graphics/SVG/1.1/DTD/svg11.dtd">
<svg version="1.1" id="Capa_1" xmlns="http://www.w3.org/2000/svg" xmlns:xlink="http://www.w3.org/1999/xlink" x="0px" y="0px"
	 width="18.375px" height="18.273px" viewBox="0 0 18.375 18.273" enable-background="new 0 0 18.375 18.273" xml:space="preserve">
<g>
	<polygon fill="#FFFFFF" points="6.271,8.356 9.188,16.341 12.104,8.356 	"/>
	<path fill="#FFFFFF" d="M5.914,7.696c0,0-2.758-2.098,0.867-2.959C6.837,4.724,6.68,4.68,6.625,4.653
		C5.504,4.097,6.518,3.077,7.149,2.869c0.632-0.207,2.615-0.196,2.615-0.196s1.379-0.378-0.521-1.354
		c-1.101-0.565,2.341,0.319,3.021,1.494c0.948,1.636-0.843,1.854-0.287,1.982c0.063,0.015,0.125,0.049,0.192,0.058
		c1.876,0.229,1.444,2.672,0.411,2.844C11.545,7.869,5.914,7.696,5.914,7.696z"/>
</g>
</svg>
