<?xml version="1.0" encoding="utf-8"?>
<!-- Generator: Adobe Illustrator 16.0.0, SVG Export Plug-In . SVG Version: 6.00 Build 0)  -->
<!DOCTYPE svg PUBLIC "-//W3C//DTD SVG 1.1//EN" "http://www.w3.org/Graphics/SVG/1.1/DTD/svg11.dtd">
<svg version="1.1" id="Capa_1" xmlns="http://www.w3.org/2000/svg" xmlns:xlink="http://www.w3.org/1999/xlink" x="0px" y="0px"
	 width="18.375px" height="18.273px" viewBox="0 0 18.375 18.273" enable-background="new 0 0 18.375 18.273" xml:space="preserve">
<g>
	<circle fill="#FFFFFF" cx="9.25" cy="9.199" r="5.169"/>
	<polygon fill="none" stroke="#FFFFFF" stroke-width="0.5" stroke-miterlimit="10" points="9.188,2.904 10.664,0.768 11.318,3.28 
		13.438,1.777 13.193,4.363 15.697,3.674 14.585,6.021 17.174,6.229 15.326,8.055 17.688,9.137 15.326,10.22 17.174,12.045 
		14.585,12.254 15.697,14.6 13.193,13.911 13.438,16.497 11.318,14.994 10.664,17.507 9.188,15.371 7.712,17.507 7.056,14.994 
		4.938,16.497 5.182,13.911 2.677,14.6 3.791,12.254 1.201,12.045 3.05,10.22 0.689,9.137 3.05,8.055 1.201,6.229 3.791,6.021 
		2.677,3.674 5.182,4.363 4.938,1.777 7.056,3.28 7.712,0.768 	"/>
</g>
</svg>
