<?xml version="1.0" encoding="utf-8"?>
<!-- Generator: Adobe Illustrator 16.0.0, SVG Export Plug-In . SVG Version: 6.00 Build 0)  -->
<!DOCTYPE svg PUBLIC "-//W3C//DTD SVG 1.1//EN" "http://www.w3.org/Graphics/SVG/1.1/DTD/svg11.dtd">
<svg version="1.1" id="Capa_1" xmlns="http://www.w3.org/2000/svg" xmlns:xlink="http://www.w3.org/1999/xlink" x="0px" y="0px"
	 width="18.375px" height="18.273px" viewBox="0 0 18.375 18.273" enable-background="new 0 0 18.375 18.273" xml:space="preserve">
<path fill="#FFFFFF" d="M2.503,15.239c0,0-1.092-1.988,1.099-3.086c0,0,0.738-0.403,1.402-0.436
	c0.445-0.021,0.711,1.028,0.711,1.028s1.86,0.381,3.085-0.424c1.226-0.802,2.155-2.835,2.451-4.014
	c0.296-1.18,0.931-2.029,0.465-3.466c-0.465-1.438,0.022-2.754,1.944-3.55c1.227-0.509,1.732,0.38,1.732,0.38
	s1.354,2.621,0.424,4.311c-0.93,1.69-1.014,10.859-1.143,11.156l-0.203-0.011c0,0-0.348-7.095,0.202-10.52
	c0.55-3.424-5.197,7.565-5.874,10.523H4.025C3.495,16.834,2.503,15.239,2.503,15.239z"/>
</svg>
