<?xml version="1.0" encoding="utf-8"?>
<!-- Generator: Adobe Illustrator 16.0.0, SVG Export Plug-In . SVG Version: 6.00 Build 0)  -->
<!DOCTYPE svg PUBLIC "-//W3C//DTD SVG 1.1//EN" "http://www.w3.org/Graphics/SVG/1.1/DTD/svg11.dtd">
<svg version="1.1" id="Capa_1" xmlns="http://www.w3.org/2000/svg" xmlns:xlink="http://www.w3.org/1999/xlink" x="0px" y="0px"
	 width="18.375px" height="18.273px" viewBox="0 0 18.375 18.273" enable-background="new 0 0 18.375 18.273" xml:space="preserve">
<g>
	<path fill="#FFFFFF" d="M6.137,4.919c0,0,0.313-2.037,0.997-2.123c0.968-0.122,1.702,2.531,1.978,2.123
		c0.258-0.381,1.662-2.441,2.408-2.295c0.387,0.076,0.953,2.042,0.903,3.096c-0.043,0.924-0.511,1.759-0.829,2.301
		c-0.318,0.543-1.354,1.323-0.72,2.39c0.371,0.623,1.349,1.387,1.397,2.691c0.047,1.308-0.709,3.946-0.709,3.946h-4.75
		c0,0-0.52-0.475-0.742-1.591c-0.138-0.694-0.312-2.815,0.446-4.195c0.494-0.899,0.726-2.619,0.403-3.371
		C6.323,6.499,6.137,4.919,6.137,4.919z"/>
	<path fill="#FFFFFF" d="M9.619,4.218c0,0-1.135-2.217-1.589-2.581C7.685,1.361,7.437,1.593,7.306,1.869
		C7.07,2.367,7.014,2.833,7.014,2.833l0.243-0.037c0,0,0.034-1.128,0.582-1.088c0.259,0.019,1.631,2.7,1.631,2.7L9.619,4.218z"/>
	<path fill="#FFFFFF" d="M8.44,4.146c0,0,1.135-2.217,1.589-2.581c0.345-0.275,0.543-0.106,0.759,0.111
		c0.374,0.378,0.556,0.951,0.556,0.951l-0.213,0.085c0,0-0.288-1.115-0.836-1.075c-0.259,0.019-1.707,2.699-1.707,2.699L8.44,4.146z
		"/>
</g>
</svg>
