<?xml version="1.0" encoding="utf-8"?>
<!-- Generator: Adobe Illustrator 15.0.0, SVG Export Plug-In . SVG Version: 6.00 Build 0)  -->
<!DOCTYPE svg PUBLIC "-//W3C//DTD SVG 1.1//EN" "http://www.w3.org/Graphics/SVG/1.1/DTD/svg11.dtd">
<svg version="1.1" id="Capa_1" xmlns="http://www.w3.org/2000/svg" xmlns:xlink="http://www.w3.org/1999/xlink" x="0px" y="0px"
	 width="612px" height="792px" viewBox="0 0 612 792" enable-background="new 0 0 612 792" xml:space="preserve">
<path fill="#FDFDFD" d="M572.82,64.437c14.26-0.35,1.024,17.574,8.961,31.367C568.963,95.18,573.59,77.11,572.82,64.437z"/>
<path fill="#FDFDFD" d="M574.54,129.951c0.199,0.167,0.361,0.305,0.497,0.42c0.284,0.21,0.69,0.515,1.263,0.95
	c1.835,1.394,3.662,2.798,5.481,4.211v-35.248c-14.607-2.263-8.671,16.021-8.257,28.782
	C573.862,129.362,574.196,129.662,574.54,129.951z"/>
<path fill="#D3CEC7" d="M312.922,203.348c22.404,0,44.812,0,67.215,0C368.012,210.792,325.047,210.792,312.922,203.348z"/>
<path fill="#FDFDFD" d="M572.82,315.372c0,11.95,0,23.899,0,35.848c-2.988,0-5.976,0-8.963,0
	C567.551,339.977,555.146,312.636,572.82,315.372z"/>
<path fill="#FDFDFD" d="M70.949,328.815c13.77-6.856,13.77,29.26,0,22.405C70.949,343.752,70.949,336.284,70.949,328.815z"/>
<path fill="#FFFFFF" d="M147.125,422.916c12.066,5.299-0.018,23.361,0,31.367C135.06,448.986,147.143,430.922,147.125,422.916z"/>
<path fill="#FFFFFF" d="M133.683,508.055c-3.699-12.666,6.313-11.608,4.481-22.403C147.913,489.623,151.852,510.67,133.683,508.055z
	"/>
<path fill="#D3CEC7" d="M187.454,696.256c103.938-6.885,191.323,1.127,309.188,0C411.801,718.219,263.894,717.518,187.454,696.256z"
	/>
<path fill="#EDEAE0" d="M487.07,363.796c1.729-11.91,4.177-24.051,7.692-35.837c1.033-13.105,3.327-26.182,7.151-39.159
	c3.789-12.858,8.418-26.152,14.565-38.482c-0.682-0.712-1.325-1.435-1.913-2.161c-13.221-6.074-27.744-5.607-35.847,4.481
	c-6.938-13.974-15.311-26.513-26.885-35.848c-6.483-9.948-26.672-6.191-35.85-13.443h-35.849c-12.125,7.445-55.09,7.445-67.215,0
	c-9.283-2.667-29.436,5.537-31.367-4.481h-40.329c-15.089,17.772-64.362,1.36-76.177,22.405
	c-10.754,16.133,2.544,56.316-8.962,71.696c-4.213-16.699-2.223-39.6-13.443-49.291c-14.948-0.012-15.298,14.575-31.367,13.443
	h-1.469c9.627,15.844,18.755,31.988,27.076,48.558c1.65,3.286,2.253,6.882,1.782,10.265c38.597,103.283,6.514,226.989-0.502,371.353
	c84.83,55.82,282.968,61.42,385.366,8.961c11.513-85.754-26.514-165.258-31.761-241.096
	C484.355,425.549,482.558,394.889,487.07,363.796z M187.455,696.256c103.938-6.885,191.323,1.127,309.188,0
	C411.801,718.219,263.894,717.518,187.455,696.256z"/>
<path fill="#5B595A" d="M299.479,104.766c3.693,11.244-8.711,38.584,8.962,35.848c2.985,0,5.975,0,8.961,0
	C297.705,162.902,285.809,115.846,299.479,104.766z"/>
<path fill="#867F77" d="M575.938,182.14c0.326-0.355,0.656-0.706,0.979-1.064c1.311-1.454,2.623-2.91,3.854-4.433
	c0.12-0.149,0.223-0.276,0.319-0.396c0.296-0.405,0.575-0.821,0.861-1.232c-1.795-1.396-3.583-2.8-5.361-4.217
	c-17.941-5.325-25.226-21.308-44.1-25.703C540.667,163.751,567.077,164.17,575.938,182.14z"/>
<path fill="#867F77" d="M299.479,100.006c0,1.586,0,3.173,0,4.76c2.812-0.163,3.94-2.006,4.907-4.011
	C302.75,100.537,301.114,100.289,299.479,100.006z"/>
<path fill="#867F77" d="M312.708,101.577c-0.047,14.387,2.72,31.589-4.267,39.038h8.961c10.228-11.39,0.875-24.274-0.119-38.818
	C315.758,101.754,314.233,101.676,312.708,101.577z"/>
<path fill="#222225" d="M519.854,243.942c2.227-3.97,4.626-7.813,7.243-11.461c6.083-8.48,12.702-15.966,21.22-22.064
	c1.952-1.397,3.951-2.622,5.995-3.708c0.764-1.027,1.544-2.042,2.345-3.053c-1.015,1.283-0.98,1.225,0.103-0.174
	c1.075-1.424,2.172-2.832,3.289-4.224c4.964-6.017,10.619-11.383,15.89-17.118c-8.861-17.97-35.271-18.389-43.447-37.045
	c-41.543-20.511-77.27-65.449-127.322-71.475c-1.222,1.767-2.832,3.259-4.845,4.264c-5.36,2.675-10.779,5.366-16.27,7.925
	c3.038,7.386,1.736,24.003-3.916,23.438c-0.549,11.401-6.523,17.375-17.924,17.924c-0.561,9.896-19.01,1.902-26.887,4.481
	c-3.465-9.341-7.125-18.489-8.448-29.973c-3.197,0.162-6.396,0.206-9.595,0.117c0.995,14.545,10.347,27.429,0.119,38.818
	c-19.697,22.288-31.593-24.768-17.923-35.848v-4.76c-2.18-0.378-4.359-0.808-6.538-1.303c-22.008-5.002-47.26-13.813-63.474-30.811
	c-3.072-0.555-5.749-1.167-8.257-1.635c-8.16,8.697-20.054,15.054-29.563,19.611c-15.248,7.307-31.135,12.952-46.885,18.996
	c-1.63,2.063-3.911,3.476-7.012,4.068c-10.735,9.759-21.484,19.408-33.183,28.112c-7.182,5.344-16.497,11.894-22.345,16.506
	c-7.144,5.634-14.446,11.533-20.156,18.684c-0.026,0.115-1.605,2.323-1.661,2.409c-0.528,0.798-1.04,1.605-1.536,2.423
	c-0.096,0.161-0.187,0.324-0.282,0.484c12.07,14.114,20.309,31.47,30.59,47.056c5.818,8.82,11.52,17.725,17.078,26.716
	c8.824-3.147,15.671-16.248,27.426-16.608c21.477-15.865,38.969-35.714,76.177-35.848c22.498-12.702,41.747-3.88,71.696-4.481
	c40.359,2.958,92.572-5.94,125.468,4.481c3.477,1.003,8.84,0.123,8.961,4.481c9.178,7.253,29.367,3.495,35.85,13.443
	c26.773,0.111,35.252,18.519,58.252,22.405C514.279,239.84,517.202,241.755,519.854,243.942z"/>
<path fill="#D3CEC7" d="M514.566,248.157c-13.222-6.074-27.744-5.607-35.849,4.481c-6.938-13.974-15.311-26.513-26.885-35.848
	c26.773,0.111,35.252,18.519,58.252,22.405C510.938,242.825,514.578,243.665,514.566,248.157z"/>
<path fill="#867F77" d="M109.808,257.119h1.47c6.71-8.233,18.7-11.173,22.405-22.405c-11.756,0.36-18.603,13.462-27.428,16.608
	C107.447,253.25,108.631,255.182,109.808,257.119z"/>
<path fill="#5B595A" d="M224.617,62.167c-1.038,1.417-2.179,2.781-3.407,4.09c2.508,0.468,5.185,1.08,8.257,1.635
	C227.74,66.081,226.125,64.169,224.617,62.167z"/>
<path fill="#5B595A" d="M330.961,101.408c-1.361,0.114-2.722,0.202-4.083,0.271c1.323,11.484,4.983,20.632,8.448,29.973
	c7.877-2.579,26.326,5.415,26.887-4.481h-22.404C336.73,118.711,332.191,111.714,330.961,101.408z"/>
<path fill="#5B595A" d="M380.137,87.602v21.646c5.652,0.565,6.954-16.052,3.916-23.438
	C382.752,86.416,381.446,87.013,380.137,87.602z"/>
<path fill="#D3CEC7" d="M312.709,101.577c-2.774-0.18-5.549-0.452-8.323-0.822c-0.967,2.005-2.096,3.849-4.907,4.011
	c3.693,11.244-8.711,38.584,8.962,35.848C315.429,133.166,312.662,115.964,312.709,101.577z"/>
<path fill="#867F77" d="M209.859,198.867c22.498-12.702,41.747-3.88,71.696-4.481c0,1.494,0,2.987,0,4.481
	c-13.443,0-26.886,0-40.329,0C230.771,198.867,220.315,198.867,209.859,198.867z"/>
<path fill="#5B595A" d="M281.555,194.386c40.359,2.958,92.572-5.94,125.468,4.481c-41.822,0-83.646,0-125.468,0
	C281.555,197.373,281.555,195.879,281.555,194.386z"/>
<path fill="#9C9E97" d="M281.555,198.867c41.822,0,83.646,0,125.468,0c3.477,1.003,8.84,0.123,8.961,4.481
	c-11.949,0-23.898,0-35.849,0c-22.403,0-44.811,0-67.215,0C303.639,200.681,283.486,208.885,281.555,198.867z"/>
<path fill="#D3CEC7" d="M241.226,198.867c-15.088,17.772-64.362,1.359-76.177,22.405c-10.753,16.133,2.544,56.316-8.962,71.696
	c-4.212-16.699-2.223-39.6-13.443-49.291c-14.948-0.011-15.298,14.575-31.367,13.443c6.71-8.233,18.7-11.173,22.405-22.405
	c21.477-15.864,38.969-35.713,76.177-35.848C220.315,198.867,230.771,198.867,241.226,198.867z"/>
<path fill="#867F77" d="M516.479,250.318c1.076-2.158,2.2-4.285,3.374-6.375c-2.651-2.187-5.574-4.103-9.768-4.748
	c0.851,3.629,4.492,4.47,4.48,8.962C515.154,248.883,515.798,249.606,516.479,250.318z"/>
<path fill="#BFAFA4" d="M349.408,98.484c-6.142,1.438-12.293,2.408-18.447,2.924c1.23,10.306,5.77,17.304,8.848,25.763h22.404
	c11.4-0.549,17.375-6.524,17.924-17.924V87.602C370.181,92.081,359.973,96.01,349.408,98.484z"/>
</svg>
