<?xml version="1.0" encoding="utf-8"?>
<!-- Generator: Adobe Illustrator 15.0.0, SVG Export Plug-In . SVG Version: 6.00 Build 0)  -->
<!DOCTYPE svg PUBLIC "-//W3C//DTD SVG 1.1//EN" "http://www.w3.org/Graphics/SVG/1.1/DTD/svg11.dtd">
<svg version="1.1" id="Capa_1" xmlns="http://www.w3.org/2000/svg" xmlns:xlink="http://www.w3.org/1999/xlink" x="0px" y="0px"
	 width="612px" height="792px" viewBox="0 0 612 792" enable-background="new 0 0 612 792" xml:space="preserve">
<path fill="#5B595A" d="M133.857,161.326c0.757,5.527,1.524,11.044,2.194,16.615c1.061,1.77,2.101,3.553,3.099,5.363V123.64
	c-0.646,0.123-1.285,0.244-1.912,0.365C132.656,132.99,133.039,146.939,133.857,161.326z"/>
<path fill="#51342C" d="M423.722,158.848v-7.969h-4.989c-1.038,11.015-3.393,25.439-4.829,40.23
	C415.891,179.975,419.341,169.554,423.722,158.848z"/>
<path fill="#5B595A" d="M258.97,255.721c1.665,0,3.329,0,4.993,0c0,14.978,0,29.955,0,44.933c0,9.985,0,19.97,0,29.956
	c-1.664,0-3.328,0-4.993,0c0-3.329,0-6.657,0-9.986C258.97,298.989,258.97,277.356,258.97,255.721z"/>
<path fill="#D3CEC7" d="M308.896,260.714c0,13.313,0,26.626,0,39.94c0,3.329,0,6.657,0,9.985c-1.666,0-3.331,0-4.995,0
	C307.037,295.467,297.513,267.638,308.896,260.714z"/>
<path fill="#BFAFA4" d="M283.935,265.707c11.452,10.18,1.806,41.46,4.99,59.91c0,4.993,0,9.986,0,14.978
	c-11.453-10.18-1.807-41.462-4.99-59.91C283.935,275.691,283.935,270.699,283.935,265.707z"/>
<path fill="#D3CEC7" d="M283.935,280.685c3.184,18.448-6.463,49.73,4.99,59.91c1.125,26.087-0.076,49.839-4.99,69.895
	C275.625,378.797,275.625,312.374,283.935,280.685z"/>
<path fill="#D3CEC7" d="M303.902,360.564c0,13.312,0,26.627,0,39.939c0,4.991,0,9.985,0,14.979c-1.662,0-3.326,0-4.991,0
	C302.07,398.671,292.476,369.105,303.902,360.564z"/>
<path fill="#51342C" d="M263.963,710.038c-3.042-0.284-5.908-0.748-4.993-4.993c24.964,0,49.926,0,74.887,0
	C320.402,716.552,285.702,706.821,263.963,710.038z"/>
<path fill="#EDEAE0" d="M268.956,720.024c18.307,0,36.61,0,54.918,0C316.878,728.292,275.95,728.292,268.956,720.024z"/>
<path fill="#EDEAE0" d="M199.061,100.955c8.886-2.418-2.165-5.325-4.992-9.985c20.698,5.721,19.451-10.499,34.947-9.984
	c18.793,29.921,91.192,12.078,114.829,0c7.47,5.844,20.418,6.207,24.962,14.977c-19.688-3.049-5.877,27.413-9.983,39.94
	c-4.661,3.66-7.566,9.074-9.986,14.978c-4.042,0.949-4.979,5.005-9.984,4.993c-14.858,8.438-20.398,26.204-34.948,34.947
	c2.731,7.254-5.837,25.8,4.995,24.962c0,14.977,0,29.955,0,44.932c-11.384,6.924-1.859,34.753-4.995,49.925
	c0,16.642,0,33.282,0,49.925c-11.427,8.541-1.832,38.106-4.991,54.917c0,38.275,0,76.55,0,114.826
	c-17.525,13.879-15.303-25.347-14.977-44.933c-11.084,7.222-6.898,29.715-14.979,39.939c-7.203-62.152,4.706-148.371,0-224.663
	c-0.396-37.008-1.131-74.354,4.992-104.842c-8.204-12.663-16.694,16.194-34.947,9.985c-3.64-13.619,9.92-10.05,9.985-19.97
	c-0.917-4.246,1.95-4.707,4.993-4.993c-21.57-11.714-36.053-30.514-54.918-44.932c0-1.665,0-3.328,0-4.993
	C199.061,120.924,199.061,110.939,199.061,100.955z M239.001,115.932c-53.747-17.637,12.02,61.977,64.901,49.925
	c18.612-4.245,42.574-26.21,34.948-59.91c-25.3,16.317-56.257,11.623-89.865,9.985C245.657,115.932,242.33,115.932,239.001,115.932z
	 M288.925,325.617c12.729-38.861-1.807-104.985,9.986-144.783c-28.85,9.66-2.12,53.637-14.977,84.873c0,4.992,0,9.984,0,14.978
	c-8.31,31.689-8.31,98.112,0,129.805c4.914-20.056,6.115-43.808,4.99-69.895C288.925,335.603,288.925,330.61,288.925,325.617z"/>
<path fill="#D3CEC7" d="M268.956,300.654c4.706,76.292-7.203,162.509,0,224.663c8.08-10.226,3.895-32.719,14.979-39.939
	c-0.326,19.586-2.549,58.813,14.977,44.933c3.438,16.608-10.324,8.05-14.977,4.993c-1.133-6.357-14.901-6.54-14.979,0
	c-4.993,0-9.986,0-14.978,0c1.287-22.012,7.982-38.622,4.992-64.902c11.611-36.649,1.69-94.824,4.993-139.79
	c0-9.986,0-19.971,0-29.956C265.627,300.654,267.292,300.654,268.956,300.654z"/>
<path fill="#51342C" d="M358.821,135.902c3.277-0.144,5.519-1.323,7.05-3.212C362.584,133.405,360.071,134.389,358.821,135.902z"/>
<path fill="#51342C" d="M400.67,121.451c-6.201-3.544-11.342-7.957-15.857-12.956c-3.889-2.295-8.466-3.904-16.008-2.548
	c-0.057,9.834,1.495,21.279-2.934,26.743c11.35-2.47,32.061-1.694,43.167-7.972C406.14,123.966,403.316,122.964,400.67,121.451z"/>
<path fill="#5B595A" d="M180.753,108.474c-8.506,7.697-22.176,11.282-34.46,13.777c14.049,6.227,46.557-19.319,52.768,8.658v-29.955
	C192.683,103.185,187.198,106.31,180.753,108.474z"/>
<path fill="#51342C" d="M199.06,135.902v-4.993c-6.21-27.978-38.718-2.431-52.767-8.658c-2.454,0.498-4.851,0.954-7.142,1.389v2.277
	c12.254,17.012,33.4,5.792,54.917,4.992c-0.267,8.588,3.842,12.8,9.985,14.978C204.065,140.881,200.01,139.945,199.06,135.902z"/>
<path fill="#51342C" d="M181.208,346.603c1.288,15.708,1.283,31.491,0.445,47.224c-0.364,6.836-0.828,13.67-1.387,20.498
	c4.477-30.035,5.357-60.802-1.177-93.701c-0.829-0.242-1.636-0.443-2.432-0.628C178.683,328.732,180.463,337.504,181.208,346.603z"
	/>
<path fill="#51342C" d="M139.15,603.396v11.783c0.329-5.462,0.789-10.859,1.353-16.204
	C140.053,600.449,139.601,601.923,139.15,603.396z"/>
<path fill="#51342C" d="M204.053,150.879c11.025,13.937,32.647,17.278,39.939,34.948c-22.102-0.631-4.458,25.995,0,29.955
	c8.543,0.221,12.931-3.712,14.978-9.985c11.382,6.923,1.859,34.752,4.993,49.924c-1.664,0-3.328,0-4.993,0
	c0-11.649,0-23.298,0-34.947c-8.49-1.833-9.418,3.893-9.984,9.984c-5.305-15.315-30.561-29.46-14.978-49.925
	C221.007,173.865,211.626,163.276,204.053,150.879z"/>
<path fill="#222225" d="M392.783,384.244c-0.272-11.253,0.153-22.502,1.063-33.723c-0.222-1.676-0.43-3.355-0.62-5.039
	c-5.279-46.607,5.101-92.139,18.588-136.479c0.258-2.882,0.512-5.764,0.798-8.643c0.313-3.146,0.75-6.216,1.289-9.236
	c1.437-14.796,3.792-29.228,4.83-40.247h4.99v-16.82c-0.543-2.297-1.175-4.577-1.974-6.797c-0.023-0.042-0.063-0.123-0.104-0.208
	c-0.735-0.135-1.474-0.26-2.214-0.375c-3.473-0.541-6.984-1.075-10.392-1.959c-14.324,8.095-44.648,4.447-50.216,11.183
	c-4.661,3.66-7.566,9.075-9.986,14.978c-6.856,15.797-1.085,16.687,0,34.948c-6.746,1.573-9.536,7.105-19.969,4.992
	c-0.456,7.866-12.735,3.908-9.986,14.978c2.262,54.163-2.417,130.298-9.983,189.715v4.992c-3.295,41.636,6.61,96.475-4.994,129.805
	c6.542,14.243-23.767,24.179-19.968,4.993c-1.133-6.357-14.902-6.54-14.979,0c-0.924,7.39-12.065,4.575-19.971,4.995
	c11.947-64.608-2.86-155.958,9.984-219.671v-99.85c-8.49-1.833-9.418,3.892-9.984,9.984c-5.305-15.316-30.561-29.461-14.978-49.925
	c-13.001-6.969-22.382-17.559-29.955-29.955v-4.993c-6.143-2.179-10.252-6.391-9.985-14.978c-21.517,0.8-42.663,12.02-54.917-4.992
	v34.947c7.392,10.623,9.783,26.247,10.325,43.721c1.356,3.135,2.665,6.273,3.929,9.397c8.899,22.006,15.141,44.56,18.58,68.041
	c1.707,11.654,3.085,23.361,4,35.09c0.228,0.96,0.453,1.921,0.676,2.882c0.795,0.185,1.603,0.386,2.432,0.628
	c6.534,32.899,5.654,63.666,1.177,93.7c-1.993,24.377-5.256,48.665-10.102,72.629c-7.667,37.921-18.396,75.049-29.663,112.023
	c-0.563,5.345-1.024,10.741-1.353,16.203c1.105,23.854,28.512,21.415,34.947,39.942c23.975,20.957,40.089,49.773,84.872,49.923
	h74.887c63.981-10.91,85.238-64.539,99.853-124.811c-8.724-55.337-33.915-109.341-38.406-169.189
	C393.882,402.255,393.004,393.333,392.783,384.244z"/>
<path fill="#5B595A" d="M204.053,150.879c0-1.665,0-3.328,0-4.993c0.013-5.006-4.042-5.941-4.993-9.985
	c18.865,14.418,33.348,33.218,54.918,44.932c-3.042,0.286-5.91,0.748-4.993,4.993c-1.665,0-3.329,0-4.993,0
	C236.7,168.157,215.079,164.816,204.053,150.879z"/>
<path fill="#5B595A" d="M338.851,155.872c5.007,0.013,5.942-4.043,9.984-4.993c-6.855,15.796-1.085,16.687,0,34.948
	c-6.746,1.573-9.536,7.105-19.969,4.992C328.364,175.341,334.971,166.969,338.851,155.872z"/>
<path fill="#D3CEC7" d="M338.851,155.872c-3.88,11.097-10.485,19.469-9.983,34.947c-20.906-5.922-22.356,7.599-19.97,24.962
	c-10.832,0.838-2.264-17.708-4.995-24.962C318.451,182.076,323.991,164.31,338.851,155.872z"/>
<path fill="#D3CEC7" d="M283.935,265.707c12.856-31.236-13.873-75.213,14.977-84.873c-11.793,39.797,2.742,105.922-9.986,144.783
	C285.74,307.167,295.387,275.887,283.935,265.707z"/>
<path fill="#51342C" d="M415.391,475c-9.432-20.664-16.52-41.869-20.087-63.945c4.492,59.844,29.683,113.846,38.405,169.18
	c3.285-27.061-4.797-56.591-10.592-89.178C420.518,485.814,417.901,480.502,415.391,475z"/>
<path fill="#5B595A" d="M438.75,595.945c0.511-25.479,4.787-31.151-0.051-55.651c0.243-4.896,0.275-9.582,0.127-14.087
	c-0.261-0.725-0.512-1.452-0.775-2.175c-4.155-11.391-9.506-22.026-14.932-32.972c5.795,32.586,13.877,62.114,10.591,89.174
	c-14.615,60.272-35.872,113.901-99.852,124.811c-13.456,11.507-48.156,1.776-69.896,4.993v4.993h59.911
	c61.96-11.344,95.287-51.318,112.604-107.302C437.26,603.778,438.021,599.854,438.75,595.945z"/>
<path fill="#9C9E97" d="M384.814,108.498c-3.399-3.763-6.447-7.856-9.306-12.178c-2.048-0.307-4.263-0.445-6.704-0.358
	c-19.688-3.049-5.877,27.413-9.983,39.94c12.754-0.559,9.907-16.72,9.983-29.954C376.348,104.592,380.925,106.201,384.814,108.498z"
	/>
<path fill="#BFAFA4" d="M132.253,124.997c-0.611,0.129-1.223,0.262-1.834,0.396c0.004,0.49,0.009,0.981,0.026,1.472
	c0.403,11.942,1.875,23.232,3.414,34.467c-0.819-14.389-1.203-28.34,3.38-37.326C135.494,124.339,133.822,124.666,132.253,124.997z"
	/>
<path fill="#222225" d="M239.001,115.932c3.329,0,6.656,0,9.985,0c24.533,15.725,60.502,5.701,89.865,0
	c-7.521,60.501-102.149,51.186-114.827,0C229.015,115.932,234.008,115.932,239.001,115.932z"/>
<path fill="#5B595A" d="M248.986,115.932c33.608,1.638,64.565,6.332,89.865-9.985c7.626,33.7-16.336,55.665-34.948,59.91
	c-52.881,12.052-118.648-67.562-64.901-49.925c-4.993,0-9.986,0-14.978,0c12.677,51.186,107.306,60.501,114.827,0
	C309.488,121.633,273.519,131.657,248.986,115.932z"/>
<path fill="#9C9E97" d="M248.986,185.827c-0.064,9.92-13.625,6.351-9.985,19.97c18.253,6.208,26.743-22.648,34.947-9.985
	c-6.123,30.488-5.389,67.834-4.992,104.842c-1.665,0-3.329,0-4.993,0c0-14.978,0-29.955,0-44.933
	c-3.133-15.172,6.39-43.001-4.993-49.924c-2.046,6.273-6.435,10.206-14.978,9.985c-4.458-3.959-22.102-30.586,0-29.955
	C245.657,185.827,247.321,185.827,248.986,185.827z"/>
<path fill="#867F77" d="M308.896,215.782c-2.388-17.363-0.938-30.884,19.97-24.962c-0.456,7.865-12.735,3.907-9.986,14.978
	c-14.847,20.1,4.864,74.758-9.982,94.857c0-13.313,0-26.626,0-39.94C308.896,245.736,308.896,230.759,308.896,215.782z"/>
<path fill="#5B595A" d="M318.88,205.797c2.262,54.163-2.417,130.298-9.982,189.715c0-28.291,0-56.582,0-84.873
	c0-3.329,0-6.657,0-9.985C323.744,280.555,304.033,225.897,318.88,205.797z"/>
<path fill="#867F77" d="M425.403,145.255c-0.127-1.606-0.277-3.212-0.46-4.814c-0.077-0.231-0.648-3.823-0.796-4.508
	c-0.135-0.625-0.278-1.249-0.426-1.872v24.786c0.11-0.27,0.218-0.539,0.329-0.809c0.588-1.424,1.18-2.851,1.769-4.277
	C425.757,150.926,425.628,148.09,425.403,145.255z"/>
<path fill="#51342C" d="M149.476,204.587c-0.542-17.474-2.933-33.1-10.325-43.722v22.438
	C142.969,190.223,146.363,197.391,149.476,204.587z"/>
<path fill="#9C9E97" d="M308.896,310.639c0,28.291,0,56.582,0,84.873c0,1.664,0,3.328,0,4.992c-1.666,0-3.331,0-4.995,0
	c0-13.313,0-26.628,0-39.939c0-16.644,0-33.283,0-49.925C305.566,310.639,307.23,310.639,308.896,310.639z"/>
<path fill="#867F77" d="M258.97,470.398c0-46.597,0-93.193,0-139.79c1.665,0,3.329,0,4.993,0
	C260.661,375.574,270.581,433.749,258.97,470.398z"/>
<path fill="#9C9E97" d="M303.902,415.481c0,38.275,0,76.55,0,114.826c6.542,14.243-23.767,24.179-19.968,4.993
	c4.652,3.057,18.415,11.615,14.977-4.993c0-38.276,0-76.551,0-114.826C300.576,415.481,302.24,415.481,303.902,415.481z"/>
<path fill="#51342C" d="M258.97,470.398c2.991,26.28-3.705,42.892-4.992,64.902c4.992,0,9.984,0,14.978,0
	c-0.924,7.391-12.065,4.575-19.97,4.993c11.948-64.609-2.86-155.958,9.984-219.671c0,3.329,0,6.657,0,9.986
	C258.97,377.205,258.97,423.803,258.97,470.398z"/>
<path fill="#5B595A" d="M308.896,400.504c-3.296,41.636,6.609,96.475-4.995,129.805c0-38.276,0-76.551,0-114.826
	c0-4.992,0-9.986,0-14.979C305.566,400.504,307.23,400.504,308.896,400.504z"/>
<path fill="#BFAFA4" d="M136.317,612.638c0.869,0.931,1.803,1.791,2.834,2.542v-11.787
	C138.208,606.475,137.265,609.557,136.317,612.638z"/>
<path fill="#9C9E97" d="M438.75,595.945c2.942-15.79,5.317-31.308,6.074-47.197c-1.442-3.276-3.442-6.164-6.125-8.453
	C443.537,564.794,439.261,570.466,438.75,595.945z"/>
<path fill="#867F77" d="M263.963,715.031c-49.217-0.71-71.416-28.436-89.865-59.909c23.975,20.957,40.089,49.772,84.872,49.923
	c-0.916,4.245,1.95,4.709,4.993,4.993C263.963,711.703,263.963,713.367,263.963,715.031z"/>
<path fill="#9C9E97" d="M268.956,715.031c18.307,0,36.61,0,54.918,0c0,1.665,0,3.329,0,4.993c-18.308,0-36.611,0-54.918,0
	C268.956,718.36,268.956,716.696,268.956,715.031z"/>
</svg>
