<?xml version="1.0" encoding="utf-8"?>
<!-- Generator: Adobe Illustrator 15.0.0, SVG Export Plug-In . SVG Version: 6.00 Build 0)  -->
<!DOCTYPE svg PUBLIC "-//W3C//DTD SVG 1.1//EN" "http://www.w3.org/Graphics/SVG/1.1/DTD/svg11.dtd">
<svg version="1.1" id="Capa_1" xmlns="http://www.w3.org/2000/svg" xmlns:xlink="http://www.w3.org/1999/xlink" x="0px" y="0px"
	 width="612px" height="792px" viewBox="0 0 612 792" enable-background="new 0 0 612 792" xml:space="preserve">
<path fill="#9F0055" d="M420.906,240.379c1.063-1.619,2.171-3.206,3.319-4.763c-0.606-0.868-1.343-1.681-2.268-2.41
	C422.092,235.443,421.636,237.87,420.906,240.379z"/>
<path fill="#9F0055" d="M359.065,410.09c14.971-2.933,8.495,25.459-3.932,19.654C358.432,425.184,360.32,419.205,359.065,410.09z"/>
<path fill="#9F0055" d="M351.203,433.674c8.18,8.609,12.704-3.449,19.654,3.933c-5.058,10.18-8.127,12.35-19.654,7.86
	C351.203,441.535,351.203,437.605,351.203,433.674z"/>
<path fill="#9F0055" d="M186.112,484.773c4.647,13.549,7.166,36.026-7.862,39.309C184.233,514.344,179.223,493.604,186.112,484.773z
	"/>
<path fill="#9F0055" d="M159.102,534.485c0.017,1.959-0.111,3.772-0.505,5.319v11.793h3.931v-39.587
	C161.621,519.531,160.598,527.063,159.102,534.485z"/>
<path fill="#FDFDFD" d="M532.02,535.875c-13.471-2.258-12.146-19.301-19.653-27.516C529.957,506.492,532.034,520.137,532.02,535.875
	z"/>
<path fill="#9F0055" d="M315.827,528.014c3.931,0,7.862,0,11.792,0c-6.735,6.365-1.521,24.685-15.723,23.584
	C311.81,542.34,318.667,540.025,315.827,528.014z"/>
<path fill="#9F0055" d="M158.596,551.598c1.311,0,2.621,0,3.931,0c0,2.621,0,5.24,0,7.861s0,5.24,0,7.861
	c0,11.793,0,23.584,0,35.377C153.489,593.393,161.12,567.418,158.596,551.598z"/>
<path fill="#9F0055" d="M416.624,570.104c-11.882,7.182-15.092,49.899-18.251,64.04c16.045,3.011,21.202-4.863,25.992-13.104
	C421.065,604.216,418.643,587.19,416.624,570.104z"/>
<path fill="#9F0055" d="M201.835,594.836c17.458,1.383-2.712,23.549-3.931,31.445c-11.106,3.25-10.185-5.537-19.654-3.931
	C192.684,619.752,199.849,609.889,201.835,594.836z"/>
<path fill="#9F0055" d="M272.589,614.49c9.171,0,18.343,0,27.515,0c-0.471,11.322,2.15,25.733-3.931,31.444
	c-14.341,2.556-20.934-2.646-27.516-7.86C269.968,624.152,279.472,628.412,272.589,614.49z"/>
<path fill="#9F0055" d="M83.912,182.105c10.687-31.272,32.183-72.597,58.961-74.684c-9.52,6.203-17.381,14.064-23.584,23.584
	c-17.197,10.318-20.462,34.568-31.446,51.1C86.532,182.105,85.222,182.105,83.912,182.105z"/>
<path fill="#9F0055" d="M473.035,195.123c3.737-2.03,7.537-3.949,11.379-5.757c2.545-3.952,5.087-7.907,8.298-11.192
	c-1.604-10.757-5.386-19.337-10.401-26.683c-1.617,1.227-3.28,2.39-4.977,3.501c4.323,5.909,8.28,12.185,11.448,19.252
	c-4.586,7.206-10.279,13.307-15.725,19.653C473.071,194.327,473.049,194.72,473.035,195.123z"/>
<path fill="#9F0055" d="M279.449,203.942c-15.126,0.528-30.235-1.163-44.456-5.197c-1.139-0.323-2.258-0.677-3.368-1.042
	c8.47,21.769,29.156,39.134,48.825,23.709C279.132,218.387,279.512,211.154,279.449,203.942z"/>
<path fill="#9F0055" d="M342.66,193.443c-4.054,0.469-8.113,0.854-12.175,1.181c-0.287,0.051-0.575,0.099-0.861,0.151
	c-2.083,0.385-4.163,0.783-6.24,1.197c-6.075,2.043-12.292,3.724-18.603,4.995c-0.958,2.175-1.542,4.725-0.746,8.653
	c4.796,0.445,9.305,1.178,7.862,7.862c14.135-4.474,24.155-13.062,31.802-24.023C343.354,193.447,343.007,193.447,342.66,193.443z"
	/>
<path fill="#9F0055" d="M405.763,181.318c-17.328,4.476-34.917,8.215-52.635,10.764c-2.124,1.151-4.519,1.749-7.039,1.519
	c-0.796-0.073-1.593-0.115-2.39-0.142c-7.646,10.962-17.667,19.551-31.803,24.025c1.442-6.684-3.067-7.417-7.862-7.862
	c-0.796-3.93-0.212-6.479,0.747-8.655c-8.349,1.682-16.843,2.68-25.333,2.976c0.063,7.212-0.316,14.446,1.002,17.472
	c-19.669,15.426-40.355-1.942-48.826-23.712c-32.063-10.556-52.118-38.439-68.309-67.148c-5.474-5.844-10.555-12.058-15.256-18.563
	c-10.577,4.006-21.213,13.197-28.766,19.016c-17.197,10.318-20.463,34.568-31.446,51.1c-0.758,23.032,23.671,20.878,23.584,43.239
	c0.596,1.518,1.216,3.011,1.826,4.514c5.047-2.328,10.41-3.965,15.843-5.266c0.053-13.152,3.854-25.347,13.777-34.625
	c-3.89,8.364-1.597,19.292,2.814,31.297c7.476-1.265,15.16-2.023,22.53-0.538c11.521,2.321,18.354,14.366,19.878,25.171
	c1.436,10.186,1.113,19.975,0.919,30.204c-0.291,15.31,0.043,30.61-0.684,45.915c-0.392,8.245-0.94,16.491-1.886,24.693
	c-0.391,3.39-0.856,6.767-1.344,10.144c-0.077,0.53-0.15,1.06-0.225,1.59c-0.007,0.052-0.014,0.106-0.02,0.152
	c-1.61,12.526-2.972,25.219-5.271,37.699c-1.622,26.277-7.145,52.106-11.846,78.04c-0.312,1.721-0.627,3.442-0.937,5.165
	c-0.117,0.961-0.274,1.882-0.484,2.75c-0.31,1.788-0.609,3.577-0.876,5.37c-0.106,0.716-0.207,1.432-0.309,2.147
	c-0.077,0.6-0.178,1.38-0.215,1.684c-0.59,4.844-1.116,9.694-1.682,14.54c-0.233,1.994-0.469,3.993-0.71,5.991v47.477
	c7.462-18.738,2.804-49.605,7.861-70.754c27.024,0.066,31.61-24.563,27.515-35.377c7.319,0.543,13.139,2.584,15.724,7.861
	c-5.068,52.829-4.371,103.356,7.861,145.438c0.532,1.832-12.862,35.603,15.723,27.516c-7.739-21.303-4.3-16.859,0-39.309
	c-5.881-0.67-14.505,1.402-15.723-3.932c1.453-22.132,19.817-27.35,27.515-43.238c-6.178-0.373-13.63,0.53-11.792-7.861
	c32.817,0.912,15.477-58.771,23.584-70.754c21.926,6.164-6.434,29.24,15.723,43.238c-20.058,30.629-3.767,74.301,7.861,98.27
	c-0.016-10.498,12.421-8.543,11.792-19.653c-7.406-20.504,8.23-35.289,0-70.752c7.063-9.972,24.522-9.548,35.375-15.724
	c-6.761,0.209-10.077-3.024-11.792-7.862c9.808-7.556,16.153,5.998,23.585-3.931c-14.094-1.137-4.974-23.194,3.932-11.793
	c-2.17-6.996-2.018-16.322-7.862-19.653c2.815,6.372-18.537,6.372-15.722,0c11.884-2.527,22.683-6.143,23.584-19.654
	c-6.193-6.014-21.916,5.594-27.517-7.861c8.195-6.217,16.011-12.814,27.517-15.723c-12.381-32.515,5.111-64.299-3.932-90.407
	c16.357,7.124,28.39-0.251,43.238,15.723c5.864-25.232-14.592-57.372-38.564-32.234c13.563-14.754-16.589-6.67-16.468-18.865h15.725
	c-0.287-10.461-11.384-30.197-3.932-35.377c8.865,8.163,15.729,18.338,15.724,35.377c7.432,0.88,8.671-4.433,15.724-3.931
	c6.028-21.215,7.656-43.336-3.932-62.892c9.259,0.087,11.571-6.771,23.585-3.931c-1.096-10.267-1.33-19.669,11.792-15.723
	C404.628,198.149,404.603,189.795,405.763,181.318z"/>
<path fill="#9F0055" d="M472.421,158.007c3.56,10.489,3.517,23.288,0.637,35.892c5.446-6.346,11.139-12.447,15.725-19.653
	c-3.169-7.067-7.126-13.343-11.45-19.253C475.727,156.045,474.088,157.049,472.421,158.007z"/>
<path fill="#9F0055" d="M398.37,634.146c3.16-14.143,6.369-56.865,18.254-64.042c-2.756-23.325-4.77-46.762-7.264-69.952
	c-1.655-15.398-3.428-29.501-5.328-43.169c-2.3-16.548-4.986-33.054-6.845-49.661c-1.534-13.713-2.557-27.555-2.086-41.362
	c-3.713-29.609,0.019-59.675,10.904-87.521c0.042-0.321,0.076-0.642,0.133-0.963c0.48-2.743,1.086-5.414,1.774-8.035
	c2.513-30.723,7.629-64.92,14.227-92.577c-5.432,1.547-10.893,3.038-16.381,4.456c-1.16,8.476-1.135,16.831,0.472,24.372
	c-13.121-3.946-12.887,5.456-11.792,15.723c-12.013-2.84-14.325,4.018-23.585,3.931c11.589,19.556,9.961,41.677,3.933,62.892
	c-7.053-0.502-8.292,4.811-15.725,3.931c0.007-17.039-6.858-27.213-15.723-35.377c-7.452,5.179,3.645,24.915,3.931,35.377h-15.724
	c-0.121,12.194,30.032,4.11,16.466,18.867c23.973-25.14,44.432,6.999,38.566,32.232c-14.849-15.974-26.881-8.598-43.238-15.723
	c9.043,26.108-8.45,57.891,3.931,90.407c-11.506,2.909-19.321,9.506-27.516,15.723c5.6,13.455,21.324,1.848,27.516,7.861
	c-0.9,13.511-11.699,17.127-23.584,19.654c-2.814,6.372,18.537,6.372,15.723,0c5.844,3.332,5.691,12.657,7.861,19.653
	c-8.905-11.401-18.025,10.656-3.931,11.793c-7.432,9.929-13.778-3.625-23.585,3.931c1.715,4.838,5.031,8.071,11.792,7.862
	c-10.854,6.177-28.313,5.752-35.376,15.724c8.23,35.463-7.406,50.248,0,70.752c0.63,11.11-11.807,9.155-11.792,19.653
	c-11.628-23.969-27.919-67.641-7.861-98.27c-22.157-13.998,6.203-37.074-15.723-43.238c-8.106,11.983,9.233,71.666-23.584,70.754
	c-1.838,8.391,5.614,7.488,11.792,7.861c-7.698,15.888-26.061,21.106-27.515,43.238c1.218,5.334,9.842,3.262,15.723,3.932
	c-4.3,22.45-7.739,18.006,0,39.309c-8.717,2.466-13.525,1.036-16.021-2.19c-1.071,3.492-4.599,4.527-3.637,10.054
	c32.645,10.805,81.748,11.864,110.063,15.724c19.803-2.474,43.044-1.507,51.1-15.724c14.465-5.625,42.938,2.76,47.286-12.98
	c-0.569-2.657-1.113-5.321-1.637-7.989C419.573,629.28,414.417,637.157,398.37,634.146z M296.174,645.935
	c-14.342,2.556-20.934-2.646-27.516-7.86c1.31-13.922,10.814-9.662,3.932-23.584h27.515
	C299.634,625.813,302.255,640.224,296.174,645.935z M311.896,551.598c-0.087-9.258,6.771-11.572,3.931-23.584h11.792
	C320.883,534.379,326.099,552.698,311.896,551.598z M359.066,410.09c14.97-2.933,8.496,25.459-3.932,19.654
	C358.432,425.184,360.32,419.205,359.066,410.09z M351.203,445.467v-11.793c8.179,8.61,12.704-3.449,19.654,3.933
	C365.801,447.785,362.73,449.955,351.203,445.467z"/>
<path fill="#9F0055" d="M429.816,205.692c1.657-7.518,1.423-16.921,11.793-15.723c-3.561,12.228-4.907,22.065-5.242,31.705
	c10.023-9.88,21.78-18.242,34.348-25.28c0.766-0.846,1.542-1.681,2.34-2.495c2.879-12.603,2.922-25.402-0.636-35.891
	c-11.779,6.768-24.953,11.311-37.826,15.201c-2.797,0.845-5.605,1.675-8.42,2.494C425.399,187.688,423.401,200.896,429.816,205.692z
	"/>
<path fill="#9F0055" d="M221.488,606.628c-12.232-42.082-12.928-92.609-7.861-145.438c-2.585-5.277-8.405-7.318-15.724-7.861
	c3.109,8.211,1.202,24.377-11.72,31.66c4.601,13.569,7.017,35.829-7.933,39.094c5.894-9.593,1.129-29.853,7.569-38.896
	c-4.04,2.19-9.116,3.535-15.431,3.52c-5.056,21.148-0.399,52.016-7.861,70.754c0,2.621,0,5.24-0.004,7.862
	c10.103,10.532,5.62-10.533,15.723,0c-12.284,13.814-16.454,45.666-3.93,62.893c23.032-2.613,31.626,14.936,46.278,0.868
	C215.974,623.361,221.844,607.854,221.488,606.628z M197.904,626.282c-11.107,3.25-10.185-5.537-19.654-3.931
	c14.434-2.6,21.599-12.463,23.585-27.515C219.293,596.219,199.123,618.386,197.904,626.282z"/>
<path fill="#9F0055" d="M111.427,225.344c-6.449-17.136-25.55-21.62-27.516-43.239c1.311,0,2.621,0,3.931,0
	C87.085,205.138,111.514,202.983,111.427,225.344z"/>
<path fill="#9F0055" d="M144.867,107.455c-0.653,0-1.311-0.004-1.994-0.034c-9.519,6.203-17.38,14.064-23.584,23.584
	c7.554-5.819,18.19-15.011,28.768-19.017C146.975,110.491,145.911,108.98,144.867,107.455z"/>
<path fill="#9F0055" d="M178.25,567.32c-10.103-10.533-5.62,10.533-15.723,0c0,11.793,0,23.584,0.001,35.378v11.793
	c2.872,6.107,6.801,11.157,11.559,15.378C161.857,612.567,166.045,581.044,178.25,567.32z"/>
<path fill="#9F0055" d="M327.62,660.307v-2.577c-28.314-3.86-77.418-4.919-110.062-15.724c-1.106-6.348,3.716-6.768,3.931-11.793
	c-15.174,15.643-23.64-2.586-47.025-0.013c25.62,22.29,74.834,20.987,114.763,28.969
	C302.024,659.582,314.821,659.984,327.62,660.307z"/>
<path fill="#9F0055" d="M137.683,222.755c2.625-0.509,5.302-1.031,8.006-1.489c-4.412-12.006-6.705-22.935-2.815-31.299
	c-9.924,9.278-13.725,21.475-13.777,34.627C131.953,223.91,134.826,223.309,137.683,222.755z"/>
<path fill="#9F0055" d="M420.907,240.377c0.729-2.508,1.185-4.935,1.051-7.171c0.925,0.729,1.661,1.542,2.268,2.41
	c3.656-4.958,7.733-9.598,12.146-13.946c0.335-9.639,1.682-19.476,5.241-31.702c-10.37-1.198-10.136,8.204-11.792,15.723
	c-6.416-4.795-4.419-18.004-3.645-29.988c-1.343,0.391-2.688,0.777-4.033,1.16c-6.596,27.652-11.711,61.841-14.225,92.56
	C410.716,258.77,415.17,249.113,420.907,240.377z"/>
<path fill="#9F0055" d="M158.596,551.598c2.523,15.82-5.107,41.795,3.931,51.101c0,3.932,0,7.86,0,11.793
	c-12.811-10.855-9.863-58.164-3.931-74.687C158.596,543.736,158.596,547.666,158.596,551.598z"/>
</svg>
