<?xml version="1.0" encoding="utf-8"?>
<!-- Generator: Adobe Illustrator 15.0.0, SVG Export Plug-In . SVG Version: 6.00 Build 0)  -->
<!DOCTYPE svg PUBLIC "-//W3C//DTD SVG 1.1//EN" "http://www.w3.org/Graphics/SVG/1.1/DTD/svg11.dtd">
<svg version="1.1" id="Capa_1" xmlns="http://www.w3.org/2000/svg" xmlns:xlink="http://www.w3.org/1999/xlink" x="0px" y="0px"
	 width="612px" height="792px" viewBox="0 0 612 792" enable-background="new 0 0 612 792" xml:space="preserve">
<path fill="#EDEAE0" d="M451.229-34.736c0,13.705,0,27.41,0,41.115C444.426,1.945,444.426-30.303,451.229-34.736z"/>
<path fill="#EDEAE0" d="M350.971,79.823c-27.365,7.231-86.36,7.231-113.725,0C275.153,79.823,313.063,79.823,350.971,79.823z"/>
<path fill="#D3CEC7" d="M246.343,153.7c14.358-2.127,16.064,7.831,31.844,4.346C279.75,169.459,237.832,174.58,246.343,153.7z"/>
<path fill="#867F77" d="M411,360.5c0.151-3.049,1.082-5.912,2.611-8.333c0.63-11.617,2.396-23.197,4.546-34.609
	c1.768-9.381,3.804-18.707,5.699-28.063c0.942-4.651,1.872-9.306,2.682-13.982c0.402-2.322,0.801-4.646,1.148-6.977
	c-0.038,0.253,0.425-3.224,0.476-3.472c0.054-0.475,0.093-0.949,0.141-1.423v-57.792c-12.54-5.407,5.77-40.275-18.195-34.766
	c3.264,94.499-7.878,198.013-13.647,269.434c3.905,0.356,6.981-0.081,9.409-1.136C405.218,413.059,409.699,386.747,411,360.5z"/>
<path fill="#D3CEC7" d="M319.127,192.811c18.51-14.564,37.026,7.919,59.137,4.346C362.55,209.051,336.506,193.756,319.127,192.811z"
	/>
<path fill="#EDEAE0" d="M169.011,197.157c0,24.625,0,49.251,0,73.877C161.453,256.409,161.453,211.781,169.011,197.157z"/>
<path fill="#D3CEC7" d="M328.227,214.54c8.263-11.776,27.447,2.408,36.392,4.346c-4.502,10.904-3.976,14.554,0,30.419
	c-20.224,6.219-24.072,1.186-36.392-8.692c4.466-5.873,12.137-8.685,18.195-13.037C345.153,218.651,334.273,218.905,328.227,214.54z
	"/>
<path fill="#FFFFFF" d="M455.598,453.554c16.509-4.181,3.819,19.525,18.195,17.382C465.732,483.876,449.556,468.424,455.598,453.554
	z"/>
<path fill="#9C9E97" d="M360.068,527.431c0-2.896,0-5.795,0-8.69c10.715,0.095,13.393-7.487,27.294-4.346
	C380.982,521.336,371.689,525.496,360.068,527.431z"/>
<path fill="#D3CEC7" d="M356.074,575.231h3.995v-56.492h-4.55v55.864C355.711,574.809,355.896,575.018,356.074,575.231z"/>
<path fill="#867F77" d="M246.343,549.158c0,13.039,0,26.073,0,39.109c0,1.449,0,2.898,0,4.349
	c-12.568,8.271,0.675,41.203-18.196,43.456c1.305-23.224,23.48-66.584-4.549-78.224
	C227.454,551.388,238.247,551.558,246.343,549.158z"/>
<path fill="#FFFFFF" d="M460.146,557.85c10.514,4.442,9.412,19.979,9.099,34.768C461.585,585.378,449.799,569.01,460.146,557.85z"/>
<path fill="#FFFFFF" d="M157.39,584.887c2.216,0.73,4.305,1.942,6.07,3.653c0.19,0.185,0.368,0.378,0.554,0.565
	c2.595-10.815,3.449-21.266-8.65-22.563C157.879,573.613,157.899,579.539,157.39,584.887z"/>
<path fill="#EDEAE0" d="M359.446,589.62c-0.596,4.211-1.037,8.425-1.368,12.642c0.392,3.225,0.798,6.446,1.204,9.668
	c0.808-2.775,1.261-10.068,0.787-23.662v-13.036h-3.995C359.205,579,360.201,584.285,359.446,589.62z"/>
<path fill="#EDEAE0" d="M242.404,688.929c-0.2-0.237-0.397-0.474-0.609-0.709c-0.033,1.087-0.057,2.165-0.079,3.231
	C241.942,690.609,242.17,689.769,242.404,688.929z"/>
<path fill="#EDEAE0" d="M314.65,257.077c-1.211-4.354-2.721-8.423-4.621-12.118c-0.387,3.333-0.604,6.506-0.693,9.556
	C311.274,255.024,313.072,255.903,314.65,257.077z"/>
<path fill="#EDEAE0" d="M348.781,513.035c0.666,1.709,1.091,3.549,1.219,5.465c0.634,9.521,1.379,19.003,2.214,28.457
	c0.978,4.41,2.104,8.224,3.306,10.893V518.74c1.019-8.219-5.129-9.587-4.549-17.384
	C349.632,503.482,348.954,507.736,348.781,513.035z"/>
<path fill="#EDEAE0" d="M366.303,663.654c2.959-13.207,7.585-27.214-1.686-36.273c-0.589,3.646-1.191,7.559-1.77,11.632
	C363.971,647.227,365.125,655.439,366.303,663.654z"/>
<path fill="#EDEAE0" d="M232.697,79.823c-16.869,3.079-19.522-7.424-36.392-4.346c-17.793,6.183-3.56,42.953-18.196,52.148
	c4.892-18.503,0.136-46.224,13.647-56.494C208.772,70.812,223.202,72.959,232.697,79.823z"/>
<path fill="#EDEAE0" d="M171.762,151.547c-0.069,0.69-0.164,1.382-0.315,2.073c-0.102,0.464-0.21,0.927-0.315,1.391
	c-1.917,11.444-2.398,24.259-2.12,37.8c6.977-16.51,7.564-39.13,9.098-60.839C175.241,137.778,173.19,144.366,171.762,151.547z"/>
<path fill="#FFFFFF" d="M319.127,444.862c-1.019,3.371-0.124,8.571-4.548,8.689c-7.581,0.566-4.729-8.842-4.132-16.094
	c-0.138-0.16-0.278-0.315-0.408-0.481c-0.18,0.009-0.36,0.023-0.539,0.023c-4.796,0-8.525-1.944-11.146-4.984
	c-0.445,0.018-0.895,0.031-1.346,0.044c-0.208,1.787-0.435,3.572-0.655,5.357c7.919,5.063,3.471,21.946,4.578,33.518
	C311.102,466.425,337.472,450.131,319.127,444.862z"/>
<path fill="#FFFFFF" d="M437.401,101.552c-6.014-0.051-4.159-7.617-9.099-8.692c1.321,27.664,5.662,12.593,13.646,39.111
	c1.019-3.373,0.124-8.572,4.55-8.691c0.916,7.393-3.955,9.258-4.521,15.233c2.019-0.959,4.236-1.514,6.521-1.514
	c2.413,0,4.659,0.567,6.662,1.545c1.854,0.297,4.396,1.002,9.533,2.118c-1.376-17.635-4.729-46.935-13.647-21.729
	c1.019-8.216-5.129-9.589-4.549-17.382h13.646c-4.524-16.146-9.713-11.362-4.548-30.42c-11.623-7.458-15.922,4.979-22.745-4.346
	c18.279-7.294-13.434-27.189,4.55-34.766c-9.039-0.056-5.786-11.857-18.197-8.691c5.213,13.669-7.143,10.559-9.097,17.383
	C424.789,52.846,444.946,82.633,437.401,101.552z"/>
<path fill="#D3CEC7" d="M178.109,127.625c14.636-9.195,0.402-45.965,18.196-52.148c16.87-3.078,19.523,7.424,36.392,4.346
	c1.517,0,3.032,0,4.549,0c27.365,7.231,86.359,7.231,113.725,0c6.064,0,12.129,0,18.196,0c-1.167,9.025-19.984,1.188-22.745,8.691
	c-4.55,0-9.098,0-13.646,0c-54.34,0.02-103.555,1.793-136.471-8.691c-9.484,2.493-5.691,28.114,4.549,26.074
	c15.365-1.765-12.102-16.848,9.099-13.037c20.885-1.486-7.05,26.394,9.097,34.765c11.734-28.504,36.226,0.441,59.137-17.383
	c-14.679-11.633-23.278-3.233-45.49-4.345c10.691-19.686,30.521-5.812,54.587-8.691c-3.133,24.329,17.906,26.742,9.099,56.494
	c-35.706-10.796-84.985-8.627-113.726-26.075c18.475,24.363,47.084,39.035,81.882,47.803c-31.966,13.207-62.43,5.293-81.882-13.037
	c-6.171,1.344-3.772,10.881-4.548,17.383c3.364,3.768,22.709,3.514,36.392,8.691c24.693,47.579,15.856,98.595-13.647,134.716
	c-4.164-46.558-20.47-90.328-13.647-134.716c-25.356,9.09-9.015,58.021-13.646,86.914c-2.772-0.247-5.385-0.651-4.549-4.346
	c0-24.626,0-49.251,0-73.877c0-1.449,0-2.897,0-4.346c6.978-16.511,7.564-39.13,9.098-60.839
	C178.109,130.523,178.109,129.074,178.109,127.625z"/>
<path fill="#BFAFA4" d="M418.371,709.997c-0.721-2.877-1.277-5.81-1.705-8.78c-1.535,2.363-3.415,4.397-5.191,6.531
	C413.783,708.461,416.079,709.221,418.371,709.997z"/>
<path fill="#BFAFA4" d="M413.494,653.464c-5.973-2.361-13.056-8.559-17.034-8.699c4.738-7.097,9.182-19.572,12.321-34.302
	c-2.396-7.387-4.712-14.834-5.795-22.499c-1.676-11.857-1.936-23.574-1.171-35.521c0.683-10.644,1.737-21.264,2.32-31.914
	c-6.215-11.764-15.944-19.368-30.309-19.397c7.605-1.314,10.186-7.431,13.535-12.811c-12.155-2.516-28.42,12.854-36.393,0
	c10.501-5.898,20.281-12.496,36.393-13.039h9.098c1.949-12.002-16.958-4.081-18.196-13.036c7.797-5.591,17.889-8.987,18.196-21.729
	c-14.482-68.276,20.921-238.1,0-291.162h-13.647c-8.523,2.339-23.32,20.718-31.843,8.691c3.998-12.115,18.274-14.412,31.843-17.382
	h4.55c19.103-18.724-4.87-29.752-4.55-47.803h-13.646c-12.877-0.713,3.778,26.787-9.099,26.074
	c-4.294-10.019-0.296-14.013-4.55-30.42c26.606,5.136,31.067-10.881,54.589-8.691v-8.691c-16.294,0.364-26.288,6.759-40.94,8.691
	c-1.167,9.025-19.984,1.188-22.745,8.691c10.211,9.351-3.192,15.371-18.195,13.038c-9.027-10.022,1.144-4.828,4.55-13.038
	c-54.341,0.02-103.555,1.794-136.471-8.691c-9.484,2.492-5.691,28.114,4.549,26.074c15.365-1.765-12.102-16.848,9.099-13.037
	c20.885-1.486-7.05,26.394,9.097,34.765c11.734-28.505,36.226,0.441,59.137-17.383c-14.679-11.633-23.279-3.233-45.49-4.345
	c10.691-19.686,30.521-5.811,54.587-8.691c-3.133,24.329,17.906,26.742,9.099,56.494c-35.706-10.797-84.986-8.627-113.726-26.075
	c18.475,24.363,47.085,39.034,81.882,47.803c-31.966,13.207-62.43,5.294-81.882-13.037c-6.171,1.344-3.772,10.881-4.548,17.383
	c3.364,3.768,22.709,3.513,36.392,8.691c24.694,47.579,15.857,98.595-13.647,134.716c-4.163-46.557-20.47-90.328-13.647-134.716
	c-25.356,9.09-9.015,58.021-13.646,86.914v4.345c9.926,38.323,12.491,83.673,13.646,130.37c1.729,31.287,5.071,53.009-4.549,82.569
	c47.623-3.722,51.106-41.174,59.137-82.569c12.16-62.648,22.14-177.448,27.294-199.901c-18.41-5.763-1.4-11.512,13.646-8.691
	c7.073-15.447-15.447-2.623-13.646-13.037c11.212,0.574,21.916,0.659,27.294-4.346c-2.008,9.664,14.05,23.565,4.548,26.074
	c-17.496,36.883-20.878,87.248-27.293,134.717v8.691c7.945-26.503,11.633-57.073,16.567-86.45c0.044-0.282,0.082-0.565,0.142-0.842
	c2.79-16.513,5.989-32.635,10.583-47.424c10.219,1.828,0.125,23.058,9.1,26.074c1.9,3.694,3.409,7.763,4.62,12.116
	c3.826,2.845,6.353,7.378,6.351,12.424c-0.002,4.281-0.021,8.564-0.045,12.848c0.564,0.959,1.066,1.971,1.491,3.032
	c9.093,22.735,11.024,47.593,11.414,71.858c0.188,11.722,0.076,23.454,0.507,35.171c5.898,35.968,2.291,81.016,16.604,108.948
	c-0.58,7.797,5.568,9.165,4.549,17.384h4.55c10.715,0.094,13.393-7.488,27.294-4.346c-6.38,6.941-15.674,11.102-27.294,13.036
	v60.839c10.324,4.623,1.729,27.319,4.549,39.111c9.271,9.06,4.644,23.067,1.685,36.276c1.987,13.86,4.034,27.732,6.098,41.638
	c9.55-1.328,18.578-2.107,28.238-0.311c1.912,0.355,3.797,0.798,5.67,1.285c1.217-0.697,2.516-0.992,3.799-0.666
	c-3.845-9.363-19.955-7.011-27.295-13.036c9.674-6.696,16.94-15.687,27.295-21.729c0.904-2.438,2.202-4.501,4.079-6.01
	C413.927,661.042,413.697,657.254,413.494,653.464z M246.343,153.7c14.358-2.127,16.065,7.831,31.844,4.346
	C279.75,169.459,237.832,174.58,246.343,153.7z M314.578,145.008c1.813-18.548,38.122-4.141,54.589-8.691
	C380.846,135.174,332.846,146.389,314.578,145.008z M319.127,192.811c18.51-14.564,37.027,7.919,59.137,4.346
	C362.55,209.051,336.506,193.756,319.127,192.811z M328.227,240.614c4.466-5.873,12.136-8.685,18.195-13.037
	c-1.269-8.926-12.148-8.672-18.195-13.036c8.263-11.776,27.448,2.408,36.392,4.346c-4.502,10.903-3.976,14.553,0,30.419
	C344.395,255.525,340.545,250.492,328.227,240.614z"/>
<path fill="#9C9E97" d="M382.813,149.354c-8.521,2.339-23.318,20.718-31.842,8.691c3.998-12.115,18.273-14.412,31.842-17.382
	C381.896,146.497,363.918,148.758,382.813,149.354z"/>
<path fill="#9C9E97" d="M387.362,140.664c19.104-18.724-4.87-29.752-4.55-47.803c9.329-2.394,10.853,8.299,4.55,8.692
	c2.991,5.833,9.726,8.093,18.194,8.69C408.669,129.147,397.379,134.294,387.362,140.664z"/>
<path fill="#9C9E97" d="M410.108,171.082c23.965-5.508,5.655,29.359,18.195,34.766c1.794-20.549-1.457-36.268-4.551-52.148h-4.549
	c-0.514,5.302-1.362,10.29-9.097,8.691c0.941-8.496-6.996-26.324-22.745-13.037h9.099c20.921,53.062-14.482,222.885,0,291.162
	C402.229,369.094,413.372,265.581,410.108,171.082z"/>
<path fill="#9C9E97" d="M405.911,474.593c0.128-1.451,0.271-2.899,0.431-4.346c-7.757-1.304-15.619-2.498-14.43-12.348
	c3.136-6.642,8.674-12.825,14.078-14.773c-0.055-1.249-0.09-2.497-0.121-3.746c-2.428,1.056-5.503,1.492-9.408,1.136
	c-0.307,12.743-10.399,16.139-18.196,21.729c1.238,8.955,20.145,1.034,18.196,13.036
	C399.454,474.901,403.123,475.168,405.911,474.593z"/>
<path fill="#9C9E97" d="M300.931,210.194c-2.404-3.494-4.743-7.056-4.548-13.037c-3.661,2.3-7.386,4.532-13.647,4.345
	c7.073-15.447-15.448-2.623-13.646-13.037c11.212,0.574,21.916,0.659,27.294-4.346C294.375,193.784,310.433,207.685,300.931,210.194
	z"/>
<path fill="#9C9E97" d="M269.089,210.194c5.976,1.536,7.155,7.65,13.646,8.692c-27.229,79.156-19.902,165.714-50.039,243.359
	c1.913,9.674,24.137,3.398,27.293,0c-4.128,11.982-1.415,30.521-9.097,39.11c0-8.691,0-17.384,0-26.074
	c-37.494,1.029-34.219,33.045-4.551,39.111c-0.74-5.056,1.007-7.73,4.551-8.692c0,2.896,0,5.795,0,8.692
	c-3.87-0.799-4.29,1.697-4.551,4.347c-13.9,3.14-16.577-4.442-27.293-4.347c2.991,5.832,9.727,8.092,18.196,8.689
	c0.202,7.438-3.382,11.257-9.099,13.039c1.097,7.645,7.825,9.9,18.196,8.689c0,1.447,0,2.896,0,4.347
	c-8.096,2.398-18.889,2.229-22.745,8.69c28.029,11.64,5.854,55,4.549,78.224c18.871-2.253,5.628-35.185,18.196-43.456
	c0,2.896,0,5.793,0,8.69c-5.567,31.794-6.918,42.937-4.548,78.223c-3.684-0.825-4.537-4.355-9.098-4.347
	c-6.569,5.314-6.901,16.584-13.647,21.729c0.734,5.093,8.292,3.666,13.647,4.346c-0.687,10.81-15.406,1.269-18.196,0
	c-2.197-13.688,13.96-9.842,9.097-26.074c-3.867-12.756-11.449,5.652-22.745,0c6.568-12.558,18.078-20.394,27.293-30.419
	c-28.034-21.787-12.047-56.235-18.194-86.915c0.668-9.501,11.46-9.331,22.744-8.69c-2.991-5.834-9.727-8.093-18.196-8.691
	c-1.392-10.021,13.143-4.826,13.646-13.036c-0.688-8.034-15.405-2.672-18.194-8.69c0.503-8.212,15.038-3.017,13.646-13.039
	c-2.955-4.417-10.459-4.492-9.097-13.036c-15.78-3.485-17.485,6.474-31.844,4.346c0-1.446,0-2.896,0-4.346
	c47.623-3.723,51.106-41.175,59.137-82.569C253.955,347.446,263.935,232.647,269.089,210.194z M214.501,670.839
	c1.167-9.028,19.984-1.188,22.745-8.692c1.273-9.901-1.096-16.334-9.099-17.382C228.895,655.956,205.005,665.648,214.501,670.839z"
	/>
<path fill="#EDEAE0" d="M178.109,620.442v-27.826c-2.044-35.271,1.954-64.767,4.548-95.606v-4.346
	c9.62-29.561,6.278-51.282,4.549-82.569h-4.549c-2.919,17.492,5.911,46.209-4.548,56.496v8.69
	c-4.679,36.38-7.968,90.885-3.188,132.2C176.336,611.64,177.354,616.005,178.109,620.442z"/>
<path fill="#D3CEC7" d="M173.56,279.725c9.926,38.323,12.491,83.673,13.646,130.37c-1.516,0-3.032,0-4.549,0
	C184.428,362.049,173.613,326.026,173.56,279.725z"/>
<path fill="#9C9E97" d="M346.422,88.515c10.211,9.351-3.193,15.371-18.195,13.038c-9.027-10.021,1.144-4.827,4.55-13.038
	C337.324,88.515,341.872,88.515,346.422,88.515z"/>
<path fill="#D3CEC7" d="M369.167,136.317c11.679-1.143-36.321,10.072-54.589,8.691C316.391,126.46,352.7,140.867,369.167,136.317z"
	/>
<path fill="#867F77" d="M262.3,461.021c0.925-7.219,1.92-14.43,2.822-21.633c0.003-0.022,0.005-0.044,0.008-0.065
	c0.355-13.561-5.089-32.66,3.958-37.915c2.921-17.493-5.912-46.209,4.549-56.496c6.415-47.469,9.797-97.835,27.293-134.717
	c-2.404-3.494-4.743-7.056-4.548-13.035c-3.66,2.3-7.386,4.532-13.647,4.345c-15.045-2.821-32.055,2.928-13.646,8.691
	c5.976,1.536,7.154,7.65,13.646,8.692c-27.229,79.155-19.903,165.713-50.039,243.359c1.913,9.674,24.136,3.398,27.293,0
	C260.965,462.033,261.707,461.598,262.3,461.021z"/>
<path fill="#867F77" d="M407.71,460.438c-0.604-3.699-1.062-7.456-1.359-11.273c-0.157-2.013-0.271-4.026-0.36-6.039
	c-5.404,1.948-10.943,8.132-14.079,14.773c-1.189,9.85,6.674,11.044,14.431,12.348C406.705,466.959,407.151,463.687,407.71,460.438z
	"/>
<path fill="#867F77" d="M405.037,489.207c0.172-4.875,0.445-9.756,0.874-14.615c-2.788,0.576-6.458,0.31-9.451,0.689h-9.098
	c6.682,10.249,9.602,8.087,4.549,21.729c5.046-0.291,9.332,0.146,12.891,1.274C404.862,495.258,404.931,492.232,405.037,489.207z"/>
<path fill="#9C9E97" d="M373.827,501.131c-1.506-0.003-3.051,0.058-4.66,0.225C370.917,501.469,372.445,501.369,373.827,501.131z"/>
<path fill="#9C9E97" d="M404.273,517.95c0.308-6.552,0.396-13.109,0.528-19.665c-3.559-1.13-7.845-1.565-12.891-1.275
	c5.053-13.642,2.133-11.48-4.549-21.729c-16.111,0.543-25.891,7.141-36.393,13.039c7.973,12.854,24.238-2.516,36.393,0
	c-3.35,5.38-5.929,11.496-13.535,12.811c14.364,0.029,24.094,7.635,30.309,19.397C404.183,519.669,404.233,518.81,404.273,517.95z"
	/>
<path fill="#9C9E97" d="M411.646,619.389c-0.918-2.973-1.897-5.944-2.864-8.926c-3.14,14.729-7.583,27.204-12.321,34.301
	c3.979,0.141,11.062,6.338,17.034,8.699c-0.567-10.578-0.926-21.165-1.15-31.756C412.12,620.947,411.889,620.178,411.646,619.389z"
	/>
<path fill="#9C9E97" d="M410.108,705.602c-1.283-0.326-2.584-0.031-3.802,0.668c1.735,0.452,3.456,0.95,5.168,1.479
	c1.776-2.134,3.656-4.168,5.191-6.531c-0.732-5.081-1.112-10.264-1.381-15.431c-18.151,7.998-19.767-4.233-5.177-14.948
	c-10.354,6.042-17.621,15.033-27.296,21.729C390.153,698.592,406.264,696.239,410.108,705.602z"/>
<path fill="#BFAFA4" d="M182.657,657.801c1.404,10.159,8.904,17.956,0,26.075c13.513,3.958,3.949,21.121,5.518,31.452
	c7.034,0.816,14.177,1.317,22.048,2.107c7.327,0.736,14.449,1.986,21.66,3.41c0.262,0.052,0.525,0.1,0.788,0.151
	c1.002-0.59,1.894-1.255,2.681-1.991c1.927-9.231,3.917-18.447,6.364-27.555c0.022-1.066,0.046-2.145,0.079-3.23
	c-7.511,0.068-2.547,12.053-9.098,13.037c-0.687,10.809-15.406,1.268-18.196-0.001c-2.197-13.687,13.96-9.842,9.097-26.074
	c-3.868-12.756-11.449,5.652-22.745,0c6.568-12.558,18.077-20.394,27.293-30.419c-28.034-21.787-12.047-56.235-18.194-86.915
	c0.668-9.501,11.46-9.331,22.744-8.69c-2.991-5.834-9.727-8.092-18.196-8.691c-1.392-10.02,13.143-4.826,13.646-13.036
	c-0.687-8.034-15.405-2.671-18.194-8.69c0.503-8.212,15.038-3.017,13.646-13.039c-2.955-4.417-10.459-4.492-9.097-13.036
	c-15.78-3.485-17.486,6.474-31.844,4.346c-2.593,30.839-6.591,60.335-4.548,95.606C185.541,605.927,184.251,650.309,182.657,657.801
	z"/>
<path fill="#D3CEC7" d="M180.655,650.352c1.777,1.423,2.535,3.82,2.002,7.448c1.594-7.493,2.885-51.874-4.548-65.184v27.826
	C179.829,630.551,180.173,641.041,180.655,650.352z"/>
<path fill="#867F77" d="M246.343,544.813c-10.371,1.211-17.099-1.046-18.196-8.689c5.717-1.782,9.3-5.602,9.099-13.039
	c-8.469-0.599-15.205-2.857-18.196-8.689c10.716-0.097,13.393,7.485,27.293,4.347C237.85,526.469,250.04,529.784,246.343,544.813z"
	/>
<path fill="#FFFFFF" d="M164.461,510.046c-8.362,6.152,10.977,53.373-13.646,39.112
	C174.561,544.938,141.888,510.793,164.461,510.046z"/>
<path fill="#FFFFFF" d="M37.089,844.666c6.804-0.741,16.785,1.551,18.195-4.345c-5.463-0.486-10.589-1.289-9.157-8.362
	C42.622,835.407,39.516,839.644,37.089,844.666z"/>
<path fill="#FFFFFF" d="M200.853,766.444c-6.571-11.725-9.346-15.018-9.672-19.741c-1.778-0.175-3.554-0.362-5.328-0.562
	c-2.551,2.451-5.126,4.878-7.745,7.264c-3.606-2.512-5.887-5.73-7.264-9.413c-3.845-0.699-7.67-1.525-11.464-2.546
	c-8.155-2.192-13.056-10.961-10.826-19.066c0.776-2.823,2.329-5.235,4.35-7.11c-3.759-19.821-1.883-40.539-3.02-60.644
	c-0.258-4.566-0.449-9.137-0.774-13.699c-0.186-2.604-0.384-5.207-0.662-7.803c-0.105-0.977-0.22-1.952-0.338-2.927
	c-0.033-0.217-0.076-0.504-0.133-0.895c-0.759-4.613-1.667-9.271-3.269-13.679c-0.115-0.317-0.198-0.556-0.258-0.737
	c-0.47-0.95-0.94-1.906-1.51-2.802c-0.153-0.241-0.411-0.567-0.662-0.869c-0.246-0.253-0.479-0.517-0.739-0.756
	c-0.983-0.952-1.786-2.025-2.444-3.166c-16.517,42.92,7.399,79.683-1.928,124.383c-4.751-70.431,3.873,9.802-18.196,17.384
	c-8.252-16.394,4.145-50.293-4.55-47.803c-6.509,18.408-1.812,47.521-9.1,65.188c7.15,0.412,15.774-0.582,13.648,8.689
	c-12.783,4.473-3.596-0.558,0,17.385c-14.85,5.532-9.643,6.257-22.745,8.689c-2.707,9.005,5.621,28.548-4.549,30.421
	c-8.161-14.598-30.194-14.412-45.178-0.019c12.99-0.913,15.441,8.239,22.434,13.055c0.711-5.115-0.782-12.334,4.549-13.036
	c2.789,6.025,17.509,0.656,18.196,8.691c4.348,8.092-13.623,14.524,0,17.382c2.843-9.279,27.999-4.073,31.843,0
	c4.816-11.017-9.578-24.77-13.647-13.037c2.523-0.011,5.165,3.521,0,4.346c-0.414-6.848-11.603-3.398-9.098-13.035
	c8.091-8.115,11.562,3.529,27.294,0c1.848-28.922,28.176-17.688,18.196-43.456c-9.59,9.872-15.336,29.326-27.294,13.033
	c12.48-6.907,13.226-25.026,36.392-21.728v17.383c16.383,2.615,13.404-13.268,27.293-13.037c3.762-12.284-6.408-11.259-4.548-21.728
	H200.853z"/>
<path fill="#867F77" d="M228.147,644.765c8.003,1.048,10.372,7.479,9.099,17.382c-2.76,7.504-21.578-0.336-22.745,8.692
	C205.005,665.648,228.895,655.956,228.147,644.765z"/>
<path fill="#867F77" d="M414.371,667.608c-0.067-0.927-0.121-1.854-0.185-2.78c-1.878,1.509-3.175,3.572-4.079,6.011
	c-14.589,10.714-12.974,22.945,5.178,14.947C414.966,679.641,414.799,673.516,414.371,667.608z"/>
<path fill="#867F77" d="M410.107,79.823c6.267,5.603,4.502,18.876,4.549,30.419c2.854,13.21-5.822,37.431,4.548,43.458
	c-0.514,5.302-1.361,10.29-9.097,8.691c0.94-8.497-6.996-26.324-22.745-13.037c-1.517,0-3.033,0-4.55,0
	c-18.896-0.597-0.918-2.857,0-8.691c1.517,0,3.033,0,4.55,0c10.017-6.37,21.307-11.516,18.194-30.421
	c-8.47-0.597-15.203-2.857-18.194-8.69c6.303-0.393,4.779-11.085-4.55-8.692c-4.55,0-9.098,0-13.646,0
	c-12.877-0.712,3.778,26.787-9.099,26.074c-4.294-10.019-0.296-14.013-4.55-30.42C382.125,93.65,386.587,77.633,410.107,79.823z"/>
<path fill="#BFAFA4" d="M414.656,110.243c8.18,9.572,3.975,30.969,9.097,43.458c-1.516,0-3.031,0-4.549,0
	C408.834,147.674,417.512,123.453,414.656,110.243z"/>
<path fill="#BFAFA4" d="M429.146,210.542c0.111-1.565,0.236-3.129,0.366-4.693h-1.208v57.782
	C430.096,245.887,427.886,228.309,429.146,210.542z"/>
<path fill="#D3CEC7" d="M269.089,401.406v8.207c0.624-3.723,1.326-7.439,2.165-11.15c0.918-4.064,1.863-8.131,2.704-12.217
	c-0.631-11.382-1.613-23.099-0.319-32.644v-8.692C263.176,355.198,272.009,383.914,269.089,401.406z"/>
<path fill="#9C9E97" d="M265.13,439.324c1.248-9.969,2.307-19.862,3.958-29.711v-8.206
	C260.041,406.662,265.486,425.765,265.13,439.324z"/>
<path fill="#BFAFA4" d="M246.343,544.813c3.697-15.027-8.493-18.344,0-26.072c0.261-2.648,0.681-5.146,4.551-4.347
	c-2.963,23.243,5.969,57.852-4.551,73.875c0-13.036,0-26.07,0-39.109C246.343,547.709,246.343,546.26,246.343,544.813z"/>
<path fill="#EDEAE0" d="M246.343,592.616c0-1.449,0-2.898,0-4.349c10.52-16.023,1.587-50.632,4.551-73.875
	c5.769,18.66,11.904,75.024-4.551,86.914C246.343,598.409,246.343,595.513,246.343,592.616z"/>
<path fill="#EDEAE0" d="M180.661,650.471c0.635,12.239,0.387,24.457,0.681,36.703c0.024,1.023,0.052,2.018,0.082,3
	c0.69-1.834,0.649-4.365,1.234-6.299c8.904-8.119,1.404-15.916,0-26.075c0.532-3.628-0.225-6.026-2.002-7.449
	C180.657,650.391,180.659,650.431,180.661,650.471z"/>
<path fill="#867F77" d="M241.794,688.221c-7.51,0.068-2.547,12.053-9.098,13.037c-5.355-0.68-12.913,0.747-13.647-4.346
	c6.746-5.146,7.078-16.414,13.647-21.729c4.561-0.01,5.414,3.521,9.098,4.347C241.794,682.426,241.794,685.324,241.794,688.221z"/>
<path fill="#867F77" d="M250.894,505.7c-3.544,0.962-5.291,3.638-4.551,8.692c-29.668-6.066-32.943-38.082,4.551-39.111
	c0,8.69,0,17.383,0,26.074C250.894,502.805,250.894,504.254,250.894,505.7z"/>
</svg>
