<?xml version="1.0" encoding="utf-8"?>
<!-- Generator: Adobe Illustrator 15.0.0, SVG Export Plug-In . SVG Version: 6.00 Build 0)  -->
<!DOCTYPE svg PUBLIC "-//W3C//DTD SVG 1.1//EN" "http://www.w3.org/Graphics/SVG/1.1/DTD/svg11.dtd">
<svg version="1.1" id="Capa_1" xmlns="http://www.w3.org/2000/svg" xmlns:xlink="http://www.w3.org/1999/xlink" x="0px" y="0px"
	 width="612px" height="792px" viewBox="0 0 612 792" enable-background="new 0 0 612 792" xml:space="preserve">
<path fill="#FDFDFD" d="M558.924-132.467c12.854-3.371,4.96,14.007,7.112,21.337C553.182-107.759,561.077-125.137,558.924-132.467z"
	/>
<path fill="#0D0D33" d="M412.704,381.019c0.279-7.333,0.653-14.662,1.063-21.989c-0.411-0.813-0.863-1.584-1.362-2.309v35.698
	C412.465,388.619,412.559,384.819,412.704,381.019z"/>
<path fill="#0D0D33" d="M412.404,414.402v12.53h0.214C412.531,422.756,412.457,418.578,412.404,414.402z"/>
<path fill="#0D0D33" d="M415.419,573.734c-1.63-19.684-2.173-39.351-2.272-59.04h-0.742v74.599h4.389v-1.067
	C416.29,583.399,415.819,578.569,415.419,573.734z"/>
<path fill="#0D0D33" d="M412.404,589.293c1.465,0,2.928,0,4.389,0c0,20.479,0,40.957,0,61.436c-1.461,0-2.924,0-4.389,0
	c0-4.39,0-8.775,0-13.166C412.404,621.474,412.404,605.383,412.404,589.293z"/>
<path fill="#0D0D33" d="M219.327,694.609v3.402c0.041,0.123,0.078,0.246,0.119,0.368c0.065,0.19,0.102,0.383,0.157,0.573
	c14.82-2.625,40.531,5.641,47.994-4.344H219.327z"/>
<path fill="#0D0D33" d="M393.34,700c0.567-0.317,1.079-0.65,1.514-1.002h-9.406C387.999,699.388,389.654,699.599,393.34,700z"/>
<path fill="#0D0D33" d="M220.087,703.385c-0.01,0.15-0.024,0.3-0.038,0.449c11.436,6.828,50.5,6.682,60.711-0.449H220.087z"/>
<path fill="#0D0D33" d="M393.046,50.127c-5.107-0.05-12.072-1.96-15.746-0.578c-30.773,7.303-92.095,7.303-122.869,0
	c-15.084,1.92-24.597-1.737-35.105-4.388c-11.17,29.786-12.678,69.239-13.164,109.704v26.329
	c8.211,25.431,3.394,63.891,8.776,92.151v4.388c8.365,52.504,9.434,110.905,0,162.363v13.164
	c1.817,13.117-1.155,21.446-3.224,30.679c0.349,7.254,0.478,14.513,0.406,21.746c-0.105,10.544-0.56,21.16-1.57,31.717v54.064
	c0.264,1.988,0.225,4.069-0.104,6.153c-0.893,5.669-1.58,11.707-2.185,17.88c0.051,1.291,0.102,2.581,0.154,3.871
	c0.23,5.759,0.422,11.53,0.928,17.273c0.103,1.169,0.206,2.34,0.347,3.505c0.205,1.673,0.124,1.083-0.244-1.77
	c0.292,2.01,0.553,4.023,0.781,6.041c0.118,1.029,0.218,2.061,0.333,3.09c0.3,1.728,0.489,3.567,0.591,5.494
	c0.167,1.587,0.351,3.174,0.512,4.762c0.675,6.625,1.319,12.971,2.097,19.221c1.201,5.941,2.659,11.823,4.466,17.623h64.738
	c-0.124-75.612-0.565-151.224-0.806-226.836c-3.298-56.131-3.417-114.856,6.956-161.79c0.109-1.584,0.237-3.166,0.38-4.747
	c-0.369-24.308-0.708-48.584,4.429-67.386c4.183-22.146,2.668-49.99,13.165-65.823v-4.388c0.965-3.416,3.673-5.102,8.776-4.388
	c21.456,29.74,17.033,85.358,26.329,127.257v21.94c10.172,20.547,1.514,59.926,4.389,87.763c-1.847,10.692,1.209,26.286,0.62,38.235
	c1.957,31.018-2.204,61.921-2.201,92.933c0.004,32.661,0.025,65.325,0.523,97.983c0.223,14.563,0.042,31.989,1.908,44.691
	c1.079,7.344,2.319,14.682,3.364,22.04c0.941,0.068,1.886,0.213,2.824,0.458c3.694,0.966,7.413,1.837,11.144,2.654
	c14.152-0.471,28.894-3.054,38.864-4.987c0.748-6.565-1.566-16.193,4.387-17.554v-35.104c2.92-117.018-5.845-245.736,4.388-355.44
	v-4.388c2.869-24.923-5.77-61.354,4.389-78.987V168.03c1.589-42.358-7.714-73.826-8.694-113.621
	C403.035,53.221,398.01,51.74,393.046,50.127z"/>
<path fill="#0D0D33" d="M403.631,698.998c0.832-3.555,4.398-4.377,4.387-8.776c9.959-4.669,1.671-27.586,4.388-39.493
	c1.465,0,2.928,0,4.389,0C413.543,667.961,426.057,700.94,403.631,698.998z"/>
<path fill="#0D0D33" d="M329.91,234.34c1.919,2.582,3.078,5.752,3.09,9.16c0.028,8.523,0.382,17.047,0.927,25.569
	c1.005,6.102,2.244,11.97,3.88,17.441h4.389c-9.296-41.899-4.873-97.517-26.329-127.257c-5.103-0.715-7.811,0.971-8.776,4.388
	C323.763,178.142,327.149,205.928,329.91,234.34z"/>
<path fill="#0D0D33" d="M307.09,168.029c-0.211,24.655-4.634,45.094-8.776,65.823c-1.463,0-2.925,0-4.389,0
	C298.108,211.706,296.593,183.862,307.09,168.029z"/>
<path fill="#0D0D33" d="M420.49,205.864c-0.221-2.31-0.441-4.62-0.659-6.931c-0.969-10.282-0.774-20.593-0.59-30.903h-2.448v78.988
	h0.658C418.231,233.287,419.237,219.567,420.49,205.864z"/>
<path fill="#0D0D33" d="M210.55,273.346c-5.754-20.576-4.508-48.15-4.388-74.599c0-5.851,0-11.702,0-17.552
	c8.21,25.432,3.394,63.891,8.776,92.151C213.476,273.346,212.013,273.346,210.55,273.346z"/>
<path fill="#0D0D33" d="M416.093,277.734c0.188-5.958,0.426-11.914,0.7-17.869v-61.118c-10.159,17.633-1.52,54.064-4.389,78.987
	H416.093z"/>
<path fill="#0D0D33" d="M415.296,332.668c0.086-1.515,0.169-3.03,0.252-4.545c-0.149-16.802,0.016-33.601,0.545-50.389h-3.688
	v57.046C413.762,334.47,414.665,333.705,415.296,332.668z"/>
<path fill="#0D0D33" d="M290.134,295.319c1.133-8.66,2.59-17.123,5.169-25.444c0.374-12.638,0.93-25.093,3.011-36.023h-4.389
	c-5.136,18.794-4.798,43.061-4.43,67.359C289.674,299.243,289.877,297.278,290.134,295.319z"/>
<path fill="#0D0D33" d="M412.404,392.419V282.122c-10.232,109.704-1.467,238.423-4.388,355.441h4.388V414.402
	C412.311,407.074,412.288,399.746,412.404,392.419z"/>
<path fill="#0D0D33" d="M214.938,440.097c0-54.122,0-108.242,0-162.363C223.304,330.237,224.372,388.638,214.938,440.097z"/>
<path fill="#0D0D33" d="M342.195,396.214c0-29.254,0-58.508,0-87.763c10.172,20.547,1.514,59.926,4.389,87.763
	C345.121,396.214,343.658,396.214,342.195,396.214z"/>
<path fill="#0D0D33" d="M214.938,277.734c0,54.121,0,108.241,0,162.363c0,4.389,0,8.776,0,13.164c-1.463,0-2.925,0-4.388,0
	c0-26.328,0-52.659,0-78.987c0-5.851,0-11.701,0-17.553c0-27.791,0-55.583,0-83.375c1.463,0,2.925,0,4.388,0
	C214.938,274.808,214.938,276.271,214.938,277.734z"/>
<path fill="#0D0D33" d="M346.819,429.198c0.152,1.759,0.272,3.518,0.384,5.275c0.594-11.952-2.467-27.56-0.619-38.26h-4.389v6.154
	C345.145,411.362,346.146,421.42,346.819,429.198z"/>
<path fill="#0D0D33" d="M211.714,483.939c2.069-9.232,5.041-17.562,3.224-30.679h-4.388c-0.457,1.161-0.865,2.371-1.247,3.608
	C210.492,465.846,211.278,474.889,211.714,483.939z"/>
<path fill="#0D0D33" d="M412.404,650.729c-2.718,11.907,5.571,34.824-4.388,39.493c0-5.853,0-11.702,0-17.554
	c0-11.702,0-23.404,0-35.105c1.464,0,2.927,0,4.388,0C412.404,641.952,412.404,646.339,412.404,650.729z"/>
<path fill="#0D0D33" d="M219.327,698.012v-3.402h-1.103C218.579,695.747,218.945,696.881,219.327,698.012z"/>
<path fill="#0D0D33" d="M211.151,653.012c-0.102-1.933-0.292-3.777-0.593-5.51C210.762,649.338,210.958,651.175,211.151,653.012z"/>
<path fill="#0D0D33" d="M364.768,695.209c5.524,1.21,11.081,2.277,16.667,3.16c1.663,0.263,2.919,0.462,4.013,0.629h18.184
	c0.832-3.554,4.399-4.377,4.387-8.776v-17.554c-5.952,1.361-3.639,10.989-4.387,17.554
	C393.66,692.154,378.92,694.738,364.768,695.209z"/>
<path fill="#0D0D33" d="M282.967,699.329c-0.002-1.573-0.002-3.146-0.004-4.72h-15.367c-7.462,9.984-33.172,1.719-47.993,4.344
	c0.425,1.47,0.577,2.96,0.484,4.432h60.672C280.186,700.723,281.308,699.757,282.967,699.329z"/>
<path fill="#0D0D33" d="M417.451,247.017h-0.658v12.848C416.99,255.582,417.209,251.299,417.451,247.017z"/>
<path fill="#0D0D33" d="M340.167,336.153c1.303,14.464,0.792,28.979,0.834,43.479c0.02,6.94,0.095,13.899,0.654,20.82
	c0.014,0.17,0.028,0.341,0.042,0.511c0.167,0.469,0.343,0.931,0.498,1.405V286.51h-4.39v25.69
	C338.629,320.194,339.449,328.179,340.167,336.153z"/>
<path fill="#0D0D33" d="M413.317,478.33c0.179-17.136-0.346-34.268-0.699-51.397h-0.214v87.763h0.742
	C413.085,502.585,413.191,490.466,413.317,478.33z"/>
<path fill="#0D0D33" d="M254.432,49.549c40.957,0,81.913,0,122.869,0C346.527,56.852,285.207,56.852,254.432,49.549z"/>
<path fill="#0D0D33" d="M284.75,371.831c0.239-6.734,0.562-13.466,0.994-20.195c0.62-9.654,1.739-19.268,2.387-28.914
	c0.375-5.562,0.597-11.148,0.981-16.718c-10.366,46.917-10.25,105.612-6.955,161.718c-0.093-29.074-0.155-58.147-0.157-87.222
	C282,377.301,283.031,374.319,284.75,371.831z"/>
</svg>
