<?xml version="1.0" encoding="utf-8"?>
<!-- Generator: Adobe Illustrator 15.0.0, SVG Export Plug-In . SVG Version: 6.00 Build 0)  -->
<!DOCTYPE svg PUBLIC "-//W3C//DTD SVG 1.1//EN" "http://www.w3.org/Graphics/SVG/1.1/DTD/svg11.dtd">
<svg version="1.1" id="Capa_1" xmlns="http://www.w3.org/2000/svg" xmlns:xlink="http://www.w3.org/1999/xlink" x="0px" y="0px"
	 width="612px" height="792px" viewBox="0 0 612 792" enable-background="new 0 0 612 792" xml:space="preserve">
<path fill="#8CA6D1" d="M412.483,78.999c13.802,5.599-4.93,15.623,0,27.26C374.261,103.712,389.743,73.787,412.483,78.999z"/>
<path fill="#D3CEC7" d="M189.104,129.612c0.037,2.817,0.09,5.634,0.138,8.451h0.614V92.629c-0.251,0.153-0.482,0.327-0.712,0.501
	C190.169,105.188,188.947,117.684,189.104,129.612z"/>
<path fill="#7794C4" d="M212.574,106.259c-4.248,17.153-0.249,21.33-4.543,31.804C200.327,131.846,191.039,103.855,212.574,106.259z
	"/>
<path fill="#EDEAE0" d="M189.856,149.656v-11.593h-0.614c0.061,3.64,0.129,7.28,0.196,10.92
	C189.586,149.202,189.719,149.431,189.856,149.656z"/>
<path fill="#7794C4" d="M280.725,169.867c12.452,0.092,10.79,21.434,4.543,27.26C275.234,196.559,283.339,177.854,280.725,169.867z"
	/>
<path fill="#7794C4" d="M289.812,247.104c3.656,2.405,7.376,4.739,13.63,4.543c-4.04,11.104-10.589,19.7-9.086,36.348
	C287.48,291.781,285.173,259.463,289.812,247.104z"/>
<path fill="#8CA6D1" d="M344.332,260.734c17.919-2.774,5.349,24.944,9.087,36.347C346.676,288.682,344.717,275.495,344.332,260.734z
	"/>
<path fill="#7794C4" d="M230.747,297.082c-6.295,2.79-0.686,17.491-9.087,18.175c1.042-8.517-0.378-14.569-5.357-17.062
	c0.356,5.892,0.649,11.831,0.806,17.768c3.818,5.035,9.941,7.766,18.182,8.379C232.675,316.356,240.78,297.65,230.747,297.082z"/>
<path fill="#7794C4" d="M294.355,301.625c10.033,0.568,1.928,19.274,4.543,27.261C286.446,328.795,288.108,307.453,294.355,301.625z
	"/>
<path fill="#8CA6D1" d="M389.767,378.864c12.968,8.235,14.647,27.757,18.174,45.434C393.388,417.649,393.292,396.54,389.767,378.864
	z"/>
<path fill="#8CA6D1" d="M326.159,406.124c6.471,5.762,7.454,56.063,9.087,81.78C319.931,472.931,328.3,434.271,326.159,406.124z"/>
<path fill="#8CA6D1" d="M294.355,424.298c8.418-11.04,3.064,29.944,4.543,40.89C279.707,459.496,297.348,440.613,294.355,424.298z"
	/>
<path fill="#FFFFFF" d="M503.352,519.71c5.805,20.644,4.426,42.452,0,77.237C497.104,575.123,487.815,537.02,503.352,519.71z"/>
<path fill="#7794C4" d="M380.68,610.576c16.115,9.37,24.124,46.844,13.63,68.151C380.898,664.879,389.127,629.391,380.68,610.576z"
	/>
<path fill="#FFFFFF" d="M453.374,124.433c-14.264-2.242-12.003,15.663-22.717,4.543c0.731-5.324,8.282-3.833,13.63-4.543
	c-0.787-13.405-12.225-28.13-4.543-36.347C446.026,98.462,449.002,112.146,453.374,124.433z"/>
<path fill="#EDEAE0" d="M152.645,703.654c0.691,1.064,1.39,2.125,2.136,3.152c0.136,0.165,0.295,0.358,0.502,0.611
	c1.232,1.405,2.484,2.804,3.872,4.059c0.24,0.217,2.595,2.009,2.08,1.715c0.463,0.313,0.92,0.635,1.396,0.928
	c0.794,0.488,1.604,0.946,2.432,1.375c-1.345-0.439-1.087-0.347,0.774,0.276c0.65,0.197,1.308,0.356,1.97,0.498
	c-0.109-0.057,0.359-0.046,1.44,0.035c1.956-0.021,3.896-0.127,5.845-0.301c0.797-0.07,1.582-0.106,2.369-0.151
	c-11.216-4.362-20.939-10.064-28.041-17.814C150.409,699.959,151.469,701.843,152.645,703.654z"/>
<path fill="#EDEAE0" d="M141.912,630.506c-0.104,0.652-0.904,6.598-0.469,2.794c-0.191,1.669-0.394,3.351-0.423,5.033
	c-0.004,0.27-0.011,0.541-0.016,0.811c0.959-3.335,2.082-6.787,3.417-10.393c-0.861,0.05-1.581-0.041-2.195-0.238
	C142.122,629.177,142.019,629.842,141.912,630.506z"/>
<path fill="#EDEAE0" d="M262.551,733.249c-7.832-1.301-16.112-2.481-24.533-3.737c0.758,1.103,1.391,2.286,1.876,3.511
	c9.975,0.434,19.282,0.445,27.2,0.227H262.551z"/>
<path fill="#8CA6D1" d="M376.137,83.542c9.612-10.075,11.43-27.943,36.348-22.717c19.32-5.43,16.729,34.41,9.086,40.89
	C435.887,41.157,378.633,77.165,376.137,83.542z"/>
<path fill="#8CA6D1" d="M330.701,333.429c-10.938-75.265,60.97-132.61,45.435-222.627c-10.295,13.941-1.67,46.792-18.175,54.521
	c-6.531-13.538,15.949-27.683-4.543-27.26c-15.76,4.307,2.934,14.668-9.087,22.717c5.82-23.205-13.24-4.803-13.63-13.63
	c1.542-12.125-0.396-20.77-2.623-29.123c-4.4,0.707-8.817,1.151-13.131,1.415c-0.359,0.022-0.721,0.037-1.08,0.056
	c14.397,5.16,14.299,22.296,3.205,36.739c-14.747-2.633-21.137,3.094-31.803,4.543c0.929-14.216-3.065-33.354,4.543-40.891
	c1.158-0.289,2.286-0.543,3.383-0.766c-7.578-0.69-15.099-1.997-22.328-3.976c-7.853-2.15-15.602-5.125-22.257-9.632
	c-1.101,30.226,35.446,22.802,32.114,55.265c-60.093,15.08-68.513-45.122-54.941-89.506c-0.195-0.586-0.358-1.184-0.481-1.796
	c-7.675-2.798-41.296,1.199-35.446,23.151v57.027c1.405,2.314,2.217,4.995,2.144,7.844c-0.23,9.017,0.225,17.705,1.125,26.273
	c1.636,3.972,2.063,9.154,1.982,14.842c1.949,12.229,4.566,24.445,7.209,37.255c1.802,8.735,3.411,17.433,4.755,26.141
	c6.557,9.757,8.378,22.544,9.098,33.987c0.046,0.73,0.088,1.464,0.133,2.196c4.979,2.493,6.399,8.545,5.358,17.062
	c8.4-0.684,2.792-15.385,9.087-18.175c10.032,0.568,1.928,19.274,4.543,27.261c-8.241-0.613-14.364-3.344-18.183-8.379
	c0.143,5.437,0.174,10.871,0.019,16.263c-0.361,12.518-1.679,25.376-5.946,37.228c0.44,0.084,0.901,0.189,1.392,0.323
	c-7.998,26.834-18.41,51.255-36.347,68.149c-0.146-0.501-0.264-0.974-0.37-1.433c-2.95,7.42-6.353,14.664-10.222,21.606
	c-14.28,49.674-20.768,107.14-21.213,170.65c-1.335,3.604-2.457,7.055-3.417,10.39c-0.191,10.406-0.589,20.947,0.227,31.327
	c0.389,4.94,0.824,7.944,2.409,12.989c0.577,1.837,1.162,3.672,1.82,5.481c0.163,0.448,1.828,4.607,1.417,3.771
	c0.802,1.796,1.644,3.578,2.545,5.33c7.102,7.749,16.823,13.449,28.038,17.812c9.176-0.524,17.778,0.673,26.604,3.687
	c3.863,1.319,7.746,2.807,11.768,3.578c0.391,0.068,0.681,0.121,0.902,0.163c0.706,0.054,1.412,0.096,2.12,0.111
	c2.237,0.004,4.424-0.136,6.647-0.391c5.08-0.583,9.673,2.377,12.518,6.512c8.421,1.256,16.701,2.437,24.532,3.737
	c25.562-19.286,58.608,16.896,77.238,4.543c-14.72-72.365-15.396-228.839-22.718-336.211c-0.166-2.42-0.474-36.36-4.543-9.087
	c-5.152,108.746,5.229,210.215-13.63,308.951c-17.67,8.863-43.641,9.815-40.89,27.261c-13.885-60.929,0.9-139.19,13.63-204.453
	c4.159,31.649-4.78,48.592,4.543,72.694c32.833-67.096-21.001-147.675,18.174-204.453c-0.391,6.448-0.751,12.866,4.543,13.63
	c-1.432-24.149,2.502-42.933,22.717-45.435c10.886-1.799-2.52,20.693,13.631,13.63c-11.649-21.166,30.703-10.211,27.26-36.346
	C359.086,323.443,328.902,342.735,330.701,333.429z M208.03,138.063c-7.703-6.217-16.991-34.208,4.543-31.804
	C208.325,123.412,212.324,127.588,208.03,138.063z M258.009,415.211c-10.034-0.569-1.929-19.275-4.544-27.262
	c-24.267-0.899-14.535,48.25,0,49.977c-20.742,97.28-15.618,234.091-54.521,277.147c-20.563-23.041-38.477-76.03-18.173-127.215
	c8.46,0.628,15.186,2.987,18.173,9.088c26.692-44.759,34.419-140.568,31.804-186.28c-22.777,42.347-25.741,104.504-36.348,159.021
	c-12.648-73.246,16.233-144.29,31.804-204.455c4.241,2.574,6.886,12.631,9.088,4.543c6.366,1.608,0.391,7.998-4.543,9.087
	c9.654,16.186,16.919-20.043,27.26-4.544C255.263,391.25,269.627,403.059,258.009,415.211z M280.725,169.867
	c12.452,0.092,10.79,21.433,4.543,27.26C275.234,196.559,283.339,177.854,280.725,169.867z M298.898,328.886
	c-12.452-0.091-10.79-21.433-4.543-27.261C304.388,302.193,296.283,320.899,298.898,328.886z M294.355,287.995
	c-6.875,3.786-9.182-28.532-4.544-40.891c3.656,2.405,7.377,4.739,13.63,4.543C299.401,262.752,292.853,271.348,294.355,287.995z"/>
<path fill="#8CA6D1" d="M405.347,225.233c0.635-1.464,1.272-2.928,1.9-4.396c0.274-0.641,0.454-1.058,0.569-1.32
	c0.034-0.083,0.073-0.181,0.113-0.278c-0.248-7.618,1.119-13.632,4.554-17.569c-10.075,2.503-6.473-8.675-13.632-9.087
	c1.802,13.471,2.812,24.836,3.529,39.539C403.363,229.823,404.353,227.526,405.347,225.233z"/>
<path fill="#8CA6D1" d="M348.875,737.792c0.847-6.731,10.981-4.165,18.174-4.543c28.822-31.981-19.328-151.542,13.631-186.279
	c-3.454-17.749-24.74-17.664-22.718-40.892c15.72-15.44-3.253-90.396-4.543-131.758c30.42,62.271,33.909,149.945,45.435,231.713
	c3.188,22.629,4.104,47.896,9.087,72.694c0.586,8.158-4.509,10.636-13.631,9.087c20.859-0.756,10.69,35.578,36.349,40.892
	c0.834,3.862-1.775,4.283-4.543,4.543c-16.79,2.896-45.258-5.88-54.522,4.543C364.02,737.792,356.449,737.792,348.875,737.792z
	 M394.31,678.729c10.494-21.309,2.485-58.781-13.63-68.151C389.127,629.391,380.898,664.879,394.31,678.729z"/>
<path fill="#7794C4" d="M398.365,688.229c-1.211-0.31-2.544-0.47-4.057-0.415C395.771,688.063,397.117,688.195,398.365,688.229z"/>
<path fill="#7794C4" d="M248.61,105.516c-4.411-2.986-8.346-6.639-11.494-11.192c-1.189-1.721-1.868-3.641-2.116-5.617
	c-4.295-4.359-7.569-10.104-8.513-15.699c-0.267-0.563-0.507-1.138-0.705-1.733c-13.573,44.384-5.152,104.586,54.941,89.506
	C284.058,128.318,247.51,135.742,248.61,105.516z"/>
<path fill="#7794C4" d="M463.79,660.585c-1.317-21.183-3.329-42.454-5.289-63.586c-1.367-14.75-3.208-29.534-2.9-44.376
	c0.206-9.943,1.06-20.867,4.697-30.469c-7.538-67.585-27.821-122.421-56.117-169.248c-0.43-0.607-0.842-1.229-1.245-1.859
	c-0.53-0.67-1.023-1.482-1.473-2.447c-0.275-0.494-0.544-0.993-0.804-1.499c-7.724-15.03-10.434-32.054-11.042-48.799
	c-0.68-18.692,1.134-37.127,8.014-54.661c1.518-3.868,3.12-7.701,4.751-11.522c-0.718-14.702-1.728-26.066-3.529-39.537
	c7.159,0.412,3.557,11.59,13.632,9.087c1.536-6.3,2.662-12.447,3.511-18.479c-0.087-1.559,0.126-3.067,0.589-4.491
	c3.203-26.811,1.285-51.449,4.986-76.985c14.316-60.558-42.938-24.55-45.434-18.173h-2.024c-2.196,9.677-7.977,18.028-17.278,24.18
	c-8.487,5.613-18.575,8.67-28.756,10.305c2.228,8.353,4.165,16.999,2.623,29.123c0.39,8.827,19.45-9.576,13.63,13.63
	c12.021-8.049-6.673-18.41,9.087-22.717c20.492-0.424-1.988,13.722,4.543,27.26c16.505-7.729,7.88-40.58,18.175-54.521
	c15.535,90.017-56.373,147.362-45.435,222.627c-1.799,9.305,28.385-9.986,31.804,4.544c3.443,26.135-38.909,15.179-27.26,36.346
	c-16.151,7.064-2.745-15.429-13.631-13.63c-20.215,2.503-24.149,21.287-22.717,45.435c-5.294-0.764-4.934-7.182-4.543-13.63
	c-39.175,56.778,14.659,137.357-18.174,204.453c-9.323-24.102-0.384-41.045-4.543-72.694
	c-12.731,65.263-27.515,143.524-13.63,204.453c-2.752-17.446,23.22-18.398,40.89-27.261c18.859-98.736,8.478-200.205,13.63-308.951
	c4.069-27.273,4.377,6.667,4.543,9.087c7.322,107.372,7.998,263.846,22.718,336.211h9.086c0.847-6.73,10.982-4.165,18.174-4.543
	c28.822-31.981-19.328-151.542,13.631-186.279c-3.454-17.749-24.741-17.664-22.718-40.892c15.72-15.44-3.253-90.395-4.543-131.758
	c30.42,62.271,33.91,149.943,45.434,231.713c3.19,22.629,4.106,47.896,9.088,72.695c0.492,6.85-3.034,9.682-9.574,9.501
	c15.501,3.957,8.495,35.548,32.292,40.477c11.849-0.839,18.809-6.566,24.716-13.347c0.778-8.358,2.557-16.629,4.498-24.791
	C462.596,679.119,464.483,671.738,463.79,660.585z M353.419,297.082c-6.743-8.4-8.702-21.587-9.087-36.347
	C362.251,257.961,349.681,285.679,353.419,297.082z M298.898,465.188c-19.191-5.691-1.55-24.574-4.543-40.89
	C302.773,413.258,297.419,454.243,298.898,465.188z M326.159,406.124c6.471,5.761,7.454,56.063,9.087,81.78
	C319.931,472.931,328.3,434.271,326.159,406.124z M412.483,78.999c13.802,5.599-4.93,15.623,0,27.26
	C374.261,103.712,389.743,73.787,412.483,78.999z M367.048,365.233c18.778,31.2,35.265,64.69,36.349,113.585
	C387.861,444.377,381.763,400.492,367.048,365.233z M389.766,378.864c12.968,8.235,14.648,27.757,18.174,45.434
	C393.388,417.649,393.292,396.54,389.766,378.864z"/>
<path fill="#7794C4" d="M235.291,369.777c6.365,1.608,0.39,7.998-4.543,9.087c9.654,16.186,16.919-20.043,27.26-4.544
	c-2.746,16.931,11.618,28.74,0,40.892c-10.034-0.569-1.929-19.275-4.544-27.262c-24.267-0.899-14.535,48.25,0,49.977
	c-20.741,97.28-15.618,234.092-54.521,277.147c-20.563-23.041-38.477-76.03-18.173-127.215c8.46,0.628,15.186,2.987,18.173,9.088
	c26.692-44.76,34.419-140.568,31.804-186.28c-22.777,42.347-25.741,104.504-36.348,159.021
	c-12.648-73.245,16.233-144.289,31.804-204.454C230.445,367.807,233.09,377.864,235.291,369.777z"/>
<path fill="#8CA6D1" d="M367.049,365.233c18.777,31.2,35.266,64.69,36.349,113.585C387.861,444.377,381.763,400.492,367.049,365.233
	z"/>
<path fill="#7794C4" d="M211.18,369.457c-0.393,1.091-0.801,2.177-1.246,3.25c-3.667,8.852-8.633,16.611-14.945,23.248
	c-5.523,11.335-10.812,22.77-16.632,33.882c-0.797,2.23-1.624,4.452-2.5,6.656c0.105,0.46,0.224,0.934,0.37,1.435
	c17.936-16.895,28.348-41.316,36.347-68.15C212.081,369.642,211.622,369.541,211.18,369.457z"/>
<path fill="#FFFFFF" d="M467.004,451.558c16.387,0.273,24.22,9.1,22.718,27.262c-12.838,4.343-20.671-31.319-22.718-9.086
	C453.397,466.744,471.346,460.019,467.004,451.558z"/>
<path fill="#D3CEC7" d="M313.867,119.498c-6.822,0.366-13.771,0.255-20.676-0.374c-1.097,0.222-2.223,0.476-3.38,0.765
	c-7.607,7.537-3.614,26.675-4.543,40.891c10.665-1.449,17.056-7.175,31.803-4.543C328.165,141.794,328.265,124.658,313.867,119.498z
	"/>
<path fill="#D3CEC7" d="M195.108,198.618c0.08-5.69-0.347-10.874-1.983-14.846C193.647,188.748,194.321,193.685,195.108,198.618z"/>
</svg>
