<?xml version="1.0" encoding="utf-8"?>
<!-- Generator: Adobe Illustrator 15.0.0, SVG Export Plug-In . SVG Version: 6.00 Build 0)  -->
<!DOCTYPE svg PUBLIC "-//W3C//DTD SVG 1.1//EN" "http://www.w3.org/Graphics/SVG/1.1/DTD/svg11.dtd">
<svg version="1.1" id="Capa_1" xmlns="http://www.w3.org/2000/svg" xmlns:xlink="http://www.w3.org/1999/xlink" x="0px" y="0px"
	 width="612px" height="792px" viewBox="0 0 612 792" enable-background="new 0 0 612 792" xml:space="preserve">
<path fill="#FFFFFF" d="M197.786,72.763c0.436-5.219,0.719-10.591,1.614-15.352c-12.395-3.339-9.302,8.807-8.351,18.811
	C193.295,75.064,195.547,73.918,197.786,72.763z"/>
<path fill="#FDFDFD" d="M471.653,74.976c15.865-4.163,6.123,17.296,8.781,26.347C464.568,105.485,474.313,84.026,471.653,74.976z"/>
<path fill="#FDFDFD" d="M440.126,151.856c-1.178,5.072-2.381,10.135-3.603,15.19v48.446h8.781v-66.894
	C443.837,150.024,442.057,151.118,440.126,151.856z"/>
<path fill="#5B595A" d="M331.136,404.313c4.77,1.087,2.979,8.73,8.782,8.782C330.678,449.758,322.284,463.605,331.136,404.313z"/>
<path fill="#5B595A" d="M304.788,448.226c-2.487,13.607,1.195,33.392-13.173,35.13C300.111,475.75,287.847,447.385,304.788,448.226z
	"/>
<path fill="#FFFFFF" d="M489.218,461.398c15.495,3.168,1.881,17.987,8.782,35.13C487.851,492.04,488.914,476.339,489.218,461.398z"
	/>
<path fill="#5B595A" d="M317.962,601.916c4.734-7.267,39.178-7.267,43.911,0C347.236,601.916,332.599,601.916,317.962,601.916z"/>
<path fill="#EDEAE0" d="M265.267,619.482c-9.691,3.486-5.706,20.641-17.564,21.954c3.185-13.431-7.576-12.915-4.391-26.347
	c-30.853-0.766-88.979-13.184-96.606-8.782c-1.042-7.257-2.877-13.714-6.935-17.949c-0.793,1.806-1.619,3.6-2.474,5.383
	c6.909,24.749-9.233,48.661-8.156,74.044h4.391v-21.956c0.927-4.928,4.872-6.839,8.783-8.782
	c27.633,36.038,104.416,21.017,136.126,30.738c3.59-13.975,2.801-32.328,8.782-43.912
	C274.81,627.498,275.845,617.686,265.267,619.482z"/>
<path fill="#EDEAE0" d="M164.271,746.825c-14.688-13.202-53.197-25.729-43.912-48.303c0.983,3.406,0.12,8.661,4.391,8.781
	C135.631,722.771,153.024,731.725,164.271,746.825z"/>
<path fill="#EDEAE0" d="M458.792,600.674c-0.614-3.146-1.177-6.304-1.704-9.469c-12.608,9.987-8.833,46.209-3,59.014v8.783
	C457.881,646.298,454.348,620.746,458.792,600.674z"/>
<path fill="#EDEAE0" d="M405.785,128.128v33.856c2.216-8.888,4.36-17.791,6.298-26.737
	C410.006,132.854,407.906,130.481,405.785,128.128z"/>
<path fill="#EDEAE0" d="M180.575,145.025c-0.092,0.68-0.165,1.302-0.208,1.835c-0.352,4.243-0.538,8.519-0.216,12.771
	c0.063,0.968,0.147,1.935,0.249,2.899c0.015,0.097,0.028,0.179,0.045,0.288c0.252,1.438,0.507,2.877,0.832,4.302
	c0.176,0.771,0.367,1.537,0.558,2.303v-24.189C181.372,145.208,180.961,145.128,180.575,145.025z"/>
<path fill="#EDEAE0" d="M202.273,107.724c-0.301,0.116-3.004,1.257-2.532,1.021c-0.42,0.191-0.844,0.375-1.261,0.574
	c-2.071,1.01-4.161,1.98-6.229,2.995c-1.341,0.658-2.672,1.337-4.008,2.006c0.703-0.029,1.486,0.021,2.374,0.176
	c12.163-3.228,21.924-8.857,32.152-14.02C215.954,102.914,209.019,105.123,202.273,107.724z"/>
<path fill="#FFFFFF" d="M313.57,66.193c6.77,14.02-3.253,14.523-8.782,26.347c0.938-18.479-19.658,2.076-26.347-8.782
	c17.518-2.067-4.18-28.53-24.423-22.618c0.146,0.136,0.299,0.257,0.442,0.4c2.482,2.482,3.997,5.887,4.4,9.404
	c4.27-4.057,11.642-5.438,10.799-0.36c-1.826,3.229-8.192,6.987-13.262,10.697c-0.555,0.783-1.194,1.518-1.938,2.179
	c-1.248,1.11-2.539,2.134-3.848,3.123c-1.481,2.15-1.436,4.181,1.483,5.957c1.292-15.495,11.881,15.495,13.173,0
	c-17.782-11.619,35.243,5.906,52.694,13.173c8.822-8.953-1.938-8.61-4.392-17.564c6.323,4.912,10.715,4.734,13.174-4.391
	c-7.068-1.384,0.337-6.249,8.782-4.391V66.193H313.57z"/>
<path fill="#BFAFA4" d="M377.59,115.128c-5.673-2.535-11.103-5.587-15.981-9.253c-0.127,4.122-0.391,8.106-4.125,8.621
	c-13.592,36.181-26.663,72.871-61.478,87.823c-22.328-4.019-31.631-21.064-43.912-35.129c-3.511-24.301-23.054-32.568-21.956-61.477
	c16.244,2.785,26.141,11.916,48.303,8.783c-13.059-8.538-36.93-6.264-47.761-17.027c-2.604,1.058-5.242,2.053-7.902,3.005
	c-10.23,5.163-19.993,10.794-32.158,14.022c23.98-0.56,22.882,23.958,30.738,39.521c-0.195,13.368,9.274,17.073,13.173,26.347
	c20.463,16.13,37.13,36.055,57.085,52.694c31.687-13.688,47.645-43.1,70.258-65.868c11.09-12.833,11.278-36.566,22.555-49.21
	C382.119,117.08,379.835,116.131,377.59,115.128z"/>
<path fill="#9C9E97" d="M252.094,167.19c14.917,11.43,26.964,25.729,43.912,35.129C273.678,198.3,264.375,181.255,252.094,167.19z"
	/>
<path fill="#9C9E97" d="M234.529,180.363c20.464,16.13,37.131,36.056,57.085,52.694c31.687-13.688,47.645-43.1,70.258-65.868
	c-16.181,30.658-39.972,53.706-70.258,70.259C271.466,219.541,250.339,202.617,234.529,180.363z"/>
<path fill="#9C9E97" d="M190.618,114.496c-0.888-0.155-1.671-0.205-2.375-0.175c-0.239,0.12-0.477,0.242-0.715,0.363
	c-0.602,3.244-1.34,6.461-2.167,9.631c-0.615,2.358-1.263,4.71-1.887,7.068c6.107-23.888,27.163,0.119,35.496,17.008
	C213.428,133.184,211.864,113.999,190.618,114.496z"/>
<path fill="#9C9E97" d="M181.989,137.371c-0.601,2.682-1.119,5.482-1.414,7.655c0.386,0.104,0.796,0.183,1.26,0.209
	c0.156-5.589,0.7-10.037,1.55-13.508C182.892,133.602,182.413,135.48,181.989,137.371z"/>
<path fill="#9C9E97" d="M218.971,148.391c0.713,1.957,1.489,3.852,2.385,5.626C220.771,152.304,219.961,150.397,218.971,148.391z"/>
<path fill="#9C9E97" d="M356.937,102.004c-26.017,4.313-42.082,18.577-78.496,12.492c0.972,3.419,3.677,5.106,8.782,4.391h30.738
	c14.747,3.448,35.798-25.106,39.521-4.391c3.734-0.515,3.999-4.499,4.126-8.622C359.985,104.655,358.425,103.365,356.937,102.004z"
	/>
<path fill="#867F77" d="M252.094,167.19c-3.511-24.3-23.054-32.568-21.956-61.477c16.244,2.785,26.141,11.916,48.303,8.783
	c0.972,3.419,3.676,5.105,8.782,4.391c-3.734,12.888-11.052-5.712-21.956,0c1.709,14.391,18.565,13.637,26.347,21.956
	c9.926-6.175,28.296-3.905,26.347-21.956c14.746,3.448,35.798-25.105,39.521-4.391c-13.592,36.181-26.662,72.872-61.478,87.823
	C279.059,192.919,267.012,178.62,252.094,167.19z"/>
<path fill="#9C9E97" d="M433.856,475.471c-12.42,3.957-27.131,5.623-36.854,12.275c16.913,0.849,27.126-4.995,37.86-10.318
	C434.531,476.773,434.192,476.123,433.856,475.471z"/>
<path fill="#9C9E97" d="M216.965,487.746c60.659,6.581,109.693-1.809,175.646,0c-22.014,10.188-62.896,1.509-92.214,4.391
	c-6.85,10.059-0.583,36.342,4.391,48.304c0,1.464,0,2.928,0,4.392c-2.927,0-5.854,0-8.782,0c-12.093,4.631-3.299-26.25-8.782-48.303
	C263.615,493.789,236.25,494.807,216.965,487.746z"/>
<path fill="#9C9E97" d="M190.617,474.571c-1.644,0.622-3.543,1.258-5.587,1.836c-0.955,1.632-1.916,3.247-2.874,4.845
	c-0.58,0.968-1.147,1.917-1.718,2.872c7.857,1.134,15.974,2.009,23.353,3.622C205.529,477.226,183.791,490.182,190.617,474.571z"/>
<path fill="#9C9E97" d="M189.115,193.923c0.055,1.118-0.036,2.229-0.256,3.32c1.214,4.098,2.427,8.158,3.588,12.136
	c2.535,8.683,5.257,17.309,8.007,25.925C197.143,221.587,193.377,207.765,189.115,193.923z"/>
<path fill="#867F77" d="M142.078,582.892c1.254,0.774,2.772,1.286,4.628,1.459c-0.715-1.466-1.567-4.001-2.395-7.188
	C143.593,579.082,142.847,580.991,142.078,582.892z"/>
<path fill="#867F77" d="M453.954,568.879c-0.207,5.41-0.309,10.714,0.134,15.473c-11.246,0.464-20.932,2.481-26.347,8.782
	c10.695-0.042,22.843,1.369,29.154-3.057C455.745,583.04,454.793,575.964,453.954,568.879z"/>
<path fill="#D3CEC7" d="M457.088,591.204c-0.063-0.376-0.131-0.751-0.192-1.127c-6.313,4.425-18.46,3.014-29.154,3.056
	c-15.758-2.584-21.241,5.101-30.738,8.782c-23.477,10.19-65.827,1.504-96.606,4.392c-12.613,8.325-43.792,4.85-57.085,0
	c-14.786-2.779-40.79,5.66-48.303-4.392c-16.553-5.403-35.913-7.999-48.303-17.563c-1.856-0.173-3.374-0.685-4.628-1.46
	c-0.741,1.832-1.511,3.654-2.307,5.466c4.058,4.235,5.893,10.692,6.935,17.949c7.627-4.402,65.753,8.016,96.606,8.782
	c-3.185,13.431,7.576,12.916,4.391,26.347c11.858-1.313,7.873-18.468,17.564-21.954c10.578-1.797,9.543,8.016,21.956,4.391
	c-5.981,11.584-5.192,29.937-8.782,43.912c-31.71-9.72-108.493,5.3-136.126-30.738c-3.911,1.943-7.857,3.854-8.783,8.782
	c19.315-15.021,18.228,20.721,39.521,17.564c20.961,3.923,48.48,1.28,65.867,8.781c18.085-3.446,22.534,6.742,39.521,4.393
	c16.01-1.557,27.376-7.753,39.521-13.174c42.974,0.771,92.123-3.613,136.126-13.175
	C448.255,637.413,444.479,601.191,457.088,591.204z M366.264,645.828c-15.18,5.311-29.097,11.892-52.693,8.782
	c-0.863-16.964-0.154-32.362,4.392-43.912c26.61-2.677,29.892,13.871,43.91,13.174c6.519-1.915-1.732-5.62,0-13.174h26.348
	c1.859,16.364,4.088,22.859,4.392,48.304C379.26,659.179,363.708,661.552,366.264,645.828z"/>
<path fill="#9C9E97" d="M173.053,667.784c-13.86-0.778-26.187-3.088-26.347-17.565c-7.725,1.06-10.012,7.561-8.782,17.565
	c-1.464,0-2.928,0-4.392,0c0-7.319,0-14.638,0-21.956c19.314-15.021,18.228,20.721,39.521,17.563
	C173.053,664.856,173.053,666.32,173.053,667.784z"/>
<path fill="#BFAFA4" d="M317.962,663.393c42.974,0.772,92.123-3.612,136.126-13.174c0,2.928,0,5.855,0,8.783
	c-2.722,11.915,5.575,34.849-4.391,39.521c0-1.465,0-2.929,0-4.393c0-13.174,0-26.347,0-39.521
	C410.731,664.182,364.618,674.107,317.962,663.393z"/>
<path fill="#867F77" d="M133.532,667.784c1.464,0,2.928,0,4.392,0c-1.229-10.006,1.058-16.507,8.782-17.565
	c0.16,14.479,12.487,16.787,26.347,17.565c20.875,2.55,40.492,6.347,65.867,4.391c7.21,4.792,31.396,15.049,39.521,4.393
	c16.009-1.557,27.376-7.753,39.521-13.175c46.656,10.716,92.771,0.789,131.735-8.781c0,13.174,0,26.347,0,39.521
	c-9.903,3.271-1.717,24.632-4.393,35.13c-26.065-4.11-31.916,11.995-48.303,17.564c-16.101,0-32.202,0-48.303,0
	c-7.576-7.284-45.118-7.284-52.694,0c-17.639,4.315-38.531,5.38-61.477,4.391c-1.463,0-2.927,0-4.391,0
	c-7.513-10.052-33.517-1.611-48.303-4.391c-5.855,0-11.71,0-17.565,0c-11.247-15.102-28.64-24.055-39.521-39.521
	c-2.35-16.986,7.839-21.436,4.391-39.521C130.605,667.784,132.069,667.784,133.532,667.784z"/>
<path fill="#9C9E97" d="M397.003,746.825c16.387-5.569,22.236-21.676,48.303-17.564c2.677-10.498-5.512-31.858,4.393-35.13
	c0,1.464,0,2.928,0,4.393C460.646,740.278,410.84,744.47,397.003,746.825z"/>
<path fill="#867F77" d="M409.561,430.693c-3.414-6.476-6.645-13.128-9.334-19.959c-6.19-8.882-11.585-18.338-16.066-28.186
	c-0.112-0.062-0.218-0.131-0.331-0.192c0.02-0.146,0.035-0.287,0.054-0.433c-2.392-5.309-4.529-10.725-6.371-16.229
	c-3.671-10.97-6.23-22.576-6.626-34.17c-0.491-14.389,2.292-29.146,5.514-43.113c3.415-14.81,7.818-29.382,11.027-44.241
	c3.314-15.348,5.726-30.837,9.374-46.127c2.874-12.043,5.988-24.038,8.984-36.059v-33.856c-1.458-1.618-2.918-3.235-4.411-4.818
	c-5.771-1.363-11.441-3.188-16.946-5.331c-11.277,12.645-11.465,36.377-22.555,49.211c-16.18,30.658-39.971,53.706-70.258,70.259
	c-20.148-17.907-41.275-34.832-57.085-57.085c-3.899-9.274-13.367-12.979-13.173-26.347c-6.227-18.257-38.132-58.423-39.521-8.782
	v8.782c9.171,1.768,2.76,19.12,4.008,28.812c0.849,2.523,1.724,5.038,2.603,7.551c0.408,1.168,0.611,2.357,0.668,3.543
	c4.262,13.842,8.028,27.664,11.338,41.382c3.894,12.202,7.845,24.386,11.409,36.688c16.075,55.482,27.186,146.303-18.702,189.092
	c-2.414,5.265-5.234,10.372-8.131,15.324c2.045-0.579,3.944-1.215,5.589-1.837c-6.827,15.609,14.911,2.652,13.173,13.174h13.174
	c60.658,6.581,109.693-1.809,175.646,0h4.392c9.723-6.652,24.434-8.318,36.854-12.275
	C426.079,460.36,417.485,445.724,409.561,430.693z M291.615,483.354c8.496-7.604-3.768-35.969,13.173-35.129
	C302.302,461.833,305.984,481.616,291.615,483.354z M331.136,404.314c4.769,1.086,2.979,8.729,8.782,8.781
	C330.678,449.758,322.284,463.605,331.136,404.314z"/>
<path fill="#BFAFA4" d="M446.929,501.273c-3.884-7.594-7.706-15.232-11.56-22.863c-0.166-0.329-0.339-0.654-0.506-0.982
	c-10.734,5.323-20.947,11.167-37.86,10.318c-1.464,0-2.928,0-4.392-0.001c-22.013,10.188-62.895,1.509-92.214,4.391
	c-6.85,10.059-0.583,36.342,4.391,48.304c31.939-2.664,55.182,3.368,83.433,4.392c24.209-0.675,40.236-9.526,61.478-13.174
	c0.185,0.043,0.357,0.098,0.527,0.155C449.257,521.438,448.262,511.339,446.929,501.273z"/>
<path fill="#867F77" d="M304.788,540.439c31.938-2.664,55.182,3.367,83.433,4.392c-18.158,13.568-41.705-4.986-65.867,0
	c-5.854,0-11.709,0-17.564,0C304.788,543.367,304.788,541.903,304.788,540.439z"/>
<path fill="#867F77" d="M199.4,549.223c12.265-7.674,54.93-8.244,61.477,4.392C243.237,549.291,222.345,548.233,199.4,549.223z"/>
<path fill="#BFAFA4" d="M296.006,544.831c-12.093,4.631-3.299-26.25-8.782-48.303c-23.609-2.739-50.973-1.722-70.259-8.782h-13.174
	c-7.378-1.614-15.496-2.488-23.353-3.623c-6.685,11.173-12.744,21.554-16.783,32.932c-2.28,6.424-4.334,12.926-6.326,19.447
	c10.747,7.514,24.04,12.487,42.069,12.72c12.265-7.673,54.93-8.245,61.477,4.392c22.75,7.925,40.144-3.527,61.476-8.782H296.006z"/>
<path fill="#51342C" d="M453.955,568.882c-0.735-6.205-1.386-12.417-1.992-18.617c-0.592-6.051-1.132-11.963-1.675-17.791
	c-0.19-0.277-0.383-0.554-0.59-0.815c-21.242,3.648-37.269,12.499-61.478,13.174c-18.159,13.568-41.705-4.986-65.868,0
	c-21.332,5.255-38.726,16.707-61.476,8.782c-17.64-4.323-38.532-5.38-61.477-4.392c-18.03-0.232-31.323-5.206-42.07-12.721
	c-4.162,13.632-8.04,27.353-13.019,40.661c0.828,3.188,1.68,5.722,2.395,7.188c12.39,9.565,31.75,12.161,48.303,17.564
	c14.786,2.78,40.79-5.66,48.303,4.392c13.293,4.85,44.472,8.325,57.085,0c0.818-6.507,10.612-4.025,17.565-4.392
	c4.734-7.268,39.178-7.268,43.911,0h35.13c9.497-3.681,14.98-11.366,30.738-8.782c5.415-6.301,15.101-8.319,26.348-8.782
	C453.646,579.594,453.747,574.291,453.955,568.882z"/>
<path fill="#867F77" d="M195.009,601.916c14.786,2.779,40.79-5.66,48.303,4.392C228.526,603.528,202.522,611.968,195.009,601.916z"
	/>
<path fill="#867F77" d="M317.962,601.916c14.637,0,29.274,0,43.911,0c11.71,0,23.42,0,35.13,0
	c-23.477,10.189-65.827,1.504-96.606,4.392C301.215,599.801,311.009,602.282,317.962,601.916z"/>
<path fill="#BFAFA4" d="M173.053,663.393c20.961,3.924,48.48,1.281,65.867,8.782c-25.375,1.956-44.992-1.841-65.867-4.391
	C173.053,666.32,173.053,664.856,173.053,663.393z"/>
<path fill="#9C9E97" d="M238.92,672.175c18.085-3.447,22.534,6.741,39.521,4.393C270.316,687.224,246.13,676.967,238.92,672.175z"/>
<path fill="#EDEAE0" d="M361.873,623.872c6.519-1.915-1.732-5.62,0-13.174c8.783,0,17.564,0,26.348,0
	c1.858,16.364,4.088,22.858,4.392,48.304c-13.352,0.177-28.902,2.55-26.348-13.174c-15.181,5.312-29.098,11.893-52.693,8.782
	c-0.863-16.964-0.154-32.362,4.392-43.912C344.572,608.021,347.854,624.569,361.873,623.872z"/>
<path fill="#BFAFA4" d="M181.835,154.017v15.406c1.132,4.527,2.521,8.979,4.008,13.401
	C184.597,173.132,191.005,155.786,181.835,154.017z"/>
<path fill="#5B595A" d="M317.962,118.887c1.949,18.05-16.421,15.781-26.347,21.956c-7.782-8.319-24.638-7.564-26.347-21.956
	c10.904-5.712,18.222,12.888,21.956,0C297.47,118.887,307.716,118.887,317.962,118.887z"/>
</svg>
