<?xml version="1.0" encoding="utf-8"?>
<!-- Generator: Adobe Illustrator 15.0.0, SVG Export Plug-In . SVG Version: 6.00 Build 0)  -->
<!DOCTYPE svg PUBLIC "-//W3C//DTD SVG 1.1//EN" "http://www.w3.org/Graphics/SVG/1.1/DTD/svg11.dtd">
<svg version="1.1" id="Capa_1" xmlns="http://www.w3.org/2000/svg" xmlns:xlink="http://www.w3.org/1999/xlink" x="0px" y="0px"
	 width="612px" height="792px" viewBox="0 0 612 792" enable-background="new 0 0 612 792" xml:space="preserve">
<path fill="#222225" d="M360.582,443.047c14.351,42.146,17.638,95.356,22.302,147.19
	C365.571,551.053,358.852,501.275,360.582,443.047z"/>
<path fill="#222225" d="M213.828,729.312c3.854-1.212,7.685-2.495,11.511-3.802c3.745-1.278,7.526-2.531,11.34-3.682
	c2.136-4.229,5.454-7.277,3.475-15.622c-6.743-11.099-29.509-6.173-35.683-17.841c24.375-70.784,66.986-147.098,57.984-236.396
	c-17.853,24.049-22.04,115.926-49.063,147.189c-14.553,16.837-10.174-1.609-17.841-13.381
	c0.252,50.088-18.765,102.558,6.174,142.034C205.759,728.313,209.793,728.813,213.828,729.312z"/>
<path fill="#222225" d="M365.155,715.017c0.289-0.037,0.578-0.075,0.867-0.112c2.086-0.468,3.906-0.67,5.484-0.631
	c4.767-0.484,9.549-0.77,14.336-0.599c8.375,0.3,16.715,1.664,24.984,2.967c0.153,0.024,0.302,0.048,0.455,0.071
	c6.243-7.121,14.016-12.713,20.666-19.428c-19.603-8.648-11.273-45.225-26.764-57.984c-5.25,0.697-12.659-0.767-13.381,4.46
	c6.249,17.54,8.225,39.354,13.381,57.984C395.029,709.355,373.923,706.018,365.155,715.017z"/>
<path fill="#222225" d="M481.011,688.364c12.521,11.377-20.508,14.92-35.683,13.381C451.838,691.901,474.5,698.209,481.011,688.364z
	"/>
<path fill="#222225" d="M307.059,715.126c6.187-10.17,31.049-1.661,44.604-4.46C345.477,720.835,320.613,712.327,307.059,715.126z"
	/>
<path fill="#EDEAE0" d="M243.651,97.234c0.491,0.619,0.838,1.382,0.962,2.368h7.807c-1.095-1.244-2.162-2.511-3.215-3.789
	C247.368,96.329,245.516,96.801,243.651,97.234z"/>
<path fill="#BFAFA4" d="M397.448,92.876c-3.759-0.26-7.518-0.504-11.278-0.715c3.226,0.187,6.864,0.839,11.246,2.028
	C397.424,93.752,397.435,93.314,397.448,92.876z"/>
<path fill="#BFAFA4" d="M377.402,92.882c2.643-0.611,5.336-0.885,8.381-0.743c-2.386-0.133-4.771-0.255-7.158-0.366
	C378.218,92.142,377.81,92.511,377.402,92.882z"/>
<path fill="#5B595A" d="M499.832,620.563c-9.486-15.97-17.786-32.744-25.507-49.595c-8.007-17.476-15.47-35.21-23.533-52.662
	c7.898,54.767,40.89,96.596,61.698,135.557C508.155,642.803,503.951,631.692,499.832,620.563z"/>
<path fill="#5B595A" d="M508.382,722.566c0.766-1.511,2.076-2.477,3.852-2.98c9.669,0.75,2.021-15.82,4.46-22.301
	c-5.39-0.941-2.741-4.948,0-8.921c-10.028,3.772-8.504,23.382-8.485,34.187C508.266,722.556,508.324,722.561,508.382,722.566z"/>
<path fill="#867F77" d="M511.714,722.893c0.051-1.225,0.205-2.346,0.52-3.307c-1.775,0.504-3.086,1.47-3.851,2.98
	C509.494,722.666,510.604,722.776,511.714,722.893z"/>
<path fill="#095BAD" d="M371.51,714.273c-1.579-0.04-3.4,0.163-5.487,0.631C367.849,714.672,369.678,714.46,371.51,714.273z"/>
<path fill="#095BAD" d="M512.488,653.855c-20.808-38.958-53.797-80.785-61.695-135.547c-1.738-3.764-3.495-7.518-5.302-11.248
	c-6.57-13.566-12.512-28.933-14.963-44.526c-16.208-36.289-28.604-74.579-42.172-111.961c-7.763-14.269-8.436-31.698-2.316-47.563
	c-0.042-0.813-0.072-1.63-0.077-2.454c-0.056-9.258,2.477-18.155,5.317-26.933c1.347-8.665,2.896-17.313,4.448-25.911
	c1.98-10.964,3.973-21.933,5.562-32.962c0.095-0.659,0.86-6.385,0.369-2.567c0.196-1.525,0.404-3.05,0.565-4.58
	c0.401-3.809,0.724-7.627,0.872-11.456c0.3-7.715,0.234-15.434-0.097-23.147c-0.68-15.859-1.035-32.05-3.072-47.796
	c-1.257-9.713-2.695-20.328-2.512-31.017c-8.739-2.375-14.487-2.583-20.014-1.305c-13.789,12.535-27.668,26.243-44.631,33.056
	c-2.417,7.278-7.534,8.979-7.871,13.81c-28.772-8.224-23.359-2.202-44.604,0c6.609-10.855-4.1-2.963-4.46-17.842
	c-0.255,2.718-0.668,5.279-4.46,4.46c-5.007,0.453-6.946-6.481-8.921,0c7.231,12.097,13.527,25.13,26.762,31.222
	c14.374-15.751,46.594-11.819,57.983-17.841c-22.504,69.082-113.4,2.275-102.585-40.145c-0.124-0.986-0.472-1.748-0.962-2.367
	c-7.588,1.763-15.352,2.915-22.936,3.943c-5.074,2.79-12.233,3.496-20.707,2.885v26.762c-3.583,47.399,9.905,82.031,15.708,128.003
	c3.918,9.227,6.85,18.931,6.662,29.084c-0.078,4.182-0.558,8.219-1.37,12.16c6.916,22.773,5,50.109-7.619,67.15
	c-11.468,25.647-21.212,53.018-29.268,82.079c3.046,2.84,4.996,6.827,4.875,11.2c-0.348,12.644-5.906,24.08-11.767,35.025
	c-2.318,4.329-4.762,8.639-6.777,13.127c-0.057,0.275-1.179,3.165-1.256,3.391c-0.399,1.146-0.782,2.297-1.151,3.453
	c-0.904,2.896-1.766,5.807-2.52,8.746c-1.663,6.484-3.021,13.033-4.346,19.589c1.788-6.165,3.466-15.751,7.605-16.039
	c-1.729,47.772-9.743,89.259-38.312,110.19c-0.185,0.43-0.364,0.862-0.549,1.292c-0.757,1.762-1.514,3.522-2.277,5.281
	c-0.207,0.476-0.368,0.846-0.497,1.141c-0.04,0.098-0.083,0.202-0.13,0.319c-0.811,1.981-1.609,3.968-2.4,5.958
	c-1.673,4.214-3.325,8.439-5.082,12.62c-0.999,2.377-2.02,4.761-3.077,7.135c0.713,0.527,1.389,1.12,1.995,1.812
	c10.687,12.188,13.729,26.977,17.991,41.707c3.537,1.093,7.07,2.197,10.594,3.333c4.356,1.404,8.696,2.851,13.012,4.365
	c2.08,0.224,4.151,0.44,6.234,0.667c11.824,1.287,23.63,2.733,35.435,4.199c-24.938-39.476-5.921-91.946-6.173-142.034
	c7.666,11.772,3.287,30.218,17.841,13.381c27.023-31.262,31.21-123.14,49.063-147.189c9.002,89.298-33.609,165.612-57.984,236.396
	c6.174,11.668,28.94,6.742,35.683,17.841c1.979,8.345-1.339,11.393-3.475,15.622c10.092-3.041,20.428-5.339,31.015-5.299
	c16.269,0.06,30.058,4.12,46.307,4.585c15.646,0.448,29.263-3.078,45.093-5.274c2.016-0.28,4.037-0.56,6.062-0.823
	c8.769-8.999,29.875-5.661,40.029-13.271c-5.156-18.631-7.132-40.444-13.381-57.984c0.722-5.227,8.131-3.763,13.381-4.46
	c15.491,12.759,7.161,49.336,26.764,57.984c-6.649,6.716-14.423,12.307-20.666,19.428c15.062,2.373,27.304,4.354,42.787,4.493
	c17.911,0.161,36.171-0.257,54.14,1.345c-0.019-10.806-1.543-30.413,8.485-34.186c0.919-3.254,3.39-4.962,7.961-4.568
	C520.458,673.877,516.42,663.887,512.488,653.855z M307.058,715.126c6.187-10.17,31.049-1.661,44.604-4.46
	C345.477,720.835,320.613,712.327,307.058,715.126z M360.582,443.047c14.351,42.146,17.638,95.356,22.302,147.19
	C365.571,551.053,358.852,501.275,360.582,443.047z M445.328,701.745c6.51-9.844,29.172-3.536,35.683-13.381
	C493.532,699.741,460.503,703.284,445.328,701.745z"/>
<path fill="#222225" d="M289.217,157.586c-13.236-6.092-19.532-19.124-26.762-31.222c1.975-6.481,3.914,0.453,8.921,0
	c3.793,0.819,4.205-1.742,4.46-4.46c0.36,14.88,11.069,6.987,4.46,17.842c21.246-2.202,15.833-8.224,44.604,0
	c0.338-4.832,5.454-6.532,7.871-13.809c-5.116,2.055-10.512,3.484-16.271,4.063c-20.159,2.022-37.352-5.917-51.68-18.114
	c-7.525-1.818-13.065-5.621-15.746-12.284h-4.46C233.8,142.021,324.696,208.828,347.2,139.745
	C335.813,145.767,303.592,141.836,289.217,157.586z"/>
<path fill="#51342C" d="M252.42,99.602h-3.346c2.681,6.663,8.221,10.466,15.746,12.284
	C260.417,108.138,256.285,103.99,252.42,99.602z"/>
<path fill="#FFFFFF" d="M258.56,765.391c-6.047,5.635-16.145,7.22-22.867,12.18c8.433-0.999,9.839,5.029,17.841,4.461
	c-1.928-7.126,7.917-11.898,11.411-16.027C262.816,765.806,260.688,765.603,258.56,765.391z"/>
<path fill="#222225" d="M161.183,543.835c-1.192,5.9-2.358,11.807-3.693,17.679c-2.883,12.689-6.858,25.097-11.309,37.318
	c-4.813,13.218-10.167,26.225-15.705,39.151c28.569-20.932,36.583-62.418,38.313-110.19
	C164.649,528.081,162.971,537.67,161.183,543.835z"/>
<path fill="#9C9E97" d="M524.654,683.796c-4.57-0.393-7.042,1.315-7.961,4.568c-2.741,3.973-5.391,7.979,0,8.921
	c2.215-3.863,5.681-6.475,10.378-7.854C526.264,687.554,525.451,685.679,524.654,683.796z"/>
</svg>
