<?xml version="1.0" encoding="utf-8"?>
<!-- Generator: Adobe Illustrator 15.0.0, SVG Export Plug-In . SVG Version: 6.00 Build 0)  -->
<!DOCTYPE svg PUBLIC "-//W3C//DTD SVG 1.1//EN" "http://www.w3.org/Graphics/SVG/1.1/DTD/svg11.dtd">
<svg version="1.1" id="Capa_1" xmlns="http://www.w3.org/2000/svg" xmlns:xlink="http://www.w3.org/1999/xlink" x="0px" y="0px"
	 width="612px" height="792px" viewBox="0 0 612 792" enable-background="new 0 0 612 792" xml:space="preserve">
<path fill="#FDFDFD" d="M479.33,248.219c4.406,16.822-18.33,6.49-27.923,9.308C452.492,240.221,467.914,244.486,479.33,248.219z"/>
<path fill="#D5537B" d="M506.068,137.5c-0.614-1.3-1.475-3.133-1.941-3.956c-0.293-0.517-0.593-1.03-0.895-1.542
	c-99.652-29.784-288.9-32.889-377.482-4.089c-0.085,0.338-0.177,0.674-0.259,1.013c-0.57,5.624-1.052,13.512-1.28,22.49
	c3.735,10.556,6.912,21.29,9.703,32.205c1.415,5.532,2.822,11.059,4.192,16.59c16.219-21.655,55.048-12.574,87.711-12.111
	c93.247,1.331,227.397-19.68,275.625,15.034v15.525c0.516-3.612,1.025-7.226,1.524-10.84c0.167-1.293,0.505-3.89,0.65-5.104
	c0.245-2.057,0.486-4.115,0.727-6.172c0.524-4.483,1.047-8.966,1.629-13.441c0.271-2.085,0.543-4.173,0.818-6.261
	C506.17,163.345,505.271,149.574,506.068,137.5z"/>
<path fill="#BF3333" d="M225.819,188.1c-32.663-0.464-71.493-9.545-87.712,12.11c1.828,7.376,3.583,14.762,5.188,22.185
	c68.457-26.013,118.479,40.957,177.74,35.863c54.655-4.698,110.446-82.112,175.396-30.068c1.639,7.934-0.167,19.311-0.661,29.377
	c1.883-12.972,3.82-25.935,5.674-38.911c0-5.174,0-10.348,0.001-15.522C453.216,168.42,319.065,189.431,225.819,188.1z"/>
<path fill="#FFFFFF" d="M71.825,285.696c-8.641-7.99-10.702-21.931-4.674-32.222c0.731-1.248,1.55-2.403,2.438-3.472
	c-0.528-8.091-0.573-15.7,0.877-21.812H60.444v80.182C68.798,305.374,71.449,296.672,71.825,285.696z"/>
<path fill="#FFFFFF" d="M86.083,297.762c-0.107-0.153-0.207-0.312-0.315-0.464c-1.183-1.408-2.392-2.796-3.701-4.087
	c-0.377-0.372-0.962-0.879-1.576-1.395v6.533C82.8,298.6,84.621,298.36,86.083,297.762z"/>
<path fill="#D5537B" d="M169.941,383.696c88.086,3.155,200.996,6.245,271.365,9.868c-91.784-23.562-182.391-41.749-271.558-11.436
	C169.813,382.651,169.884,383.173,169.941,383.696z"/>
<path fill="#BF3333" d="M160.671,448.69c31.112,10.647,83.007,0.514,100.227,25.056C223.822,469.061,164.417,486.705,160.671,448.69
	z"/>
<path fill="#BF3333" d="M481.397,498.803c-10.4,20.828-67.001,18.271-90.204,10.022C405.457,491.86,464.929,497.289,481.397,498.803
	z"/>
<path fill="#FFFFFF" d="M76.926,414.005c5.066-1.51,10.115-3.112,15.042-5.036c0.161-0.063,0.343-0.136,0.534-0.213
	c0.257-0.117,0.519-0.226,0.774-0.346c2.047-0.965,4.083-1.961,6.054-3.074c0.966-0.545,1.925-1.104,2.875-1.68
	c0.585-5.253,1.041-10.52,1.395-15.793c0.282-4.203,0.511-8.409,0.699-12.617c-2.484,12.527-5.777,16.876-33.831,13.306v-50.113
	c18.113-4.75,6.988,19.739,10.022,30.068c12.555,0.862,12.163-11.223,20.046-15.034c-10.767-10.949-25.71-17.722-20.046-45.102
	c-23.895-7.19,3.85,37.259-20.045,30.068v80.086C65.96,417.098,71.466,415.632,76.926,414.005z"/>
<path fill="#E1CECB" d="M204.633,92.442c-1.295,0.072-2.589,0.158-3.883,0.242c20.899,0.403,42.276,1.271,54.209,0.713
	C238.194,92.258,221.415,91.513,204.633,92.442z"/>
<path fill="#EBE8E9" d="M293.901,96.157c-7.722-0.452-15.449-1.031-23.179-1.612c12.657,1.795,27.449,2.681,42.563,2.631
	C306.821,96.871,300.36,96.535,293.901,96.157z"/>
<path fill="#D69B9F" d="M498.647,124.994c-0.229-0.282-0.448-0.55-0.624-0.758c-3.464-4.09-7.143-8-11.071-11.648
	c-2.326-2.16-4.692-4.277-7.144-6.294c-0.711-0.584-1.429-1.16-2.146-1.736c-0.018-0.013-0.037-0.028-0.055-0.041
	c-4.242-3.108-8.593-6.076-13.108-8.773c-0.684-0.408-1.383-0.792-2.072-1.191c-25.352,2.622-50.852,3.877-76.226,4.136
	c-24.311,0.248-48.616-0.362-72.897-1.511c-15.127,0.05-29.932-0.836-42.598-2.634c-5.245-0.394-10.491-0.789-15.739-1.146
	c-11.932,0.559-33.317-0.311-54.224-0.713c-6.388,0.414-12.768,0.975-19.12,1.777c-0.113,0.017-0.221,0.033-0.35,0.053
	c-1.751,0.263-3.502,0.526-5.249,0.82c-3.458,0.582-6.913,1.193-10.349,1.901c-6.824,1.406-13.85,2.753-20.387,5.225
	c-0.941,0.45-1.88,0.906-2.793,1.41c-1.818,1.002-3.612,2.057-5.326,3.231c-0.119,0.111-0.249,0.231-0.392,0.363
	c-0.85,0.783-1.702,1.567-2.499,2.406c-0.556,0.586-1.105,1.18-1.642,1.785c-1.063,1.577-2.073,3.189-2.958,4.874
	c-0.386,0.733-0.763,1.471-1.127,2.214c-1.094,3.006-2.019,6.07-2.802,9.17c88.582-28.8,277.83-25.695,377.482,4.089
	c-1.174-1.997-2.411-3.956-3.753-5.845C499.203,125.768,498.926,125.381,498.647,124.994z"/>
<path fill="#D69B9F" d="M124.58,133.09c-0.285,1.478-0.548,2.96-0.793,4.446c-0.166,1.5-0.574,4.883-0.685,6.067
	c-0.108,1.151-0.276,2.285-0.492,3.4c0.544,1.468,1.081,2.938,1.603,4.412c0.228-8.978,0.71-16.866,1.28-22.49
	C125.159,130.307,124.849,131.694,124.58,133.09z"/>
<path fill="#D69B9F" d="M507.579,149.603c0.216-2.059,0.313-4.134,0.21-6.204c-0.145-0.682-0.297-1.362-0.482-2.035
	c-0.319-1.16-0.664-2.314-1.045-3.456c-0.061-0.127-0.127-0.268-0.193-0.409c-0.798,12.076,0.101,25.848,0.723,39.344
	c0.748-5.672,1.541-11.346,2.499-16.988C507.871,156.693,507.2,153.223,507.579,149.603z"/>
<path fill="#D5537B" d="M371.147,363.497c11.04-13.926,35.714,0.705,50.112,0C412.063,375.594,391.716,356.619,371.147,363.497z"/>
<path fill="#D5537B" d="M516.477,634.108c1.241-1.646,2.111-3.25,2.675-4.823C516.812,630.294,515.501,631.898,516.477,634.108z"/>
<path fill="#D5537B" d="M522.808,545.442c-5.638-7.899-10.687-16.111-14.764-25.042c-2.187-4.788-4.184-9.657-6.175-14.528
	c2.762,6.756,0.429,1.012-0.168-0.289c-0.748-1.631-1.5-3.259-2.279-4.875c-3.144-6.513-6.492-12.93-9.519-19.499
	c-3.817-8.288-7.801-16.817-10.028-25.71c-1.217-4.856-2.069-9.844-2.686-14.854c-1.254,8.169-1.747,15.907-0.805,23.079
	c-22.51,11.72-73.681,15.783-85.191-10.021c24.065-4.335,66.817,10.021,75.171-10.022c-44.607-2.169-69.86-23.688-115.263-25.058
	c14.401-5.645,39.073-1.019,50.114-10.022c-79.582-16.119-164.279,1.566-230.522,15.032c52.136,25.6,117.597-13.786,170.386,0
	c-52.279,9.814-127.407,41.329-176.21,11.631c-3.706,12.27-9.166,23.864-16.46,34.719c-4.564,21.001-14.65,36.481-22.817,53.88
	c-11.844,38.268-23.641,76.585-25.057,125.283c15.229,8.156,24.691,22.082,50.113,20.045c-14.382-10.674-43.876-6.238-40.091-35.08
	c0.926-7.425,12.111-4.594,20.045-5.01c-7.765-22.683,1.802-28.066,5.012-45.104c9.826-4.51,48.024-4.405,75.17-25.056
	c-30.323-8.354-52.867,6.347-70.159-15.035c10.382-2.983,32.92,6.191,35.08-5.013c-11.028-7.346-37.351,0.602-40.091-15.032
	c105.46-0.869,236.198,18.14,350.794,0c0.555,9.469,16.566,3.478,15.034,15.032c-64.606,13.906-145.336,11.688-215.488,20.048
	c14.852,25.382,69.696-0.523,60.137,15.031c12.28-4.422,18.389-15.02,40.09-10.022c3.499,14.774,78.082,33.462,100.229,15.035
	c9.411,20.625,38.694,33.678,32.742,50.301c6.269-2.701,19.984-1.097,17.371,4.823c3.968,17.332-5.573,21.154-10.023,30.069
	c7.152-1.201,8.457-8.248,15.035-10.022C544.521,608.688,534.712,576.018,522.808,545.442z M160.671,448.69
	c31.112,10.648,83.007,0.514,100.227,25.056C223.822,469.061,164.417,486.705,160.671,448.69z M391.193,508.825
	c14.264-16.965,73.735-11.536,90.204-10.022C470.997,519.631,414.396,517.074,391.193,508.825z"/>
<path fill="#BF3333" d="M536.523,634.108c2.613-5.921-11.102-7.525-17.371-4.823c5.953-16.624-23.33-29.676-32.742-50.301
	c-22.147,18.427-96.73-0.261-100.229-15.035c-21.701-4.998-27.81,5.6-40.09,10.022c9.559-15.554-45.285,10.351-60.137-15.031
	c70.152-8.36,150.882-6.141,215.488-20.049c1.532-11.554-14.479-5.563-15.034-15.032c-114.595,18.14-245.334-0.869-350.794,0
	c2.74,15.634,29.064,7.686,40.091,15.032c-2.161,11.204-24.699,2.03-35.08,5.013c17.291,21.382,39.836,6.681,70.159,15.035
	c-27.145,20.651-65.343,20.546-75.17,25.056c-3.211,17.038-12.777,22.421-5.012,45.103c-7.934,0.417-19.118-2.415-20.045,5.011
	c-3.785,28.842,25.709,24.405,40.091,35.079c19.757,7.285,43.719,10.365,68.798,12.327c13.22-0.98,26.412,0.364,39.509,2.388
	c8.07-0.187,16.134-0.531,24.205-0.716c21.337-0.487,42.043,1.979,63.104,4.98c20.096-1.952,40.309-4.107,60.379-3.474
	c1.532-0.157,3.072-0.309,4.597-0.472c7.824,0.954,14.811,1.07,21.244,0.634c8.257-1.744,16.525-3.436,24.818-4.999
	c1.493-0.281,2.989-0.552,4.484-0.825c15.614-4.702,30.247-10.387,50.696-10.255c3.219-0.869,6.426-1.787,9.607-2.787
	c0.584-1.489,1.765-2.384,4.409-1.812C530.95,655.263,540.491,651.439,536.523,634.108z"/>
<path fill="#D69B9F" d="M141.957,478.808c-1.205,1.514-2.465,2.98-3.751,4.423c-5.536,12.212-12.198,23.298-12.613,40.63
	c8.168-17.397,18.253-32.878,22.817-53.878C146.396,472.979,144.252,475.925,141.957,478.808z"/>
<path fill="#EBE8E9" d="M533.599,661.93c0.173-0.082,0.361-0.17,0.567-0.266c2.96-1.38,5.892-2.838,8.729-4.459
	c0.19-0.716,0.38-1.433,0.554-2.153c0.657-2.727,1.257-5.468,1.729-8.233c0.111-0.655,0.211-1.313,0.317-1.971
	c0.395-3.759,0.673-7.531,0.792-11.309c-1.225,6.817-2.772,14.401-4.753,20.616c-6.578,1.775-7.883,8.823-15.035,10.022
	c-2.646-0.572-3.825,0.322-4.409,1.812c1.546-0.485,3.089-0.985,4.619-1.52C529.021,663.664,531.327,662.841,533.599,661.93z"/>
<path fill="#563233" d="M496.431,228.19c-64.95-52.045-120.741,25.37-175.396,30.068c-59.261,5.094-109.283-61.875-177.74-35.862
	c1.78,8.234,3.376,16.512,4.665,24.874c0.058,0.375,0.111,0.751,0.168,1.125c1.985,2.511,3.741,5.193,5.201,8.019
	c8.656,16.749,11.053,35.217,12.743,53.718c45.119-13.803,93.759-24.086,134.918-41.851
	c66.249,10.591,115.117,38.564,180.407,50.114c-0.523-7.617,3.72-10.468,7.988-13.293c0.421-3.412,0.831-6.826,1.261-10.237
	c1.568-12.455,3.32-24.88,5.123-37.296C496.264,247.501,498.069,236.124,496.431,228.19z"/>
<path fill="#BF3333" d="M481.396,318.395c-65.289-11.55-114.157-39.524-180.406-50.114c-41.159,17.765-89.799,28.047-134.918,41.851
	c0.342,3.743,0.657,7.488,0.986,11.22c0.191,2.163,0.381,4.327,0.63,6.484c0.039,0.34,0.087,0.725,0.134,1.096
	c0.371,2.727,0.188,1.479,0,0c-0.135-0.995-0.343-2.514-0.652-4.75c0.502,3.636,0.963,7.19,1.318,10.824
	c0.762,7.804,1.513,15.633,1.673,23.477c0.147,7.174,0.079,14.722-0.604,22.192c0.063,0.484,0.133,0.968,0.191,1.452
	c89.167-30.313,179.773-12.125,271.558,11.436c-70.369-3.622-183.279-6.711-271.365-9.868c0.763,6.959,1.006,13.968,0.496,21.016
	c-0.767,10.59-2.617,20.782-5.567,30.55c48.803,29.698,123.932-1.815,176.211-11.63c-52.789-13.786-118.25,25.6-170.386,0
	c66.243-13.466,150.94-31.151,230.522-15.033c-11.041,9.003-35.713,4.377-50.114,10.023c45.403,1.369,70.656,22.889,115.263,25.057
	c-8.354,20.044-51.106,5.688-75.171,10.023c11.51,25.805,62.681,21.742,85.191,10.021c-0.943-7.172-0.45-14.91,0.804-23.078
	c-0.443-3.605-0.769-7.222-1.002-10.813c-0.975-15.012-0.02-30.058,1.844-44.966c2.048-16.386,4.767-32.646,7.323-48.955
	c0.441-2.817,0.87-5.638,1.28-8.46c0.132-1.034,0.337-2.619,0.419-3.299c0.237-1.964,0.474-3.929,0.712-5.894
	c0.531-4.386,1.08-8.771,1.62-13.156C485.117,307.927,480.875,310.778,481.396,318.395z M371.148,363.497
	c11.041-13.926,35.714,0.705,50.112,0C412.063,375.594,391.716,356.619,371.148,363.497z"/>
<path fill="#D69B9F" d="M411.38,684.894c-0.044-0.221-0.077-0.431-0.141-0.671c-1.522,0.163-3.06,0.313-4.589,0.471
	C408.228,684.743,409.805,684.808,411.38,684.894z"/>
</svg>
