<?xml version="1.0" encoding="utf-8"?>
<!-- Generator: Adobe Illustrator 15.0.0, SVG Export Plug-In . SVG Version: 6.00 Build 0)  -->
<!DOCTYPE svg PUBLIC "-//W3C//DTD SVG 1.1//EN" "http://www.w3.org/Graphics/SVG/1.1/DTD/svg11.dtd">
<svg version="1.1" id="Capa_1" xmlns="http://www.w3.org/2000/svg" xmlns:xlink="http://www.w3.org/1999/xlink" x="0px" y="0px"
	 width="612px" height="792px" viewBox="0 0 612 792" enable-background="new 0 0 612 792" xml:space="preserve">
<path fill="#BF3333" d="M225.282,155.766c16.772,10.825,14.355,40.837,24.35,58.44C233.183,203.06,230.114,178.531,225.282,155.766z
	"/>
<path fill="#D5537B" d="M522.354,238.557c-5.825-19.138,14.908-36.602,0-48.701C537.775,176.172,555.83,242.914,522.354,238.557z"/>
<path fill="#BF3333" d="M473.655,292.127c-11.339-10.095,2.465-36.214,4.869-48.701C484.276,258.71,482.045,278.063,473.655,292.127
	z"/>
<path fill="#BF3333" d="M400.604,350.569c-48.992,8.851-122.024,16.183-175.321,4.87
	C253.703,317.803,375.391,331.266,400.604,350.569z"/>
<path fill="#BF3333" d="M371.382,379.788c-17.633,11.858-44.064,17.407-68.178,9.74
	C321.611,381.964,345.649,380.029,371.382,379.788z"/>
<path fill="#BF3333" d="M351.902,409.009c-12.999,14.458-36.595,16.398-58.44,9.741C307.9,410.461,333.557,413.396,351.902,409.009z
	"/>
<path fill="#5F5A5A" d="M259.373,457.709c16.232,0,32.465,0,48.7,0C302.631,471.027,272.974,463.57,259.373,457.709z"/>
<path fill="#BF3333" d="M288.593,486.93c21.185-0.073,43.817-1.61,58.44,4.871c1.007,13.994-1.237,24.744-9.739,29.219
	c-6.495,0-12.988,0-19.481,0c0.734-9.006,16.491-2.991,19.481-9.737C325.212,499.01,303.387,496.494,288.593,486.93z"/>
<path fill="#BF3333" d="M366.513,579.463c0,4.867,0,9.738,0,14.607c-33.481-7.306-76.589,4.237-121.75,0
	c-15.467-4.082,8.643-6.424,14.611-4.869c26.106-11.23,77.153,2.486,102.271-9.738C363.264,579.463,364.891,579.463,366.513,579.463
	z"/>
<path fill="#BF3333" d="M332.421,628.163c10.039,2.947,33.833-7.865,29.223,9.74c3.481,13.226-22.962-3.49-19.48,9.739
	c7.71,0.406,18.571-2.346,19.48,4.871c-30.425,7.156-96.317,2.756-110.598,13.336c7.299-0.042,14.592-0.175,21.864-0.567
	c15.312-0.828,30.196-1.854,44.843,0.604c5.245-0.225,10.493-0.369,15.747-0.386c0.537-0.002,1.07,0.02,1.601,0.052
	c0.464-0.026,0.929-0.052,1.399-0.052c3.604,0,7.055,0.769,10.2,2.142c5.404,0.252,10.548,0.241,14.943-0.517h4.869v-68.184
	C364.723,618.258,345.473,620.109,332.421,628.163z"/>
<path fill="#BF3333" d="M249.632,628.162c-47.667-19.685,63.679-3.793,43.831,0C235.922,639.145,296.811,624.273,249.632,628.162z"
	/>
<path fill="#D5537B" d="M353.53,671.992h8.112v-4.867c-4.396,0.758-9.538,0.769-14.942,0.517
	C349.198,668.733,351.499,670.211,353.53,671.992z"/>
<path fill="#FFFFFF" d="M570.761,263.071c0.242-6.692,0.057-12.958-4.576-14.775c-4.141,1.071-6.509,2.474-7.726,4.191
	C563.545,254.607,567.897,258.337,570.761,263.071z"/>
<path fill="#FFFFFF" d="M573.836,281.398c-0.08,0.664-0.167,1.332-0.265,2.014c-1.982,13.891-10.615,25.191-21.441,33.73
	c-0.046,1.263-0.212,2.646-0.556,4.206c15.004,3.639,5.935-16.792,24.351-9.741v-29.219
	C575.112,282.174,574.429,281.832,573.836,281.398z"/>
<path fill="#EBE8E9" d="M381.121,706.084c-8.039,0.074-2.727,13.506-9.739,14.611c-8.642-9.222-3.553-32.162-4.869-48.701h-12.979
	c3.026,2.654,5.448,5.985,7.008,9.74h1.103c-0.002,1.111,0.002,2.196,0.009,3.269c0.552,2.083,0.848,4.261,0.848,6.497
	c0,1.895-0.218,3.744-0.617,5.532c0.238,7.348,0.618,13.79,0.974,19.844c0.2,1.893,0.401,3.773,0.644,5.624
	c0.229,1.756,0.196,3.478-0.063,5.146c0.113,2.488,0.204,4.967,0.256,7.473c5.332,0.003,10.599,0.57,15.789,1.613
	C379.359,726.441,379.718,716.341,381.121,706.084z"/>
<path fill="#EBE8E9" d="M492.301,290.417c13.751-14.665,28.465-29.32,39.795-42.122c-19.399-1.541-13.192,22.525-29.223,24.351
	c-4.401,8.586-10.895,15.079-19.479,19.48c-3.78,1.091-9.606,0.133-9.738,4.87c-5.148,10.695-16.881,14.812-19.905,27.636
	C460.734,308.25,476.06,298.136,492.301,290.417z"/>
<path fill="#E1CECB" d="M502.874,272.647c5.13-28.295,57.399-32.188,38.961-68.18c24.577,11.502-2.569,34.064-9.739,43.829
	C512.696,246.755,518.903,270.821,502.874,272.647z"/>
<path fill="#EBE8E9" d="M142.491,292.127c-14.332-8.117-81.865-52.684-58.441-82.791
	C74.652,247.137,121.844,268.349,142.491,292.127z"/>
<path fill="#D69B9F" d="M410.345,116.807c51.501-32.354,128.129,24.445,131.49,87.661c18.438,35.992-33.831,39.885-38.961,68.18
	c-4.401,8.586-10.895,15.079-19.479,19.48c35.518-29.448,2.182-100.686,34.089-136.361
	C503.216,123.617,441.175,101.657,410.345,116.807z M522.354,189.856c14.908,12.099-5.825,29.563,0,48.701
	C555.83,242.914,537.775,176.172,522.354,189.856z"/>
<path fill="#D5537B" d="M410.344,116.806c-1.919,0.082-3.295,0.708-4.512,1.491c-5.939,10.923-15.746,19.993-26.601,25.768
	c-17.005,9.047-35.253,13.215-54.195,15.57c-17.907,2.226-37.82,2.019-54.967-4.026c-22.448-7.915-39.425-22.886-51.775-42.961
	c-7.146-3.749-15.276-6.515-27.103-5.583c-58.693,6.341-83.476,55.473-73.05,116.88c-11.693-6.163,2.689-38.402-9.739-43.831
	c-31.073,49.184,8.09,77.154,34.09,107.142v4.87c12.254,7.256,27.978,11.036,29.208,29.302
	c10.885,11.816,17.987,26.87,22.727,42.712c1.834,0.68,3.964,1.063,6.505,1.037c-2.215,1.265-3.927,2.416-5.223,3.482
	c1.099,4.076,2.058,8.186,2.891,12.293c5.672,4.119,13.047,9.107,12.071,18.315c-4.711,0.811-7.402,1.829-8.69,3.033
	c0.214,1.78,0.42,3.562,0.599,5.345c4.29,5.414,15.793,12.598,12.961,20.843c-5.942,0.551-11.529,1.46-9.741,9.74
	c3.799,1.078,5.663,4.076,4.871,9.738c3.779,1.092,9.607,0.133,9.74,4.871c18.351-3.742,23.278,5.941,38.961,4.869h48.7
	c27.819,3.025,49.575,12.111,82.788,9.74c1.339-10.025,18.144-4.584,19.483-14.609c-0.82-11.021,23.416-21.415,9.739-29.222
	c-9.126,10.248-24.966,10.248-34.092,0c32.517-15.421,43.12-38.268,38.961-68.18c13.284-0.444,9.805,8.111,19.479,0
	c-3.7-19.024-24.817-20.634-24.348-43.831c18.167-33.78,18.604-85.289,38.959-116.881c3.04,18.833-7.912,84.383,9.741,58.441
	c-0.204,16.03-8.226,24.249-4.868,43.83h9.739c0.132-4.737,5.958-3.779,9.739-4.87c35.517-29.448,2.181-100.685,34.088-136.361
	C503.215,123.616,441.174,101.657,410.344,116.806z M327.552,248.296c9.674-0.063,6.193-13.29,19.48-9.739
	c1.37,7.862-4.607,8.382-4.871,14.61c11.731,1.991,10.583-8.891,24.351-4.871c-1.719,6.392-8.573,7.661-9.738,14.611
	c14.882,3.519,17.748-4.977,29.219-4.87c-9.359,24.135-51.864,32.092-77.92,24.351c14.229,34.414,51.054,18.358,73.048,0
	c20.123-6.031-45.154,24.819-14.608,29.219c-19.595,9.728-84.376,29.513-97.401,0h24.351c-18.396-11.096-8.326-33.507-38.96-38.96
	c25.719,3.234,59.563,2.474,97.4-4.87c-31.972-24.845-93.102-20.533-92.53-77.921C282.156,209.278,303.086,230.554,327.552,248.296z
	 M249.632,214.206c-16.449-11.146-19.518-35.675-24.35-58.44C242.054,166.591,239.638,196.603,249.632,214.206z M205.801,326.217
	c-26.588-1.007-30.805-24.388-38.96-43.829c-2.682-10.8,9.302-6.938,9.74-14.611C144.64,144.973,211.516,299.952,205.801,326.217z
	 M196.062,180.115c25.763,19.691,37.945,52.963,68.18,68.181C235.497,250.999,207.361,211.074,196.062,180.115z M293.462,418.75
	c14.438-8.289,40.095-5.354,58.44-9.741C338.903,423.467,315.308,425.407,293.462,418.75z M303.204,389.528
	c18.407-7.564,42.445-9.499,68.178-9.74C353.749,391.646,327.316,397.195,303.204,389.528z M225.282,355.438
	c28.421-37.635,150.108-24.172,175.321-4.87C351.611,359.419,278.579,366.751,225.282,355.438z M381.121,253.167
	c-25.87-12.48,19.165-47.001,24.353-73.052C416.413,203.368,367.882,226.673,381.121,253.167z M473.655,292.128
	c-11.339-10.096,2.465-36.215,4.869-48.701C484.276,258.71,482.045,278.063,473.655,292.128z"/>
<path fill="#D69B9F" d="M195.709,368.66c1.295-1.066,3.007-2.217,5.222-3.481c-2.54,0.027-4.67-0.356-6.504-1.036
	C194.876,365.642,195.302,367.148,195.709,368.66z"/>
<path fill="#D69B9F" d="M201.82,400.855c0.061,0.481,0.104,0.964,0.162,1.446c1.288-1.205,3.979-2.223,8.689-3.033
	c0.976-9.207-6.397-14.195-12.07-18.314C199.961,387.661,201.002,394.354,201.82,400.855z"/>
<path fill="#D69B9F" d="M215.541,428.489c2.832-8.245-8.669-15.428-12.959-20.842c1.304,13.012,1.678,26.11,1.43,39.189
	c1.808,0.788,3.863,1.329,6.659,1.131c0.792-5.662-1.072-8.66-4.871-9.737C204.012,429.949,209.599,429.04,215.541,428.489z"/>
<path fill="#D69B9F" d="M142.491,287.258c-20.699-22.918-74.333-48.935-48.701-87.661c13.588-49.728,36.607-90.015,97.401-92.531
	c-58.694,6.341-83.477,55.473-73.051,116.881c-11.693-6.163,2.689-38.402-9.739-43.831
	C77.329,229.299,116.492,257.27,142.491,287.258z"/>
<path fill="#E1CECB" d="M142.491,292.127c-20.647-23.779-67.839-44.991-58.441-82.791c2.156-4.337,4.274-8.713,9.741-9.739
	c-25.632,38.726,28.002,64.743,48.701,87.661C142.491,288.88,142.491,290.504,142.491,292.127z"/>
<path fill="#BF3333" d="M196.062,180.116c25.764,19.69,37.945,52.962,68.18,68.181C235.497,250.999,207.361,211.074,196.062,180.116
	z"/>
<path fill="#BF3333" d="M405.474,180.116c10.939,23.253-37.592,46.558-24.353,73.052
	C355.251,240.687,400.286,206.166,405.474,180.116z"/>
<path fill="#BF3333" d="M381.121,282.388c20.123-6.031-45.154,24.819-14.608,29.219c-19.596,9.728-84.375,29.513-97.401,0
	c8.118,0,16.234,0,24.351,0c-18.396-11.096-8.326-33.507-38.96-38.96c25.719,3.234,59.563,2.474,97.4-4.87
	c-31.972-24.845-93.102-20.533-92.53-77.921c22.784,19.422,43.714,40.698,68.18,58.44c9.675-0.063,6.193-13.291,19.48-9.739
	c1.37,7.863-4.607,8.383-4.871,14.61c11.73,1.991,10.583-8.891,24.351-4.871c-1.72,6.392-8.573,7.661-9.738,14.611
	c14.882,3.519,17.748-4.978,29.219-4.87c-9.359,24.135-51.864,32.092-77.92,24.351C322.301,316.802,359.126,300.746,381.121,282.388
	z"/>
<path fill="#D69B9F" d="M434.81,419.289c0.121-0.768,0.254-1.534,0.379-2.302c0.742-21.356,3.033-41.163,12.168-54.125
	c0.023-0.091,0.049-0.183,0.072-0.274c0.239-0.951,0.455-1.907,0.644-2.868c0.677-7.875,1.156-15.691,2.38-23.518
	c0.653-4.179,1.783-8.018,3.297-11.568c3.023-12.826,14.758-16.943,19.906-27.638h-9.739c-3.358-19.581,4.664-27.8,4.868-43.83
	c-17.653,25.942-6.701-39.608-9.741-58.441c-20.355,31.592-20.792,83.101-38.959,116.881c-0.469,23.197,20.648,24.807,24.348,43.831
	c-9.674,8.111-6.195-0.444-19.479,0c4.159,29.912-6.444,52.759-38.961,68.18c9.126,10.248,24.966,10.248,34.092,0
	c13.677,7.807-10.559,18.201-9.739,29.222c3.244,0,6.49,0,9.74-0.001c1.021-5.526,7.343-5.753,11.813-7.832
	C432.48,436.475,433.449,427.911,434.81,419.289z"/>
<path fill="#E1CECB" d="M447.357,362.862c-9.137,12.962-11.427,32.77-12.169,54.126c2.324-14.225,5.369-28.38,8.971-42.331
	C445.178,370.714,446.355,366.808,447.357,362.862z"/>
<path fill="#D69B9F" d="M205.801,326.217c-26.588-1.007-30.805-24.388-38.96-43.829c-2.682-10.8,9.302-6.938,9.74-14.611
	C144.64,144.973,211.516,299.952,205.801,326.217z"/>
<path fill="#FFFFFF" d="M150.589,474.279c0.324-2.998,0.599-6.002,0.748-9.015c0.458-9.282,0.806-18.573,0.741-27.869
	c-0.066-9.473-0.438-18.956-1.353-28.388h-8.234v68.182c2.722-1.397,5.275-0.638,7.604,0.71c0.04-0.25,0.085-0.499,0.124-0.749
	C150.302,476.603,150.469,475.259,150.589,474.279z"/>
<path fill="#5F5A5A" d="M230.152,462.58c-5.467-1.027-7.585-5.402-9.741-9.74c-0.133-4.738-5.961-3.779-9.74-4.871
	c-2.796,0.199-4.851-0.343-6.659-1.131c-0.075,3.949-0.193,7.898-0.375,11.841c-0.201,4.332-0.527,8.628-0.952,12.896
	c4.048,0.485,7.645,1.423,7.987,5.614h14.611c-0.077-8.039-13.507-2.727-14.611-9.74
	C217.958,466.619,228.642,469.187,230.152,462.58z"/>
<path fill="#563233" d="M405.474,613.551c-13.607-25.668,1.394-52.334-14.612-77.92c-17.708,33.984,10.609,105.896-19.479,136.361
	c-0.792,5.664,1.072,8.662,4.87,9.74c-0.216-8.334,3.623-12.611,9.74-14.607c2.047-10.939,25.843-0.135,29.221-9.744
	c4.357-57.113-9.422-108.827,12.441-145.907C390.802,516.042,423.575,590.235,405.474,613.551z"/>
<path fill="#563233" d="M433.514,497.884c-3.383-6.368-12.199-7.302-13.43-15.824c-10.287-4.325-14.394-14.825-29.224-14.61
	c-33.213,2.371-54.969-6.715-82.788-9.74c-5.442,13.318-35.099,5.861-48.7,0c-15.683,1.072-20.609-8.611-38.961-4.869
	c2.156,4.338,4.275,8.713,9.74,9.74c-1.509,6.607-12.194,4.039-19.48,4.869c1.104,7.013,14.534,1.701,14.611,9.74
	c22.099,2.25,39.942,8.758,63.311,9.739c21.184-0.073,43.817-1.61,58.44,4.871c1.007,13.994-1.237,24.744-9.739,29.219v19.48
	c7.854,6.754,25.103,4.117,29.219,14.611v112.014h4.869c9.126-37.957,3.217-90.949,4.87-136.365
	c-13.746,0.496-20.685,18.354-34.09,4.871c12.22-13.748,20.59-31.356,29.22-48.701c-8.567-6.11-29.209,4.771-38.961-9.739
	c18.519-15.826,49.666,10.959,68.185-4.869c8.721,13.016,23.854,19.625,28.625,36.592c1.48-2.289,3.114-4.517,4.9-6.686
	C433.915,500.778,433.705,499.33,433.514,497.884z"/>
<path fill="#D69B9F" d="M433.515,497.886c-1.151-8.735-1.848-17.447-2.117-26.162c-0.476,0.248-0.989,0.459-1.576,0.597
	c-5.463,1.025-7.582,5.402-9.738,9.738C421.313,490.582,430.132,491.515,433.515,497.886z"/>
<path fill="#D69B9F" d="M455.219,597.228c-2.973-13.213-5.755-26.469-8.743-39.679c-2.636-11.65-5.863-23.182-8.5-34.831
	c-3.893,8.339-11.298,16.323-13.023,22.652c33.074,12.377,18.923,71.984,29.219,107.143c-2.985,6.746-18.743,0.734-19.479,9.738
	h14.609c3.204-6.539,10.413-9.066,19.481-9.738c-0.186-2.224-0.393-4.426-0.587-6.641C463.11,629.92,458.924,613.7,455.219,597.228z
	"/>
<path fill="#D69B9F" d="M201.251,483.323c-0.358,2.481-0.758,4.952-1.178,7.418C201.358,489.161,201.269,486.206,201.251,483.323z"
	/>
<path fill="#D69B9F" d="M202.027,477.5c1.016-1.969,3.339-2.631,8.644-0.311c-0.342-4.19-3.939-5.129-7.986-5.614
	C202.487,473.556,202.269,475.531,202.027,477.5z"/>
<path fill="#D69B9F" d="M189.123,667.071c-42.31-25.319,17.109-133.505,31.289-160.664c-5.971-4.67-15.524-5.757-21.22-10.702
	c-3.646,19.495-9.054,38.588-14.926,57.827c-1.832,6.003-3.846,11.938-5.941,17.845c-1.1,14.904-4.505,29.631-8.913,44.288
	c-3.33,11.071-6.965,22.08-9.66,33.329c-0.712,2.972-1.388,5.954-1.954,8.958c5.962,4.938,15.867,5.935,23.002,9.701
	C183.572,667.439,186.346,667.247,189.123,667.071z"/>
<path fill="#E1CECB" d="M180.798,667.653c-7.135-3.767-17.04-4.762-23.001-9.701c-0.04,0.213-0.09,0.424-0.129,0.637
	c-0.068,0.374-0.166,1.031-0.271,1.782c3.851,2.699,7.174,5.927,11.312,8.339C172.735,668.317,176.765,667.964,180.798,667.653z"/>
<path fill="#E1CECB" d="M468.196,645.871c0.193,2.216,0.401,4.419,0.587,6.643c-9.068,0.672-16.277,3.199-19.481,9.738
	c10.723,0.664,14.287-5.832,21.395-8.785C469.84,650.942,469.006,648.41,468.196,645.871z"/>
<path fill="#5F5A5A" d="M385.992,667.125c2.047-10.939,25.843-0.135,29.221-9.744c0,1.623,0,3.25,0,4.871
	c-15.39,2.467-7.896,27.818-19.48,34.09c0-9.74,0-19.479,0-29.217C392.487,667.125,389.238,667.125,385.992,667.125z"/>
<path fill="#9BA7A4" d="M381.121,706.084c-8.039,0.074-2.728,13.506-9.739,14.609c-8.643-9.222-3.553-32.162-4.869-48.701
	c-1.622,0-3.249,0-4.869,0c0-1.623,0-3.248,0-4.867c1.62,0,3.247,0,4.869,0s3.246,0,4.869,0c0,1.619,0,3.244,0,4.867
	c-0.792,5.664,1.072,8.662,4.87,9.74c-0.216-8.334,3.623-12.611,9.74-14.607c3.246,0,6.495,0,9.739,0c0,9.736,0,19.477,0,29.217
	c0,4.871,0,9.742,0,14.611c5.708-0.789,4.11-8.879,4.872-14.611c1.622,0,3.244,0,4.869,0c0,14.611,0,29.221,0,43.83
	c-20.496,7.512-0.772-25.199-14.612-24.348c0-14.611,0-29.224,0-43.832c-17.597-4.615-6.79,19.182-9.739,29.221
	C381.121,702.836,381.121,704.459,381.121,706.084z"/>
<path fill="#828886" d="M431.898,445.007c-4.47,2.079-10.793,2.306-11.814,7.833c14.646-4.911,8.629,10.847,9.737,19.48
	c0.587-0.138,1.101-0.349,1.576-0.598C431.122,462.833,431.29,453.937,431.898,445.007z"/>
<path fill="#5F5A5A" d="M429.821,472.32c-5.463,1.024-7.582,5.401-9.737,9.739c-10.287-4.325-14.394-14.825-29.224-14.61
	c1.34-10.025,18.145-4.584,19.483-14.609c3.244,0,6.49,0,9.739,0C434.73,447.93,428.713,463.688,429.821,472.32z"/>
<path fill="#D5537B" d="M259.373,589.2c26.106-11.23,77.153,2.486,102.271-9.738h4.869V555.11
	c-4.117-10.494-21.364-7.857-29.219-14.611v-19.48h-19.481c0.734-9.006,16.491-2.991,19.481-9.737
	c-12.082-12.272-33.908-14.788-48.701-24.353c-23.369-0.981-41.212-7.489-63.311-9.739c-4.871,0-9.74,0-14.61-0.002
	c-5.307-2.32-7.63-1.658-8.645,0.313c-0.238,1.944-0.496,3.884-0.775,5.817c0.018,2.886,0.108,5.843-1.179,7.424
	c-0.282,1.656-0.573,3.311-0.881,4.961c5.697,4.945,15.25,6.034,21.221,10.704c-14.178,27.156-73.599,135.331-31.317,160.667
	c6.93-0.439,13.87-0.776,20.824-0.988c13.68-0.417,27.415-0.157,41.124-0.235c14.275-10.582,80.174-6.181,110.601-13.338
	c-0.909-7.217-11.771-4.465-19.48-4.871c-3.482-13.229,22.961,3.487,19.48-9.739c4.61-17.605-19.184-6.793-29.223-9.74
	c13.052-8.054,32.302-9.905,34.092-29.222v-4.87c-33.481-7.306-76.589,4.237-121.75,0
	C229.295,589.987,253.405,587.645,259.373,589.2z M293.462,628.162c-57.54,10.982,3.349-3.889-43.831,0
	C201.964,608.478,313.31,624.369,293.462,628.162z"/>
<path fill="#D5537B" d="M424.953,545.371c1.726-6.329,9.13-14.313,13.022-22.651c-0.401-1.776-0.792-3.555-1.162-5.337
	c-1.053-5.065-1.934-10.115-2.683-15.156c-30.848,37.46-14.185,93.123-18.918,155.154c0,1.623,0,3.25,0.001,4.871h19.479
	c0.735-9.004,16.494-2.992,19.479-9.738C443.876,617.355,458.027,557.748,424.953,545.371z"/>
<path fill="#828886" d="M395.731,696.342c11.585-6.271,4.092-31.623,19.48-34.09c3.249,0,6.493,0,9.74,0
	c-0.132,4.738-5.961,3.779-9.74,4.873c-8.066,4.918-5.289,20.682-9.739,29.217c-1.625,0-3.247,0-4.869,0
	c-0.762,5.732,0.836,13.822-4.872,14.611C395.731,706.084,395.731,701.213,395.731,696.342z"/>
<path fill="#EBE8E9" d="M381.121,701.213c2.949-10.039-7.856-33.836,9.739-29.221c0,14.608,0,29.221,0,43.832
	C383.85,714.719,389.164,701.289,381.121,701.213z"/>
<path fill="#232223" d="M371.382,667.125c9.126-37.957,3.217-90.949,4.87-136.365c-13.746,0.496-20.685,18.354-34.09,4.871
	c12.22-13.748,20.59-31.356,29.22-48.701c-8.567-6.11-29.209,4.771-38.961-9.739c18.519-15.826,49.666,10.959,68.185-4.869
	c9.117,13.606,25.248,20.203,29.217,38.961c-40.292,1.914-5.902,78.512-24.349,102.27c-13.607-25.668,1.394-52.334-14.612-77.92
	c-17.708,33.984,10.609,105.896-19.479,136.361C371.382,670.369,371.382,668.744,371.382,667.125z"/>
</svg>
