<?xml version="1.0" encoding="utf-8"?>
<!-- Generator: Adobe Illustrator 15.0.0, SVG Export Plug-In . SVG Version: 6.00 Build 0)  -->
<!DOCTYPE svg PUBLIC "-//W3C//DTD SVG 1.1//EN" "http://www.w3.org/Graphics/SVG/1.1/DTD/svg11.dtd">
<svg version="1.1" id="Capa_1" xmlns="http://www.w3.org/2000/svg" xmlns:xlink="http://www.w3.org/1999/xlink" x="0px" y="0px"
	 width="612px" height="792px" viewBox="0 0 612 792" enable-background="new 0 0 612 792" xml:space="preserve">
<path fill="#FDFDFD" d="M582.868,573.292c1.802,3.357,3.648,6.689,5.546,9.992c-0.938-2.371-1.583-5.497-0.695-10.27
	C586.21,573.215,584.524,573.239,582.868,573.292z"/>
<path fill="#FFFFFF" d="M52.571,582.5c-0.72-0.197-1.456-0.38-2.224-0.529v6.324C51.081,586.36,51.827,584.43,52.571,582.5z"/>
<path fill="#EBE8E9" d="M547.554,616.454c-5.295,4.153-12.115,6.783-18.049,10.298c-43.877,17.528-88.431,46.118-156.731,31.348
	H350.38c-16.512,10.356-52.173,1.563-76.127,4.479c-15.078-2.834-41.597,5.771-49.259-4.479c-15.16-1.086-54.344,4.361-31.347-8.957
	h-13.434c-40.28,2.91-90.6-7.848-80.606-40.303v-4.455c-3.17,8.441-6.223,16.927-9.104,25.474c0.049,0.458,0.087,0.904,0.147,1.372
	c50.577,33.592,218.389,51.771,331.379,40.303c35.437-3.597,104.784-24.556,130.024-47.982
	C550.527,621.206,549.027,618.841,547.554,616.454z"/>
<path fill="#EBE8E9" d="M482.287,422.744c-0.764,0.749-1.458,1.567-2.044,2.494c0.931,0.175,1.755,0.456,2.495,0.822
	C482.587,424.955,482.433,423.851,482.287,422.744z"/>
<path fill="#9BA7A4" d="M414.574,140.481c-6.212,0.704-12.438,1.02-18.679,1.177c-0.248,0.483-0.492,0.971-0.735,1.459
	c13.797-3.348,5.459,15.44,22.391,8.956c-1.525-5.454-1.014-8.872,0.806-10.982C417.093,140.903,415.834,140.691,414.574,140.481z"
	/>
<path fill="#5F5A5A" d="M475.768,152.074c4.175,4.781,16.519,1.394,13.435,13.434c-12.629-13.038-5.586,13.399-22.392,8.956
	c0-5.971,0-11.941,0-17.912C470.285,155.549,475.645,156.429,475.768,152.074z"/>
<path fill="#5F5A5A" d="M481.228,253.467c-5.968-2.803-10.891-6.667-9.938,6.082c0.289,9.236,5.262,4.489,9.094,1.675
	C480.654,258.638,480.934,256.052,481.228,253.467z"/>
<path fill="#5F5A5A" d="M545.304,612.796c-7.917,4.986-20.315,5.491-24.754,13.956h8.955c5.935-3.515,12.754-6.144,18.049-10.297
	C546.802,615.237,546.042,614.024,545.304,612.796z"/>
<path fill="#5F5A5A" d="M163.165,425.238c-2.966,12.149-6.251,24.227-9.832,36.18c5.769-10.772,14.462-18.621,13.445-36.18H163.165z
	"/>
<path fill="#5F5A5A" d="M175.318,361.786c2.212-6.873,3.048-13.838,1.933-19.938C176.775,348.5,176.135,355.144,175.318,361.786z"/>
<path fill="#5F5A5A" d="M278.73,165.508c0.338,18.25-16.962,18.863-31.347,22.391c0-4.478,0-8.957,0-13.435
	c14.017-2.309,19.988,12.245,17.912-8.956C269.774,165.508,274.252,165.508,278.73,165.508z"/>
<path fill="#5F5A5A" d="M368.291,165.508c2.986,0,5.973,0,8.957,0c-0.822,3.808,1.75,4.221,4.479,4.478c0,2.985,0,5.971,0,8.956
	c-3.807-0.822-4.221,1.749-4.479,4.479c-2.984,0-5.971,0-8.957,0c0.822-3.808-1.748-4.222-4.477-4.479c0-2.985,0-5.971,0-8.956
	C367.621,170.808,368.035,168.236,368.291,165.508z"/>
<path fill="#5F5A5A" d="M202.603,169.986c15.72,3.534,5.172,15.662,0,22.391c-7.877-1.079-10.204-7.708-8.956-17.913
	C198.854,175.193,201.611,173.473,202.603,169.986z"/>
<path fill="#5F5A5A" d="M368.291,196.854c-1.078,7.877-7.707,10.204-17.912,8.956c0-4.478,0-8.956,0-13.434
	C359.738,190.481,362.24,195.443,368.291,196.854z"/>
<path fill="#828886" d="M408.596,214.767c-9.358,1.895-11.858-3.067-17.912-4.479C394.1,196.563,411.908,191.887,408.596,214.767z"
	/>
<path fill="#828886" d="M368.291,250.591c-9.131,8.991-8.779-1.982-17.912-4.478C351.184,233.123,371.662,235.321,368.291,250.591z"
	/>
<path fill="#232223" d="M516.298,554.241c-0.018,3.214-0.186,6.577-0.229,9.816c-20.215-0.811-11.948,26.863-31.347,26.869
	c-5.33-29.213,15.109-32.657,17.912-53.737c3.036-0.492,5.408-0.32,7.261,0.369c-3.234-8.902-6.22-17.861-8.935-26.829
	c-7.67-25.339-13.295-51.289-17.204-77.521c-7.991-1.807-14.404-5.189-16.944-12.448c2.489-5.083,7.619-7.525,14.183-8.535
	c-3.012-26.301-4.401-52.795-4.487-79.157c-0.078-24.045,1.379-47.98,3.875-71.843c-3.832,2.814-8.804,7.559-9.093-1.676
	c-0.952-12.748,3.97-8.885,9.938-6.082c0.721-6.322,1.509-12.64,2.359-18.953c0.878-6.513,1.946-12.928,3.215-19.291
	c-3.117-2.205-6.001-4.645-6.557-9.412c0.822-4.913,5.366-4.438,9.242-2.645c1.11-4.5,2.326-8.986,3.691-13.472
	c0.166-0.545,0.335-1.089,0.502-1.634v-0.162c3.695-12.654-6.311-11.604-4.479-22.391c-12.629-13.038-5.586,13.399-22.392,8.956
	v-17.912c3.476-1.003,8.834-0.123,8.957-4.478c-0.991-3.487-3.75-5.207-8.957-4.478c-3.336-1.188-8.067-2.5-13.298-3.492
	c-6.9-0.247-13.792-0.646-20.647-1.281c-7.262,0.809-13.238,3.447-15.314,9.251c-16.932,6.484-8.594-12.304-22.391-8.956
	c-15.393-1.96-25.095,1.772-35.824,4.478c-38.088,17.114-68.139-12.408-107.474-8.956c-8.63,1.819-3.534,17.364-17.913,13.434
	c-6.367-25.417-44.792-3.691-62.693,0c-9.201,1.247-8.933,11.965-13.432,17.91c0.345,2.223,0.381,4.136,0.212,5.845
	c2.866,9.973,6.243,19.805,8.681,29.895c3.421,14.157,4.833,28.802,6.608,43.237c1.59,12.931,3.014,25.89,3.945,38.887
	c1.299,18.131,1.262,36.089-0.019,53.991c1.118,6.104,0.28,13.078-1.935,19.957c-0.909,7.384-2.038,14.765-3.359,22.152
	c0.16,15.647-7.36,23.618-5.177,41.291c1.017,17.563-7.681,25.411-13.45,36.188c-1.627,5.433-3.294,10.848-5.042,16.222
	c-6.772,20.829-14.662,41.246-22.802,61.57c-2.591,6.853-5.268,13.618-7.965,20.364c2.549,16.608-5.561,22.561-12.222,29.96
	c-1.929,4.935-3.828,9.879-5.69,14.837v17.896c19.16,16.666,56.501,15.149,80.606,26.868h13.434
	c22.921-3.515,32.53,6.282,53.737,4.479h17.912c19.511-7.451,70.052-7.451,89.563,0c6.698,0.764,16.524-1.597,17.914,4.479
	c62.004,2.298,97.151-22.268,147.776-31.348c4.439-8.465,16.838-8.97,24.754-13.955C534.13,594.219,524.503,574.478,516.298,554.241
	z M135.431,617.797c-9.13,8.99-8.781-1.982-17.912-4.479C118.324,600.326,138.802,602.525,135.431,617.797z M175.734,452.107
	c1.586-5.879,7.883-7.045,8.956-13.437C203.395,441.669,186.772,466.472,175.734,452.107z M202.602,192.377
	c-7.877-1.079-10.204-7.708-8.956-17.913c5.208,0.729,7.965-0.991,8.956-4.478C218.322,173.52,207.774,185.648,202.602,192.377z
	 M229.471,523.756c-9.358,1.895-11.86-3.066-17.912-4.479c1.079-7.877,7.709-10.203,17.912-8.955V523.756z M269.775,586.45
	c-9.132,8.992-8.782-1.983-17.913-4.479C252.667,568.98,273.145,571.178,269.775,586.45z M247.384,187.899v-13.435
	c14.017-2.309,19.988,12.245,17.912-8.956h13.435C279.069,183.759,261.769,184.371,247.384,187.899z M350.379,192.376
	c9.359-1.895,11.861,3.067,17.912,4.478c-1.078,7.877-7.707,10.204-17.912,8.956V192.376z M368.291,250.592
	c-9.131,8.991-8.779-1.983-17.912-4.478C351.184,233.123,371.662,235.321,368.291,250.592z M381.727,178.942
	c-3.807-0.821-4.221,1.75-4.479,4.479h-8.957c0.822-3.808-1.748-4.222-4.477-4.479v-8.956c3.807,0.822,4.221-1.75,4.477-4.478h8.957
	c-0.822,3.808,1.75,4.221,4.479,4.478V178.942z M390.684,210.289c3.416-13.726,21.225-18.402,17.912,4.479
	C399.237,216.662,396.737,211.7,390.684,210.289z M417.55,559.582c-7.877-1.08-10.203-7.709-8.955-17.914h13.435
	C423.926,551.027,418.961,553.529,417.55,559.582z M422.029,290.895c7.066-7.137,20.561,2.168,22.391,13.434
	C436.619,300.189,420.384,304.481,422.029,290.895z M448.898,187.899h-13.437c-1.894-9.359,3.069-11.86,4.479-17.913
	C447.82,171.065,450.146,177.694,448.898,187.899z M462.332,519.277c7.877,1.08,10.205,7.709,8.957,17.912h-13.434
	C455.959,527.832,460.92,525.33,462.332,519.277z M475.768,626.752h-13.436v-13.434h13.436V626.752z"/>
<path fill="#5F5A5A" d="M444.42,304.329c-7.801-4.14-24.035,0.152-22.391-13.434C429.096,283.758,442.59,293.063,444.42,304.329z"/>
<path fill="#9BA7A4" d="M482.738,426.06c-0.739-0.366-1.563-0.646-2.494-0.821c0.586-0.926,1.279-1.744,2.043-2.493
	c-0.461-3.503-0.89-7.011-1.292-10.521c-6.564,1.009-11.695,3.451-14.186,8.535c2.541,7.258,8.955,10.643,16.947,12.449
	C483.402,430.827,483.064,428.444,482.738,426.06z"/>
<path fill="#5F5A5A" d="M184.69,438.672c18.705,2.998,2.082,27.801-8.956,13.437C177.32,446.229,183.617,445.063,184.69,438.672z"/>
<path fill="#5F5A5A" d="M229.471,510.322c0,4.479,0,8.955,0,13.434c-9.358,1.896-11.86-3.065-17.912-4.479
	C212.638,511.4,219.268,509.074,229.471,510.322z"/>
<path fill="#5F5A5A" d="M462.332,519.277c7.877,1.08,10.205,7.709,8.957,17.912c-4.479,0-8.957,0-13.434,0
	C455.959,527.832,460.92,525.33,462.332,519.277z"/>
<path fill="#5F5A5A" d="M509.896,537.56c-1.854-0.69-4.227-0.861-7.263-0.369c-2.803,21.079-23.242,24.524-17.912,53.737
	c19.399-0.006,11.131-27.68,31.347-26.869c0.043-3.239,0.211-6.604,0.229-9.818C514.057,548.712,511.927,543.148,509.896,537.56z"/>
<path fill="#5F5A5A" d="M417.551,559.582c-7.877-1.08-10.203-7.709-8.955-17.914c4.478,0,8.955,0,13.435,0
	C423.926,551.027,418.961,553.529,417.551,559.582z"/>
<path fill="#828886" d="M269.774,586.449c-9.131,8.992-8.781-1.982-17.913-4.479C252.667,568.98,273.145,571.178,269.774,586.449z"
	/>
<path fill="#5F5A5A" d="M135.431,617.797c-9.13,8.99-8.781-1.981-17.912-4.479C118.324,600.326,138.802,602.525,135.431,617.797z"/>
<path fill="#5F5A5A" d="M475.768,613.318c0,4.479,0,8.955,0,13.434c-4.479,0-8.957,0-13.436,0c0-4.479,0-8.955,0-13.434
	C466.811,613.318,471.289,613.318,475.768,613.318z"/>
<path fill="#5F5A5A" d="M171.256,152.074c6.391-14.507,23.277-18.519,44.781-17.913c10.706,2.729,32.489-5.621,35.825,4.479
	c-8.629,1.819-3.534,17.364-17.913,13.434C227.582,126.657,189.157,148.382,171.256,152.074z"/>
<path fill="#828886" d="M305.584,141.503c-0.362,0-0.723-0.003-1.084-0.003c-5.761-0.004-11.134-1.958-15.482-5.227
	c-3.37-1.083-6.755-2.149-10.202-3.153c-20.894-0.158-41.775-0.555-62.604-1.713c-0.344,0.632-0.442,1.51-0.174,2.755
	c10.706,2.729,32.49-5.621,35.825,4.479c39.335-3.452,69.386,26.07,107.474,8.956C337.543,149.441,320.985,146.051,305.584,141.503z
	"/>
<path fill="#5F5A5A" d="M453.514,144.104c5.23,0.992,9.962,2.304,13.297,3.492c-0.38-1.162-0.854-2.228-1.427-3.197
	C461.428,144.34,457.47,144.245,453.514,144.104z"/>
<path fill="#5F5A5A" d="M418.355,141.092c-1.818,2.11-2.33,5.528-0.805,10.982c2.076-5.804,8.053-8.442,15.314-9.251
	C428.008,142.374,423.167,141.813,418.355,141.092z"/>
<path fill="#5F5A5A" d="M448.898,187.898c-4.479,0-8.957,0-13.437,0c-1.895-9.358,3.068-11.86,4.479-17.913
	C447.82,171.065,450.146,177.694,448.898,187.898z"/>
<path fill="#828886" d="M156.685,170.966c0.431,1.625,0.885,3.243,1.35,4.859c0.168-1.707,0.131-3.619-0.213-5.839
	c-0.488-0.07-0.954-0.098-1.402-0.087C156.511,170.254,156.591,170.611,156.685,170.966z"/>
<path fill="#5F5A5A" d="M486.802,215.223c0.806-4.037,1.698-8.053,2.686-12.056c-3.876-1.794-8.421-2.27-9.243,2.644
	C480.8,210.579,483.685,213.018,486.802,215.223z"/>
<path fill="#828886" d="M171.955,383.958c-0.138,0.772-0.268,1.544-0.41,2.317c-2.404,13.018-5.222,26.027-8.381,38.964h3.614
	C164.596,407.569,172.111,399.599,171.955,383.958z"/>
<path fill="#5F5A5A" d="M117.262,559.606c-4.03,9.961-8.051,19.926-11.961,29.93c6.661-7.397,14.766-13.351,12.217-29.954
	C117.43,559.587,117.35,559.6,117.262,559.606z"/>
<path fill="#5F5A5A" d="M180.212,649.143c-40.28,2.91-90.6-7.848-80.606-40.303c0,4.479,0,8.957,0,13.435
	C118.767,638.939,156.107,637.424,180.212,649.143z"/>
<path fill="#828886" d="M529.504,626.752c-43.877,17.527-88.432,46.117-156.731,31.348c62.004,2.298,97.151-22.268,147.776-31.348
	C523.533,626.752,526.52,626.752,529.504,626.752z"/>
<path fill="#828886" d="M224.993,658.1c-15.16-1.086-54.344,4.361-31.347-8.957c22.921-3.516,32.53,6.281,53.737,4.479
	c0,1.492,0,2.986,0,4.479C239.92,658.1,232.457,658.1,224.993,658.1z"/>
<path fill="#B3BBB5" d="M493.68,187.899c0.014,0.011,0.025,0.027,0.039,0.039c1.279-4.175,2.576-8.345,3.852-12.521
	c-2.262-4.714-5.063-8.233-8.369-9.909C487.369,176.295,497.375,175.245,493.68,187.899z"/>
<path fill="#5F5A5A" d="M265.296,653.621c19.51-7.451,70.052-7.451,89.563,0C325.004,653.621,295.15,653.621,265.296,653.621z"/>
</svg>
