<?xml version="1.0" encoding="utf-8"?>
<!-- Generator: Adobe Illustrator 15.0.0, SVG Export Plug-In . SVG Version: 6.00 Build 0)  -->
<!DOCTYPE svg PUBLIC "-//W3C//DTD SVG 1.1//EN" "http://www.w3.org/Graphics/SVG/1.1/DTD/svg11.dtd">
<svg version="1.1" id="Capa_1" xmlns="http://www.w3.org/2000/svg" xmlns:xlink="http://www.w3.org/1999/xlink" x="0px" y="0px"
	 width="612px" height="792px" viewBox="0 0 612 792" enable-background="new 0 0 612 792" xml:space="preserve">
<path fill="#FDFDFD" d="M558.924-132.467c12.854-3.371,4.96,14.007,7.112,21.337C553.182-107.759,561.077-125.137,558.924-132.467z"
	/>
<path fill="#FDFDFD" d="M550.092-39.846c12.854-3.371,4.959,14.007,7.112,21.337C544.35-15.143,552.244-32.516,550.092-39.846z"/>
<path fill="#FFFFFF" d="M317.43,115.254c5.302-14.873,25.855,12.183,7.111,10.668C324.698,119.838,321.896,116.713,317.43,115.254z"
	/>
<path fill="#5F5A5A" d="M281.867,165.041c9.65,2.204,28.223-4.515,32.006,3.556c0,2.371,0,4.742,0,7.112
	C307.313,168.045,281.719,179.413,281.867,165.041z"/>
<path fill="#9BA7A4" d="M449.007,207.714c5.741-1,6.121,3.362,10.668,3.557c-2.083,7.399-7.473,11.493-10.668,17.781
	C441.089,227.556,446.224,210.183,449.007,207.714z"/>
<path fill="#828886" d="M153.845,214.827c11.521,5.074,15.947,17.239,14.225,35.562
	C158.962,242.901,154.531,230.737,153.845,214.827z"/>
<path fill="#828886" d="M402.777,232.608c-4.596,9.631-6.475,21.971-17.781,24.893C380.078,249.99,390.673,234.224,402.777,232.608z
	"/>
<path fill="#B3BBB5" d="M420.558,339.293c-7.981-27.093,9.678-49.342,17.781-71.124
	C451.942,284.797,433.255,325.767,420.558,339.293z"/>
<path fill="#B3BBB5" d="M507.763,285.949c0.34-5.918,0.651-11.849,0.74-17.78h-2.598v39.118h0.828
	C506.967,300.188,507.352,293.089,507.763,285.949z"/>
<path fill="#9BA7A4" d="M507.294,340.689c-0.188-2.746-0.359-5.492-0.491-8.242c-0.403-8.43-0.344-16.795-0.069-25.161h-0.828
	C507.89,316.898,502.753,333.633,507.294,340.689z"/>
<path fill="#828886" d="M434.781,335.737c-1.745,15.97,1.807,26.647,3.558,39.118c-2.769-0.788-4.136-2.978-3.558-7.113
	c-8.945,2.908-4.958,18.75-10.668,24.894C411.723,371.844,429.753,350.938,434.781,335.737z"/>
<path fill="#5F5A5A" d="M178.738,360.629c-11.271,12.438-2.333,45.082-21.337,49.787c7.372-19.893,8.835-45.693,10.669-71.123
	c12.641-5.53,2.148,12.076,10.668,10.668C178.738,353.517,178.738,357.073,178.738,360.629z"/>
<path fill="#B3BBB5" d="M338.767,360.629c12.048,9.293,3.111,24.777,7.111,46.23C324.624,405.309,339.923,374.517,338.767,360.629z"
	/>
<path fill="#FDFDFD" d="M64.941,375.463v10.06c6.855,3.152,9.469-7.678,7.854-15.217C70.248,372.124,67.625,373.839,64.941,375.463z
	"/>
<path fill="#9BA7A4" d="M256.975,371.297c15.826-0.541,2.125,14.42,0,17.781C246.551,386.065,259.1,377.627,256.975,371.297z"/>
<path fill="#FFFFFF" d="M23.779,392.833v29.623c9.324-7.628,7.429-17.435,1.211-29.685
	C24.586,392.803,24.183,392.824,23.779,392.833z"/>
<path fill="#B3BBB5" d="M200.076,413.973c13.521-2.852,4.519,16.813,7.112,24.894C195.361,439.584,193.195,421.27,200.076,413.973z"
	/>
<path fill="#5F5A5A" d="M164.514,417.529c0.815,12.668-5.112,18.594-17.781,17.778C148.761,425.484,150.502,415.365,164.514,417.529
	z"/>
<path fill="#B3BBB5" d="M342.321,485.096c-6.271,3.213-11.011,7.955-14.226,14.226c-12.064-25.183,10.184-46.66,7.113-74.681
	c24.355,8.007,16.466,38.67,7.111,56.898C342.321,482.725,342.321,483.91,342.321,485.096z"/>
<path fill="#563233" d="M292.536,428.197c5.687,9.729,7.321,23.5,7.113,39.117C293.962,457.586,292.327,443.814,292.536,428.197z"/>
<path fill="#B3BBB5" d="M384.996,431.754c18.299,8.273,7.033,27.861,0,39.117C375.226,462.744,381.069,444.729,384.996,431.754z"/>
<path fill="#5F5A5A" d="M153.845,442.422c11.947-3.652,5.538,11.063,7.112,17.781c-8.566,1.453-7.732-6.496-17.78-3.557
	C144.612,449.785,159.462,456.336,153.845,442.422z"/>
<path fill="#B3BBB5" d="M338.767,506.432c14.543-7.979,17.546-27.498,24.894-42.674c1.917,28.861,6.449,42.416,0,78.236
	c-15.067-5.084-30.187-10.117-42.674-17.781c-0.94-11.609,13.799-7.539,14.225-17.781
	C336.396,506.432,337.581,506.432,338.767,506.432z"/>
<path fill="#FFFFFF" d="M23.779,472.24c6.168,5.688,7.701,16.008,7.113,28.449c-2.371,0-4.741,0-7.113,0
	C23.779,491.207,23.779,481.725,23.779,472.24z"/>
<path fill="#B3BBB5" d="M388.552,488.652c8.405,11.069,2.908,17.539,7.112,28.448c-5.741,1-6.121-3.362-10.668-3.557
	c0.62,12.418,8.182,17.896,17.781,21.338c0.583,11.25-9.451,11.885-7.113,24.894C365.706,554.15,381.228,507.617,388.552,488.652z"
	/>
<path fill="#FFFFFF" d="M449.007,538.438c6.658,4.017,17.132,4.205,14.226,17.781C453.786,554.992,451.229,546.885,449.007,538.438z
	"/>
<path fill="#828886" d="M317.43,541.994c18.159-1.562,11.771,21.42,28.448,21.336c-3.936,25.703-6.413,52.857-14.225,74.68
	C309.835,619.887,308.164,571.906,317.43,541.994z"/>
<path fill="#828886" d="M296.092,545.551c0.662,23.228-1.102,74.73-21.337,88.902c-0.676-4.037-3.565-1.971-3.556,0
	c-10.613-0.055,5.02-26.353-10.668-21.336C271.829,590.035,281.756,565.59,296.092,545.551z"/>
<path fill="#E1CECB" d="M445.451,570.443c4.144,0.598,3.86,5.621,3.556,10.668c0,13.039,0,26.08,0,39.119
	C440.813,610.645,447.747,585.932,445.451,570.443z"/>
<path fill="#9BA7A4" d="M367.216,588.225c21.605-3.823,22.91,12.65,21.336,32.006c-7.437,2.048-10.147,8.816-21.336,7.111
	C367.216,614.303,367.216,601.264,367.216,588.225z"/>
<path fill="#232223" d="M352.99,606.006c4.913,1.736,8.632,32.057-3.557,28.447C351.583,625.939,354.546,618.23,352.99,606.006z"/>
<path fill="#EBE8E9" d="M168.07,463.758c-1.94,33.658-20.628,100.244-32.006,124.467c0-4.741,0-9.481,0-14.225
	c6.363-17.346,13.331-34.084,14.225-56.898c5.83-5.043,16.887-23.143,7.112-32.006c0-2.371,0-4.742,0-7.112
	C164.708,476.992,164.496,468.486,168.07,463.758z"/>
<path fill="#EBE8E9" d="M235.228,651.323c8.719-1.651,17.596-2.103,26.539-1.996c-23.127-3.58-44.261-9.152-68.804-11.317
	c-10.312-3.912-24.051-4.397-24.893-17.778c8.946-88.472,44.285-140.151,17.781-231.152
	c17.809,98.229-16.039,144.409-21.336,234.707C180.384,638.648,206.432,646.559,235.228,651.323z"/>
<path fill="#EBE8E9" d="M449.007,581.112v39.118c-0.851,5.074-5.852,5.996-7.112,10.669h-28.448
	c-21.082,1.574-37.003,9.716-52.72,16.738c2.962-0.325,5.922-0.673,8.88-1.041c23.234-9.651,57.644-8.127,82.958-15.698
	C450.266,615.411,457.203,590.698,449.007,581.112z"/>
<path fill="#EBE8E9" d="M427.67,470.871c5.621,15.717,3.787,38.887,10.669,53.342c-3.862-0.879-2.413-7.07-7.113-7.111
	C427.17,503.396,419.761,486.23,427.67,470.871z"/>
<path fill="#EBE8E9" d="M449.007,431.754c4.825,1.103,2.949,8.904,3.558,14.223c-14.634,4.07-2.438,20.453,3.556,24.896
	c0,2.371,0,4.74,0,7.111c-8.604-4.439-11.502-14.576-14.226-24.894C443.941,445.654,450.71,442.939,449.007,431.754z"/>
<path fill="#EBE8E9" d="M505.905,602.449c14.919-9.976,50.212,0.426,49.787-24.894c0.795-2.76,0.097-7.016,3.556-7.112
	C564.258,603.902,533.827,601.916,505.905,602.449z"/>
<path fill="#EBE8E9" d="M251.903,134.003c0.892-1.162,1.739-2.369,2.537-3.624c-1.071,0.411-2.004,0.96-2.752,1.694
	C251.774,132.716,251.846,133.359,251.903,134.003z"/>
<path fill="#EBE8E9" d="M256.974,125.923c-0.774,1.556-1.628,3.031-2.534,4.456c5.968-2.288,16.307-0.208,23.871-0.9
	C289.183,123.978,262.887,126.349,256.974,125.923z"/>
<path fill="#EBE8E9" d="M370.615,145.407c-0.461-0.951-0.892-1.897-1.302-2.841c-2.109-1.846-4.194-3.718-6.198-5.681
	c-0.324-0.317-0.637-0.643-0.939-0.974c-1.808-1.027-3.664-2.006-5.63-2.875c4.674,8.347,12.036,14.008,19.152,19.917
	C373.704,150.718,371.973,148.211,370.615,145.407z"/>
<path fill="#9BA7A4" d="M495.24,214.829c-2.303-13.109-12.169-18.652-24.895-21.337c-2.703,8.987,12.873,3.431,10.669,10.668
	C488.266,205.206,487.989,213.782,495.24,214.829z"/>
<path fill="#9BA7A4" d="M344.42,477.164c-0.699,1.461-1.398,2.928-2.097,4.376C343.036,480.15,343.737,478.683,344.42,477.164z"/>
<path fill="#9BA7A4" d="M509.465,385.524c0.601,3.446,1.467,6.626,2.616,9.524c-0.384-5.237-0.786-10.476-1.279-15.713
	c-0.364-3.864-0.747-7.728-1.129-11.592h-0.209c-0.605,5.321,1.269,13.124-3.556,14.226c-17.253-13.27,9.686-49.479-14.226-56.899
	c12.859-33.139,0.833-89.839-10.668-120.909c-0.619,2.028-37.59,29.704-39.117,32.006c-14.12,21.23-32.137,77.745-35.563,110.241
	c-3.167,30.029,4.538,59.69,10.668,85.349c0.041-3.59,6.232-4.475,7.112,0c4.141,27.841-2.723,44.225-10.668,67.566
	c-6.357-35.131-14.262-68.715-17.781-106.686c-15.108,41.789-38.459,75.333-56.896,113.796
	c14.543-7.979,17.545-27.498,24.893-42.674c1.917,28.861,6.449,42.416,0,78.236c-15.068-5.084-30.187-10.117-42.674-17.781
	c-0.94-11.608,13.799-7.539,14.225-17.781c-22.958,8.441,2.804-14.672,7.111-21.336c-6.271,3.213-11.01,7.955-14.226,14.226
	c-12.065-25.183,10.183-46.66,7.113-74.681c22.499,7.396,17.478,34.12,9.208,52.522c37.888-79.163,75.678-175.826,86.807-269.449
	c-2.916,10.122-8.023,18.054-17.779,21.337c-9.438-12.099-17.995-26.898-35.563-21.337c2.936-10.053-5.011-9.215-3.557-17.781
	c-13.993-5.695-1.235,15.36-10.668,14.225c-6.141-2.158,0.273-16.868-7.113-17.781c-1.945,5.168,4.158,18.379-3.556,17.781
	c-12.567-9.955-26.365-18.678-39.117-28.449c-6.563-7.663-32.154,3.705-32.006-10.668c26.394-9.636,46.775,4.214,71.123-3.556
	c2.63-12.113-13.105-5.863-14.225-14.225c18.109-14.506,25.311,3.459,40.568,9.868c-0.513-0.656-1-1.306-1.476-1.956
	c-0.754-0.704-1.471-1.448-2.161-2.221c-7.116-5.909-14.479-11.571-19.152-19.917c-24.924-2.338-59.222,4.696-78.234-3.556
	c-8.923,0.816-21.714-2.231-26.623,2.595c0.197,1.487,0.321,2.976,0.363,4.461c6.411-6.229,23.221-4.229,26.265,3.611
	c-20.189,57.171,22.73,116.085,28.448,174.252c3.835,38.964-11.455,85.852,21.337,110.241
	c0.724,39.634-32.287,104.771,10.671,113.797c8.898,2.955,13.964,9.742,24.893,10.669c21.004,35.381,71.957,31.954,78.235,74.68
	c-14.571,0.838-29.079,1.742-39.117,7.113H441.9c1.259-4.673,6.26-5.595,7.111-10.669c-8.195-9.586-1.26-34.299-3.556-49.786
	c-1.051-11.988-1.788-24.291-7.112-32.007v3.558c-1.945,5.168,4.157,18.377-3.558,17.781c-0.395-12.8-12.941-31.899-3.556-42.675
	c-4.057-13.704-11.466-30.87-3.557-46.229c7.464-30.273-2.635-56.722,3.557-88.904c2.88,0.676,3.548,3.564,7.112,3.556v-10.668
	c-2.769-0.788-4.136-2.977-3.558-7.113c-8.945,2.909-4.958,18.75-10.668,24.894c-12.392-20.791,5.64-41.697,10.668-56.898
	c0.797-2.76,0.099-7.015,3.558-7.113c0.195-4.547,4.557-4.926,3.557-10.668c-2.529-17.939,10.936-19.884,7.111-39.118
	c2.607-16.36,1.509-36.419,14.226-42.674c1.693,41.997-4.204,76.402-14.226,106.685v3.556c0.621,26.584-0.647,39.335,3.558,56.897
	c-8.201,1.09-3.95-10.273-10.669-10.667c1.009,14.4,6.103,24.719,7.111,39.119c4.826,1.103,2.95,8.905,3.558,14.223
	c3.5-9.536,22.383-3.692,28.448-10.668c-9.937-5.476-27.578-3.239-28.448-17.778c18.779,16.271,41.924,6.231,60.454,21.336
	C519.069,429.009,498.278,400.184,509.465,385.524z M402.777,232.608c-4.595,9.631-6.474,21.971-17.781,24.893
	C380.078,249.99,390.673,234.224,402.777,232.608z M338.767,360.629c12.048,9.293,3.111,24.777,7.111,46.23
	C324.624,405.309,339.923,374.517,338.767,360.629z M384.996,431.754c18.299,8.273,7.033,27.861,0,39.117
	C375.226,462.744,381.069,444.729,384.996,431.754z M395.664,559.775c-29.958-5.625-14.437-52.158-7.112-71.123
	c8.405,11.069,2.908,17.539,7.112,28.448c-5.741,1-6.121-3.363-10.668-3.557c0.62,12.418,8.181,17.897,17.781,21.338
	C403.36,546.132,393.326,546.767,395.664,559.775z M420.558,339.293c-7.982-27.093,9.678-49.343,17.781-71.124
	C451.942,284.797,433.255,325.767,420.558,339.293z"/>
<path fill="#9BA7A4" d="M256.975,197.046c0.12-15.535,1.31-32.131-7.113-39.118c-3.829,11.581-12.335,18.48-14.225,32.005
	c-11.039-10.618-15.456,5.441-24.893,7.112c-0.019-6.631-20.864-19.827-17.781-7.112c4.135,6.534,18.874,2.464,14.225,17.781
	c-11.683-3.727-29.117-1.703-39.118-7.112c-0.556,4.186,0.611,10.094-3.556,10.669c-4.779-13.827-12.711-3.899-21.337-10.669
	c-0.153-4.894,1.676-7.806,3.556-10.668h-3.481c-0.068,0.042-0.134,0.086-0.202,0.128c-7.969,7.686-12.841,18.468-15.938,31.025
	c-0.594,5.612-1.036,11.238-1.647,16.849c-0.826,7.586-2.229,14.971-3.507,22.424c-1.919,30.358-1.639,62.915-10.786,86.044v3.556
	c-0.556,26.708-7.863,46.671-17.781,64.012c-6.14,2.158,0.273,16.867-7.112,17.781c-1.935,44.295-10.53,81.93-14.225,124.465
	c-3.232,23.379,5.205,35.104,17.781,42.674c19.309,0.705,42.693,10.979,46.23-10.668V574h-3.556
	c-2.093,10.946-0.908,25.172-14.225,24.893c-16.919-27.672-0.097-76.393,10.669-106.684c-12.104-5.674-28.908-6.655-39.118-14.227
	c18.485-8.565-3.862-20.813,0-42.675c4.209-8.756,13.433,7.283,17.781-3.555c-4.205-1.722-8.062-3.793-10.669-7.113
	c12.099,0.246,24.815,1.108,28.45-7.11c-6.224-8.002-20.258-8.192-21.337-21.339c17.077,0.703,21.299,14.263,42.674,10.669
	c-3.232-26.055,13.614-58.808,17.781-88.904c5.348,10.062,14.382,16.438,14.224,32.005v17.78
	c18.976-16.234-16.933-52.717-7.112-71.123c13.947,14.132,36.979,47.369,17.781,74.679c8.845,30.275-7.316,85.552,28.449,88.906
	c1.787-18.365,4.737-35.566,14.225-46.23c9.947,13.763,20.138,27.278,35.562,35.562c-1.023-15.705-24.116-23.847-14.225-39.117
	c-28.106,4.398-20.142-27.274-32.005-39.119c17.836-8.043,1.13-18.674,3.556-24.893c10.826-0.158,13.827,7.51,21.337,10.668
	c5.538-8.686,19.271-9.177,24.893-17.78c4.427,46.545,3.737,98.207,17.781,135.135c-5.057-2.395-10.984-21.754-17.781-10.67
	c6.135,10.823,11.196,28.196,21.337,24.896c2.047,6.25-4.297,20.893,3.557,21.336C289.804,398.923,263.401,307.972,256.975,197.046z
	 M168.07,250.389c-9.108-7.488-13.539-19.652-14.225-35.562C165.365,219.902,169.792,232.066,168.07,250.389z M207.188,438.865
	c-11.827,0.719-13.993-17.596-7.112-24.894C213.596,411.121,204.595,430.785,207.188,438.865z"/>
<path fill="#828886" d="M470.344,193.49c-0.026-0.474-0.107-0.894-0.232-1.27c-0.961-0.229-1.925-0.445-2.896-0.627h-0.004
	c-0.902-0.062-1.807-0.093-2.712-0.094c-2.801-0.05-5.509-0.541-8.054-1.398c-2.834,0.297-5.529,0.457-7.439-0.169
	c-0.391-1.179-0.905-2.236-1.511-3.2c-6.722-0.67-13.361-2.537-19.8-5.525c-3.248-1.508-6.309-3.372-9.255-5.431
	c-7.043-1.07-13.8-2.425-18.47-5.867c-7.276-1.37-14.024-4.635-18.922-10.63c-0.599-0.732-1.165-1.445-1.717-2.152
	c-15.257-6.409-22.458-24.374-40.567-9.868c1.12,8.363,16.854,2.112,14.225,14.225c-24.348,7.77-44.729-6.08-71.123,3.556
	c9.651,2.204,28.223-4.515,32.005,3.555v7.112c12.752,9.77,26.55,18.494,39.117,28.449c7.714,0.597,1.611-12.614,3.556-17.781
	c7.386,0.913,0.972,15.623,7.113,17.781c9.433,1.134-3.325-19.92,10.668-14.225c-1.454,8.567,6.493,7.728,3.557,17.781
	c17.568-5.561,26.125,9.237,35.563,21.337c9.756-3.283,14.863-11.214,17.779-21.337c-11.334,95.35-50.322,193.866-88.903,273.825
	v3.557c-4.307,6.664-30.069,29.777-7.111,21.336h3.557c18.438-38.463,41.789-72.008,56.897-113.797
	c3.519,37.972,11.424,71.556,17.781,106.687c7.945-23.342,14.809-39.725,10.668-67.566c-0.88-4.475-7.071-3.59-7.112,0
	c-6.13-25.658-13.835-55.32-10.668-85.349c3.426-32.496,21.443-89.011,35.562-110.241c1.528-2.302,38.498-29.978,39.118-32.006
	C483.217,196.921,467.64,202.477,470.344,193.49z M331.653,182.821c-11.112,1.631-11.368-7.598-10.668-17.781
	c7.432-1.505,9.418,2.436,14.225,3.556C336.716,176.028,332.774,178.014,331.653,182.821z M449.007,229.052
	c-7.918-1.496-2.783-18.869,0-21.338c5.741-1,6.121,3.362,10.668,3.557C457.592,218.671,452.202,222.764,449.007,229.052z"/>
<path fill="#EBE8E9" d="M146.669,187.939c-0.452,0.245-0.903,0.492-1.347,0.752c-0.694,0.406-1.385,0.818-2.07,1.241h3.481
	C146.616,189.172,146.606,188.519,146.669,187.939z"/>
<path fill="#828886" d="M178.738,349.961c-8.52,1.408,1.973-16.198-10.668-10.668c-1.833,25.43-3.297,51.23-10.669,71.123
	c19.004-4.705,10.066-37.349,21.337-49.787c0,2.371,0,4.741,0,7.112c-11.321,32.538-9.131,78.589-21.337,110.241
	c0,2.371,0,4.741,0,7.112c1.102,14.142-8.214,17.863-7.112,32.006c-0.894,22.814-7.862,39.554-14.225,56.898
	c-1.185,0-2.371,0-3.556,0c-2.093,10.945-0.908,25.172-14.225,24.893c-16.919-27.672-0.097-76.393,10.669-106.684
	c-12.104-5.674-28.908-6.654-39.118-14.227c18.485-8.564-3.862-20.813,0-42.675c4.209-8.756,13.433,7.283,17.781-3.555
	c-4.205-1.723-8.062-3.793-10.669-7.113c12.099,0.246,24.814,1.107,28.45-7.11c-6.224-8.002-20.258-8.191-21.337-21.339
	c17.077,0.703,21.299,14.263,42.674,10.669c-3.232-26.055,13.613-58.807,17.781-88.904
	C169.862,328.018,178.896,334.394,178.738,349.961z M146.733,435.309c12.669,0.814,18.596-5.11,17.781-17.778
	C150.502,415.365,148.761,425.484,146.733,435.309z M143.177,456.646c10.048-2.939,9.214,5.01,17.78,3.557
	c-1.574-6.719,4.834-21.435-7.112-17.781C159.462,456.336,144.612,449.785,143.177,456.646z"/>
<path fill="#B3BBB5" d="M111.171,349.961c-0.556,26.708-7.862,46.671-17.781,64.012c4.899-4.584,3.52-15.447,3.556-24.894
	C107.42,381.772,104.703,361.272,111.171,349.961z"/>
<path fill="#B3BBB5" d="M141.283,191.225c-1.639,1.429-3.228,2.919-4.678,4.542c-0.346,0.387-0.69,0.777-1.033,1.169
	c-0.318,0.445-0.638,0.9-0.846,1.225c-1.179,1.832-2.339,3.701-3.358,5.637c-0.435,1.129-1.231,3.135-1.458,3.92
	c-0.466,1.607-0.928,3.216-1.291,4.851c-0.366,1.646-0.727,3.292-1.01,4.955c-0.109,0.641-0.297,1.994-0.421,2.874
	c-0.025,0.233-0.052,0.466-0.077,0.699c3.097-12.561,7.97-23.347,15.94-31.034C142.452,190.435,141.863,190.823,141.283,191.225z"/>
<path fill="#B3BBB5" d="M121.029,265.981c-0.037,0.235-0.069,0.44-0.099,0.628c-0.206,1.846-0.403,3.691-0.594,5.539
	c-0.552,5.344-1.208,10.659-1.947,15.982c-0.762,5.487-1.818,10.929-3.159,16.289c-0.685,14.662-4.509,26.182-4.058,41.984
	c9.148-23.132,8.867-55.692,10.787-86.052C121.638,262.223,121.322,264.097,121.029,265.981z"/>
<path fill="#828886" d="M285.423,648.68c-17.915-1.051-35.172-2.762-46.23-10.67C253.501,642.67,276.186,638.951,285.423,648.68z"/>
<path fill="#563233" d="M256.975,549.105c9.659-2.189,16.65-7.052,21.337-14.224c-5.391,27.828-53.333,43.851-46.23,96.017
	c-7.367,2.114-23.361-4.396-24.893,3.555c-1.186,0-2.371,0-3.556,0c-4.135,0.58-6.325-0.787-7.113-3.555
	c19.587,4.182,10.234-20.589,17.781-28.449c6.266,3.143,5.876,15.774,14.225,7.112c8.455-20.848,9.849-46.018,17.781-53.344
	C248.912,552.898,252.77,550.834,256.975,549.105z"/>
<path fill="#5F5A5A" d="M288.979,648.68c-1.186,0-2.371,0-3.556,0c-9.238-9.729-31.922-6.01-46.23-10.67
	c-8.863-2.99-19.05-4.651-32.005-3.557c1.532-7.949,17.526-1.439,24.893-3.555c-7.103-52.166,40.84-68.188,46.23-96.017
	c-4.687,7.172-11.678,12.033-21.337,14.224c11.149-14.929,34.163-17.992,39.118-39.117
	c-6.289-111.065-32.691-202.016-39.118-312.942c10.316-25.301,7.001,9.649,10.668,35.562c8.789,62.112,33.575,159.745,42.674,241.82
	c4.991,45.054-8.909,133.818-3.558,174.252C300.833,648.68,294.907,648.68,288.979,648.68z M299.648,467.314
	c0.208-15.617-1.426-29.39-7.113-39.117C292.327,443.814,293.962,457.586,299.648,467.314z M260.53,613.117
	c15.688-5.017,0.056,21.281,10.668,21.336c-0.009-1.971,2.88-4.037,3.556,0c20.235-14.172,22-65.676,21.337-88.902
	C281.756,565.59,271.829,590.035,260.53,613.117z M299.648,645.123c0.796-2.76,0.097-7.016,3.556-7.113c0-10.668,0-21.336,0-32.004
	C298.397,613.229,296.745,641.984,299.648,645.123z"/>
<path fill="#828886" d="M449.007,342.849c0.916-32.279,12.127-54.255,10.668-88.904c-8.372,3.482-3.185,20.522-10.668,24.893
	c2.606-16.36,1.509-36.418,14.226-42.674C464.926,278.162,459.027,312.566,449.007,342.849z"/>
<path fill="#5F5A5A" d="M441.895,317.956c-2.527-17.938,10.938-19.883,7.112-39.118c7.483-4.371,2.296-21.411,10.668-24.893
	c1.459,34.649-9.752,56.625-10.668,88.904c0,1.185,0,2.371,0,3.556c-11.742,3.667,6.575,37.396-10.668,35.562
	c0-2.371,0-4.742,0-7.112c-1.751-12.47-5.303-23.148-3.558-39.118c0.797-2.761,0.099-7.016,3.558-7.113c0,10.669,0,21.337,0,32.006
	C442.635,351.734,450.581,328.031,441.895,317.956z"/>
<path fill="#EBE8E9" d="M96.947,389.079c-0.037,9.446,1.343,20.31-3.556,24.894c-6.14,2.158,0.273,16.867-7.112,17.781
	C85.862,413.561,93.779,403.693,96.947,389.079z"/>
<path fill="#9BA7A4" d="M296.092,509.988c-4.955,21.125-27.968,24.188-39.118,39.117c-4.205,1.729-8.063,3.793-10.669,7.112
	c-3.556,0-7.112,0-10.669,0c-30.968,3.408-49.295,19.457-60.455,42.674c0.454,6.382-4.353,7.502-3.556,14.226
	c0,2.371,0,4.742,0,7.112c-1.185,0-2.371,0-3.556,0c8.945-88.471,44.285-140.149,17.781-231.151
	c-15.401,1.254-14.021,49.945-17.781,74.679c-3.575,4.729-3.362,13.234-10.669,14.226c12.206-31.652,10.016-77.703,21.337-110.241
	c18.976-16.234-16.934-52.717-7.112-71.123c13.947,14.132,36.979,47.369,17.781,74.679c8.844,30.275-7.316,85.552,28.449,88.906
	c1.788-18.365,4.737-35.566,14.225-46.23c9.946,13.763,20.138,27.277,35.562,35.562c-1.023-15.705-24.115-23.847-14.225-39.117
	c-28.106,4.398-20.142-27.273-32.005-39.119c17.836-8.043,1.13-18.673,3.556-24.893c10.826-0.158,13.827,7.511,21.337,10.668
	c5.538-8.686,19.271-9.178,24.893-17.78c4.427,46.545,3.737,98.207,17.781,135.135c-5.057-2.395-10.983-21.754-17.781-10.67
	c6.135,10.822,11.196,28.195,21.337,24.896C294.582,494.902,288.239,509.545,296.092,509.988z M256.975,389.079
	c2.125-3.361,15.826-18.322,0-17.781C259.1,377.627,246.551,386.065,256.975,389.079z"/>
<path fill="#9BA7A4" d="M175.182,598.893c11.16-23.217,29.487-39.266,60.455-42.674c-3.236,6.246-12.46,6.506-17.781,10.67
	C196.26,570.184,191.435,590.252,175.182,598.893z"/>
<path fill="#9BA7A4" d="M456.119,470.871c15.271,4.729,0.973,15.887,0,24.893c-10.423-3.014,2.126-11.45,0-17.78
	C456.119,475.611,456.119,473.242,456.119,470.871z"/>
<path fill="#828886" d="M331.653,541.994c0.787-2.771,2.976-4.135,7.112-3.558c-42.957-9.026-9.946-74.164-10.67-113.797
	c-32.792-24.388-17.502-71.277-21.337-110.241c-5.718-58.168-48.637-117.081-28.448-174.252c-3.043-7.837-19.843-9.838-26.259-3.617
	c0.188,6.584-1.259,13.067-5.382,18.712c-7.359,10.076-16.94,16.586-29.215,19.404c-9.187,2.109-18.671,2.86-28.044,3.7
	c-1.575,0.141-3.15,0.284-4.722,0.456c-6.632,0.89-7.015,0.942-1.122,0.153c-0.471,0.065-0.942,0.13-1.413,0.196
	c-1.4,0.198-2.801,0.396-4.199,0.609c-2.288,0.35-4.576,0.706-6.854,1.119c-5.673,1.028-11.348,2.212-16.846,3.969
	c-1.354,0.433-5.187,1.982-5.823,2.174c-0.594,0.295-1.181,0.601-1.764,0.917c-0.063,0.579-0.054,1.231,0.064,1.992
	c-1.88,2.861-3.709,5.774-3.556,10.668c8.627,6.77,16.558-3.158,21.337,10.669c4.167-0.575,3-6.483,3.556-10.669
	c10.002,5.408,27.435,3.384,39.118,7.112c4.649-15.318-10.09-11.247-14.225-17.781c-3.084-12.715,17.762,0.481,17.781,7.112
	c9.437-1.671,13.854-17.73,24.893-7.112c1.89-13.525,10.395-20.424,14.225-32.005c8.423,6.988,7.233,23.583,7.113,39.118
	c10.316-25.301,7.001,9.649,10.668,35.562c8.789,62.112,33.575,159.745,42.674,241.82c4.991,45.054-8.909,133.818-3.558,174.252
	h-17.78v2.01c3.663,0.234,7.32,0.453,10.968,0.613c1.724,0.075,3.452,0.115,5.182,0.14c8.837-0.853,16.202-1.933,23.432-0.843
	c4.591-0.339,9.17-0.743,13.729-1.154C342.416,612.877,364.472,557.84,331.653,541.994z M331.653,638.01
	c-21.818-18.123-23.489-66.104-14.224-96.016c18.159-1.561,11.77,21.42,28.448,21.336
	C341.942,589.033,339.465,616.188,331.653,638.01z"/>
<path fill="#828886" d="M347.943,648.926c0.715-0.065,1.429-0.134,2.143-0.201c12.582-10.925,27.119-19.892,52.691-17.826
	c10.038-5.371,24.546-6.275,39.116-7.113c-6.277-42.726-57.23-39.299-78.234-74.68c16.4,28.645,52.5,37.59,67.566,67.568
	c-16.512-3.432-21.55-21.602-32.006-3.557c-1.352-22.356-12.515-34.901-35.561-35.562
	C364.122,614.623,366.765,635.986,347.943,648.926z M367.216,588.225c21.606-3.823,22.91,12.651,21.336,32.006
	c-7.437,2.048-10.147,8.816-21.336,7.111V588.225z"/>
<path fill="#B3BBB5" d="M456.119,470.871c-5.992-4.441-18.188-20.824-3.557-24.896C445.22,459.189,457.665,455.275,456.119,470.871z
	"/>
<path fill="#5F5A5A" d="M342.29,649.444c1.227-0.11,2.454-0.222,3.677-0.332c0.659-0.06,1.317-0.125,1.977-0.187
	c18.821-12.939,16.179-34.303,15.716-71.37c23.046,0.661,34.209,13.206,35.561,35.562c10.456-18.045,15.494,0.125,32.006,3.557
	c-15.065-29.978-51.166-38.923-67.565-67.567c-10.929-0.927-15.995-7.714-24.894-10.669c-4.137-0.578-6.326,0.787-7.113,3.557
	C364.472,557.84,342.416,612.877,342.29,649.444z M349.435,634.453c2.148-8.514,5.111-16.223,3.557-28.447
	C357.904,607.742,361.623,638.063,349.435,634.453z"/>
<path fill="#5F5A5A" d="M175.182,598.893c16.253-8.641,21.078-28.709,42.674-32.004c-20.401,10.422-30.996,30.644-46.23,46.229
	C170.83,606.395,175.636,605.273,175.182,598.893z"/>
<path fill="#FFFFFF" d="M456.119,570.443c-4.51-9.886,4.52,13.979,14.225,3.557c-3.797,11.863,1.13,12.141-3.557,24.893
	C461.963,590.684,456.563,583.039,456.119,570.443z"/>
<path fill="#EBE8E9" d="M72.054,556.219c-3.232,23.379,5.205,35.104,17.781,42.674C60.931,610.891,67.877,521.658,72.054,556.219z"
	/>
<path fill="#563233" d="M303.204,606.006c0,10.668,0,21.336,0,32.004c-3.458,0.099-2.76,4.354-3.556,7.113
	C296.745,641.984,298.397,613.229,303.204,606.006z"/>
<path fill="#B3BBB5" d="M360.722,647.638c15.719-7.022,31.64-15.164,52.724-16.739h-10.668
	c-25.572-2.065-40.109,6.901-52.691,17.826C353.634,648.387,357.18,648.026,360.722,647.638z"/>
<path fill="#B3BBB5" d="M328.559,650.599c-7.229-1.089-14.594-0.01-23.43,0.843C312.918,651.549,320.75,651.174,328.559,650.599z"/>
<path fill="#FFFFFF" d="M552.135,652.236c1.497-11.254,0.381,16.789,3.559,21.336c-1.992,10.303-5.549-5.455-10.67-3.558
	c-12.308,6.938,4.354,14.201,3.557,21.339c4.885-7.421-0.296-15.666,10.669-3.558c-2.917,8.937-4.658,19.055-17.781,17.781
	c2.449-16.674-12.482-15.967-7.111-35.563c10.695,3.584,6.303-7.922,7.111-14.225C551.469,655.092,551.724,671.137,552.135,652.236z
	"/>
<path fill="#828886" d="M509.461,365.577c-0.815-8.288-1.6-16.58-2.167-24.886c-4.542-7.056,0.595-23.791-1.389-33.403v-24.894
	c-5.895-16.628-4.412-40.632-7.112-60.455c0.579-4.135-0.787-6.325-3.556-7.112c-7.251-1.047-6.974-9.622-14.226-10.667
	c11.501,31.07,23.527,87.769,10.668,120.909c23.912,7.419-3.027,43.628,14.226,56.899c4.825-1.102,2.951-8.905,3.556-14.226V365.577
	z"/>
<path fill="#9BA7A4" d="M498.793,221.939c6.595,11.192,7.604,27.958,7.112,46.23c0,4.742,0,9.483,0,14.224
	C500.011,265.766,501.493,241.762,498.793,221.939z"/>
<path fill="#232223" d="M438.339,328.624c0.194-4.547,4.556-4.926,3.556-10.668c8.688,10.075,0.74,33.779-3.556,42.674
	C438.339,349.961,438.339,339.293,438.339,328.624z"/>
<path fill="#828886" d="M441.895,392.635c0.01-3.565-2.88-4.232-3.556-7.112c0-1.186,0-2.371,0-3.556
	c17.243,1.833-1.074-31.895,10.668-35.562c0.621,26.583-0.647,39.335,3.558,56.898C444.362,404.393,448.613,393.028,441.895,392.635
	z"/>
<path fill="#B3BBB5" d="M150.29,517.102c-1.102-14.143,8.214-17.864,7.112-32.006C167.176,493.959,156.119,512.059,150.29,517.102z"
	/>
<path fill="#828886" d="M431.226,517.102c4.7,0.041,3.251,6.232,7.113,7.111c0,4.742,0,9.484,0,14.225c0,1.187,0,2.371,0,3.558
	c-1.945,5.168,4.157,18.377-3.558,17.781C434.388,546.977,421.841,527.877,431.226,517.102z"/>
<path fill="#B3BBB5" d="M463.231,506.432c16.54,24.955,16.858,66.119,35.562,88.904c18.485-0.477,31.302-6.635,49.786-7.111
	c0-11.854,0-23.707,0-35.563c10.188,0.481-3.074,24.412,7.113,24.895c0.425,25.318-34.868,14.918-49.787,24.894
	C472.502,589.623,477.248,538.646,463.231,506.432z"/>
<path fill="#828886" d="M192.963,638.01c-10.312-3.912-24.05-4.397-24.893-17.778c1.185,0,2.371,0,3.556,0
	c4.732,7.12,15.785,7.922,24.893,10.668c0.788,2.768,2.978,4.135,7.113,3.555C203.057,638.621,197.149,637.455,192.963,638.01z"/>
<path fill="#9BA7A4" d="M288.979,650.688v-2.009h-3.556c-17.915-1.051-35.172-2.762-46.23-10.67
	c-8.862-2.991-19.049-4.652-32.005-3.557h-3.557c-0.575,4.168-6.482,3.002-10.669,3.557c24.543,2.165,45.677,7.737,68.804,11.317
	C270.802,649.434,279.904,650.108,288.979,650.688z"/>
<path fill="#828886" d="M546.322,531.967c-9.092-14.178-13.084-32.127-18.367-47.976c-5.387-16.161-9.876-32.287-12.223-49.191
	c-1.834-13.213-2.679-26.472-3.65-39.739c-1.152-2.901-2.021-6.086-2.622-9.537c-11.186,14.659,9.604,43.485,3.557,53.342
	c-18.529-15.104-41.674-5.065-60.454-21.336c0.87,14.539,18.512,12.302,28.449,17.778c-6.065,6.976-24.949,1.132-28.449,10.668
	c-7.343,13.213,5.103,9.299,3.557,24.895c15.271,4.729,0.973,15.887,0,24.893c3.056,2.871,2.11,9.742,7.111,10.668
	c16.541,24.955,16.86,66.119,35.563,88.904c18.485-0.476,31.302-6.634,49.786-7.111v-35.563c-0.146-7.502-0.976-14.319-2.253-20.689
	C546.325,531.971,546.323,531.969,546.322,531.967z"/>
<path fill="#5F5A5A" d="M320.985,165.041c7.432-1.505,9.418,2.436,14.225,3.556c1.506,7.432-2.436,9.418-3.557,14.225
	C320.541,184.452,320.285,175.223,320.985,165.041z"/>
<path fill="#232223" d="M235.637,556.219c3.557,0,7.113,0,10.669,0c-7.932,7.326-9.326,32.496-17.781,53.344
	c-8.349,8.662-7.959-3.971-14.225-7.112c-7.547,7.86,1.806,32.631-17.781,28.449c-9.108-2.746-20.161-3.548-24.893-10.669
	c0-2.37,0-4.741,0-7.112c15.234-15.586,25.829-35.808,46.23-46.229C223.177,562.725,232.401,562.465,235.637,556.219z"/>
</svg>
