<?xml version="1.0" encoding="utf-8"?>
<!-- Generator: Adobe Illustrator 15.0.0, SVG Export Plug-In . SVG Version: 6.00 Build 0)  -->
<!DOCTYPE svg PUBLIC "-//W3C//DTD SVG 1.1//EN" "http://www.w3.org/Graphics/SVG/1.1/DTD/svg11.dtd">
<svg version="1.1" id="Capa_1" xmlns="http://www.w3.org/2000/svg" xmlns:xlink="http://www.w3.org/1999/xlink" x="0px" y="0px"
	 width="612px" height="792px" viewBox="0 0 612 792" enable-background="new 0 0 612 792" xml:space="preserve">
<path fill="#FFFFFF" d="M36.684,314.242c-2.546-33.707,20.521-35.487,28.264-56.367c9.981-2.248,10.084,39.468-5.652,28.184
	c12.241,35.816,28.036-6.697,50.876,0C97.04,310.223,61.65,326.113,36.684,314.242z"/>
<path fill="#FFFFFF" d="M104.518,257.875c9.422,0,18.843,0,28.265,0C141.431,279.526,95.87,279.526,104.518,257.875z"/>
<path fill="#C88168" d="M319.327,398.792c8.51-10,24.387-26.082,33.918-14.092c0,2.349,0,4.697,0,7.046
	C344.788,394.379,320.814,431.948,319.327,398.792z"/>
<path fill="#EBE8E9" d="M580.631,339.162c-0.496,0.014-0.991,0.03-1.486,0.04c-2.394,47.323,6.531,108.75-5.437,144.14h-5.653
	c-29.007-5.625-37.089,14.834-62.182,14.092c-1.841,16.496-24.658,6.845-28.265,21.138c38.009-8.993,68.636-27.185,107.404-35.229
	C581.432,437.925,591.714,375.228,580.631,339.162z"/>
<path fill="#EBE8E9" d="M251.493,342.425c5.499,0.193,4.387,8.624,5.653,14.092c34.109,11.514,44.767,48.257,73.488,14.092
	c-23.951,48.109-41.064-0.256-79.141-7.046C251.493,356.517,251.493,349.471,251.493,342.425z"/>
<path fill="#E1CECB" d="M419.294,299.609c-0.796,0.061-2.449,0.364-3.332,0.529c-0.738,0.172-1.475,0.35-2.206,0.547
	c-2.737,0.741-5.462,1.532-8.141,2.467c-2.425,0.847-4.827,1.754-7.213,2.706c-1.383,0.612-4.393,1.917-5.256,2.313
	c-9.011,4.127-17.983,8.401-27.162,12.156c-4.115,16.924-5.598,37.13-12.739,50.282h-22.611
	c-23.952,48.109-41.065-0.256-79.141-7.046v-21.138c0.633-40.881-59.355-43.239-84.793-28.183
	c52.201-8.698,83.836,8.238,84.795,63.413h16.958c24.944-3.917,29.78,42.284,50.875,21.138c8.51-10,24.387-26.082,33.918-14.092
	v7.046h5.653c1.073-5.706,5.667-7.028,5.651-14.092c-14.971-75.514,58.223-78.349,118.71-63.412
	c-15.251-8.654-39.5-14.09-63.463-14.67C419.63,299.585,419.462,299.596,419.294,299.609z"/>
<path fill="#D69B9F" d="M364.551,377.654c-14.971-75.514,58.223-78.349,118.71-63.412c3.467,9.771,21.759,1.063,22.612,14.092
	c-22.604,2.339-31.378-12.56-56.529-7.046c24.225,10.339,43.913,45.797,33.917,77.504c-17.223-15.432-25.084-58.293-56.527-35.229
	c0.31-9.009,7.242-9.761,5.651-21.138c-28.152,2.487-50.729,11.927-62.182,35.229C368.318,377.654,366.436,377.654,364.551,377.654z
	"/>
<path fill="#C88168" d="M573.492,339.205c-9.512-0.188-18.925-1.306-28.161-3.268c-12.332,1.14-23.834,1.246-28.152-7.603h-11.306
	c-22.604,2.339-31.378-12.56-56.529-7.047c24.225,10.339,43.913,45.797,33.917,77.504c-17.222-15.431-25.084-58.293-56.527-35.229
	c0.309-9.009,7.242-9.762,5.651-21.138c-28.154,2.486-50.729,11.927-62.182,35.229h-5.652c0.016,7.065-4.578,8.386-5.651,14.092
	c-1.708,18.57,7.83,23.119,22.61,21.138c7.758-16.064-14.574-26.487,0-28.184c45.12-28.817,43.663,34.954,67.834,56.367
	c-2.554-2.259,1.664-24.624,5.653-21.139c22.531,50.376-45.334,92.448-62.183,56.366c12.713-17.347,15.368-54.017-11.306-56.366
	c-16.562,14.587-34.528,27.421-67.835,21.139c6.552-10.422,6.552-17.763,0-28.185c-20.925-4.944-9.745,30.12-22.611,35.229
	c-15.81-10.834-42.809-7.705-39.57-42.274c16.016,7.35,23.553,7.35,39.57,0c4.18-24-20.83-11.615-22.612-28.184h-5.652
	c-9.716,31.898-21.95-15.945-45.224-21.138c-35.396-7.89-74.863,18.377-50.875,77.504c1.781-42.936,46.776-55.274,62.182-42.274
	c-15.56,19.192-3.459,36.202-11.306,56.366c12.866,18.121,21.905,14.241,33.917,21.139c-32.644,45.174-97.947,23.723-107.405-35.229
	c-15.545,53.881,40.873,105.329,90.446,77.506c-1.399-7.653-11.24-4.781-11.306-14.093c24.68,3.457,12.027-21.717,33.917-7.047
	c24.747-41.942,74.93-37.797,107.405-7.045c6.344,1.487,8.804,7.817,11.308,14.092c31.561,40.037,84.741,3.313,130.016,0
	c25.093,0.742,33.175-19.717,62.182-14.092C580.022,447.953,571.1,386.528,573.492,339.205z"/>
<path fill="#D69B9F" d="M262.799,377.654c-9.716,31.899-21.949-15.945-45.224-21.138c-35.396-7.89-74.864,18.377-50.875,77.503
	c1.781-42.936,46.776-55.273,62.182-42.273c-15.56,19.191-3.459,36.202-11.306,56.366c12.866,18.121,21.905,14.239,33.917,21.139
	c-32.644,45.174-97.946,23.723-107.405-35.229c-15.545,53.881,40.873,105.329,90.446,77.506
	c-27.55,64.385-100.633-0.47-141.322-7.047c0-2.349,0-4.697,0-7.046c0.942,0.521,11.225-0.688,11.306,0
	c-4.033-33.743-14.161-119.412,11.306-155.01c-4.21-15.89-31.709-2.752-45.223-7.045c25.74-14.89,73.554-2.266,96.099-21.137
	c52.201-8.698,83.836,8.238,84.793,63.412C255.262,377.654,259.031,377.654,262.799,377.654z"/>
<path fill="#B3BBB5" d="M522.002,329.071c-1.685-0.15-3.304-0.381-4.823-0.737c4.318,8.849,15.82,8.742,28.152,7.603
	C537.406,334.253,529.615,331.943,522.002,329.071z"/>
<path fill="#B3BBB5" d="M579.145,339.202c-1.888,0.036-3.771,0.041-5.652,0.003c-2.393,47.322,6.53,108.747-5.438,144.137h5.653
	C585.676,447.952,576.751,386.524,579.145,339.202z"/>
<path fill="#D69B9F" d="M477.608,518.571c-36.574,10.057-87.494,42.918-101.751-14.093c0-2.348,0-4.696,0-7.045
	c31.561,40.037,84.74,3.313,130.016,0C504.032,513.931,481.216,504.278,477.608,518.571z"/>
<path fill="#D69B9F" d="M341.939,490.388c-10.313-10.211-34.293-47.586-45.224-14.092c-4.807-1.293-5.329,2.754-5.653,7.047
	c-13.315-0.156-16.642,12.138-33.917,7.045c24.747-41.942,74.93-37.797,107.405-7.045
	C354.408,482.442,352.627,491.966,341.939,490.388z"/>
<path fill="#D69B9F" d="M268.452,377.654c24.945-3.917,29.781,42.284,50.875,21.138c1.487,33.156,25.461-4.413,33.918-7.046
	c1.884,0,3.769,0,5.653,0c-1.708,18.569,7.83,23.119,22.61,21.138c7.758-16.063-14.574-26.486,0-28.184
	c45.12-28.816,43.663,34.954,67.834,56.367c-2.554-2.259,1.664-24.624,5.653-21.139c22.531,50.376-45.334,92.448-62.182,56.366
	c12.712-17.348,15.367-54.018-11.307-56.366c-16.562,14.587-34.527,27.421-67.835,21.139c6.552-10.423,6.552-17.763,0-28.185
	c-20.926-4.944-9.745,30.119-22.611,35.229c-15.811-10.834-42.809-7.705-39.57-42.274c16.017,7.35,23.554,7.35,39.57,0
	C295.244,381.838,270.233,394.224,268.452,377.654z"/>
<path fill="#E1CECB" d="M296.717,476.296c10.931-33.494,34.91,3.881,45.224,14.092C316.59,498.378,316.693,453.462,296.717,476.296z
	"/>
<path fill="#E1CECB" d="M257.146,490.388c17.275,5.093,20.603-7.2,33.917-7.045c-0.795,20.156-23.583,12.881-39.57,14.092
	c-15.575,8.771-16.355,35.98-28.264,49.32c-57.309,3.32-94.311-18.668-130.017-42.274c40.689,6.577,113.772,71.432,141.322,7.047
	c-1.398-7.652-11.24-4.781-11.306-14.093C247.909,500.892,235.256,475.718,257.146,490.388z"/>
<path fill="#C88168" d="M42.337,335.379c9.421,0,18.842,0,28.264,0c13.514,4.293,41.013-8.844,45.223,7.045
	c-25.467,35.598-15.339,121.267-11.306,155.01c-0.081-0.688-10.363,0.521-11.306,0c-28.139,6.468-24.054-22.192-45.223-7.047
	C28.926,463.534,34.512,372.728,42.337,335.379z"/>
</svg>
