<?xml version="1.0" encoding="utf-8"?>
<!-- Generator: Adobe Illustrator 15.0.0, SVG Export Plug-In . SVG Version: 6.00 Build 0)  -->
<!DOCTYPE svg PUBLIC "-//W3C//DTD SVG 1.1//EN" "http://www.w3.org/Graphics/SVG/1.1/DTD/svg11.dtd">
<svg version="1.1" id="Capa_1" xmlns="http://www.w3.org/2000/svg" xmlns:xlink="http://www.w3.org/1999/xlink" x="0px" y="0px"
	 width="612px" height="792px" viewBox="0 0 612 792" enable-background="new 0 0 612 792" xml:space="preserve">
<path fill="#E1CECB" d="M111.745,128.64c3.728,0,7.456,0,11.183,0c-10.854,10.768,5.882,22.496,5.591,39.137
	c0,1.864,0,3.728,0,5.592c0,1.864,0,3.727,0,5.591c-11.524-2.992-1.332-26.448-16.773-11.183c-0.873-6.581,0.961-15.87-5.59-16.772
	c0-1.864,0-3.727,0-5.591C112.67,144.475,112.226,136.575,111.745,128.64z"/>
<path fill="#FDFDFD" d="M290.661,268.417c-10.563,2.482-33.7-7.608-27.956,11.183C229.166,273.149,288.615,237.558,290.661,268.417z
	"/>
<path fill="#FDFDFD" d="M413.664,257.235c7.455,0,14.91,0,22.365,0c4.922,17.968-18.435,7.658-16.773,22.365
	C411.668,277.867,414.619,265.6,413.664,257.235z"/>
<path fill="#FDFDFD" d="M458.395,257.235c11.183,0,22.363,0,33.546,0c8.221,21.265-24.992,1.099-16.771,22.365
	C470.916,270.805,457.434,271.242,458.395,257.235z"/>
<path fill="#B3BBB5" d="M552.244,358.82c-4.97,3.638-12.172,5.036-21.167,4.645c0.77,10.411,3.676,18.688,11.184,22.364
	c-2.054-9.508,4.358-10.548,11.181-11.181c0.264-0.071,0.518-0.181,0.767-0.311C553.458,369.18,552.817,364.005,552.244,358.82z"/>
<path fill="#5F5A5A" d="M497.531,391.421c0-3.726,0-7.455,0-11.182c4.34,1.251,11.028,0.153,11.184,5.591c0,5.591,0,11.182,0,16.773
	c0,1.863,0,3.728,0,5.592c-7.436-7.26-20.807-7.367-22.365,5.591C466.174,403.71,494.109,396.256,497.531,391.421z"/>
<path fill="#5F5A5A" d="M190.021,497.652c9.027-17.473,17.705,11.473,27.955,11.182c-3.676,7.506-11.954,10.41-22.364,11.182
	C196.311,506.023,206.285,502.515,190.021,497.652z"/>
<path fill="#5F5A5A" d="M469.576,497.652c-7.15,0.305-7.748,7.163-16.773,5.59c0.308,7.148,7.162,7.747,5.592,16.772
	c-7.557-1.762-10.682-7.956-22.364-5.59c10.432-8.206,14.836-22.438,33.547-22.364C469.576,493.925,469.576,495.788,469.576,497.652
	z"/>
<path fill="#232223" d="M228.874,637.048c3.487-0.506,7.042-0.252,10.886,0.289c0.247,0.023,0.54,0.052,0.901,0.088
	c0.013,0.001,0.027,0.003,0.04,0.004h5.231c9.566-12.799,42.675-2.053,61.501-5.592h5.592c1.383-6.071,11.116-3.791,11.182-11.181
	c-16.445-9.646,5.263-57.448-11.182-67.094c-35.192,6.573-90.564,13.867-117.414,11.183c0.449,32.883,6.813,48.713,0.421,71.228
	C206.982,636.253,217.929,636.631,228.874,637.048z"/>
<path fill="#232223" d="M346.571,631.837c-11.24-16.714-3.159-52.75-5.593-78.274c40.661,13.426,108.387,3.627,128.598,22.364
	c-5.846,26.938-19.849,24.046-11.183,55.91c-4.34,1.253-11.028,0.153-11.184,5.592c-18.637,0-37.271,0-55.91,0
	C387.137,624.82,359.938,635.245,346.571,631.837z"/>
<path fill="#563233" d="M245.932,637.429c9.566-12.799,42.675-2.053,61.501-5.592c-1.041,8.278-13.512,5.126-22.365,5.592
	C272.023,637.429,258.978,637.429,245.932,637.429z"/>
<path fill="#5F5A5A" d="M242.065,637.563c7.736,0.321,15.471,0.659,23.206,1.01c3.535,0.009,7.069-0.029,10.604-0.109
	c3.064-0.069,6.129-0.164,9.194-0.266v-0.769h-44.368C241.155,637.475,241.61,637.518,242.065,637.563z"/>
<path fill="#5F5A5A" d="M396.333,641.507c24.356,0.065,48.709,0.456,73.062,0.873c-2.271-6.773-14.064-4.026-22.184-4.951h-55.91
	c-7.782,0.409-18.351-1.965-21.499,3.077C378.632,641.063,387.471,641.483,396.333,641.507z"/>
<path fill="#EBE8E9" d="M117.337,83.912c17.239,10.869,12.529,72.997,11.182,83.866c0.292-16.642-16.445-28.37-5.591-39.137
	C125.374,109.421,120.722,97.3,117.337,83.912z"/>
<path fill="#EBE8E9" d="M134.11,268.417c-15.18,3.996,3.996-26.361-11.183-22.364c-14.415,1.347,7.681,9.617,0,22.364
	c-12.122-0.939-2.533,19.831-5.591,27.956c2.366,11.685-3.83,14.807-5.592,22.364c-1.863,0-3.727,0-5.59,0
	c20.049-54.083-2.701-102.395,0-167.732c6.552,0.903,4.717,10.192,5.59,16.772c7.462,21.79-2.882,28.99,5.592,44.729
	c14.283-0.625,11.094-18.724,11.182-33.546c0-1.864,0-3.727,0-5.591C141.448,193.986,130.47,238.511,134.11,268.417z"/>
<path fill="#EBE8E9" d="M548.738,321.132c-0.591-6.529-1.268-13.055-1.88-19.586c-1.889-3.931-3.505-7.554-4.597-10.764h-5.592
	c-1.785,12.965,0.896,21.469,5.592,27.955c2.887,0.543,4.954,1.905,6.593,3.696C548.815,322,548.777,321.565,548.738,321.132z"/>
<path fill="#EBE8E9" d="M554.208,374.337c-0.248,0.13-0.502,0.24-0.766,0.311v11.181c0.804-0.68,1.553-1.373,2.272-2.074
	C555.168,380.624,554.666,377.484,554.208,374.337z"/>
<path fill="#EBE8E9" d="M553.441,100.685c-1.818,20.544,4.768,49.497-5.593,61.502c-2.995-3.954-3.938-26.237,0-33.547
	C550.906,120.516,541.32,99.746,553.441,100.685z"/>
<path fill="#EBE8E9" d="M531.078,128.64c15.74,5.649-1.543,23.748,0,33.547c0,13.046,0,26.091,0,39.137
	C516.424,183.226,532.168,135.265,531.078,128.64z"/>
<path fill="#EBE8E9" d="M497.531,307.555c1.041-8.278,13.51-5.125,22.362-5.591c-0.114-28.764,0.927-43.942,5.593-55.911
	c6.174,5.052,3.873,12.507,0,22.364c0,11.183,0,22.365,0,33.546c0,5.591,0,11.182,0,16.773
	C518.752,312.426,515.354,302.779,497.531,307.555z"/>
<path fill="#9BA7A4" d="M117.337,83.912c3.385,13.388,8.037,25.51,5.591,44.729c-3.727,0-7.455,0-11.183,0
	c-6.807-10.556-0.632-22.575-5.59-44.729C102.084,65.53,117.264,75.35,117.337,83.912z"/>
<path fill="#9BA7A4" d="M531.078,123.049c12.594-16.052,3.979-40.885,11.184-50.32c20.615,4.077-2.383,16.825,11.181,27.956
	c-12.121-0.939-2.535,19.831-5.593,27.955C538.822,130.213,538.227,123.355,531.078,123.049z"/>
<path fill="#E1CECB" d="M531.078,128.64c0-1.863,0-3.727,0-5.591c7.147,0.306,7.744,7.164,16.771,5.591
	c-3.938,7.31-2.995,29.593,0,33.547c0,1.863,0,3.728,0,5.59c-4.498-2.955-9.077-5.831-16.771-5.59
	C529.535,152.388,546.818,134.29,531.078,128.64z"/>
<path fill="#9BA7A4" d="M531.078,162.187c7.693-0.24,12.272,2.635,16.771,5.59c-3.383,13.388-8.036,25.51-5.588,44.729
	c-3.729,0-7.455,0-11.184,0c0-3.728,0-7.455,0-11.182C531.078,188.278,531.078,175.233,531.078,162.187z"/>
<path fill="#B3BBB5" d="M111.745,167.777c15.441-15.266,5.25,8.19,16.773,11.183c-0.087,14.823,3.102,32.921-11.182,33.546
	C108.863,196.767,119.208,189.567,111.745,167.777z"/>
<path fill="#E1CECB" d="M122.928,268.417c7.681-12.747-14.415-21.017,0-22.364c15.179-3.997-3.997,26.36,11.183,22.364
	c0,13.045,0,26.092,0,39.138c1.863,0,3.727,0,5.591,0c-1.063,4.528-5.606,5.577-5.591,11.182
	c-6.552-0.903-4.718-10.192-5.592-16.773C125.301,292.136,135.275,269.116,122.928,268.417z"/>
<path fill="#E1CECB" d="M525.486,246.053c-0.734-13.781-0.845-26.936,5.592-33.547c3.729,0,7.455,0,11.184,0
	c-0.76,34.042-7.573,47.372,0,78.276c-1.867,0-3.729,0-5.592,0c-1.275-9.909,5.633-27.999-11.184-22.365
	C529.359,258.56,531.66,251.105,525.486,246.053z"/>
<path fill="#828886" d="M122.928,268.417c12.347,0.699,2.373,23.718,5.591,33.546c-4.528-1.063-5.577-5.605-11.182-5.591
	C120.395,288.248,110.806,267.479,122.928,268.417z"/>
<path fill="#B3BBB5" d="M128.519,301.964c0.874,6.581-0.96,15.871,5.592,16.773c-0.015-5.605,4.528-6.654,5.591-11.182
	c13.366,3.407,40.564-7.018,44.729,5.591c-1.863,0-3.728,0-5.591,0c-3.728,0-7.455,0-11.182,0
	c-56.792-5.708,34.318,25.102-5.591,33.547c-4.979-2.475-10.002-4.907-11.182-11.182c-8.78,2.402-4.776,17.589-22.365,11.182
	c0-1.864,0-3.728,0-5.591c6.552-0.903,4.718-10.192,5.592-16.773c-5.439,0.153-4.339,6.843-5.592,11.183
	c-13.395,2.213,3.102-25.466-16.773-16.773c1.762-7.557,7.958-10.68,5.592-22.364C122.942,296.359,123.991,300.901,128.519,301.964z
	"/>
<path fill="#9BA7A4" d="M542.263,385.83c-7.508-3.676-10.414-11.953-11.184-22.364c8.993,0.391,16.194-1.007,21.166-4.644
	c-0.421-3.808-0.806-7.62-1.168-11.435c-14.923,3.038-21.025-24.476-8.815-28.651c-4.696-6.486-7.377-14.99-5.592-27.955
	c-1.275-9.909,5.632-27.999-11.184-22.365c0,11.183,0,22.365,0.002,33.546c13.199,16.184-8.408,32.411-5.592,44.729
	c-10.774-26.15-23.384,11.044-39.138-5.591c-3.405,0.32-6.619,0.837-5.59,5.591v5.591c3.231,18.44,21.111,8.015,33.547,5.591v5.591
	c-0.321,3.408-0.838,6.618-5.592,5.592c7.416,22.626,14.813,1.717,11.182-16.773c15.25,4.07,11.255-11.109,22.365-11.182
	c-0.015,5.605,4.526,6.654,5.592,11.182c-21.864,5.351-17.436,40.134,0,50.319c0.771-10.41,3.677-18.688,11.181-22.365v-5.59
	C546.62,375.282,540.208,376.322,542.263,385.83z"/>
<path fill="#EBE8E9" d="M424.848,329.919c12.461-13.803,48.127-33.641,67.093-22.364c-22.3-5.526-16.839,16.708-39.138,11.182
	C468.279,342.71,433.902,313.67,424.848,329.919z"/>
<path fill="#563233" d="M178.839,346.693c3.275-19.634-26.427-18.39-11.182-33.547c3.727,0,7.455,0,11.182,0
	C186.191,322.93,209.997,344.997,178.839,346.693z"/>
<path fill="#828886" d="M162.065,346.693c39.91-8.445-51.2-39.255,5.591-33.547c-15.245,15.157,14.458,13.913,11.182,33.547
	c0,1.863,0,3.727,0,5.591C173.626,355.705,158.214,365.294,162.065,346.693z"/>
<path fill="#5F5A5A" d="M475.168,346.693c-9.838-1.347-12.748-9.617-11.184-22.365c11.422-4.019,22.123-17.53,33.547-5.591
	c1.66,14.705-21.697,4.397-16.773,22.364C477.352,341.422,474.139,341.939,475.168,346.693z"/>
<path fill="#B3BBB5" d="M424.848,329.919c9.056-16.249,43.433,12.791,27.955-11.182c22.299,5.525,16.838-16.708,39.138-11.182
	c1.864,0,3.729,0,5.592,0c17.821-4.776,21.221,4.871,27.955,11.182c0-5.591,0-11.182,0-16.773
	c13.198,16.184-8.408,32.411-5.593,44.729c-10.772-26.15-23.383,11.044-39.137-5.591c-4.924-17.967,18.435-7.659,16.773-22.364
	c-11.424-11.939-22.125,1.572-33.547,5.591c-1.564,12.748,1.346,21.018,11.184,22.365c0,1.863,0,3.727,0,5.591
	c-3.729,0-7.455,0-11.184,0c-8.168-4.877-21.65-4.441-16.773-22.364c-12.748-1.565-21.018,1.347-22.363,11.182
	c6.129,21.965,24.066,19.241,39.138,16.773c-0.845,17.618,31.188,2.359,22.364,27.955c11.4-3.508,1.57-28.246,22.365-22.364
	c-0.322,3.408-0.838,6.618-5.592,5.592c-5.439,0.153-4.34,6.844-5.592,11.182c0,3.728,0,7.456,0,11.182
	c-20.152-1.514-38.672-1.397-33.547,22.364c-4.979,2.476-10.004,4.907-11.183,11.183c-5.688-3.633-5.781-12.855-16.772-11.183
	c15.369-8.088,10.948-18.57-5.59-22.364c1.637-3.428,13.903-21.52,0-22.364c1.569-9.028-5.287-9.625-5.593-16.773
	c-6.201,10.571-13.948,19.598-16.772,33.546c-28.131-3.559,33.518-34.252-11.183-39.137
	C403.729,338.619,418.229,338.211,424.848,329.919z"/>
<path fill="#828886" d="M548.854,322.435c-1.639-1.792-3.707-3.155-6.594-3.698c-12.21,4.176-6.107,31.69,8.816,28.651
	C550.288,339.067,549.6,330.738,548.854,322.435z"/>
<path fill="#9BA7A4" d="M111.745,318.737c19.875-8.693,3.378,18.986,16.773,16.773c1.252-4.339,0.153-11.03,5.592-11.183
	c-0.874,6.582,0.96,15.871-5.592,16.773c-23.492,4.011-14.08,18.243,0,22.364c-17.835,4.791-17.29-8.801-27.955-11.182
	c-0.735-13.781-0.844-26.937,5.591-33.546C108.018,318.737,109.882,318.737,111.745,318.737z"/>
<path fill="#B3BBB5" d="M195.612,352.284c8.343,26.77,17.662-8.263,27.956,5.591c-0.153,5.438-6.843,4.339-11.183,5.591
	c-0.909,6.501,1.23,9.944,5.591,11.183c2.366,11.684-3.829,14.807-5.591,22.363c1.026,4.754-2.184,5.271-5.59,5.593
	c-3.997,15.178,26.36-3.996,22.364,11.182c2.053,9.508-4.361,10.549-11.182,11.183c-1.864,0-3.727,0-5.591,0
	c-4.484,19.395,8.329,21.491,5.591,39.139c19.918,1.272,29.237-8.037,27.956-27.956c5.336-9.572,18.556-11.264,22.364-22.364
	c4.98-2.475,10.003-4.906,11.183-11.182c-4.958-11.7-31.217,1.798-27.956,16.771c0,1.864,0,3.729,0,5.592
	c-9.835-1.346-12.748-9.615-11.182-22.363c0-1.863,0-3.729,0-5.593c8.853-0.467,21.323,2.688,22.365-5.591
	c11.619-3.131,11.844-8.721,5.59-16.772c13.178-28.123,21.636-4.544,50.32-5.591c0,1.863,0,3.727,0,5.591
	c-4.754-1.027-5.271,2.184-5.591,5.59c-5.592,0-11.183,0-16.773,0c-8.284,18.244,31.429,16.153,11.183,27.956
	c-4.17,16.329-37.899,3.101-27.955,33.547c-20.894-11.91-32.623-0.188-27.956,27.955c0,1.864,0,3.728,0,5.591
	c-11.757-12.274-24.854-1.157-33.546,5.592c-10.388-10.112-12.77-28.231-16.773-44.729c-4.98,4.348-12.624,6.014-22.364,5.592
	c-7.695,5.6,2.387,9.216-11.182,16.772c-3.728,0-7.455,0-11.183,0c-1.179-9.565,9.53-14.479,0-16.772
	c-1.383-6.071-11.117-3.793-11.182-11.182c-1.572-9.028,5.285-9.627,5.591-16.774c4.499-2.955,9.079-5.831,16.773-5.591
	c-0.852,17.625,22.669,10.877,27.955,22.365c16.847-10.105-15.893-17.124-5.591-39.14c-9.319,0-18.637,0-27.956,0
	c0-1.863,0-3.726,0-5.591c2.723-17.777,31.959-9.041,27.956-33.546C191.884,352.284,193.748,352.284,195.612,352.284z"/>
<path fill="#9BA7A4" d="M206.794,335.511c3.079,12.397-10.68,7.964-11.183,16.773c-1.864,0-3.728,0-5.591,0
	c-13.163,15.717-44.918-1.893-33.547,16.773c-4.979,2.475-10.003,4.906-11.182,11.182c-7.222-10.141,3.895-27.103-16.773-33.546
	c17.588,6.407,13.584-8.78,22.365-11.182c1.18,6.275,6.203,8.707,11.182,11.182c-3.852,18.601,11.561,9.012,16.773,5.591
	c0-1.864,0-3.728,0-5.591c31.158-1.696,7.352-23.763,0-33.547c1.863,0,3.728,0,5.591,0c0.902,6.552,10.192,4.718,16.773,5.591
	C200.722,326.672,200.278,334.572,206.794,335.511z"/>
<path fill="#828886" d="M463.984,357.875c-15.07,2.468-33.009,5.192-39.138-16.773c1.347-9.835,9.615-12.747,22.363-11.182
	c-4.877,17.923,8.605,17.487,16.773,22.364C463.984,354.147,463.984,356.012,463.984,357.875z"/>
<path fill="#828886" d="M234.75,335.511c1.863,0,3.728,0,5.591,0c-2.352,10.694-2.023,24.067-16.773,22.364
	c-10.294-13.854-19.612,21.179-27.956-5.591c0.502-8.809,14.261-4.375,11.183-16.773c0-1.864,0-3.728,0-5.591
	C219.76,328.135,228.263,330.815,234.75,335.511z"/>
<path fill="#E1CECB" d="M240.34,335.511c3.408,0.32,6.618,0.837,5.591,5.591c-11.088,11-3.56,31.937,0,44.728
	c-15.179,5.213-13.083-34.5-27.956-11.181c-4.361-1.239-6.5-4.682-5.591-11.183c4.339-1.252,11.029-0.152,11.183-5.591
	C238.317,359.578,237.989,346.205,240.34,335.511z"/>
<path fill="#828886" d="M128.519,363.465c-14.08-4.121-23.492-18.353,0-22.364c0,1.864,0,3.728,0,5.591
	c20.668,6.443,9.552,23.405,16.773,33.546c1.179-6.275,6.203-8.707,11.182-11.182c6.552,0.903,4.718,10.192,5.591,16.772
	c0,1.865,0,3.728,0,5.591c9.318,0,18.637,0,27.956,0c-10.302,22.015,22.438,29.033,5.591,39.139
	c-5.286-11.487-28.807-4.739-27.955-22.364c-7.695-0.24-12.274,2.636-16.773,5.591c-1.864,0-3.728,0-5.591,0
	c0-7.455,0-14.91,0-22.364c-5.489-15.666-14.917,8.118-22.364-5.591C122.214,375.798,129.771,374.036,128.519,363.465z"/>
<path fill="#828886" d="M251.522,346.693c17.473-2.563,17.873,11.946,16.773,27.956c6.254,8.051,6.028,13.642-5.59,16.772
	C257.303,381.542,233.825,361.165,251.522,346.693z"/>
<path fill="#B3BBB5" d="M100.563,352.284c10.666,2.381,10.12,15.973,27.955,11.182c1.252,10.57-6.304,12.333-5.591,22.364
	c-1.973,7.346-9.843,8.795-11.183,16.773c-1.026,4.755,2.185,5.271,5.592,5.592c26.434,12.624,5.343,41.276,0,67.093
	C114.134,420.454,99.217,411.66,100.563,352.284z"/>
<path fill="#E1CECB" d="M156.474,369.057c-11.371-18.666,20.384-1.056,33.547-16.773c4.004,24.505-25.233,15.769-27.956,33.546
	C161.192,379.25,163.026,369.96,156.474,369.057z"/>
<path fill="#E1CECB" d="M408.074,385.83c2.824-13.948,10.572-22.975,16.772-33.546c0.306,7.148,7.162,7.746,5.593,16.773
	C409.174,360.837,429.34,394.05,408.074,385.83z"/>
<path fill="#E1CECB" d="M463.984,357.875c0-1.863,0-3.727,0-5.591c3.729,0,7.455,0,11.184,0c3.23,18.44,21.111,8.015,33.547,5.591
	c0,1.864,0,3.728,0,5.591c-20.795-5.882-10.965,18.856-22.365,22.364C495.172,360.233,463.141,375.493,463.984,357.875z"/>
<path fill="#828886" d="M497.531,380.239c1.252-4.338,0.151-11.029,5.592-11.182c7.416,22.625,14.813,1.717,11.182-16.773
	c15.25,4.07,11.254-11.109,22.365-11.182c-0.016,5.605,4.525,6.654,5.592,11.182c-21.865,5.351-17.436,40.134,0,50.319
	c-1.647,11.399-15.131,10.966-16.774,22.364c-3.728,0-7.455,0-11.183,0c11.59-14.741,27.344-34.639-5.59-39.138
	C508.561,380.392,501.871,381.49,497.531,380.239z"/>
<path fill="#9BA7A4" d="M318.615,369.057c21.067-4.296,26.726,6.821,44.729,5.591c-5.002-19.525,18.236-9.552,22.363-5.591
	c-1.566-12.748,1.346-21.018,11.184-22.364c44.699,4.884-16.948,35.578,11.183,39.137c21.266,8.22,1.1-24.993,22.365-16.772
	c13.903,0.844,1.637,18.936,0,22.364c16.538,3.794,20.959,14.276,5.59,22.364c10.992-1.674,11.086,7.55,16.772,11.183
	c1.179-6.274,6.203-8.707,11.183-11.183c-3.422,5.213-13.011,20.625,5.592,16.773c1.863,0,3.729,0,5.592,0
	c-0.539,20.851-21.826,0.378-22.365,11.183c-12.893-1.712-6.211,16.154-16.772,16.772c-4.166-17.211,15.348-10.746,11.182-27.955
	c-9.195-7.156-30.336-14.48-39.137-5.592c-2.287,13.467,10.213,12.15,5.59,27.955c-10.338,0.845-3.43,18.937-11.18,22.364
	c-4.98-3.438-10.006-6.756-11.185,0c-4.528-1.063-5.576-5.605-11.184-5.591c-6.908,18.092,18.092,4.272,11.184,22.364
	c-10.557-8.082-24.783-12.492-22.362-33.547c7.454,0,14.907,0,22.362,0c1.063,4.528,5.605,5.576,5.592,11.183
	c11.095-10.57,9.527-19.6,5.593-33.547c-14.619-6.537-24.056,17.254-22.367-5.591c-3.953-14.685-26.238-11.036-33.546-22.364
	c-1.864,0-3.729,0-5.592,0c5.104-23.74-9.129-28.145-22.364-33.546C318.615,372.784,318.615,370.92,318.615,369.057z
	 M408.074,408.194c-13.949,3.981-22.976-24.606-33.545-5.592C381.283,411.529,404.674,428.17,408.074,408.194z"/>
<path fill="#9BA7A4" d="M251.522,346.693c-17.698,14.472,5.78,34.85,11.183,44.728c-1.042,8.277-13.512,5.124-22.365,5.591
	c0,1.863,0,3.729,0,5.592c-13.184-8.21-10.403-11.8-27.956-5.592c1.762-7.557,7.958-10.68,5.591-22.363
	c14.873-23.318,12.777,16.394,27.956,11.181c-3.56-12.791-11.088-33.728,0-44.728C249.338,341.422,252.549,341.939,251.522,346.693z
	"/>
<path fill="#828886" d="M335.389,514.426c-2.612-11.933,7.986-10.65,16.773-11.184c4.879-21.65-24.41-9.137-16.773-33.546
	c10.774,10.352,4.42,10.243,22.365,5.591c0,9.318,0,18.638,0,27.955c-4.514,4.807-15.318,3.32-16.773,11.184
	c1.732,7.585,13.998,4.637,22.365,5.59c4.789,17.836-8.803,17.291-11.184,27.955c-17.609,2.702-4.187-25.633-16.773-27.955
	C335.389,518.152,335.389,516.288,335.389,514.426z"/>
<path fill="#5F5A5A" d="M313.024,380.239c0.32-3.406,0.837-6.618,5.591-5.59c13.234,5.402,27.469,9.806,22.363,33.546
	c-12.12-0.939-2.531,19.831-5.591,27.955c0,11.183,0,22.364,0,33.547c-7.637,24.409,21.652,11.896,16.773,33.546
	c-8.787,0.532-19.387-0.749-16.773,11.184c-12.93-20.618-1.95-65.143-5.591-95.05c-10.091,28.247-11.167,85.221-5.592,123.005
	c-9.354,7.417-18.731,14.814-39.137,11.183c-0.939-12.122,19.831-2.534,27.957-5.593c3.917-17.209,3.917-10.745,0-27.955
	c4.068-15.251-11.109-11.254-11.183-22.362c12.807-4.288,24.433-38.505,11.183-50.32c11.648-9.799,0.183-29.987-11.183-16.771
	c-11.109,0.07-7.112,15.251-22.364,11.182c-9.945-30.446,23.784-17.218,27.955-33.547c0.152,5.438,6.844,4.339,11.183,5.591
	c1.571-14.618-2.038-24.053-16.773-22.364C303.226,385.35,312.959,387.628,313.024,380.239z"/>
<path fill="#828886" d="M279.479,441.741c15.251,4.068,11.254-11.11,22.364-11.183c-3.13,8.052-8.722,13.643-16.773,16.772
	c-23.9-5.263-15.127,22.146-33.546,22.364C246.855,441.553,258.584,429.831,279.479,441.741z"/>
<path fill="#828886" d="M307.434,408.194c20.246-11.803-19.467-9.712-11.183-27.957c5.591,0,11.183,0,16.773,0
	c-0.065,7.389-9.799,5.111-11.183,11.182c14.735-1.688,18.345,7.746,16.773,22.364C314.276,412.533,307.586,413.632,307.434,408.194
	z"/>
<path fill="#828886" d="M497.531,391.421c-3.422,4.835-31.357,12.289-11.183,22.364c1.56-12.958,14.931-12.851,22.365-5.591
	c0-1.864,0-3.729,0-5.592c5.438,0.153,4.338,6.845,5.59,11.183c-17.801-8.452-37.317-0.226-44.729,16.773
	c-18.603,3.852-9.015-11.562-5.592-16.773C458.859,390.023,477.379,389.907,497.531,391.421z"/>
<path fill="#9BA7A4" d="M497.531,458.515c1.063-6.349,5.604-3.103,5.592,0c1.557-8.822-7.012-20.006,11.182-33.547
	c3.728,0,7.455,0,11.183,0c2.401,10.65,12.041,14.043,11.184,27.955c-4.529-1.063-5.576-5.604-11.184-5.591
	c-0.48,7.936-0.927,15.834,5.592,16.773c-1.349,9.835-9.619,12.747-22.363,11.182c-1.274,9.909,5.633,28-11.184,22.365
	c5.487,15.667,14.916-8.117,22.362,5.59c0,1.864,0,3.729,0,5.592c-5.219,4.098-8.467,10.171-11.18,16.773
	c-2.041-12.871-24.479-5.345-22.365-22.365c-11.11,0.074-7.112,15.253-22.364,11.184c-1.574-9.027,5.284-9.626,5.592-16.772
	c0-1.864,0-3.729,0-5.591c2.475-8.127,4.906,0.566,11.182,0c1.863,0,3.728,0,5.592,0c0,1.862,0,3.727,0,5.591
	C498.076,495.891,506.303,462.285,497.531,458.515z"/>
<path fill="#B3BBB5" d="M536.669,452.923v49.287c1.226-3.11,2.584-6.182,4.014-9.285c0.106-0.231,0.209-0.465,0.315-0.696
	c-3.223-42.835,16.438-62.789,12.443-106.398v-5.591c-7.504,3.677-10.41,11.954-11.182,22.364
	c-1.647,11.399-15.13,10.966-16.774,22.364C527.888,435.618,537.526,439.011,536.669,452.923z"/>
<path fill="#9BA7A4" d="M122.928,385.83c7.448,13.709,16.875-10.075,22.364,5.591c0,7.454,0,14.909,0,22.364
	c1.864,0,3.728,0,5.591,0c-0.306,7.147-7.164,7.746-5.591,16.773c-5.497-7.478-24.192-48.995-27.955-22.364
	c-3.407-0.319-6.618-0.837-5.592-5.592C113.085,394.625,120.955,393.176,122.928,385.83z"/>
<path fill="#828886" d="M374.529,402.604c10.569-19.016,19.596,9.573,33.545,5.592C404.674,428.17,381.283,411.529,374.529,402.604z
	"/>
<path fill="#828886" d="M413.664,452.923c4.623-15.805-7.877-14.488-5.59-27.955c8.801-8.89,29.94-1.564,39.137,5.592
	c4.166,17.21-15.348,10.744-11.182,27.955C424.344,460.881,421.223,454.685,413.664,452.923z"/>
<path fill="#5F5A5A" d="M240.34,402.604c-1.565,12.748,1.347,21.02,11.182,22.364c0-1.862,0-3.728,0-5.592
	c9.028,1.573,9.624-5.284,16.773-5.591c-3.808,11.102-17.027,12.792-22.364,22.364c-15.805,4.624-14.488-7.877-27.956-5.591
	c0-1.863,0-3.729,0-5.592c6.821-0.634,13.235-1.675,11.182-11.183c3.997-15.178-26.36,3.996-22.364-11.183
	c3.407-0.319,6.617-0.838,5.59-5.592C229.937,390.802,227.156,394.392,240.34,402.604z"/>
<path fill="#828886" d="M251.522,419.376c-3.261-14.975,22.998-28.472,27.956-16.772c-1.18,6.275-6.203,8.707-11.183,11.183
	C261.146,414.092,260.55,420.949,251.522,419.376z"/>
<path fill="#828886" d="M340.979,408.194c1.864,0,3.729,0,5.593,0c-2.651,17.559,6.975,22.845,16.773,27.955
	c0,1.863,0,3.728,0,5.592c-9.887-4.907-16.321-17.722-27.957-5.592C338.447,428.025,328.858,407.255,340.979,408.194z"/>
<path fill="#5F5A5A" d="M346.571,408.194c7.308,11.328,29.593,7.681,33.546,22.364c-6.07,1.384-3.791,11.116-11.18,11.183
	c-1.865,0-3.729,0-5.593,0c0-1.864,0-3.729,0-5.592C353.546,431.039,343.92,425.753,346.571,408.194z"/>
<path fill="#B3BBB5" d="M469.576,430.56c7.41-16.999,26.928-25.227,44.729-16.773c-1.252-4.338-0.151-11.028-5.59-11.183
	c0-5.592,0-11.183,0-16.773c32.935,4.5,17.18,24.396,5.59,39.138c-18.192,13.541-9.625,24.725-11.182,33.547
	c0.014-3.103-4.529-6.349-5.592,0c-1.863,0-3.728,0-5.592,0c-1.863,0-3.728,0-5.591,0c1.025-4.754-2.186-5.271-5.592-5.592
	c1.973-7.346,9.842-8.794,11.183-16.772c-0.902-6.554-10.193-4.719-16.771-5.591C473.305,430.56,471.439,430.56,469.576,430.56z"/>
<path fill="#563233" d="M313.026,553.563c16.445,9.646-5.263,57.447,11.182,67.094c-0.066,7.39-9.799,5.11-11.182,11.181h33.547
	c-11.24-16.713-3.159-52.75-5.592-78.273c40.66,13.425,108.386,3.626,128.597,22.363c-5.846,26.937-19.848,24.046-11.182,55.91
	c-4.341,1.253-11.03,0.154-11.185,5.592c8.119,0.925,19.912-1.822,22.184,4.951c7.522,0.129,15.044,0.256,22.566,0.382
	c2.352-25.509-5.634-61.356,5.57-78.016c-43.092,0.225-73.297-12.436-117.414-11.184h-11.18
	c-25.134,2.767-38.966-5.765-33.55-33.547v-5.59c-12.93-20.618-1.949-65.143-5.591-95.05
	c-10.091,28.247-11.167,85.221-5.592,123.005c-9.354,7.417-18.731,14.815-39.137,11.182h-22.362
	c-34.77,2.506-63.643,10.906-100.64,11.184c7.739,23.839,1.912,52.326,4.177,71.179c0.325,0.026,0.649,0.059,0.974,0.086
	c1.71-0.355,3.477-0.534,5.282-0.511c7.847,0.102,15.691,0.271,23.535,0.473c6.391-22.515,0.028-38.345-0.421-71.228
	C222.462,567.429,277.835,560.135,313.026,553.563z"/>
<path fill="#828886" d="M452.803,441.741c0.539-10.806,21.826,9.668,22.365-11.183c6.578,0.872,15.869-0.963,16.771,5.591
	c-21.293,10.389-29.898,33.468-44.729,50.319c-5.438-0.151-4.338-6.844-5.59-11.183
	C456.943,465.998,444.299,460.648,452.803,441.741z"/>
<path fill="#828886" d="M245.932,436.149c1.281,19.919-8.037,29.229-27.956,27.956c2.737-17.646-10.075-19.744-5.591-39.139
	c1.864,0,3.728,0,5.591,0c0,1.863,0,3.729,0,5.592C231.444,428.272,230.127,440.773,245.932,436.149z"/>
<path fill="#828886" d="M380.117,430.56c-1.688,22.845,7.748-0.946,22.367,5.591c3.936,13.947,5.502,22.977-5.593,33.547
	c0.015-5.605-4.528-6.653-5.592-11.183c2.394-15.44-20.844-5.249-22.363-16.772C376.326,441.676,374.047,431.942,380.117,430.56z"/>
<path fill="#9BA7A4" d="M156.474,458.515c-1.863,0-3.728,0-5.591,0c-1.048,30.7,49.737,33.656,39.138,55.911
	c-20.741-25.845-27.126,16.503-50.32,0c10.17-22.735,15.244-37.158-11.183-44.729c-2.613-11.934,7.987-10.651,16.773-11.183
	c2.213-13.396-25.465,3.103-16.773-16.772c13.883-7.272,23.202,16.4,27.956,0C166.004,444.035,155.295,448.948,156.474,458.515z"/>
<path fill="#828886" d="M178.839,441.741c9.741,0.422,17.384-1.244,22.364-5.592c4.003,16.497,6.385,34.616,16.773,44.729
	C200.628,491.296,192.78,452.479,178.839,441.741z"/>
<path fill="#9BA7A4" d="M178.839,441.741c13.941,10.737,21.789,49.555,39.137,39.138c8.693-6.749,21.789-17.866,33.546-5.592
	c0-1.863,0-3.728,0-5.591c18.419-0.219,9.646-27.627,33.546-22.364c0,3.728,0,7.454,0,11.183
	c-18.433,0.196-21.374,15.899-22.364,33.547c-39.393,20.987-43.412,0.188-72.684,0c-8.336-8.519,6.683-34.74-22.364-33.547
	C181.226,450.957,171.144,447.341,178.839,441.741z"/>
<path fill="#B3BBB5" d="M436.029,458.515c10.563-0.618,3.881-18.484,16.772-16.772c-8.504,18.907,4.142,24.257-11.182,33.546
	c-8.271,6.479-14.094,6.479-22.365,0c-8.299,2.438,2.207,7.158,0,16.773c-5.592,0-11.182,0-16.771,0
	c-8.054-1.268-1.953-16.687-11.185-16.773c1.179-6.756,6.203-3.438,11.185,0c7.75-3.429,0.842-21.521,11.18-22.364
	C421.223,454.685,424.344,460.881,436.029,458.515z"/>
<path fill="#828886" d="M167.657,458.515c29.047-1.193,14.028,25.028,22.364,33.548c29.272,0.188,33.292,20.986,72.684,0
	c0.99-17.647,3.931-33.352,22.364-33.548c12.115,12.775,2.032,34.886-16.773,33.548c13.155,35.94-38.096,40.171-11.182,55.908
	c-23.653-0.378-13.235-12.783-5.591-22.362c-9.799,5.109-19.423,10.396-16.773,27.955c-36.968-8.19-33.205,7.833-72.684,5.592
	c-12.107-20.052-36.83-42.945-22.364-72.686c-1.383-6.07-11.116-3.793-11.183-11.183c-18.411,31.625,15.303,59.122,22.365,83.867
	c-23.689-15.448-35.331-42.945-33.546-83.867c5.343-25.815,26.434-54.469,0-67.093c3.763-26.63,22.458,14.888,27.955,22.364
	c0.065,7.39,9.799,5.11,11.182,11.183c-4.754,16.4-14.072-7.272-27.956,0c-8.692,19.875,18.987,3.378,16.773,16.772
	c-8.787,0.53-19.387-0.751-16.773,11.183c26.427,7.57,21.353,21.993,11.183,44.729c23.194,16.503,29.579-25.845,50.32,0
	c10.6-22.255-40.186-25.211-39.138-55.911c1.863,0,3.728,0,5.591,0C160.202,458.515,163.929,458.515,167.657,458.515z
	 M195.612,520.016c10.41-0.771,18.688-3.676,22.364-11.182c-10.25,0.291-18.928-28.653-27.955-11.182
	C206.285,502.515,196.311,506.023,195.612,520.016z M156.474,531.199c-1.252,10.568,6.305,12.331,5.591,22.362
	c11.182,0,22.364,0,33.546,0c-2.206-9.615,8.299-14.334,0-16.772c-1.434,11.612-24.563,1.528-27.955,11.182
	C164.948,541.368,161.694,535.297,156.474,531.199z"/>
<path fill="#828886" d="M313.024,447.332c13.25,11.815,1.624,46.032-11.183,50.32c-7.724-22.635,12.136-17.685,11.183-33.547
	c-2.438-8.301-7.156,2.204-16.773,0C287.559,444.231,315.238,460.728,313.024,447.332z"/>
<path fill="#828886" d="M262.705,547.971c10.338-0.844,3.429-18.935,11.182-22.362c21.315,12.085,11.394-11.241,39.137-5.593
	c3.917,17.211,3.917,10.746,0,27.955c-8.125,3.059-28.896-6.529-27.957,5.593c-7.455,0-14.909,0-22.364,0
	C262.705,551.699,262.705,549.835,262.705,547.971z"/>
<path fill="#828886" d="M402.484,492.063c-16.144,23.272,29.379,2.132,22.362,22.363c15.957-8.271,19.509-28.945,44.729-27.956
	c-4.428-19.336,6.217-23.603,11.182-33.547c3.406,0.321,6.617,0.838,5.592,5.592c-10.719,4.727-15.129,24.525-5.592,33.548
	c-6.274,0.566-8.707-8.127-11.182,0c-18.711-0.074-23.115,14.157-33.547,22.363c11.684-2.366,14.809,3.828,22.364,5.59
	c1.57-9.025-5.284-9.624-5.592-16.772c9.025,1.573,9.623-5.285,16.773-5.59c-0.308,7.146-7.166,7.745-5.592,16.772
	c15.252,4.069,11.254-11.108,22.364-11.184c-2.112,17.021,20.324,9.494,22.365,22.365c2.713-6.604,5.961-12.677,11.18-16.773
	c-1.426,44.147-46.452,56.071-72.684,44.729c4.135-12.392-20.602-23.034-22.363-11.183c-13.469-2.285-12.151,10.213-27.955,5.59
	c0.152-5.438,6.843-4.338,11.183-5.59c-6.523-10.251-14.619-18.928-22.365-27.955c4.34-4.973,6.014-12.624,5.592-22.363
	c6.908-18.093-18.092-4.273-11.184-22.365c5.606-0.016,6.654,4.527,11.184,5.591C400.531,475.375,394.432,490.794,402.484,492.063z
	 M458.395,531.199c-12.827,14.473,10.519,26.658,33.546,22.362c-0.814-7.433,18.805-20.806,5.592-22.362
	C492.064,553.811,468.65,545.745,458.395,531.199z"/>
<path fill="#828886" d="M536.67,452.923c0,9.318,0,18.638,0,27.956c-11.111-9.312-7.115,0.502-22.365,0
	c-2.367,11.686,3.83,14.809,5.59,22.363c-7.446-13.707-16.875,10.077-22.362-5.59c16.815,5.635,9.908-12.456,11.184-22.365
	c12.744,1.566,21.017-1.347,22.363-11.182c-6.519-0.939-6.072-8.839-5.592-16.773C531.094,447.317,532.141,451.86,536.67,452.923z"
	/>
<path fill="#5F5A5A" d="M480.758,492.063c-9.537-9.021-5.127-28.821,5.592-33.548c1.863,0,3.728,0,5.591,0
	c3.079,12.398-10.681,7.964-11.183,16.772c-0.656,5.723,24.119,11.313,5.592,16.773
	C484.484,492.063,482.621,492.063,480.758,492.063z"/>
<path fill="#828886" d="M491.939,458.515c1.864,0,3.729,0,5.592,0c8.771,3.771,0.545,37.376-11.183,39.139c0-1.864,0-3.729,0-5.591
	c18.527-5.462-6.248-11.053-5.592-16.774C481.26,466.479,495.02,470.913,491.939,458.515z"/>
<path fill="#B3BBB5" d="M391.301,458.515c-7.455,0-14.908,0-22.363,0c-2.42,21.055,11.808,25.466,22.363,33.548
	c0.422,9.739-1.252,17.392-5.592,22.363c7.746,9.027,15.842,17.704,22.365,27.955c-4.34,1.252-11.029,0.152-11.183,5.59
	c-1.864,0-3.729,0-5.592,0c-8.918-4.127,1.273-27.364-16.771-22.362c-11.111-0.073-7.115-15.253-22.367-11.183
	c1.063-4.528,5.606-5.578,5.592-11.184c0-9.317,0-18.637,0-27.955c-17.945,4.652-11.591,4.761-22.365-5.591
	c0-11.183,0-22.364,0-33.547c11.636-12.129,18.07,0.685,27.957,5.592c1.863,0,3.728,0,5.592,0
	C370.457,453.266,393.693,443.073,391.301,458.515z"/>
<path fill="#9BA7A4" d="M402.484,492.063c5.59,0,11.18,0,16.771,0c2.207-9.616-8.299-14.337,0-16.774
	c8.271,6.479,14.094,6.479,22.365,0c1.252,4.339,0.152,11.03,5.59,11.183c14.83-16.853,23.437-39.932,44.729-50.319
	c-1.341,7.979-9.209,9.428-11.183,16.772c-4.965,9.944-15.608,14.211-11.182,33.547c-25.222-0.989-28.771,19.687-44.729,27.956
	C431.863,494.193,386.342,515.335,402.484,492.063z"/>
<path fill="#5F5A5A" d="M501.586,642.917c-0.455-2.861-0.799-5.738-1.045-8.628c-5.051-21.716,1.793-37.753,2.582-63.953
	c8.545-28.727,24.232-50.312,33.547-78.274v-11.183c-11.111-9.312-7.115,0.502-22.365,0c-2.366,11.684,3.83,14.807,5.59,22.363
	v5.592c-1.426,44.148-46.453,56.072-72.684,44.729c-9.908-1.274-28,5.634-22.363-11.182c-13.469-2.285-12.152,10.213-27.955,5.59
	h-5.592c-4.34,1.253-11.029,0.154-11.184,5.592c44.117-1.252,74.322,11.409,117.414,11.184c-11.204,16.658-3.219,52.507-5.57,78.016
	C495.169,642.814,498.377,642.866,501.586,642.917z"/>
<path fill="#B3BBB5" d="M257.114,547.971c-26.915-15.737,24.337-19.968,11.182-55.908c18.805,1.338,28.888-20.771,16.773-33.548
	c0-3.729,0-7.455,0-11.183c8.052-3.131,13.644-8.722,16.773-16.772c11.365-13.215,22.832,6.975,11.183,16.772
	c2.214,13.396-25.465-3.101-16.773,16.773c9.618,2.204,14.335-8.301,16.773,0c0.954,15.862-18.906,10.912-11.183,33.547
	c0.073,11.108,15.251,7.111,11.183,22.362c-27.744-5.648-17.822,17.678-39.137,5.593c-7.753,3.429-0.844,21.52-11.182,22.362
	C260.841,547.971,258.978,547.971,257.114,547.971z"/>
<path fill="#5F5A5A" d="M150.882,570.337c12.187,11.303,2.775,44.205,5.589,64.88c3.259,0.201,6.516,0.438,9.77,0.708
	c-2.264-18.853,3.563-47.341-4.177-71.179c36.997-0.278,65.87-8.678,100.64-11.184v-5.592h-5.591
	c-23.653-0.378-13.235-12.782-5.591-22.362c-9.799,5.109-19.423,10.396-16.773,27.955c-36.968-8.19-33.205,7.833-72.684,5.592
	c-12.107-20.052-36.83-42.946-22.364-72.686c-1.384-6.071-11.117-3.793-11.183-11.183c-18.411,31.625,15.303,59.122,22.365,83.867
	C150.883,562.88,150.883,566.608,150.882,570.337z"/>
<path fill="#9BA7A4" d="M352.162,547.971c2.381-10.664,15.973-10.119,11.184-27.955c-8.367-0.953-20.633,1.995-22.365-5.59
	c1.455-7.863,12.261-6.377,16.773-11.184c0.016,5.604-4.529,6.653-5.592,11.184c15.252-4.071,11.256,11.108,22.367,11.183
	c-4.349,4.973-6.017,12.622-5.593,22.362C363.346,547.971,357.754,547.971,352.162,547.971z"/>
<path fill="#B3BBB5" d="M167.657,547.971c3.392-9.652,26.521,0.432,27.955-11.182c8.299,2.439-2.206,7.157,0,16.773
	c-11.182,0-22.364,0-33.546,0c0.713-10.032-6.844-11.795-5.591-22.363C161.694,535.297,164.948,541.368,167.657,547.971z"/>
<path fill="#5F5A5A" d="M335.389,520.016c12.588,2.322-0.836,30.657,16.773,27.955c5.592,0,11.184,0,16.775,0
	c0,1.864,0,3.729,0,5.592C343.805,556.329,329.973,547.798,335.389,520.016z"/>
<path fill="#828886" d="M374.529,525.607c18.045-5.002,7.854,18.235,16.771,22.362c-4.34,1.253-11.028,0.153-11.184,5.592
	c-3.726,0-7.453,0-11.181,0c0-1.862,0-3.728,0-5.592C368.514,538.23,370.182,530.58,374.529,525.607z"/>
<path fill="#EBE8E9" d="M150.883,634.909v-14.253c-5.272,1.203-5.455,7.497-5.397,14.031
	C147.286,634.748,149.085,634.823,150.883,634.909z"/>
<path fill="#E1CECB" d="M184.43,313.146c22.59,1.638,38.213,10.243,50.32,22.365c-6.487-4.696-14.99-7.375-27.955-5.591
	c0,1.863,0,3.727,0,5.591c-6.516-0.939-6.072-8.838-5.591-16.773C194.622,317.864,185.332,319.698,184.43,313.146z"/>
<path fill="#828886" d="M508.522,568.779c-0.017-1.18,0.331-1.995,0.921-2.568c6.002-16.238,14.898-31.228,22.413-46.908
	c0.31-1.747,0.644-3.488,1.039-5.213c0.945-4.119,2.257-8.031,3.774-11.882v-10.146c-9.314,27.961-25.002,49.546-33.547,78.273
	h4.871C508.167,569.815,508.343,569.297,508.522,568.779z"/>
<path fill="#9BA7A4" d="M447.211,553.563c-9.908-1.273-28,5.635-22.363-11.182C426.609,530.528,451.346,541.172,447.211,553.563z"/>
<path fill="#9BA7A4" d="M497.531,531.199c13.213,1.558-6.406,14.931-5.592,22.362c-23.027,4.296-46.373-7.891-33.546-22.362
	C468.65,545.745,492.064,553.811,497.531,531.199z"/>
<path fill="#828886" d="M156.473,635.218c-2.814-20.676,6.597-53.579-5.59-64.882v64.573
	C152.747,634.999,154.61,635.103,156.473,635.218z"/>
<path fill="#9BA7A4" d="M504.429,583.588c0.912-4.538,2.129-8.942,3.565-13.252c-1.625,0-3.248,0-4.871-0.001
	c-0.789,26.2-7.633,42.237-2.582,63.951C499.118,617.516,501.062,600.344,504.429,583.588z"/>
<path fill="#828886" d="M314.5,637.5c18.48,0.072,36.872,1.843,55.302,3.006c3.148-5.043,13.716-2.668,21.499-3.077
	c-4.164-12.608-31.363-2.184-44.729-5.592h-39.139c-1.041,8.279-13.512,5.126-22.365,5.592v0.769
	C294.877,637.87,304.688,637.461,314.5,637.5z"/>
</svg>
