<?xml version="1.0" encoding="utf-8"?>
<!-- Generator: Adobe Illustrator 15.0.0, SVG Export Plug-In . SVG Version: 6.00 Build 0)  -->
<!DOCTYPE svg PUBLIC "-//W3C//DTD SVG 1.1//EN" "http://www.w3.org/Graphics/SVG/1.1/DTD/svg11.dtd">
<svg version="1.1" id="Capa_1" xmlns="http://www.w3.org/2000/svg" xmlns:xlink="http://www.w3.org/1999/xlink" x="0px" y="0px"
	 width="612px" height="792px" viewBox="0 0 612 792" enable-background="new 0 0 612 792" xml:space="preserve">
<path fill="#D69B9F" d="M561.775,466.081v50.976c0.49-0.546,0.936-1.141,1.36-1.757C563.029,498.852,562.569,482.45,561.775,466.081
	z"/>
<path fill="#C88168" d="M509.795,179.079c38.459,120.263,61.636,305.153,34.654,456.898c-89.494,27.301-202.391-3.725-311.887,6.259
	c0.444,0.542,0.935,1.034,1.447,1.503c12.582,0.28,25.162,0.75,37.733,1.313c18.155,0.813,36.315,1.588,54.471,2.444
	c36.34-0.581,68.98,2.85,102.555,5.269c30.711,1.046,61.436,0.851,91.939-2.709c1.41-0.218,2.816-0.451,4.224-0.687
	c8.113-2.723,15.957-5.735,25.293-7.134c5.401-21.264,7.726-45.874,11.552-68.849c-1.021-6.83-0.174-13.052,1.158-18.86
	c0.159-11.238,0.254-22.477,0.236-33.716c-0.001-0.686-0.011-1.37-0.013-2.055c-0.427-0.566-0.882-1.133-1.382-1.699v-50.977
	c-0.981-20.228-2.461-40.407-4.396-60.568c-0.985-6.349-1.59-12.763-1.979-19.212c-1.166-10.61-2.45-21.219-3.85-31.829
	c-2.352-17.178-4.883-34.245-8.807-51.178c-2.658-11.475-5.389-23.219-7.206-35.049c-1.083-4.488-2.024-9.031-2.772-13.724
	c-3.343-20.956-5.512-42.819-12.649-62.962c-0.326-0.626-0.664-1.246-1.011-1.86c-5.454-4.78-9.746-10.559-12.653-16.878h-193.03
	c-28.879,0-57.757,0-86.636,0c-10.153,3.602-33.932-7.563-34.654,6.259C304.894,182.168,391.574,178.622,509.795,179.079z"/>
<path fill="#C88168" d="M129.5,648.445c11.89-1.594,23.843-2.753,35.784-3.546c-21.419-1.78-43.179-3.191-61.851-7.948
	c0.551,3.757,1.14,7.498,1.791,11.223C112.139,649.54,120.763,649.054,129.5,648.445z"/>
<path fill="#EBE8E9" d="M561.775,573.388c0.292-0.313,0.577-0.653,0.858-1.008c0.115-5.951,0.216-11.902,0.3-17.853
	C561.602,560.336,560.754,566.558,561.775,573.388z"/>
<path fill="#EBE8E9" d="M563.157,518.757c-0.004-1.152-0.014-2.304-0.021-3.456c-0.425,0.616-0.87,1.211-1.36,1.757
	C562.275,517.624,562.73,518.19,563.157,518.757z"/>
<path fill="#BF3333" d="M98.924,604.491c1.488,10.813,2.992,21.624,4.445,32.443c0,0,0,0,0.001,0
	c-0.521-3.878-1.042-7.757-1.563-11.635c0.526,3.896,1.059,7.781,1.626,11.651c18.672,4.757,40.43,6.168,61.847,7.949
	c4.497-0.299,8.993-0.552,13.483-0.75c7.063-0.313,14.128-0.494,21.194-0.594c6.088-5.62,24.11,1.693,32.604-1.32
	c109.496-9.984,222.393,21.042,311.887-6.26c26.982-151.744,3.805-336.635-34.654-456.897c-118.221-0.457-204.902,3.089-317.663,0
	c-15.64,3.237-21.661-3.949-32.108-6.339c-1.617,5.985-3.847,11.722-6.813,18.657c-2.298,5.373-5.103,10.498-8.125,15.495
	c-5.281,8.732-11.256,17.195-15.827,26.35c-7.931,20.938-13.585,42.282-16.973,64.445c-3.002,24.076-5.29,48.257-8.36,72.332
	c-3.331,26.123-6.641,52.277-8.427,78.561c-1.805,26.562-1.715,53.192-1.315,79.802C94.565,553.82,95.736,579.239,98.924,604.491z"
	/>
<path fill="#E1CECB" d="M358.507,649.137c23.354,1.306,46.823,2.831,70.3,3.63c-33.595-2.419-66.254-5.854-102.616-5.271
	C336.965,648.005,347.738,648.534,358.507,649.137z"/>
<path fill="#D69B9F" d="M234.01,643.739c-0.512-0.469-1.003-0.962-1.448-1.504c-8.494,3.014-26.518-4.3-32.605,1.321
	C211.307,643.398,222.66,643.486,234.01,643.739z"/>
</svg>
