<?xml version="1.0" encoding="utf-8"?>
<!-- Generator: Adobe Illustrator 15.0.0, SVG Export Plug-In . SVG Version: 6.00 Build 0)  -->
<!DOCTYPE svg PUBLIC "-//W3C//DTD SVG 1.1//EN" "http://www.w3.org/Graphics/SVG/1.1/DTD/svg11.dtd">
<svg version="1.1" id="Capa_1" xmlns="http://www.w3.org/2000/svg" xmlns:xlink="http://www.w3.org/1999/xlink" x="0px" y="0px"
	 width="612px" height="792px" viewBox="0 0 612 792" enable-background="new 0 0 612 792" xml:space="preserve">
<path fill="#FFFFFF" d="M683.271,427.086c17.424-2.701,19.493,9.948,38.645,5.521C720.594,440.588,676.48,445.438,683.271,427.086z"
	/>
<path fill="#EBE8E9" d="M248.451,721.127c49.685,0,99.37,0,149.056,0c-27.676,12.813-79.071,1.896-115.933,5.521
	c-7.361,0-14.722,0-22.082,0C255.208,725.413,248.602,726.497,248.451,721.127z"/>
<path fill="#EBE8E9" d="M348.479,58.659h26.947c13.924,0.618,29.851-0.767,44.427-0.801
	C399.968,55.188,375.045,56.276,348.479,58.659z"/>
<path fill="#EBE8E9" d="M176.684,64.18c35.792,13.178,108.447,0.162,171.794-5.521h-133.15
	C203.891,61.945,179.063,51.837,176.684,64.18z"/>
<path fill="#EBE8E9" d="M450.546,62.099c-8.217-3.428-19.021-4.268-30.693-4.24c12.499,1.679,22.995,4.852,30.663,10.119
	C450.286,66.03,450.308,64.056,450.546,62.099z"/>
<path fill="#828886" d="M175.094,82.211c7.685-6.863,18.181-10.707,31.076-12.722c-11.362-0.686-21.374-2.322-29.485-5.309
	c-0.061,0.07-0.115,0.145-0.175,0.216C176.251,70.37,175.771,76.308,175.094,82.211z"/>
<path fill="#828886" d="M206.169,69.489c15.646,0.944,33.863,0.078,53.249-1.582C238.957,67.261,220.98,67.175,206.169,69.489z"/>
<path fill="#828886" d="M452.551,75.001c-1.083-2.238-1.751-4.608-2.035-7.023c-33.281-22.864-120.025-6.153-191.098-0.071
	c19.941,0.631,42.239,1.792,66.32,1.792c46.944,0,107.686-10.521,126.918,10.773C452.556,78.651,452.516,76.827,452.551,75.001z"/>
<path fill="#232223" d="M481.742,244.582c-0.147-2.365-0.234-4.727-0.242-7.082c-0.021-6.142-0.176-12.288-0.623-18.415
	c-0.217-2.974-0.455-5.947-0.779-8.911c-0.131-1.191-0.266-2.382-0.407-3.572c-0.004-0.026-0.007-0.048-0.011-0.075
	c-1.842-12.048-4.912-23.69-7.64-35.543c-2.807-12.194-4.285-24.648-7.113-36.834c-4.099-17.657-11.285-35.598-12.272-53.699
	C433.407,59.176,372.673,69.7,325.738,69.7c-70.313,0-125.539-9.912-150.647,12.532c-3.47,30.196-11.936,59.536-20.499,88.692
	c-4.777,16.265-8.972,32.586-12.566,49.037c-0.31,14.283-2.63,28.614-5.044,42.642c-1.515,8.804-3.394,17.547-5.275,26.289
	c0.127,2.242,0.376,4.604,0.812,7.154v77.288c-4.32,24.563,7.354,33.131,5.521,55.205c9.409,95.482,11.249,198.53,38.644,276.028
	c22.737-4.333,28.329,8.474,49.686,5.521c47.658,9.385,109.807,4.283,165.616,5.521c13.094-6.37,33.352-5.573,48.151-10.233
	c0.866-35.269,6.372-70.552,12.834-105.044c8.273-44.162,18.941-87.902,25.466-132.378c4.708-39.241,3.24-78.212,1.388-117.646
	C478.161,314.906,477.393,279.637,481.742,244.582z"/>
<path fill="#5F5A5A" d="M440.137,705.375c-14.8,4.661-35.058,3.863-48.152,10.233h16.563c10.383-0.507,22.038,0.257,31.469-1.202
	C440.02,711.396,440.063,708.386,440.137,705.375z"/>
<path fill="#828886" d="M226.369,710.088c47.658,9.385,109.808,4.282,165.616,5.521c5.521,0,11.043,0,16.563,0
	c-1.223,4.297-4.621,6.418-11.041,5.519c-49.686,0-99.371,0-149.056,0C238.172,720.365,229.999,717.496,226.369,710.088z"/>
</svg>
