<?xml version="1.0" encoding="utf-8"?>
<!-- Generator: Adobe Illustrator 15.0.0, SVG Export Plug-In . SVG Version: 6.00 Build 0)  -->
<!DOCTYPE svg PUBLIC "-//W3C//DTD SVG 1.1//EN" "http://www.w3.org/Graphics/SVG/1.1/DTD/svg11.dtd">
<svg version="1.1" id="Capa_1" xmlns="http://www.w3.org/2000/svg" xmlns:xlink="http://www.w3.org/1999/xlink" x="0px" y="0px"
	 width="612px" height="792px" viewBox="0 0 612 792" enable-background="new 0 0 612 792" xml:space="preserve">
<path fill="#FFFFFF" d="M271.499,81.055c-7.342-0.816-14.681-1.66-22.017-2.526c-4.702,1.126-8.746,3.204-10.932,5.986
	c15.89-1.346,28.392,0.694,39.267,4.364C276.706,85.437,274.428,82.871,271.499,81.055z"/>
<path fill="#EBE8E9" d="M325.811,149.961c7.676,1.051,9.946,7.505,8.728,17.453c-4.363,0-8.728,0-13.091,0
	C319.602,158.296,324.436,155.858,325.811,149.961z"/>
<path fill="#000024" d="M373.805,328.845c13.39,20.821-6.431,45.807-4.364,69.81C357.716,379.498,377.287,354.263,373.805,328.845z"
	/>
<path fill="#000024" d="M303.996,376.838c7.017,25.888,34.091,69.377,34.903,104.713c-27.195,2.823-5.907,29.201-21.815,39.268
	C307.683,477.865,305.08,428.11,303.996,376.838z"/>
<path fill="#000024" d="M317.084,564.449c8.67,0.058,5.551,11.901,17.453,8.727c-22.061,3.988,13.811,31.809-8.728,21.814
	c1.868,15.583,10.96,23.944,21.814,30.541c-8.891,12.789-22.831-5.914-30.541-8.727
	C317.084,599.354,317.084,581.902,317.084,564.449z"/>
<path fill="#000024" d="M369.439,573.176c8.403,7.282,5.579,40.232,0,47.993C356.006,608.852,373.98,591.055,369.439,573.176z"/>
<path fill="#000024" d="M181.403,565.679c-0.917,21.974-0.534,43.938-0.011,65.983c14.208-3.639,23.108-11.337,23.431-25.581
	l0.585-9.578c-5.696-16.479-10.313-27.161-14.066-32.863C188.212,564.861,184.839,565.513,181.403,565.679z"/>
<path fill="#000024" d="M180.144,644.296c2.61,3.332,6.686,5.199,10.414,7.414c-2.597-9.038,5.391-28.66-4.363-30.541
	c0.167,6.477-2.4,10.217-6.662,12.264C179.738,637.048,179.947,640.668,180.144,644.296z"/>
<path fill="#000024" d="M190.557,708.43c9.635,0.545,1.852,18.508,4.362,26.18C178.854,738.625,186.989,711.594,190.557,708.43z"/>
<path fill="#000024" d="M378.46,344.639c-0.912,6.096-1.819,12.216-2.708,18.364C377.366,356.741,378.601,350.589,378.46,344.639z"
	/>
<path fill="#000024" d="M378.167,516.456c-2.568-35.31-12.579-69.529-8.728-104.713c1.804-16.482,3.994-32.705,6.313-48.74
	c-3.02,11.711-7.332,23.801-6.313,35.652c-11.724-19.157,7.848-44.392,4.364-69.81c3.244,5.044,4.527,10.334,4.656,15.794
	c12.293-82.125,25.413-159.891,4.07-242.67h-13.091c0.052,5.766,7.648,3.987,8.726,8.725c-17.94,16.963-60.594,9.214-78.534,26.177
	c19.412,3.227,40.187-14.827,52.356-4.363c11.475,11.407-8.772,13.373-8.728,26.178c27.28,16.407,26.06,72.644,0,87.261
	c8.833-35.739-37.625-32.501-30.541-65.445c-15.111,0.573-8.686,37.125-26.178,21.815c-34.636-15.873,4.505-58.719,8.726-65.446
	c-41.211,1.943-64.815-13.72-109.075-8.726c-42.245,109.869,36.914,271.187-3.947,391.41c-0.274,3.281-0.537,6.567-0.762,9.857
	c-0.253,16.642,1.973,30.803,3.645,45.519c0.159,0.488,0.313,0.974,0.478,1.468c1.868,5.596,2.357,10.955,1.038,16.209
	c0.371,7.544,0.339,15.491-0.452,24.196v4.363c9.754,1.881,1.766,21.503,4.363,30.541c-3.727-2.215-7.801-4.081-10.412-7.411
	c0.1,1.836,0.197,3.673,0.287,5.514c0.18,3.666,0.348,7.336,0.51,11.008c8.836,1.513,13.503,7.195,13.978,17.069
	c-5.92,0.877-10.349,0.263-13.318-1.812c1.154,26.821,2.433,53.694,6.021,80.261c17.449-1.337,17.917-12.401,37.837-4.28
	c12.619-74.142,0.308-175.286,8.727-270.507c5.511-62.366,26.741-131.596,26.178-183.247c-0.216-19.81-4.805-44.714,17.453-52.356
	c28.525,166.557,25.536,356.202,56.72,510.474c15.128-3.197,23.229-13.388,39.268-4.363c7.089-15.479,5.766-41.686-4.364-52.354
	C378.037,649.868,383.047,583.48,378.167,516.456z M194.919,734.608c-16.065,4.017-7.93-23.015-4.362-26.18
	C200.191,708.974,192.409,726.937,194.919,734.608z M264.729,180.503c-25.055,14.067-22.232,45.255-8.727,61.083
	c-3.788,49.85-20.73,67.093-26.178,109.076c-48.283-28.214-37.574-151.4-30.542-213.79c19.157-11.323,46.421,1.568,65.447,4.363
	C263.836,160.534,259.343,172.726,264.729,180.503z M338.899,481.551c-27.195,2.824-5.907,29.202-21.815,39.268
	c-9.401-42.953-12.004-92.708-13.088-143.98C311.012,402.726,338.086,446.215,338.899,481.551z M325.811,699.704
	c13.441-7.448,14.8,34.518,17.452,52.354C321.284,744.674,340.364,718.116,325.811,699.704z M325.811,673.524
	c0.961-14.048-7.715-18.462-4.363-34.904c14.203,3.25,13.266,21.641,21.815,30.542C341.912,675.082,332.338,672.781,325.811,673.524
	z M317.084,616.806c0-17.452,0-34.903,0.001-52.355c8.308,0.056,5.8,10.924,16.046,9.039c-19.041,4.927,14.704,31.268-7.32,21.502
	c1.868,15.583,10.959,23.944,21.814,30.541C338.734,638.321,324.794,619.618,317.084,616.806z M369.439,621.169
	c-13.434-12.317,4.541-30.114,0-47.993C377.843,580.458,375.019,613.408,369.439,621.169z"/>
<path fill="#EBE8E9" d="M225.46,101.969c37.626-5.028,98.282-8.698,135.255,0c-28.678,2.034-98.838-4.034-135.255,4.363
	C225.46,104.877,225.46,103.422,225.46,101.969z"/>
<path fill="#EBE8E9" d="M177.468,101.968c-12.27,20.5-14.297,51.244-16.234,82.078c0.997,3.473,1.487,7.144,1.893,10.419
	c0.323,2.613,0.531,5.232,0.694,7.853h0.559c1.25-24.928,2.034-50.323,8.726-69.809c4.982-13.925,4.505-33.308,30.541-26.178v-4.363
	H177.468z"/>
<path fill="#000024" d="M183.839,599.457c-0.712,1.236-1.583,2.16-2.543,2.822c1.25,2.482,2.855,7.205,4.899,14.525
	c0.791-8.709,0.823-16.659,0.452-24.206C186.069,594.901,185.149,597.184,183.839,599.457z"/>
<path fill="#000024" d="M181.487,529.354c-0.606,8.84-0.928,17.697-0.362,26.521c0.435,6.784,1.945,12.717,4.007,19.068
	C183.458,560.207,181.228,546.026,181.487,529.354z"/>
<path fill="#000024" d="M369.44,101.969h-8.726c-28.678,2.034-98.838-4.033-135.255,4.363v-4.363h-21.814v4.363h4.364
	c7.732,0.994,21.849-4.398,17.451,8.726c-3.681,0.55-24.599,16.326-39.266,4.362c-3.432,9.993-13.522,49.482-13.09,13.089
	c-6.692,19.486-7.476,44.881-8.726,69.809h-0.559c0.247,3.958,0.389,7.922,0.635,11.883c0.722-3.213,2.035-5.837,4.287-7.521
	c-10.692,69.666,35.125,192.944,21.815,261.782c-0.401,2.069-2.125,6.939-4.198,11.544c-0.035,1.295-0.097,2.593-0.2,3.895
	c-0.708,8.907-2.44,17.701-3.159,26.6c-0.244,3.017-0.503,6.041-0.756,9.068c40.871-120.224-38.294-281.551,3.951-391.422
	c44.26-4.994,67.865,10.669,109.075,8.726h4.364c17.94-16.963,60.594-9.214,78.534-26.177
	C377.088,105.956,369.492,107.735,369.44,101.969z M299.633,132.509c-17.549,3.005-24.905-4.181-39.268-4.363
	c3.722-22.457,38.467-13.891,56.719-21.815C314.222,118.011,304.587,122.92,299.633,132.509z"/>
<path fill="#B3BBB5" d="M173.104,132.509c4.982-13.924,4.505-33.308,30.541-26.178c1.455,0,2.909,0,4.363,0
	c7.732,0.994,21.849-4.397,17.451,8.726c-3.681,0.551-24.598,16.327-39.266,4.362C182.762,129.414,172.673,168.902,173.104,132.509z
	"/>
<path fill="#000024" d="M325.811,699.703c13.441-7.447,14.8,34.519,17.452,52.354C321.284,744.674,340.364,718.116,325.811,699.703z
	"/>
<path fill="#000024" d="M321.446,638.62c14.203,3.25,13.267,21.641,21.815,30.542c-1.352,5.92-10.925,3.619-17.452,4.362
	C326.771,659.477,318.096,655.063,321.446,638.62z"/>
<path fill="#000024" d="M181.602,676.104c2.974,2.061,7.409,2.659,13.318,1.784c-0.475-9.874-5.142-15.557-13.979-17.069
	C181.167,665.91,181.383,671.006,181.602,676.104z"/>
<path fill="#B3BBB5" d="M260.365,128.146c3.722-22.457,38.467-13.891,56.719-21.815c-2.862,11.68-12.497,16.588-17.451,26.178
	C282.084,135.514,274.728,128.328,260.365,128.146z"/>
<path fill="#000024" d="M168.742,206.681c-2.252,1.684-3.565,4.307-4.287,7.521c0.065,1.042,0.136,2.083,0.22,3.125
	c1.063,13.155,3.405,26.963,2.352,40.335c1.871,8.11,0.016,17.278,0.777,25.38c1.009,10.735,3.304,21.176,4.534,31.813
	c0.055,0.319,0.091,0.631,0.109,0.937c0.41,3.743,0.68,7.512,0.705,11.328c0.093,14.05-0.238,27.427,2.26,41.312
	c1.468,8.163,2.948,16.284,3.378,24.457c3.963,10.63,5.056,31.58,3.289,47.933c0.42,4.75,1.112,9.471,1.949,14.307
	c1.433,8.28,2.555,16.51,2.331,24.878c2.072-4.604,3.797-9.475,4.198-11.544C203.867,399.625,158.05,276.347,168.742,206.681z"/>
<path fill="#000024" d="M199.282,136.872c19.157-11.322,46.421,1.568,65.447,4.363c-0.893,19.298-5.386,31.49,0,39.268
	c-25.054,14.066-22.231,45.255-8.727,61.083c-3.789,49.851-20.73,67.093-26.178,109.076
	C181.541,322.448,192.25,199.262,199.282,136.872z"/>
<path fill="#000024" d="M295.269,136.872c1.456,0,2.909,0,4.364,0c19.412,3.227,40.188-14.827,52.356-4.363
	c11.476,11.408-8.771,13.373-8.728,26.178c27.28,16.407,26.06,72.644,0,87.261c8.833-35.74-37.625-32.501-30.541-65.445
	c-15.111,0.574-8.686,37.125-26.178,21.815C251.907,186.445,291.048,143.599,295.269,136.872z M321.446,167.414
	c4.363,0,8.728,0,13.091,0c1.22-9.947-1.052-16.401-8.728-17.453C324.436,155.858,319.602,158.296,321.446,167.414z"/>
<rect x="182.538" y="100.995" transform="matrix(1 -0.0026 0.0026 1 -0.2946 0.7456)" fill="#B3BBB5" width="198.193" height="21.408"/>
<line fill="none" stroke="#B3BBB5" stroke-miterlimit="10" x1="350.5" y1="126.213" x2="393.828" y2="202.318"/>
<line fill="none" stroke="#B3BBB5" stroke-miterlimit="10" x1="233.167" y1="126.213" x2="167.399" y2="198.5"/>
</svg>
