<?xml version="1.0" encoding="utf-8"?>
<!-- Generator: Adobe Illustrator 15.0.0, SVG Export Plug-In . SVG Version: 6.00 Build 0)  -->
<!DOCTYPE svg PUBLIC "-//W3C//DTD SVG 1.1//EN" "http://www.w3.org/Graphics/SVG/1.1/DTD/svg11.dtd">
<svg version="1.1" id="Capa_1" xmlns="http://www.w3.org/2000/svg" xmlns:xlink="http://www.w3.org/1999/xlink" x="0px" y="0px"
	 width="612px" height="792px" viewBox="0 0 612 792" enable-background="new 0 0 612 792" xml:space="preserve">
<path fill="#5F5A5A" d="M177.169,124.199c-0.539,7.977-1.097,15.954-1.624,23.932c0.313,7.855,0.875,15.706,1.613,23.527v-44.921
	C177.39,125.663,177.371,124.84,177.169,124.199z"/>
<path fill="#5F5A5A" d="M303.629,65.438c-2.04,5.102-5.974,8.31-4.16,17.267c15.566,0.555,14.598-7.633,11.952-16.978
	C308.823,65.637,306.226,65.54,303.629,65.438z"/>
<path fill="#828886" d="M369.924,676.482c1.635-25.54,1.576-51.041,1.576-76.621c0-3.997,0.006-7.993,0.01-11.99
	c-1.419,32.349-0.328,67.207-2.297,99.004C369.462,683.412,369.702,679.948,369.924,676.482z"/>
<path fill="#828886" d="M323.505,755.214c-2.519-1.349-5.487-2.249-9.358-2.246c0,0.493,0,0.986,0,1.479
	C317.266,754.72,320.385,754.976,323.505,755.214z"/>
<path fill="#232223" d="M413.138,90.306c-1.544-5.988-3.104-11.969-4.416-17.997c-2.587-1.559-2.484-5.808-1.966-10.475
	c-0.007-0.049-0.016-0.098-0.023-0.147c-31.519,5.092-63.44,5.135-95.311,4.039c2.646,9.345,3.614,17.533-11.952,16.978
	c-1.814-8.956,2.12-12.164,4.159-17.267c-5.759-0.227-11.516-0.479-17.267-0.736c-31.489-1.405-64.748-1.833-94.524-12.944
	c-1.735,1.666-3.346,3.752-4.823,6.362c-1.438,6.997-2.75,14.022-4.039,21.053c-0.687,17.11,1.371,36.963-5.822,47.563v44.887
	c0.938,9.939,2.156,19.831,3.542,29.618c0.081,0.571,0.112,1.138,0.118,1.701c0.895,2.418,1.734,4.854,2.469,7.32
	c5.854,19.651,8.58,40.724,11.859,60.942c2.563,15.805,4.999,31.733,6.713,47.717c3.216,8.033,5.701,16.295,7.526,24.365
	c3.771,16.67,5.77,33.759,6.616,50.869c0.435,3.858,0.817,7.706,1.191,11.516c0.191,1.946,0.375,3.895,0.555,5.843
	c1.705,10.521,2.951,21.5,3.444,33.233c7.467,30.245,9.484,65.941,9.86,103.276c0.264,2.228,0.521,4.454,0.766,6.684
	c2.03,18.499,2.521,36.861,2.758,55.448c0.088,6.876,0.25,13.75,0.435,20.623c2.502,6.138,1.546,15.732,0.784,25.134
	c0.344,9.916,0.692,19.832,0.992,29.748c9.791,13.565,0.778,45.931,4.231,65.833c14.695-0.534,29.387-0.854,44.052,0.164
	c8.667-39.878,4.315-92.762,3.984-141.635c-1.397-18.87-2.799-37.739-3.01-56.664c-0.368-33.025-0.04-66.071-0.04-99.098v-74.927
	c-1.68-19.937-2.478-42.172-2.41-64.318c-1.029-0.962-1.542-2.417-0.929-4.21c0.35-1.024,0.672-2.053,0.981-3.083
	c0.211-17.962,0.993-35.694,2.358-51.904V255.5c0-0.391,0.047-0.75,0.123-1.088c0.463-5.337,0.994-10.484,1.582-15.437
	c-0.009-4.997,0.098-9.975,0.445-14.915c0.002-0.036,0.005-0.075,0.008-0.111c-0.149-1.483-0.302-2.967-0.492-4.45
	c-0.219-1.713,0.429-2.908,1.465-3.592c0.344-1.556,0.827-3.054,1.521-4.416c1.9-4.828,6.107-7.348,13.706-6.477v3.833
	c2.203,3.25,2.639,7.907,2.469,12.403c0.003,0.019,0.008,0.034,0.011,0.053c0.586,3.912,0.923,7.825,1.11,11.74
	c1.443,0.604,2.561,1.912,2.551,3.957c-0.037,7.594-0.501,15.169-0.972,22.743c1.968,22.096-2.641,50.77-0.275,72.476
	c11.353,24.526,1.682,70.074,4.894,102.742V655.12c-3.155,21.301,6.382,55.307-4.894,68.495c-0.644,12.064-0.739,23.57,4.894,29.353
	c3.871-0.002,6.839,0.897,9.357,2.246c10.319,0.79,20.649,1.404,30.987,1.873c8.104-16.666,12.022-37.519,13.985-60.327
	c0.252-3.296,0.499-6.592,0.736-9.888c1.969-31.791,0.878-66.643,2.297-98.985c0.021-21.057,0.07-42.115-0.139-63.171
	c-0.118-11.907-0.224-23.874,0.898-35.741c0.271-2.86,0.55-5.738,0.856-8.622c-2.296-20.966,0.839-42.692,6.259-63.262
	c1.813-6.878,3.879-13.697,5.702-20.575c0.061-0.398,0.116-0.797,0.178-1.196c0.481-3.121,1.024-6.238,1.607-9.351
	c-0.119-3.255,0.196-6.075,1.577-7.83c0.836-3.854,1.753-7.694,2.757-11.513c0.411-2.462,0.81-4.926,1.19-7.394
	c0.251-8.007,1.126-15.392,2.895-21.884c2.652-21.515,5.224-43.039,8.625-64.457c2.126-13.385,4.982-26.521,8.882-39.328
	c0.25-5.601,1.302-11.173,3.056-16.505C418.423,175.497,415.85,131.718,413.138,90.306z"/>
<path fill="#5F5A5A" d="M408.722,72.31c-0.756-3.474-1.429-6.963-1.966-10.479C406.236,66.499,406.134,70.75,408.722,72.31z"/>
<path fill="#828886" d="M182.977,79.172c-1.461,7.969-2.905,15.941-4.475,23.885c-0.402,7.049-0.855,14.096-1.332,21.142
	c0.202,0.64,0.221,1.463-0.011,2.537C184.348,116.136,182.291,96.282,182.977,79.172z"/>
<path fill="#828886" d="M395.291,337.342c-1.77,6.496-2.646,13.887-2.896,21.899c0.313-2.034,0.628-4.067,0.923-6.104
	C393.99,347.874,394.643,342.608,395.291,337.342z"/>
<path fill="#828886" d="M220.012,445.125c0.199,5.627,0.254,11.257,0.28,16.887c0.298,2.983,0.595,5.967,0.897,8.949v-26.215
	c-0.493-11.743-1.741-22.731-3.448-33.26C218.775,422.675,219.615,433.905,220.012,445.125z"/>
<path fill="#B3BBB5" d="M388.449,378.137c-1.382,1.755-1.697,4.577-1.577,7.833C387.362,383.354,387.884,380.742,388.449,378.137z"
	/>
<path fill="#5F5A5A" d="M223.874,495.308c2.463,17.567,5.091,35.118,7.176,52.733c-0.376-37.342-2.393-73.044-9.861-103.295v26.215
	C222.012,479.089,222.871,487.21,223.874,495.308z"/>
<path fill="#5F5A5A" d="M235.792,655.929c0.762-9.409,1.721-19.015-0.785-25.155C235.233,639.159,235.501,647.545,235.792,655.929z"
	/>
<path fill="#B3BBB5" d="M291.326,210.291c2.089-3.187,6.577-6.555,10.487-4.003c1.047,0.684,1.871,1.564,2.548,2.563v-3.835
	c-7.593-0.871-11.799,1.645-13.702,6.465C290.867,211.074,291.078,210.669,291.326,210.291z"/>
<path fill="#5F5A5A" d="M287.913,251.89c-0.107-4.307-0.199-8.61-0.207-12.899c-0.587,4.945-1.118,10.085-1.58,15.413
	C286.386,253.258,287.056,252.427,287.913,251.89z"/>
<ellipse fill="#828886" cx="300.693" cy="74.084" rx="10.034" ry="8.827"/>
</svg>
