<?xml version="1.0" encoding="utf-8"?>
<!-- Generator: Adobe Illustrator 15.0.0, SVG Export Plug-In . SVG Version: 6.00 Build 0)  -->
<!DOCTYPE svg PUBLIC "-//W3C//DTD SVG 1.1//EN" "http://www.w3.org/Graphics/SVG/1.1/DTD/svg11.dtd">
<svg version="1.1" id="Capa_1" xmlns="http://www.w3.org/2000/svg" xmlns:xlink="http://www.w3.org/1999/xlink" x="0px" y="0px"
	 width="612px" height="792px" viewBox="0 0 612 792" enable-background="new 0 0 612 792" xml:space="preserve">
<path fill="#FFFFFF" d="M383.416,72.68c-13.459,3.182-16.049-4.501-26.422-4.404C357.67,54.549,383.932,59.808,383.416,72.68z"/>
<path fill="#FFFFFF" d="M431.678,112.313c0.586,4.203,1.196,8.405,1.787,12.613c0.19,1.359,0.363,2.717,0.541,4.075
	c5.057-2.726,5.253-10.313,6.656-16.688H431.678z"/>
<path fill="#E1CECB" d="M286.536,147.542c13.853-2.11,17.213,6.273,26.421,8.807c-8.905,13.658-6.869,28.475-17.614,30.826
	c21.978,20.814-0.126,13.498,13.209,30.825c-5.871,6.285-19.58,11.651-26.421,4.404
	C295.262,200.833,276.708,165.019,286.536,147.542z"/>
<path fill="#EBE8E9" d="M420.479,175.717c-0.166-7.509-0.5-14.968-1.022-22.41c-0.261-0.492-0.528-0.957-0.812-1.362v54.769
	C420.074,196.495,420.711,186.267,420.479,175.717z"/>
<path fill="#EBE8E9" d="M416.306,220.151c-2.261,3.047-2.822,7.793-2.741,13.182c0.708-3.728,1.518-7.422,2.308-11.051
	C416.027,221.57,416.158,220.861,416.306,220.151z"/>
<path fill="#EBE8E9" d="M297,235c0.309,0,0.62,0.025,0.93,0.064c-0.77-1.377-1.627-2.667-2.587-3.854
	c-1.455,1.367-2.462,3.181-3.157,5.309C293.491,235.567,295.109,235,297,235z"/>
<path fill="#FDFDFD" d="M491.061,275.614c4.17,15.917-17.345,6.141-26.422,8.808C465.665,268.046,480.258,272.082,491.061,275.614z"
	/>
<path fill="#FFFFFF" d="M401.029,394.145c8.446,9.164,20.785,14.439,17.614,35.23c-7.745-1.061-10.041-7.58-8.807-17.615
	C400.738,440.045,400.502,419.145,401.029,394.145z"/>
<path fill="#EBE8E9" d="M277.167,480.168c-0.506-3.878-1.123-7.698-1.577-11.535c-4.889,12.816-4.406,42.925,1.465,52.266
	c0.037-13.199,0.172-26.398,0.237-39.597C277.25,480.924,277.216,480.546,277.167,480.168z"/>
<path fill="#FFFFFF" d="M286.536,618.73c18.004,14.081,14.231,53.211,0,66.055C281.713,675.359,289.781,641.207,286.536,618.73z"/>
<path fill="#EBE8E9" d="M189.656,328.091c-19.186-66.547-25.207-176.019-8.808-251.007c35.229,0,70.458,0,105.688,0
	c-25.006,10.223-68.95,1.502-101.284,4.403C165.619,155.862,180.711,254.857,189.656,328.091z"/>
<path fill="#EBE8E9" d="M277.45,576.419c0-1.706-0.012-3.411-0.021-5.116c-12.39,40.016,4.303,109.117-8.508,148.711
	c-18.343,0.729-36.754,1.525-44.036-8.807c-3.228,21.422,39.042,13.898,48.44,8.807C282.898,680.348,275.67,623.88,277.45,576.419z"
	/>
<path fill="#EBE8E9" d="M317.361,711.207c0.168,0.214,0.36,0.401,0.537,0.606c0.087-1.641,0.169-3.29,0.233-4.966
	C317.882,708.302,317.638,709.757,317.361,711.207z"/>
<path fill="#EBE8E9" d="M319.174,660.791c-0.333,0.709-0.787,1.32-1.317,1.848c0.572,15.567,0.8,30.468,0.275,44.209
	c3.107-18.062,4.207-36.444,4.232-55.076C321.588,654.84,320.554,657.855,319.174,660.791z"/>
<path fill="#EBE8E9" d="M360.694,719.862c-1.002,0.281-2.216,0.352-3.7,0.151c-17.139,1.377-31.805,0.274-39.096-8.2
	c-0.147,2.78-0.317,5.528-0.537,8.2c11.209,4.415,26.021,5.215,42.374,4.479C360.029,722.942,360.351,721.399,360.694,719.862z"/>
<path fill="#EBE8E9" d="M366.971,696.907c0.161-0.548,0.311-1.1,0.469-1.649c-1.374,1.606-1.857,4.104-2.022,6.918
	C365.932,700.424,366.451,698.669,366.971,696.907z"/>
<path fill="#EBE8E9" d="M376.636,655.785c1.609-7.949,3.957-15.718,6.153-23.522c0.275-2.977,0.488-6.016,0.627-9.128
	c-6.579,18.408-12.847,37.145-13.2,61.78C372.635,675.268,374.67,665.495,376.636,655.785z"/>
<path fill="#EBE8E9" d="M408.185,285.648c-27.161,98.982-3.563,229.051-24.769,333.082c27.942-95.543,5.396-221.844,24.613-325.156
	C408.057,290.934,408.108,288.292,408.185,285.648z"/>
<path fill="#EBE8E9" d="M416.536,125.703c-0.838-5.782-1.694-11.565-2.466-17.357c-0.054,13.134,0.516,25.646,4.538,34.705
	C418.054,137.268,417.375,131.49,416.536,125.703z"/>
<path fill="#EBE8E9" d="M411.372,77.084H295.343v4.403c37.468,2.54,85.02-4.998,116.36,3.664
	C411.541,82.466,411.427,79.777,411.372,77.084z"/>
<path fill="#E1CECB" d="M418.608,143.047c-4.02-9.057-4.59-21.563-4.537-34.692c-1.028-7.712-1.899-15.441-2.368-23.204
	c-31.341-8.662-78.892-1.124-116.359-3.664v-4.403h-8.808c-25.006,10.223-68.951,1.502-101.284,4.403
	c-19.633,74.375-4.541,173.371,4.404,246.604c5.797,16.221,9.948,34.082,8.808,57.246c10.511,39-1.184,82.823-1.336,128.44
	c0.855,7.099,1.547,14.218,2.323,21.328c0.108,0.988,0.221,1.977,0.342,2.964c0.053,0.379,0.123,0.87,0.159,1.069
	c0.925,5.166,1.496,10.456,1.961,15.683c0.12,1.348,0.22,2.694,0.308,4.042c3.199,12.569,3.673,27.866,5.05,42.251
	c2.398,14.033,7.087,25.774,8.471,40.82c4.149,7.64,5.699,17.54,6.713,24.987c0.51,3.744,0.876,7.489,1.169,11.237
	c1.033,7.467,1.376,15.624,1.262,24.239v0.833c0.038,0.867,0.073,1.734,0.114,2.603c0.034,0.71-0.009,1.372-0.114,1.99v3.382
	c7.282,10.332,25.693,9.536,44.036,8.807c12.811-39.593-3.881-108.692,8.507-148.708c-0.051-9.926-0.226-19.845-0.32-29.774
	c-0.065-6.878-0.072-13.757-0.053-20.635c-5.87-9.341-6.354-39.444-1.465-52.263c-0.404-3.422-0.68-6.857-0.614-10.364
	c0.091-4.886,0.445-9.748,0.914-14.604c-0.18-10.616-0.042-21.244,0.11-31.831c0.077-5.301,0.959-10.705,1.968-16.138
	c-0.082-2.712-0.134-5.423-0.107-8.135c0.06-6.08,0.706-12.021,1.792-17.955c-0.125-0.651-0.184-1.35-0.153-2.106
	c0.474-11.663,0.722-23.543,0.481-35.21c-0.109-5.303-0.196-10.938,1.712-15.969c0.033-0.192,0.065-0.384,0.11-0.581
	c2.734-11.895,0.597-24.19,1.696-36.24c0.84-9.214,2.637-18.294,3.952-27.439c-0.527-2.193-0.179-4.096,0.724-5.626
	c0.113-0.978,0.231-1.955,0.324-2.935c0.271-2.855,1.564-5.431,3.687-6.98c0.694-2.128,1.702-3.942,3.157-5.31
	c0.961,1.187,1.818,2.477,2.588,3.854c3.87,0.486,7.685,3.898,7.582,7.99c2.041,1.333,3.485,3.588,3.485,6.779
	c0,28.594,0.044,57.206,0.969,85.785c0.932,1.393,1.514,3.081,1.698,4.882c1.729,16.851,2.347,33.777,3.556,50.667
	c1.141,15.943,3.576,31.691,5.174,47.584c1.992,19.815,2.769,39.839,1.175,59.662c1.048,7.539,0.218,15.487,0.695,23.017
	c1.023,16.166,3.32,32.174,3.4,48.404c0.012,2.353-0.766,4.196-1.988,5.539c0.061,2.891,0.098,5.784,0.095,8.685
	c-0.015,13.703,0.143,27.311,0.59,41.001c0.293,8.961,0.189,18.016-1.981,26.641c-0.021,20.158-1.302,40.023-5.02,59.508
	c7.098,9.049,22.08,10.217,39.633,8.807c1.484,0.2,2.697,0.13,3.699-0.151c1.329-5.938,2.993-11.797,4.725-17.692
	c0.165-2.812,0.648-5.305,2.02-6.91c0.986-3.427,1.908-6.879,2.778-10.349c0.354-24.634,6.621-43.368,13.2-61.776v-4.404
	c21.206-104.028-2.392-234.095,24.768-333.076c0.361-12.627,1.34-25.25,3.415-37.672c0.302-4.897,1.043-9.803,1.965-14.649
	c-0.081-5.388,0.48-10.134,2.741-13.182c0.933-4.494,1.714-8.966,2.339-13.436v-63.309
	C418.633,143.286,418.62,143.167,418.608,143.047z M286.536,85.891h13.211v13.211h-13.211V85.891z M295.344,187.175
	c21.978,20.814-0.127,13.497,13.209,30.825c-5.871,6.285-19.58,11.652-26.421,4.404c13.13-21.571-5.424-57.385,4.405-74.862
	c13.852-2.11,17.213,6.273,26.421,8.807C304.053,170.008,306.089,184.824,295.344,187.175z"/>
<path fill="#828886" d="M286.536,85.891c4.403,0,8.808,0,13.211,0c0,4.403,0,8.807,0,13.211c-4.403,0-8.808,0-13.211,0
	C286.536,94.698,286.536,90.294,286.536,85.891z"/>
</svg>
