<?xml version="1.0" encoding="utf-8"?>
<!-- Generator: Adobe Illustrator 15.0.0, SVG Export Plug-In . SVG Version: 6.00 Build 0)  -->
<!DOCTYPE svg PUBLIC "-//W3C//DTD SVG 1.1//EN" "http://www.w3.org/Graphics/SVG/1.1/DTD/svg11.dtd">
<svg version="1.1" id="Capa_1" xmlns="http://www.w3.org/2000/svg" xmlns:xlink="http://www.w3.org/1999/xlink" x="0px" y="0px"
	 width="612px" height="792px" viewBox="0 0 612 792" enable-background="new 0 0 612 792" xml:space="preserve">
<path fill="#9BA7A4" d="M282.73,76.646c-10.813,6.707-14.2,20.839-22.995,29.564c-32.712-6.707-64.569-14.269-75.553-42.704
	C211.283,42.283,245.51,77.639,282.73,76.646z"/>
<path fill="#9BA7A4" d="M400.988,63.507c-4.056,12.37-14.271,18.58-22.995,26.28c-11.116-3.79-5.167-6.528-19.709-3.286
	c-1.398,1.951,5.881,4.106,6.568,3.286c-20.043,23.935-60.44,6.159-78.838-9.855C324.527,75.068,371.398,57.155,400.988,63.507z"/>
<path fill="#9BA7A4" d="M263.021,142.345c-7.408,7.101,2.721,11.207,0,22.995c-5.085,6.98-1.984-21.883-16.424-16.424
	C247.08,141.733,254.873,141.862,263.021,142.345z"/>
<path fill="#9BA7A4" d="M203.892,158.77c-6.579,6.561-9.598,16.681-19.709,19.709C184.345,165.502,190.915,158.932,203.892,158.77z"
	/>
<path fill="#9BA7A4" d="M312.294,204.759c15.22,0.257,0.719,14.885,3.285,22.995C308.235,226.338,314.25,211.564,312.294,204.759z"
	/>
<path fill="#9BA7A4" d="M309.01,231.039c13.088,0.376,5.381,29.778-3.285,29.564C303.146,247.074,310.768,243.746,309.01,231.039z"
	/>
<path fill="#9BA7A4" d="M203.892,247.463c15.244,5.979-4.046,18.05-6.57,26.279C186.723,265.038,200.12,252.668,203.892,247.463z"/>
<path fill="#828886" d="M249.881,365.721c3.392,42.828-5.158,102.137-9.854,147.822C222.301,468.969,248.213,412.65,249.881,365.721
	z"/>
<path fill="#828886" d="M266.302,667.022c-0.789-101.349,10.472-196.739,6.574-294.731c-9.802,90.885-16.197,202.52-13.148,295.385
	C261.918,667.437,264.109,667.218,266.302,667.022z M269.591,418.28c6.086-7.981,2.215,21.651,3.284,29.563
	C266.789,455.824,270.66,426.193,269.591,418.28z M266.306,644.941c-6.823,3.387-1.702-33.223-3.285-45.99
	C269.843,595.562,264.723,632.171,266.306,644.941z"/>
<path fill="#828886" d="M194.037,378.86c9.017,71.237,4.525,169.873-3.285,243.085c-17.575-22.836-10.454-59.527-9.855-88.693
	C181.967,481.264,177.519,429.803,194.037,378.86z"/>
<path fill="#B3BBB5" d="M182.447,391.261c-2.237,12.59-5.948,24.956-9.993,37.251c-1.629,13.848-1.706,27.733,1.873,39.041
	C173.608,441.521,187.149,414.935,182.447,391.261z"/>
<path fill="#828886" d="M226.886,454.414c-0.034-8.725,1.241-18.76-3.285-22.994c-7.579,9.939-1.154,33.879-3.285,49.273
	c9.41-0.445-2.84-22.552,6.57-22.994c-7.604,66.221-8.4,138.801-19.709,206.951c6.814-91.736,4.534-192.563,16.424-279.22
	C229.136,401.85,234.611,435.666,226.886,454.414z"/>
<path fill="#828886" d="M351.714,388.715c5.949,82.607,5.907,187.669-3.284,266.08c-19.788-23.354-7.981-60.92-6.569-91.979
	C344.478,505.133,345.901,441.549,351.714,388.715z"/>
<path fill="#828886" d="M160.411,465.674c-1.274,4.45-2.442,8.91-3.441,13.39c-1.679,7.526-3.497,14.965-5.442,22.357
	c-0.349,15.244-0.279,31.23-0.195,48.257c1.617,23.549,4.898-7.314,3.285-16.426C154.33,514.835,157.245,490.13,160.411,465.674z"/>
<path fill="#5F5A5A" d="M269.591,418.279c6.086-7.98,2.215,21.651,3.284,29.563C266.789,455.824,270.66,426.193,269.591,418.279z"/>
<path fill="#5F5A5A" d="M226.886,454.414c0,1.094,0,2.188,0,3.285c-9.41,0.442,2.84,22.549-6.57,22.994
	c2.13-15.396-4.294-39.334,3.285-49.273C228.127,435.654,226.852,445.689,226.886,454.414z"/>
<path fill="#828886" d="M286.015,431.42c10.12,12.48-3.143,29.576,0,45.988c-0.624,3.729-3.292,1.822-3.284,0
	C280.16,458.414,287.495,449.324,286.015,431.42z"/>
<path fill="#828886" d="M325.434,441.273c11.447,63.44,8.709,168.186-9.854,223.377
	C305.737,601.668,327.223,517.641,325.434,441.273z"/>
<path fill="#828886" d="M397.703,447.844c13.14,5.476,3.729,33.5,6.569,49.273C391.133,491.643,400.543,463.617,397.703,447.844z"/>
<path fill="#828886" d="M377.993,457.699c15.51,41.377,8.884,107.194,0,151.104C372.441,566.008,372.63,500.527,377.993,457.699z"/>
<path fill="#5F5A5A" d="M263.021,598.951c6.822-3.389,1.702,33.221,3.285,45.99C259.483,648.328,264.604,611.719,263.021,598.951z"
	/>
<path fill="#EBE8E9" d="M196.039,329.292c3.084-6.909,5.022-14.208,4.568-22.701c-1.95,5-4.124,9.778-6.395,14.458
	C195.132,323.69,195.749,326.457,196.039,329.292z"/>
<path fill="#EBE8E9" d="M439.727,661.051c2.022-35.074-7.321-84.657-9.176-124.514c-0.695-14.992-5.066-61.951-6.568-39.42
	c1.171,57.646,5.736,111.897,10.979,165.47C436.561,662.113,438.148,661.595,439.727,661.051z"/>
<path fill="#FDFDFD" d="M236.741,30.658c-5.479-7.233,20.565,3.833,32.85,0c0.629,12.673-20.591,3.499-26.28,9.854
	C244.432,33.917,242.64,30.234,236.741,30.658z"/>
<path fill="#EBE8E9" d="M396.975,53.784c-2.158,0.333-4.156,1.292-5.842,3.153c3.656-1.068,5.75-0.575,7.433,0.331
	C397.974,56.136,397.439,54.975,396.975,53.784z"/>
<path fill="#EBE8E9" d="M411.78,126.181c0.544-1.74,1.092-3.479,1.644-5.216c1.081-10.009,2.993-19.974,4.505-29.917
	c0.639-5.617,1.028-11.268,0.783-16.907c-2.679-0.81-5.19-1.944-7.507-3.343C415.31,87.14,413.625,105.761,411.78,126.181z"/>
<path fill="#EBE8E9" d="M171.043,185.049c-10.155-34.916-18.196-81.388-9.855-124.828c8.521-3.524,16.108-7.981,29.565-6.57
	c-0.552,3.828-5.193,3.567-9.855,3.285c-8.17-0.505-10.171,5.158-16.425,6.57C154.772,107.601,168.001,144.223,171.043,185.049z"/>
<path fill="#B3BBB5" d="M398.565,57.269c-1.682-0.906-3.776-1.4-7.434-0.332c-12.271,3.511-9.362-8.157-19.709-6.57
	c-49.633,40.027-128.608,9.248-180.671,3.285c-0.552,3.828-5.192,3.567-9.855,3.286c-1.257,32.216,40.3,49.265,78.838,52.559
	c14.12-4.496,13.464-23.765,29.564-26.28c20.903,40.08,100.869,19.923,116.283-16.691C402.734,63.854,400.365,60.713,398.565,57.269
	z M259.736,106.211c-32.712-6.707-64.57-14.269-75.553-42.704c27.1-21.224,61.327,14.132,98.548,13.14
	C271.918,83.353,268.531,97.485,259.736,106.211z M377.994,89.786c-11.116-3.79-5.167-6.528-19.709-3.286
	c-1.399,1.951,5.881,4.107,6.568,3.286c-20.043,23.936-60.441,6.159-78.838-9.855c38.512-4.863,85.383-22.776,114.974-16.425
	C396.934,75.876,386.72,82.086,377.994,89.786z"/>
<path fill="#B3BBB5" d="M322.15,139.062c-20.339,47.55-13.273,122.505-32.851,170.817c-5.124-61.67-11.411-122.176-26.279-174.102
	c-37.485,11.788-89.784,8.764-88.693,59.128c3.67,42.32,16.964,75.015,26.279,111.688c0.455,8.492-1.484,15.791-4.568,22.7
	c0.311,3.03,0.251,6.136-0.202,9.248c4.598-7.64,8.483-15.994,11.339-25.378c23.329-0.778,51.357,9.076,72.269,0
	c0.094-48.282-18.885-94.977-13.14-137.967c12.704,39.856,11.318,93.8,19.709,137.967c13.943,3.078,63.873,2,89.247,2.8
	c-0.563-9.61-0.025-18.947,2.387-28.929c0.887-3.671,2.001-7.304,3.292-10.885c-19.304-44.744,12.891-75.786,10.192-110.808
	c2.983,2.786,5.452,6.084,7.899,9.405c0.14-0.732,0.278-1.466,0.422-2.194c0.288-1.459,0.596-2.913,0.905-4.366
	C385.722,147.048,354.456,142.535,322.15,139.062z M184.183,178.479c0.162-12.977,6.732-19.547,19.709-19.709
	C197.314,165.331,194.294,175.451,184.183,178.479z M197.322,273.742c-10.599-8.704,2.798-21.074,6.57-26.279
	C219.136,253.442,199.845,265.513,197.322,273.742z M263.02,165.34c-5.085,6.981-1.984-21.882-16.424-16.424
	c0.484-7.183,8.277-7.054,16.424-6.571C255.612,149.445,265.741,153.551,263.02,165.34z M305.725,260.603
	c-2.579-13.529,5.042-16.857,3.285-29.564C322.098,231.415,314.391,260.817,305.725,260.603z M315.579,227.753
	c-7.344-1.415-1.329-16.189-3.285-22.995C327.514,205.015,313.013,219.644,315.579,227.753z"/>
<path fill="#B3BBB5" d="M377.225,332.776c-1.296,0.67-2.406,1.524-2.514,3.381c1.492,1.423,2.923,2.928,4.304,4.495
	C378.321,338.048,377.716,335.424,377.225,332.776z"/>
<path fill="#B3BBB5" d="M420.9,479.377c-2.529-6.298-4.818-12.644-6.81-19.093c2.777,32.132,3.894,65.677,6.608,95.964
	c3.479,38.807-5.588,80.521-0.087,109.737c4.837-0.904,9.637-2.004,14.349-3.398c-5.243-53.572-9.809-107.824-10.979-165.47
	C418.765,495.395,420.259,486.96,420.9,479.377z"/>
<path fill="#B3BBB5" d="M230.635,671.508c1.315-5.745,5.563-9.255,15.962-6.856c1.165,1.094,1.941,2.575,2.458,4.315
	c1.018-0.134,2.036-0.264,3.054-0.393c-2.103-9.8-7.288-16.521-15.366-20.349c-13.545,11.383-11.346,17.391-15.467,24.383
	C224.393,672.269,227.512,671.905,230.635,671.508z"/>
<path fill="#B3BBB5" d="M151.333,641.657c-0.774,5.267-5.104,19.998-8.585,25.492c1.573,2.701,2.96,5.503,4.121,8.406
	c2.225,0.101,4.449,0.156,6.674,0.18C155.059,665.554,161.99,651.776,151.333,641.657z"/>
<path fill="#B3BBB5" d="M180.296,675.182c2.639-1.072,5.596-1.827,10.456-0.679v0.391c2.946-0.112,5.885-0.256,8.818-0.433
	c2.822-3.165,6.677-3.912,8.971-0.636c0.912-0.074,1.823-0.152,2.734-0.231c-7.372-13.336-26.933-7.332-40.579,1.864
	C173.895,675.355,177.095,675.257,180.296,675.182z"/>
<path fill="#9BA7A4" d="M420.697,556.246c-2.715-30.288-3.83-63.834-6.608-95.966c-2.492-8.073-4.521-16.308-5.944-24.825
	c-2.952-17.661-5.613-35.052-12.099-51.746c-6.168-14.02-13.074-28.208-17.03-43.056c-1.383-1.567-2.813-3.073-4.307-4.497
	c0.107-1.858,1.219-2.713,2.515-3.383c-0.27-1.454-0.518-2.912-0.717-4.38c-0.576-4.241-1.008-8.361-1.246-12.433
	c-25.372-0.801-75.305,0.277-89.249-2.801c-8.391-44.167-7.005-98.112-19.709-137.967c-5.744,42.99,13.234,89.685,13.14,137.967
	c-20.912,9.076-48.94-0.778-72.269,0c-2.855,9.38-6.739,17.731-11.334,25.37c-0.146,1.003-0.326,2.007-0.554,3.009
	c-2.723,11.957-6.578,23.573-10.978,35.005c-0.355,4.944-0.996,9.846-1.861,14.714c4.704,23.676-8.838,50.263-8.119,76.295
	c-3.58-11.309-3.503-25.193-1.874-39.042c-4.081,12.405-8.488,24.741-12.043,37.163c-3.167,24.456-6.081,49.161-5.793,67.578
	c1.612,9.112-1.668,39.975-3.285,16.426c-0.084-17.026-0.154-33.013,0.195-48.257c-2.234,8.489-4.646,16.916-7.207,25.342
	c-0.396,25.709,3.896,56.107-2.846,75.472v19.709c-2.061,9.984,4.204,28.295-3.285,32.85v3.285c0.002,0.771,0.013,1.488,0.031,2.17
	c1.623,2.229,3.144,4.524,4.525,6.897c3.48-5.494,7.81-20.226,8.584-25.491c10.658,10.12,3.725,23.898,2.209,34.081
	c5.713,0.059,11.43-0.095,17.15-0.277c13.647-9.199,33.213-15.205,40.584-1.864c3.333-0.292,6.664-0.621,9.997-0.984
	c4.125-6.993,1.921-13.002,15.469-24.387c8.08,3.827,13.265,10.55,15.368,20.353c2.538-0.32,5.077-0.622,7.619-0.899
	c-3.049-92.864,3.346-204.502,13.148-295.388c3.898,97.994-7.362,193.386-6.573,294.734c8.461-0.755,16.94-1.151,25.433-0.876
	c12.31,0.399,24.604,1.208,36.905,1.807c28.604,1.394,57.54,2.358,86.054-0.951c1.977-0.308,3.95-0.648,5.918-1.017
	C415.109,636.77,424.177,595.054,420.697,556.246z M190.752,621.945c-17.575-22.836-10.454-59.527-9.855-88.693
	c1.07-51.988-3.378-103.449,13.14-154.392C203.053,450.097,198.562,548.732,190.752,621.945z M226.886,454.414v3.285
	c-7.604,66.221-8.4,138.801-19.709,206.951c6.814-91.736,4.534-192.563,16.424-279.22
	C229.136,401.85,234.611,435.666,226.886,454.414z M240.026,513.543c-17.725-44.574,8.187-100.893,9.854-147.822
	C253.273,408.549,244.722,467.857,240.026,513.543z M286.014,477.408c-0.624,3.729-3.292,1.822-3.284,0
	c-2.57-18.994,4.765-28.084,3.284-45.988C296.134,443.9,282.871,460.996,286.014,477.408z M315.579,664.65
	c-9.842-62.982,11.644-147.01,9.854-223.377C336.881,504.714,334.142,609.459,315.579,664.65z M348.429,654.795
	c-19.788-23.354-7.981-60.92-6.569-91.979c2.618-57.684,4.042-121.268,9.854-174.102
	C357.662,471.322,357.62,576.385,348.429,654.795z M377.993,608.805c-5.552-42.797-5.363-108.277,0-151.104
	C393.503,499.076,386.877,564.895,377.993,608.805z M404.272,497.117c-13.14-5.475-3.729-33.5-6.569-49.273
	C410.842,453.318,401.432,481.344,404.272,497.117z"/>
<path fill="#EBE8E9" d="M208.541,673.826c-2.294-3.28-6.151-2.532-8.974,0.635C202.562,674.281,205.553,674.069,208.541,673.826z"/>
<path fill="#9BA7A4" d="M399.032,174.746c-2.447-3.32-4.916-6.62-7.899-9.405c2.698,35.021-29.496,66.063-10.192,110.808
	c1.122-3.111,2.38-6.181,3.753-9.2c1.733-16.656,4.914-33.154,9.761-49.176C394.499,203.215,396.396,188.576,399.032,174.746z"/>
<path fill="#EBE8E9" d="M231.18,671.441c5.946-0.831,11.905-1.691,17.875-2.475c-0.518-1.741-1.294-3.223-2.458-4.316
	c-10.401-2.398-14.648,1.112-15.963,6.857C230.816,671.485,230.998,671.465,231.18,671.441z"/>
<path fill="#E1CECB" d="M400.36,168.185c3.036-14.229,7.087-28.158,11.421-42.009c1.845-20.417,3.529-39.036-0.574-55.376
	c-2.035-1.229-3.914-2.668-5.625-4.273c-15.415,36.613-95.379,56.77-116.282,16.689c-16.1,2.515-15.445,21.784-29.564,26.28
	c-38.538-3.294-80.095-20.343-78.838-52.559c-8.17-0.505-10.172,5.158-16.425,6.57c-9.701,44.094,3.528,80.716,6.57,121.542
	c0.513,3.867-0.565,9.325,3.285,9.853c-1.091-50.364,51.208-47.34,88.693-59.128c14.867,51.927,21.155,112.432,26.279,174.102
	c19.578-48.312,12.511-123.267,32.851-170.817C354.457,142.532,385.723,147.044,400.36,168.185z"/>
<path fill="#EBE8E9" d="M182.926,675.12c2.616-0.046,5.223-0.128,7.826-0.227v-0.39c-4.859-1.148-7.816-0.395-10.455,0.678
	C181.173,675.16,182.049,675.135,182.926,675.12z"/>
</svg>
