<?xml version="1.0" encoding="utf-8"?>
<!-- Generator: Adobe Illustrator 15.0.0, SVG Export Plug-In . SVG Version: 6.00 Build 0)  -->
<!DOCTYPE svg PUBLIC "-//W3C//DTD SVG 1.1//EN" "http://www.w3.org/Graphics/SVG/1.1/DTD/svg11.dtd">
<svg version="1.1" id="Capa_1" xmlns="http://www.w3.org/2000/svg" xmlns:xlink="http://www.w3.org/1999/xlink" x="0px" y="0px"
	 width="612px" height="792px" viewBox="0 0 612 792" enable-background="new 0 0 612 792" xml:space="preserve">
<path fill="#563233" d="M385.686,469.799c11.11,12.994,1.716,46.494,4.821,67.491C379.396,524.297,388.793,490.795,385.686,469.799z
	"/>
<path fill="#563233" d="M376.046,498.724c11.06,9.829,1.744,40.033,4.819,57.849C369.805,546.742,379.121,516.536,376.046,498.724z"
	/>
<path fill="#563233" d="M380.865,739.756c2.834-0.35,5.194,0.512,7.152,1.459c2.438-0.564,4.869-1.151,7.295-1.762
	c-3.152-59.41,6.405-131.531-4.806-182.882c-3.075,17.813,6.239,48.019-4.822,57.848c-2.985-13.082,6.12-38.26-4.819-43.385
	C375.435,629.91,395.553,687.544,380.865,739.756z"/>
<path fill="#EBE8E9" d="M434.507,710.446c-0.313-1.537-0.523-3.109-0.615-4.709v7.174
	C434.065,712.081,434.272,711.26,434.507,710.446z"/>
<path fill="#563233" d="M343.882,748.867c1.773-0.188,3.544-0.402,5.315-0.609c-24.699-9.358-67.48-0.635-98.489-3.68
	C272.917,754.856,312.612,747.65,343.882,748.867z"/>
<path fill="#563233" d="M429.552,66.292c-5.069-0.875-10.177-1.593-15.259-2.406c-0.932,1.118-1.911,2.198-2.925,3.25
	c7.807-1.684,17.321,0.609,26.72,4.928C435.279,70.082,432.43,68.166,429.552,66.292z"/>
<path fill="#5F5A5A" d="M388.019,741.215c-1.958-0.948-4.319-1.81-7.153-1.46c0.004,1.316-0.29,2.336-0.729,3.21
	C382.77,742.409,385.396,741.822,388.019,741.215z"/>
<path fill="#563233" d="M366.405,151.638c-12.89-5.604-0.43-25.584,14.46-19.283c9.49,13.006,2.869,42.125,4.819,62.668
	c-10.775-7.055,2.668-83.809-19.279-48.206C366.405,148.425,366.405,150.031,366.405,151.638z"/>
<path fill="#563233" d="M366.405,166.1c21.534,6.999-3.521,82.196,19.279,72.31c-2.875,77.155,1.118,141.876,0,226.568
	c-14.404-35.405,4.766-104.39-9.64-139.796c-4.457,30.236,3.044,90.104,0,134.978C360.178,365.85,380.326,263.837,366.405,166.1z"/>
<path fill="#563233" d="M156.253,107.252c-0.453,1.221-0.904,2.444-1.352,3.667c2.86,2.475,4.83,5.84,9.036,6.974
	C163.059,112.664,158.932,110.68,156.253,107.252z"/>
<path fill="#563233" d="M202.277,70.27c-2.765-0.265-5.533-0.426-8.302-0.494c-1.791,0.739-3.698,0.953-5.698,0.015
	c-1.327,0.041-2.654,0.098-3.98,0.194c-0.647,0.131-1.287,0.288-1.928,0.438c-4.915,4.271-10.099,8.273-14.956,12.603
	c-2.1,3.461-3.992,7.043-5.737,10.706c10.05-11.491,23.128-19.956,41.283-23.336C202.732,70.354,202.505,70.309,202.277,70.27z"/>
<path fill="#5F5A5A" d="M178.281,71.51c-0.869,0.484-1.723,0.995-2.559,1.534c-1.906,1.73-3.709,3.557-5.415,5.487
	c-1.008,1.473-1.97,2.973-2.893,4.495c4.856-4.33,10.041-8.332,14.956-12.603C180.996,70.744,179.63,71.094,178.281,71.51z"/>
<path fill="#5F5A5A" d="M163.937,117.894c-4.207-1.134-6.176-4.5-9.036-6.975c-0.542,1.482-1.082,2.966-1.619,4.449
	c4.841,4.848,9.106,10.438,12.871,16.493c0.841,0.196,1.704,0.367,2.604,0.494C168.494,126.192,162.582,125.678,163.937,117.894z"/>
<path fill="#5F5A5A" d="M303.515,112.158c2.655,0.236,5.323,0.363,8.001,0.355c-1.062-0.188-2.092-0.412-3.095-0.669
	C306.786,112.001,305.147,112.115,303.515,112.158z"/>
<path fill="#5F5A5A" d="M263.513,96.885c2.582,1.929,5.218,3.659,7.898,5.21c-1.361-1.025-2.701-2.144-4.025-3.36
	C266.054,98.197,264.759,97.581,263.513,96.885z"/>
<path fill="#5F5A5A" d="M311.517,112.513c3.458,0.61,7.246,0.835,11.5,0.562c6.115-0.393,11.883-2.201,17.462-4.945
	C330.893,110.916,321.15,112.483,311.517,112.513z"/>
<path fill="#5F5A5A" d="M343.699,106.422c-1.068,0.599-2.14,1.175-3.221,1.707c3.769-1.096,7.51-2.391,11.213-3.844
	C349.041,105.081,346.377,105.788,343.699,106.422z"/>
<path fill="#5F5A5A" d="M209.931,744.49c0.025,0.029,0.052,0.057,0.077,0.086h11.777v-4.821h-14.981
	C207.806,741.357,208.845,742.938,209.931,744.49z"/>
<path fill="#828886" d="M188.275,69.791c2.001,0.939,3.909,0.725,5.701-0.015C192.076,69.729,190.176,69.732,188.275,69.791z"/>
<path fill="#232223" d="M420.978,540.222c-0.781-11.571-0.954-23.144-0.988-34.737c-0.001-0.404,0.004-0.807,0.004-1.21
	c-3.552-11.981-6.326-24.205-8.259-36.721c-4.405-28.523-6.412-57.225-8.806-85.96c-1.145-13.746-1.616-27.61-2.212-41.393
	c-0.587-13.567-0.95-27.195-0.028-40.757c-0.168-1.074-0.344-2.14-0.54-3.187c1.716-26.567,4.813-51.756,12.563-72.292
	c0.159-3.424,0.378-6.84,0.66-10.247c-0.08-2.345-0.129-4.689-0.119-7.025c0.087-21.279,3.081-43.583,13.273-62.562
	c1.783-8.217,5.23-16.164,8.955-23.499c5.728-11.281,11.627-24.087,20.07-33.991c-4.729-4.162-9.419-8.333-14.19-12.248
	c-1.079-0.792-2.178-1.556-3.271-2.327c-9.398-4.321-18.914-6.614-26.722-4.93c-5.815,6.039-12.927,11.007-20.711,15.119
	c-1.432,1.702-2.879,3.386-4.6,4.818c-4.227,3.516-8.215,6.966-13.25,9.094c-4.802,2.03-9.6,4.155-14.506,5.938
	c-2.157,0.784-4.325,1.492-6.501,2.147c-15.805,6.213-32.35,9.354-48.373,7.908c-1.831,0.045-3.651,0.005-5.438-0.198
	c-10.273-1.168-18.736-3.989-26.498-9.81c-2.705-1.561-5.364-3.311-7.967-5.261c-1.461-0.816-2.858-1.737-4.182-2.751
	c-6.208-2.641-12.281-5.626-18.188-8.824c-5.603-3.034-11.046-6.392-16.769-9.192c-6.952-2.555-14.128-4.429-21.422-5.728
	c-18.157,3.382-31.237,11.847-41.288,23.339c-0.45,0.945-0.894,1.893-1.326,2.848c-1.416,3.536-2.77,7.099-4.096,10.671
	c2.678,3.428,6.806,5.412,7.684,10.642c-1.355,7.783,4.557,8.297,4.821,14.461c-0.263,1.512-0.247,2.744-0.057,3.802
	c1.048,1.849,2.056,3.731,3.024,5.639c0.653,0.931,1.236,1.931,1.568,3.181c1.759,3.67,3.386,7.417,4.896,11.188
	c8.291,18.657,13.227,40.669,18.733,62.112c7.525,18.592,13.059,38.134,16.47,57.613c3.493,19.943,5.404,38.848,2.392,58.876
	c-4.412,29.329-16.624,57.542-25.717,85.608c-1.312,4.05-2.515,8.124-3.645,12.214c-0.409,1.676-0.854,3.315-1.323,4.932
	c-2.429,9.339-4.479,18.764-6.339,28.231c2.403,44.046-7.833,75.453-5.182,119.745c-3.519,21.751,6.348,30.115,5.138,49.555
	c0.357,1.813,0.703,3.623,1.041,5.427c4.375,7.281,4.443,18.875,5.276,29.703c3.409,18.931,7.351,37.782,14.292,55.7
	c2.215,4.782,4.693,9.42,7.48,13.876h14.979v4.821h28.924c31.007,3.046,73.782-5.677,98.482,3.677
	c1.146-0.134,2.294-0.252,3.439-0.395c9.222-1.357,18.399-2.979,27.507-4.899c0.438-0.872,0.731-1.891,0.728-3.205
	c14.688-52.212-5.431-109.846,0-168.722v-14.463c-11.061-9.829-1.744-40.035-4.819-57.849v-38.563
	c-15.869-94.309,4.28-196.322-9.641-294.059v-14.462c-12.89-5.605-0.43-25.585,14.46-19.283c9.49,13.005,2.869,42.124,4.819,62.668
	c5.938,13.634,5.938,29.753,0,43.386c-2.875,77.155,1.118,141.877,0,226.569v4.819c11.11,12.994,1.716,46.494,4.821,67.491v19.281
	c11.21,51.352,1.653,123.471,4.806,182.88c0.18-0.045,0.36-0.089,0.539-0.135c9.474-7.88,23.654-11.055,28.398-23.664V570.176
	C422.685,560.233,421.651,550.204,420.978,540.222z"/>
<path fill="#828886" d="M195.146,213.983c0.605,1.424,1.194,2.855,1.775,4.291c-5.503-21.43-10.438-43.427-18.72-62.078
	c3.941,9.851,7.092,19.863,9.753,29.091C190.687,194.76,193.068,204.339,195.146,213.983z"/>
<path fill="#563233" d="M385.686,195.024c5.938,13.633,5.938,29.752,0,43.386c-22.802,9.886,2.255-65.311-19.279-72.31
	c0-4.821,0-9.641,0-14.462c0-1.607,0-3.213,0-4.82C388.354,111.215,374.909,187.969,385.686,195.024z"/>
<path fill="#5F5A5A" d="M410.4,246.736c0.593-3.559,1.224-7.11,1.955-10.644c0.061-4.048,0.168-8.092,0.355-12.126
	c-7.749,20.536-10.846,45.724-12.563,72.292c0.271,0.071,0.515,0.116,0.761,0.162C402.238,279.537,405.093,262.703,410.4,246.736z"
	/>
<path fill="#828886" d="M400.696,299.306c0.066-0.962,0.138-1.924,0.213-2.887c-0.246-0.046-0.489-0.091-0.761-0.162
	c0.196,1.046,0.372,2.112,0.54,3.187C400.691,299.397,400.693,299.352,400.696,299.306z"/>
<path fill="#5F5A5A" d="M178.761,465.757c-0.479,2.437-0.939,4.878-1.398,7.32c-0.434,21.626-1.555,43.197-4.388,64.79
	c-1.583,15.84-2.291,31.727-2.675,47.627h3.279C170.927,541.203,181.162,509.798,178.761,465.757z"/>
<path fill="#563233" d="M376.046,498.724c0-12.854,0-25.71,0-38.563c3.044-44.874-4.457-104.742,0-134.978
	c14.404,35.407-4.766,104.391,9.64,139.796c0,1.608,0,3.215,0,4.82c3.107,20.996-6.288,54.498,4.821,67.491
	c0,6.425,0,12.854,0,19.281c-3.075,17.813,6.239,48.019-4.821,57.848c-2.985-13.082,6.12-38.26-4.819-43.385
	c0-4.821,0-9.643,0-14.463C377.79,538.757,387.104,508.553,376.046,498.724z"/>
<path fill="#828886" d="M178.717,635.049c1.209-19.439-8.658-27.804-5.138-49.555H170.3c-0.115,4.764-0.196,9.528-0.268,14.294
	C173.66,611.395,176.404,623.308,178.717,635.049z"/>
<path fill="#563233" d="M179.846,640.941c1.81,9.689,3.43,19.474,5.188,29.236c-0.833-10.828-0.901-22.42-5.276-29.702
	C179.787,640.631,179.817,640.786,179.846,640.941z"/>
<path fill="#828886" d="M250.708,744.577c-9.641,0-19.282,0-28.924-0.001h-11.776c1.727,2.021,3.548,3.947,5.424,5.818
	c0.43,0.145,0.866,0.284,1.311,0.414c20.393,1.814,40.903,2.224,61.37,1.784c21.943-0.472,43.942-1.402,65.78-3.727
	C312.622,747.648,272.919,754.857,250.708,744.577z"/>
<path fill="#563233" d="M375.276,380.822"/>
</svg>
