<?xml version="1.0" encoding="utf-8"?>
<!-- Generator: Adobe Illustrator 15.0.0, SVG Export Plug-In . SVG Version: 6.00 Build 0)  -->
<!DOCTYPE svg PUBLIC "-//W3C//DTD SVG 1.1//EN" "http://www.w3.org/Graphics/SVG/1.1/DTD/svg11.dtd">
<svg version="1.1" id="Capa_1" xmlns="http://www.w3.org/2000/svg" xmlns:xlink="http://www.w3.org/1999/xlink" x="0px" y="0px"
	 width="612px" height="792px" viewBox="0 0 612 792" enable-background="new 0 0 612 792" xml:space="preserve">
<path fill="#563233" d="M245.459,41.214c28.932,1.081,44.125,31.857,79.466,19.085c-7.445,40.229-37.188-18.986-35.319,47.711
	c-6.127,30.466-2.702-37.323-8.829-38.169C263.268,67.741,246.166,93.871,245.459,41.214z"/>
<path fill="#563233" d="M382.36,94.58c0,4.415,0,8.83,0,13.244c-14.944-1.241-25.351-7.025-44.146-4.415
	c6.99-23.046,25.718-0.104,35.317-8.83C376.475,94.58,379.418,94.58,382.36,94.58z"/>
<path fill="#563233" d="M311.725,143.143c-0.977-3.438-3.695-5.134-8.83-4.415c0-5.886,0-11.773,0-17.659
	c3.438,0.978,5.133,3.696,4.415,8.829c1.569,11.676,22.494,3.996,26.489,13.245c-6.357,2.472-10.772,6.887-13.244,13.244
	C313.266,156.317,318.082,144.143,311.725,143.143z"/>
<path fill="#563233" d="M192.524,125.483c6.064,13.968,0.96,14.756,0,30.903C185.173,150.012,168.933,125.029,192.524,125.483z"/>
<path fill="#563233" d="M400.021,129.897c11.021,7.077-3.035,26.053-13.245,26.489C391.001,147.367,395.797,138.917,400.021,129.897
	z"/>
<path fill="#563233" d="M223.428,227.024c4.956,0.931,6.875,4.898,8.83,8.83c-0.454,13.699,13.889,12.601,8.83,30.903
	C231.108,257.606,227.297,242.286,223.428,227.024z"/>
<path fill="#563233" d="M214.599,244.683c-0.385,13.135-26.322,11.813-22.074-4.415C202.763,238.86,209.477,240.975,214.599,244.683
	z"/>
<path fill="#563233" d="M258.747,266.757c-4.416,0-8.83,0-13.245,0c-3.651-12.479,6.219-11.439,4.415-22.074
	C256.476,248.425,256.304,258.899,258.747,266.757z"/>
<path fill="#563233" d="M267.576,315.32c3.542,16.786-20.872,5.617-30.903,8.83C237.288,311.521,255.09,316.079,267.576,315.32z"/>
<path fill="#563233" d="M188.111,363.884c-6.947,1.218-13.19-4.737-15.899-11.469c-1.968,5.163-4.033,10.289-6.096,15.415
	c7.901,1.059,3.066,14.853,13.165,13.713C179.339,372.771,191.324,375.927,188.111,363.884z"/>
<path fill="#563233" d="M263.162,346.224c-10.881,0.58-21.269,0.667-26.489-4.416C236.862,328.53,268.013,328.984,263.162,346.224z"
	/>
<path fill="#563233" d="M408.851,558.134c-7.927,0.569-10.328-4.385-8.828-13.243c-8.681-1.321-8.756,5.962-13.245,8.83
	c-1.214-9.088-16.446-4.156-17.658-13.245c9.514-22.35,31.087-6.449,48.562-22.072c3.709,5.122,5.823,11.836,4.415,22.072
	c-5.886,0-11.771,0-17.657,0C404.102,548.168,405.42,554.208,408.851,558.134z"/>
<path fill="#563233" d="M324.969,566.966c-0.058-8.771-12.043-5.618-8.829-17.661c3.438-0.977,5.135-3.694,4.415-8.829
	c10.881-0.581,21.27-0.667,26.488,4.415c-15.32,6.674-19.998,10.843-13.244,30.903c-4.427,0.013-5.254-3.574-8.83-4.415
	C324.969,569.908,324.969,568.436,324.969,566.966z"/>
<path fill="#563233" d="M408.851,562.55c-7.387,5.858-9.408,17.078-26.489,13.244c-5.453-14.284,14.287-3.373,8.832-17.66
	C399.113,557.571,400.504,563.54,408.851,562.55z"/>
<path fill="#563233" d="M161.368,628.771h4.668c-0.375-8.251-0.654-16.599-5.656-20.224
	C160.753,615.286,160.998,622.033,161.368,628.771z"/>
<path fill="#563233" d="M316.14,624.357c-0.719,5.133,0.978,7.852,4.415,8.828c-2.903,5.927-9.438,8.221-17.66,8.829
	c3.063-3.563,6.87-12.093,0-13.244c-0.811-3.754,1.724-4.161,4.415-4.413C310.252,624.357,313.197,624.357,316.14,624.357z"/>
<path fill="#563233" d="M162.288,78.444c-11.011,9.864-21.158,26.733-17.415,42.799c1.245,1.49,2.441,3.059,3.592,4.743
	c-0.075-11.986-2.616-26.439,8.74-26.992c3.438-0.977,5.133-3.697,4.415-8.83c-2.846-10.666,6.225-9.416,8.377-15.083
	C167.437,76.221,164.868,77.344,162.288,78.444z"/>
<path fill="#563233" d="M174.675,72.978c-1.554,0.711-3.115,1.407-4.676,2.102c-2.152,5.669-11.224,4.418-8.378,15.085
	c1.472,0,2.943,0,4.415,0.001c12.446-15.866,37.216-10.325,57.393-8.83C219.663,66.064,192.595,74.094,174.675,72.978z"/>
<path fill="#563233" d="M267.576,107.824c36.612,12.285,56.902-27.874,92.711-30.903c1.472,0,2.943,0,4.415,0
	c1.006,7.823-4.449,22.108,8.829,17.659c-9.601,8.726-28.327-14.216-35.317,8.83c18.797-2.61,29.202,3.173,44.146,4.415
	c0-4.415,0-8.83,0-13.244c4.297,0.121,3.429,5.403,4.416,8.83c0,1.472,0,2.943,0,4.415c-6.53,2.299-11.128,6.53-17.658,8.83
	c-0.122-4.294-5.405-3.426-8.831-4.415c-5.6-9.691-56.96,14.268-35.318,17.659c4.248,14.659-17.837-8.283-22.074-13.244
	c-7.75,2.426-9.559,35.635,8.83,26.489c6.357,1,1.541,13.175,8.83,13.244c2.472-6.357,6.887-10.772,13.244-13.244
	c4.294-0.121,3.426-5.403,4.415-8.83c3.754-0.811,4.162,1.725,4.414,4.415c-14.773,12.819,0.443,11.451,0,30.904
	c-8.421-1.88-7.99-12.612-22.073-8.83c10.841,11.468,13.031,30.173,30.903,13.244c8.847,23.759-5.646,38.262-17.659,52.978
	c-2.903-16.147,9.555-16.935,8.829-30.903c-14.87,4.616-31.196,25.137-22.073,39.733c-6.356,2.472-10.772,6.887-13.245,13.244
	c-10.617,4.099,2.674,32.105-17.659,26.489c-1.167-9.335-10.071-43.567,0-61.807c8.859,1.5,13.814-0.903,13.245-8.83
	c14.687-3.042,7.117,9.128,4.415,13.244c-3.967,7.807-10.658,12.888-13.244,22.074c18.873,2.685,16.336-16.038,22.074-26.488
	c2.903-4.967,20.465-17.108,8.829-22.075c0-5.887,0-11.772,0-17.659c-3.754-6.547-11.11-9.491-22.074-8.83
	c-1.425,14.67,21.701,4.789,13.245,26.489c-13.858,2.087-11.664-11.882-22.074-13.244c-5.117-6.53-5.117-11.129,0-17.659
	c-15.125,2.535-13.642,21.677-22.075,30.903c-1.471,0-2.943,0-4.415,0c-6.265,0.379-12.502,0.73-13.245-4.415
	c11.475,2.644,15.889-1.771,13.245-13.245c0-1.472,0-2.943,0-4.415c3.576,0.839,4.403,4.426,8.831,4.415c0-10.301,0-20.603,0-30.903
	c-5.898,5.564-8.668,13.267-17.66,4.415c1.092-4.794,8.778-2.995,8.829-8.83c4.45-13.279-9.835-7.824-17.659-8.83
	c-3.886-14.187,14.556-6.047,13.245-17.659c-10.571,2.673-20.143,6.347-35.318,4.415c-0.707,6.588-3.932,13.946-13.245,22.074
	c-4.415,0-8.829,0-13.245,0c5.933,5.863-3.236,19.166-13.244,22.074c-5.433-1.926-9.065-5.651-8.83-13.245
	c-1.363-10.318-8.64-18.24,0-26.489c9.284-2.903,19.625-11.687,26.489-4.415c3.569-14.906,1.701-21.786,22.074-26.489
	c-0.84-3.576-4.426-4.403-4.415-8.83c1.472,0,2.943,0,4.415,0c5.667,5.8,5.667,16.274,0,22.074
	C239.208,116.223,248.906,107.737,267.576,107.824z M192.524,156.387c0.96-16.146,6.064-16.935,0-30.903
	C168.933,125.029,185.173,150.012,192.524,156.387z"/>
<path fill="#563233" d="M166.036,98.994c-2.098,15.009,1.874,33.514,13.245,22.074c-8.64,8.249-1.363,16.171,0,26.489
	c-4.294,0.121-3.426,5.404-4.415,8.83C177.746,143.631,154.683,117.643,166.036,98.994z"/>
<path fill="#563233" d="M227.843,81.335c16.71,5.363,26.639,17.51,39.733,26.489c-18.67-0.086-28.368,8.399-39.733-4.415
	C233.511,97.609,233.511,87.135,227.843,81.335z"/>
<path fill="#563233" d="M360.287,76.92c27.979-16.084,53.962,7.754,61.808,26.489c-13.491-4.168-13.837-21.482-30.901-22.074
	c-15.637,7.732-10.854-2.938-26.49-4.415C363.23,76.92,361.759,76.92,360.287,76.92z"/>
<path fill="#563233" d="M422.094,597.866c20.36,2.703,7.369-27.95,17.658-35.318c0.117-17.527,0.329-35.15,0.167-52.399
	c-1.234-12.778-2.583-25.544-3.725-38.326c-1.596-5.988-3.211-11.982-4.786-18.011c-3.049-11.67-5.85-23.401-8.602-35.145
	c-13.043,0.107-23.495-13.646-22.785-32.711c-10.065,1.235-16.597-1.064-17.661-8.83c-11.271-9.33-19.526-21.677-26.487-35.319
	c20.114,5.398,17.32-12.112,35.319-8.83c-3.216,12.044,8.771,8.888,8.829,17.66c16.223,5.427-10.705,26.581,4.414,30.904
	c1.821-5.859,2.191-13.168,4.979-18.062c-0.418-1.577-0.819-3.159-1.248-4.734c-4.164-15.316-8.988-30.338-11.155-46.119
	c-0.946-6.889-1.767-13.751-2.359-20.617c-5.228-7.817-5.354-28.234-0.379-36.661c0.826-11.725,2.248-23.476,4.359-35.07
	c-15.545-27.509-2.202-64.034,14.632-81.551c1.36,0.012,2.296,0.45,3.007,1.112c2.067-9.477,4.335-18.862,7.019-28.134
	c-0.408-1.396-0.814-2.703-1.196-3.88v-4.415c-13.491-4.168-13.837-21.482-30.901-22.074c-2.416,6.415,5.154,22.815-4.42,22.073
	v4.415c-13.946,13.429,2.632,47.31-22.074,57.393c-1.81,5.548-5.691,9.026-13.244,8.83c8.847,23.759-5.646,38.262-17.659,52.978
	c-1.81,5.547-5.689,9.025-13.244,8.83c-6.356,2.472-10.772,6.887-13.245,13.244c6.87,22.747-18.119,28.236-4.415,44.148
	c9.135,10.146,29.548,32.059,22.074,44.148c-12.801-6.329-21.889-16.372-26.488-30.904c-12.55-32.858-59.52-78.214-22.074-114.786
	h-8.831c-0.822,6.537-10.668,4.047-17.659,4.416c-2.16,13.933,7.957,15.589,4.415,30.903c7.847,15.394,14.239,58.956-13.244,39.733
	c-9.98-9.151-13.791-24.471-17.66-39.733c-0.247-14.469-12.555-16.878-8.83-35.319c-4.046-13.595,1.139-18.814-22.074-13.244
	c-1.392-5.967-6.283-8.433-4.415-17.659c-5.433-1.926-9.066-5.651-8.83-13.245c-4.294,0.121-3.426,5.404-4.415,8.83
	c15.148,49.604,44.81,84.693,61.808,132.445c-5.151,8.094-11.543,14.946-17.659,22.074c-0.241,5.645-5.657,6.117-4.415,13.245
	c-2.759,10.485-5.938,20.55-17.659,22.074c-5.881-10.825-13.325,7.955-17.659-4.416c-1.118-0.105-2.206-0.241-3.042-0.628
	c-0.677,2.071-1.389,4.138-2.143,6.202c-0.615,1.685-1.244,3.364-1.882,5.039c2.71,6.729,8.951,12.68,15.896,11.462
	c3.212,12.043-8.773,8.887-8.83,17.659c-10.097,1.139-5.266-12.649-13.16-13.712c-1.024,2.544-2.043,5.09-3.054,7.639
	c3.411,6.961,11.346,9.398,7.385,23.732c-6.76-1.69-10.703-0.563-13.066,2.146c-0.799,4.896-1.787,9.777-2.946,14.63
	c-0.458,17.755-3.195,35.719-5.201,53.428c-0.307,2.713-0.593,5.429-0.861,8.146v5.531c18.625,6.852-0.966-24.512,17.659-17.659
	c15.004,19.521-20.487,24.442-17.659,35.318v44.147c3.368,4.314,4.516,10.849,5.062,17.985c3.634,12.344,5.466,25.026,6.478,38.339
	c0.186,2.443,0.333,4.89,0.468,7.337c4.998,3.627,5.277,11.972,5.652,20.22h-4.665c0.241,4.393,0.534,8.78,0.968,13.158
	c0.95,6.243,1.943,12.518,2.812,18.81c7.802,9.798,14.744,20.455,14.129,38.669c-3.679,0.42-8.3-0.104-11.916,0.379
	c-0.004,0.066-0.006,0.134-0.01,0.2c-0.211,3.252-0.496,6.597-0.898,9.966c7.755,3.306,22.31-0.187,26.069,7.115
	c5.967,1.392,8.433,6.281,17.66,4.413c-1.294-2.707-10.98-16.99,0-17.657c6.547-5.227,6.869-16.677,13.244-22.074
	c11.991,5.569,8.439,23.477,0,30.903v8.828h22.074c5.398-6.374,16.848-6.696,22.074-13.241c5.225,6.545,16.677,6.867,22.074,13.241
	h4.416c4.432-5.869,4.174-16.429,13.244-17.657v-4.416c-20.326-9.181-15.561-66.744-8.829-88.296
	c13.238,8.834,27.569,16.578,35.318,30.902c-10.951-0.65-21.424-0.82-22.074,8.829c13.223,2.903-4.22,9.441,0,17.661
	c18.676,1.018,10.003-25.315,35.318-17.661v-8.829c-1.391-5.965-6.283-8.433-4.415-17.658c0.989-8.346-4.977-9.738-4.414-17.66
	c-8.221-0.608-14.757-2.902-17.659-8.828c-6.461-9.727-13.417-18.959-13.245-35.318c-6.46-3.839-13.992-6.61-13.244-17.659
	c7.564,6.036,17.36,14.261,17.659-4.415c-5.926-7.316-23.178-3.315-22.074-17.659c8.319,3.662,22.941,16.297,26.489,0
	c-3.427-0.988-8.71-0.119-8.83-4.413c-12.388-4.416-0.447-20.421,4.415-22.074c21.213-15.527,46.472,15.245,79.469,8.829
	c-2.093,15.566-20.811,14.509-35.319,17.658c0.011,17.646,8.817,26.501,8.829,44.149c14.285,5.455,3.374-14.286,17.658-8.832
	c2.691-0.251,5.228-0.659,4.416-4.413c-1.215-9.088-16.446-4.157-17.658-13.245c9.514-22.349,31.087-6.45,48.562-22.072
	c3.709,5.121,5.823,11.836,4.415,22.072h-17.657c-0.336,7.692,0.982,13.732,4.413,17.658c7.929-0.568,10.329,4.389,8.829,13.245
	c-16.491-4.72-12.583,10.963-26.486,8.831c-14.171,19.032,23.567,35.185,0,52.977c-11.038-23.763-13.073-29.495-22.074-52.977
	c-11.659,0.114-27.663-4.117-22.075,13.242c1.409,14.631,13.665-17.215,17.659,0c7.25,21.042-33.134,6.078-17.659,22.077
	c4.955,0.93,6.876,4.895,8.83,8.827c12.952,16.482,38.346,47.214,17.658,70.639c0.098,10.397-7.604,12.996-4.413,26.486h48.562
	c6.122-2.707,0.666-16.99,8.831-17.657v-22.074c7.479-37.858-10.182-25.344-17.66-44.147
	C408.442,619.199,448.887,615.835,422.094,597.866z M400.021,129.898c11.021,7.076-3.035,26.052-13.245,26.489
	C391.001,147.367,395.797,138.917,400.021,129.898z M347.043,218.195h4.415c1.558-5.8,7.772-6.944,8.829-13.244v-4.415
	c5.679-7.566,9.13-17.361,22.073-17.66c-0.084,23.39,14.136,25.673,4.416,48.563c3.495,15.268-4.908,18.636-8.829,26.489
	c-19.837-11.135-19.184-12.009-44.148-4.415C334.408,237.935,346.435,233.773,347.043,218.195z M249.917,293.246
	c-5.679-20.396,17.286-12.147,22.074-22.074c12.671,8.726,0.191,29.271-17.659,22.074c3.219,10.025,13.284,13.204,22.074,17.66
	c6.506,25.638-8.819,29.443-13.245,44.148c-16.073-1.587-26.368-8.95-39.733-13.245
	C229.809,323.172,238.685,307.031,249.917,293.246z M214.599,350.639c16.234,2.898,21.988,16.274,30.904,26.489
	c14.532,4.288,24.574-33.215,30.904-8.83c3.695,37.601-1.081,90.078-35.319,75.052C216.174,418.575,188.668,391.752,214.599,350.639
	z M263.161,469.839c-9.691-9.284-0.914-19.626,4.415-26.489C280.856,443.539,280.401,474.69,263.161,469.839z M219.014,452.18
	c-11.233-0.54-17.119-6.427-17.66-17.66C212.587,435.061,218.473,440.947,219.014,452.18z M210.184,659.677
	c-9.98-6.21-28.449-3.926-26.489-22.073C197.405,640.08,210.805,642.867,210.184,659.677z M285.236,615.53
	c-4.489,2.868-4.564,10.148-13.245,8.828c8.618,4.329,22.212,26.218,4.416,30.902h-4.416c1.23,11.53,1.489,22.091-13.244,17.66
	v4.414c3.575,0.841,4.403,4.426,8.829,4.415c2.903,16.148-9.554,16.934-8.829,30.903c-9.37-8.289-14.751-20.569-22.074-30.903
	h13.244c-0.84-3.574-4.426-4.403-4.415-8.829c-7.921,0.563-9.313-5.403-17.658-4.414c-0.581-10.882-0.667-21.27,4.415-26.489v-4.413
	c-14.284-5.455-3.374,14.284-17.659,8.829c4.691-16.759-13.049-33.646-17.659-26.489c-6.306-0.983,4.099-21.97,0-35.319h-8.83
	c-10.02,4.697-1.678,27.754-4.415,39.734c-27.064-11.907-0.845-52.973-22.074-52.979c2.494-10.75,3.783-22.706,17.659-22.074
	c6.15,5.622,1.92,21.626,13.244,22.074c5.134,0.719,7.853-0.975,8.83-4.413c-21.597-6.863-4.329-19.92-4.415-39.733
	c-6.323,28.634-59.174-0.427-35.318-17.658v-17.661c9.225,1.868,11.692-3.023,17.659-4.414v-8.83
	c1.236-29.103,40.349-3.012,52.978-13.244c9.681,14.866-9.111,39.883-26.488,26.488h-4.416c-0.839,3.576-4.427,4.403-4.415,8.83
	c18.993,0.517,34.968,11.474,39.733-8.83V487.5c0.839-3.576,4.426-4.403,4.415-8.83c12.577,12.44,28.828,21.206,26.488,48.563
	c-23.591,2.896-36.313,16.665-44.148,35.317c2.473,9.175,6.887,9.354,13.245,4.416v-4.416h13.244v13.244h-17.659
	c-16.148-2.902-16.935,9.554-30.904,8.829c18.551,17.793,16.084,50.685,52.978,39.734c-0.195,11.29,3.283,5.382,8.83,4.414h4.415
	c0.563-7.922-5.404-9.313-4.415-17.658c-3.576,0.838-4.403,4.426-8.83,4.416c-0.839,5.01-4.426,2.446-4.415,0h-22.074v-30.906
	h13.245c18.274-0.614,15.732,19.587,39.733,13.245C280.258,605.79,286.225,607.18,285.236,615.53z M285.236,341.809
	c-0.684-10.979,6.932-13.664,8.83-22.074C309.057,321.638,304.344,348.529,285.236,341.809z M324.968,447.765
	c-14.463-16.44-29.718-32.088-35.318-57.393c-0.195-7.553,3.283-11.434,8.829-13.245c12.848-9.79,1.736-17.935,4.415-39.733
	c28.437,11.296,41.095,38.372,61.807,57.393C359.436,420.425,348.14,440.034,324.968,447.765z M408.851,456.595
	c-3.564,3.063-12.096,6.869-13.244,0c-12.102-0.093-10.483-20.827-4.413-26.488c-13.601-3.301-5.381,15.222-22.074,8.829
	c-7.618-14.711,1.636-23.971,22.074-22.073c4.223,9.019,9.017,17.468,13.244,26.487
	C406.771,446.902,409.039,450.518,408.851,456.595z"/>
<path fill="#563233" d="M360.287,200.535c5.68-7.565,9.13-17.36,22.073-17.66c-0.084,23.391,14.136,25.673,4.416,48.563
	C379.602,220.373,383.264,181.875,360.287,200.535z"/>
<path fill="#563233" d="M351.458,218.194c1.558-5.8,7.772-6.944,8.829-13.244c4.415,0,8.831,0,13.244,0
	c1.275,14.595,12.623,33.731,4.416,44.147c-9.871-1.902-1.789-21.758-4.416-30.903c-11.047-0.748-13.818,6.783-17.658,13.245
	C350.729,230.697,351.079,224.46,351.458,218.194z"/>
<path fill="#563233" d="M382.36,377.127c-11.271-9.33-19.526-21.677-26.487-35.319c20.114,5.398,17.32-12.111,35.319-8.83
	c-3.216,12.043,8.771,8.888,8.829,17.66c0,4.415,0,8.83,0,13.245c-3.575-0.84-4.403-4.426-8.829-4.415
	c-3.652,12.48,6.219,11.439,4.413,22.074C388.479,382.784,388.008,377.369,382.36,377.127z M373.531,355.054
	c0.254-2.69,0.662-5.226,4.416-4.415c0,7.358,0,14.716,0,22.074c18.623,6.852-0.965-24.512,17.658-17.659
	c0.19-6.077-2.08-9.692-4.413-13.245C384.592,343.074,359.299,347.488,373.531,355.054z"/>
<path fill="#563233" d="M409.415,363.48c-2.787,4.893-3.158,12.203-4.979,18.062c-15.119-4.323,11.809-25.477-4.414-30.904v13.245
	c-3.575-0.84-4.403-4.426-8.829-4.415c-3.652,12.48,6.219,11.439,4.413,22.074c-7.128,1.242-7.599-4.174-13.245-4.415
	c1.065,7.767,7.596,10.066,17.661,8.83c-0.71,19.065,9.742,32.818,22.785,32.711C418.486,400.236,414.265,381.78,409.415,363.48z"/>
<path fill="#563233" d="M438.794,592.029c-0.028-2.604,0.047-5.202,0.221-7.771c0.17-2.517,0.431-5.041,0.738-7.571v-14.136
	c-10.289,7.368,2.702,38.021-17.658,35.318c26.793,17.968-13.651,21.333-13.244,39.734c7.478,18.802,25.14,6.288,17.66,44.146
	C437.744,658.982,431.052,618.288,438.794,592.029z"/>
<path fill="#563233" d="M355.873,624.357c12.952,16.48,38.347,47.213,17.658,70.638c6.49-12.877-19.733-12.877-13.244,0
	c-12.859-6.192,7.829-15.21,4.415-26.489c3.575,0.838,4.403,4.426,8.829,4.415C378.092,646.287,352.47,649.835,355.873,624.357z"/>
<path fill="#563233" d="M311.725,496.328c21.214-15.527,46.472,15.245,79.469,8.829c-2.094,15.566-20.812,14.509-35.319,17.659
	c0.011,17.646,8.817,26.501,8.829,44.148c14.285,5.455,3.374-14.286,17.658-8.832c-9.427,7.475-13.588,25.484,8.832,22.076
	c-14.171,19.031,23.567,35.186,0,52.977c-11.038-23.763-13.073-29.493-22.074-52.977c-11.659,0.114-27.663-4.117-22.075,13.242
	c1.409,14.631,13.665-17.215,17.659,0c7.25,21.042-33.134,6.078-17.659,22.077c0.719,5.132-0.977,7.851-4.415,8.828
	c0.989-8.347-4.978-9.739-4.414-17.66c-8.221-0.609-14.757-2.903-17.659-8.829c19.913,0.413-1.926-13.329,4.414-26.489
	c3.576,0.841,4.403,4.428,8.83,4.415c-6.754-20.062-2.076-24.229,13.244-30.903c-5.22-5.081-15.607-4.995-26.488-4.415
	c0.72,5.135-0.979,7.854-4.415,8.829c-3.214,12.043,8.771,8.89,8.829,17.661c-3.926-3.434-9.967-4.75-17.659-4.416
	c-6.46-3.839-13.991-6.609-13.244-17.659c7.564,6.036,17.36,14.262,17.659-4.415c-5.926-7.316-23.178-3.315-22.074-17.658
	c8.319,3.662,22.941,16.296,26.489,0c-3.427-0.989-8.71-0.12-8.83-4.414c5.135-0.721,7.854,0.978,8.83,4.414
	c11.71,1.408-4.127-24.729,13.243-17.659C331.448,491.407,318.284,489.378,311.725,496.328z"/>
<path fill="#563233" d="M386.776,553.721c4.489-2.867,4.564-10.151,13.245-8.83c-1.5,8.858,0.901,13.813,8.828,13.243
	c7.929-0.566,10.329,4.39,8.829,13.245c-16.491-4.72-12.583,10.963-26.486,8.831c-22.42,3.408-18.259-14.603-8.832-22.076
	C385.053,557.883,387.588,557.475,386.776,553.721z M391.192,558.134c5.454,14.287-14.285,3.376-8.832,17.66
	c17.081,3.834,19.104-7.386,26.489-13.244C400.504,563.54,399.113,557.571,391.192,558.134z"/>
<path fill="#563233" d="M347.043,642.016c11.612-1.311,3.473,17.131,17.659,13.245c0,1.474,0,2.943,0,4.416
	c-14.445,6.154-18.98,22.224-17.659,44.147c-11.232,0.54-17.118,6.426-17.66,17.658c0,1.473,0,2.941,0,4.416
	c-5.12-3.707-11.835-5.824-22.073-4.416c-4.415,0-8.829,0-13.244,0c4.432-5.869,4.173-16.431,13.244-17.658
	c-0.194,7.553,3.282,11.434,8.83,13.245c29.754,2.42-1.208-28.429,26.488-26.49c0.914-12.688-1.12-22.425-8.829-26.489
	c-31.456,12.057-5.433,13.969-26.489,35.318c-20.326-9.181-15.561-66.744-8.829-88.295c13.238,8.834,27.569,16.578,35.318,30.901
	c-10.951-0.648-21.424-0.819-22.074,8.829c13.223,2.903-4.22,9.441,0,17.661c18.677,1.019,10.003-25.315,35.318-17.661
	C347.043,647.902,347.043,644.959,347.043,642.016z M307.31,624.357c-2.689,0.252-5.226,0.659-4.415,4.414
	c6.87,1.15,3.063,9.682,0,13.243c8.22-0.608,14.755-2.902,17.66-8.829c-3.438-0.978-5.134-3.695-4.415-8.828
	C313.197,624.357,310.252,624.357,307.31,624.357z"/>
<path fill="#563233" d="M245.502,721.482c5.397-6.374,16.848-6.697,22.074-13.242c5.226,6.545,16.677,6.868,22.074,13.242
	C265.726,712.793,272.262,718.201,245.502,721.482z"/>
<path fill="#563233" d="M249.917,672.921c0.121,4.294,5.403,3.426,8.83,4.414c3.575,0.841,4.403,4.426,8.829,4.415
	c2.903,16.148-9.554,16.935-8.829,30.903c-9.37-8.289-14.751-20.569-22.074-30.903c4.415,0,8.83,0,13.244,0
	c-0.839-3.574-4.426-4.403-4.415-8.829C246.974,672.921,248.445,672.921,249.917,672.921z"/>
<path fill="#563233" d="M241.088,584.623c18.274-0.614,15.732,19.587,39.733,13.245c-0.563,7.921,5.403,9.312,4.415,17.661
	c-4.489,2.867-4.564,10.148-13.245,8.828c8.618,4.328,22.212,26.219,4.416,30.902c-6.209-3.966-15.872-29.322,0-17.658
	c-0.932-4.955-4.898-6.876-8.831-8.83c0.563-7.922-5.403-9.313-4.415-17.658c-3.576,0.838-4.403,4.426-8.83,4.416
	c-0.838,5.01-4.426,2.446-4.415,0c3.932-1.956,7.898-3.876,8.83-8.832c-1.927-6.553-5.651,1.741-13.245,0
	C255.079,597.513,244.963,592.43,241.088,584.623z"/>
<path fill="#563233" d="M232.258,522.816c0,5.888,0,11.772,0,17.658c18.918-1.684,14.733-26.472,30.904-30.901
	c-10.164-15.12-17.044-6.232-26.489-22.075c0.839-3.576,4.426-4.403,4.415-8.83c12.577,12.44,28.828,21.206,26.488,48.563
	c-23.591,2.897-36.313,16.665-44.148,35.318c2.472,9.175,6.887,9.354,13.245,4.416c-0.84,3.574-4.426,4.403-4.415,8.828
	c-16.147-2.902-16.935,9.554-30.904,8.829c18.551,17.793,16.084,50.686,52.978,39.733c-0.195,11.29,3.283,5.383,8.83,4.414
	c-1.265,30.95-19.751-8.855-30.904,8.831c-14.285-5.455-3.374,14.285-17.659,8.829c4.691-16.758-13.049-33.646-17.659-26.488
	c-6.306-0.983,4.099-21.971,0-35.319c-2.943,0-5.886,0-8.83,0c-10.02,4.697-1.678,27.754-4.415,39.733
	c-27.063-11.905-0.845-52.972-22.074-52.979c2.495-10.75,3.783-22.706,17.659-22.074c6.15,5.622,1.92,21.626,13.244,22.074
	c5.134,0.719,7.853-0.976,8.83-4.413c10.98-0.667,1.294-14.953,0-17.661C214.386,543.206,219.226,528.915,232.258,522.816z"/>
<path fill="#563233" d="M179.28,487.498c-0.742,9.571,15.659,2.001,22.074,4.414c-0.839,3.576-4.426,4.403-4.415,8.83
	c18.993,0.517,34.968,11.474,39.733-8.83c0.753,6.604-1.575,16.293,4.415,17.661c-0.978,3.437-3.697,5.132-8.83,4.413
	c-4.334-12.369-11.778,6.411-17.659-4.413c-10.882,0.579-21.27,0.666-26.489-4.416c-13.492-3.19-16.09,4.513-26.489,4.416
	c0-5.889,0-11.774,0-17.661C170.847,493.78,173.313,488.889,179.28,487.498z"/>
<path fill="#563233" d="M179.28,478.668c1.236-29.104,40.348-3.012,52.978-13.244c9.681,14.866-9.111,39.883-26.488,26.488
	c7.352-8.771-0.397-5.616,0-17.658C190.15,473.816,186.419,465.78,179.28,478.668z"/>
<path fill="#563233" d="M223.428,712.653c0-4.413,0-8.829,0-13.245c-7.128-1.241-7.6,4.175-13.244,4.416
	c6.547-5.228,6.869-16.676,13.244-22.074C235.419,687.32,231.867,705.229,223.428,712.653z"/>
<path fill="#563233" d="M166.452,709.952c-0.179,1.499-0.384,3.001-0.617,4.504c4.998,1.825,11.062,2.586,17.858,2.613h8.83
	C188.765,709.766,174.206,713.26,166.452,709.952z"/>
<path fill="#563233" d="M166.035,465.424c-18.624-6.853,0.966,24.511-17.659,17.659v-5.561c-0.552,5.588-1.024,11.185-1.427,16.788
	c-0.074,1.526-0.148,3.053-0.223,4.58c0.485,0.682,1.032,1.303,1.649,1.852C145.548,489.866,181.038,484.945,166.035,465.424z"/>
<path fill="#563233" d="M174.865,156.387c2.881-12.756-20.182-38.744-8.829-57.391v-8.83h-4.415c0.718,5.134-0.977,7.853-4.415,8.83
	c-10.04,19.502,2.452,34.301,4.444,55.176c5.596,15.57,9.412,31.916,13.306,48.023c2.204,4.571,3.79,9.759,8.739,11.585
	c-1.859,2.568-3.318,5.538-4.133,9.151c0.843,4.535,1.586,9.091,2.233,13.66c3.487,2.17,2.559,8.756,1.839,15.133
	c0.153,1.484,0.306,2.968,0.444,4.451c0.208,2.23,0.404,4.479,0.591,6.734c6.219,3.569,12.98,6.595,12.27,17.093
	c-6.735-2.453-9.458-0.894-11.269,1.577c0.038,2.421,0.023,4.837-0.041,7.247c1.687-2.08,3.881-3.654,6.894-4.408
	c14.187-2.719,6.048,15.889,17.66,4.415c12.79-2.473-6.772-6.887-4.415-13.245c-4.881-2.99-22.902-14.67-13.245-17.66
	c11.716,5.944,20.545,14.774,26.489,26.489c19.01,16.464-20.218,11.865-17.66,26.489c12.044,0.397,8.888-7.353,17.66,0
	c6.116-7.128,12.508-13.98,17.659-22.074C219.675,241.079,190.012,205.991,174.865,156.387z M192.524,240.268
	c10.239-1.408,16.953,0.707,22.074,4.415C214.213,257.818,188.276,256.496,192.524,240.268z M210.184,257.927
	c15.802,1.858,21.24,14.078,22.074,30.904C224.785,278.644,210.759,275.012,210.184,257.927z"/>
<path fill="#563233" d="M181.215,322.957c-1.356,6.132-3.01,12.196-4.98,18.222c0.836,0.39,1.926,0.526,3.046,0.631
	C193.882,338.357,188.381,328.561,181.215,322.957z"/>
<path fill="#563233" d="M214.599,138.728c9.617,8.042-0.788,36.106,8.83,44.148c9.571,0.742,2-15.659,4.415-22.074
	c3.576,0.839,4.403,4.426,8.83,4.415c4.455,8.789,7.634,18.855,17.659,22.074c0.743,5.145,6.979,4.794,13.245,4.415
	c-0.822,6.536-10.668,4.047-17.659,4.416c-2.161,13.934,7.956,15.589,4.415,30.903c-1.472,0-2.943,0-4.415,0
	c1.467-25.011-10.307-36.785-35.318-35.319c-4.046-13.595,1.139-18.814-22.074-13.244c-1.391-5.967-6.283-8.434-4.415-17.659
	c10.008-2.909,19.177-16.211,13.244-22.074C205.77,138.728,210.184,138.728,214.599,138.728z"/>
<path fill="#563233" d="M254.332,227.024c7.848,15.394,14.24,58.956-13.244,39.733c5.059-18.303-9.284-17.205-8.83-30.903
	c7.824-1.006,22.108,4.449,17.659-8.83C251.389,227.024,252.86,227.024,254.332,227.024z M249.917,244.683
	c1.805,10.635-8.065,9.594-4.415,22.074c4.415,0,8.829,0,13.245,0C256.304,258.899,256.476,248.425,249.917,244.683z"/>
<path fill="#563233" d="M294.066,178.461c-17.637-15.429-2.041,30.65-13.245,35.319c1.954,6.415,3.875-0.449,8.829,0
	c-10.071,18.24-1.167,52.472,0,61.807c20.333,5.616,7.042-22.39,17.659-26.489c6.87,22.747-18.118,28.237-4.415,44.148
	c-5.173,0.713-3.726,8.048-4.415,13.245c-12.549-32.858-59.52-78.213-22.074-114.786c-1.472,0-2.944,0-4.416,0
	c8.434-9.226,6.951-28.368,22.075-30.903C288.949,167.332,288.949,171.931,294.066,178.461z"/>
<path fill="#563233" d="M249.917,293.246c-5.68-20.396,17.286-12.146,22.074-22.074c12.67,8.726,0.19,29.271-17.659,22.074
	C252.86,293.246,251.389,293.246,249.917,293.246z"/>
<path fill="#563233" d="M254.332,293.246c3.219,10.025,13.285,13.204,22.075,17.659c6.506,25.638-8.819,29.444-13.245,44.148
	c-16.073-1.587-26.368-8.95-39.733-13.245c6.381-18.636,15.256-34.778,26.489-48.563
	C251.389,293.246,252.86,293.246,254.332,293.246z M236.673,341.809c5.22,5.082,15.607,4.996,26.489,4.416
	C268.013,328.984,236.862,328.53,236.673,341.809z M236.673,324.15c10.031-3.213,34.445,7.956,30.903-8.83
	C255.09,316.079,237.288,311.521,236.673,324.15z"/>
<path fill="#563233" d="M302.895,293.246c9.134,10.146,29.547,32.059,22.074,44.148c-12.802-6.329-21.89-16.372-26.488-30.904
	C299.169,301.294,297.722,293.959,302.895,293.246z"/>
<path fill="#563233" d="M386.776,107.824c-13.946,13.428,2.632,47.31-22.074,57.393c0-1.472,0-2.943,0-4.415
	c0-1.472,0-2.943,0-4.415c6.514-6.432,21.661-26.77,4.416-30.903c0-2.943,0-5.887,0-8.83
	C375.648,114.354,380.246,110.123,386.776,107.824z"/>
<path fill="#563233" d="M333.799,143.143c-3.995-9.25-24.92-1.569-26.489-13.245c0.72-5.133-0.977-7.852-4.415-8.829
	c0,5.886,0,11.773,0,17.659c5.133-0.719,7.853,0.978,8.83,4.415c-18.389,9.146-16.579-24.063-8.83-26.489
	c4.237,4.961,26.322,27.903,22.074,13.244c-21.642-3.391,29.721-27.351,35.318-17.659c-6.857,6.387-20.603,5.887-26.488,13.245
	c-0.719,5.133,0.978,7.853,4.415,8.83C337.225,137.739,338.093,143.022,333.799,143.143z"/>
<path fill="#563233" d="M267.576,138.728c-0.051,5.835-7.737,4.036-8.829,8.83c8.991,8.853,11.761,1.15,17.66-4.415
	c0,10.301,0,20.602,0,30.903c-4.427,0.012-5.254-3.576-8.831-4.415c-5.122-3.708-11.835-5.823-22.074-4.415
	c5.059-13.888-6.933-10.727-8.83-17.659c15.152,6.076,24.839,12.842,17.659-8.83C258.747,138.728,263.162,138.728,267.576,138.728z"
	/>
<path fill="#563233" d="M360.287,112.238c3.426,0.989,8.709,0.121,8.831,4.415c0,2.943,0,5.887,0,8.83
	c-9.688-9.755-18.039,4.368-35.319,0C339.686,118.125,353.43,118.625,360.287,112.238z"/>
<path fill="#563233" d="M364.702,156.387c3.03-14.802-7.403-16.141-17.659-17.659c-1.472,0-2.943,0-4.415,0
	c-0.252-2.69-0.66-5.225-4.414-4.415c-3.438-0.977-5.134-3.696-4.415-8.83c17.28,4.368,25.633-9.755,35.319,0
	C386.363,129.617,371.216,149.955,364.702,156.387z"/>
<path fill="#563233" d="M351.458,174.046c-17.872,16.929-20.063-1.776-30.903-13.244c14.083-3.783,13.652,6.95,22.073,8.83
	c0.443-19.453-14.772-18.084,0-30.904c1.472,0,2.943,0,4.415,0c-15.625,13.665,3.15,8.749,0,30.904
	c12.043,3.213,8.887-8.772,17.659-8.83c0,1.472,0,2.943,0,4.415C362.893,170.764,359.011,174.242,351.458,174.046z"/>
<path fill="#563233" d="M364.702,160.802c-8.772,0.057-5.616,12.043-17.659,8.83c3.15-22.155-15.625-17.239,0-30.904
	c10.256,1.518,20.689,2.857,17.659,17.659C364.702,157.859,364.702,159.33,364.702,160.802z"/>
<path fill="#563233" d="M236.673,165.216c2.943,0,5.887,0,8.83,0c10.238-1.408,16.952,0.707,22.074,4.415c0,1.472,0,2.943,0,4.415
	c-7.807-8.289-12.888,5.254-22.074-4.415c0.057,8.772,12.043,5.616,8.829,17.659C244.307,184.072,241.128,174.005,236.673,165.216z"
	/>
<path fill="#563233" d="M254.332,187.291c3.214-12.043-8.772-8.887-8.829-17.659c9.186,9.668,14.267-3.875,22.074,4.415
	C270.221,185.52,265.806,189.935,254.332,187.291z"/>
<path fill="#563233" d="M324.969,191.705c11.635,4.967-5.926,17.108-8.829,22.075c-3.575,0.839-4.402,4.426-8.83,4.415
	c2.702-4.116,10.272-16.286-4.415-13.244c3.236-7.865,8.031-0.638,13.245,0c3.933-1.955,7.898-3.875,8.829-8.83
	C324.969,194.649,324.969,193.177,324.969,191.705z"/>
<path fill="#563233" d="M232.258,235.854c-1.954-3.932-3.874-7.898-8.83-8.83c-0.247-14.469-12.555-16.877-8.83-35.319
	c25.012-1.466,36.785,10.308,35.318,35.319C254.366,240.303,240.082,234.847,232.258,235.854z"/>
<path fill="#563233" d="M320.555,235.854c-9.123-14.596,7.203-35.117,22.073-39.733c0.726,13.968-11.731,14.756-8.829,30.903
	C331.988,232.571,328.108,236.049,320.555,235.854z"/>
<path fill="#563233" d="M360.287,200.535c22.977-18.66,19.313,19.838,26.489,30.904c3.495,15.268-4.908,18.636-8.829,26.488
	c-19.838-11.134-19.185-12.008-44.148-4.415c0.609-15.578,12.636-19.74,13.244-35.318c1.473,0,2.944,0,4.415,0
	c-0.379,6.266-0.729,12.503,4.415,13.245c3.84-6.462,6.611-13.992,17.658-13.245c2.627,9.146-5.455,29.001,4.416,30.903
	c8.207-10.416-3.141-29.553-4.416-44.147c-4.413,0-8.829,0-13.244,0C360.287,203.478,360.287,202.006,360.287,200.535z"/>
<path fill="#563233" d="M316.14,213.78c-5.736,10.45-3.201,29.173-22.074,26.488c2.586-9.186,9.277-14.267,13.244-22.074
	C311.736,218.206,312.563,214.619,316.14,213.78z"/>
<path fill="#563233" d="M205.77,275.587c-4.881-2.989-22.902-14.67-13.245-17.66c11.716,5.944,20.545,14.774,26.489,26.489
	C213.213,282.858,212.07,276.645,205.77,275.587z"/>
<path fill="#563233" d="M232.258,288.832c-7.473-10.187-21.499-13.819-22.074-30.904
	C225.986,259.785,231.424,272.005,232.258,288.832z"/>
<path fill="#563233" d="M184.669,262.909c0.511,6.178,0.905,12.431,1.002,18.668c1.812-2.47,4.534-4.029,11.269-1.576
	C197.65,269.504,190.888,266.479,184.669,262.909z"/>
<path fill="#563233" d="M219.014,284.417c-5.8-1.559-6.944-7.772-13.244-8.83c-2.358,6.358,17.204,10.772,4.415,13.245
	c-11.612,11.474-3.473-7.134-17.66-4.415c-3.013,0.754-5.207,2.327-6.894,4.407c-0.082,3.108-0.241,6.205-0.533,9.272
	c-0.803,8.458-2.083,16.719-3.883,24.86c7.167,5.604,12.667,15.399-1.934,18.853c4.334,12.372,11.778-6.408,17.659,4.416
	c-0.317-14.107,7.093-32.117,17.659-22.074c-1.242-7.129,4.174-7.6,4.415-13.245c-8.773-7.353-5.617,0.397-17.66,0
	C198.797,296.282,238.024,300.881,219.014,284.417z"/>
<path fill="#563233" d="M298.48,377.127c12.848-9.79,1.735-17.935,4.415-39.733c28.437,11.295,41.095,38.371,61.807,57.393
	c-5.267,25.638-16.563,45.246-39.733,52.978c-14.463-16.439-29.719-32.088-35.318-57.393c19.045,11.859,37.072,24.735,48.563,44.146
	c6.46-3.84,13.991-6.609,13.244-17.657c6.024-5.956,8.415-30.823-4.415-30.904c-0.293-12.951-13.485-13.003-17.66-22.074
	c-6.856-6.387-11.824-14.665-22.073-17.659c5.796,19.223,23.54,26.489,22.073,52.978C313.357,398.195,316.582,362.25,298.48,377.127
	z"/>
<path fill="#563233" d="M391.192,341.809c2.333,3.553,4.604,7.168,4.413,13.245c-18.623-6.853,0.965,24.511-17.658,17.659
	c0-7.358,0-14.716,0-22.074c-3.754-0.811-4.162,1.725-4.416,4.415C359.299,347.488,384.592,343.074,391.192,341.809z"/>
<path fill="#563233" d="M329.383,399.202c1.467-26.489-16.277-33.755-22.073-52.978c10.249,2.995,15.217,11.272,22.073,17.659
	c-13.789,7.024,15.613,30.886,17.66,22.074c12.83,0.081,10.439,24.948,4.415,30.904
	C339.047,416.027,339.374,402.455,329.383,399.202z"/>
<path fill="#563233" d="M276.407,368.298c-15.711-4.817-37.745,39.658-70.637,17.659c9.968,17.993,19.688,36.233,35.318,48.563
	c0,1.474,0,2.944,0,4.416s0,2.942,0,4.414c-24.914-24.774-52.42-51.598-26.489-92.71c16.233,2.897,21.988,16.274,30.904,26.489
	C260.035,381.416,270.077,343.913,276.407,368.298z"/>
<path fill="#563233" d="M298.48,377.127c18.102-14.877,14.877,21.068,30.902,22.075c9.991,3.253,9.664,16.825,22.075,17.659
	c0.747,11.048-6.784,13.817-13.244,17.657c-11.491-19.411-29.519-32.287-48.563-44.146
	C289.455,382.819,292.933,378.938,298.48,377.127z"/>
<path fill="#563233" d="M241.088,434.52c-15.63-12.328-25.351-30.568-35.318-48.563c32.892,21.999,54.926-22.476,70.637-17.659
	c3.695,37.602-1.081,90.078-35.319,75.052c0-1.472,0-2.942,0-4.414c12.767,15.698,33.99-17.354,13.244-22.073
	C242.698,415.527,239.846,422.978,241.088,434.52z M245.502,394.787c-35.537,12.077,19.234,35.41,22.074,4.415
	C251.279,396.425,249.124,418.885,245.502,394.787z"/>
<path fill="#563233" d="M267.576,399.202c-2.84,30.995-57.61,7.662-22.074-4.415C249.124,418.885,251.279,396.425,267.576,399.202z"
	/>
<path fill="#563233" d="M329.383,363.883c4.175,9.071,17.367,9.123,17.66,22.074C344.996,394.77,315.594,370.907,329.383,363.883z"
	/>
<path fill="#563233" d="M241.088,434.52c-1.242-11.542,1.61-18.991,13.244-17.657c20.747,4.719-0.477,37.771-13.244,22.073
	C241.088,437.464,241.088,435.992,241.088,434.52z"/>
<path fill="#563233" d="M404.438,443.35c-3.934-1.953-7.898-3.874-8.831-8.83c-3.633,3.221-5.334,13.285,0,22.075
	c-12.102-0.093-10.483-20.827-4.413-26.488c-13.602-3.301-5.381,15.222-22.074,8.829c-7.618-14.711,1.637-23.972,22.074-22.073
	C395.416,425.881,400.21,434.33,404.438,443.35z"/>
<path fill="#563233" d="M395.605,456.595c-5.334-8.79-3.633-18.854,0-22.075c0.933,4.956,4.897,6.877,8.83,8.83
	c2.334,3.554,4.604,7.168,4.414,13.245C405.285,459.658,396.755,463.464,395.605,456.595z"/>
<path fill="#563233" d="M205.77,491.912c-1.472,0-2.944,0-4.416,0c-6.415-2.413-22.815,5.157-22.074-4.414c0-2.943,0-5.887,0-8.83
	c7.139-12.888,10.87-4.852,26.489-4.414C205.373,486.296,213.121,483.141,205.77,491.912z"/>
<path fill="#563233" d="M161.621,509.573c10.399,0.097,12.997-7.606,26.489-4.416c0.811,3.754-1.725,4.162-4.415,4.416
	c-13.503-3.203-12.985,7.614-26.489,4.413c12.428,7.688,29.076,16.038,44.148,8.83c1.472,0,2.943,0,4.416,0
	c1.236,10.064-1.063,16.596-8.83,17.658c-0.719,5.135,0.978,7.854,4.415,8.829c1.294,2.708,10.98,16.994,0,17.661
	c-21.597-6.864-4.329-19.92-4.415-39.733C190.616,555.865,137.765,526.806,161.621,509.573z"/>
<path fill="#563233" d="M205.77,522.816c4.122-3.236,6.69-8.024,8.829-13.243c5.881,10.823,13.325-7.956,17.659,4.413
	c0,2.942,0,5.887,0,8.83c-13.032,6.099-17.872,20.39-30.904,26.487c-3.437-0.977-5.133-3.694-4.415-8.829
	C204.706,539.412,207.005,532.882,205.77,522.816z"/>
<path fill="#563233" d="M183.695,509.573c-1.891,12.191,16.458,4.145,17.659,13.243c-15.072,7.208-31.72-1.144-44.148-8.83
	C170.709,517.188,170.192,506.37,183.695,509.573z"/>
<path fill="#563233" d="M232.258,637.604c11.152-17.688,29.639,22.118,30.904-8.831c1.472,0,2.943,0,4.415,0
	c3.932,1.954,7.899,3.876,8.831,8.831c-15.872-11.665-6.209,13.691,0,17.657c-1.472,0-2.944,0-4.416,0
	c-14.745-13.474-9.778,12.956-13.244,17.66c0,1.471,0,2.943,0,4.414c-3.427-0.988-8.709-0.12-8.83-4.414
	c16.315-7.911,3.794-44.648-17.659-30.905C232.258,640.546,232.258,639.073,232.258,637.604z"/>
<path fill="#563233" d="M307.31,699.408c21.058-21.351-4.967-23.264,26.489-35.318c7.709,4.064,9.743,13.802,8.829,26.489
	c-27.696-1.938,3.266,28.91-26.488,26.49c-5.548-1.813-9.024-5.692-8.83-13.245C307.31,702.352,307.31,700.881,307.31,699.408z"/>
<path fill="#563233" d="M258.747,672.921c3.466-4.704-1.501-31.134,13.244-17.66C273.221,666.791,273.48,677.352,258.747,672.921z"
	/>
<path fill="#563233" d="M232.258,642.016c21.453-13.744,33.974,22.994,17.659,30.905c-1.472,0-2.943,0-4.415,0
	c-7.921,0.563-9.313-5.403-17.659-4.415C227.262,657.624,227.176,647.235,232.258,642.016z"/>
<path fill="#563233" d="M426.511,703.824c0,5.886,0,11.771,0,17.658c-5.968,1.393-8.434,6.283-17.66,4.416
	c-31.789,3-57.554-5.461-79.468,0c0-1.475,0-2.943,0-4.416c13.631-1.086,24.955-4.479,35.319-8.829
	c0.563-7.921-5.403-9.313-4.415-17.658c-6.489-12.877,19.734-12.877,13.244,0c0.098,10.397-7.604,12.996-4.413,26.487
	c16.186,0,32.373,0,48.562,0C423.802,718.775,418.346,704.491,426.511,703.824z"/>
<path fill="#563233" d="M196.939,98.994c16.24,7.042-17.86-1.006-8.83,13.244c-13.658,0.742-19.855-15.532-13.245-22.074
	C188.455,86.876,183.351,102.282,196.939,98.994z"/>
<path fill="#563233" d="M150.581,129.29c4.206,7.015,7.31,14.766,10.165,22.397c0.309,0.826,0.606,1.656,0.905,2.486
	c-1.991-20.876-14.484-35.674-4.444-55.179c-11.357,0.553-8.816,15.006-8.741,26.992
	C149.186,127.042,149.891,128.139,150.581,129.29z"/>
<path fill="#563233" d="M424.15,107.956c-0.646-0.133-1.325-0.193-2.056-0.132c0.382,1.177,0.788,2.483,1.196,3.879
	c0.316-1.093,0.634-2.184,0.96-3.274C424.218,108.271,424.183,108.114,424.15,107.956z"/>
<path fill="#563233" d="M401.54,206.24c3.295-14.059,6.942-27.962,9.75-42.14c1.612-8.143,3.229-16.233,4.981-24.262
	c-0.711-0.662-1.646-1.099-3.006-1.111c-16.834,17.517-30.177,54.042-14.633,81.551C399.49,215.569,400.451,210.884,401.54,206.24z"
	/>
<path fill="#563233" d="M302.895,204.95c0.57,7.926-4.386,10.33-13.245,8.83c-4.955-0.449-6.875,6.415-8.829,0
	c11.204-4.668-4.392-50.748,13.245-35.319c10.41,1.362,8.214,15.331,22.074,13.244c8.456-21.7-14.67-11.818-13.245-26.489
	c10.962-0.661,18.32,2.283,22.074,8.83c0,5.887,0,11.772,0,17.659c0,1.472,0,2.944,0,4.416c-0.931,4.955-4.896,6.875-8.829,8.83
	C310.926,204.312,306.131,197.085,302.895,204.95z"/>
<path fill="#563233" d="M176.384,208.063c1.208,4.916,2.25,9.88,3.178,14.869c0.815-3.613,2.272-6.583,4.132-9.151
	c-4.948-1.826-6.534-7.013-8.737-11.582C175.43,204.157,175.905,206.113,176.384,208.063z"/>
<path fill="#563233" d="M394.006,259.235c0.076-1.294,0.177-2.59,0.268-3.885c-4.976,8.426-4.849,28.843,0.379,36.661
	C393.715,281.138,393.354,270.254,394.006,259.235z"/>
<path fill="#563233" d="M214.599,324.15c-2.759,10.485-5.938,20.55-17.659,22.074C196.623,332.117,204.033,314.107,214.599,324.15z"
	/>
<path fill="#563233" d="M166.037,385.957c-2.168-0.757-4.333-1.244-6.056-2.566c-0.231,0.61-0.454,1.223-0.682,1.833
	c-0.231,3.187-0.556,6.376-0.961,9.563h3.285C165.06,393.81,166.756,391.091,166.037,385.957z"/>
<path fill="#563233" d="M163.063,375.465c-1.045,2.636-2.078,5.276-3.083,7.927c1.723,1.323,3.888,1.809,6.056,2.566
	c0.718,5.134-0.977,7.852-4.415,8.83h-3.284c-0.279,2.19-0.6,4.379-0.957,6.565c2.362-2.712,6.306-3.843,13.071-2.151
	C174.413,384.865,166.473,382.431,163.063,375.465z"/>
<path fill="#563233" d="M439.753,562.55v14.137c1.336-10.992,3.542-22.087,2.891-33.073c-0.663-11.176-1.648-22.32-2.724-33.453
	C440.082,527.405,439.87,545.025,439.753,562.55z"/>
<path fill="#563233" d="M219.014,452.18c-11.232-0.54-17.119-6.427-17.66-17.66C212.587,435.061,218.473,440.947,219.014,452.18z"/>
<path fill="#563233" d="M236.673,491.912c0-1.47,0-2.942,0-4.414c9.444,15.843,16.325,6.955,26.489,22.075
	c-16.17,4.431-11.986,29.219-30.904,30.901c0-5.886,0-11.771,0-17.658c0-2.943,0-5.888,0-8.83c5.133,0.719,7.853-0.978,8.83-4.413
	C235.098,508.205,237.426,498.518,236.673,491.912z"/>
<path fill="#563233" d="M201.354,522.816c-1.201-9.1-19.55-1.052-17.659-13.243c2.69-0.254,5.226-0.662,4.415-4.416
	c5.219,5.082,15.607,4.995,26.489,4.416c-2.139,5.219-4.708,10.007-8.829,13.243C204.297,522.816,202.826,522.816,201.354,522.816z"
	/>
<path fill="#563233" d="M236.673,566.966c0-1.474,0-2.942,0-4.416c4.415,0,8.83,0,13.244,0c0,4.416,0,8.829,0,13.244
	c-5.886,0-11.772,0-17.659,0C232.247,571.369,235.833,570.54,236.673,566.966z"/>
<path fill="#563233" d="M249.917,615.529c-7.357,0-14.716,0-22.074,0c0-10.304,0-20.604,0-30.906c4.415,0,8.83,0,13.245,0
	c3.875,7.807,13.991,12.89,4.415,22.074c7.594,1.74,11.318-6.554,13.245,0C257.815,611.653,253.849,613.573,249.917,615.529z"/>
<path fill="#563233" d="M347.043,642.016c-1.391-5.965-6.283-8.434-4.415-17.657c3.438-0.979,5.134-3.696,4.415-8.828
	c4.955,0.93,6.876,4.896,8.83,8.828c-3.403,25.478,22.219,21.93,17.658,48.563c-4.426,0.011-5.254-3.577-8.829-4.415
	c0-2.943,0-5.887,0-8.829c0-1.473,0-2.942,0-4.416C350.516,659.146,358.655,640.705,347.043,642.016z"/>
<path fill="#563233" d="M165.147,660.735c1.791,12.975,3.037,26.026,2.213,39.052c3.617-0.482,8.24,0.041,11.919-0.379
	C179.895,681.192,172.95,670.534,165.147,660.735z"/>
<path fill="#563233" d="M360.287,694.995c-0.988,8.347,4.979,9.737,4.415,17.658c-10.364,4.351-21.688,7.744-35.319,8.829
	c0.542-11.232,6.428-17.118,17.66-17.658c-1.321-21.925,3.214-37.993,17.659-44.147c0,2.942,0,5.886,0,8.829
	C368.116,679.785,347.428,688.803,360.287,694.995z"/>
<path fill="#563233" d="M276.407,725.898c-28.473-5.374-78.766,11.069-92.712-8.829c2.944,0,5.887,0,8.83,0
	c5.967,1.391,8.433,6.28,17.66,4.413c4.415,0,8.83,0,13.244,0c7.358,0,14.716,0,22.074,0c26.76-3.281,20.223-8.689,44.148,0
	c1.471,0,2.943,0,4.416,0c4.415,0,8.829,0,13.244,0c0.813,3.754-1.724,4.162-4.415,4.416
	C294.066,725.898,285.236,725.898,276.407,725.898z"/>
<path fill="#563233" d="M276.407,725.898c8.829,0,17.659,0,26.488,0c25.069,10.249,69.125,1.512,101.542,4.414
	C370.927,737.274,303.706,739.845,276.407,725.898z"/>
<path fill="#563233" d="M329.383,725.898c21.914-5.461,47.68,3,79.468,0c-0.254,2.688-0.661,5.224-4.413,4.414
	c-32.418-2.902-76.474,5.834-101.542-4.414c2.69-0.255,5.226-0.662,4.415-4.416C317.548,720.074,324.263,722.191,329.383,725.898z"
	/>
<path fill="#563233" d="M227.843,160.802c0-5.887,0-11.773,0-17.659c5.133-0.719,7.853,0.977,8.83,4.415
	c1.897,6.933,13.889,3.771,8.83,17.659c-2.943,0-5.887,0-8.83,0C232.247,165.228,231.419,161.641,227.843,160.802z"/>
<path fill="#563233" d="M263.162,469.839c-9.692-9.284-0.914-19.626,4.415-26.489C280.856,443.539,280.401,474.69,263.162,469.839z"
	/>
<path fill="#563233" d="M311.725,496.328c6.561-6.95,19.725-4.921,17.658,8.829c-17.37-7.07-1.533,19.067-13.243,17.659
	c-0.978-3.438-3.695-5.135-8.83-4.414C294.922,513.986,306.861,497.982,311.725,496.328z"/>
<path fill="#563233" d="M320.555,597.868c-6.461-9.728-13.417-18.959-13.245-35.318c7.692-0.334,13.733,0.982,17.659,4.416
	c0,1.47,0,2.942,0,4.413C318.629,584.539,340.468,598.281,320.555,597.868z"/>
<path fill="#563233" d="M210.184,703.824c5.645-0.241,6.116-5.657,13.244-4.416c0,4.416,0,8.832,0,13.245c0,2.941,0,5.886,0,8.829
	c-4.415,0-8.83,0-13.244,0C208.89,718.775,199.204,704.491,210.184,703.824z"/>
<path fill="#563233" d="M285.236,341.809c-0.684-10.979,6.932-13.664,8.83-22.074C309.057,321.638,304.344,348.529,285.236,341.809z
	"/>
<path fill="#563233" d="M210.184,659.677c-9.98-6.21-28.45-3.926-26.489-22.073C197.405,640.08,210.805,642.867,210.184,659.677z"/>
<path fill="#563233" d="M166.036,90.165c12.445-15.866,37.215-10.324,57.393-8.83c-0.011,4.426,3.575,5.254,4.415,8.83
	c-20.373,4.703-18.504,11.583-22.074,26.489c-6.864-7.271-17.206,1.512-26.489,4.415c-11.371,11.439-15.342-7.065-13.245-22.074
	C166.036,96.051,166.036,93.107,166.036,90.165z M174.865,90.165c-6.61,6.542-0.414,22.816,13.245,22.074
	c-9.031-14.25,25.069-6.202,8.83-13.244C183.351,102.282,188.455,86.876,174.865,90.165z"/>
<path fill="#563233" d="M364.702,76.92c15.636,1.477,10.854,12.146,26.49,4.415c-2.416,6.415,5.153,22.815-4.416,22.074
	c-0.987-3.426-0.119-8.709-4.416-8.83c-2.942,0-5.887,0-8.829,0C360.253,99.028,365.708,84.744,364.702,76.92z"/>
<path fill="#563233" d="M214.599,138.728c9.313-8.128,12.538-15.486,13.245-22.074c15.175,1.932,24.747-1.742,35.318-4.415
	c1.311,11.612-17.13,3.472-13.245,17.659c7.824,1.006,22.109-4.449,17.659,8.83c-4.415,0-8.829,0-13.245,0
	c7.181,21.672-2.506,14.906-17.659,8.83c-0.977-3.438-3.696-5.134-8.83-4.415c0,5.886,0,11.772,0,17.659
	c-2.415,6.415,5.156,22.815-4.415,22.074C213.811,174.834,224.216,146.77,214.599,138.728z"/>
</svg>
