<?xml version="1.0" encoding="utf-8"?>
<!-- Generator: Adobe Illustrator 15.0.0, SVG Export Plug-In . SVG Version: 6.00 Build 0)  -->
<!DOCTYPE svg PUBLIC "-//W3C//DTD SVG 1.1//EN" "http://www.w3.org/Graphics/SVG/1.1/DTD/svg11.dtd">
<svg version="1.1" id="Capa_1" xmlns="http://www.w3.org/2000/svg" xmlns:xlink="http://www.w3.org/1999/xlink" x="0px" y="0px"
	 width="612px" height="792px" viewBox="0 0 612 792" enable-background="new 0 0 612 792" xml:space="preserve">
<path fill="#BF3333" d="M288.743,197.851c3.748-0.879,4.616-4.64,9.256-4.628c-0.595,8.31,4.593,10.834,13.885,9.255
	c-1.114,8.142-7.967,10.546-18.512,9.256C293.569,205.365,291.189,201.575,288.743,197.851z"/>
<path fill="#FFFFFF" d="M228.58,63.639c0.591-22.38-24.092,2.11-27.769-9.255c1.88-8.919,17.946-3.653,13.884-18.513
	c4.122,2.844,8.28,5.592,9.257,0c8.124,10.667,17.319,16.945,32.396,9.256c-6.52,15.077-28.581,14.613-37.023,27.768
	c-4.502-0.127-3.592-5.665-4.629-9.256c-3.748,0.881-4.615,4.641-9.256,4.628C193.642,63.94,223.952,53.202,228.58,63.639z"/>
<path fill="#563233" d="M168.416,68.267c-0.754-5.381,1.024-8.231,4.628-9.256c18.958-3.531,15.933,14.92,18.512,27.77
	c25.478,43.941,55.867,82.972,97.187,111.071c2.446,3.725,4.826,7.515,4.629,13.884c10.545,1.29,17.396-1.115,18.512-9.256
	c-9.292,1.579-14.479-0.945-13.885-9.255c33.18-42.412,69.565-81.617,92.56-134.212c5.383-0.753,8.233,1.024,9.258,4.628
	c-11.317,68.908-43.568,116.869-78.676,161.98c-46.25,1.512-56.743-32.734-78.677-55.537c-3.912,17.885-14.74,7.244-23.14,13.884
	C183.469,158.393,175.984,111.521,168.416,68.267z"/>
<path fill="#563233" d="M406.94,445.381c-9.3-15.682-17.647-31.928-24.113-49.336c-4.157-11.193-7.288-22.674-8.953-34.508
	c-1.215-8.636-2.438-17.294-2.374-26.037c0.065-9.008,1.183-17.794,2.419-26.714c0.021-0.146,0.047-0.291,0.067-0.437
	c-24.287,39.911,3.271,97.472,21.202,130.154c1.097,28.207,11.432,58.466,18.511,92.562c1.11,34.609,1.733,24.118,4.556,8.901
	c-2.527-26.153-4.832-52.331-7.19-78.503C409.778,456.08,408.402,450.719,406.94,445.381z"/>
<path fill="#D69B9F" d="M403.854,709.159c1.532-3.19,3.057-6.349,4.492-9.474c1.125-3.096,2.027-6.203,2.781-9.349
	c0.188-3.726,0.375-7.451,0.549-11.178c-0.868,0-1.736,0-2.605,0.001C411.842,693.672,404.277,697.844,403.854,709.159z"/>
<path fill="#D69B9F" d="M163.788,68.267c-6.037,29.239,7.786,74.367-4.628,106.444C164.536,139.47,140.353,91.534,163.788,68.267z"
	/>
<path fill="#BF3333" d="M418.254,539.962c-2.823,15.221-3.445,25.72-4.556-8.896c-7.079-34.096-17.414-64.354-18.511-92.562
	c-17.932-32.682-45.49-90.244-21.201-130.156c1.762-12.455,5.004-24.57,7.979-36.773c2.726-11.176,4.81-22.455,6.469-33.829
	c2.342-18.802,3.964-37.828,8.28-56.285c0.156-0.667,0.328-1.328,0.498-1.989c-0.709-7.723-0.849-15.379-0.026-23.315
	c1.001-9.659,2.458-19.262,3.83-28.874c1.351-11.518,1.374-22.799,1.204-34.406c-0.095-6.512-0.03-13.26,0.611-19.929
	c-1.66-2.449-3.884-4.334-3.017-9.309c-11.317,68.907-43.568,116.868-78.675,161.98c-46.25,1.512-56.743-32.734-78.677-55.537
	c-3.912,17.885-14.741,7.244-23.14,13.884c-35.855-25.574-43.34-72.445-50.908-115.7h-4.628
	c-6.037,29.239,7.786,74.367-4.628,106.444c-8.423,48.323,15.752,100.513,23.14,148.096c6.667,4.343,7.528,32.406,2.587,42.894
	c-0.862,4.48-2.193,8.842-3.673,13.154c-5.003,14.576-8.38,30.424-16.355,43.806c-1.104,1.852-2.271,3.661-3.468,5.451
	c-1.685,5.456-3.635,10.859-5.366,16.347c-1.999,6.337-3.893,12.706-5.838,19.058c-1.704,7.022-3.337,14.115-4.91,21.269
	c-3.476,33.682-2.083,54.957-2.417,77.57c8.599,24.68,8.552,52.814,11.641,78.146l-0.168-1.251
	c2.267,17.675,3.865,35.42,6.101,53.098c2.283,15.684,5.424,31.319,11.04,46.158c1.515,3.234,3.191,6.379,5.015,9.438
	c80.554-4.248,136.762-11.174,214.06-0.038c1.124-11.74,5.908-23.099,11.081-34.075c-7.412-10.444,3.762-44.801,7.442-34.671h2.605
	c0.249-5.351,0.485-10.703,0.72-16.055c-2.393-28.773,4.811-34.229,1.302-62.617c2.09,0.018,3.241,0.973,4.061,2.261
	c1.117-7.136,2.365-14.25,3.601-21.366c0.156-2.219,0.296-4.438,0.442-6.656C420.563,563.144,419.375,551.557,418.254,539.962z"/>
<path fill="#D69B9F" d="M185.127,337.122c1.748,10.65,1.832,17.67-0.2,28.394c-0.012,0.063-0.028,0.124-0.041,0.187
	c4.942-10.486,4.082-38.552-2.586-42.895v5.025C183.625,330.805,184.6,333.908,185.127,337.122z"/>
<path fill="#C88168" d="M412.396,663.104c0.045-1.035,0.091-2.07,0.136-3.105c0.824-18.917,2.157-37.446,5.058-56.193
	c0.055-0.353,0.113-0.704,0.169-1.057c-0.819-1.289-1.971-2.244-4.061-2.262C417.207,628.876,410.004,634.331,412.396,663.104z"/>
<path fill="#563233" d="M403.854,709.159c0.423-11.315,7.987-15.488,5.217-30c-3.681-10.13-14.854,24.228-7.442,34.671
	C402.366,712.266,403.111,710.709,403.854,709.159z"/>
<path fill="#FFFFFF" d="M270.231,35.871c31.541,6.689,35.65,0.783,74.047,0c2.652,32.336-13.646,36.192-4.627,64.792
	c-19.995-8.925-33.837-0.855-32.397,13.883c-15.232-0.192-23.042-7.809-41.65-4.627c-1.056-8.201,4.665-23.176-9.256-18.512
	C268.557,80.476,263.616,52.394,270.231,35.871z"/>
</svg>
