<?xml version="1.0" encoding="utf-8"?>
<!-- Generator: Adobe Illustrator 15.0.0, SVG Export Plug-In . SVG Version: 6.00 Build 0)  -->
<!DOCTYPE svg PUBLIC "-//W3C//DTD SVG 1.1//EN" "http://www.w3.org/Graphics/SVG/1.1/DTD/svg11.dtd">
<svg version="1.1" id="Capa_1" xmlns="http://www.w3.org/2000/svg" xmlns:xlink="http://www.w3.org/1999/xlink" x="0px" y="0px"
	 width="612px" height="792px" viewBox="0 0 612 792" enable-background="new 0 0 612 792" xml:space="preserve">
<path fill="#BF3333" d="M230.973,145.215c0-5.626,0-11.253,0-16.879c11.512-3.078,8.496,8.385,16.88,8.439
	C245.079,142.44,238.831,144.632,230.973,145.215z"/>
<path fill="#D5537B" d="M306.934,149.435c8.931,11.958-24.16,17.88-37.979,21.101C272.129,154.017,297.159,159.358,306.934,149.435z
	"/>
<path fill="#D5537B" d="M332.254,221.175c-7.584,15.693-82.835,11.99-71.741-4.22C284.449,209.329,304.121,216.428,332.254,221.175z
	"/>
<path fill="#D5537B" d="M260.513,436.396c0-19.693,0-39.388,0-59.081c-7.011,12.809-7.011,54.711,0,67.521
	c-5.126,95.713-5.198,185.295-8.439,274.299c-13.632-103.682,4.209-256.047,4.22-371.36
	C269.086,363.183,267.503,415.248,260.513,436.396z"/>
<path fill="#D5537B" d="M340.695,381.536c-6.25-0.78-3.869-10.198-4.222-16.88c-10.254,106.5-24.668,208.842-33.761,316.502
	c-8.248-78.967-2.648-171.781-8.44-253.203c26.644,13.684,6.286,48.854,21.099,71.742c8.932-44.521,5.1-101.809,12.662-147.701
	C344.854,349.244,340.123,368.041,340.695,381.536z"/>
<path fill="#BF3333" d="M260.513,436.396c0,2.813,0,5.627,0,8.44c-7.011-12.811-7.011-54.713,0-67.521
	C260.513,397.01,260.513,416.703,260.513,436.396z"/>
<path fill="#D5537B" d="M340.695,444.838c-2.693,15.594,5.459,42.035-4.222,50.639C339.166,479.881,331.014,453.441,340.695,444.838
	z"/>
<path fill="#BF3333" d="M433.535,579.877c-0.644,23.148-0.457,45.469,4.219,63.301c-25.428-16.77-4.846-79.553-16.879-109.721
	c14.408,2.473,2.4,31.359,12.66,37.98C433.535,574.252,433.535,577.063,433.535,579.877z"/>
<path fill="#D5537B" d="M319.594,664.275c-2.108,23.393,4.072,41.438-8.438,46.422C314.16,695.416,312.748,675.719,319.594,664.275z
	"/>
<path fill="#D69B9F" d="M368.559,722.354c2.117,0.216,4.227,0.375,6.333,0.502c0.744,0.017,1.513,0.059,2.304,0.122
	c5.026,0.245,10.045,0.322,15.114,0.439c1.879-0.631,3.111-1.907,3.245-4.282c-11.983,2.253-31.637-3.162-41.83,0.881
	C358.681,720.777,363.625,721.601,368.559,722.354z"/>
<path fill="#FFFFFF" d="M264.734,824.637c-6.116,25.838-64.636,4.683-67.521,12.66C203.599,819.678,244.75,814.627,264.734,824.637z
	"/>
<path fill="#EBE8E9" d="M146.358,720.204c0.886,0.563,1.789,1.097,2.711,1.599c0.427,0.145,0.856,0.279,1.285,0.418
	c1.038-0.236,2.07-0.483,3.098-0.741c-3.896-0.916-7.352-2.274-10.11-4.328C144.316,718.199,145.311,719.226,146.358,720.204z"/>
<path fill="#EBE8E9" d="M138.134,710.152v-50.096c-3.787-31.101-4.175,12.714-6.141,40.703
	C134.059,703.879,136.076,707.029,138.134,710.152z"/>
<path fill="#D69B9F" d="M400.748,98.904c-5.256-0.079-11.026-1.401-16.825-2.705c-3.508,0.085-7.013,0.257-10.514,0.563
	c-2.713,0.511-5.378,1.155-8.008,2.007c-0.366,0.184-0.723,0.385-1.086,0.574c15.033,0.681,30.066,1.361,41.785,5.356
	C404.314,102.768,402.525,100.841,400.748,98.904z"/>
<path fill="#D69B9F" d="M420.05,141.479c1.394-0.494,2.791-0.87,4.191-1.153c-0.294-0.962-0.579-1.932-0.842-2.923
	c-0.042-0.16-0.081-0.32-0.123-0.479c-1.307,0.852-3.376,0.939-6.621-0.148C416.143,139.289,417.757,140.837,420.05,141.479z"/>
<path fill="#E1CECB" d="M175.687,106.953c-0.964,0.444-1.921,0.904-2.874,1.372c4.934-2.156,10.043-4.137,15.96-5.31h8.44
	c-1.025-0.881-2.143-1.567-3.326-2.098C187.758,102.708,181.673,104.65,175.687,106.953z"/>
<path fill="#020202" d="M433.535,546.117v33.761c-0.632,38.623,47.193,134.375-8.441,135.041
	c2.055-75.965-17.842-172.428-4.219-232.104c0.357,13.711,2.175,25.959,8.439,33.762c-2.508-15.648-5.522-30.79-8.84-45.628
	c-8.192-19.874-16.34-39.848-22.833-60.345c-2.051-6.474-3.821-13.036-5.321-19.659c-4.339-5.661-8.061-11.76-10.925-18.288
	c-8.375-19.087-12.855-38.578-12.916-59.561c-0.056-19.104,2.846-38.338,6.728-57.006c1.745-8.394,3.453-16.896,6.317-24.992
	c1.154-3.263,2.407-6.487,3.712-9.691c-0.805-6.947,0.806-13.428,6.098-17.114c0.26,0.127,0.541,0.452,0.832,0.938
	c0.269-0.614,0.537-1.227,0.805-1.841c1.366-3.426,2.611-6.884,3.65-10.403c-5.615-16.438-9.272-35.135,3.15-47.773
	c1.019-7.424,7.261-9.615,16.882-8.44c3.247,1.088,5.317,1,6.623,0.147c-1.485-5.661-2.743-11.381-4.548-16.942
	c-0.672-1.212-1.386-2.396-2.163-3.551c-3.379-4.025-6.912-7.888-10.463-11.729c-11.72-3.996-26.755-4.677-41.79-5.357
	c-0.122,0.063-0.242,0.128-0.363,0.192c-0.752,1.03-1.547,2.037-2.407,3.005c-8.55,9.622-21.702,15.113-33.353,19.651
	c-11.938,4.65-24.394,6.978-37.128,8.218c-3.341,0.325-6.734,0.449-10.133,0.371c-16.744,6.127-33.344,12.397-49.956,18.655
	c-4.774-13.511-8.582-27.99-8.439-46.42c2.677,0.785,5.403,1.522,8.171,2.217c-0.923-1.492-1.775-3.026-2.545-4.605
	c-10.072-1.34-19.369-1.966-30.946,2.388c-2.813,0-5.626,0-8.44,0.002c-4.536,7.51-17.167,9.253-23.911,13.85
	c-1.141,3.62-2.39,7.194-3.762,10.73c0.477,1.48,1.242,3.122,2.354,4.959c1.737,16.54,20.067-4.164,29.541,8.44
	c6.555,19.716,3.088,38.376,0,59.081c0.008,2.131-0.043,4.321-0.092,6.509c1.339,6.873,2.687,13.761,3.957,20.656
	c0.305,0.82,0.608,1.64,0.912,2.459c12.771,1.993,5.384-15.116,16.324-4.305c0.127,59.514,22.65,123.072-16.88,156.14
	c-2.429,8.823-10.462,12.044-8.44,25.318c7.973-0.467,2.929-13.951,12.66-12.658C186.652,446.936,188.032,515.836,167.673,563
	c-7.873-25.354,2.858-51.899,4.221-80.185c-11.303,21.054-10.534,54.181-16.881,80.185c-4.917,48.535-10.896,96.011-12.659,147.699
	c6.294,3.646,14.386,5.492,21.969,7.85c5.63-1.536,11.294-2.953,17.23-3.631h-1.22c21.771-74.285,4.824-166.232,21.102-240.542
	c8.836,38.991,4.203,91.45,16.88,126.6c12.005-24.56,7.653-65.491,8.439-101.278c19.062,83.152-0.522,141.393-4.22,215.221h-27.063
	c8.225,0.96,15.866,3.516,23.621,6.632c8.165,1.39,16.44,2.583,24.542,1.81c11.83-5.05,29.117-4.646,46.42-4.222
	c11.716-2.855,23.852-4.553,34.292-1.824c9.827-0.038,19.625,1.208,29.383,2.704c10.194-4.041,29.844,1.373,41.826-0.88
	c23.002-1.899,34.679,7.522,59.08,4.222c0.934-3.285,3.533-4.907,8.439-4.222C452.305,662.388,443.99,603.176,433.535,546.117z
	 M306.934,149.434c8.931,11.958-24.16,17.881-37.979,21.101C272.129,154.017,297.159,159.358,306.934,149.434z M260.513,436.396
	c0,2.813,0,5.627-0.001,8.44c-5.126,95.713-5.197,185.295-8.439,274.299c-13.632-103.681,4.209-256.047,4.22-371.36
	C269.086,363.183,267.503,415.248,260.513,436.396z M260.513,216.956c23.936-7.627,43.608-0.528,71.741,4.22
	C324.67,236.869,249.419,233.165,260.513,216.956z M323.814,617.857c-1.375,15.506,3.599,37.356-4.222,46.418
	c-2.108,23.393,4.073,41.438-8.438,46.422c-16.044,3.385-5.368-19.951-8.44-29.539c-8.248-78.967-2.648-171.781-8.44-253.204
	c26.644,13.683,6.286,48.854,21.099,71.742c8.932-44.52,5.099-101.808,12.662-147.701c16.817-2.752,12.088,16.044,12.66,29.54
	c-3.832,25.93,10.049,43.589,0,63.302c-2.694,15.594,5.459,42.035-4.222,50.64c0.423,17.299,0.83,34.59-4.221,46.42
	C332.627,570.404,330.984,596.895,323.814,617.857z M403.994,465.938c-13.809-1.671-10.27-20.685-12.66-33.761
	c-15.698,8.998,1.802,56.101-4.221,92.838c-30.896,36.053-13.477,131.701-42.199,189.902
	c-12.406-94.719,8.914-224.881,12.661-337.601c7.671,4.99,3.317,22.002,8.438,29.54c15.073-13.747,17.013-0.798,21.101,16.879
	c5.192-1.84,8.666-5.4,8.44-12.658C403.373,424.352,404.576,444.254,403.994,465.938z"/>
<path fill="#D5537B" d="M248.815,122.596c-7.682-4.28-13.741-10.299-18.112-17.366c-2.767-0.694-5.492-1.431-8.168-2.216
	c-0.144,18.43,3.665,32.909,8.439,46.42c16.61-6.257,33.209-12.526,49.951-18.653C269.765,130.525,258.531,128.01,248.815,122.596z
	 M230.974,145.215v-16.879c11.511-3.078,8.495,8.384,16.88,8.439C245.079,142.44,238.831,144.632,230.974,145.215z"/>
<path fill="#D69B9F" d="M398.235,186.652c0.188-3.832,0.029-7.641-0.472-11.49c0.09,0.667,0.18,1.335,0.269,2.003
	c-0.65-7.263,0.073-13.936,4.109-20.826c0.181-0.305,0.377-0.595,0.565-0.893c-0.826-3.389-1.799-6.799-2.934-10.232
	c-12.424,12.638-8.768,31.334-3.152,47.772C397.238,190.899,397.782,188.79,398.235,186.652z"/>
<path fill="#D69B9F" d="M392.166,205.233c-0.291-0.486-0.572-0.811-0.832-0.938c-5.292,3.686-6.902,10.167-6.098,17.114
	C387.447,215.978,389.815,210.608,392.166,205.233z"/>
<path fill="#D69B9F" d="M243.633,723.357c11.831-5.05,29.117-4.646,46.42-4.222C281.482,724.84,247.359,726.803,243.633,723.357z"/>
<path fill="#D69B9F" d="M143.342,717.15c2.759,2.055,6.215,3.412,10.112,4.329c3.653-0.917,7.256-1.945,10.872-2.932
	c-7.584-2.357-15.678-4.204-21.973-7.851c1.763-51.688,7.742-99.164,12.659-147.699c-11.879,26.102-7.829,68.129-16.879,97.059
	v50.094c1.089,1.652,2.19,3.298,3.326,4.918C142.071,715.777,142.705,716.466,143.342,717.15z"/>
<path fill="#D5537B" d="M180.333,457.496c0,4.221,0,8.441,0,12.66c4.05-8.847,14.155-33.354,4.22-42.201
	c3.544-4.898,5.566-11.314,4.22-21.1c7.973-0.468,2.929-13.952,12.66-12.658c-14.781,52.735-13.401,121.637-33.761,168.801
	c-7.874-25.354,2.857-51.898,4.221-80.184c0-2.813,0-5.625,0-8.438C183.351,477.398,168.876,454.473,180.333,457.496z"/>
<path fill="#D69B9F" d="M192.901,206.581c0.049-2.187,0.101-4.376,0.092-6.505h-1.354
	C192.057,202.243,192.478,204.411,192.901,206.581z"/>
<path fill="#D69B9F" d="M214.093,225.396c-10.939-10.811-3.553,6.298-16.322,4.306c1.561,4.208,3.113,8.418,4.598,12.651
	c6.905,19.687,11.947,40.156,12.132,61.147c0.022,2.525-0.261,4.99-0.795,7.37c0.893,26.786-4.221,53.864-16.492,70.666
	C236.743,348.468,214.22,284.91,214.093,225.396z"/>
<path fill="#D69B9F" d="M160.1,130.122c0.954,0.975,2.06,1.799,3.354,2.433c-1.112-1.837-1.877-3.479-2.354-4.959
	C160.773,128.439,160.441,129.282,160.1,130.122z"/>
<path fill="#D69B9F" d="M166.409,111.739c-0.49,1.72-1.011,3.426-1.546,5.125c6.744-4.596,19.375-6.339,23.912-13.85
	c-5.917,1.173-11.026,3.154-15.96,5.31C170.64,109.393,168.499,110.521,166.409,111.739z"/>
<path fill="#D5537B" d="M332.254,541.896c0.373,28.508-1.27,54.997-8.438,75.961c-2.158-28.892,7.489-45.966,4.221-75.961
	C329.439,541.896,330.848,541.896,332.254,541.896z"/>
<path fill="#BF3333" d="M184.553,427.955c9.935,8.848-0.17,33.354-4.22,42.201c0-4.22,0-8.439,0-12.66
	c-1.725-10.166,7.709-9.176,4.22-21.101C184.553,433.584,184.553,430.77,184.553,427.955z"/>
<path fill="#D5537B" d="M433.535,579.877c-0.633,38.623,47.192,134.375-8.441,135.041c2.056-75.965-17.842-172.428-4.219-232.104
	c0.357,13.711,2.176,25.959,8.439,33.762c0.045,11.209-1.595,24.102,4.221,29.539c0,8.442,0,16.883,0,25.322
	c-10.26-6.621,1.748-35.509-12.66-37.98c12.033,30.168-8.549,92.951,16.879,109.721
	C433.078,625.346,432.893,603.025,433.535,579.877z"/>
<path fill="#FFFFFF" d="M197.213,803.539c-20.693,15.879-67.262,5.883-92.84,16.879
	C122.918,802.389,160.024,802.922,197.213,803.539z"/>
<path fill="#BF3333" d="M340.695,381.536c-3.832,25.93,10.049,43.589,0,63.302c-9.683,8.604-1.529,35.043-4.222,50.639
	c0.423,17.3,0.83,34.591-4.221,46.421c-1.406,0-2.813,0-4.219,0c3.27,29.995-6.379,47.069-4.222,75.961
	c-1.375,15.506,3.601,37.356-4.221,46.418c-6.846,11.442-5.434,31.141-8.438,46.422c-16.045,3.385-5.369-19.951-8.44-29.539
	c9.093-107.66,23.507-210.002,33.761-316.502C336.826,371.338,334.445,380.756,340.695,381.536z"/>
<path fill="#C88168" d="M184.553,436.396c3.489,11.924-5.945,10.934-4.22,21.1c-11.457-3.023,3.018,19.902-8.439,16.881
	C173.558,459.16,170.333,439.057,184.553,436.396z"/>
<path fill="#EBE8E9" d="M396.238,723.521c8.739,0.268,17.445,1.064,26.147,1.88c8.755,0.82,17.55,1.649,26.349,2.02
	c6.144-0.627,8.918-1.847,5.899-4.063c-24.401,3.3-36.078-6.121-59.08-4.222c-0.134,2.374-1.365,3.651-3.244,4.282
	C393.616,723.447,394.925,723.48,396.238,723.521z"/>
<path fill="#D5537B" d="M357.574,377.316c7.672,4.99,3.317,22.002,8.438,29.54c15.072-13.748,17.013-0.798,21.101,16.879
	c5.192-1.841,8.666-5.4,8.44-12.658c7.818,13.274,9.021,33.178,8.439,54.861c-13.81-1.671-10.271-20.685-12.66-33.761
	c-15.697,8.998,1.803,56.101-4.221,92.838c-30.896,36.054-13.478,131.701-42.199,189.902
	C332.508,620.199,353.828,490.037,357.574,377.316z"/>
<path fill="#D5537B" d="M184.369,714.65c3.854-0.274,7.536-0.148,11.11,0.269h27.054c3.698-73.828,23.282-132.069,4.22-215.221
	c-0.785,35.787,3.567,76.718-8.439,101.278c-12.676-35.15-8.044-87.609-16.88-126.6c-16.277,74.309,0.67,166.256-21.102,240.542
	h1.213C182.48,714.813,183.42,714.718,184.369,714.65z"/>
</svg>
