<?xml version="1.0" encoding="utf-8"?>
<!-- Generator: Adobe Illustrator 16.0.0, SVG Export Plug-In . SVG Version: 6.00 Build 0)  -->
<!DOCTYPE svg PUBLIC "-//W3C//DTD SVG 1.1//EN" "http://www.w3.org/Graphics/SVG/1.1/DTD/svg11.dtd">
<svg version="1.1" id="Capa_1" xmlns="http://www.w3.org/2000/svg" xmlns:xlink="http://www.w3.org/1999/xlink" x="0px" y="0px"
	 width="275px" height="327.891px" viewBox="0 0 275 327.891" style="enable-background:new 0 0 275 327.891;" xml:space="preserve"
	>
<g>
	<path style="fill-rule:evenodd;clip-rule:evenodd;fill:#373637;" d="M189.804,110.556c-0.393,0.453-0.785,0.904-1.18,1.356
		c-6.418,7.518-18.761,9.263-30.368,4.292c-2.586-1.108-4.93-2.633-7.26-4.168c-2.166-1.526-3.558-3.688-4.921-5.915
		c-3.778-6.177-5.934-6.782-12.678-3.72c-5.369,3.93-7.327,10.786-12.663,14.745c-4.321,1.985-8.912,3.103-13.499,4.258
		c-7.647,0.155-15.509,0.949-20.533-6.802c-0.334-0.506-0.668-1.012-1.002-1.519c-4.104-3.976-5.522-9.059-6.004-14.529
		c-1.016-3.468-0.257-7.087-0.921-10.592c-0.184-2.994-0.605-6.042,1.766-8.5c1.335-1.121,2.945-0.681,4.455-0.781
		c1.613-0.4,2.608-1.293,2.472-3.095c-0.131-1.734-1.696-1.592-2.776-2.105c-0.585-0.292-1.015-0.728-1.312-1.307
		c-0.439-1.338-0.303-2.603,0.441-3.799c5.502-4.449,8.028-9.886,8.807-17.248c0.894-8.455,0.613-17.359,4.627-25.327
		c0.104-5.451,5.056-3.286,7.63-4.857c1.03,0.704,1.472,1.752,1.718,2.915c0.924,11.029-0.686,22.131,0.908,33.123
		c1.294,2.395,3.545,3.849,5.736,5.16c5.667,3.387,10.219,7.825,14.361,12.963c6.651,8.25,11.316,8.206,18.604,0.578
		c1.503-1.572,2.997-3.178,4.035-5.076c3.983-7.293,10.58-11.834,17.092-16.474c1.731-1.11,3.331-2.243,1.809-4.653
		c-1.437-2.278-1.833-4.85-1.983-7.501c-0.13-4.582-0.443-9.163,0.181-13.7c0.429-3.111,1.604-5.608,5.546-3.719
		c1.237,0.89,2.472,1.78,3.707,2.672c3.442,3.188,1.255,7.743,2.784,11.396c0.415,6.237,1.583,12.387,2.317,18.583
		c-0.286,2.023-2.185,3.817-0.636,6.546c1.865-0.297,1.35-3.543,3.494-3.376c2.197-0.05,3.559,1.31,4.838,2.824
		c1.599,2.426,3.448,4.767,2.923,7.97c-5.482,6.158,2.045,7.772,3.99,11.345c2.568,4.902,0.426,9.804,0.031,14.708
		C195.09,102.122,193.271,106.745,189.804,110.556z"/>
	<path style="fill-rule:evenodd;clip-rule:evenodd;fill:#C4A796;" d="M86.703,114.601c6.288,4.496,13.388,5.857,20.952,5.435
		c1.818,1.69,4.107,2.12,4.516,5.907c1.274,11.848-0.812,22.396-8.253,31.782c-14.827,18.703-12.464,38.291-2.905,58.199
		c1.429,2.974,3.342,5.717,6.761,6.702c19.76,5.681,39.668,10.32,60.385,5.999c12.05-2.513,21.818-8.119,27.059-20.188
		c3.182-7.326,1.31-14.545,1.077-21.851c1.021-3.46,2.346-4.13,4.189-0.472c0.47,0.933,0.347,2.17,1.424,2.791
		c4.65,6.833,6.282,15.001,9.844,22.316c-1.22,1.319-2.438,2.643-3.651,3.979c-6.228,6.351-12.163,12.95-19.023,18.688
		c-24.346,20.355-51.211,21.302-79.458,10.36c-14.701-5.693-28.22-13.435-37.847-26.535c-1.297-2.121-2.521-4.285-3.221-6.699
		c2.242-4.254,0.786-8.956,1.63-13.406c1.698-8.956,4.1-17.703,7.42-26.167C84.782,153.139,89.787,134.53,86.703,114.601z"/>
	<path style="fill-rule:evenodd;clip-rule:evenodd;fill:#373637;" d="M72.006,215.903c18.591,21.169,41.982,32.232,70.118,33.355
		c19.646,0.782,35.874-6.793,49.759-20.183c5.293-5.104,10.602-10.19,15.903-15.284c2.785,1.412,1.01,4.177,1.829,6.171
		c1.379,6.119,2.331,12.293,2.395,18.58c-1.166,3.277-4.833,2.93-6.951,4.827c-1.678,1.112-3.453,2.06-5.206,3.042
		c-1.968,1.174-3.884,2.427-5.673,3.866c-10.629,7.694-21.917,14.548-30.832,24.401c-5.034,5.184-7.785,12.152-13.271,16.979
		c-3.299,0.589-4.822,3.586-7.242,5.367c-2.095,0.971-4.051,2.609-6.601,1.352c-2.161-2.36-4.043-5.113-7.651-5.445
		c-7.264-5.788-11.905-14.297-19.98-19.261c-1.095-0.674-2.029-1.614-3.207-2.186c-5.696-5.957-13.03-9.832-19.269-15.101
		c-2.417-3.141-4.104-7.396-9.414-6.093c-9.181-3.202-11.612-6.083-11.001-13.006c0.636-3.796,1.272-7.59,1.909-11.386
		C68.3,222.225,67.091,217.72,72.006,215.903z"/>
	<path style="fill-rule:evenodd;clip-rule:evenodd;fill:#DDC7B8;" d="M162.479,273.826c8.826-10.547,20.409-17.585,31.752-24.93
		c1.841,0.175,0.942,2.19,2.047,2.981c1.906-1.604,0.731-4.683,2.871-6.152c1.694-1.082,3.391-2.167,5.086-3.25
		c4.741-1.208,4.168,2.673,4.506,5.084c1.535,10.936,2.854,21.917,3.735,32.911c0.984,12.282,2.317,24.584,1.663,36.955
		c-0.16,3.011,0.188,6.123-2.031,8.642c-13.056,0-26.112-0.002-39.17-0.002c-3.39-8.554-3.24-17.722-4.179-26.636
		c-0.742-7.043-2.554-14.173-1.392-21.259C168.176,273.247,161.932,277.619,162.479,273.826z"/>
	<path style="fill-rule:evenodd;clip-rule:evenodd;fill:#EADACE;" d="M172.892,24.56c-3.156-0.647-4.227,0.848-4.175,3.828
		c0.089,5.366,0.033,10.736,0.038,16.104c-1.776,3.269-0.171,6.856-0.96,10.218c-0.379,1.185,0.007,3.05-1.462,3.354
		c-7.962,1.66-11.063,8.489-15.336,14.082c-1.312,1.718-2.422,3.605-3.848,5.218c-6.989,7.913-12.601,8.439-19.262,0.275
		c-6.153-7.544-13.568-13.167-21.541-18.349c-0.996-2.096-0.988-4.181,0.056-6.256c1.462-0.97,4.386-0.539,4.237-2.906
		c-0.121-1.907-2.992-0.608-4.168-1.86c-1.37-2.071-0.574-4.354-0.656-6.551c1.073-4.072,0.441-8.225,0.523-12.337
		c0.073-3.672,1.687-6.237,4.857-7.841c3.069-1.554,4.771,0.774,6.712,2.503c4.595,4.096,10.381,4.256,16.009,4.317
		c5.654,0.062,11.213-1.023,16.76-2.283c3.948-0.898,5.424-3.001,5.27-6.746C161.537,21.255,167.59,21.691,172.892,24.56z"/>
	<path style="fill-rule:evenodd;clip-rule:evenodd;fill:#DDC7B8;" d="M86.307,255.412c7.216,4.161,13.966,8.946,19.89,14.84
		c0.607,1.848,1.163,3.727,2.383,5.288c2.625,3.366,2.768,6.883,1.651,10.992c-1.996,7.344-2.481,14.802-1.344,22.497
		c0.831,5.617,2.05,11.603-1.249,17.065c-14.444,0.579-28.94-1.007-43.363,1.078c-1.923,0.277-4.375,1.025-5.965-1.237
		c8.074-1.591,8.439-7.318,8.361-14.107c-0.166-14.469-0.872-28.975,1.167-43.408c0.606-4.293,1.087-8.599,2.432-12.718
		c0.852-2.611,1.578-5.547,5.067-6.009C80.385,248.905,81.997,254.748,86.307,255.412z"/>
	<path style="fill-rule:evenodd;clip-rule:evenodd;fill:#DDC7B8;" d="M80.911,97.182c-0.24,5.854,3.59,10.48,4.79,15.9
		c-1.611-0.403-3.376-0.671-2.453,1.865c0.824,2.262,0.36,3.766-1.626,4.939c-1.695-1.396-0.708-2.929-0.531-4.524
		c-0.645,1.363-0.732,2.884-0.915,4.385c-1.973,7.115-2.171,14.7-5.74,21.373c-1.177,5.349-2.557,10.618-4.83,15.66
		c-1.143,2.532,1.616-0.513,1.558,0.868c-2.743,9.276-2.731,19.456-9.052,27.557c-2.52,3.432-4.879,6.921-4.179,11.521
		c-2,9.567-6.404,18.066-11.615,26.21c-0.933,0.964-1.71,2.695-3.248,0.653c-0.756-2.702,0.512-5.044,1.369-7.449
		c3.274-9.186,4.722-18.705,5.267-28.396c0.232-4.137-0.281-8.139-2.037-11.923c-0.926-7.052,1.388-13.419,4.191-19.698
		c0.219-0.491,1.526-1.025,0.338-1.583c-0.265-0.125-1.258,0.931-2.16,0.406c1.381-13.89,3.336-27.649,9.211-40.517
		c2.43-2.692,1.996-5.836,1.423-9.002c0.424-3.065-1.245-6.414,1.242-9.199c1.647-0.466,1.264-2.004,1.611-3.137
		c0.113-0.368,0.616-0.76,0.146-1.219c-0.416,0.561-0.943,0.764-1.613,0.499c0.533-5.224-1.531-10.644,1.19-15.702
		c1.321,0.635,1.131,2.233,1.962,3.151c4.451-14.81,9.231-29.528,11.056-44.972c1.169-2.072,2.649-3.726,5.238-3.888
		c0.887-0.702,2.072-0.577,3.03-1.095c1.393-0.754,2.823-1.326,4.171,0.043c1.546,1.571,0.901,3.28-0.002,4.789
		c-2.912,4.869-5.559,9.797-6.935,15.397c-2.025,8.249-3.253,16.674-5.418,24.864c-1.312,4.962,2.747,8.637,2.03,13.229
		c-0.033,2.676-0.775,5.104-2.538,7.164c-3.445,3.82-5.688,8.083-4.916,13.455c0.166,2.621-0.33,5.046-2.063,7.083
		c-0.669,0.641-2.034-0.583-2.48,1.103c-2.004,7.553-3.41,15.203-3.965,22.998c-0.104,1.455-0.38,3.475,1.278,4.014
		c2.079,0.676,3.063-1.358,3.775-2.843c3.479-7.264,5.61-15.105,6.771-22.911c1.033-6.947,2.775-13.511,5.118-20.032
		C79.729,97.647,80.248,97.304,80.911,97.182z"/>
	<path style="fill-rule:evenodd;clip-rule:evenodd;fill:#C4A797;" d="M162.479,273.826c3.243,2.854,3.862-2.491,6.774-1.935
		c-1.383,18.17,3.513,35.992,3.685,54.174c-7.567,0.047-15.134,0.072-22.699,0.152c-2.595,0.028-4.843-0.198-4.711-3.662
		c0.303-7.994-2.432-15.826-1.293-23.868c2.805-1.86,5.024-4.137,5.489-7.671C153.884,285.218,157.011,278.654,162.479,273.826z"/>
	<path style="fill-rule:evenodd;clip-rule:evenodd;fill:#DAC4B3;" d="M257.795,285.589c-4.201,1.958-4.224-1.838-4.94-3.917
		c-5.351-15.506-10.89-30.962-15.651-46.653c-3.976-13.103-10.291-25.226-14.77-38.093c0.312-2.133-0.586-4.438,0.908-6.403
		c2.116-1.297,2.952,0.527,3.204,1.798c1.351,6.815,6.157,11.854,9.035,18.323c-0.687-2.674-2.408-5.256,1.507-6.303
		c4.502,3.279,4.554,9.021,7.357,13.243c2.151,5.595,3.975,11.299,5.601,17.066c2.604,11.012,11.277,17.931,17.846,26.237
		c3.392,4.29,5.183,8.804,4.28,14.257c-2.877,1.808-3.668-0.813-4.809-2.381c-1.492-2.049-2.576-4.427-4.601-6.041
		c-3.387-2.698-4.822-1.624-4.509,2.498c-1.074,2.848-0.003,5.555,0.55,8.284C259.374,280.326,259.69,283.089,257.795,285.589z"/>
	<path style="fill-rule:evenodd;clip-rule:evenodd;fill:#C4A797;" d="M107.638,326.094c-0.233-7.089,0.31-14.164-1.058-21.266
		c-0.749-3.887,0.014-8.079,0.48-12.177c0.702-6.177,6.044-13.198-2.193-18.606c-1.657-1.089,0.991-2.445,1.33-3.794
		c9.016,5.737,15.936,13.631,22.507,21.883c0.842,2.655,2.245,5.063,3.389,7.585c1.292,7.841-0.631,15.532-1.054,23.295
		c-0.173,3.183-2.271,3.201-4.537,3.189C120.215,326.167,113.927,326.129,107.638,326.094z"/>
	<path style="fill-rule:evenodd;clip-rule:evenodd;fill:#C4A897;" d="M77.604,250.382c-3.874-0.438-4.57,2.397-5.399,5.174
		c-2.554,8.55-3.193,17.413-3.591,26.207c-0.51,11.264-0.158,22.565-0.161,33.85c-0.003,10.412,0.008,10.412-10.144,10.325
		c-3.453-11.861-2.386-23.914-1.242-35.903c1.636-17.15,7.247-33.715,7.781-51.051c0.018-0.574,0.564-1.134,0.864-1.698
		c-0.144,8.113,6.796,9.166,11.954,11.995c0.44,0.271,0.577,0.523,0.413,0.76C77.921,250.266,77.763,250.382,77.604,250.382z"/>
	<path style="fill-rule:evenodd;clip-rule:evenodd;fill:#C5A897;" d="M212.107,326.067c1.064-27.02-2.877-53.709-5.253-80.503
		c-0.157-1.79-0.854-2.815-2.62-3.089c1.886-2.707,5.19-2.605,7.775-3.933c5.104,23.785,12.146,47.287,10.574,72.054
		c-0.123,1.946-0.117,3.9-0.142,5.85C222.313,326.424,222.316,326.424,212.107,326.067z"/>
	<path style="fill-rule:evenodd;clip-rule:evenodd;fill:#DAC4B3;" d="M48.881,174.574c4.112,6.475,2.711,13.536,2.117,20.483
		c-0.865,10.104-4.053,19.645-7.321,29.154c-1.55,9.912-9.08,16.136-14.55,23.632c-1.718,2.007-3.753,3.739-5.165,6.017
		c-1.097,1.484-2.138,3.041-4.146,3.419c-0.993-0.271-1.773-0.663-1.049-1.889c8.235-21.99,15.485-44.294,21.486-67.006
		c0.644-2.437,0.01-5.288,2.063-7.329c1.847,1.808,1.658,3.697-0.285,6.555c2.423-2.918,1.904-5.751,2.957-8.037
		C45.89,177.618,45.621,174.706,48.881,174.574z"/>
	<path style="fill-rule:evenodd;clip-rule:evenodd;fill:#DDC6B8;" d="M236.915,204.642c-3.18,3.355,1.75,6.253,0.19,10.45
		c-5.627-8.084-10.365-15.918-13.234-24.814c-1.041,0.041-1.938-0.32-2.74-0.96c-2.84-3.896-4.964-8.338-5.076-13.024
		c-0.145-5.981-2.094-10.393-7.226-12.948c-0.123-1.271-0.962-0.064-0.178-0.443c0.239-0.115,0.27,0.085,0.381,0.528
		c0.339,1.351,0.232,2.544-0.942,3.465c-1.991-2.456-0.886-5.327-1.069-8.025c1.501-2.049,3.871-1.624,5.922-2.103
		c1.978-1.723,1.55-3.758,0.761-5.83c-4.506-2.998-7.658-6.789-7.469-12.567c0.709-1.497,1.854-2.562,3.296-3.334
		c1.732-0.26,3.13,0.332,4.226,1.679c0.524,3.205,0.754,6.594,5.354,7.956c-0.285-7.488-3.14-14.376-3.272-21.602
		c0.421-1.55,0.328-3.544,2.826-3.313c3.48,11.559,6.757,23.164,7.813,35.26c0.123,0.175,0.383,0.471,0.348,0.511
		c-6.574,7.487-0.172,14.222,1.24,21.235c2.32,3.218,2.527,7.116,3.523,10.763c1.147,3.473,2.99,6.62,4.509,9.918
		C237.139,199.702,238.727,202.013,236.915,204.642z"/>
	<path style="fill-rule:evenodd;clip-rule:evenodd;fill:#E9D9CD;" d="M77.733,88.601c-7.342-10.219-1.094-20.459,0.424-30.486
		c1.204-7.961,3.012-16.126,8.313-22.865c0.895-1.136,3.04-2.498,1.715-4.4c-1.367-1.962-3.136,0.07-4.736,0.09
		c-0.648,0.01-1.296,0.013-1.943,0.02c4.294-3.193,8.769-5.875,14.465-5.065c-0.622,9.329,1.006,19.102-6.188,27.019
		c-4.142,4.557-3.924,10.794-5.422,16.356c-0.191,1.16-0.382,2.32-0.573,3.481c0.631,1.982,0.072,3.625-1.423,5.001
		c-4.537,2.265-1.453,7.35-3.842,10.41C78.26,88.309,77.997,88.454,77.733,88.601z"/>
	<path style="fill-rule:evenodd;clip-rule:evenodd;fill:#DDC7B8;" d="M155.945,19.329c3.584,4.069,3.226,6.462-2.567,7.852
		c-8.625,2.068-17.183,3.548-26.112,2.589c-4.28-0.46-7.766-2.312-11.333-4.385c-1.471-0.855-0.487-4.807-3.619-3.078
		c-2.451,1.354-4.434,3.283-4.712,6.542c-0.359,4.212,1.319,8.64-1.232,12.632c-1.458-5.144-0.265-10.398-0.648-15.583
		c0.255-5.35,4.159-6.887,8.423-8.048c3.473-3.192,4.89-7.484,6.301-11.78c0.566-0.409,1.158-0.43,1.77-0.118
		c0.571,0.657,1.196,1.454,1.042,2.276c-1.249,6.655,1.969,9.796,8.136,11.246c8.17,1.92,12.389,0.852,16.758-4.928
		c0.521-0.692,1.177-1.242,1.908-1.703c0.298-0.106,0.597-0.208,0.897-0.309C153.808,13.925,152.767,18.176,155.945,19.329z"/>
	<path style="fill-rule:evenodd;clip-rule:evenodd;fill:#C5A897;" d="M150.875,110.308c12.27,7.936,24.797,9.725,37.749,1.604
		c-3.106,13.349-3.722,26.776-1.222,40.296c0.69,2.052,0.961,4.132,0.431,6.266c-3.933,1.371-4.062-2.156-4.85-4.15
		c-3.107-7.855-6.315-15.711-8.184-23.974c-1.283-5.679-3.984-9.272-10.185-9.978c-3.868-0.439-7.605-1.892-10.72-4.391
		C152.146,114.576,149.639,113.384,150.875,110.308z"/>
	<path style="fill-rule:evenodd;clip-rule:evenodd;fill:#C5A897;" d="M206.907,138.039c1.211,5.307,3.438,9.848,8.957,11.918
		c-3.227,2.312-1.234,6.041-2.417,8.906c-2.143,0.003-4.285,0.005-6.427,0.008c-5.886-16.053-9.772-32.818-17.217-48.315
		c-0.123-5.112,4.268-8.412,5.251-13.08c4.493,7.523,5.57,16.217,8.166,24.376C204.889,127.09,207.508,132.239,206.907,138.039z"/>
	<path style="fill-rule:evenodd;clip-rule:evenodd;fill:#DEC8B9;" d="M180.608,58.207c-1.588-6.345-3.268-12.677-2.562-19.326
		c0.242-2.338,0.621-4.663,1.309-6.905c0.593-1.936,1.488-3.73,4.084-2.328c7.979,3.019,15.622,6.422,18.12,15.748
		c-0.992,1.397-0.955,3.525-2.977,4.195c-4.432-2.862-5.182-9.076-10.23-11.113c2.7,8.273,4.714,16.759,0.18,25.308
		c-1.285-1.01-2.572-2.019-3.856-3.028C183.044,60.346,181.339,60.053,180.608,58.207z"/>
	<path style="fill-rule:evenodd;clip-rule:evenodd;fill:#DEC8BA;" d="M230.379,187.671c-1.918-3.248-1.367-7.423-3.913-10.435
		c0.771-3.768-1.726-7.059-1.543-10.78c0.125-2.577-0.614-5.8,2.542-6.568c2.987-0.727,3.473,2.583,4.556,4.573
		c0.398,0.731,0.375,1.679,1.074,2.285c4.977,8.476,7.575,17.741,9.087,27.367c-0.319,4.909,4.102,9.49,1.012,14.59
		c-2.629,0.365-3.369-1.678-3.924-3.455c-2.429-7.787-7.384-14.629-8.15-22.222C231.723,184.206,232.097,186.013,230.379,187.671z"
		/>
	<path style="fill-rule:evenodd;clip-rule:evenodd;fill:#C5A998;" d="M76.267,34.847c2.595,6.717-0.172,13.061-1.921,19.228
		c-2.785,9.818-4.451,20.024-9.233,29.289c-1.2-2.061-1.827-4.291-1.863-6.695c1.305-11.657,1.239-23.603,7.222-34.278
		C72.038,39.593,73.353,36.608,76.267,34.847z"/>
	<path style="fill-rule:evenodd;clip-rule:evenodd;fill:#DCC6B6;" d="M22.794,252.958c1.244-2.239,2.988-3.982,5.227-5.229
		c3.431,1.158,0.386,4.951,2.676,6.572c-1.619,8.587-6.273,15.887-10.045,23.553c-0.688,1.4-1.133,3.964-3.309,3.065
		c-1.93-0.797-0.944-2.936-0.427-4.553c0.261-0.813,0.483-1.64,0.723-2.46c0.874-1.593,0.094-2.232-1.413-2.45l0.058-0.424
		c-2.259-2.103-5.593-0.751-7.968-2.48c3.604-4.291,7.97-7.978,10.452-13.16c0.463,0.489,0.926,0.979,1.389,1.471
		C21.616,255.954,23.582,255.385,22.794,252.958z"/>
	<path style="fill-rule:evenodd;clip-rule:evenodd;fill:#DDC7B9;" d="M122.037,6.196c-0.529-0.041-1.058-0.082-1.589-0.124
		c0.654-0.794,1.294-2.263,1.968-2.278c8.596-0.194,17.258-0.811,25.774,0.025c4.82,0.474,1.364,5.877,2.765,8.715
		c0.002,0-0.342,0.266-0.342,0.266c-2.979,0.252-5.808,0.988-8.675,1.914C132.91,17.63,125.919,14.509,122.037,6.196z"/>
	<path style="fill-rule:evenodd;clip-rule:evenodd;fill:#E1CDC0;" d="M218.664,119.758c-1.556,0.937-1.288,2.493-1.34,3.941
		c-3.308-0.213-3.292-3.144-3.826-5.195c-3.258-12.539-7.453-24.672-12.321-36.727c-3.297-8.161-1.84-17.77-1.457-26.774
		c3.534-1.734,2.756,1.785,3.783,3.104c1.181,2.087,0.313,4.603,1.395,6.713c0.855,2.058,0.628,4.401,1.684,6.409
		c0.148,0.611,0.246,1.232,0.315,1.856c0.562,2.721,0.033,5.562,0.919,8.242c0.158,0.569,0.254,1.156,0.296,1.744
		c0.092,0.541-0.069,1.109,0.147,1.647c0.034-0.831,0.228-1.614,0.686-2.322c0.229-0.172,0.46-0.342,0.691-0.511
		C212.645,94.51,215.655,107.133,218.664,119.758z"/>
	<path style="fill-rule:evenodd;clip-rule:evenodd;fill:#D9C4B5;" d="M84.361,69.269c-2.133-8.458,1.082-15.179,7.251-20.583
		c1.127-0.988,1.541-1.66,1.705-2.912c0.864-6.631,1.764-13.255,2.653-19.88c0.423-0.104,0.851-0.136,1.285-0.095
		c-1.175,10.605-2.197,21.229-3.585,31.805C92.939,63.178,88.94,66.554,84.361,69.269z"/>
	<path style="fill-rule:evenodd;clip-rule:evenodd;fill:#C6AA9A;" d="M48.881,174.574c-3.25,3.784-1.805,9.659-5.909,13.275
		c-1.287-2.265-0.237-4.609-0.655-6.794c1.33-6.736,2.579-13.492,4.038-20.202c0.503-2.316,1.652-4.442,3.684-5.909
		c0.444-0.449,1.11-0.822,1.295-1.361c0.655-1.904,1.49-4.479,3.754-3.36c3.146,1.554-0.27,3.135-0.91,4.483
		C51.181,161.025,48.912,167.487,48.881,174.574z"/>
	<path style="fill-rule:evenodd;clip-rule:evenodd;fill:#C7A598;" d="M208.09,166.896c-0.099-3.923,0.577-5.948,4.819-2.711
		c2.776,2.117,4.67,4.356,4.47,7.945c-0.35,6.261,2.294,11.59,5.163,16.855c-0.506,3.157-2.425,2.144-4.239,1.438
		C212.94,183.43,208.938,175.849,208.09,166.896z"/>
	<path style="fill-rule:evenodd;clip-rule:evenodd;fill:#E3D0C2;" d="M242.146,208.551c3.358-4.803-1.6-9.628,0.036-14.438
		c5.27,12.998,7.354,26.615,7.864,40.537c-3.021-5.326-5.851-10.728-6.621-16.933C243.73,214.56,239.928,211.975,242.146,208.551z"
		/>
	<path style="fill-rule:evenodd;clip-rule:evenodd;fill:#E9DACE;" d="M30.697,254.302c-1.249-1.99-2.708,1.541-3.652-0.019
		c-1.061-1.751-0.231-3.081,1.709-3.79c0.081-0.028-0.475-1.802-0.734-2.764c1.155-3.323,3.773-5.608,5.99-8.122
		c4.077-4.625,6.963-9.938,9.666-15.396c0.879-0.426,1.76-0.852,2.64-1.277c-1.705,7.018-6.488,12.49-9.568,18.825
		C34.72,245.932,32.199,249.868,30.697,254.302z"/>
	<path style="fill-rule:evenodd;clip-rule:evenodd;fill:#CBB1A2;" d="M187.29,159.001c0.038-2.263,0.074-4.526,0.111-6.792
		c4.834,12.231,9.668,24.464,14.503,36.698c-1.608-0.546-1.75-2.26-2.673-3.341c-1.584-1.858-1.221,0.161-1.522,0.833
		c-1.284,0.235-2.051-0.53-2.58-1.495c-3.771-6.862-6.134-14.298-8.65-21.663C185.977,161.77,186.098,160.238,187.29,159.001z"/>
	<path style="fill-rule:evenodd;clip-rule:evenodd;fill:#FBF8F7;" d="M257.795,285.589c0.453-4.156-0.591-8.133-1.677-12.057
		c-0.581-2.097-0.964-3.793,1.567-4.7c4.156,2.016,8.57,3.663,11.257,7.807c-0.166,5.563-4.732,6.203-8.574,7.654
		C259.51,284.724,258.654,285.157,257.795,285.589z"/>
	<path style="fill-rule:evenodd;clip-rule:evenodd;fill:#C5A795;" d="M268.13,276.529c-3.334-2.764-8.114-3.569-10.443-7.7
		c-0.462-1.553-3.453-2.321-1.225-4.754c1.831-1.998,3.341-0.829,5.139-0.154c3.334,1.25,4.536,4.383,6.415,6.904
		c1.213,1.63,1.354,4.231,4.156,4.319c0.123,0.389,0.18,0.787,0.172,1.195C271.101,280.02,269.614,278.21,268.13,276.529z"/>
	<path style="fill-rule:evenodd;clip-rule:evenodd;fill:#E6D5C8;" d="M233.095,166.746c-2.619-1.202-2.537-6.839-5.201-5.523
		c-3.163,1.561-1.362,6.193-1.123,9.466c0.163,2.237,2.085,4.44-0.305,6.546c-3.129-7.143-4.044-14.755-5.302-21.196
		c2.278-4.636,3.457,5.518,5.313-1.022C229.161,158.656,233.146,161.563,233.095,166.746z"/>
	<path style="fill-rule:evenodd;clip-rule:evenodd;fill:#DCC7B7;" d="M268.13,276.529c1.419,0.265,2.901,1.964,4.213-0.189
		c0.784,3.561,1.002,7.604-2.001,9.698c-3.181,2.218-6.893,0.4-9.974-1.745C261.577,280.328,268.133,281.708,268.13,276.529z"/>
	<path style="fill-rule:evenodd;clip-rule:evenodd;fill:#CBB0A0;" d="M73.682,141.931c1.756-7.817,3.511-15.634,5.266-23.45
		c3.889,2.104,1.353,5.308,1.383,8.072c0.758,6.76-3.463,12.042-5.346,18.016C72.549,144.679,72.948,143.389,73.682,141.931z"/>
	<path style="fill-rule:evenodd;clip-rule:evenodd;fill:#CAAE9C;" d="M8.315,268.552c2.932-0.056,6.912-3.479,7.968,2.48
		c-0.492,0.478-0.985,0.957-1.477,1.435c-2.719,1.897-4.741,4.894-8.3,5.462c-2.028,0.325-4.485,0.904-3.271-2.746
		C3.626,271.975,5.954,270.25,8.315,268.552z"/>
	<path style="fill-rule:evenodd;clip-rule:evenodd;fill:#DCC6B6;" d="M3.235,275.183c0.716,3.615,3.096,1.259,4.325,0.857
		c2.535-0.825,4.845-2.34,7.248-3.571c-1.537,2.796-3.907,5.059-4.811,8.308c-0.469,1.683-0.811,4.385-3.206,4.282
		c-2.39-0.1-3.311-2.492-4.104-4.532C1.966,278.673,1.393,276.794,3.235,275.183z"/>
	<path style="fill-rule:evenodd;clip-rule:evenodd;fill:#CDB3A4;" d="M73.682,141.931c0.054,1.068,0.254,2.063,1.304,2.639
		c-1.274,4.358-2.548,8.718-3.822,13.077c-1.941,0.871-0.936,3.84-4.437,4.822C68.047,154.882,71.521,148.593,73.682,141.931z"/>
	<path style="fill-rule:evenodd;clip-rule:evenodd;fill:#C62869;" d="M132.094,299.719c-3.019-1.686-5.644-3.545-3.391-7.586
		c5.135-1.081,7.201,1.535,7.531,6.244C134.819,298.72,133.17,298.335,132.094,299.719z"/>
	<path style="fill-rule:evenodd;clip-rule:evenodd;fill:#C5326B;" d="M149.724,291.016c2.907,5.945-0.617,7.289-5.489,7.671
		c-0.468-0.554-0.934-1.106-1.401-1.661C143.874,293.583,144.949,290.177,149.724,291.016z"/>
	<path style="fill-rule:evenodd;clip-rule:evenodd;fill:#C42868;" d="M72.006,215.903c-2.124,3.052-3.78,6.308-4.386,10.011
		c-0.194-3.606,0.21-7.322-1.248-10.698c-1.118-2.589,0.077-3.512,2.176-4.198C71.722,211.217,70.889,214.248,72.006,215.903z"/>
	<path style="fill-rule:evenodd;clip-rule:evenodd;fill:#E4D4C8;" d="M183.439,29.648c-4.983,1.216-1.142,7.588-5.393,9.233
		c-2.981-3.572-0.468-7.828-1.448-11.65C179.078,27.473,181.478,27.944,183.439,29.648z"/>
	<path style="fill-rule:evenodd;clip-rule:evenodd;fill:#D0B8A9;" d="M202.938,58.458c-0.853-1.328-1.709-2.657-2.563-3.987
		c-1.773-1.393-2.87-2.957-1.325-5.196c0.024-1.82-0.174-3.784,2.512-3.881c1.355,2.9,2.652,5.817,2.71,9.102
		C202.973,55.531,204.241,57.427,202.938,58.458z"/>
	<path style="fill-rule:evenodd;clip-rule:evenodd;fill:#CAAF9E;" d="M60.672,105.426c2.543,2.416,2.131,9.267-0.642,10.651
		c-0.26-0.549-0.521-1.098-0.782-1.647C59.747,111.431,57.962,108.073,60.672,105.426z"/>
	<path style="fill-rule:evenodd;clip-rule:evenodd;fill:#D33D7B;" d="M210.495,193.959c0.14-1.665,0-4.174,1.986-4.092
		c2.716,0.111,2.577,2.927,2.535,4.965c-0.033,1.629-0.355,4.031-2.373,3.805C210.323,198.375,210.484,195.89,210.495,193.959z"/>
	<path style="fill-rule:evenodd;clip-rule:evenodd;fill:#CEB5A6;" d="M57.933,196.724c-1.612-5.327,0.054-9.923,4.177-11.521
		C62.05,189.527,58.83,192.704,57.933,196.724z"/>
	<path style="fill-rule:evenodd;clip-rule:evenodd;fill:#CB3171;" d="M209.615,219.963c-2.578-1.474-1.042-4.165-1.826-6.171
		c0.342-2.366,1.801-3.015,3.963-2.568C212.786,214.561,211.358,217.301,209.615,219.963z"/>
	<path style="fill-rule:evenodd;clip-rule:evenodd;fill:#CCB2A2;" d="M206.874,83.224c-0.017-0.427-0.021-0.854-0.011-1.281
		c-1.654-2.884,0.474-6.298-1.286-9.169c-0.013-0.427-0.019-0.855-0.013-1.283c-1.158-1.889-0.464-3.938-0.516-5.923
		c0.223-0.253,0.447-0.506,0.671-0.759c1.639,2.375,2.464,5.008,2.506,7.889c1.247,2.822,0.314,5.791,0.581,8.677
		C208.7,82.552,208.483,83.616,206.874,83.224z"/>
	<path style="fill-rule:evenodd;clip-rule:evenodd;fill:#C8AC9C;" d="M218.303,190.423c1.494-0.241,3.21,0.173,4.239-1.438
		c0.443,0.432,0.887,0.861,1.328,1.293c-0.317,2.25,0.869,4.824-1.436,6.647C221.056,194.759,219.681,192.592,218.303,190.423z"/>
	<path style="fill-rule:evenodd;clip-rule:evenodd;fill:#CAAF9F;" d="M62.059,92.37c0.976-1.336,1.953-2.673,3.529-4.828
		c-0.414,3.553-0.416,6.332-1.123,8.917c-0.807,2.954-1.771,0.867-2.551-0.231C61.962,94.942,62.01,93.656,62.059,92.37z"/>
	<path style="fill-rule:evenodd;clip-rule:evenodd;fill:#EADACE;" d="M114.145,17.85c-2.968,1.755-5.873,3.582-7.791,6.578
		c-0.518-0.256-0.909-0.636-1.154-1.162c-0.104-0.774-0.209-1.549-0.314-2.323C107.415,18.249,110.753,17.969,114.145,17.85z"/>
	<path style="fill-rule:evenodd;clip-rule:evenodd;fill:#CCB2A2;" d="M202.938,58.458c0.09-1.439-0.216-3.013,1.333-3.962
		c0.482,3.438,0.966,6.875,1.448,10.313c0.001-0.001-0.169,0.16-0.169,0.16c-0.441,0.592-0.885,0.622-1.333,0.006
		C202.102,63.135,203.259,60.653,202.938,58.458z"/>
	<path style="fill-rule:evenodd;clip-rule:evenodd;fill:#CBB1A0;" d="M80.331,126.553c-0.591-2.668,1.006-5.712-1.383-8.074
		c0.597-1.317,1.193-2.637,2.333-5.156c0.155,3.01,0.247,4.786,0.34,6.561C81.399,122.149,82.051,124.581,80.331,126.553z"/>
	<path style="fill-rule:evenodd;clip-rule:evenodd;fill:#D0B9AB;" d="M208.196,81.909c0.009-3.07,0.019-6.141,0.027-9.211
		c2.125,2.808,0.875,6.134,1.412,9.187l-0.317,0.037C208.937,82.533,208.564,82.53,208.196,81.909z"/>
	<path style="fill-rule:evenodd;clip-rule:evenodd;fill:#F5EEEA;" d="M16.226,271.457c0.993-0.722,1.986-1.442,3.269-2.373
		c0.638,2.322-0.686,3.544-1.856,4.822C17.167,273.09,16.697,272.273,16.226,271.457z"/>
	<path style="fill-rule:evenodd;clip-rule:evenodd;fill:#DDC7B8;" d="M187.29,159.001c2.063,9.669,5.956,18.642,10.42,27.398
		c0.992,7.698,2.443,15.214-0.903,22.965c-5.631,13.046-16.364,18.77-29.211,21.257c-21.25,4.112-41.862-0.449-61.91-6.82
		c-6.825-2.169-8.941-10.501-10.766-16.958c-5.151-18.233-5.512-36.044,8.528-51.279c6.835-7.418,6.617-17.045,7.974-26.159
		c0.209-1.413-0.424-2.248-1.739-3.078c-4.588-2.897,1.987-1.447,1.192-3.001c0.983-3.039-6.714,2.27-3.22-3.289
		c4.322-1.409,8.644-2.817,12.966-4.227c5.832-3.26,8.876-8.792,11.768-14.447c5.896-3.796,11.093-2.773,14.198,2.645
		c1.26,2.197,2.849,4.207,4.288,6.302c3.525,6.908,10.538,8.063,16.911,8.998c4.913,0.722,6.625,3.027,7.626,7.079
		c2.281,9.228,5.552,18.126,8.97,26.979C185.156,155.366,185.448,157.569,187.29,159.001z"/>
	<path style="fill-rule:evenodd;clip-rule:evenodd;fill:#E9D9CD;" d="M199.049,49.275c0.441,1.731,0.883,3.464,1.325,5.196
		c1.657,7.877,1.364,15.868,1.249,23.831c-0.053,3.606,2.502,5.907,3.873,8.738c5.227,10.781,7.027,22.564,10.514,33.846
		c0.302,0.979,0.869,1.877,1.314,2.813c1.295,6.548,2.669,13.084,3.812,19.66c0.224,1.292,0.988,3.337-0.829,3.968
		c-0.887,0.307-2.427-0.63-3.408-1.356c-3.164-2.339-6.568-4.703-3.607-9.428c-1.205-0.585-1.322-5.094-3.812-1.06
		c-0.078,1.636-0.894,2.532-2.572,2.557c-4.896-13.245-9.112-26.688-11.853-40.563c0.301-5.4,1.864-10.836-0.482-16.156
		c-1.039-3.273-2.521-6.393-3.333-9.743c0.984-3.253-2.799-4.851-2.707-7.792c-0.986-5.318,2.228-10.313,0.544-15.974
		c-1.259-4.229-1.247-8.773-6.443-12.658C192.902,36.372,195.356,43.483,199.049,49.275z"/>
	<path style="fill-rule:evenodd;clip-rule:evenodd;fill:#DE92A5;" d="M105.2,23.266c0.385,0.387,0.769,0.774,1.154,1.162
		c0.005,5.684,0.011,11.368,0.017,17.053c0.233,2.333-1.011,5.002,1.552,6.804c1.225,1.751,1.207,3.414-0.351,4.967
		c-2.068,1.678-0.821,4.025-1.224,6.038c-2.636-3.863-1.068-8.228-1.243-12.315C104.768,39.088,105.128,31.17,105.2,23.266z"/>
	<path style="fill-rule:evenodd;clip-rule:evenodd;fill:#BE2A67;" d="M191.239,71.577c2.744,2.695,4.766,5.637,3.338,9.751
		C186.08,77.377,185.753,76.423,191.239,71.577z"/>
	<path style="fill-rule:evenodd;clip-rule:evenodd;fill:#C1A797;" d="M132.389,101.363c-0.582,7.538-4.547,12.32-11.768,14.447
		C124.786,111.192,127.015,104.998,132.389,101.363z"/>
	<path style="fill-rule:evenodd;clip-rule:evenodd;fill:#B3225E;" d="M94.654,63.34c0.029-2.444-0.473-5.114,3.252-4.972
		c1.572,0.062,3.254,0.171,2.953,2.318c-0.404,2.88-1.655,5.706-4.733,6.109C94.187,67.049,94.872,64.575,94.654,63.34z"/>
	<path style="fill-rule:evenodd;clip-rule:evenodd;fill:#BF316B;" d="M75.03,94.947c0.901-2.115,1.802-4.232,2.703-6.346
		l-0.021-0.014c0.689-0.95,1.455-0.88,2.268-0.17c2.681,2.672-0.796,6.004,0.937,8.771c-0.204,0.208-0.444,0.356-0.727,0.435
		C77.387,98.819,74.493,100.189,75.03,94.947z"/>
	<path style="fill-rule:evenodd;clip-rule:evenodd;fill:#C02264;" d="M167.795,54.709c-3.341-3.753-1.835-7.053,0.96-10.225
		c0.396,1.62,0.748,3.184,1.943,4.528C174.456,53.238,172.576,54.752,167.795,54.709z"/>
	<path style="fill-rule:evenodd;clip-rule:evenodd;fill:#AE265E;" d="M180.608,58.207c1.681,0.334,3.301,0.767,4.068,2.551
		c-0.592,2.004-1.184,4.01-1.94,6.578C179.538,64.553,175.255,62.621,180.608,58.207z"/>
	<path style="fill-rule:evenodd;clip-rule:evenodd;fill:#B62160;" d="M85.534,72.862c1.397-0.615,3.331-2.43,3.712,0.607
		c0.368,2.94,1.146,6.665-3.746,7.057C81.423,77.953,83.67,75.408,85.534,72.862z"/>
	<path style="fill-rule:evenodd;clip-rule:evenodd;fill:#DDC7B8;" d="M79.979,88.417c-0.756,0.056-1.512,0.112-2.268,0.168
		c2.272-3.638-0.255-8.835,3.86-11.873c0.773,0.855,0.776,1.704-0.027,2.542C79.975,82.13,80.243,85.319,79.979,88.417z"/>
	<path style="fill-rule:evenodd;clip-rule:evenodd;fill:#6B3F4E;" d="M81.544,79.255c0.01-0.848,0.019-1.696,0.028-2.542
		c0.738-1.321,1.477-2.643,2.215-3.963c0.581,0.037,1.163,0.074,1.745,0.111c-0.483,2.554-2.548,5.1-0.033,7.666
		C84.182,80.102,82.863,79.678,81.544,79.255z"/>
	<path style="fill-rule:evenodd;clip-rule:evenodd;fill:#AD245C;" d="M77.514,235.112c-0.13,1.616,0.003,3.578-2.145,3.276
		c-3.004-0.422-4.068-2.815-4.27-5.567c-0.117-1.581,0.236-3.268,2.258-3.082C76.585,230.035,77.258,232.555,77.514,235.112z"/>
	<path style="fill-rule:evenodd;clip-rule:evenodd;fill:#BE2D68;" d="M77.604,250.382c0.025-0.368,0.045-0.736,0.06-1.103
		c6.444-2.972,6.844,2.577,8.647,6.135C80.659,258.487,80.423,252.201,77.604,250.382z"/>
	<path style="fill-rule:evenodd;clip-rule:evenodd;fill:#AA245B;" d="M201.673,234.727c0.023-2.633,0.133-4.894,3.077-5.096
		c1.702-0.118,3.015,0.657,2.616,2.661c-0.506,2.544-1.18,5.46-4.23,5.659C201.126,238.085,202.065,235.624,201.673,234.727z"/>
	<path style="fill-rule:evenodd;clip-rule:evenodd;fill:#C83570;" d="M199.148,245.725c0.025,1.071,0.227,2.175,0.046,3.211
		c-0.452,2.585-0.082,6.686-3.651,6.304c-4.16-0.444-0.299-4.262-1.316-6.341C195.541,247.33,196.94,245.903,199.148,245.725z"/>
	<path style="fill-rule:evenodd;clip-rule:evenodd;fill:#CF3A74;" d="M175.38,276.78c1.921,0.238,2.674,1.63,2.544,3.188
		c-0.185,2.253-1.054,4.307-3.858,4.335c-1.61,0.017-2.411-1.005-2.176-2.524C172.228,279.598,172.964,277.579,175.38,276.78z"/>
	<path style="fill-rule:evenodd;clip-rule:evenodd;fill:#D0467A;" d="M185.6,271.178c-1.796-0.198-2.342-1.372-1.9-2.752
		c0.636-1.986,1.101-4.493,3.865-4.484c1.413,0.004,2.239,1.451,2.069,2.813C189.339,269.109,187.821,270.57,185.6,271.178z"/>
	<path style="fill-rule:evenodd;clip-rule:evenodd;fill:#CF3272;" d="M107.571,53.252c0.116-1.657,0.233-3.311,0.35-4.968
		c1.683-0.008,3.373-2.569,5.032-0.023c0.595,0.912,1.009,2.065,0.1,2.926C111.554,52.609,110.571,55.722,107.571,53.252z"/>
	<path style="fill-rule:evenodd;clip-rule:evenodd;fill:#D13E78;" d="M157.257,43.944c-0.09,1.481-0.452,2.521-1.88,2.234
		c-1.988-0.398-3.721-1.237-3.859-3.644c-0.089-1.575,0.646-2.483,2.275-2.278C156.085,40.546,157.016,42.118,157.257,43.944z"/>
	<path style="fill-rule:evenodd;clip-rule:evenodd;fill:#D03673;" d="M127.31,42.823c-0.271,2.063-1.801,2.991-3.521,3.268
		c-2.515,0.404-1.888-1.723-1.978-3.053c-0.158-2.339,1.287-2.944,3.31-2.745C126.645,40.442,127.472,41.21,127.31,42.823z"/>
	<path style="fill-rule:evenodd;clip-rule:evenodd;fill:#D2447B;" d="M142.56,41.135c-0.64,2.022-1.76,2.934-3.496,2.578
		c-1.574-0.321-2.912-1.253-2.733-3.07c0.167-1.693,1.657-1.743,2.987-1.732C141.032,38.926,142.073,39.798,142.56,41.135z"/>
	<path style="fill-rule:evenodd;clip-rule:evenodd;fill:#CF3773;" d="M92.592,272.259c-2.378-1.271-3.568-3.159-3.209-5.785
		c0.172-1.263,0.758-2.802,2.402-2.105c2.189,0.924,2.968,2.95,2.821,5.286C94.523,270.962,94.339,272.231,92.592,272.259z"/>
	<path style="fill-rule:evenodd;clip-rule:evenodd;fill:#CF3A74;" d="M103.018,276.954c2.021,1.058,3.421,2.587,3.409,5.007
		c-0.006,1.222,0.196,3.075-1.454,3.063c-2.576-0.018-3.456-2.202-3.828-4.394C100.879,279.063,101.26,277.621,103.018,276.954z"/>
	<path style="fill-rule:evenodd;clip-rule:evenodd;fill:#E9D7CC;" d="M75.03,94.947c0.428,3.383,3.425,1.814,5.16,2.676
		c-1.312,8.625-3.579,17.068-5.294,25.606c-0.994,4.943-2.144,10.109-4.016,14.932c-0.857,2.208-1.951,4.365-3.223,6.363
		c-1.068,1.681-2.673,2.971-4.905,2.476c-2.765-0.613-2.108-2.973-2.062-4.772c0.264-9.979,1.863-19.725,5.522-29.167
		c0.803,0.941,1.576,1.849,2.349,2.755c2.277-2.202,5.031-4.309,1.485-7.642C68.123,102.413,70.424,98.245,75.03,94.947z"/>
	<path style="fill-rule:evenodd;clip-rule:evenodd;fill:#CE2F70;" d="M70.047,108.173c2.193-0.328,3.699,0.092,3.61,2.821
		c-0.111,3.373-1.65,5.06-5.096,4.821C67.853,113.033,69.973,110.802,70.047,108.173z"/>
	<path style="fill-rule:evenodd;clip-rule:evenodd;fill:#D04579;" d="M64.525,158.101c-2.96-3.054-3.266-5.51-1.401-7.996
		c0.366-0.487,2.456-0.493,2.889,0.015C68.303,152.804,65.443,154.685,64.525,158.101z"/>
	<path style="fill-rule:evenodd;clip-rule:evenodd;fill:#CC1D67;" d="M64.529,174.513c-0.672,0.643-1.344,1.286-2.017,1.929
		c-1.463-1.797-0.67-3.773-0.453-5.704C66.466,169.652,65.262,172.237,64.529,174.513z"/>
	<path style="fill-rule:evenodd;clip-rule:evenodd;fill:#D04479;" d="M64.529,174.513c-0.083-1.744,0.161-3.7-2.47-3.775
		c0.257-1.421,1.147-2.577,2.41-1.49C66.184,170.722,66.415,172.735,64.529,174.513z"/>
	<path style="fill-rule:evenodd;clip-rule:evenodd;fill:#CB286A;" d="M165.059,290.35c-0.694,2.538-2.592,3.187-4.909,3.226
		c-2.273,0.036-3.007-1.273-2.824-3.284c0.256-2.817,2.241-3.431,4.574-3.23C163.792,287.223,165.046,288.264,165.059,290.35z"/>
	<path style="fill-rule:evenodd;clip-rule:evenodd;fill:#E7D6C9;" d="M242.146,208.551c-0.085,3.128,3.371,5.76,1.279,9.167
		c-3.631-3.631-3.85-8.962-6.51-13.075c-0.6-6.266-6.041-10.666-6.536-16.972c0.296-1.819-0.652-3.815,1.16-6.021
		C235.165,190.844,238.654,199.698,242.146,208.551z"/>
	<path style="fill-rule:evenodd;clip-rule:evenodd;fill:#CB376F;" d="M121.173,291.092c-0.111,2.025-1.6,2.271-3.132,2.316
		c-1.916,0.06-3.56-0.644-3.44-2.801c0.094-1.687,0.85-3.558,2.982-3.492C119.914,287.185,120.522,289.234,121.173,291.092z"/>
	<path style="fill-rule:evenodd;clip-rule:evenodd;fill:#E3D1C4;" d="M22.794,252.958c1.073,2.937,0.572,3.68-2.637,3.905
		C21.036,255.562,21.915,254.26,22.794,252.958z"/>
	<path style="fill-rule:evenodd;clip-rule:evenodd;fill:#CB2E6C;" d="M213.447,158.864c-0.963-3.448-4.835-7.688,2.418-8.906
		C215.536,153.056,218.025,156.92,213.447,158.864z"/>
	<path style="fill-rule:evenodd;clip-rule:evenodd;fill:#CF2E6F;" d="M209.479,135.482c0.223-2.164-1.308-6.167,1.05-6.076
		c3.845,0.145,2.631,4.354,2.762,7.136C211.715,137.287,210.649,136.196,209.479,135.482z"/>
	<path style="fill-rule:evenodd;clip-rule:evenodd;fill:#C6A998;" d="M122.037,6.196c6.529,8.596,14.538,10.395,23.908,4.964
		c2.525-1.463,3.382,0.352,4.668,1.64c-2.11,3.41-2.074,8.595-7.735,9.042c-7.336,0.579-14.546-0.054-20.466-4.679
		C118.571,14.164,123.358,9.859,122.037,6.196z"/>
	<path style="fill-rule:evenodd;clip-rule:evenodd;fill:#CFB6A6;" d="M208.196,81.909c0.375,0.003,0.751,0.008,1.123,0.013
		c-0.048,2.251,0.805,4.578-0.514,6.855c-2.813-1.198-1.638-3.631-1.932-5.554C207.314,82.786,207.756,82.348,208.196,81.909z"/>
	<path style="fill-rule:evenodd;clip-rule:evenodd;fill:#D0B8A9;" d="M205.577,72.774c2.505,2.766,0.818,6.118,1.286,9.169
		C204.431,79.167,206.05,75.824,205.577,72.774z"/>
	<path style="fill-rule:evenodd;clip-rule:evenodd;fill:#D0B8A9;" d="M204.217,64.976c0.443-0.003,0.89-0.005,1.333-0.006
		c0.004,2.174,0.01,4.346,0.015,6.521C203.437,69.667,204.594,67.162,204.217,64.976z"/>
	<path style="fill-rule:evenodd;clip-rule:evenodd;fill:#CB3E73;" d="M216.211,173.429c-0.077,1.812,0.027,4.186-2.067,4.165
		c-2.658-0.023-2.159-2.652-2.164-4.476c-0.008-1.677-0.087-4.112,2.001-4.089C216.598,169.057,215.97,171.741,216.211,173.429z"/>
	<path style="fill-rule:evenodd;clip-rule:evenodd;fill:#EADACE;" d="M152.062,131.516c5.436,1.003,10.081,3.906,14.988,6.194
		c4.901,2.286,4.862,7.509,6.741,11.447c7.204,15.097,14.012,30.466,13.417,47.708c-0.335,9.657-3.316,18.258-12.42,23.625
		c-3.215,1.896-5.99,2.566-9.754,1.446c-7.451-2.215-15.227-3.347-22.662-5.601c-15.297-4.638-19.389-10.155-20.35-26.007
		c-1.372-22.584,5.996-42.115,20.38-59.323c1.743-2.085,3.573-2.063,5.722-2.077C149.126,130.263,151.042,130.206,152.062,131.516z"
		/>
	<path style="fill-rule:evenodd;clip-rule:evenodd;fill:#C7AB9B;" d="M140.126,223.82c-0.4,1.955-1.669,2.866-3.608,2.888
		c-2.339,0.027-2.741-1.504-2.714-3.416c0.031-2.167,1.113-3.139,3.223-2.864C138.95,220.677,140.103,221.741,140.126,223.82z"/>
	<path style="fill-rule:evenodd;clip-rule:evenodd;fill:#E5D3C6;" d="M152.062,131.516c-1.904,0.037-3.796,0.054-3.938-2.587
		C150.033,128.884,151.913,128.882,152.062,131.516z"/>
	<path style="fill-rule:evenodd;clip-rule:evenodd;fill:#D13E78;" d="M210.204,113.66c0.357,1.828-0.822,2.578-2.109,2.655
		c-2.817,0.168-2.776-2.151-2.848-3.998c-0.054-1.342-0.451-3.666,1.583-3.473C209.3,109.079,209.354,111.91,210.204,113.66z"/>
	<path style="fill-rule:evenodd;clip-rule:evenodd;fill:#D34D80;" d="M202.909,94.724c-0.126,1.278-0.187,2.906-2.028,2.405
		c-2.087-0.566-2.771-2.548-3.093-4.474c-0.232-1.384,0.196-2.773,1.994-2.292C201.858,90.922,202.783,92.595,202.909,94.724z"/>
	<path style="fill-rule:evenodd;clip-rule:evenodd;fill:#CE2D6F;" d="M64.63,136.394c0-1.18-0.34-2.289,0.06-2.737
		c1.523-1.706-0.379-5.095,2.69-5.741c1.008-0.211,1.394,1.396,1.545,2.467C69.371,133.52,68.404,135.671,64.63,136.394z"/>
</g>
</svg>
