<?xml version="1.0" encoding="utf-8"?>
<!-- Generator: Adobe Illustrator 16.0.0, SVG Export Plug-In . SVG Version: 6.00 Build 0)  -->
<!DOCTYPE svg PUBLIC "-//W3C//DTD SVG 1.1//EN" "http://www.w3.org/Graphics/SVG/1.1/DTD/svg11.dtd">
<svg version="1.1" id="Capa_1" xmlns="http://www.w3.org/2000/svg" xmlns:xlink="http://www.w3.org/1999/xlink" x="0px" y="0px"
	 width="275px" height="327.891px" viewBox="0 0 275 327.891" style="enable-background:new 0 0 275 327.891;" xml:space="preserve"
	>
<g>
	<path style="fill-rule:evenodd;clip-rule:evenodd;fill:#3B3A3B;" d="M192.148,116.529c-1.334,1.857-3.476,2.498-5.35,3.538
		c-1.459,1.299-3.117,2.229-5.01,2.732c-9.678,3.047-17.911-0.361-25.78-5.668c-2.93-1.975-5.611-4.32-8.78-5.923
		c-2.588-1.933-5.041-4.369-8.692-2.296c-0.703,0.534-1.347,1.122-1.977,1.74c-3.133,3.095-6.094,6.354-9.351,9.304
		c-7.842,7.104-17.159,8.011-27.058,6.262c-2.146-0.38-3.861-1.539-5.083-3.374c-4.007-1.918-5.569-6.151-8.554-9.038
		c-3.395-2.137-5.65-4.876-4.895-9.221c0.917-7.706-0.002-15.709,3.691-22.966c7.502-8.581,10.99-18.781,12.288-29.94
		c0.3-2.586,0.561-5.426,3.034-7.203c2.232-0.668,3.101,1.569,4.726,2.207c1.416,0.507,2.965,0.738,4.049,1.938
		c0.792,4.947-0.187,9.886-0.138,14.838c0.043,4.335,1.291,7.463,5.048,9.909c4.513,2.937,8.803,6.229,13.325,9.169
		c1.238,0.858,2.351,1.882,3.6,2.726c2.236,1.13,3.756,3.167,5.723,4.589c4.052,2.93,9.992,1.147,13.671-3.832
		c0.595-1.064,1.191-2.126,1.895-3.125c4.244-4.934,8.83-9.48,14.788-12.327c2.76-1.317,4.17-3.292,4.083-6.375
		c-0.146-5.199,0.52-10.435-0.743-15.583c-0.292-1.307-0.439-2.623-0.363-3.962c2.128-5.051,4.16-5.167,9.712-0.567
		c0.878,1.387,1.159,2.997,1.685,4.518c1.192,3.356,2.16,6.843,2.391,10.346c0.454,6.912,3.961,11.671,9.497,15.301
		c0.75,0.638,1.366,1.384,1.85,2.241c2.189,5.155,4.729,10.141,5.844,15.744c0.922,4.633,1.013,9.057-0.67,13.479
		c-0.334,0.883-0.833,1.672-1.438,2.389C196.582,110.698,193.227,112.662,192.148,116.529z"/>
	<path style="fill-rule:evenodd;clip-rule:evenodd;fill:#DAC3B2;" d="M210.649,229.427c1.913,6.39,0.962,13.452,3.902,19.489
		c2.72,5.58,1.091,11.086,1.13,16.635c0.046,6.27,0.945,12.509,1.07,18.727c0.214,10.624-1.632,21.232-1.046,31.903
		c0.177,3.22-1.626,3.772-4.322,3.77c-17.161-0.022-34.322-0.022-51.481,0.126c-3.098,0.027-4.731-1.127-5.135-4.086
		c-0.617-4.526-2.435-8.893-1.828-13.583c4.412,0.5,4.073,4.34,4.467,7.104c0.79,5.544,3.309,7.834,9.103,7.593
		c14.897-0.623,13.09,2.452,11.954-13.513c-0.707-9.96-3.072-19.752-2.864-29.795c0.113-5.522-4.714-8.653-6.511-13.245
		c-0.923-1.676,0.876-3.563-0.411-5.216c-2.724-1.306-5.712-2.312-6.354-5.855c4.569-10.61,14.32-15.833,23.147-21.893
		c3.33-2.287,6.604-5.198,11.068-5.365c2.147,0.255,3.779,1.529,5.438,2.751c1.316,1.327,2.724,2.569,4.041,3.906
		c0.321,0.393,0.614,0.808,0.899,1.206c0.594,0.569,1.184,0.448,1.775-0.033C209.259,229.554,209.848,229.141,210.649,229.427z"/>
	<path style="fill-rule:evenodd;clip-rule:evenodd;fill:#DAC3B2;" d="M181.867,121.615c1.513-0.933,3.008-1.923,4.932-1.548
		c-3.583,6.243-3.618,13.457-3.292,19.998c0.687,13.771,1.074,27.878,8.222,40.449c0.602,1.057,0.931,2.732,1.808,3.093
		c7.233,2.964,7.75,9.387,8.471,15.757c-7.731-2.958-11.131,0.853-13.115,7.873c-1.404,4.961-6.217,6.876-10.21,9.389
		c-1.335,0.922-2.771,1.513-4.433,1.382c-1.319-0.147-2.534-0.626-3.736-1.15c-7.433-4.026-15.633-4.264-23.732-4.42
		c-16.556-0.318-22.623-4.392-26.479-20.672c-2.442-10.311-5.744-20.433-8.664-30.526c-1.632-5.643-3.763-11.407-5.024-17.325
		c-0.803-3.766-0.433-7.467,0.711-11.121c0.578-1.841,1.31-4.025,3.192-4.37c8.171-1.493,14.788-6.34,22.064-9.746
		c2.16,2.2,0.816,4.49-0.42,6.171c-5.149,7.003-7.004,14.711-5.794,23.238c-0.886,1.003-2.493,1.176-3.014,2.613
		c-0.302,1.375-0.199,2.757-0.156,4.142c0.105,5.37,1.993,10.258,4.278,14.959c2.924,6.015,5.763,12.032,7.896,18.402
		c2.367,7.065,8.337,10.356,15.697,9.162c8.896-1.443,16.008-7.605,15.017-14.901c-1.555-11.449,2.045-22.767,0-34.047
		c-0.976-5.38-1.526-10.539,0.072-15.863c0.83-2.762-2.678-4.714-1.86-7.626C169.933,122.632,176.39,124.729,181.867,121.615z"/>
	<path style="fill-rule:evenodd;clip-rule:evenodd;fill:#E9D9CD;" d="M127.542,84c-6.731-3.209-12.115-8.46-18.487-12.217
		c-1.738-1.024-1.518-2.728-1.444-4.407c0.271-6.187,0.492-12.376,0.732-18.564c-0.496-1.077-0.868-2.185-0.849-3.389
		c0.136-3.062,0.475-6.146-0.87-9.071c2.486-2.263,5.627-2.414,8.726-2.705c3.556,1.119,7.001,2.347,9.341,5.586
		c0.98,1.357,2.55,2.221,4.247,2.36c6.392,0.529,12.814,0.933,19.16-0.281c4.371-0.836,7.28-3.588,8.707-7.841
		c4.315,3.707,8.65,7.351,14.963,4.627c0.137-0.059,0.406,0.086,0.569,0.2c5.563,3.852,12.169,4.935,18.419,6.958
		c0.962,2.151,3.848,1.633,4.963,3.572c2.104,2.427,4.206,4.854,6.31,7.281c-1.271,4.814,1.574,9.334,1.027,14.093
		c0.926,3.049,0.718,6.448,2.87,9.106c1.124,0.716,2.375,1.195,3.48,1.935c0.093,0.829,0.185,1.658,0.276,2.488
		c-0.272,0.443-0.632,0.796-1.088,1.052c-0.444,0.255-0.899,0.492-1.34,0.74c-1.183,1.021-1.162,1.974,0.146,2.857
		c0.706,0.264,1.424,0.472,2.119,0.749c0.438,0.261,0.827,0.583,1.174,0.958c0.031,1.668,0.063,3.336,0.095,5.003
		c-1.071,1.831-5.346,1.337-4.119,4.338c0.912,2.23,2.096,0.324,2.479-1.118c0.318-1.203,0.661-2.368,1.627-3.233
		c3.302,14,6.589,28.001,9.915,41.995c0.761,3.208,1.648,6.387,2.477,9.578c-1.712,0.834-3.47,0.172-5.212,0.174
		c-0.904-0.066-1.778-0.253-2.614-0.609c-3.13-2.268-3.456-6.192-5.423-9.151c-0.77-1.611-1.436-3.266-2.037-4.948
		c-0.627-2.247-2.305-4.285-1.395-6.841c0.293-0.501,0.648-0.959,1.023-1.389c1.114-1.519,0.887-2.369-0.956-3.312
		c-6.238-3.194-8.365-7.629-7.366-14.6c3.153-10.595-2.158-19.786-4.875-29.409c-3.049-5.856-0.698-12.315-2.078-18.34
		c-1.432-4.24-6.167-5.437-8.337-8.985c-0.727-2.083-2.868-2.907-4.094-4.551c-2.852-1.801-5.785-6.604-8.413,0.219
		c-1.715,1.411-1.319,2.5,0.513,3.373c1.88,6.516-0.099,13.206,0.883,19.765c0.158,1.056-0.087,2.337-1.225,2.586
		c-8.088,1.767-12.17,9.036-18.442,13.277c-1.246-2.076-1.246-2.076,0.088-5.451c-4.986,1.666-5.06,6.918-8.023,9.741
		c-3.691,1.199-5.972-0.779-7.926-3.501c-2.179-4.032-4.654-7.754-9.98-9.171c0.141,2.231,1.565,3.864,1.869,5.762
		C129.343,82.518,130.149,84.335,127.542,84z"/>
	<path style="fill-rule:evenodd;clip-rule:evenodd;fill:#3B3A3B;" d="M196.658,223.075c-12.917,6.712-25.164,14.265-33.599,26.631
		c-0.769,1.838-1.966,3.348-3.5,4.604c-1.771,1.222-3.874,2.203-3.437,4.966c-1.35,5.712-4.871,8.855-10.803,9.147l-0.544-0.017
		l-0.542,0.031c-6.426,0.006-9.433-4.439-12.128-9.292c-0.097-2.138-1.533-3.211-3.267-4.047c-2.805-3.099-5.325-6.495-9.109-8.552
		c-8.792-7.105-18.155-13.399-27.658-19.498c-1.099-1.303-2.373-2.391-3.927-3.138c-2.755-1.8-5.936-3.063-7.714-6.103
		c-0.49-1.238-0.665-2.512-0.455-3.834c0.85-4.076,0.945-8.307,2.581-12.218c2.251-5.385,5.664-6.244,10.198-2.539
		c0.649,0.532,1.294,1.093,1.78,1.766c11.513,15.977,28.833,18.858,46.602,20.51c9.676,0.899,19.193-0.854,28.665-2.582
		c0.594-0.2,1.204-0.358,1.813-0.503c2.401-0.205,4.815-0.383,6.778-2.062c5.809-3.074,10.261-7.773,14.876-12.298
		c6.233-6.109,8.598-5.431,11.262,3.08c0.372,1.186,0.399,2.475,1.068,3.569c0.305,0.865,0.61,1.729,0.917,2.594
		c0.542,1.163,0.411,2.309-0.092,3.445c-0.96,1.516-2.518,2.336-3.912,3.349C200.62,221.195,198.912,222.672,196.658,223.075z"/>
	<path style="fill-rule:evenodd;clip-rule:evenodd;fill:#DAC3B2;" d="M92.531,225.813c9.724,5.992,19.408,12.039,27.857,19.824
		c5.491,5.108,5.392,5.648-1.767,9.832c-0.403,2.079,2.819,2.455,2.176,4.628c-2.007,16.114-5.614,32.005-6.195,48.3
		c-0.276,7.726,0.336,8.506,8.316,8.555c1.464,0.007,2.936-0.091,4.393,0.013c3.998,0.285,6.389-1.045,6.511-5.506
		c0.045-1.667,0.015-4.002,2.813-4.025c0.169,12.595,0.169,12.608-12.358,12.591c-12.321-0.016-24.642-0.163-36.96-0.037
		c-3.8,0.039-6.029-0.298-6.428-5.113c-1.659-20.026-6.376-39.862-3.351-60.15c2.426-0.362,2.259,1.626,2.757,3.017
		c0.229,2.006,0.125,4.05,0.596,6.188c0.523-1.876,0.088-3.757,0.729-5.483c0.409-1.477,0.892-2.925,1.442-4.353
		c0.96-6.292,3.255-12.356,2.993-18.855c-0.101-2.509,0.541-4.928,1.776-7.158C89.038,226.581,89.842,224.225,92.531,225.813z"/>
	<path style="fill-rule:evenodd;clip-rule:evenodd;fill:#C2A390;" d="M171.751,219.457c-14.777,5.054-29.825,4.881-44.894,1.9
		c-13.586-2.69-25.774-7.766-34.221-19.827c-3.86-5.509-6.543-4.692-8.909,1.463c-1.427,3.715-2.414,7.533-2.863,11.488
		c-0.899,0.075-1.505-0.341-1.888-1.129c0.282-2.011,0.565-4.022,0.847-6.033c0.106-1.825-0.958-3.739,0.41-5.472
		c1.11-1.005,1.108-2.354,1.139-3.694c1.227-1.033-0.089-2.829,1.157-3.857c0.104-0.767,0.208-1.534,0.312-2.302
		c5.67-4.624,7.191-11.499,9.698-17.843c5.071-2.861,3.212-8.118,3.509-12.128c0.967-13.048,1.878-26.189-0.98-39.179
		c13.172,4.743,24.986,3.339,34.786-7.559c2.08-2.314,4.407-4.404,6.62-6.598c1.945,2.076,0.5,4.134-0.014,6.204
		c-0.815,1.7-1.565,3.464-3.578,4.127c-5.94,5.091-12.408,8.882-20.366,10.206c-5.319,0.883-4.059,6.188-4.624,9.728
		c-0.847,5.309,2.373,10.353,1.624,15.958c-0.237,1.772,4.714,2.463,4.691,5.94c-0.07,10.417,5.317,19.477,7.431,29.39
		c3.595,16.859,8.675,20.239,26.038,20.572c8.253,0.158,16.734,0.126,24.133,4.904c0.326,0.813,0.287,1.786-0.459,2.108
		C167.854,219.337,172.366,218.749,171.751,219.457z"/>
	<path style="fill-rule:evenodd;clip-rule:evenodd;fill:#DAC3B2;" d="M42.435,229.568c-1.478,10.944-8.487,19.124-14.014,28.046
		c-0.544,0.88-1.199,1.904-2.394,1.125c-0.96-0.624-1.045-1.7-0.587-2.766c0.898-2.085,1.558-4.317,2.757-6.209
		c1.167-1.841,1.18-2.978-0.867-3.888c-0.45-1.782-1.121-3.107-3.217-1.604c-2.154,1.547-3.802,3.601-5.55,5.554
		c-2.166,3.627-7.193,6.268-4.049,11.764c0.114,0.2-0.665,1.288-0.922,1.251c-0.762-0.111-1.712-0.386-2.163-0.941
		c-2.899-3.584-2.505-7.625-0.29-11.101c3.455-5.418,7.198-10.611,12.448-14.689c9.438-7.33,12.016-18.812,16.38-29.094
		c6.702-15.791,9.879-32.616,13.604-49.263c0.709,0.493,1.115,1.17,1.17,2.031c0.055,0.833-0.202,1.607-0.477,2.381
		c2.001-5.233,2.656-10.955,5.646-15.787c0.159-0.324,0.416-0.614,0.747-0.835c-0.36,0.004-0.625,0.222-0.805,0.668
		c-0.693,0.78-0.809,2.434-2.507,1.612c2.311-12.855,4.769-25.685,6.872-38.574c1.033-6.333,1.406-12.773,2.078-19.164
		c3.51-6.401,3.472-13.676,4.938-20.568c0.733-3.445,0.858-6.98,3.542-9.666c1.018-0.399,1.703,0.073,2.269,0.861
		c0.823,1.557,0.847,3.367,1.564,4.956c2.132,2.457,1.292,4.875-0.088,7.253c-0.138,2.176,0.516,0.475,0.81,0.124
		c0.264-0.315,0.513-0.641,0.881-0.877c0.576-0.086,1.085,0.036,1.542,0.389c3.41,5.023-2.904,7.099-3.306,10.968
		c-0.203,0.826-0.644,1.505-1.264,2.07c-0.969,11.145-4.667,21.556-8.522,31.917c-1.556,4.18-2.214,8.464-2.035,12.917
		c0.293,7.272,1.512,7.972,8.184,4.541c1.534-0.458,2.941-0.012,4.324,0.609c0.523,0.31,0.884,0.753,1.062,1.339
		c-0.428,1.933-0.857,3.866-1.286,5.798c-0.55,1.92-0.679,3.752,1.077,5.194c-3.006,1.492-4.023,4.185-4.926,7.241
		c-4.136,14.006-7.941,28.168-16.319,40.472c-1.294,1.821-2.464,1.912-3.476-0.244c-0.608-4.651,1.75-8.415,3.571-12.402
		c2.337-5.115,5.345-10.12,4.135-16.235C55.44,187.477,45.669,207.446,42.435,229.568z"/>
	<path style="fill-rule:evenodd;clip-rule:evenodd;fill:#C2A391;" d="M158.946,253.898c0.905-1.855,2.022-3.501,4.113-4.192
		c1.809,2.664,4.609,3.711,7.508,4.598c-0.441,1.364-2.388,2.254-1.294,4.101c1.705,2.355,3.104,5.028,5.171,7.002
		c5.397,5.15,2.145,11.831,3.296,17.692c2.068,10.532,2.663,21.354,3.915,32.052c0.273,2.346-0.544,3.604-3.009,3.585
		c-1.669-0.012-3.338,0.043-5.008,0.021c-4.794-0.063-10.11,1.131-14.242-0.563c-4.898-2.008-2.777-8.452-4.411-12.736
		c-0.424-1.113-1.351-2.038-2.046-3.049c-0.974-10.323-5.226-20.08-5.289-30.561c-0.009-1.676-1.074-2.61-2.33-3.425
		c5.08-1.679,8.405-5.193,10.486-10.015C156.444,256.62,158.246,255.643,158.946,253.898z"/>
	<path style="fill-rule:evenodd;clip-rule:evenodd;fill:#C2A391;" d="M116.54,254.448c7.408-2.787,7.556-3.129,3.849-8.81
		c4.227,1.539,6.755,4.825,8.824,8.584c0.771,1.744,2.58,2.598,3.569,4.155c2.608,4.73,6.684,7.787,11.452,10.06
		c-4.295,10.319-3.171,21.708-6.352,32.259c-0.656,2.172-0.843,4.487-1.246,6.737c-0.35,0.503-0.865,0.959-1.022,1.517
		c-0.84,2.971,1.297,6.967-1.269,8.913c-3.009,2.281-7.263,0.881-10.946,0.837c-11.825-0.145-11.445,2.458-10.293-11.1
		c0.734-8.646-1.211-17.869,2.396-25.879c3.428-7.613,0.181-16.2,4.762-23.304C119.558,256.593,117.439,256.092,116.54,254.448z"/>
	<path style="fill-rule:evenodd;clip-rule:evenodd;fill:#DAC3B3;" d="M210.599,136.53c3.022,2.192,2.871,6.224,5.134,8.855
		c2.786,2.845,3.445,6.589,4.145,10.244c3.64,19.08,10.294,37.2,17.21,55.261c0.866,2.264,1.933,2.544,3.814,2.316
		c3.637,7.576,11.463,11.664,15.665,18.791c0.716,1.218,1.897,2.157,1.967,3.714c1.026,1.728,0.382,3.623,0.555,5.431
		c-2.623,2.925-3.768-0.139-5.076-1.437c-1.749-1.735-2.921-4.142-5.328-5.101c-2.268-0.903-4.359-0.973-4.029,2.529
		c-2.893,3.53,0.439,6.669,0.71,9.993c0.185,2.289,1.336,5.158-1.701,5.693c-2.806,0.49-2.283-2.758-3.06-4.549
		c-10.316-23.767-16.418-49.042-26.176-73.008c-0.465-1.144-0.748-2.362-1.116-3.547c0.719-2.32-0.523-4.304-1.111-6.399
		c-0.748-2.477-1.569-4.925-2.456-7.353c-0.801-3.318-3.16-6.315-2.103-10.015c-0.248-0.84,0.908-2.659-1.432-1.993
		c-1.679,1.676-0.99,4.622-3.247,5.948c-2.989-4.072-0.551-8.56-0.983-12.828c2.168-0.941,4.308-1.935,6.347-3.148
		C209.183,135.754,209.959,135.885,210.599,136.53z"/>
	<path style="fill-rule:evenodd;clip-rule:evenodd;fill:#DAC4B3;" d="M156.806,33.47c0.393,5.615-3.045,9.426-10.038,9.985
		c-5.963,0.477-11.999,0.177-17.997,0.01c-1.356-0.038-3.308-0.559-3.921-1.529c-2.376-3.766-6.366-5.507-9.499-8.29
		c5.154-1.445,7.056-5.69,8.719-10.138c2.913-4.07-1.417-6.739-1.964-10.142c0.106-0.594,0.404-1.072,0.865-1.455
		c4.892,1.678,8.438,5.543,12.852,8.065c3.605,2.059,6.125,2.369,9.369,0.095c1.653-1.158,3.408-2.371,5.611-2.385
		c1.816,0.502,3.891,0.745,3.54,3.46c0.7,3.073-2.8,7.475,3.328,8.921C159.579,30.518,156.596,32.142,156.806,33.47z"/>
	<path style="fill-rule:evenodd;clip-rule:evenodd;fill:#E9D9CD;" d="M150.435,18.468c-9.101,6.271-16.33,5.389-24.024-2.882
		c-1.117-1.201-2.398-2.25-3.603-3.369c-2.023-1.621-3.315-3.533-2.514-6.284c11.878-0.006,23.759-0.067,35.636,0.028
		c2.176,0.018,5.107-1.194,6.39,1.044c1.449,2.527-1.061,4.553-2.436,6.55c-0.572,0.831-1.326,1.536-1.998,2.298
		C155.178,16.082,153.203,18.406,150.435,18.468z"/>
	<path style="fill-rule:evenodd;clip-rule:evenodd;fill:#E9D9CD;" d="M240.901,213.207c-3.239,3.019-4.332,0.652-5.418-2.082
		c-5.051-12.705-9.88-25.489-13.313-38.736c-2.321-8.956-4.304-18-6.438-27.003c0.859-0.002,1.718-0.006,2.578-0.009
		c2.453,1.159,3.294,3.283,4.156,5.76c2.567,7.365,4.194,15.112,8.411,21.845c3.438,5.893,3.855,12.594,4.941,19.08
		C237.021,199.241,238.784,206.26,240.901,213.207z"/>
	<path style="fill-rule:evenodd;clip-rule:evenodd;fill:#E9D9CD;" d="M42.435,229.568c-1.426-8.536,0.783-16.293,4.866-23.738
		c2.761-5.032,2.234-10.935,3.85-16.296c0.819-2.72,0.896-5.637,4.21-7.101c1.691-0.745,2.203-3.008,2.074-4.961
		c-0.226-3.443,0.785-6.61,2.057-9.697c0.769-1.867,0.498-5.427,4.038-4.002c2.597,1.046,3.292,3.603,2.242,6.369
		c-1.698,4.474-2.865,9.256-5.243,13.333c-2.263,3.881-3.689,7.806-4.329,12.143c-0.747,1.716,0.337,3.39,0.111,5.096
		C51.687,210.332,47.061,219.95,42.435,229.568z"/>
	<path style="fill-rule:evenodd;clip-rule:evenodd;fill:#E8D7CC;" d="M81.346,72.51c-0.441,0.021-0.883,0.043-1.324,0.064
		c-0.826,0.668-1.64,0.715-2.439-0.045c-1.986-2.075,3.029-4.132,0.015-6.209c0.557-1.596,0.984-3.215,0.793-4.932
		c-0.244-2.32-0.116-4.558,1.443-6.472c4.005-0.805,1.547-3.75,1.884-5.759c0.284-1.5,0.026-2.957-0.385-4.401
		c6.19-4.114,13.267-5.734,20.383-7.241c1.443,2.149,3.086,4.292,0.247,6.597c-1.925-0.026-3.08,1.845-4.922,2.033
		c-1.974,0.27-4.025,0.458-3.213,3.389c-0.253,9.152-6.655,15.398-10.731,22.748C82.553,72.662,81.967,72.723,81.346,72.51z"/>
	<path style="fill-rule:evenodd;clip-rule:evenodd;fill:#C3A391;" d="M88.897,228.291c-0.881,7.694-1.797,15.385-2.614,23.087
		c-0.175,1.651-1.002,2.624-2.373,3.313c-5.125,0.995-4.068-4.095-6.071-6.172c0.343-3.479-2.388-6.534-1.389-10.104
		c0.353-0.421,0.778-0.542,1.27-0.331c0.243,0.285,0.67,0.454,0.843,0.201c0.287-0.421-0.159-0.848-0.268-1.298
		c-0.064-2.1,0.016-4.182,0.127-6.264c0.656-1.9-0.147-3.561-0.865-5.234c1.281-1.83,1.509-3.888,1.314-6.039
		c0.367-1.14,1.107-1.745,2.345-1.637c2.593,1.799,5.186,3.6,7.779,5.4C88.478,224.895,89.539,226.61,88.897,228.291z"/>
	<path style="fill-rule:evenodd;clip-rule:evenodd;fill:#C4A493;" d="M75.162,59.977c-2.084,9.779-4.348,19.527-6.151,29.357
		c-0.597,3.253-1.445,1.845-2.715,0.752c-1.498-13.549-0.117-26.552,7.161-38.479c1.335-2.188,3.031-3.965,5.121-5.403
		c1.543,1.135,0.728,2.418,0.25,3.683c-1.024,1.677-0.496,3.56-0.677,5.353C77.681,57.152,77.207,59.063,75.162,59.977z"/>
	<path style="fill-rule:evenodd;clip-rule:evenodd;fill:#C2A391;" d="M208.245,136.83c-1.629,2.031-3.394,3.686-6.266,2.248
		c-2.741-6.256-4.485-12.831-6.16-19.421c-0.516-2.024-0.471-4.391-3.671-3.127c-1.548-5.357,3.309-6.395,6-8.895
		c3.428,7.436,3.247,16.252,8.756,22.883C207.98,132.483,207.497,134.786,208.245,136.83z"/>
	<path style="fill-rule:evenodd;clip-rule:evenodd;fill:#C0A290;" d="M205.6,210.698c-3.062-2.7-2.251-9.454-6.647-9.318
		c-2.92,0.089-5.572,5.024-8.565,7.527c-3.78,3.157-7.386,6.648-12.276,8.165c-0.406-0.298-0.548-0.604-0.427-0.919
		c0.122-0.319,0.248-0.479,0.379-0.479c7.194-3.301,10.438-9.575,12.808-16.644c1.161-3.466,3.469-4.524,6.768-2.096
		c1.329,0.982,2.904,1.63,4.369,2.429c1.493,0.976,0.739,3.371,2.597,4.117c1.811,0.696,2.256,1.87,1.248,3.555
		C205.767,208.257,205.683,209.478,205.6,210.698z"/>
	<path style="fill-rule:evenodd;clip-rule:evenodd;fill:#DDC7B8;" d="M230.878,172.981c-1.241,1.357-2.004,0.948-2.554-0.632
		c-2.495-7.164-5.236-14.254-7.382-21.521c-0.613-2.076-1.804-3.621-2.632-5.452c1.776-0.176,3.374,0.337,4.858,1.272
		c2.1,5.88,5.113,11.427,6.396,17.603c1.604,2.306-0.297,5.182,1.219,7.503C230.827,172.162,230.859,172.571,230.878,172.981z"/>
	<path style="fill-rule:evenodd;clip-rule:evenodd;fill:#DDC0B5;" d="M201.955,69.994c-1.597-3.479-0.48-7.492-2.319-11.016
		c-0.772-1.482,0.663-2.661,2.394-2.868c2.447,1.696,4.894,3.394,7.342,5.091c-1.787,1.396-2.024,3.132-1.125,5.119
		c-0.01,1.645-0.021,3.29-0.031,4.936c-0.908,1.619-2.294,2.575-4.101,2.947C201.658,73.693,203.332,71.062,201.955,69.994z"/>
	<path style="fill-rule:evenodd;clip-rule:evenodd;fill:#C5A895;" d="M244.654,237.135c-0.669-1.208-2.877-2.095-0.569-3.859
		c2.119-1.622,4.255-1.751,6.08,0.036c2.888,2.829,5.512,5.927,8.248,8.912c0.952,1.255,1.145,2.664-0.176,3.595
		c-0.929,0.655-1.742-0.447-2.465-1.079C252.21,241.994,247.77,240.535,244.654,237.135z"/>
	<path style="fill-rule:evenodd;clip-rule:evenodd;fill:#DCC7B7;" d="M255.772,244.739c2.709,1.078,2.881-0.506,2.642-2.518
		c0.039-2.168,0.08-4.338,0.119-6.509c2.329,4.96,1.054,10.196,0.979,15.296c-0.042,2.989-2.893,2.396-4.864,2.456
		c-2.051,0.065-4.427,0.404-5.585-1.831c-0.797-1.544,0.881-2.01,1.87-2.683C252.713,247.739,255.593,247.788,255.772,244.739z"/>
	<path style="fill-rule:evenodd;clip-rule:evenodd;fill:#D4BEAF;" d="M82.721,105.215c-0.796,3.773,3.353,5.365,3.794,8.591
		c-4.597,3.298-1.157,8.989-3.832,12.859c-2.521-1.972-0.594-5.725-3.096-7.699c-0.773-2.248-2.897-3.701-3.573-6.013
		c1.233-1.633,2.875-3.015,3.209-5.209c0.431-1.059,0.976-2.037,1.891-2.764C81.693,104.768,82.226,104.861,82.721,105.215z"/>
	<path style="fill-rule:evenodd;clip-rule:evenodd;fill:#C89C94;" d="M202.963,151.906c0.339-2.795,0.077-5.808,2.805-7.737
		c1.484,0.993,2.365,2.58,3.69,3.729c-2.599,3.757,2.103,6.484,1.408,9.972c-0.092,1.904,2.474,4.648-1.664,5.274
		c-0.408-0.832-0.814-1.664-1.221-2.496c-0.226-1.656-0.034-3.593-2.516-3.724C203.633,155.749,203.257,153.848,202.963,151.906z"/>
	<path style="fill-rule:evenodd;clip-rule:evenodd;fill:#C49F92;" d="M201.544,219.19c1.07-1.247,2.368-2.091,4.042-2.267
		c1.31,0.495,2.779,0.583,3.895,1.56c0.008,2.366,0.014,4.734,0.021,7.101c-1.417,1.242-2.404,2.901-3.941,4.024
		c-1.388-1.099-3.641-1.377-3.628-3.809C199.948,223.705,201.428,221.407,201.544,219.19z"/>
	<path style="fill-rule:evenodd;clip-rule:evenodd;fill:#DCC7B8;" d="M92.54,174.151c0.649,6.224-3.309,10.995-5.253,16.39
		c-0.695,1.931-2.92,1.049-4.446,1.452c0.365-0.877,0.729-1.755,1.093-2.632c1.105-1.272-1.215-2.498-0.05-3.771
		C86.769,181.776,89.654,177.964,92.54,174.151z"/>
	<path style="fill-rule:evenodd;clip-rule:evenodd;fill:#4A4848;" d="M101.313,43.558c2.426-1.861-1.211-4.127,0.404-6.042
		c1.722-0.022,3.437-0.08,4.908-1.165c5.614,1.729,1.474,5.696,1.974,8.599c-1.375,1.481-3.435,2.081-4.717,3.678
		c-0.912-1.296-1.824-2.591-2.737-3.887C100.846,44.297,100.883,43.899,101.313,43.558z"/>
	<path style="fill-rule:evenodd;clip-rule:evenodd;fill:#C6A896;" d="M57.347,147.824c0.879-0.819,1.759-1.639,2.639-2.458
		c0.408-0.605,0.816-0.605,1.225,0c-2.815,5.674-2.562,12.552-7.177,18.365c-0.189-2.461-0.325-4.218-0.46-5.976
		C54.862,154.455,54.739,150.62,57.347,147.824z"/>
	<path style="fill-rule:evenodd;clip-rule:evenodd;fill:#C5A895;" d="M18.563,249.827c0.603-3.809,2.879-6.254,6.309-7.767
		c1.303-0.575,2.645-1.579,3.936-0.115c1.899,2.152-1.002,2.608-1.477,3.932C24.778,248.016,21.626,248.823,18.563,249.827z"/>
	<path style="fill-rule:evenodd;clip-rule:evenodd;fill:#E03F8B;" d="M77.839,248.518c4.622-0.499,1.924,6.202,6.071,6.172
		c-0.028,1.382,0.029,2.792-1.265,3.745c-1.288,0.979-2.532,1.073-3.71-0.181c-0.417-1.197,0.025-2.732-1.397-3.531
		C76.547,252.601,76.08,250.506,77.839,248.518z"/>
	<path style="fill-rule:evenodd;clip-rule:evenodd;fill:#D0AAA2;" d="M80.097,118.959c1.116-0.251,2.45-0.951,2.496,1.128
		c0.048,2.191,0.062,4.385,0.09,6.577c-0.141,2.16,0.332,4.439-1.229,6.323c-0.968-0.771-0.873-1.682-0.348-2.649
		c-0.633,0.439-0.596,1.375-1.309,1.763c-0.841,0.275-1.621,0.167-2.343-0.35c-0.892-2.409,0.806-4.288,1.284-6.413
		c1.259-2.356-1.222-3.793-1.431-5.791C78.031,118.364,78.928,118.013,80.097,118.959z"/>
	<path style="fill-rule:evenodd;clip-rule:evenodd;fill:#D3BAA9;" d="M213.303,165.45c1.792,2.087,1.82,4.177,0.009,6.269
		c-1.124-3.086-2.407-2.858-3.809-0.185c-1.497-1.302-1.857-3.163-2.425-4.924c0.844-0.8,1.688-1.599,2.531-2.397
		C211.214,163.51,212.103,164.944,213.303,165.45z"/>
	<path style="fill-rule:evenodd;clip-rule:evenodd;fill:#DEBCB5;" d="M204.426,73.824c0.706-1.677,1.946-2.568,3.789-2.568
		l0.013,0.01c0.397,0.381,0.571,0.839,0.497,1.386c-0.301,1.307-1.557,2.684,0.289,3.838c0.363,0.35,0.619,0.765,0.778,1.238
		c-1.039,1.072-1.122,2.249-0.385,3.515c-1.637,0.017-3.275,0.033-4.913,0.051C203.49,78.813,203.515,76.323,204.426,73.824z"/>
	<path style="fill-rule:evenodd;clip-rule:evenodd;fill:#E8D7CB;" d="M122.807,13.459c0.822,3.3,6.173,6.029,1.263,10.05
		c1.131-5.603-4.541-8.77-4.951-13.822C122.298,9.038,121.59,12.189,122.807,13.459z"/>
	<path style="fill-rule:evenodd;clip-rule:evenodd;fill:#E6348F;" d="M195.72,48.827c-1.58-1.294-6.849,2.535-4.964-3.574
		C192.875,45.802,197.798,42.451,195.72,48.827z"/>
	<path style="fill-rule:evenodd;clip-rule:evenodd;fill:#DC498B;" d="M205.561,229.608c0.319-2.315-0.131-5.386,3.941-4.022
		c1.047,1.082,1.088,2.465,1.147,3.842c-0.372,0.473-0.743,0.945-1.115,1.419c-1.301,0.941-2.563,1.011-3.769-0.164
		C205.722,230.318,205.654,229.962,205.561,229.608z"/>
	<path style="fill-rule:evenodd;clip-rule:evenodd;fill:#E12080;" d="M81.216,217.812c-0.782,0.544-1.563,1.09-2.345,1.637
		c-3.02-2.086-3.103-4.12,0.105-6.098c0.63,0.376,1.259,0.753,1.888,1.129C80.982,215.592,81.099,216.702,81.216,217.812z"/>
	<path style="fill-rule:evenodd;clip-rule:evenodd;fill:#DFCBBC;" d="M150.435,18.468c2.282-1.452,4.101-4.22,7.453-2.613
		c-1.644,1.452-1.12,4.36-3.547,5.29C153.04,20.253,151.738,19.36,150.435,18.468z"/>
	<path style="fill-rule:evenodd;clip-rule:evenodd;fill:#E64A95;" d="M78.768,154.827c1.675,0.156,1.902,1.466,1.988,2.705
		c0.089,1.279-0.154,2.652-1.775,2.77c-2.012,0.146-2.354-1.359-2.331-2.919C76.669,156.031,77.17,154.941,78.768,154.827z"/>
	<path style="fill-rule:evenodd;clip-rule:evenodd;fill:#E25294;" d="M80.234,201.847c0.644,1.883,1.864,3.807-0.41,5.472
		c-2.172-0.083-3.518-0.998-3.195-3.382C76.924,201.763,78.43,201.508,80.234,201.847z"/>
	<path style="fill-rule:evenodd;clip-rule:evenodd;fill:#E74D98;" d="M78.984,183.717c-1.486-0.009-2.256-0.835-2.339-2.271
		c-0.089-1.537,0.15-2.978,2.099-3.135c1.285-0.104,1.885,0.829,1.995,1.897C80.89,181.662,80.817,183.15,78.984,183.717z"/>
	<path style="fill-rule:evenodd;clip-rule:evenodd;fill:#E6348F;" d="M205.555,48.847c-1.405-0.372-2.113-1.165-1.486-2.644
		c0.609-1.439,1.93-1.238,3.116-1.198c2.438,0.085,2.209,1.848,2.133,3.495C208.165,49.725,206.891,49.62,205.555,48.847z"/>
	<path style="fill-rule:evenodd;clip-rule:evenodd;fill:#E4318A;" d="M77.579,49.879c0.572-1.162,1.41-2.252,1.001-3.678
		c0.476-1.319,1.724-1.174,2.754-1.444c2.495,0.704,3.375,1.932,1.326,4.103c-0.897,0.639-1.653,1.504-2.8,1.747
		C78.984,50.726,78.195,50.571,77.579,49.879z"/>
	<path style="fill-rule:evenodd;clip-rule:evenodd;fill:#E54693;" d="M77.557,225.488c3.944,1.045,4.945,2.742,1.216,5.488
		c-0.441,0.4-0.876,0.396-1.307-0.018C76.092,229.111,76.281,227.291,77.557,225.488z"/>
	<path style="fill-rule:evenodd;clip-rule:evenodd;fill:#E74D97;" d="M80.772,169.294c-0.111,1.279-0.423,2.45-1.983,2.523
		c-1.541,0.073-2.108-0.969-2.154-2.298c-0.053-1.516,0.29-2.941,2.223-2.831C80.381,166.777,80.677,168.02,80.772,169.294z"/>
	<path style="fill-rule:evenodd;clip-rule:evenodd;fill:#ECDED4;" d="M77.466,230.959c0.436,0.005,0.872,0.01,1.307,0.017
		c1.361,1.947,1.574,3.907,0.062,5.885c-0.17,0.998-0.688,1.584-1.775,1.491c0,0-0.611,0.063-0.61,0.063
		C76.235,235.854,76.027,233.294,77.466,230.959z"/>
	<path style="fill-rule:evenodd;clip-rule:evenodd;fill:#E5358C;" d="M209.48,218.483c-1.769,0.657-3.182,0.427-3.895-1.56
		c0.308-1.213,0.615-2.425,0.927-3.635C210.057,213.564,210.348,215.694,209.48,218.483z"/>
	<path style="fill-rule:evenodd;clip-rule:evenodd;fill:#E64693;" d="M205.852,207.035c-0.417-1.185-0.831-2.37-1.248-3.555
		c1.398-0.731,2.685-2.443,4.401-1.128c0.623,0.479,0.884,1.891,0.758,2.8C209.433,207.522,207.452,206.997,205.852,207.035z"/>
	<path style="fill-rule:evenodd;clip-rule:evenodd;fill:#E64693;" d="M207.078,166.61c3.062,0.534,2.45,2.874,2.424,4.925
		C204.214,172.098,205.354,169.498,207.078,166.61z"/>
	<path style="fill-rule:evenodd;clip-rule:evenodd;fill:#E54090;" d="M207.649,195.427c-1.552-0.263-1.86-1.377-1.787-2.698
		c0.077-1.375,0.692-2.418,2.205-2.274c1.551,0.146,1.821,1.409,1.773,2.699C209.789,194.517,209.269,195.523,207.649,195.427z"/>
	<path style="fill-rule:evenodd;clip-rule:evenodd;fill:#E53C8E;" d="M208.246,66.32c-1.616-0.266-2.555-1.071-2.433-2.856
		c0.166-2.407,1.969-2.146,3.559-2.262C209.997,63.128,210.62,65.052,208.246,66.32z"/>
	<path style="fill-rule:evenodd;clip-rule:evenodd;fill:#DD2A80;" d="M205.466,156.925c0.946-1.135,2.157-2.293,3.418-0.829
		c1.386,1.609,0.921,3.332-0.9,4.553C205.997,160.182,205.615,158.633,205.466,156.925z"/>
	<path style="fill-rule:evenodd;clip-rule:evenodd;fill:#F2DEE1;" d="M82.53,194.296c0.095,1.431,0.181,2.857-1.157,3.857
		c-0.129-1.026-0.313-2.027-1.352-2.576c-1.16-1.208-1.776-2.961-3.561-3.538c-0.13-1.771,0.668-2.679,2.468-2.66
		C82.321,189.414,80.655,193.152,82.53,194.296z"/>
	<path style="fill-rule:evenodd;clip-rule:evenodd;fill:#E0CDBD;" d="M122.807,13.459c-1.23-1.258-2.46-2.515-3.688-3.772
		c-0.676-1.585-2.421-3.505,1.176-3.753c0.838,2.095,1.676,4.189,2.514,6.284C122.812,12.632,122.812,13.045,122.807,13.459z"/>
	<path style="fill-rule:evenodd;clip-rule:evenodd;fill:#C8AA99;" d="M213.303,165.45c-1.899,1.582-2.334-1.208-3.693-1.237
		c-0.182-0.339-0.316-0.695-0.407-1.067c2.105-1.268,1.368-3.434,1.664-5.274C212.47,160.143,213.163,162.708,213.303,165.45z"/>
	<path style="fill-rule:evenodd;clip-rule:evenodd;fill:#E2197F;" d="M208.035,178.548c1.646,0.269,1.74,1.515,1.666,2.774
		c-0.065,1.156-0.719,1.961-1.931,1.866c-1.178-0.092-1.742-0.907-1.742-2.101C206.026,179.705,206.479,178.699,208.035,178.548z"/>
	<path style="fill-rule:evenodd;clip-rule:evenodd;fill:#E64A95;" d="M76.461,192.039c0.885-0.854,1.892-2.145,3.119-1.114
		c1.455,1.221,0.789,3.041,0.442,4.652C77.255,195.986,76.573,194.298,76.461,192.039z"/>
	<path style="fill-rule:evenodd;clip-rule:evenodd;fill:#E21D80;" d="M79.988,147.91c-4.482-0.876-4.157-2.75-1.077-5.194
		C80.619,144.167,80.068,146.087,79.988,147.91z"/>
	<path style="fill-rule:evenodd;clip-rule:evenodd;fill:#EF9CBF;" d="M205.555,48.847c1.254-0.115,2.508-0.23,3.763-0.345
		c0.063,0.458,0.127,0.917,0.19,1.374c-1.438,1.274-1.425,2.543,0.011,3.809C202.863,56.443,206.566,50.712,205.555,48.847z"/>
	<path style="fill-rule:evenodd;clip-rule:evenodd;fill:#E4D1C3;" d="M56.312,200.714c-1.863-1.658-1.872-3.357-0.111-5.096
		c0.845,1.396,1.695,0.089,2.542,0.005C58.573,197.625,57.777,199.328,56.312,200.714z"/>
	<path style="fill-rule:evenodd;clip-rule:evenodd;fill:#F2DEE1;" d="M83.883,185.59c0.399,1.252,1.989,2.489,0.049,3.771
		c-0.493-1.635-3.608-0.624-3.17-2.831C81.029,185.192,82.748,185.681,83.883,185.59z"/>
	<path style="fill-rule:evenodd;clip-rule:evenodd;fill:#DDC0B5;" d="M208.204,72.626c0.009-0.454,0.016-0.907,0.023-1.36
		c2.805,1.602,3.247,3.774,1.563,6.461c0.001,0.001-0.469-0.362-0.469-0.362C208.137,75.977,207.512,74.456,208.204,72.626z"/>
	<path style="fill-rule:evenodd;clip-rule:evenodd;fill:#F1A5C4;" d="M218.328,46.548c-0.383,0.645-0.587,1.448-0.969,1.541
		c-1.014,0.249-1.45-0.562-1.336-1.415c0.059-0.444,0.617-1.072,1.028-1.139C217.389,45.479,217.839,46.133,218.328,46.548z"/>
	<path style="fill-rule:evenodd;clip-rule:evenodd;fill:#E9D9CD;" d="M207.902,83.995c0.593-0.088,1.186-0.177,1.78-0.265
		c1.803,1.885,0.979,4.189,1.012,6.356c-0.56-0.076-1.117-0.153-1.677-0.23C207.895,88.045,207.416,86.112,207.902,83.995z"/>
	<path style="fill-rule:evenodd;clip-rule:evenodd;fill:#C7A296;" d="M80.123,131.383c0.111-0.53,0.348-1.585,0.765-1.133
		c0.542,0.586,0.408,1.795,0.566,2.737c-0.043,1.429-0.257,2.804-1.257,3.93c0,0.001-0.093-0.491-0.093-0.491
		C78.683,134.739,78.816,133.059,80.123,131.383z"/>
	<path style="fill-rule:evenodd;clip-rule:evenodd;fill:#E9D9CD;" d="M230.783,171.755c-2.118-2.223-0.796-5.005-1.219-7.503
		C231.866,166.445,230.535,169.229,230.783,171.755z"/>
	<path style="fill-rule:evenodd;clip-rule:evenodd;fill:#E2197F;" d="M209.519,53.684c-1.278-0.086-2.573-0.22-2.594-1.921
		c-0.019-1.754,1.335-1.784,2.583-1.887C209.511,51.146,209.515,52.415,209.519,53.684z"/>
	<path style="fill-rule:evenodd;clip-rule:evenodd;fill:#D8C2B1;" d="M101.313,43.558c-0.045,0.396-0.1,0.79-0.168,1.184
		c-2.769,5.081-2.019,10.931-3.569,16.294c-2.21,7.652-4.208,15.354-11.104,20.432c-0.84-0.097-1.5-0.536-2.1-1.098
		c-0.587-0.602-1.033-1.286-1.271-2.101c-0.323-1.637,0.217-3.338-0.384-4.954c-0.032-0.276-0.061-0.551-0.091-0.827
		c1.21-6.52,6.119-11.18,8.599-17.072c0.896-2.129,1.665-4.193,1.388-6.53c0.667-1.707,2.465-2.377,3.462-3.781
		C97.823,44.589,99.568,44.073,101.313,43.558z"/>
	<path style="fill-rule:evenodd;clip-rule:evenodd;fill:#D9C2B1;" d="M184.17,48.585c2.976,2.557,6.883,4.008,8.994,7.587
		c0.968,6.321,1.026,12.639-0.041,18.956c-6.222-2.938-10.204-7.276-10.425-14.678c-0.113-3.873-1.33-7.713-2.048-11.568
		C181.721,47.563,182.909,47.642,184.17,48.585z"/>
	<path style="fill-rule:evenodd;clip-rule:evenodd;fill:#C0A391;" d="M181.867,121.615c-5.271,4.096-11.505,3.568-17.606,3.666
		c-6.608,1.289-9.906-3.225-13.296-7.574c-0.788-1.71-1.493-3.481-3.133-4.623c-0.432-0.32-0.813-0.691-1.17-1.09
		c-0.298-0.462-0.409-0.965-0.307-1.509c0.228-0.136,0.457-0.272,0.687-0.409c2.412-0.544,3.78,1.163,5.364,2.452
		C161.001,119.521,170.261,124.383,181.867,121.615z"/>
	<path style="fill-rule:evenodd;clip-rule:evenodd;fill:#D0B8A7;" d="M137.922,83.789c1.973,2.291,4.145,4.186,7.482,3.782
		c1.829-2.114,4.591,0.722,6.452-1.218c-4.129,7.977-11.907,9.143-17.523,2.732c-1.024-1.171-2.581-1.874-3.893-2.792
		C132.647,84.6,133.66,79.343,137.922,83.789z"/>
	<path style="fill-rule:evenodd;clip-rule:evenodd;fill:#DBBBB1;" d="M206.822,131.531c-5.2-3.023-5.828-8.597-7.252-13.573
		c-0.947-3.306-0.981-6.874-1.422-10.324c0.346-0.553,0.693-1.108,1.039-1.663c0.1,3.84,2.411,6.958,3.452,10.498
		c0.731,2.479,2.869,2.59,5.036,2.532c1.591-0.043,2.868,0.509,3.008,2.356c0.149,1.972,0.133,3.873-2.69,3.708
		c-0.287-0.31,0.199-1.151-0.667-1.006c-0.095,0.016-0.146,0.625-0.303,0.935c-0.195,2.586,1.829,4.409,2.325,6.759
		C208.45,132.32,207.602,132.322,206.822,131.531z"/>
	<path style="fill-rule:evenodd;clip-rule:evenodd;fill:#D9C3B2;" d="M137.922,83.789c-1.47-0.523-3.098-1.9-3.891,0.845
		c-0.543,1.88-2.172,1.58-3.59,1.659c-0.966-0.765-1.933-1.528-2.898-2.293c1.871-3.85-3.562-6.347-1.652-10.621
		C131.624,74.842,136.269,77.472,137.922,83.789z"/>
	<path style="fill-rule:evenodd;clip-rule:evenodd;fill:#D8C2B1;" d="M151.856,86.353c-1.742,2.57-4.422,0.174-6.452,1.218
		c-0.018-4.342,2.394-7.442,5.423-10.094c1.244-1.088,3.336-2.049,4.547-0.728c1.382,1.505-0.574,2.879-1.451,4.188
		c-0.596,0.887-2.357,1.493-0.804,2.971C152.697,84.724,152.276,85.538,151.856,86.353z"/>
	<path style="fill-rule:evenodd;clip-rule:evenodd;fill:#DDC7B8;" d="M135.327,115.197c0.383-2.169,0.765-4.339,1.146-6.508
		c0.465-0.352,0.93-0.703,1.395-1.054c2.318,1.076,5.39,0.596,6.899,3.342c0.414,1.479,0.058,2.924-0.39,4.305
		c-1.401,4.333-2.7,4.647-6.386,1.518C137.171,116.102,136.171,115.801,135.327,115.197z"/>
	<path style="fill-rule:evenodd;clip-rule:evenodd;fill:#E3D2C4;" d="M85.134,80.018c0.446,0.483,0.892,0.966,1.339,1.45
		c-3.015,7.638-2.206,15.878-3.752,23.747c-0.452-0.006-0.904-0.014-1.357-0.02C80.709,96.516,79.234,87.715,85.134,80.018z"/>
	<path style="fill-rule:evenodd;clip-rule:evenodd;fill:#DFCEC2;" d="M144.181,111.461c-1.314-2.581-6.013,0.425-6.313-3.826
		c3.736-1.735,7.147-2.245,9.174,2.441c-0.251-0.015-0.479,0.047-0.689,0.183C145.964,111.264,145.513,112.16,144.181,111.461z"/>
	<path style="fill-rule:evenodd;clip-rule:evenodd;fill:#E9D9CD;" d="M193.123,75.128c0.013-6.318,0.026-12.637,0.041-18.956
		c2.665,6.669,0.66,13.6,1.148,20.392C193.915,76.085,193.52,75.607,193.123,75.128z"/>
	<path style="fill-rule:evenodd;clip-rule:evenodd;fill:#DC2881;" d="M171.903,48.281c-1.878,0.159-4.739,1.644-5.108-1.15
		c-0.42-3.181,2.861-1.775,4.597-2.224C171.562,46.031,171.732,47.155,171.903,48.281z"/>
	<path style="fill-rule:evenodd;clip-rule:evenodd;fill:#DE3588;" d="M184.17,48.585c-1.172,0.099-2.348,0.197-3.52,0.297
		c-2.014-1.048-1.727-2.562-0.848-4.193C182.184,44.95,184.942,44.788,184.17,48.585z"/>
	<path style="fill-rule:evenodd;clip-rule:evenodd;fill:#D6237D;" d="M103.882,48.629c-0.765-4.223,2.291-3.548,4.717-3.68
		c-0.085,1.29-0.17,2.577-0.255,3.862C106.856,48.75,105.368,48.69,103.882,48.629z"/>
	<path style="fill-rule:evenodd;clip-rule:evenodd;fill:#C9A699;" d="M206.968,248.436c0.133-2.077,1.867-4.148,0.023-6.233
		c0.61-1.713,1.065-3.497,2.266-4.94c3.077,7.91,4.366,16.103,4.057,24.585c-0.142,3.901-0.024,7.813-0.623,11.863
		c-3.998-4.37-6.026-9.402-5.668-15.352c0.008-0.83,0.28-1.594,0.557-2.359C208.464,253.385,207.437,250.933,206.968,248.436z"/>
	<path style="fill-rule:evenodd;clip-rule:evenodd;fill:#CAAF9E;" d="M201.544,219.19c2.951,2.036-0.486,4.449,0.389,6.607
		c-2.283,0.108-3.436-1.97-5.274-2.723C197.761,221.12,199.22,219.61,201.544,219.19z"/>
	<path style="fill-rule:evenodd;clip-rule:evenodd;fill:#E1177E;" d="M206.968,248.436c4.278,2.354,2.962,5.522,1.27,8.744
		c-1.243-0.52-2.216-1.319-2.723-2.605C206.422,252.629,204.994,250.13,206.968,248.436z"/>
	<path style="fill-rule:evenodd;clip-rule:evenodd;fill:#E03989;" d="M193.919,258.161c-1.367-0.029-2.587-0.542-2.62-1.986
		c-0.039-1.66,1.427-1.728,2.66-1.712c1.218,0.016,2.704,0.039,2.629,1.732C196.522,257.665,195.195,258.02,193.919,258.161z"/>
	<path style="fill-rule:evenodd;clip-rule:evenodd;fill:#DF3686;" d="M169.273,258.404c-1.425-0.212-3.282-0.506-3.111-2.183
		c0.271-2.672,2.925-1.227,4.406-1.917C172.844,256.524,171.12,257.483,169.273,258.404z"/>
	<path style="fill-rule:evenodd;clip-rule:evenodd;fill:#E03989;" d="M184.017,255.731c0.045,1.71-1.016,2.211-2.318,2.369
		c-1.314,0.159-2.496-0.177-2.907-1.594c-0.385-1.327,0.568-1.917,1.639-1.982C181.754,254.442,183.346,254.001,184.017,255.731z"/>
	<path style="fill-rule:evenodd;clip-rule:evenodd;fill:#E2157E;" d="M209.257,237.262c0.236,2.103,1.018,4.453-2.266,4.94
		C205.158,239.37,205.425,237.5,209.257,237.262z"/>
	<path style="fill-rule:evenodd;clip-rule:evenodd;fill:#E2157E;" d="M205.515,254.575c1.633,0.111,2.672,0.841,2.723,2.605
		c-0.405,0.394-0.81,0.786-1.215,1.179l0.013,0.034c-1.341-0.928-4.144-0.779-2.741-3.725
		C204.695,254.565,205.101,254.533,205.515,254.575z"/>
	<path style="fill-rule:evenodd;clip-rule:evenodd;fill:#C7A996;" d="M205.766,230.682c1.254,0.055,2.511,0.109,3.768,0.164
		c-0.195,1.024-0.348,2.14-1.681,2.242C206.146,233.22,205.862,232.006,205.766,230.682z"/>
	<path style="fill-rule:evenodd;clip-rule:evenodd;fill:#C9A699;" d="M204.294,254.669c-0.338,2.162,1.648,2.615,2.741,3.725
		C204.405,258.414,201.893,258.349,204.294,254.669z"/>
	<path style="fill-rule:evenodd;clip-rule:evenodd;fill:#E9D9CD;" d="M144.181,111.46c0.726-0.4,1.451-0.801,2.174-1.201
		c0.192,0.366,0.308,0.755,0.34,1.168c0.918,0.988-0.253,3.768,2.643,3.063c1.204,0.169,1.685,1.196,2.378,1.967
		c2.951,4.691,7.153,7.605,12.546,8.824c1.387,1.681,4.241,2.442,3.738,5.316c-1.106,6.317-1.752,12.554-0.066,18.932
		c2.603,9.851-2.481,19.68-0.101,29.725c1.693,7.141-1.902,13.204-8.041,16.713c-7.285,4.165-14.583,4.814-21.811,0.085
		c-1.301-0.852-2.567-2.415-2.958-3.888c-2.748-10.358-8.667-19.386-12.131-29.431c-0.961-2.789-1.629-5.597-1.335-8.568
		c0.392-0.38,0.762-0.782,1.105-1.208c1.116-1.573,1.098-3.738,2.661-5.074c-2.282-7.936-0.713-15.027,4.317-21.571
		c1.599-2.079,2.924-4.524,3.243-7.293c0.815-1.273,1.632-2.547,2.447-3.821c1.315,0.236,2.25-3.356,3.709-0.497
		c0.664,1.3,0.023,3.792,2.427,3.265c1.938-0.424,1.167-2.795,1.705-4.262C143.449,112.935,143.84,112.208,144.181,111.46z"/>
	<path style="fill-rule:evenodd;clip-rule:evenodd;fill:#C3A592;" d="M146.528,205.179c-0.35,1.874-1.437,3.037-3.351,2.748
		c-1.541-0.232-3.627-0.621-3.468-2.65c0.125-1.593,1.531-3.023,3.38-2.902C144.707,202.481,146.27,203.164,146.528,205.179z"/>
	<path style="fill-rule:evenodd;clip-rule:evenodd;fill:#DFCABB;" d="M125.322,147.882c-0.024,2.413,0.431,5.019-2.505,6.27
		c-1.476-1.403,0.826-3.754-1.255-5.007C122.455,147.655,123.941,147.926,125.322,147.882z"/>
	<path style="fill-rule:evenodd;clip-rule:evenodd;fill:#D8C0AF;" d="M171.751,219.457c-1.236,0-2.471,0-4.086,0
		c1.281-1.823,3.744-1.654,4.144-3.738c0.834,0.419,1.668,0.838,2.503,1.256c0.78,2.481-1.933,1.393-2.527,2.47L171.751,219.457z"/>
	<path style="fill-rule:evenodd;clip-rule:evenodd;fill:#C2A390;" d="M171.784,219.444c0.844-0.823,1.685-1.647,2.527-2.468
		c1.25-0.436,2.499-0.869,3.751-1.303c0.015,0.465,0.032,0.931,0.048,1.398C176.327,218.733,174.222,219.526,171.784,219.444z"/>
	<path style="fill-rule:evenodd;clip-rule:evenodd;fill:#E4D1C4;" d="M121.561,149.145c4.36,0.681,0.619,3.394,1.255,5.007
		c-0.42,0.003-0.841,0.008-1.261,0.012C121.557,152.491,121.559,150.819,121.561,149.145z"/>
	<path style="fill-rule:evenodd;clip-rule:evenodd;fill:#E9D9CD;" d="M207.438,113.888c-2.672,0.048-2.939-1.709-2.96-3.749
		c-0.021-2.116,0.473-3.637,3.028-3.683c2.977-0.052,3.255,1.807,3.238,4.099C210.73,112.844,209.818,114.083,207.438,113.888z"/>
	<path style="fill-rule:evenodd;clip-rule:evenodd;fill:#E9D9CD;" d="M210.775,95.076c-0.01,1.036-0.005,2.072-0.032,3.108
		c-0.054,2.063,0.254,4.32-2.897,4.426c-2.385,0.08-3.294-1.021-3.392-3.333c-0.117-2.807,0.788-4.393,3.848-4.163
		c0.824,0.063,1.657-0.013,2.486-0.025C210.789,95.089,210.775,95.076,210.775,95.076z"/>
	<path style="fill-rule:evenodd;clip-rule:evenodd;fill:#E32F88;" d="M143.359,48.702c-1.17-0.164-2.737,0.269-2.873-1.585
		c-0.16-2.194,1.503-2.163,2.984-2.157c1.243,0.005,2.706-0.02,2.887,1.654C146.609,48.953,144.722,48.513,143.359,48.702z"/>
	<path style="fill-rule:evenodd;clip-rule:evenodd;fill:#E13286;" d="M206.822,131.531c0.842,0.074,1.685,0.146,2.526,0.22
		c0.418,1.594,0.834,3.186,1.251,4.779c-0.785,0.099-1.569,0.199-2.354,0.299C204.61,135.912,205.998,133.646,206.822,131.531z"/>
	<path style="fill-rule:evenodd;clip-rule:evenodd;fill:#E32F88;" d="M158.882,46.214c0.262,1.671-0.456,2.29-1.625,2.377
		c-1.178,0.088-2.634,0.405-3.11-1.127c-0.467-1.505,0.467-2.325,1.912-2.429C157.287,44.947,158.595,44.928,158.882,46.214z"/>
	<path style="fill-rule:evenodd;clip-rule:evenodd;fill:#E2187F;" d="M207.902,83.995c2.124,1.619,1.903,3.687,1.116,5.861
		c-0.578,0.044-1.152,0.088-1.729,0.133c-3.121-2.089-3.292-4.107,0.144-6.04L207.902,83.995z"/>
	<path style="fill-rule:evenodd;clip-rule:evenodd;fill:#E32F88;" d="M121.288,46.543c0.052,1.918-1.166,2.113-2.467,2.093
		c-0.997-0.015-2.177,0.054-2.405-1.299c-0.264-1.562,0.644-2.244,2.088-2.318C119.791,44.954,120.994,45.099,121.288,46.543z"/>
	<path style="fill-rule:evenodd;clip-rule:evenodd;fill:#E32F88;" d="M133.875,46.776c-0.044,1.735-1.268,1.903-2.565,1.862
		c-1-0.034-2.18,0.016-2.348-1.379c-0.19-1.575,0.74-2.201,2.184-2.255C132.468,44.954,133.64,45.148,133.875,46.776z"/>
	<path style="fill-rule:evenodd;clip-rule:evenodd;fill:#E9D9CD;" d="M204.426,73.824c0.021,2.49,0.045,4.98,0.067,7.47
		c-1.624-3.591-2.552-7.339-2.538-11.3C202.777,71.271,203.601,72.548,204.426,73.824z"/>
	<path style="fill-rule:evenodd;clip-rule:evenodd;fill:#E2157E;" d="M207.023,124.994c-0.657-1.438-1.771-2.914-0.162-4.362
		c0.613-0.552,1.596-0.577,2.129,0.205c1.169,1.711,0.158,3.01-0.997,4.229c0-0.001-0.479-0.097-0.479-0.097L207.023,124.994z"/>
	<path style="fill-rule:evenodd;clip-rule:evenodd;fill:#E9D9CD;" d="M207.433,83.949c-1.985,1.967-1.854,3.983-0.145,6.04
		c-2.147,0.062-2.815-1.158-2.807-3.102C204.492,84.872,205.342,83.818,207.433,83.949z"/>
	<path style="fill-rule:evenodd;clip-rule:evenodd;fill:#BF1D70;" d="M143.663,254.439c1.207,0.106,2.724,0.003,2.653,1.739
		c-0.06,1.484-1.366,1.91-2.661,1.956c-1.359,0.048-2.602-0.529-2.659-1.951C140.929,254.507,142.413,254.494,143.663,254.439z"/>
	<path style="fill-rule:evenodd;clip-rule:evenodd;fill:#C5AC9C;" d="M88.897,228.291c0.186-1.689-5.139-3.486,0.098-5.078
		c1.592,0.305,3.096,0.729,3.536,2.601C90.635,225.635,90.173,227.559,88.897,228.291z"/>
	<path style="fill-rule:evenodd;clip-rule:evenodd;fill:#DA2D7F;" d="M158.946,253.898c0.661,2.693-0.432,4.164-3.141,4.51
		C153.248,255.182,153.248,255.182,158.946,253.898z"/>
	<path style="fill-rule:evenodd;clip-rule:evenodd;fill:#CE2879;" d="M132.782,258.378c-2.781-0.018-4.561-0.894-3.569-4.154
		C131.215,254.909,135.833,253.351,132.782,258.378z"/>
	<path style="fill-rule:evenodd;clip-rule:evenodd;fill:#C4A693;" d="M78.936,258.255c1.236,0.062,2.473,0.121,3.709,0.181
		c0,2.988,0,5.974,0,10.002C78.546,265.127,78.745,261.688,78.936,258.255z"/>
	<path style="fill-rule:evenodd;clip-rule:evenodd;fill:#DE3685;" d="M116.54,254.448c2.084,0.532,6.565-1.182,3.724,3.97
		C118.197,257.867,114.375,258.965,116.54,254.448z"/>
	<path style="fill-rule:evenodd;clip-rule:evenodd;fill:#E03989;" d="M93.677,258.13c-1.341,0.071-2.585-0.25-2.835-1.708
		c-0.295-1.729,1.091-1.942,2.341-1.945c1.163-0.003,2.671-0.215,2.859,1.463C96.219,257.517,94.953,257.921,93.677,258.13z"/>
	<path style="fill-rule:evenodd;clip-rule:evenodd;fill:#E03989;" d="M108.715,255.967c-0.303,1.665-1.394,2.11-2.694,2.17
		c-1.359,0.063-2.585-0.504-2.67-1.91c-0.099-1.662,1.36-1.769,2.607-1.771C107.184,254.453,108.428,254.533,108.715,255.967z"/>
	<path style="fill-rule:evenodd;clip-rule:evenodd;fill:#E9D8CC;" d="M85.134,80.018c-3.464,8.061-1.463,16.941-3.77,25.177
		c-0.057,1.041-0.286,1.994-1.295,2.549c-1.584,1.255-2.03,3.351-3.48,4.706c1.758,1.853,4.644,3.097,3.508,6.51
		c-0.862,0.31-1.726,0.623-2.588,0.935c0.247,2.064,1.383,3.708,2.531,5.347c-0.066,2.361-1.454,4.181-2.505,6.141
		c0.153,1.492,0.133,2.926-1.282,3.904c-2.813,1.433-4.718,5.929-8.297,4.193c-3.545-1.717-2.728-6.02-3.009-9.529
		c-0.448-5.577,1.29-10.633,3.102-15.704c3.33-9.319,7.27-18.481,7.074-28.67c-0.003-0.158,0.167-0.454,0.268-0.458
		c0.355-0.018,0.715,0.063,1.074,0.108c0.824,0.364,1.373,1.939,2.205,1.269c0.526-0.424-0.562-1.665-1.071-2.474
		c-0.777-2.184-2.639-4.457,1.641-5.385c3.479-0.752,1.687-3.963,2.107-6.126c0.427-0.008,0.854-0.015,1.281-0.022
		c0,0-0.006-0.002-0.006-0.002c1.958,1.793-0.202,4.404,1.249,6.299C84.292,79.195,84.713,79.606,85.134,80.018z"/>
	<path style="fill-rule:evenodd;clip-rule:evenodd;fill:#E45295;" d="M77.598,84.022c2.783-0.082,3.787,1.375,3.232,3.946
		C80.607,89,79.9,90.007,78.654,89.739c-2.542-0.546-2.073-2.705-2.19-4.514C76.843,84.824,77.22,84.423,77.598,84.022z"/>
	<path style="fill-rule:evenodd;clip-rule:evenodd;fill:#DCBFB3;" d="M75.162,59.977c1.051-1.676,0.724-4.037,2.624-5.291
		c0.616-0.533,1.293-0.528,2.004-0.226c0.149,0.188,0.298,0.377,0.448,0.567c0.207,2.01-1.535,3.986-0.102,6.015
		c-1.082,1.148-2.293,1.334-3.644,0.491C76.049,61.015,75.606,60.496,75.162,59.977z"/>
	<path style="fill-rule:evenodd;clip-rule:evenodd;fill:#E15292;" d="M76.252,135.287c0.188-1.38,0.137-2.838,1.282-3.904
		c0.863,0,1.725,0.001,2.588,0.001c-0.007,1.679-0.013,3.362-0.02,5.041C78.543,136.982,77.232,136.694,76.252,135.287z"/>
	<path style="fill-rule:evenodd;clip-rule:evenodd;fill:#E03B88;" d="M76.492,61.532c1.215-0.163,2.429-0.326,3.644-0.49
		c0.284,2.302,1.304,4.959-2.538,5.277C76.086,64.989,76.61,63.186,76.492,61.532z"/>
	<path style="fill-rule:evenodd;clip-rule:evenodd;fill:#E34890;" d="M77.583,72.529c0.813,0.014,1.626,0.029,2.439,0.045
		c0.221,1.608,0.87,3.347-0.551,4.64c-0.382,0.348-1.743,0.222-2.171-0.19C75.747,75.528,77.044,74.013,77.583,72.529z"/>
	<path style="fill-rule:evenodd;clip-rule:evenodd;fill:#C5A795;" d="M61.21,145.365l-0.613,0.001l-0.612-0.001
		c0.144-1.109-0.405-2.462,1.001-3.124c0.224-0.105,0.946,0.275,0.935,0.331C61.731,143.512,61.462,144.437,61.21,145.365z"/>
	<path style="fill-rule:evenodd;clip-rule:evenodd;fill:#E11A7E;" d="M209.458,147.899c-2.942,0.45-3.688-1.272-3.69-3.729
		C211.019,141.435,209.297,145.598,209.458,147.899z"/>
	<path style="fill-rule:evenodd;clip-rule:evenodd;fill:#C4A593;" d="M146.721,27.344c1.984,0.479,4.274-3.146,5.954,0.239
		c1.583,3.185-2.093,2.902-3.28,4.051c-5.986,5.781-9.906,6.152-17.647,2.366c-0.536-0.263-1.201-0.335-1.811-0.362
		c-3.625-0.166-7.834,0.083-2.67-4.938c0.441-0.429-0.104-1.874-0.262-3.645c3.495,3.026,6.59,5.732,10.89,5.919
		C140.192,28.197,143.038,26.755,146.721,27.344z"/>
	<path style="fill-rule:evenodd;clip-rule:evenodd;fill:#E2CEC1;" d="M146.721,27.344c-2.942,1.211-5.884,2.42-8.826,3.63
		C139.089,26.117,142.763,24.607,146.721,27.344z"/>
	<path style="fill-rule:evenodd;clip-rule:evenodd;fill:#E2C4BD;" d="M79.989,49.891c0.59-1.119,1.61-1.127,2.67-1.032
		c0.287,0.978,0.47,2.001,0.878,2.926c1.794,4.073-0.164,4.239-3.301,3.24c0.001,0.001-0.399-0.342-0.399-0.342
		C78.614,53.047,78.831,51.454,79.989,49.891z"/>
	<path style="fill-rule:evenodd;clip-rule:evenodd;fill:#E22E87;" d="M96.077,45.105c0.895,3.138-1.04,3.682-3.462,3.781
		c-1.357-0.622-1.952-1.763-1.117-2.961C92.632,44.297,94.493,45.129,96.077,45.105z"/>
	<path style="fill-rule:evenodd;clip-rule:evenodd;fill:#E44490;" d="M77.061,238.351c0.591-0.497,1.181-0.991,1.774-1.49
		c1.45,0.875,2.729,1.913,1.749,3.796c-0.289,0.555-1.271,1.181-1.82,1.089C76.848,241.421,77.631,239.505,77.061,238.351z"/>
	<path style="fill-rule:evenodd;clip-rule:evenodd;fill:#E12883;" d="M79.989,49.891c0.688,1.622,0.291,3.208-0.151,4.793
		c-0.684,0.001-1.368,0.002-2.052,0.002c-0.921-1.567-2.186-3.118-0.207-4.808C78.382,49.882,79.185,49.887,79.989,49.891z"/>
	<path style="fill-rule:evenodd;clip-rule:evenodd;fill:#E45495;" d="M76.589,112.45c-0.236-2.6-0.052-4.89,3.48-4.706
		C80.212,110.278,81.465,113.63,76.589,112.45z"/>
	<path style="fill-rule:evenodd;clip-rule:evenodd;fill:#E3448F;" d="M80.04,125.242c-3.629-0.462-4.38-2.288-2.532-5.346
		C81.02,120.415,81.134,122.542,80.04,125.242z"/>
	<path style="fill-rule:evenodd;clip-rule:evenodd;fill:#E21B7F;" d="M208.204,72.626c1.293,1.363,1.366,3.013,1.118,4.739
		c-1.21,0.233-2.551,0.541-3.101-0.955C205.533,74.539,206.436,73.309,208.204,72.626z"/>
	<path style="fill-rule:evenodd;clip-rule:evenodd;fill:#E8D7CC;" d="M83.87,78.785c-2.108-1.765-0.963-4.173-1.249-6.299
		C86.294,73.939,83.955,76.585,83.87,78.785z"/>
	<path style="fill-rule:evenodd;clip-rule:evenodd;fill:#DFCEC2;" d="M149.22,115.193c-1.298,0.084-2.198,2.637-3.406,1.201
		c-1.269-1.501,0.153-3.359,0.881-4.966c0.392,0.04,0.78,0.065,1.171,0.079C148.574,112.639,149.91,113.544,149.22,115.193z"/>
	<path style="fill-rule:evenodd;clip-rule:evenodd;fill:#CFB6A6;" d="M149.22,115.193c-0.452-1.23-0.902-2.459-1.353-3.688
		c2.129,0.993,3.689,2.427,3.848,4.952C150.884,116.035,150.051,115.613,149.22,115.193z"/>
	<path style="fill-rule:evenodd;clip-rule:evenodd;fill:#E2157E;" d="M207.903,108.203c1.249,0.156,1.702,0.993,1.703,2.118
		c0,1.056-0.191,2.156-1.48,2.305c-1.642,0.19-2.094-0.917-2.044-2.301C206.123,109.171,206.775,108.464,207.903,108.203z"/>
	<path style="fill-rule:evenodd;clip-rule:evenodd;fill:#E23E8D;" d="M207.649,96.456c1.583,0.15,2.1,1.146,2.068,2.517
		c-0.021,1.059-0.285,2.08-1.535,2.272c-1.55,0.237-2.221-0.688-2.315-2.089C205.773,97.813,206.218,96.766,207.649,96.456z"/>
	<path style="fill-rule:evenodd;clip-rule:evenodd;fill:#E44590;" d="M80.81,98.804c-0.088,1.287-0.453,2.443-1.971,2.579
		c-1.524,0.137-2.203-0.807-2.178-2.216c0.023-1.281,0.462-2.478,1.918-2.658C80.165,96.311,80.583,97.51,80.81,98.804z"/>
</g>
</svg>
