<?xml version="1.0" encoding="utf-8"?>
<!-- Generator: Adobe Illustrator 16.0.0, SVG Export Plug-In . SVG Version: 6.00 Build 0)  -->
<!DOCTYPE svg PUBLIC "-//W3C//DTD SVG 1.1//EN" "http://www.w3.org/Graphics/SVG/1.1/DTD/svg11.dtd">
<svg version="1.1" id="Capa_1" xmlns="http://www.w3.org/2000/svg" xmlns:xlink="http://www.w3.org/1999/xlink" x="0px" y="0px"
	 width="275px" height="327.891px" viewBox="0 0 275 327.891" style="enable-background:new 0 0 275 327.891;" xml:space="preserve"
	>
<g>
	<path style="fill-rule:evenodd;clip-rule:evenodd;fill:#3B3A3B;" d="M194.918,116.362c-1.392,1.909-3.226,3.204-5.466,3.934
		c-1.896,1.835-4.449,2.495-6.677,3.749c-7.454,2.422-14.141,0.85-20.471-3.576c-4.479-3.13-7.928-7.373-12.233-10.645
		c-2.665-1.328-5.329-2.207-7.963,0.096c-0.445,0.343-0.905,0.647-1.376,0.947c-4.149,4.25-7.689,9.052-12.931,12.234
		c-4.383,2.661-8.845,4.451-14.002,4.33c-1.54-0.09-2.985-0.658-4.503-0.857c-2.778-0.28-5.644-0.388-7.058-3.442
		c-0.425-3.635-3.757-4.006-6.142-5.443c-1.107-1.001-2.215-2.003-3.323-3.006c-0.54-3.497,0.111-7.342-2.968-10.104
		c-0.929-3.169-0.46-6.416-0.594-9.63c0.035-1.97-0.016-3.944,0.297-5.899c0.299-1.599,0.9-3.098,1.516-4.591
		c5.027-9.453,11.01-18.478,12.151-29.585c0.322-3.147,0.391-6.359,1.155-9.465c1.036-2.508,1.83-5.097,2.474-7.737
		c0.675-1.728,2.343-1.75,3.769-2.19c1.09-0.183,2.181-0.366,3.271-0.55c1.696-0.009,2.127,1.237,2.521,2.524
		c-1.197,9-0.614,18.074-1.057,27.104c-0.181,3.683,1.046,6.034,4.056,8.039c4.355,2.898,8.475,6.153,12.565,9.422
		c1.297,1.118,2.697,2.107,4.106,3.078c2.363,1.396,4.054,3.505,5.849,5.503c0.436,0.297,0.866,0.595,1.32,0.856
		c6.209,1.269,10.055-1.518,12.277-7.112c0.403-0.823,0.855-1.611,1.36-2.379c3.903-4.582,7.747-9.246,13.352-11.894
		c2.976-1.407,3.827-3.842,3.768-6.881c-0.113-5.801,0.319-11.613-0.634-17.395c-0.392-2.367-0.714-5.016,1.989-6.35
		c2.557-1.263,4.631-0.106,6.28,1.976l-0.031-0.027c1.591,0.714,2.432,1.981,2.721,3.659c0.485,6.036,2.156,11.879,2.896,17.889
		c0.625,5.081,4.974,7.563,8.484,10.542c5.043,8.011,7.576,16.787,7.968,26.213c-0.154,1.195-0.489,2.353-0.837,3.502
		c-0.219,1.122-0.494,2.234-0.859,3.32c-0.385,1.059-0.891,2.059-1.553,2.976C198.167,111.469,195.829,113.345,194.918,116.362z"/>
	<path style="fill-rule:evenodd;clip-rule:evenodd;fill:#DAC3B2;" d="M212.151,233.72c2.612,9.077,3.539,18.465,4.464,27.781
		c1.99,20.03,1.209,40.117,0.247,60.193c-0.156,3.25-1.415,4.091-4.394,4.079c-16.112-0.057-32.225-0.045-48.338,0.088
		c-3.745,0.031-5.158-1.296-5.71-5.151c-0.792-5.539-2.767-10.91-2.179-16.644c4.101,1.114,3.493,4.964,4.202,7.789
		c2.874,11.447,0.323,11.191,14.083,11.121c7.851-0.038,7.72-0.028,6.966-7.779c-1.228-12.611-3.045-25.171-3.438-37.861
		c-0.116-3.818-2.239-6.854-4.388-9.781c-3.004-4.09-5.595-8.378-7.192-13.221c-0.564-4.46,2.696-6.951,5.208-9.718
		c7.367-8.116,15.809-14.819,26.059-19.011c1.141-0.046,2.159,0.348,3.117,0.915c0.996,0.757,2.451,0.564,3.35,1.553
		c0.899,1.218,2.125,2.094,3.252,3.077C208.456,233.051,209.096,235.583,212.151,233.72z"/>
	<path style="fill-rule:evenodd;clip-rule:evenodd;fill:#3B3A3B;" d="M198.384,226.424c-12.294,6.716-23.827,14.325-31.308,26.688
		c-3.031,5.6-6.763,10.762-10.166,16.127c-1.772,2.791-4.577,3.662-7.715,3.747c-6.3-0.482-10.079-4.558-13.199-9.434
		c-3.82-5.968-7.999-11.581-13.973-15.603c-6.678-6.717-15.046-11.234-22.371-17.117c-2.272-2.573-5.451-3.856-8.193-5.757
		c-1.968-1.364-3.854-2.789-4.31-5.372c0.082-2.873,0.036-5.745,0.208-8.614c0.546-2.766,1.09-5.521,2.615-7.978
		c2.564-4.127,5.017-4.546,8.841-1.417c0.781,0.638,1.482,1.37,2.094,2.172c14.407,18.864,34.896,21.305,56.385,20.564
		c4.97-0.171,9.948-1.437,14.88-2.402c2.176-0.725,4.353-1.463,6.481-2.325c2.572-0.945,4.852-2.36,6.839-4.256
		c0.419-0.367,0.868-0.691,1.33-1.002c3.921-2.532,6.73-6.267,10.145-9.348c2.541-2.292,5.021-3.521,7.489,0.067
		c1.574,2.06,1.297,4.784,2.505,6.979c0.207,1.402,0.196,2.878,1.348,3.959c1.007,0.879,0.973,1.941,0.554,3.074
		c-1.517,1.996-4.106,2.566-5.78,4.356C201.724,224.832,200.305,226.038,198.384,226.424z"/>
	<path style="fill-rule:evenodd;clip-rule:evenodd;fill:#DAC3B2;" d="M100.779,230.067c7.392,5.401,15.488,9.893,21.714,16.8
		c5.577,3.688,7.165,8.565,4.498,14.781c-2.362,5.509-1.501,11.435-2.111,17.177c-0.106,0.672-0.291,1.318-0.52,1.955
		c-4.622,12.195-3.954,24.917-3.786,37.592c0.051,3.907,2.631,4.298,5.717,4.53c4.718,0.354,9.703-1.325,14.103,1.686
		c-1.084,1.746-2.849,1.21-4.378,1.211c-14.316,0.009-28.633-0.126-42.948-0.001c-4.004,0.034-5.357-1.215-5.933-5.438
		c-3.11-22.783-3.875-45.646-3.519-68.592c0.036-2.354-0.797-4.72-1.226-7.08c0.897-0.7,1.848-0.72,2.84-0.233
		c2.396,1.866,2.646,4.537,2.082,7.112c-1.279,5.833-0.819,11.551,0.442,17.263c0.052,0.405-0.062,0.762-0.298,1.081
		c-0.212,0.288,0.334,0.294,0.372-0.12c0.438-4.854-0.006-9.893,3.308-14.061c-0.012-1.142-0.217-2.266-0.252-3.405
		c2.511-6.016,1.561-12.491,2.526-18.706C94.554,226.246,94.664,226.264,100.779,230.067z"/>
	<path style="fill-rule:evenodd;clip-rule:evenodd;fill:#DAC3B2;" d="M202.188,195.069c0.268,2.061,1.737,3.872,1.262,6.087
		c-0.573,0.615-1.45,1.19-2.091,0.829c-5.92-3.331-7.532,0.708-8.896,5.125c-1.083,3.503-2.972,6.444-5.773,8.804l0.028-0.029
		c-2.797,0.749-4.81,2.931-7.405,4.055c-2.049,0.826-4.08,1.337-6.031-0.24c-3.88-3.044-8.431-3.614-13.152-3.619
		c-6.243-0.009-12.48,0.213-18.652-1.302c-5.893-1.445-10.129-4.703-12.789-10.142c-2.596-5.313-4.122-10.96-5.118-16.727
		c-1-5.788-2.61-11.34-4.515-16.901c-1.418-4.141-3.029-8.948,1.607-12.591c0.552-0.364,1.021-0.809,1.115-1.506
		c0.007-0.434-0.204-0.66-0.674-0.603c-0.531,0.532-0.854,1.156-1.292,1.72c-1.671,1.824-3.482,2.242-5.518,0.596
		c-1.835-8.105-2.375-16.301-1.794-24.583c0.267-1.307,0.838-2.468,1.705-3.479c1.552-1.671,3.635-2.405,5.726-3.028
		c6.208-1.848,11.881-4.5,16.044-9.742c0.815-1.026,1.894-2.193,3.522-1.127c1.135,4.944-2.398,8.267-4.342,12.082
		c-3.032,5.944-6.458,11.621-3.215,18.72c1.062,2.324-0.679,4.657-1.726,6.8c-0.327,0.671-1.128,1.249-1.943,0.401
		c-0.611-0.637-0.752-1.38-0.784-1.341c-0.298,4.208,1.105,8.915,2.734,13.531c3.15,8.924,7.634,17.296,10.59,26.343
		c2.394,7.33,13.3,9.252,21.387,4.282c5.435-3.339,8.94-8.643,7.608-14.668c-1.497-6.771-1.054-13.087,0.152-19.604
		c-0.046-0.556-0.033-1.116,0.014-1.67c1.123-3.13-2.042-6.203-0.165-9.355c0.721-2.088,1.288-4.146-0.894-5.776
		c-1.102-0.746-2.488-1.093-3.253-2.311c1.804-3.348,3.173-6.944,5.629-9.923c1.188,0.035,2.346,0.581,3.923,0.242
		c-1.172-1.355-2.911-0.077-3.779-1.248c-0.731-2.624-4.126-4.353-2.601-7.737c4.612-1.278,9.396,1.306,13.98-0.648
		c1.697-0.169,3.356-0.179,4.721,1.086c-7.372,6.24-11.741,24.175-6.913,33.459c5.318,10.229,11.993,19.752,18.078,29.582
		C197.913,192.068,199.435,193.917,202.188,195.069z"/>
	<path style="fill-rule:evenodd;clip-rule:evenodd;fill:#E9D9CD;" d="M132.034,83.692c-5.701-4.134-11.401-8.271-17.106-12.402
		c-1.004-0.726-1.913-1.468-1.698-2.919c1.5-10.167-0.486-20.603,2.348-30.669c0.981-1.683,2.612-2.405,4.355-2.967
		c2.981-1.864,5.817-1.875,7.783,1.305c2.452,3.962,6.211,4.771,10.339,4.851c4.395,0.085,8.751-0.23,13.147-0.719
		c5.245-0.584,7.054-5.518,11.146-7.348c1.326-0.078,2.576,0.064,3.511,1.16c1.508,4.27,4.441,4.697,8.374,1.218
		c2.476,0.608,4.758,1.831,7.275,2.308c0.031,1.304,0.06,2.608,0.089,3.912c-7.758-2.071-7.358-2.114-6.5,5.901
		c0.722,6.741,0.374,13.599,0.497,20.403c0.024,1.279-0.238,2.271-1.734,2.693c-7.394,2.084-11.388,8.531-16.773,13.195
		c-1.024,0.884-1.828,0.676-2.183-0.597c-0.501-1.798,1.2-3.169,1.322-5.08c-2.186,1.077-3.092,2.89-4.072,4.633
		c-4.109,7.316-6.245,7.36-11.278,0.227c-1.616-3.539-3.952-6.279-7.977-7.384c-1.16,2.257,0.836,3.826,0.884,5.688
		C133.815,82.327,134.491,84.101,132.034,83.692z"/>
	<path style="fill-rule:evenodd;clip-rule:evenodd;fill:#C2A390;" d="M115.119,158.745c2.214,0.485,3.431-1.014,4.717-2.372
		c1.55,0.4,2.749,1.314,3.734,2.542c-6.224,0.854-4.615,7.632-3.909,9.049c5.024,10.089,4.761,21.464,8.63,31.738
		c4.428,11.759,8.222,13.373,21.938,14.691c6.346,0.61,12.789-0.665,19.123,1.146c2.322,0.664,3.978,1.704,5.098,3.747
		c0.488,3.421-3.57,1.456-4.232,3.545c1.267-1.077,2.394-1.037,3.392,0.332c-23.004,6.185-44.916,3.957-65.448-8.592
		c-3.529-2.157-5.506-5.8-7.944-8.979c-5.054-6.589-6.261-6.437-10.355,0.825c-0.838,1.487-1.344,2.838-1.318,4.466
		c-0.477,0.389-0.98,0.446-1.513,0.115c-0.288-0.548-0.229-1.066,0.125-1.561c0.022-4.538,1.087-8.874,2.522-13.138
		c3.098-5.696,6.715-11.159,7.928-17.696c1.146-1.725,6.772,0.671,4.156-4.517c1.736-4.309,4.273-8.129,7.131-11.755
		c1.141-0.901,0.735-2.79,2.212-3.482C112.425,158.118,113.75,157.535,115.119,158.745z"/>
	<path style="fill-rule:evenodd;clip-rule:evenodd;fill:#DAC3B2;" d="M65.276,149.019c0.576-10.837,3.775-21.237,5.319-31.911
		c1.142-7.896,2.17-15.808,3.248-23.711c1.616-1.258,1.196-3.077,1.308-4.753c1.869-12.918,3.518-25.871,7.543-38.369
		c0.406-1.26-1.261,0.321-1.598-0.529c0.114-3.194,2.824-3.689,4.967-4.774c5.38-2.093,4.667,2.276,5.418,5.098
		c0.144,1.271-0.269,2.35-1.153,3.256c-3.271,2.185-2.161,5.707-2.639,8.749c-1.577,2.273-1.875,4.316,1.018,5.808
		c0.153,0.57,0.074,1.105-0.232,1.609c-3.536,1.327-4.324,3.531-2.133,6.687c-2.268,2.592-1.302,4.602,1.149,6.348
		c-3.565,2.896-5.149,6.681-5.018,11.231c-0.5,8.761-4.552,16.561-6.816,24.843c-1.412,5.163-1.465,10.271-1.293,15.471
		c0.051,1.575,0.064,3.51,1.834,4.116c2.112,0.722,3.104-1.278,4.382-2.477c2.28-2.134,1.6-6.39,5.364-7.45
		c1.019,0.771,1.284,1.862,1.315,3.049c0.695,1.475-1.811,3.028,0.104,4.485c-4.618,18.312-9.029,36.689-16.394,54.165
		c-0.768,1.824-2.017,3.445-3.042,5.161c-1.432,2.345-1.802,5.29-5.062,8.198c-2.129-13.305,8.675-22.737,8.314-35.545
		c-3.643,2.422-3.83,5.444-4.034,8.229c-0.317,4.335-1.039,8.391-4.329,11.595c-1.022,0.993-1.747,2.378-1.855,3.751
		c-0.912,11.596-6.667,21.843-9.112,33.012c-0.521,2.377,0.219,4.853-0.862,7.125c-0.955,11.968-8.452,21.001-13.918,30.94
		c-0.363,0.659-1.123,1.403-1.936,0.684c-0.526-0.467-1.114-1.45-0.957-1.995c0.55-1.906,1.388-3.73,2.161-5.567
		c0.84-1.992,2.347-3.959,0.038-5.964c-0.438-1.785-0.82-3.76-3.309-1.943c-1.929,1.407-3.446,3.162-3.903,5.621
		c-3.402,3.866-8.921,6.873-4.024,14.103c-5.979-2.443-7.522-6.957-4.718-12.132c2.184-4.032,4.457-8.532,7.924-11.256
		c11.133-8.747,15.492-21.296,19.969-33.697c5.797-16.064,10.051-32.59,12.362-49.566c0.102-0.742,0.646-1.425,0.984-2.137
		c0.526,0.338,0.873,0.817,1.055,1.406c0.305,0.985-0.05,1.931-0.315,3.211c1.48-4.693,2.45-9.177,4.248-13.426
		C67.571,147.59,65.22,150.262,65.276,149.019z"/>
	<path style="fill-rule:evenodd;clip-rule:evenodd;fill:#C2A391;" d="M149.606,272.456c4.771-1.379,7.402-4.979,9.622-9.093
		c2.062-3.823,3.803-7.932,7.848-10.252c3.048,5.842,6.077,11.721,10.294,16.82c4.619,5.586,1.523,12.282,2.921,18.383
		c2.311,10.106,1.352,20.707,3.662,30.898c0.822,3.611-0.265,5.725-4.604,5.46c-5.605-0.344-12.173,1.522-16.602-0.821
		c-4.441-2.354-2.635-9.904-4.693-14.835c-0.682-1.63-0.064-3.729-1.813-4.949c-1.272-9.016-4.42-17.702-4.786-26.867
		c-0.173-4.31-2.085-4.081-4.876-2.155C145.479,271.715,147.35,271.858,149.606,272.456z"/>
	<path style="fill-rule:evenodd;clip-rule:evenodd;fill:#C2A391;" d="M149.606,272.456c-1.698,0.056-2.945,0.64-3.026,2.587
		c0.072,2.073-0.136,4.088-1.202,5.929c-0.756,1.063-2.043,1.195-3.115,1.764c0.84,0.92,2.224,0.915,3.017,1.861
		c-0.007,9.111-2.944,17.796-3.97,26.778c-0.505,4.417-0.254,8.841-0.914,13.214c-5.836,0.006-11.671,0.007-17.507,0.019
		c-2.109,0.005-4.183-0.028-4.163-2.982c0.086-13.019-0.949-26.126,2.887-38.854c0.325-1.081,1.295-1.966,1.966-2.943
		c0.882,0.026,1.758,0.265,3.059,0.432c-1.144-1.029-2.202-0.997-2.993-1.545c-0.153-5.937-0.525-11.824,1.846-17.58
		c2.159-5.237,1.511-10.249-2.998-14.267c6.541,3.256,10.348,9.11,14.082,14.982C139.764,266.86,143.63,270.923,149.606,272.456z"/>
	<path style="fill-rule:evenodd;clip-rule:evenodd;fill:#E9D9CD;" d="M182.994,44.935c-0.476-1.18-0.951-2.359-1.428-3.54
		c2.059,0.385,4.117,0.769,6.176,1.152c1.869,1.346,3.533,3.244,6.245,2.34c2.211,2.581,5.873,3.767,7.044,7.344
		c-1.229,1.821-0.641,3.479,0.474,5.082c3.121,2.384,4.668,5.409,3.847,9.397c-0.004,2.221,0.808,4.224,1.675,6.214
		c1.48,2.701,0.694,5.519,0.454,8.311c0.029,1.542-0.303,3.112,0.609,5.08c1.667-0.843,1.236-3.229,2.778-3.885
		c1.649,10.168,2.995,20.398,5.026,30.49c2.358,11.712,5.318,23.304,8.017,34.948c-2.228,0.666-0.707,1.948-0.488,3.026
		c1.564,8.611,3.864,16.97,7.99,24.738c3.494,6.102,3.346,13.079,4.78,19.68c1.488,6.84,3.115,13.651,4.683,20.475
		c-1.522,2.874-3.292,3.458-5.329,0.504c-1.845-2.676-2.973-5.694-4-8.75c-5.566-16.573-10.829-33.212-14.049-50.462
		c-2.566-13.755-9.541-25.995-14.332-38.991c-1.364-3.701-3.481-7.313-2.19-11.541c-0.113-1.441-0.189-2.876,0.683-4.155
		c0.853-0.261,1.967-0.314,2.33-1.104c0.145-0.313-1.124-0.059-1.703-0.299c-0.119-9.542-3.152-18.27-7.435-26.647
		c-2.209-3.254-1.704-6.995-1.398-10.485c0.52-5.951-1.36-10.503-6.179-13.988C185.496,48.581,183.955,46.982,182.994,44.935z"/>
	<path style="fill-rule:evenodd;clip-rule:evenodd;fill:#DAC3B2;" d="M200.976,106.547c2.534,9.096,6.42,17.667,10.071,26.341
		c4.654,11.06,7.715,22.482,9.966,34.385c2.547,13.461,7.824,26.413,12.022,39.553c0.911,2.848,2.422,5.5,3.418,8.328
		c1.155,3.271,2.787,1.607,4.424,0.633c2.866,7.397,10.452,11.115,14.038,17.975c0.628,1.197,1.792,2.112,1.883,3.601
		c1.844,2.328,1.926,5.046,1.737,7.819c-2.771,2.391-3.587-0.577-4.787-1.9c-1.595-1.762-2.614-4.036-4.768-5.309
		c-1.364-0.808-2.781-0.803-3.852,0.32c-1.055,1.104,1.722,1.617,0.688,2.914c-3.289,0.396-2.315,2.563-1.862,4.503
		c0.593,2.535,1.34,5.045,1.738,7.609c0.235,1.515,0.376,3.6-1.736,3.867c-1.514,0.189-2.263-1.432-2.789-2.775
		c-6.508-16.615-11.534-33.734-16.751-50.766c-3.765-12.29-7.978-24.387-12.529-36.385c1.182-6.28-2.837-11.118-4.234-16.584
		c-2.264-0.429-1.794,2.081-3.189,2.27c-2.095-4.015-0.813-8.243-0.785-12.394c3.52-1.67,2.535-4.374,1.686-7.108
		c-2.039-6.564-6.286-12.468-5.943-19.749c-0.207-1.383-0.534-2.771,0.073-4.139C199.986,108.554,200.48,107.551,200.976,106.547z"
		/>
	<path style="fill-rule:evenodd;clip-rule:evenodd;fill:#DAC3B2;" d="M162.492,33.894c-6.821,8.242-21.627,11.604-32.054,7.395
		c-1.25-0.505-2.17-1.193-2.547-2.325c-1.538-4.608-4.414-4.768-8.085-2.617c-0.585-1.346-1.771-2.321-2.293-3.707
		c7.749-0.219,9.435-6.522,11.992-11.951c0.988-2.78,2.251-5.204,5.886-4.588c0.584,0.091,1.241,0.101,1.728,0.404
		c6.502,4.047,12.199,2.846,17.757-2.117c1.599-1.426,4.455-4.01,6.305,0.329c-1.758,3.44-4.202,6.645-3.735,10.851
		c-0.352,0.379-0.784,0.602-1.295,0.676c-1.786-0.042-3.346,0.75-4.947,1.39c-1.625,0.576-3.476,0.337-4.959,1.411
		c-0.818,0.642-1.492,1.477-2.52,1.829c-2.579,0.134-4.97-0.417-7.108-1.917c-1.46,0.19-1.891-5.033-4.112-0.754
		c-2.86,5.398,3.03,1.906,3.729,3.67c5.402,3.323,10.47,1.152,15.536-0.964c0.502-0.21,1.015-0.385,1.526-0.562
		c2.205-0.333,2.677-2.646,4.237-3.708c2.005,0.778,4.009,1.556,6.014,2.334C162.854,30.541,162.78,32.24,162.492,33.894z"/>
	<path style="fill-rule:evenodd;clip-rule:evenodd;fill:#E9D9CD;" d="M161.181,14.717c-2.283-2.617-4.054-0.431-5.484,0.888
		c-6.347,5.855-12.877,7.45-20.047,1.508c-5.747-2.727-9.646-6.958-10.877-13.361c13.767,0,27.535,0,41.395,0
		C166.302,8.589,163.659,11.615,161.181,14.717z"/>
	<path style="fill-rule:evenodd;clip-rule:evenodd;fill:#E9D9CD;" d="M50.99,231.485c-2.003-7.681,0.274-14.771,3.768-21.334
		c2.278-4.28,2.614-8.749,3.401-13.238c0.778-4.443,0.821-8.976,5.147-12.159c2.008-1.479,2.316-4.604,2.104-7.284
		c-0.248-3.12,0.67-5.989,1.816-8.771c0.645-1.566,1.241-4.085,3.522-3.293c2.18,0.759,3.252,2.991,2.515,5.448
		c-1.498,4.995-2.199,10.562-4.957,14.757c-3.282,4.991-3.409,10.42-4.681,15.795c1.434-2.096,2.87-4.19,4.304-6.285
		c-0.823,6.162-4.684,11.012-7.181,16.442C57.659,218.279,54.257,224.851,50.99,231.485z"/>
	<path style="fill-rule:evenodd;clip-rule:evenodd;fill:#C3A492;" d="M87.157,209.439c0.099,0.56,0.196,1.12,0.293,1.682
		c0.975,3.085-0.219,6.334,0.718,9.423c3.462,4.156,9.292,5.178,12.611,9.525c-2.082,0.499-3.173-1.495-4.683-1.921
		c-3.035,8.007,0.216,16.955-3.949,24.78c-4.425,0.549-0.746,4.654-2.75,6.273c-0.762,2.727-0.134,5.51-0.392,8.246
		c-0.112,1.187,0.567,3.046-1.838,2.766c-2.853-5.378-2.8-11.11-1.717-16.839c0.577-3.052,0.873-5.913-0.638-8.733
		c-0.646-1.498-1.09-2.997-0.091-4.527c0.442-8.921,0.88-17.843,1.331-26.763C86.122,211.969,86.129,210.554,87.157,209.439z"/>
	<path style="fill-rule:evenodd;clip-rule:evenodd;fill:#C3A391;" d="M115.119,158.745c-1.236,0.404-2.473,0.809-3.709,1.213
		c-1.6-6.051-1.381-12.585-4.818-18.149c-2.272-6.291-2.953-13.086-6.064-19.111c0.687-0.82,1.377-0.976,2.073-0.009
		c1.827,2.885,5.07,1.924,7.634,2.807c0.901,2.701,1.061,5.746,3.593,7.683C114.258,141.701,114.688,150.223,115.119,158.745z"/>
	<path style="fill-rule:evenodd;clip-rule:evenodd;fill:#C5A794;" d="M81.097,49.745c1.025-0.553,2.051-1.108,3.463-1.872
		c-3.762,14.064-5.787,27.995-8.244,41.844c-0.816,0.742-1.651,0.738-2.501,0.058c-1.989-11.891,0.161-23.333,3.775-34.611
		C78.267,53.052,79.167,51.058,81.097,49.745z"/>
	<path style="fill-rule:evenodd;clip-rule:evenodd;fill:#E9D8CD;" d="M90.834,50.979c-2.324-1.42,0.391-6.843-4.772-6.007
		c7.391-5.179,15.554-8.362,24.512-9.492c-0.966,1.099-3.06,0.809-3.356,2.73c-0.921,2.07-3.075,2.897-4.486,4.476
		c-2.942,2.13-1.354,6.26-3.789,8.61c-0.802,0.233-1.59,0.117-2.372-0.086C94.71,50.009,92.721,51.697,90.834,50.979z"/>
	<path style="fill-rule:evenodd;clip-rule:evenodd;fill:#C4A593;" d="M200.896,112.628c-0.754,8.604,4.913,15.308,6.856,23.121
		c0.927,3.725,0.532,5.956-4.076,4.804c-2.457-7.959-4.914-15.92-7.373-23.88C197.176,114.576,198.106,112.545,200.896,112.628z"/>
	<path style="fill-rule:evenodd;clip-rule:evenodd;fill:#DEC9BA;" d="M231.413,175.634c-0.524,0.682-1.686,1.231-1.906,0.535
		c-2.603-8.195-6.861-15.927-7.122-24.787c-0.01-0.361,0.288-0.729,0.441-1.095c0.428-0.452,0.872-0.467,1.331-0.044
		C228.68,158.106,231.058,166.581,231.413,175.634z"/>
	<path style="fill-rule:evenodd;clip-rule:evenodd;fill:#C1A390;" d="M186.689,215.914c1.955-4.303,4.127-8.525,5.804-12.934
		c1.596-4.184,3.052-7.216,7.57-2.577c0.676,0.693,2.235,0.523,3.387,0.753c0.406,0.407,0.813,0.815,1.218,1.223
		c0.968,0.983,1.079,2.1,0.519,3.321c-0.429,0.53-0.938,0.599-1.519,0.265c-1.68-2.828-3.167-2.723-5.457-0.292
		C194.693,209.406,191.927,214.086,186.689,215.914z"/>
	<path style="fill-rule:evenodd;clip-rule:evenodd;fill:#C4A693;" d="M204.463,152.947c0.573-1.824-0.667-4.808,1.738-5.303
		c2.448-0.504,2.727,2.56,3.419,4.228c1.692,4.082,3.099,8.294,4.4,12.521c0.459,1.493,1.49,4.1-2.134,2.868
		C209.445,162.473,205.443,158.494,204.463,152.947z"/>
	<path style="fill-rule:evenodd;clip-rule:evenodd;fill:#C6A896;" d="M245.816,241.207c-0.218-1.492-4.4-1.007-1.784-4.122
		c1.664-1.978,2.902-2.032,4.997-1.067c4.478,2.062,5.114,7.405,8.87,10.028c0.907,1.213,1.099,2.575-0.173,3.475
		c-0.895,0.636-1.682-0.426-2.383-1.03C252.613,245.48,247.602,245.455,245.816,241.207z"/>
	<path style="fill-rule:evenodd;clip-rule:evenodd;fill:#DDC8B8;" d="M255.344,248.49c2.626,1.037,2.783-0.503,2.556-2.445
		c0.53-3.006-0.543-5.811-1.102-8.681c2.155,2.802,3.422,16.503,1.741,18.817c-1.76,2.425-7.297,2.346-9.181-0.044
		c-1.641-2.083-0.027-2.684,1.373-3.562C252.485,251.475,255.193,251.409,255.344,248.49z"/>
	<path style="fill-rule:evenodd;clip-rule:evenodd;fill:#C1A290;" d="M202.026,222.819c1.561-1.966,3.763-2.875,6.042-3.655
		c1.855,0.703,2.516,2.263,2.885,4.028c-0.623,2.827,0.161,5.506,0.863,8.193c-1.614,0.908-3.256,0.237-4.889,0.096
		c-2.63,0.17-3.719-1.116-3.467-3.669c-0.642-0.533-0.851-1.256-0.906-2.044C202.503,224.764,202.4,223.769,202.026,222.819z"/>
	<path style="fill-rule:evenodd;clip-rule:evenodd;fill:#E2CFC1;" d="M124.772,3.752c3.106,4.876,6.678,9.374,10.877,13.361
		c-3.191-0.772-4.308,2.019-6.144,3.576c-0.785-2.39-1.569-4.778-2.354-7.168c-1.204-1.433-1.486-3.309-2.349-4.906
		C124.857,6.993,120.008,5.404,124.772,3.752z"/>
	<path style="fill-rule:evenodd;clip-rule:evenodd;fill:#C8AB99;" d="M65.276,149.019c1.959-0.675,0.811-3.393,3.995-5.153
		c-1.95,7.985-3.403,14.705-7.201,21.692c-0.166-2.862-0.285-4.922-0.404-6.983C62.418,155.219,62.856,151.744,65.276,149.019z"/>
	<path style="fill-rule:evenodd;clip-rule:evenodd;fill:#DCC1B4;" d="M98.426,178.059c-0.909,7.043-2.563,13.727-8.747,18.242
		c-1.061-2.663,2.784-4.647,1.024-7.406c-0.586-1.941-0.404-3.861,0.158-5.771c5.04,1.07,5.24-3.699,7.384-6.122
		C98.651,177.296,98.71,177.648,98.426,178.059z"/>
	<path style="fill-rule:evenodd;clip-rule:evenodd;fill:#DCC2B4;" d="M203.582,66.872c1.836-4.199-0.279-6.671-3.74-8.554
		c1.124-1.121,1.585-2.711,2.709-3.831c6.806,2.899,6.092,9.196,6.726,14.885C207.282,68.76,205.616,67.395,203.582,66.872z"/>
	<path style="fill-rule:evenodd;clip-rule:evenodd;fill:#C6A896;" d="M29.167,253.26c-0.494-4.246,2.759-8.475,6.476-8.404
		c1.062,0.021,1.992,0.41,2.487,1.376c0.966,1.885-1.352,2.131-1.751,3.351C33.975,250.808,31.571,252.035,29.167,253.26z"/>
	<path style="fill-rule:evenodd;clip-rule:evenodd;fill:#D6BFAF;" d="M106.592,141.81c4.446,5.296,5.954,11.372,4.819,18.149
		c-0.839,0.791-1.677,1.583-2.515,2.375C110.042,155.277,107.865,148.594,106.592,141.81z"/>
	<path style="fill-rule:evenodd;clip-rule:evenodd;fill:#DBC1B2;" d="M205.926,81.307c0.041-2.844,1.443-5.696-0.043-8.532
		c0.981-1.315,2.14-2.097,3.831-1.266c2.082,3.135,0.692,6.588,0.912,9.892C209.033,82.658,207.47,82.489,205.926,81.307z"/>
	<path style="fill-rule:evenodd;clip-rule:evenodd;fill:#E42677;" d="M205.926,81.307c1.567,0.032,3.133,0.064,4.7,0.094
		c0.056,0.35,0.137,0.694,0.242,1.03c-0.084,0.59-0.236,1.179-0.237,1.769c-0.007,2.146,0.604,5.029-2.644,4.88
		c-2.775-0.126-1.99-2.911-2.105-4.784C205.82,83.304,205.907,82.304,205.926,81.307z"/>
	<path style="fill-rule:evenodd;clip-rule:evenodd;fill:#D93278;" d="M187.532,125.872c-1.462-0.034-2.925-0.07-4.387-0.104
		c-1.404-0.764-1.022-1.809-0.457-2.885c2.087-1.313,3.989-3.104,6.769-2.591C190.631,122.781,190.026,124.652,187.532,125.872z"/>
	<path style="fill-rule:evenodd;clip-rule:evenodd;fill:#E84D8F;" d="M78.279,199.696c0.826-1.747,0.438-4.392,3.292-4.238
		c1.379,0.073,2.942,0.816,2.634,2.519c-0.347,1.904-1.137,3.973-3.496,4.156C79.26,202.244,78.084,201.42,78.279,199.696z"/>
	<path style="fill-rule:evenodd;clip-rule:evenodd;fill:#E42C7A;" d="M210.953,223.192c-1.689-0.82-2.775-2.073-2.883-4.026
		c0.078-1.022,0.159-2.044,0.239-3.064c1.633-0.104,3.673-1.423,4.587,0.974C213.813,219.477,213.363,221.714,210.953,223.192z"/>
	<path style="fill-rule:evenodd;clip-rule:evenodd;fill:#CEB4A3;" d="M87.365,135.794c-5.11,0.467,0.143-2.824-1.333-3.674
		c1.731-2.428-0.497-4.744-0.218-7.133c0.026-0.964,0.185-1.909,0.437-2.839c1.096-1.593,0.176-4.948,3.779-4.367
		c0.377,2.292,0.237,4.591,0.094,6.889c-1.492,2.358-0.644,5.201-1.586,7.674C88.557,133.632,88.489,134.892,87.365,135.794z"/>
	<path style="fill-rule:evenodd;clip-rule:evenodd;fill:#E03C7E;" d="M98.426,178.059c0.013-0.365-0.046-0.717-0.18-1.058
		c1.172-0.97,2.342-1.939,3.515-2.911c1.391,0.428,3.452,0.126,3.363,2.372c-0.071,1.813-1.983,2.242-3.152,3.16
		C99.978,181.184,99.377,179.122,98.426,178.059z"/>
	<path style="fill-rule:evenodd;clip-rule:evenodd;fill:#DD2673;" d="M200.896,112.628c-1.913,0.914-2.055,3.844-4.595,4.044
		c-0.459-0.103-0.922-0.206-1.384-0.31c-2.244-4.803,1.521-5.571,4.576-6.809C199.961,110.581,200.429,111.603,200.896,112.628z"/>
	<path style="fill-rule:evenodd;clip-rule:evenodd;fill:#D0B7A7;" d="M89.713,117.61c-2.038,0.986-0.518,3.797-2.478,4.824
		c-3.214-4.981-1.019-9.153,1.976-13.206c4.39-0.043,3.193,3.221,3.358,5.681c-1.176,0.502-1.641,1.461-1.719,2.67
		C90.487,118.153,90.109,118.191,89.713,117.61z"/>
	<path style="fill-rule:evenodd;clip-rule:evenodd;fill:#E1367A;" d="M206.928,231.481c1.591-2.026,3.239-1.074,4.889-0.094
		c0.11,0.775,0.223,1.556,0.335,2.334c-0.663,1.337-0.723,3.587-2.848,3.162C206.316,236.285,207.285,233.492,206.928,231.481z"/>
	<path style="fill-rule:evenodd;clip-rule:evenodd;fill:#E84A8E;" d="M80.892,227.035c-0.091,1.721-0.082,3.347-2.093,3.145
		c-2.031-0.204-3.146-1.608-3.213-3.623c-0.051-1.51,0.612-2.897,2.294-2.889C80.149,223.677,80.644,225.484,80.892,227.035z"/>
	<path style="fill-rule:evenodd;clip-rule:evenodd;fill:#EA5594;" d="M77.475,215.8c-2.313-0.224-2.283-1.884-2.254-3.511
		c0.028-1.54,0.514-2.854,2.346-2.737c2.225,0.143,2.164,1.951,2.232,3.533C79.87,214.709,79.186,215.746,77.475,215.8z"/>
	<path style="fill-rule:evenodd;clip-rule:evenodd;fill:#E34784;" d="M202.188,195.069c-2.534,1.4-3.966,0.06-5.165-2.018
		c-1.236-2.142-0.055-3.233,1.674-4.138C201.257,190.174,202.651,192.094,202.188,195.069z"/>
	<path style="fill-rule:evenodd;clip-rule:evenodd;fill:#E33F7F;" d="M209.714,71.509c-1.276,0.422-2.553,0.844-3.831,1.266
		c-1.531-1.669-1.688-3.874-2.301-5.902c3.041-1.774,4.332,0.447,5.694,2.499C209.423,70.084,209.568,70.798,209.714,71.509z"/>
	<path style="fill-rule:evenodd;clip-rule:evenodd;fill:#E34D87;" d="M84.721,240.114c0.193,1.506,1.214,2.995,0.091,4.527
		c-0.807,0.015-1.614,0.03-2.421,0.047c-1.741-1.313-4.081-2.767-2.58-5.165C81.247,237.229,83.228,238.521,84.721,240.114z"/>
	<path style="fill-rule:evenodd;clip-rule:evenodd;fill:#D42770;" d="M92.57,114.908c-0.097-2.348-1.196-4.187-2.907-5.715
		c-1.091-1.195-1.083-2.47-0.28-3.804c0.621-0.46,1.255-0.477,1.902-0.053c6.417,2.169,1.594,6.136,1.493,9.348
		C92.774,114.683,92.57,114.908,92.57,114.908z"/>
	<path style="fill-rule:evenodd;clip-rule:evenodd;fill:#E74589;" d="M193.987,44.888c-2.77,3.675-3.481,3.408-6.245-2.34
		C190.77,40.801,192.896,41.461,193.987,44.888z"/>
	<path style="fill-rule:evenodd;clip-rule:evenodd;fill:#E53E83;" d="M162.492,33.894c-2.026-2.149-3.281-4.135,1.055-4.921
		c2.466,0.886,5.574,1.477,2.313,5.01C164.737,33.953,163.614,33.924,162.492,33.894z"/>
	<path style="fill-rule:evenodd;clip-rule:evenodd;fill:#E22E79;" d="M204.658,205.972c0.005-1.198,0.008-2.397,0.01-3.594
		c4.671-0.229,6.524,1.581,4.493,6.203C206.381,209.918,205.352,208.238,204.658,205.972z"/>
	<path style="fill-rule:evenodd;clip-rule:evenodd;fill:#DD2976;" d="M102.601,122.69c-0.692,0.002-1.384,0.004-2.075,0.008
		c-2.046-1.167-3.837-2.561-4.43-5.011C99.709,117.477,104.501,115.731,102.601,122.69z"/>
	<path style="fill-rule:evenodd;clip-rule:evenodd;fill:#DF4182;" d="M117.513,32.639c2.043,0.446,5.299,0.142,2.293,3.708
		c-1.411,0.452-2.821,0.904-4.23,1.356c-0.577-0.926-1.155-1.85-1.732-2.774C114.614,33.441,116.049,33.016,117.513,32.639z"/>
	<path style="fill-rule:evenodd;clip-rule:evenodd;fill:#E22073;" d="M145.279,284.596c-0.399,0.043-0.798,0.098-1.197,0.124
		c-2.177,0.149-5.287,0.736-5.354-2.109c-0.067-2.884,3.131-1.204,4.852-1.645c0.562-0.145,1.197-0.004,1.798,0.005
		C145.345,282.18,145.312,283.387,145.279,284.596z"/>
	<path style="fill-rule:evenodd;clip-rule:evenodd;fill:#E5317E;" d="M181.509,37.51c-3.496,2.611-5.495,0.495-7.275-2.308
		C177.515,33.272,180.225,33.147,181.509,37.51z"/>
	<path style="fill-rule:evenodd;clip-rule:evenodd;fill:#E6578F;" d="M90.862,183.124c1.955,1.979,1.169,3.884-0.157,5.772
		c-1.559,0.331-3.651,0.901-3.845-1.26C86.643,185.225,88.785,183.991,90.862,183.124z"/>
	<path style="fill-rule:evenodd;clip-rule:evenodd;fill:#E4337C;" d="M202.551,54.487c0.522,2.285,0.526,4.204-2.71,3.83
		c-1.415-2.383-3.016-4.802,1.191-6.085C201.539,52.984,202.045,53.735,202.551,54.487z"/>
	<path style="fill-rule:evenodd;clip-rule:evenodd;fill:#B79B8B;" d="M204.658,205.972c1.254,1.303,2.463,2.679,4.507,2.606
		c-0.736,1.189-1.469,2.376-2.202,3.564c-2.156-1.496-2.597-3.906-3.295-6.179C203.999,205.967,204.328,205.969,204.658,205.972z"/>
	<path style="fill-rule:evenodd;clip-rule:evenodd;fill:#D5BCAB;" d="M157.532,26.637c-0.022,2.577-0.441,4.854-3.741,4.956
		c-2.393-3.358,1.789-3.984,2.513-6.046c0.381,0.007,0.761,0.014,1.142,0.02C157.528,25.919,157.559,26.277,157.532,26.637z"/>
	<path style="fill-rule:evenodd;clip-rule:evenodd;fill:#E0CCBE;" d="M224.157,150.243c-0.444,0.014-0.887,0.03-1.331,0.044
		c-1.112-0.844-3.662-1.045-2.859-2.793c0.825-1.797,2.621-0.164,3.945,0.375C223.992,148.66,224.074,149.452,224.157,150.243z"/>
	<path style="fill-rule:evenodd;clip-rule:evenodd;fill:#E9D8CC;" d="M89.713,117.61c0.379-0.008,0.759-0.018,1.138-0.031
		c-0.37,3.259,1,6.715-1.11,9.776c-0.799-0.751-0.741-1.578-0.217-2.447C89.587,122.475,89.65,120.042,89.713,117.61z"/>
	<path style="fill-rule:evenodd;clip-rule:evenodd;fill:#D2B8A7;" d="M73.815,89.775c0.833-0.019,1.667-0.038,2.501-0.058
		c0.07,1.827,0.003,3.561-2.472,3.678C73.834,92.189,73.825,90.982,73.815,89.775z"/>
	<path style="fill-rule:evenodd;clip-rule:evenodd;fill:#D0B7A7;" d="M89.524,124.907c0.072,0.816,0.145,1.63,0.217,2.447
		c-0.216,1.706,0.194,3.564-1.204,4.986C88.753,129.849,87.544,127.167,89.524,124.907z"/>
	<path style="fill-rule:evenodd;clip-rule:evenodd;fill:#E9D9CD;" d="M124.803,8.614c1.548,1.269,2.247,2.944,2.35,4.906
		C125.082,12.501,124.631,10.707,124.803,8.614z"/>
	<path style="fill-rule:evenodd;clip-rule:evenodd;fill:#E9D9CD;" d="M168.322,126.121c2.336,1.896,3.913,4.18,3.757,7.349
		c0.294,0.41,0.222,0.758-0.167,1.058c-1.524,3.522-2.115,7.611-5.924,9.743c0.848,1.183,0.055,2.833,1.152,3.937
		c1.409,1.349,5.194,0.787,3.651,4.497c-2.434,2.809,3.496,5.837-0.227,8.612c-1.098,0.177-1.6-0.658-2.214-1.273
		c-0.88-0.625-1.285-0.514-0.995,0.678c0.735,1.271,2.052,1.238,3.21,1.534c-2.514,10.295,4.611,21.212-2,31.24
		c-5.05,7.66-15.643,10.608-23.859,6.672c-2.245-1.075-4.546-2.557-5.083-4.894c-2.843-12.406-10.519-22.995-13.12-35.473
		c-0.625-2.998-1.052-5.866,1.199-8.652c0.434,1.007,0.797,1.854,1.473,3.424c0.599-3.867,0.778-6.541-0.206-10.155
		c-1.245-4.575,0.704-10.236,3.673-14.666c2.811-4.192,5.264-8.507,6.638-13.385c0.065-0.271,0.132-0.541,0.193-0.813
		c1.692-3.002,4.085-2.219,6.435-0.786c1.152-4.333-5.425-2.105-4.396-5.995c2.658-3.289,5.626-1.684,8.563-0.541
		C155.494,114.873,160.657,121.773,168.322,126.121z"/>
	<path style="fill-rule:evenodd;clip-rule:evenodd;fill:#D9C2B2;" d="M98.122,50.966c1.46-3.113,0.387-7.194,3.671-9.611
		c1.359,1.08,3.561,1.067,4.123,3.179c-1.283,13.351-2.956,26.557-12.506,37.149c-0.739,0.82-0.866,2.193-1.277,3.31
		c-3.087-4.073-2.867-8.971-3.43-13.677C89.843,63.609,94.825,57.677,98.122,50.966z"/>
	<path style="fill-rule:evenodd;clip-rule:evenodd;fill:#D9C2B1;" d="M182.994,44.935c8.758,4.53,14.029,10.945,12.086,21.555
		c-0.466,2.546-0.174,5.229-0.229,7.849c-5.729-3.207-9.667-7.368-9.73-14.606C185.075,54.783,182.818,50.008,182.994,44.935z"/>
	<path style="fill-rule:evenodd;clip-rule:evenodd;fill:#E8D6CB;" d="M89.665,71.575c1.429,4.361,2.13,8.854,2.467,13.417
		c-0.418,1.218-0.837,2.435-1.255,3.652c-0.949,0.929-0.627,2.75-2.242,3.215c-1.799,0.522-3.569,1.121-5.193,2.096
		c-0.853,0.2-1.636,0.131-2.253-0.581c0.185-0.76,0.742-1.681,0.495-2.255c-2.417-5.598,1.744-7.044,5.424-8.823
		c-1.625-1.825-1.441-3.964-1.064-6.135c-1.069-1.342-4.333-0.779-3.302-3.976c0.95-2.946,3.155-3.24,5.703-3.023
		C89.274,69.753,88.868,70.969,89.665,71.575z"/>
	<path style="fill-rule:evenodd;clip-rule:evenodd;fill:#C2A492;" d="M168.322,126.121c-9.759-2.212-13.963-10.091-18.245-17.892
		c3.97,3.321,7.98,6.592,11.897,9.972c6.093,5.258,13.007,6.676,20.714,4.68c0.152,0.965,0.304,1.927,0.456,2.889
		C178.286,129.306,173.258,125.775,168.322,126.121z"/>
	<path style="fill-rule:evenodd;clip-rule:evenodd;fill:#C0A190;" d="M139.281,116.365c-5.738,8.613-14.997,11.417-24.042,14.573
		c-2.288-0.916-2.789-2.441-1.555-4.559c9.86-0.766,17.097-6.056,23.137-13.414c1.121-1.366,1.873-3.104,3.735-3.726
		c2.008,2.811-0.106,4.887-1.27,7.133L139.281,116.365z"/>
	<path style="fill-rule:evenodd;clip-rule:evenodd;fill:#D9C2B1;" d="M141.761,82.43c4.953,5.933,5.357,5.875,9.108-1
		c0.665-1.219,1.401-2.458,2.354-3.448c1.516-1.574,3.694-3.638,5.572-2.127c1.964,1.577-1.228,2.69-1.736,4.172
		c-0.39,1.135-2.909,2.444,0.028,3.588c-0.256,0.434-0.511,0.867-0.768,1.301c-3.59,5.093-7.643,9.259-14.728,7.365l0.003,0.039
		c-1.228-2.981-2.139-5.983-0.587-9.144C141.256,82.926,141.509,82.677,141.761,82.43z"/>
	<path style="fill-rule:evenodd;clip-rule:evenodd;fill:#DAC3B3;" d="M132.034,83.692c2.21-3.018-1.639-4.872-1.469-7.54
		c0.056-0.884-1.018-1.83-0.122-2.731c0.838-0.846,1.882-0.506,2.739-0.014c3.744,2.154,7.994,3.857,8.577,9.023
		c0.001,0-0.055,0.069-0.055,0.069c-1.47,2.321-2.337,5.66-6.317,3.741C134.269,85.391,133.152,84.542,132.034,83.692z"/>
	<path style="fill-rule:evenodd;clip-rule:evenodd;fill:#DCC5B5;" d="M139.287,116.371c0.424-2.378,0.847-4.755,1.27-7.133
		c0.239-0.321,0.559-0.475,0.957-0.467c0.425,0.405,0.784,1.043,1.281,1.177c6.796,1.835,6.801,1.817,2.618,8.746
		C144.115,115.644,142.572,112.805,139.287,116.371z"/>
	<path style="fill-rule:evenodd;clip-rule:evenodd;fill:#DF4683;" d="M83.839,93.309c0.297-3.12,2.576-2.202,4.42-2.167
		c1.469,0.727,1.331,2.299,1.85,3.524c0.391,3.558,0.782,7.115,1.175,10.671c-0.466,0.062-0.934,0.124-1.401,0.187
		C88.617,101.082,84.039,98.279,83.839,93.309z"/>
	<path style="fill-rule:evenodd;clip-rule:evenodd;fill:#DE3176;" d="M113.685,126.379c-0.108,1.733,0.679,3.161,1.554,4.559
		c-0.47,0.748-0.939,1.496-1.411,2.243c-4.726-0.915-5.834-3.519-3.593-7.686C111.385,125.791,112.535,126.085,113.685,126.379z"/>
	<path style="fill-rule:evenodd;clip-rule:evenodd;fill:#CDB5A4;" d="M141.592,92.281c6.572,0.872,10.079-4.388,14.728-7.365
		C153.477,92.527,149.463,94.533,141.592,92.281z"/>
	<path style="fill-rule:evenodd;clip-rule:evenodd;fill:#CDB5A4;" d="M135.388,86.24c3.458,1.037,3.509-3.68,6.317-3.741
		c-0.037,3.273-0.072,6.546-0.109,9.819C138.86,90.973,138.786,86.909,135.388,86.24z"/>
	<path style="fill-rule:evenodd;clip-rule:evenodd;fill:#DF2F78;" d="M105.916,44.533c-1.487-0.914-4.42,0.049-4.123-3.179
		c1.81-1.052,3.62-2.106,5.428-3.151C108.943,40.762,107.595,42.681,105.916,44.533z"/>
	<path style="fill-rule:evenodd;clip-rule:evenodd;fill:#E42475;" d="M202.285,100.989c1.425-0.869,1.514-4.076,4.272-2.551
		c1.007,0.556,0.878,1.711,0.426,2.594c-1.232,2.409-3.102,2.686-5.33,1.367C201.868,101.924,202.077,101.456,202.285,100.989z"/>
	<path style="fill-rule:evenodd;clip-rule:evenodd;fill:#E8A4B3;" d="M90.109,94.666c-1.792-0.559-1.661-2.126-1.849-3.525
		c0.872-0.833,1.745-1.666,2.617-2.498C90.621,90.652,90.364,92.659,90.109,94.666z"/>
	<path style="fill-rule:evenodd;clip-rule:evenodd;fill:#C4A693;" d="M213.841,278.361c-6.89-10.065-7.742-23.312-2.067-32.04
		C214.925,256.959,217.228,267.07,213.841,278.361z"/>
	<path style="fill-rule:evenodd;clip-rule:evenodd;fill:#E22D78;" d="M188.484,269.459c-0.474,1.926-1.616,3.059-3.62,3.481
		c-1.715,0.361-2.307-0.723-2.354-1.885c-0.086-2.202,1.598-3.015,3.453-3.288C187.175,267.589,188.418,267.757,188.484,269.459z"/>
	<path style="fill-rule:evenodd;clip-rule:evenodd;fill:#E3337A;" d="M202.575,248.867c0.999-1.193,0.312-3.753,2.628-4.012
		c1.41-0.158,2.934,0.62,2.597,2.375c-0.328,1.715-1.213,3.38-3.366,3.483C203.327,250.767,202.579,250.207,202.575,248.867z"/>
	<path style="fill-rule:evenodd;clip-rule:evenodd;fill:#E32E79;" d="M199.771,260.368c-0.163,1.397-1.514,2.605-3.836,2.61
		c-1.033,0.003-2.196-0.46-1.739-1.738c0.689-1.93,2.195-3.42,4.146-3.937C199.345,257.039,199.879,258.298,199.771,260.368z"/>
	<path style="fill-rule:evenodd;clip-rule:evenodd;fill:#CFB6A5;" d="M202.026,222.819c1.362,0.345,3.36,0.325,1.451,2.541
		c-0.88,0.76-1.438,1.842-2.466,2.453c-0.877-0.464-1.752-0.926-2.628-1.39C199.18,224.8,200.392,223.596,202.026,222.819z"/>
	<path style="fill-rule:evenodd;clip-rule:evenodd;fill:#C6A996;" d="M201.012,227.813c0.083-1.562,0.862-2.422,2.466-2.453
		c-0.005,0.816-0.01,1.634-0.017,2.452C202.645,227.886,201.828,229.147,201.012,227.813z"/>
	<path style="fill-rule:evenodd;clip-rule:evenodd;fill:#C9B2A2;" d="M173.609,223.164c-1.351-0.138-2.699-0.274-4.138-0.421
		c0.724-2.657,3.9-1.535,4.978-3.456c1.6,1.219,3.216,0.034,4.825,0.036c0.414,0.274,0.554,0.551,0.418,0.829
		s-0.273,0.418-0.412,0.418C177.39,221.435,175.501,222.3,173.609,223.164z"/>
	<path style="fill-rule:evenodd;clip-rule:evenodd;fill:#C0A493;" d="M179.28,220.57c-0.003-0.416-0.004-0.831-0.006-1.249
		c2.023-2.136,4.065-4.228,7.441-3.438C184.892,218.482,182.332,219.915,179.28,220.57z"/>
	<path style="fill-rule:evenodd;clip-rule:evenodd;fill:#968276;" d="M88.168,220.544c-2.004-3.007-0.539-6.281-0.719-9.425
		c0.344-0.178,0.709-0.256,1.096-0.234C88.419,214.104,88.294,217.323,88.168,220.544z"/>
	<path style="fill-rule:evenodd;clip-rule:evenodd;fill:#DE3478;" d="M89.793,257.928c-0.42-0.679-0.938-1.319-1.24-2.049
		c-0.578-1.393-2.283-2.854-0.841-4.336c2.042-2.094,2.916,0.98,4.436,1.388c0.358,0.871,0.716,1.743,1.074,2.615
		C92.255,256.595,92.026,258.704,89.793,257.928z"/>
	<path style="fill-rule:evenodd;clip-rule:evenodd;fill:#C6A594;" d="M89.793,257.928c1.143-0.793,2.286-1.587,3.429-2.382
		c-3.33,4.127-4.072,8.89-3.699,14.029c0.102,1.4-0.254,1.427-2.355,0.638C90.462,266.636,86.391,261.484,89.793,257.928z"/>
	<path style="fill-rule:evenodd;clip-rule:evenodd;fill:#DF3277;" d="M123.645,278.714c2.19-1.908,4.057-0.965,5.625,0.826
		c0.325,0.372,0.135,1.852-0.258,2.087c-2.399,1.446-4.12,0.326-5.433-1.8C123.643,279.458,123.664,279.088,123.645,278.714z"/>
	<path style="fill-rule:evenodd;clip-rule:evenodd;fill:#E3337A;" d="M113.421,276.159c-1.61-0.169-3.162-1.024-3.595-2.962
		c-0.238-1.063,0.689-1.858,1.826-1.757c1.87,0.166,3.506,1.007,3.943,2.939C115.828,275.411,114.897,276.114,113.421,276.159z"/>
	<path style="fill-rule:evenodd;clip-rule:evenodd;fill:#E2377C;" d="M99.651,262.946c1.827,0.285,3.097,1.242,3.274,3.062
		c0.112,1.157-0.792,1.918-1.955,1.647c-1.812-0.421-3.533-1.308-3.6-3.416C97.33,262.969,98.696,263.011,99.651,262.946z"/>
	<path style="fill-rule:evenodd;clip-rule:evenodd;fill:#C3A592;" d="M150.136,207.998c0.018,2.369-1.347,2.867-3.163,2.795
		c-1.662-0.067-3.513-0.295-3.532-2.347c-0.021-2.235,2.135-2.805,3.806-3.155C149.297,204.859,149.942,206.453,150.136,207.998z"/>
	<path style="fill-rule:evenodd;clip-rule:evenodd;fill:#E24280;" d="M175.904,168.948c1.897,0.832,3.464,2.063,4.042,4.044
		c0.399,1.375-0.61,2.35-1.942,2.263c-2.196-0.141-3.677-1.35-3.757-3.717C174.207,170.374,174.286,169.133,175.904,168.948z"/>
	<path style="fill-rule:evenodd;clip-rule:evenodd;fill:#E14682;" d="M121.418,144.413c-2.239-0.221-3.569-1.227-3.7-3.337
		c-0.081-1.305,0.586-2.467,1.965-2.481c2.246-0.023,2.797,1.913,3.377,3.579C123.622,143.79,122.509,144.205,121.418,144.413z"/>
	<path style="fill-rule:evenodd;clip-rule:evenodd;fill:#E2377C;" d="M171.912,134.527c0.124-0.342,0.18-0.694,0.167-1.058
		c1.71-0.575,2.525-4.397,5.13-1.576c1.386,1.503,0.24,3.15-0.841,4.148C174.234,138.014,172.9,136.523,171.912,134.527z"/>
	<path style="fill-rule:evenodd;clip-rule:evenodd;fill:#E24782;" d="M191.173,182.42c0.015,1.348-0.437,2.425-1.945,2.271
		c-1.7-0.171-2.855-1.292-3.273-2.92c-0.398-1.545,0.729-2.07,1.984-2.159C189.895,179.475,190.525,180.988,191.173,182.42z"/>
	<path style="fill-rule:evenodd;clip-rule:evenodd;fill:#E53B80;" d="M164.789,148.849c0.399-1.527,0.8-3.053,1.199-4.58
		c1.482-0.232,2.975-0.498,3.872,1.183C171.067,150.91,168.035,150.039,164.789,148.849z"/>
	<path style="fill-rule:evenodd;clip-rule:evenodd;fill:#E5C6BF;" d="M164.789,148.849c3.142,1.036,4.966,0.104,5.07-3.396
		c3.724,1.979,2.344,4.612,0.933,7.25C170.586,148.623,165.75,151.754,164.789,148.849z"/>
	<path style="fill-rule:evenodd;clip-rule:evenodd;fill:#E4367E;" d="M169.569,158.647c0.332,0.889,0.664,1.777,0.996,2.667
		c0.03,0.314,0.031,0.627,0.001,0.941c-3.96,4.07-3.844-0.396-4.924-2.354C166.271,157.357,167.98,158.193,169.569,158.647z"/>
	<path style="fill-rule:evenodd;clip-rule:evenodd;fill:#E2407F;" d="M123.571,158.915c-1.802-0.027-3.666,0.034-3.734-2.542
		c0.257-0.884,0.273-1.909,1.343-2.323c1.058,0.516,0.099,3.192,2.468,2.302C123.622,157.206,123.596,158.061,123.571,158.915z"/>
	<path style="fill-rule:evenodd;clip-rule:evenodd;fill:#E31C72;" d="M123.648,156.352c-2.762,1.31-2.473-0.649-2.468-2.302
		C123.297,153.43,123.723,154.622,123.648,156.352z"/>
	<path style="fill-rule:evenodd;clip-rule:evenodd;fill:#DC3C79;" d="M116.823,168.121c-0.927,1.667-2.268,2.844-4.267,2.568
		c-1.39-0.191-1.953-1.255-1.424-2.65c0.784-2.068,2.458-2.426,4.374-2.077C116.629,166.167,117.204,166.875,116.823,168.121z"/>
	<path style="fill-rule:evenodd;clip-rule:evenodd;fill:#E9D8CC;" d="M83.839,93.309c1.464,1.223,1.426,3.316,4.207,4.082
		c3.741,1.029,1.073,5.36,1.836,8.133c-0.729,1.184-0.496,2.424-0.22,3.669c-0.865,4.404-3.469,8.488-2.426,13.24
		c-0.011,0.786-0.023,1.572-0.035,2.358c-1.107,0.997-0.047,2.694-1.19,3.68c-2.436,3.126-2.19,7.756-5.885,10.229
		c-1.49,0.997-2.882,2.912-4.643,2.187c-2.192-0.902-2.556-3.388-2.777-5.639c-0.844-8.582,0.896-16.792,3.789-24.773
		c2.026-5.589,3.945-11.175,4.693-17.099C82.072,93.353,82.956,93.331,83.839,93.309z"/>
	<path style="fill-rule:evenodd;clip-rule:evenodd;fill:#E8D3C9;" d="M89.665,71.575c-0.981-0.513-1.195-1.415-1.221-2.412
		c-0.019-0.431-0.036-0.862-0.054-1.294c-1.656-1.758-1.459-3.876-1.167-6.013c-1.603-5.447-0.781-8.188,2.555-8.524
		c0.249,0.083,0.498,0.166,0.748,0.242c1.008,0.477,1.974,0.492,2.856-0.287c1.03-1.221,1.885-2.604,3.314-3.422
		c0.476,0.367,0.95,0.735,1.425,1.101c0.423,6.825-5.556,10.912-7.311,16.853C90.453,69.032,89.667,70.189,89.665,71.575z"/>
	<path style="fill-rule:evenodd;clip-rule:evenodd;fill:#E42E7A;" d="M86.043,76.162c1.987,1.762,1.435,3.964,1.065,6.135
		c-2.162,0.605-3.916,0.279-4.281-2.29C82.494,77.662,83.748,76.422,86.043,76.162z"/>
	<path style="fill-rule:evenodd;clip-rule:evenodd;fill:#E54484;" d="M96.696,49.865c-0.759,1.528-1.518,3.056-2.276,4.584
		c-1.995,1.431-3.517,0.871-4.699-1.118c0,0,0.056,0.001,0.057,0.001c0.353-0.784,0.706-1.569,1.058-2.353
		C92.592,49.575,94.423,48.559,96.696,49.865z"/>
	<path style="fill-rule:evenodd;clip-rule:evenodd;fill:#E4377D;" d="M87.223,61.856c2.04,1.684,1.467,3.875,1.168,6.013
		c-1.549,0.074-3.515,0.515-3.98-1.454C83.906,64.283,85.199,62.714,87.223,61.856z"/>
	<path style="fill-rule:evenodd;clip-rule:evenodd;fill:#D0B7A7;" d="M86.011,128.471c0.044-1.339-0.134-2.752,1.19-3.68
		c-0.334,2.451,1.004,5.17-1.169,7.328C86.024,130.904,86.018,129.687,86.011,128.471z"/>
	<path style="fill-rule:evenodd;clip-rule:evenodd;fill:#DD3A79;" d="M160.876,281.268c-0.745,2.525-2.99,2.417-4.857,2.71
		c-1.509,0.238-2.163-0.983-2.005-2.271c0.344-2.822,2.931-2.196,4.658-2.571C159.895,278.872,160.866,279.832,160.876,281.268z"/>
	<path style="fill-rule:evenodd;clip-rule:evenodd;fill:#E12674;" d="M175.347,276.372c-0.759,1.894-1.794,3.334-3.883,3.435
		c-1.339,0.063-2.594-0.688-2.621-1.96c-0.054-2.396,1.896-2.753,3.779-2.835C173.762,274.96,175.074,274.79,175.347,276.372z"/>
	<path style="fill-rule:evenodd;clip-rule:evenodd;fill:#C69D91;" d="M152.618,31.615c-5.54,3.198-11.101,6.059-17.131,1.02
		c-1.174-1.439-1.15-2.95-0.273-4.513c0.509-0.564,1.063-0.609,1.658-0.134c2.465,0.795,4.931,1.59,7.396,2.386
		c0.388-0.874,4.104-0.347,1.11-2.644c1.771-1.645,3.982-0.698,5.979-1.016C154.752,27.582,153.087,29.753,152.618,31.615z"/>
	<path style="fill-rule:evenodd;clip-rule:evenodd;fill:#DE447E;" d="M135.629,28.01c-0.047,1.542-0.094,3.085-0.141,4.626
		c-2.418,0.284-5.037,0.49-6.073-2.226c-0.618-1.62,1.63-1.824,2.538-2.712C133.252,26.933,134.487,26.926,135.629,28.01z"/>
	<path style="fill-rule:evenodd;clip-rule:evenodd;fill:#E31E72;" d="M145.378,27.73c0.592,0.074,1.2,0.082,1.771,0.232
		c1.365,0.361,3.93-0.702,3.729,1.601c-0.201,2.305-2.496,1.979-4.317,1.432c-0.759-0.227-1.53-0.415-2.296-0.621
		C144.638,29.492,145.008,28.611,145.378,27.73z"/>
	<path style="fill-rule:evenodd;clip-rule:evenodd;fill:#C7A595;" d="M152.618,31.615c-0.152-1.701,0.551-3.625-1.26-4.9
		c1.484-1.079,2.721-3.216,4.945-1.168c1.041,2.795-3.574,3.241-2.513,6.046C153.4,31.609,153.01,31.615,152.618,31.615z"/>
	<path style="fill-rule:evenodd;clip-rule:evenodd;fill:#CBAE9C;" d="M135.629,28.01c-1.225-0.103-2.449-0.206-3.675-0.311
		c0.358-1.355-1.727-3.42-0.269-3.763c2.705-0.634,3.792,2.207,5.187,4.052C136.457,27.996,136.043,28.003,135.629,28.01z"/>
	<path style="fill-rule:evenodd;clip-rule:evenodd;fill:#DAC3B2;" d="M169.569,158.647c-1.489-0.144-2.982-0.304-3.927,1.254
		C165.669,157.087,166.261,156.898,169.569,158.647z"/>
	<path style="fill-rule:evenodd;clip-rule:evenodd;fill:#DAC3B2;" d="M89.721,53.331c1.405,1.054,2.877,1.823,4.699,1.118
		C92.269,56.534,90.529,56.895,89.721,53.331z"/>
</g>
</svg>
