<?xml version="1.0" encoding="utf-8"?>
<!-- Generator: Adobe Illustrator 16.0.0, SVG Export Plug-In . SVG Version: 6.00 Build 0)  -->
<!DOCTYPE svg PUBLIC "-//W3C//DTD SVG 1.1//EN" "http://www.w3.org/Graphics/SVG/1.1/DTD/svg11.dtd">
<svg version="1.1" id="Capa_1" xmlns="http://www.w3.org/2000/svg" xmlns:xlink="http://www.w3.org/1999/xlink" x="0px" y="0px"
	 width="779.528px" height="929.764px" viewBox="0 0 779.528 929.764" style="enable-background:new 0 0 779.528 929.764;"
	 xml:space="preserve">
<g>
	<path style="fill-rule:evenodd;clip-rule:evenodd;fill:#3C3C3C;" d="M292.773,348.799c-14.482-5.152-20.772-18.71-30.014-29.242
		c-7.616-4.268-11.875-10.876-13.509-19.339c2.611-23.47-2.007-47.979,9.884-70.113c0.851-1.45,2.029-2.622,3.495-3.452
		c3.038-1.486,4.708,3.174,7.761,1.788c-1.372-2.186-3.096-4.198-3.435-6.93c17.838-28.147,21.802-60.867,30.365-92.06
		c1.533-3.947,11.233-4.469,4.873-11.744c-0.068-6.752-3.595-13.766,1.53-20.109c6.7-1.178,13.4-2.353,20.099-3.532
		c7.889,3.445,5.423,10.207,5.289,16.29c-0.49,22.245-5.328,44.179-4.248,66.588c0.48,9.952,3.485,17.327,11.876,23.112
		c14.093,9.718,27.402,20.542,41.228,30.631c4.066,2.849,8.056,5.825,12.161,8.626c7.87,7.887,14.743,17.659,28.233,14.941
		c5.373,0.177,10.043-1.349,13.602-5.614c6.224-6.424,8.969-15.249,15.068-21.756c12.343-11.737,22.536-25.904,38.458-33.55
		c6.471-3.106,8.476-8.935,8.433-15.603c-0.114-17.08,1.306-34.203-1.263-51.226c-0.927-6.167-3.401-13.668,2.26-17.679
		c6.686-4.74,14-1.369,20.083,3.488c3.605,4.76-4.266,13.856,6.086,16.116c4.532,6.93,6.595,14.954,6.769,22.788
		c0.549,24.806,12.015,43.268,31.137,57.844c5.678,14.208,14.914,27.297,13.956,43.603c-12.584,8.054-1.439,11.864,3.087,16.869
		c4.623,9.711-0.837,17.947-3.837,26.55c-0.673,2.37-1.54,4.667-2.638,6.869c-4.7,7.328-12.57,11.687-17.568,18.744
		c-4.238,3.033-4.332,9.574-9.745,11.63c-1.895,1.51-3.789,3.02-5.685,4.529c-4.225,1.306-6.766,5.309-10.866,6.822
		c-27.614,10.15-51.219,0.64-73.199-15.446c-9.146-6.692-17.79-14.097-26.607-21.204c-6.658-4.285-13.732-5.236-21.221-2.494
		c-5.008,1.979-7.699,6.374-10.772,10.371c-10.251,15.65-23.966,27.263-40.832,35.241c-3.708,1.774-7.5,3.324-11.417,4.58
		c-5.612,2.005-11.404,2.949-17.351,3.026c-3.369,0.083-6.737,0.023-10.1-0.265c-2.511-0.211-4.931-0.8-7.234-1.828
		C302.549,353.483,299.388,348.036,292.773,348.799z"/>
	<path style="fill-rule:evenodd;clip-rule:evenodd;fill:#3C3C3C;" d="M258.327,642.475c6.049-20.391,14.674-39.714,24.302-58.621
		c4.513-1.704,7.87,0.844,10.634,3.586c25.295,25.084,56.903,36.706,91.042,43.063c1.798,0.098,3.572,0.265,5.36,0.438
		c27.741,5.099,55.343,4.191,82.817-1.761c13.152-0.596,24.873-6.391,37.068-10.414c18.707-4.761,30.798-18.563,43.339-31.77
		c4.228-1.108,5.911,1.355,6.832,4.881c2.515,20.072,15.604,36.932,17.385,57.229c-11.938,11.509-26.521,19.172-41.44,25.361
		c-24.615,10.217-44.949,25.536-62.019,45.642c-9.006,9.698-14.231,21.8-21.124,32.851c-5.319,8.533-10.167,18.231-22.644,18.023
		c-20.286,3.619-32.746-7.144-42.994-22.797c-7.057-10.773-13.079-22.489-24.056-30.176c-26.309-25.352-55.849-45.481-91.12-56.378
		C265.19,656.692,255.224,654.131,258.327,642.475z"/>
	<path style="fill-rule:evenodd;clip-rule:evenodd;fill:#D9C4B5;" d="M273.418,658.624c36.216,9.27,65.13,30.508,91.536,55.853
		c-9.529,30.38-9.589,62.547-17.687,93.226c-5.711,21.632-4.704,43.887-4.919,66.032c-0.154,15.79-0.387,31.762-8.165,46.294
		c-28.55,0-57.101,0-85.651,0c-2.906-5.557-2.259-11.197-0.385-16.865c-2.696-7.991-1.306-17.026-6.264-24.435
		c0.037-3.444,0.07-6.886,0.104-10.327c2.293-43.255,2.29-86.51,0-129.765c-1.262-18.114,4.066-34.977,9.829-51.755
		c3.241,1.048,3.525,6.022,7.688,5.879C265.078,681.709,255.874,664.716,273.418,658.624z"/>
	<path style="fill-rule:evenodd;clip-rule:evenodd;fill:#D9C4B5;" d="M559.722,591.878c-1.758-1.114-3.515-2.229-5.272-3.344
		c-4.262,0.003-9.875-8.235-11.991,3.528c-2.923,16.235-18.76,20.853-30.139,29.328c-12.242,4.576-23.567,12.387-37.598,10.649
		c-1.507-7.78,4.954-8.952,9.581-11.951c-9.396-0.392-18.409-3.934-27.989-3.947c-1.715,0.051-3.395,0.023-5.099,0.014
		c-23.602-0.87-46.72-3.813-67.944-15.195c-5.32-4.281-7.869-10.963-13.19-15.271c-4.379-5.068-8.165-10.388-6.939-17.649
		c6.786-8.851-2.705-10.518-6.546-14.686c-4.427-7.208-5.487-14.509-0.633-21.951c2.303-6.333-2.785-8.813-6.359-12.095
		c-3.478-4.556-5.375-9.551-4.379-15.355c1.164-5.129,5.396-10.435-0.916-15.128c-3.746-2.354-8.253-3.538-11.025-7.331
		c-1.252-4.001,0.097-7.66,1.439-11.322c3.947-5.865,2.981-10.98-2.41-15.413c-5.1-5.547-9.742-11.205-4.243-19.098
		c1.207-2.105,2.416-4.211,3.376-6.451c-1.446-18.744,1.575-38.167-9.206-55.367c-1.531-2.444-1.148-5.43-0.291-8.212
		c2.606-4.754,6.171-8.192,11.904-8.61c6.35,7.947,13.814,4.329,21.507,2.538c8.979-2.089,16.825-10.146,27.161-5.487
		c1.821,5.681-2.598,9.343-4.416,13.866c-5.656,14.073-11.439,28.137-5.807,43.753c1.61,4.462,0.691,8.831-1.402,12.962
		c-1.624,3.94-10.485,0.793-8.301,8.533c-1.143,26.104,11.059,48.303,20.746,71.178c4.201,9.919,8.684,19.724,12.082,29.947
		c9.487,28.569,32.823,38.291,59.89,24.786c4.532-2.263,8.292-6.042,13.521-6.906c3.328-1.041,5.383,5.387,8.406,2.039
		c1.526-1.69-0.975-5.183-1.179-7.957c0.415-6.484,3.23-11.908,7.318-16.772c10.91-6.431,0.04-11.014-1.453-16.393
		c-5.48-14.864-6.698-29.885-1.396-45.039c6.056-17.308-0.972-34.679-1.031-51.939c-0.047-13.099-2.906-26.295,0.341-39.686
		c1.738-7.167-1.398-14.716,0.838-21.991c7.887-6.277,17.558-5.755,26.764-6.903c6.658-0.831,12.915-2.712,18.74-6.036
		c3.123-2.179,6.093-4.787,10.381-3.659c-1.235,2.085-2.467,4.171-3.702,6.257c-4.673,6.297,2.363,11.369,1.824,17.237
		c-0.101,1.637-0.867,2.829-2.387,3.505c-5.195,6.002-2.483,13.083-2.698,19.765c-1.168,4.817-3.793,9.604-0.324,14.525
		c0.545,24.893-0.442,49.575-6.25,74.023c-2.072,8.711,0.91,17.783,2.61,26.791c5.668,30.046,15.148,58.316,32.382,83.795
		C559.455,585.876,559.194,589.143,559.722,591.878z"/>
	<path style="fill-rule:evenodd;clip-rule:evenodd;fill:#D9C4B5;" d="M471.415,717.831c25.569-37.765,69.063-47.965,105.688-68.724
		c11.058,17.822,15.624,37.266,14.485,58.128c-4.171,11.258-10.605,22.205-4.851,35.007c2.818-2.267,1.861-8.229,7.512-7.295
		c-0.444,57.948,1.982,115.933-2.952,173.833c-0.773,9.049-3.98,11.801-12.443,11.569c-17.648-0.485-35.314-0.401-52.973-0.549
		c-7.315-3.555-8.246-10.772-8.962-17.401c-4.161-38.384-9.966-76.638-10.709-115.313c-0.188-9.832-4.024-17.515-9.421-25
		C486.797,748.217,476.872,734.304,471.415,717.831z"/>
	<path style="fill-rule:evenodd;clip-rule:evenodd;fill:#E9DBD2;" d="M378.487,235.642c-17.53-12.554-34.812-25.476-52.724-37.457
		c-6.285-4.208-5.433-9.193-4.969-14.767c2.259-27.126,0.202-54.533,5.281-81.505c0.45-2.391-1.446-5.219-2.251-7.847
		c4.325-5.694,10.351-7.271,17.113-7.06c7.057,1.915,13.99,3.261,19.751,8.965c16.283,16.109,64.298,19.607,83.012,7.573
		c6.712-4.319,6.327-13.639,13.953-16.554c9.105,11.342,18.793,16.012,34.876,12.008c8.091-2.015,20.551,5.353,27.307,14.897
		c-0.342,0.552-0.684,1.102-1.024,1.654c-0.643,0.104-1.282,0.208-1.922,0.312c-5.453-6.217-12.908-6.136-22.148-6.789
		c5.313,22.824,2.307,45.458,3.582,67.957c0.6,10.602,0.117,17.341-12.601,21.181c-16.838,5.082-24.759,22.72-38.227,33.014
		c-10.729-1.393-1.814-9.216-3.746-13.785c-12.794,5.922-12.641,20.173-20.682,28.585c-11.318,2.099-16.734-5.741-22.372-13.23
		c-5.042-10.813-11.54-20.143-24.113-23.953C372.965,218.395,386.016,226.339,378.487,235.642z"/>
	<path style="fill-rule:evenodd;clip-rule:evenodd;fill:#D9C4B5;" d="M142.422,656.304c-2.502,32.556-22.88,56.983-38.185,83.701
		c-1.321,2.303-3.567,4.958-6.759,2.738c-2.584-1.795-2.759-4.67-1.579-7.576c2.33-5.737,4.548-11.522,6.957-17.224
		c2.374-5.62,2.745-10.073-5.236-10.414c-2.305-3.106,2.226-6.163-0.273-9.919c-7.487,3.953-13.491,9.085-16.402,17.327
		c-8.898,11.188-26.977,18.637-11.924,39.131c-16.281-4.61-21.729-18.674-13.476-32.315c10.836-17.913,21.902-35.87,39.261-48.945
		c16.815-12.664,22.042-33.021,29.456-51.126c22.04-53.826,37.626-109.628,45.953-167.328c0.228-1.577,1.52-3.003,2.315-4.496
		c2.194,0.994,2.169,3.528,3.537,5.099c2.104-11.871,10.083-22.586,6.976-35.482c6.335-38.518,12.979-76.992,18.868-115.581
		c2.645-17.321,3.779-34.873,5.597-52.32c9.477-19.44,9.378-41.032,13.74-61.613c3.812-17.98,5.062-36.757,17.754-51.667
		c1.479-0.797,3.055-1.162,4.729-1.058c1.533,0.629,2.74,1.654,3.572,3.097c1.826,5.108,3.827,10.17,5.723,15.269
		c0.17,4.704-6.496,7.448-3.689,12.938c-3.763,14.653-8.245,28.96-8.98,44.414c-1.471,30.922-6.074,61.345-17.45,90.574
		c-8.695,22.342-16.939,45.083-14.445,69.825c0.604,5.992-0.499,13.95,7.592,15.369c6.426,1.131,9.631-5.099,12.86-9.775
		c3.592-5.206,5.778-11.111,8.274-16.885c1.607-3.719,2.074-9.648,8.925-7.308c3.614,5.336,2.114,11.208,1.813,16.946
		c-1.868,4.419-3.539,8.885-2.551,13.839c-13.979,57.368-26.398,115.253-55.326,167.69c-3.678,2.919-3.274,11.793-9.67,9.507
		c-5.336-1.904-3.779-8.784-2.946-13.85c3.102-18.833,14.319-34.671,19.567-52.712c2.263-7.779,6.841-15.52,1.008-26.306
		c-7.104,11.001-9.501,21.194-10.107,31.847c-0.539,9.44-2.824,17.906-9.947,24.648c-4.757,4.496-7.541,10.525-7.778,16.731
		c-1.043,27.24-15.167,50.831-20.859,76.778C146.66,631.98,143.021,643.828,142.422,656.304z"/>
	<path style="fill-rule:evenodd;clip-rule:evenodd;fill:#C1A292;" d="M457.124,612.044c11.027,0.783,21.897,2.257,32.422,6.894
		c-3.404,6.691-12.654,5.901-14.823,13.103c-29.433,9.731-59.21,8.238-89.114,2.755c-0.696-2.183,0.341-4.396-0.114-6.585
		c-2.216,1.35-1.071,4.68-3.488,5.912c-38.662-5.812-71.693-22.754-99.378-50.269c9.733-26.53,23.447-52.655,20.151-81.726
		c-5.453-48.119,6.501-96.322-2.198-144.253c1.453-0.864,2.815-0.696,4.107,0.341c6.426,8.684,6.185-1.694,9.047-3.174
		c3.455-0.063,6.908-0.124,10.362-0.184c0.891,3.274,1.386,6.545-0.147,9.782c12.185,15.781,9.114,35.17,12.525,53.023
		c1.036,5.423,2.936,11.017-1.925,15.751c-2.496-0.86-3.396-4.007-6.265-4.419c0.124,2.775,1.744,5.021,2.36,7.583
		c-6.701,7.311,3.371,11.014,3.622,16.829c0.892,4.928,3.764,9.688,1.229,14.903c-0.986,4.271-3.845,8.339-1.354,12.966
		c4.633,1.329,9.266,2.661,13.899,3.99c-0.864,5.697-1.752,11.392-0.084,17.1c1.158,5.751,2.318,11.503,3.477,17.254
		c4.069,3.927,5.689,9.698,10.075,13.387c-9.753,5.678-2.38,13.833-3.014,20.829c6.32,2.745,7.132,8.102,6.662,14.063
		c2.243,5.584,4.487,11.172,6.732,16.759c1.674,5.919,4.372,10.997,10.719,13.089c23.39,8.188,47.262,13.983,72.206,14.365
		c1.54,2.209,1.041,5.095,2.48,7.509C458.593,616.959,456.216,614.532,457.124,612.044z"/>
	<path style="fill-rule:evenodd;clip-rule:evenodd;fill:#C1A292;" d="M471.415,717.831c9.926,1.339,8.259,11.027,12.125,16.745
		c5.725,8.462,11.7,16.755,17.568,25.124c7.245,10.327,14.539,20.323,8.486,34.319c-3.103,7.178,2.17,14.342,2.913,21.659
		c3.19,31.502,6.752,62.97,10.364,94.428c0.378,3.304,1.979,6.467,3.013,9.694c-19.275,0.201-38.559,0.194-57.824,0.706
		c-8.208,0.222-12.306-2.661-13.752-11.138c-7.8-45.678-16.025-91.283-24.103-136.915c-1.235-0.649-1.657-1.318-1.266-2.009
		c0.392-0.692,0.79-1.044,1.198-1.044c12.242-4.459,17.462-15.289,23.049-25.677C458.235,734.344,462.386,724.385,471.415,717.831z"
		/>
	<path style="fill-rule:evenodd;clip-rule:evenodd;fill:#E9DBD2;" d="M567.904,296.201c1.885-9.491,8.507-18.124,5.183-28.562
		c-3.563-4.125-3.061-9.022-2.651-13.906c-1.152-15.396-10.509-28.197-13.595-42.984c-6.93-8.466-9.079-18.409-7.733-28.9
		c2.825-21.984-4.398-39.03-23.3-51.001c-2.869-1.814-4.72-4.921-7.087-7.398c-1.547-2.534-1.426-5.168-0.495-7.854
		c0.535-0.563,1.071-1.125,1.606-1.697c8.139,8.162,18.897-4.616,27.053,3.384c-1.704,5.952,3.688,7.626,6.534,10.833
		c13.233,3.381,17.371,17.204,27.604,24.03c-0.106,13.671,3.559,27.035,3.331,40.71c0.689,3.8,1.644,7.519,3.171,11.084
		c2.34,6.173,4.736,12.37-1.992,17.492c-2.899,1.627-5.892,3.167-6.96,6.806c3.003-1.607,4.299-5.263,7.776-6.16
		c4.359-1.868,8.229-1.041,11.693,2.069c4.332,27.166,7.82,54.5,13.2,81.458c7.385,37.022,16.206,73.755,24.411,110.613
		c-4.824,6.933-0.897,14.08,1.064,20.149c5.982,18.526,9.236,38.126,19.882,54.971c11.75,21.469,11.415,45.826,16.042,68.941
		c3.224,16.116,6.621,32.128,11.104,47.925c-1.482,4.008,0.278,10.254-5.664,11.245c-6.515,1.088-8.55-4.817-10.478-9.42
		c-13.033-31.117-22.303-63.509-32.885-95.481c-13.825-41.772-15.925-86.544-34.35-127.043
		c-8.972-19.721-17.492-39.676-25.037-60.057C571.53,317.177,568.748,307.011,567.904,296.201z"/>
	<path style="fill-rule:evenodd;clip-rule:evenodd;fill:#C1A292;" d="M430.138,769.401c0.007,1.021,0.027,2.039,0.067,3.057
		c-9.1-1.945-13.106,1.597-14.991,10.953c-8.399,41.698-19.269,82.961-22.529,125.533c-0.689,9.049-3.924,11.844-12.42,11.569
		c-15.349-0.499-30.72-0.358-46.082-0.485c4.754-36.044-1.546-73.263,7.643-108.399c7.402-28.309,4.854-58.059,15.642-85.717
		c1.94-4.979,8.672-5.511,7.489-11.436c13.528,7.79,18.539,22.439,27.086,34.166C401.664,761.835,412.556,771.413,430.138,769.401z"
		/>
	<path style="fill-rule:evenodd;clip-rule:evenodd;fill:#D9C4B5;" d="M567.904,296.201c18.714,53.944,47.5,104.102,57.824,161.296
		c9.949,55.122,28.28,107.925,49.521,159.444c6.391-0.9,4.352-7.411,8.496-8.74c7.265,20.491,25.998,32.161,38.16,48.993
		c9.902,13.708,15.717,26.897,12.982,43.553c-7.944,0.328-9.388-6.977-13.13-11.416c-6.431-7.622-12.146-15.975-22.406-19.439
		c-5.219,6.183,5.561,8.828,1.561,13.742c-5.024-0.543-12.399-4.801-8.904,6.708c2.46,8.102,4.063,16.524,5.285,24.917
		c0.616,4.252,0.891,10.214-5.205,10.713c-4.285,0.352-6.388-4.336-7.646-8.169c-18.385-56.083-36.482-112.267-55.119-168.27
		c-8.436-25.352-17.902-50.354-26.901-75.52c2.909-17.216-4.827-32.02-11.771-46.539c-5.205-10.883-6.26,3.107-10.076,2.859
		c-6.686-12.316-1.857-25.485-2.839-38.227c11.433-6.311,6.93-15.142,3.364-23.423c-7.127-16.571-15.095-32.784-15.861-51.37
		c-0.211-5.115-1.154-10.083,1.718-14.743C567.271,300.449,567.586,298.324,567.904,296.201z"/>
	<path style="fill-rule:evenodd;clip-rule:evenodd;fill:#D9C4B5;" d="M457.653,86.99c-1.226,16.832-12.547,24.438-27.149,26.48
		c-17.465,2.44-35.298,2.253-52.834-0.114c-7.124-0.96-14.835-3.227-17.485-11.696c-2.976-9.511-15.481-6.304-19.247-14.653
		c18.201-5.949,21.383-22.831,27.409-37.644c2.036-4.185,1.669-9.829,7.206-11.888c8.088-1.794,14.977,2.498,20.16,6.91
		c11.438,9.742,21.468,7.636,31.729-0.72c5.704-4.646,13.438-5.614,18.63-11.379c3.274-3.635,7.994-3.927,12.045-0.09
		c-2.983,6.668-6.829,13.103-8.721,20.066c-2.129,7.837-8.031,17.394,6.227,21.415C464.06,76.057,450.332,83.465,457.653,86.99z"/>
	<path style="fill-rule:evenodd;clip-rule:evenodd;fill:#E9DBD2;" d="M458.115,32.196c-10.907-3.632-16.818,7.221-22.158,11.436
		c-17.23,13.605-31.893,15.064-48.648,1.269c-3.398-2.795-6.98-6.043-12.018-5.842c-8.754-6.421-15.309-14.583-19.499-24.632
		c-0.842-3.488-0.286-6.648,2.211-9.34c37.858,0,75.717,0,114.991,0C469.359,15.966,466.46,25.484,458.115,32.196z"/>
	<path style="fill-rule:evenodd;clip-rule:evenodd;fill:#E9DBD2;" d="M142.422,656.304c-3.065-8.765-2.747-17.1-0.769-26.504
		c6.744-32.03,23.328-61.332,25.643-94.587c0.303-4.353,1.337-10.291,7.232-12.722c8.451-3.481,9.166-11.188,8.669-18.696
		c-0.825-12.507,4.791-23.313,8.277-34.668c0.927-3.02,2.159-7.161,6.495-6.786c3.821,0.328,5.015,4.074,6.735,7.027
		c3.555,6.092,1.615,11.733,0.028,18.026c-6.213,24.643-22.19,45.91-25.204,74.15c4.452-3.519,7.487-5.919,10.52-8.318
		C174.172,587.583,158.298,621.944,142.422,656.304z"/>
	<path style="fill-rule:evenodd;clip-rule:evenodd;fill:#C3A495;" d="M241.574,139.123c-8.992,16.283-13.049,33.771-15.372,52.237
		c-2.595,20.621-7.392,41.022-12.266,61.271c-1.637,6.796-4.094-1.282-6.427-1.058c-5.505-43.817,1.388-85.188,24.347-123.388
		C242.451,125.297,241.272,132.866,241.574,139.123z"/>
	<path style="fill-rule:evenodd;clip-rule:evenodd;fill:#E8DAD1;" d="M252.039,155.831c-6.185-2.618-7.405-7.733-6.908-13.715
		c4.908-2.105,6.618,1.614,8.797,4.895c-4.897-7.569-0.392-18.359-8.985-24.378c-0.942-1.389-1-2.849-0.31-4.355
		c19.567-7.261,38.36-16.735,59.089-20.679c-1.876,6.682,6.32,13.076,0.572,19.869c-0.687,1.436-1.667,2.625-2.973,3.545
		c-7.482,2.246-14.926,4.827-22.876,3.341c-2.201,0.147-0.032-2.039-1.628-0.542c-1.215,1.142-1.515,1.014,0.313,1.727
		c2.129,0.827,3.636,2.494,4.685,4.57c2.738,7.435,1.675,15.011-1.823,21.438c-6.558,12.042-10.876,25.452-20.668,35.626
		c-4.196-2.879-4.434-7.385-4.893-11.801C254.027,168.82,254.209,162.185,252.039,155.831z"/>
	<path style="fill-rule:evenodd;clip-rule:evenodd;fill:#C2A494;" d="M566.957,302.572c1.747,26.955,12.38,51.229,22.229,75.851
		c3.679,9.199,4.834,19.6-11.449,13.685c-5.282-17.609-10.448-35.254-15.932-52.799c-1.513-4.847,0.157-12.015-8.021-12.801
		c-3.076-1.546-3.887-4.245-3.76-7.415C553.09,310.944,561.195,307.958,566.957,302.572z"/>
	<path style="fill-rule:evenodd;clip-rule:evenodd;fill:#DBC6B8;" d="M656.6,491.338c-0.844,3.589-3.375,7.907-5.504,2.123
		c-7.753-21.074-15.63-42.318-20.307-64.171c-1.256-5.878-4.476-9.909-6.475-14.74c4.908-3.435,7.863,0.496,11.339,1.667
		C646.436,440.197,656.282,464.44,656.6,491.338z"/>
	<path style="fill-rule:evenodd;clip-rule:evenodd;fill:#C3A495;" d="M580.575,430.334c2.079-5.289-3.444-14.736,4.991-15.65
		c6.605-0.717,7.771,8.252,10.521,13.815c5.35,10.823,7.998,22.419,11.191,33.868c1.346,4.818,3.261,10.505-4.86,11.65
		C597.005,458.522,583.584,447.033,580.575,430.334z"/>
	<path style="fill-rule:evenodd;clip-rule:evenodd;fill:#C3A595;" d="M700.913,683.634c-1.406-6.039-7.673-5.855-11.64-8.845
		c6.065-12.333,13.187-11.566,22.402-3.157c9.36,8.54,15.271,19.584,23.213,29.115c-0.067,2.122-0.131,4.244-0.194,6.37
		c-4.262,2.337-6.796-0.073-9.032-3.291C721.179,692.475,704.957,695.518,700.913,683.634z"/>
	<path style="fill-rule:evenodd;clip-rule:evenodd;fill:#C1A394;" d="M273.418,658.624c-8.108,8.064-7.25,18.452-7.966,28.663
		c-0.387,5.5,4.007,15.147-4.916,15.503c-8.315,0.328-8.051-9.21-8.721-15.908c6.946-14.104-0.544-30.326,6.513-44.41
		C258.535,652.367,268.655,652.993,273.418,658.624z"/>
	<path style="fill-rule:evenodd;clip-rule:evenodd;fill:#DAC6B7;" d="M725.662,703.827c3.013,1.099,6.022,2.196,9.035,3.291
		c0.693,18.626-3.726,23.661-18.063,20.803c-4.717-0.944-9.26-3.003-10.237-7.553c-1.067-4.975,4.513-5.493,7.727-7.274
		C718.521,710.66,723.412,708.909,725.662,703.827z"/>
	<path style="fill-rule:evenodd;clip-rule:evenodd;fill:#C7AA9B;" d="M594.25,734.947c-5.547,4.844-1.147,12.075-4.131,17.585
		c-14.772-13.813-14.24-29.532,1.467-45.297C595.613,716.169,593.989,725.647,594.25,734.947z"/>
	<path style="fill-rule:evenodd;clip-rule:evenodd;fill:#DBC6B8;" d="M581.328,193.854c1.399-13.913-10.264-27.729-0.305-41.708
		c6.401,2.189,5.725,9.5,9.712,13.434c0.98,0.599,1.402,1.305,1.269,2.116c-0.141,0.863-0.348,1.295-0.619,1.295
		c0.994,7.003,1.985,14.006,2.976,21.01C590.209,191.932,586.215,194.403,581.328,193.854z"/>
	<path style="fill-rule:evenodd;clip-rule:evenodd;fill:#D3BCAC;" d="M241.987,738.636c4.871,4.67,2.928,10.716,2.956,16.186
		c0.17,32.466,0.17,64.935,0,97.399c-0.03,5.471,1.92,11.517-2.959,16.18C241.987,825.146,241.987,781.891,241.987,738.636z"/>
	<path style="fill-rule:evenodd;clip-rule:evenodd;fill:#C5A898;" d="M183.043,419.475c2.096-1.747,4.193-3.495,9.841-8.205
		c-6.049,19.447-7.394,36.262-18.836,51.969c-0.647-5.735-1.081-9.554-1.515-13.377
		C175.526,439.554,175.292,428.132,183.043,419.475z"/>
	<path style="fill-rule:evenodd;clip-rule:evenodd;fill:#C3A595;" d="M80.945,714.938c-1.187-10.14,12.951-26.554,20.946-23.279
		c9.984,4.091,3.08,8.121-1.359,11.74c-1.259,1.024-1.957,2.734-2.913,4.131C93.056,712.237,86.588,712.655,80.945,714.938z"/>
	<path style="fill-rule:evenodd;clip-rule:evenodd;fill:#C9AEA0;" d="M244.813,374.995c0.062-6.853,0.124-13.705,0.184-20.561
		c-5.042-5.862-4.484-11.811-0.286-17.83c2.949-2.551,6.135-4.201,10.144-2.541c1.175,15.272-1.162,30.032-6.466,44.36
		C245.295,379.263,243.745,378.496,244.813,374.995z"/>
	<path style="fill-rule:evenodd;clip-rule:evenodd;fill:#E3D2C7;" d="M358.181,15.089c4.993,8.497,15.478,13.076,17.11,23.973
		c-2.313,3.431-4.628,6.866-6.945,10.301c-5.388-12.711-13.911-23.996-17.171-37.678C355,9.75,356.301,13.017,358.181,15.089z"/>
	<path style="fill-rule:evenodd;clip-rule:evenodd;fill:#DAC4B6;" d="M598.042,224.146c-4.372,0.06-8.744,0.121-13.116,0.177
		c-0.943-0.472-1.362-1.068-1.255-1.788c0.12-0.78,0.305-1.168,0.559-1.168c4.566-5.888,1.075-11.847,0.158-17.782
		c2.353-3.92,4.312-8.437,10.313-6.9C601.735,205.119,596.62,215.031,598.042,224.146z"/>
	<path style="fill-rule:evenodd;clip-rule:evenodd;fill:#EDE1DA;" d="M243.607,683.999c-19.168-15.234,1.503-30.667-3-38.578
		C238.956,653.589,247.107,666.671,243.607,683.999z"/>
	<path style="fill-rule:evenodd;clip-rule:evenodd;fill:#D0B7A9;" d="M254.854,334.063c-2.194,1.058-4.389,2.116-6.583,3.174
		c-8.51-12.647-5.075-23.949,3.895-34.628c4.42,5.092,9.375,9.852,10.593,16.949C255.93,322.108,255.236,328,254.854,334.063z"/>
	<path style="fill-rule:evenodd;clip-rule:evenodd;fill:#DD2E89;" d="M244.634,118.277c0.192,1.068,0.565,2.065,1.121,3
		c6.926,6.25,8.922,12.309-0.693,17.923c-1.162-0.026-2.323-0.053-3.486-0.077c-4.377-2.638-1.927-11.342-9.723-10.94
		C227.905,114.297,237.99,118.505,244.634,118.277z"/>
	<path style="fill-rule:evenodd;clip-rule:evenodd;fill:#E24C9B;" d="M614.687,127.426c-2.43,3.297-0.692,9.778-6.953,9.983
		c-3.535,0.114-6.658-2.156-5.828-6.431c0.844-4.322,1.483-9.701,6.833-10.498C612.743,119.881,613.456,124.259,614.687,127.426z"/>
	<path style="fill-rule:evenodd;clip-rule:evenodd;fill:#DD428F;" d="M594.702,196.686c-3.106,2.795-4.649,7.927-10.313,6.9
		c-3.479-2.471-3.365-6.073-3.061-9.732c3.164-5.289,6.89-8.664,13.036-3.85C594.474,192.23,594.588,194.456,594.702,196.686z"/>
	<path style="fill-rule:evenodd;clip-rule:evenodd;fill:#E14395;" d="M532.298,364.854c-0.171-1.375-0.342-2.751-0.512-4.127
		c-0.285-3.05-1.514-6.257,1.445-8.771c5.26-0.666,10.894-1.5,10.204,6.578C542.833,365.588,539.603,369.083,532.298,364.854z"/>
	<path style="fill-rule:evenodd;clip-rule:evenodd;fill:#E03D92;" d="M591.384,168.991c-0.214-1.135-0.432-2.273-0.649-3.408
		c2.38-4.439,2.045-11.891,10.444-9.711c3.663,0.948,2.993,3.669,2.417,6.551C602.137,169.697,597.59,170.775,591.384,168.991z"/>
	<path style="fill-rule:evenodd;clip-rule:evenodd;fill:#DD2987;" d="M580.042,118.009c3.207,0.208,7.044-0.729,7.522,4.318
		c0.432,4.53-2.1,5.905-6.039,5.792c-3.268-0.094-7.027,0.539-7.569-4.305C573.448,119.275,576.079,117.926,580.042,118.009z"/>
	<path style="fill-rule:evenodd;clip-rule:evenodd;fill:#DD2987;" d="M553.418,128.116c-4.563-0.94-10.899,2.893-13.313-3.652
		c-2.009-5.446,2.772-6.387,6.779-7.181C554.651,117.524,553.704,123.021,553.418,128.116z"/>
	<path style="fill-rule:evenodd;clip-rule:evenodd;fill:#CB3684;" d="M550.024,319.092c3.013,1.583,3.425,4.482,3.756,7.422
		c-1.854,5.617-5.011,9.049-11.525,6.813C543.108,327.636,540.932,320.288,550.024,319.092z"/>
	<path style="fill-rule:evenodd;clip-rule:evenodd;fill:#DE368D;" d="M529.276,399.145c-12.989-5.139-8.071-9.872,0.328-14.522
		C537.587,389.641,531.536,394.351,529.276,399.145z"/>
	<path style="fill-rule:evenodd;clip-rule:evenodd;fill:#DCC9BB;" d="M358.181,15.089c-2.335-1.135-4.67-2.27-7.006-3.404
		c-5.094-9.826,3.254-5.748,6.831-6.602C358.062,8.421,358.122,11.755,358.181,15.089z"/>
	<path style="fill-rule:evenodd;clip-rule:evenodd;fill:#C09D91;" d="M302.849,357.892c-0.756-0.007-1.515-0.014-2.27-0.017
		c-0.012-5.259-5.519-5.788-7.809-9.079c5.731-0.944,11.449-1.861,14.124,5.31C306.455,356.338,305.129,357.627,302.849,357.892z"/>
	<path style="fill-rule:evenodd;clip-rule:evenodd;fill:#EDDEDA;" d="M533.232,351.956c-0.479,2.922-0.96,5.849-1.442,8.771
		c-3.308-5.775-3.903-11.375,1.074-16.614C532.985,346.727,533.109,349.342,533.232,351.956z"/>
	<path style="fill-rule:evenodd;clip-rule:evenodd;fill:#D2BBAC;" d="M244.813,374.995c1.192,1.142,2.384,2.287,3.576,3.428
		c-1.006,2.37-2.01,4.74-3.015,7.114C240.684,382.266,240.543,378.748,244.813,374.995z"/>
	<path style="fill-rule:evenodd;clip-rule:evenodd;fill:#F4EEEB;" d="M248.147,903.163c0.127,5.621,0.256,11.245,0.385,16.865
		c-1.15,0.04-2.301,0.077-3.451,0.117C245.82,914.434,242.816,908.043,248.147,903.163z"/>
	<path style="fill-rule:evenodd;clip-rule:evenodd;fill:#E9DBD2;" d="M471.583,553.448c-16.246,12.694-33.403,21.397-54.751,13.263
		c-12.938-4.931-20.973-12.751-24.946-27.209c-5.072-18.463-13.461-36.091-21.316-53.68c-7.993-17.893-13.59-36.081-12.356-55.899
		c2.946-2.474,7.125-1.426,10.188-3.565c3.042-13.524-7.139-26.038-1.28-40.667c4.358-10.876,7.124-22.185,14.872-31.381
		c3.02-13.344,16.236-18.178,23.39-28.073c6.592-0.68,9.789-4.908,9.731-10.974c-0.057-6.237-6.725-4.118-9.932-6.538
		c-2.137-1.423-3.877-3.023-2.588-5.932c8.147-6.725,16.078-4.369,23.948,0.573c1.774,1.797,2.555,4.107,3.318,6.424
		c1.597,6.863-2.206,12.587-4.396,18.657c-0.724,2.065,3.237,2.183,1.121,1.315c-0.881-0.358-0.773-0.803-0.576-1.566
		c1.54-5.952,5.762-7.409,11.235-6.927c14.117,11.928,27.508,24.823,44.135,33.453c2.341,4,5.206,8.681,3.432,12.869
		c-9.056,21.391-3.655,45.022-0.161,64.315c5.213,28.813-11.073,56.123,0.339,83.53c3.287,5.031,0.077,9.993-0.168,14.984
		c-2.246,5.42-4.489,10.843-6.735,16.263C476.051,549.066,477.397,554.703,471.583,553.448z"/>
	<path style="fill-rule:evenodd;clip-rule:evenodd;fill:#E9DBD2;" d="M252.166,302.608c-0.322,11.65-6.83,22.61-3.894,34.628
		c-5.02,4.984-2.385,11.425-3.274,17.2c-5.605,9.705-6.915,21.317-14.343,30.356c-4.957,6.029-9.966,12.266-18.067,10.126
		c-7.802-2.059-7.649-10.615-8.475-17.053c-3.53-27.531,4.668-53.375,15.757-77.531c6.471-14.097,1.249-31.97,15.202-42.98
		c-12.527-18.081,5.44-35.465,1.18-54.446c-2.502-11.155,1.905-26.142,10.99-36.868c4.516,0.141,7.571,3.173,10.965,5.534
		c0.177,4.938,0.354,9.872,0.53,14.81c-1.049,3.304-1.911,6.611,0.034,9.919c1.628,3.328,2.979,6.722,2.902,10.501
		c-2.492,7.057,5.461,13.853,0.574,20.976C253.647,252.019,257.224,277.893,252.166,302.608z"/>
	<path style="fill-rule:evenodd;clip-rule:evenodd;fill:#D8C3B4;" d="M262.249,227.782c0.008-7.385-10.761-13.287-2.988-21.736
		c2.869-5.032,5.592-9.996-4.228-9.183c-5.172-5.758-3.44-9.076,3.706-10.478c3.651-20.615,24.364-35.264,20.464-58.521
		c-1.983-2.394-1.612-4.569,0.596-6.582c7.229,1.908,13.625-1.439,20.272-3.207c2.604,3.391,2.556,6.779-0.012,10.164
		c-4.355,19.192-5.865,38.923-11.963,57.831c-4.386,13.591-12.643,24.876-19.313,37.119c0.003,2.722-1.398,3.97-4.073,3.876
		C263.876,227.256,263.054,227.494,262.249,227.782z"/>
	<path style="fill-rule:evenodd;clip-rule:evenodd;fill:#D7C2B3;" d="M519.812,121.28c3.196,2.3,6.374,4.633,9.601,6.89
		c15.911,11.134,27.853,23.812,24.508,45.859c-1.838,12.092-1.104,24.723,2.92,36.72c-24.469-12.885-32.252-34.949-33.942-60.693
		c-0.479-7.324-2.628-14.542-4.01-21.806C517.191,125.662,517.478,123.335,519.812,121.28z"/>
	<path style="fill-rule:evenodd;clip-rule:evenodd;fill:#C1A394;" d="M426.995,309.518c-0.15-2.049-0.301-4.101-0.452-6.153
		c8.035,6.247,16.33,12.188,24.054,18.797c22.084,18.897,46.652,27.504,75.586,19.353c-13.069,10.723-28.927,11.988-44.802,13.203
		c-20.718-1.925-32.565-16.49-44.366-31.126C430.965,320.83,429.756,314.623,426.995,309.518z"/>
	<path style="fill-rule:evenodd;clip-rule:evenodd;fill:#D9C5B6;" d="M378.487,235.642c-3.036-8.995-6.357-17.91-9.005-27.019
		c-1.764-6.069,0.709-9.327,6.913-5.892c11.774,6.518,24.368,12.554,26.5,28.237c-4.459,3.917-3.515,15.155-14.274,10.535
		C383.787,242.066,380.861,239.332,378.487,235.642z"/>
	<path style="fill-rule:evenodd;clip-rule:evenodd;fill:#D7C2B3;" d="M423.249,244.745c0.656-12.614,6.695-22.533,15.69-30.865
		c3.579-3.314,8.486-5.216,12.286-1.898c4.606,4.024-0.998,6.729-3.08,9.551c-2.377,3.224-5.835,6.076-0.649,9.691
		c-5.058,6.531-5.882,15.861-13.635,20.612c-4.703,1.881-5.099-3.157-7.669-4.704C425.037,246.549,424.069,245.735,423.249,244.745z
		"/>
	<path style="fill-rule:evenodd;clip-rule:evenodd;fill:#D2BBAC;" d="M423.249,244.745c1.132,0.01,2.267,0.01,3.398-0.003
		c4.975,8.142-0.098,11.251-6.786,13.555c-16.366,5.48-24.187-4.945-31.24-16.795c4.63-0.385,7.07-2.711,7.204-7.542
		c0.168-5.852,3.943-3.786,7.067-2.99C408.797,236.868,414.147,243.576,423.249,244.745z"/>
	<path style="fill-rule:evenodd;clip-rule:evenodd;fill:#F4F2F1;" d="M351.467,348.311c16.603-8.218,28.838-21.509,40.79-35.13
		c5.396-1.034,5.574,2.896,6.16,6.451c-7.436,19.691-20.896,31.926-42.41,34.183C353.385,352.9,351.204,351.611,351.467,348.311z"/>
	<path style="fill-rule:evenodd;clip-rule:evenodd;fill:#D9448D;" d="M302.849,357.892c1.349-1.259,2.698-2.521,4.047-3.783
		c2.278,0.308,4.558,0.619,6.839,0.934c-0.869,4.72,6.896,11.684-2.542,13.967C301.758,371.295,304.64,362.417,302.849,357.892z"/>
	<path style="fill-rule:evenodd;clip-rule:evenodd;fill:#CD3082;" d="M570.435,253.733c5.57,3.756,2.852,9.089,2.654,13.923
		c-4.593,1.828-9.882,1.788-10.615-3.465C561.878,259.909,561.386,252.253,570.435,253.733z"/>
	<path style="fill-rule:evenodd;clip-rule:evenodd;fill:#CE2B80;" d="M290.215,289.446c4.444,0.783,5.649,4.593,5.92,8.687
		c0.231,3.495-2.105,5.085-5.431,4.891c-5.559-0.325-5.485-5.379-6.361-8.834C283.483,290.798,286.426,289.412,290.215,289.446z"/>
	<path style="fill-rule:evenodd;clip-rule:evenodd;fill:#D93088;" d="M519.812,121.28c-0.309,2.324-0.616,4.647-0.921,6.97
		c-4.623-1.363-12.443,3.588-13.166-5.283c-0.613-7.539,8.128-3.515,11.154-7.121c0.01,0.014,1.346-0.258,1.346-0.254
		C518.753,117.491,519.283,119.385,519.812,121.28z"/>
	<path style="fill-rule:evenodd;clip-rule:evenodd;fill:#C2377E;" d="M264.711,227.065c1.359-1.289,2.717-2.578,4.074-3.87
		c6.972-0.124,8.182,5.142,9.069,10.217c0.465,2.658-1.963,4.104-4.317,4.195C266.253,237.882,266.378,231.665,264.711,227.065z"/>
	<path style="fill-rule:evenodd;clip-rule:evenodd;fill:#C92B7E;" d="M279.91,255.825c4.996-0.412,5.791,2.913,6.302,6.458
		c0.536,3.736-0.191,7.254-4.387,7.86c-4.416,0.636-5.445-3.033-6.069-6.515C275.074,259.833,275.921,256.856,279.91,255.825z"/>
	<path style="fill-rule:evenodd;clip-rule:evenodd;fill:#CC2B7F;" d="M557.292,286.369c3.978-0.063,6.605,1.537,6.221,4.713
		c-0.506,4.175-1.517,9.163-6.873,9.598c-2.33,0.191-5.798-1.657-4.499-5.43C553.305,291.863,552.572,286.979,557.292,286.369z"/>
	<path style="fill-rule:evenodd;clip-rule:evenodd;fill:#CC2B80;" d="M305.701,329.292c0.653,4.349-1.351,7.047-5.282,7.181
		c-5.499,0.184-5.29-5.051-6.406-8.476c-1.167-3.579,1.923-5.015,4.642-5.728C304.938,320.619,303.647,326.775,305.701,329.292z"/>
	<path style="fill-rule:evenodd;clip-rule:evenodd;fill:#DD2987;" d="M300.059,128.24c0.003-3.388,0.008-6.775,0.012-10.164
		c1.408-0.201,2.813-0.405,4.223-0.606c4.16,0.687,10.48-0.341,8.681,6.719C311.185,131.209,304.463,127.015,300.059,128.24z"/>
	<path style="fill-rule:evenodd;clip-rule:evenodd;fill:#DDD3CC;" d="M395.738,320.03c-0.181-2.782-0.488-5.497-3.481-6.85
		c2.738-4.167,2.883-10.917,10.338-10.388c1.208,1.249,2.417,2.494,3.625,3.743c1.085,1.286,1.473,2.755,1.188,4.416
		C404.948,315.808,403.682,322.222,395.738,320.03z"/>
	<path style="fill-rule:evenodd;clip-rule:evenodd;fill:#F6F1EF;" d="M323.951,364.64c-2.646-3.3-1.57-6.548,0.147-9.782
		c5.623-1.038,11.247-2.075,16.869-3.11c1.156,1.289,1.565,2.782,1.225,4.482c-2.119,3.264-4.667,4.469-8.04,1.657
		C330.434,359.659,329.461,365.578,323.951,364.64z"/>
	<path style="fill-rule:evenodd;clip-rule:evenodd;fill:#C0A292;" d="M419.861,258.296c3.9-3.696,8.279-7.157,6.789-13.555
		c6.196-1.497,2.742,6.829,7.211,7.094C430.745,257.342,425.783,258.858,419.861,258.296z"/>
	<path style="fill-rule:evenodd;clip-rule:evenodd;fill:#E9E7E6;" d="M341.034,354.517c-0.065-0.92-0.087-1.845-0.067-2.769
		c3.5-1.145,7-2.293,10.5-3.438c1.353,1.111,2.705,2.22,4.059,3.331C352.044,359.401,346.831,358.431,341.034,354.517z"/>
	<path style="fill-rule:evenodd;clip-rule:evenodd;fill:#BC9F90;" d="M512.32,621.391c1.841-2.781,3.097-7.167,5.614-8.077
		c14.414-5.227,20.711-15.936,23.008-30.25c0.476-2.949,3.097-5.55,4.466-7.867c8.613,1.715,3.716,10.575,9.046,13.334
		C543.556,603.522,531.368,616.855,512.32,621.391z"/>
	<path style="fill-rule:evenodd;clip-rule:evenodd;fill:#C22C7B;" d="M416.714,720.314c0.553,0.058,1.104,0.101,1.653,0.171
		c5.989,0.783,3.659-12.001,11.975-7.358c2.745,1.533,3.375,3.961,3,7.027c-0.958,7.813-6.301,7.345-12.082,7.181
		c-1.576-0.044-3.227,2.53-4.841,3.906C413.557,727.518,413.252,723.866,416.714,720.314z"/>
	<path style="fill-rule:evenodd;clip-rule:evenodd;fill:#C12C7A;" d="M403.293,699.449c-5.165-0.924-4.449-5.718-5.293-9.083
		c-1.044-4.137,1.955-6.344,5.638-6.021c4.914,0.425,5.567,4.733,5.828,8.637C409.738,697.058,407.096,698.812,403.293,699.449z"/>
	<path style="fill-rule:evenodd;clip-rule:evenodd;fill:#D83788;" d="M382.006,634.123c0.121-5.028-7.353-10.361,0.412-15.008
		c2.109-1.262,4.439-0.234,5.962,1.781c4.272,5.647,3.475,10.327-2.765,13.902C384.41,634.571,383.208,634.347,382.006,634.123z"/>
	<path style="fill-rule:evenodd;clip-rule:evenodd;fill:#C92B7E;" d="M453.635,652.622c-1.078,3.498-1.362,8.161-5.65,9.086
		c-3.345,0.72-6.876-1.507-6.448-5.558c0.382-3.615,1.048-8.262,5.48-9.216C450.613,646.161,453.281,648.393,453.635,652.622z"/>
	<path style="fill-rule:evenodd;clip-rule:evenodd;fill:#C62B7D;" d="M443.472,686.185c-0.9,3.214-1.664,7.274-6.599,7.605
		c-2.986,0.204-5.962-1.021-5.329-4.462c0.75-4.071,1.168-9.351,7.328-9.143C441.949,680.29,443.807,682.278,443.472,686.185z"/>
	<path style="fill-rule:evenodd;clip-rule:evenodd;fill:#D12A82;" d="M395.166,665.945c-4.804-0.197-5.708-3.371-6.066-6.906
		c-0.301-2.976,0.144-5.718,3.736-6.337c4.389-0.757,5.945,2.009,6.531,5.701C399.962,662.163,398.965,665.018,395.166,665.945z"/>
	<path style="fill-rule:evenodd;clip-rule:evenodd;fill:#C52C7D;" d="M416.714,720.314c-0.097,3.643-0.197,7.285-0.295,10.927
		c-8.821,1.413-9.698-5.768-8.801-10.595C408.409,716.408,413.417,716.227,416.714,720.314z"/>
	<path style="fill-rule:evenodd;clip-rule:evenodd;fill:#C6A898;" d="M260.62,718.282c-0.874,3.392-1.747,6.786-3.18,12.347
		C254.757,724.177,254.601,720.354,260.62,718.282z"/>
	<path style="fill-rule:evenodd;clip-rule:evenodd;fill:#C4A798;" d="M341.034,354.517c5.102,0.422,10.224,0.941,14.487-2.879
		c18.323-4.282,31.145-15.56,40.217-31.608c3.465-3.381,6.93-6.762,10.395-10.144c8.074,5.828,8.088,6.987,0.204,17.401
		c-4.325,12.423-16.015,18.208-24.341,27.025c-11.673,4.147-23.341,8.315-35.02,12.446c-8.339,2.949-13.344,1.018-12.823-8.871
		C336.446,356.763,338.739,355.642,341.034,354.517z"/>
	<path style="fill-rule:evenodd;clip-rule:evenodd;fill:#C3A595;" d="M426.422,586.151c0.19,6.909-3.608,8.379-8.791,8.191
		c-4.689-0.167-9.748-0.71-10.19-6.484c-0.395-5.169,3.88-8.751,8.266-9.249C420.906,578.019,425.572,580.647,426.422,586.151z"/>
	<path style="fill-rule:evenodd;clip-rule:evenodd;fill:#D93B89;" d="M457.124,612.044c4.463,3.375,9.879,6.395,4.908,13.261
		c-2.29,3.166-5.862,4.659-8.607,2.148c-5.734-5.235,1.202-10.149,1.386-15.342C455.583,612.008,456.354,611.988,457.124,612.044z"
		/>
	<path style="fill-rule:evenodd;clip-rule:evenodd;fill:#D93E8A;" d="M330.646,436.578c-8.123-0.312-7.504-6.85-8.048-12.055
		c-0.122-1.168,3.055-3.954,4.494-3.806c7.847,0.79,6.657,7.425,7.455,12.698C333.249,434.469,331.949,435.523,330.646,436.578z"/>
	<path style="fill-rule:evenodd;clip-rule:evenodd;fill:#DD3D8E;" d="M503.505,489.253c-1.523,3.699-0.994,9.008-6.709,8.606
		c-4.281-0.301-5.386-3.709-4.78-7.488c0.542-3.375,1.359-7.238,5.674-7.168C501.149,483.261,504.506,484.701,503.505,489.253z"/>
	<path style="fill-rule:evenodd;clip-rule:evenodd;fill:#DD3C8D;" d="M471.583,553.448c2.169-2.257,4.335-4.51,6.504-6.766
		c4.061,3.214,8.172,6.18,4.185,12.386c-1.687,2.628-3.153,4.771-6.457,4.038C470.176,561.85,471.77,557.21,471.583,553.448z"/>
	<path style="fill-rule:evenodd;clip-rule:evenodd;fill:#DB3B8B;" d="M382.608,597.747c-15.819,5.658-14.949-2.347-10.719-13.092
		C381.115,584.39,380.533,592.157,382.608,597.747z"/>
	<path style="fill-rule:evenodd;clip-rule:evenodd;fill:#DC378B;" d="M333.867,467.621c1.242-4.707-5.91-9.648,0.402-14.211
		c10.86,4.021,13.458,9.524,3.108,17.348C334.309,471.832,332.95,471.001,333.867,467.621z"/>
	<path style="fill-rule:evenodd;clip-rule:evenodd;fill:#DC3D8D;" d="M347.958,502.366c-9.323-5.748-9.188-11.449,0.084-17.103
		C352.073,490.987,357.533,496.711,347.958,502.366z"/>
	<path style="fill-rule:evenodd;clip-rule:evenodd;fill:#DD368C;" d="M484.822,530.419c-6.38-5.068-1.623-10.007,0.168-14.981
		c4.606,0.489,9.638,0.606,8.175,7.553C492.23,527.433,491.4,532.216,484.822,530.419z"/>
	<path style="fill-rule:evenodd;clip-rule:evenodd;fill:#DD398C;" d="M466.524,581.423c4.6,0.271,7.141,1.979,7.101,5.002
		c-0.054,3.77-0.804,8.479-5.143,9.347c-2.842,0.569-7.15-0.811-6.611-5.43C462.309,586.576,463.875,583.031,466.524,581.423z"/>
	<path style="fill-rule:evenodd;clip-rule:evenodd;fill:#DB378A;" d="M365.157,567.899c-4.899-3.421-3.766-9.701-6.664-14.066
		c5.055-0.86,10.137-1.744,12.508,4.609C373.101,564.066,370.299,566.717,365.157,567.899z"/>
	<path style="fill-rule:evenodd;clip-rule:evenodd;fill:#DD388C;" d="M523.12,423.191c-0.747,4.198,0.047,8.429-4.53,8.824
		c-3.826,0.328-6.103-2.287-6.109-6.146c-0.003-3.388,0.66-7.127,4.6-7.82C521.418,417.289,522.112,421.075,523.12,423.191z"/>
	<path style="fill-rule:evenodd;clip-rule:evenodd;fill:#DD318A;" d="M361.51,533.006c-10.808,1.142-10.813-5.848-10.075-13.39
		C362.986,517.916,362.079,525.588,361.51,533.006z"/>
	<path style="fill-rule:evenodd;clip-rule:evenodd;fill:#DD2F89;" d="M506.9,464.055c-3.371-0.445-4.972-2.34-4.51-5.741
		c0.482-3.585,1.875-6.882,5.936-7.03c3.565-0.13,4.553,2.738,4.309,5.865C512.353,460.738,511.45,463.941,506.9,464.055z"/>
	<path style="fill-rule:evenodd;clip-rule:evenodd;fill:#E4D4C9;" d="M368.401,426.357c-1.858,5.591-5.45,6.217-10.19,3.562
		C358.716,420.466,362.411,420.127,368.401,426.357z"/>
	<path style="fill-rule:evenodd;clip-rule:evenodd;fill:#F8F4F2;" d="M333.867,467.621c1.172,1.045,2.342,2.093,3.512,3.137
		c-1.08,3.505-2.158,7.014-3.235,10.519C324.319,476.92,332.127,472.21,333.867,467.621z"/>
	<path style="fill-rule:evenodd;clip-rule:evenodd;fill:#DD2987;" d="M340.78,118.06c3.686-0.027,6.959,0.529,6.74,5.35
		c-0.164,3.609-2.584,4.673-5.721,4.657c-3.379-0.021-7.162,0.331-7.604-4.489C333.753,118.766,337.074,118.103,340.78,118.06z"/>
	<path style="fill-rule:evenodd;clip-rule:evenodd;fill:#DD2987;" d="M484.655,122.736c0.157,4.867-3.11,5.379-6.779,5.333
		c-3.688-0.047-6.923-0.763-6.574-5.533c0.268-3.652,2.875-4.449,5.938-4.469C480.691,118.046,484.296,117.845,484.655,122.736z"/>
	<path style="fill-rule:evenodd;clip-rule:evenodd;fill:#DD2987;" d="M450.385,123.312c-0.315,4.877-3.874,4.771-7.355,4.757
		c-4.03-0.013-6.531-1.6-5.915-6.086c0.525-3.836,3.596-3.796,6.404-3.903C447.174,117.939,450.449,118.478,450.385,123.312z"/>
	<path style="fill-rule:evenodd;clip-rule:evenodd;fill:#DD2987;" d="M408.774,117.953c3.519-0.014,7.144-0.023,7.305,4.854
		c0.157,4.78-3.204,5.363-6.856,5.242c-2.832-0.09-5.865-0.11-6.394-3.957C402.203,119.559,404.679,117.959,408.774,117.953z"/>
	<path style="fill-rule:evenodd;clip-rule:evenodd;fill:#DD2987;" d="M368.719,120.59c0.479-3.09,4.273-2.497,7.572-2.5
		c4.312-0.003,6.337,2.414,5.252,6.518c-1.185,4.469-5.162,3.485-8.396,3.328C369.772,127.771,368.102,125.839,368.719,120.59z"/>
	<path style="fill-rule:evenodd;clip-rule:evenodd;fill:#DCC8BB;" d="M245.062,139.2c7.385-5.701,1.582-11.907,0.691-17.923
		c6.034-0.221,10.58,1.744,9.178,8.694c-1.557,7.713,3.137,14.224,3.368,21.632c-7.42,0.706-7.256-8.573-13.168-9.491
		C245.077,141.145,245.054,140.171,245.062,139.2z"/>
	<path style="fill-rule:evenodd;clip-rule:evenodd;fill:#DF4292;" d="M258.208,171.575c-5.455,1.727-9.642,0.937-10.962-5.534
		c-2.017-5.102,1.503-7.603,4.792-10.21C259.171,159.088,259.224,165.124,258.208,171.575z"/>
	<path style="fill-rule:evenodd;clip-rule:evenodd;fill:#DB3288;" d="M323.799,395.158c0.087,2.959-0.301,5.855-3.783,6.494
		c-4.464,0.817-5.87-2.189-6.244-5.895c-0.299-2.959,0.137-5.842,3.661-6.484C321.906,388.459,323.296,391.421,323.799,395.158z"/>
	<path style="fill-rule:evenodd;clip-rule:evenodd;fill:#DF3F91;" d="M584.23,221.368c-0.017,1.042,0.215,2.029,0.693,2.956
		c-2.31,4.295-0.338,12.507-9.48,10.552c-3.361-0.72-4.241-3.05-3.491-6.32C573.514,221.726,577.569,219.373,584.23,221.368z"/>
	<path style="fill-rule:evenodd;clip-rule:evenodd;fill:#C2A393;" d="M426.526,69.639c3.104-1.151,6.341-2.035,9.267-3.532
		c2.625-1.342,5.594-3.217,7.03,0.298c1.191,2.926,1.857,7.435,0.415,9.839c-9.427,15.707-37.734,22.004-55.514,12.909
		c-1.479-0.757-3.08-1.751-4.653-1.794c-12.794-0.368-20.481-3.153-8.911-16.668c1.101-1.286,0.41-4.107,0.591-6.792
		c9.492,2.618,13.195,15.593,24.757,12.664C408.617,74.661,415.442,63.841,426.526,69.639z"/>
	<path style="fill-rule:evenodd;clip-rule:evenodd;fill:#E8D9D0;" d="M426.526,69.639c-10.679-4.218-16.105,12.065-27.021,6.923
		c4.626-11.389,16.838-9.31,25.335-13.752C426.456,61.966,426.338,67.122,426.526,69.639z"/>
	<path style="fill-rule:evenodd;clip-rule:evenodd;fill:#DD2987;" d="M279.799,121.283c-0.199,2.193-0.396,4.389-0.596,6.582
		c-4.603-0.565-10.311,2.963-13.32-3.294c-0.571-1.188-0.174-3.974,0.721-4.546C271.157,117.102,275.837,116.389,279.799,121.283z"
		/>
	<path style="fill-rule:evenodd;clip-rule:evenodd;fill:#D8C3B4;" d="M406.336,327.288c-1.285-5.785,7.485-11.69-0.204-17.401
		c0.014-1.118,0.044-2.236,0.087-3.351c5.383,0.429,13.96-2.062,14.345,4.864c0.365,6.511-4.82,13.331-7.563,20.016
		C410.779,330.039,408.556,328.663,406.336,327.288z"/>
	<path style="fill-rule:evenodd;clip-rule:evenodd;fill:#E0CEC2;" d="M426.995,309.518c5.547,3.12,7.291,8.948,10.02,14.074
		c-6.012-0.757-8.265,5.082-12.688,7.525C421.27,323.217,428.042,316.85,426.995,309.518z"/>
	<path style="fill-rule:evenodd;clip-rule:evenodd;fill:#DD3C8D;" d="M255.033,196.863c0.671-4.409,2.702-7.683,7.665-6.444
		c3.694,0.92,4.547,4.888,5.14,7.967c1.295,6.756-4.973,5.898-8.579,7.663C257.852,202.982,256.442,199.923,255.033,196.863z"/>
</g>
</svg>
