<?xml version="1.0" encoding="utf-8"?>
<!-- Generator: Adobe Illustrator 16.0.0, SVG Export Plug-In . SVG Version: 6.00 Build 0)  -->
<!DOCTYPE svg PUBLIC "-//W3C//DTD SVG 1.1//EN" "http://www.w3.org/Graphics/SVG/1.1/DTD/svg11.dtd">
<svg version="1.1" id="Capa_1" xmlns="http://www.w3.org/2000/svg" xmlns:xlink="http://www.w3.org/1999/xlink" x="0px" y="0px"
	 width="275px" height="327.891px" viewBox="0 0 275 327.891" enable-background="new 0 0 275 327.891" xml:space="preserve">
<image overflow="visible" enable-background="new    " width="229" height="284" xlink:href="592BB92.png"  transform="matrix(0.896 0 0 0.9007 91.4126 550.0457)">
</image>
<image overflow="visible" enable-background="new    " width="227" height="265" xlink:href="592BB96.png"  transform="matrix(0.9846 0 0 0.9847 -237 745.0007)">
</image>
<image overflow="visible" enable-background="new    " width="227" height="282" xlink:href="592BB91.png"  transform="matrix(0.9294 0 0 0.9327 -178.9526 448.8894)">
</image>
<image overflow="visible" enable-background="new    " width="228" height="280" xlink:href="592BB93.png"  transform="matrix(0.8831 0 0 0.8836 -491.1748 516.74)">
</image>
<image overflow="visible" enable-background="new    " width="226" height="285" xlink:href="592BB90.png"  transform="matrix(0.9601 0 0 0.9571 28.0073 27.5554)">
</image>
<rect x="822.922" y="203.944" fill="none" width="172" height="34"/>
<text transform="matrix(1 0 0 1 846.9219 211.8894)" font-family="'ArialMT'" font-size="21">Relog de arena</text>
<text transform="matrix(1 0 0 1 1056.9219 211.8894)" font-family="'ArialMT'" font-size="21">Rectangulo</text>
<text transform="matrix(1 0 0 1 867.9219 448.8894)" font-family="'ArialMT'" font-size="21">Óvalo</text>
<text transform="matrix(1 0 0 1 1074.9219 448.8894)" font-family="'ArialMT'" font-size="21">Triangulo</text>
</svg>
