<?xml version="1.0" encoding="utf-8"?>
<!-- Generator: Adobe Illustrator 16.0.0, SVG Export Plug-In . SVG Version: 6.00 Build 0)  -->
<!DOCTYPE svg PUBLIC "-//W3C//DTD SVG 1.1//EN" "http://www.w3.org/Graphics/SVG/1.1/DTD/svg11.dtd">
<svg version="1.1" id="Capa_1" xmlns="http://www.w3.org/2000/svg" xmlns:xlink="http://www.w3.org/1999/xlink" x="0px" y="0px"
	 width="779.528px" height="929.764px" viewBox="0 0 779.528 929.764" style="enable-background:new 0 0 779.528 929.764;"
	 xml:space="preserve">
<g>
	<path style="fill-rule:evenodd;clip-rule:evenodd;fill:#DBC8BA;" d="M517.936,449.186c3.877,20.224,8.243,40.3,17.676,58.854
		c-4.725,23.453-3.089,46.89,11.586,65.718c10.371,13.307,9.808,24.258,3.782,37.574c-3.524,7.793-7.065,15.616-9.919,23.667
		c-5.577,15.725-16.23,22.793-32.859,20.613c-4.846-9.396-11.364-14.067-22.661-10.248c-30.659,10.358-61.842,4.37-92.858,2.016
		c-15.15-1.146-24.856-10.801-32.114-22.789c-26.443-43.677-27.139-89.302-9.245-136.084c2.847-7.444,6.656-14.63,8.542-22.299
		c2.147-8.736,0.206-16.254-11.138-16.653c-15.288-0.543-17.117-9.356-14.828-22.212c2.949-16.572,6.026-32.959,3.368-50.37
		c-1.811-11.857,2.069-22.41,16.991-28.376c24.018-9.604,50.234-19.506,51.175-52.593c11.149-2.28,19.896,0.409,24.415,11.821
		c1.087,1.365,2.177,2.729,3.267,4.094l-0.047-0.097c-1.281,7.427,1.354,14.127,6.757,18.376
		c13.034,10.238,27.38,19.737,44.441,19.285c15.146-0.402,18.289,5.832,17.336,19.077c-1.505,20.972-0.07,41.977,3.602,62.65
		C506.501,438.526,504.543,449.772,517.936,449.186z M508.272,514.759c-0.181-0.392-0.295-0.848-0.57-1.156
		c-0.171-0.191-0.586-0.161-0.892-0.231c0.477,0.473,0.952,0.945,1.429,1.422c1.646,18.771-2.502,37.201-3.22,55.822
		c-0.218,5.714-2.146,14.57,6.892,14.543c7.159-0.02,9.201-8.239,9.634-14.201C522.997,550.968,522.007,531.282,508.272,514.759z
		 M406.377,641.86c5.44-0.325,11.949,1.305,12.485-7.475c0.379-6.254-1.864-9.993-8.589-9.547
		c-6.293,0.416-13.625,0.875-14.485,8.686C395.096,639.825,400.715,641.672,406.377,641.86z"/>
	<path style="fill-rule:evenodd;clip-rule:evenodd;fill:#C0A493;" d="M405.433,296.003c-0.94,33.087-27.157,42.99-51.175,52.593
		c-14.922,5.966-18.802,16.519-16.991,28.376c2.658,17.41-0.419,33.798-3.368,50.37c-2.289,12.856-0.459,21.669,14.828,22.212
		c11.344,0.399,13.286,7.917,11.138,16.653c-1.886,7.669-5.696,14.854-8.542,22.299c-17.894,46.782-17.198,92.407,9.245,136.084
		c7.258,11.988,16.964,21.643,32.114,22.789c31.017,2.354,62.199,8.343,92.858-2.016c11.297-3.819,17.815,0.852,22.661,10.248
		l0.101-0.121c-8.071,5.701-15.157,12.388-20.673,20.646c-4.949,0.023-8.316,2.401-10.268,6.892
		c-32.598,10.841-65.948,10.352-99.201,5.057c-60.625-9.654-109.779-39.053-147.802-91.029c-5.04,21.509-9.315,40.773-14.131,59.896
		c-2.636,10.47,1.204,16.904,9.844,22.789c11.673,7.954,24.972,13.567,35.015,23.893c-5.234,2.331-13.801-6.764-16.101,2.954
		c-3.558,15.02-6.859,30.576-6.561,45.83c0.152,7.766-0.582,14.269-3.367,21.042c-2.892-4.091-6.194-4.44-9.785-0.959
		c-3.705,3.595-1.063,7.035,0.061,10.761c2.342,7.77,7.147,4.946,11.842,3.27c1.378,5.848-11.854,6.012-5.384,13.839
		c-10.493,2.488-3.333,21.367-18.299,19.7c-10.548-32.473-11.338-65.939-10.575-99.633c0.124-5.5-2.138-11.049-3.298-16.579
		c4.737,1.529,10.546,7.629,13.058-2.086c2.25-8.701-2.501-12.326-10.792-12.35c3.132-7.243,6.507-14.446,3.744-22.665
		c6.633-7.619,8.821-14.383-3.544-18.329c6.567-6.331,19.699-9.634,10.675-23.155c2.319-5.569,4.353-11.192,3.279-17.399
		c9.534-5.57,9.601-15.268,10.692-24.52l-0.225,0.164c1.23-1.234,2.461-2.465,3.692-3.698l-0.222,0.234
		c8.082-11.979,19.952-21.904,20.556-37.933l-0.104,0.098c12.104-6.693,12.511-18.785,14.019-30.368
		c5.752-4.537,12.097-8.731,10.159-17.688c1.36-4.614,2.718-9.229,4.076-13.846c6.584,0.124,13.918,1.754,13.292-9.117
		c-0.578-10.027-7.585-7.224-13.292-7.301c1.4-8.786,15.724-17.983,5.587-25.203c-14.615-10.409-6.086-14.614,1.078-22.055
		c5.58-5.794,6.598-12.917-0.289-19.218c-0.05-1.104,0.123-2.28-0.185-3.31c-1.848-6.228,4.561-17.786-4.404-17.917
		c-8.051-0.117-5.003,11.589-5.501,18.46c-0.081,1.106-0.036,2.22-0.047,3.33c-5.766,16.049-11.533,32.098-17.299,48.146
		c-7.535-12.092-3.717-24.412,1.17-35.562c9.05-20.646,13.772-41.806,12.925-64.27c4.43,1.673,0.882,11.867,8.69,9.034
		c5.444-1.979,5.231-7.857,4.037-12.876c-0.491-2.066-1.884-3.917-2.869-5.862c-0.063-2.049-0.129-4.098-0.194-6.143
		c40.927,25.616,86.619,14.785,113.013-26.91C397.088,299.293,398.314,293.516,405.433,296.003z M221.92,742.412
		c-3.045-3.216-0.761-11.559-9.384-10.962c-5.33,0.369-6.504,3.917-5.731,8.172c1.065,5.852,4.061,10.849,10.682,10.734
		C221.062,750.295,223.178,747.14,221.92,742.412z"/>
	<path style="fill-rule:evenodd;clip-rule:evenodd;fill:#3E3C3C;" d="M405.433,296.003c-7.119-2.488-8.345,3.29-11.037,7.542
		c-26.394,41.695-72.086,52.526-113.013,26.91c-28.357-30.284-23.3-64.95-13.157-100.287c16.8,2.468,14.127-8.876,13.38-18.859
		c11.798-18.326,11.755-39.264,13.202-59.873c9.273-6.224,14.453-13.631,7.149-24.66c0.04-3.447,0.079-6.891,0.119-10.338
		c3.719-4.339,8.207-6.924,14.142-6.21c0.22,5.04,3.325,8.035,7.354,10.375c-0.86,24.54-1.189,49.116-2.902,73.595
		c-0.521,7.438,3.343,8.239,7.986,10.56c21.847,10.928,43.419,22.001,60.066,40.964c15.058,17.149,28.83,16.908,44.671-0.382
		c15.777-17.216,30.525-35.333,53.871-42.942c5.348-1.74,8.185-5.938,9.748-11.129l0.174-0.993
		c0.077-5.788,0.154-11.572,0.231-17.36c-0.114-3.33-0.231-6.656-0.346-9.986c-0.137-10.617-0.278-21.233-0.415-31.85
		c8.48-2.417,7.337-8.276,5.188-14.497c4.855,0.685,10.479-2.431,14.396,2.904c1.157,6.868,2.313,13.735,3.471,20.606
		c-7.451,8.547,1.134,13.966,4,20.505c3.669,20.271,2.851,42.141,20.412,57.479c-6.754,3.819-9.96,9.289-6.995,16.924
		c1.321,3.403,4.557,5.378,8.239,4.322c6.036-1.737,3.742-7.34,4.627-11.448c6.485,4.571,8.424,11.663,10.439,18.738
		c5.932,20.811,2.85,41.46-1.013,62.103c-2.013,1.184-4.024,2.371-6.036,3.558c-1.324-5.382-4.034-10.422-10.15-9
		c-5.802,1.352-4.108,7.431-3.706,11.623c0.369,3.83,2.18,7.515,3.354,11.264c0.064,1.13,0.124,2.26,0.185,3.391
		c-2.189,2.481-4.379,4.966-6.572,7.451c-21.643,6.928-43.017,8.494-64.709-0.688c-14.382-6.086-25.968-16.096-38.717-24.492
		c0,0,0.047,0.097,0.043,0.097c-1.09-1.365-2.176-2.729-3.263-4.094C425.329,296.413,416.583,293.723,405.433,296.003z
		 M282.369,258.919c1.67-5.687-2.265-7.028-6.385-7.538c-8.004-0.986-7.531,4.886-7.588,10.083c-0.054,4.879,0.54,9.57,7.079,9.151
		C283.213,270.116,281.193,263.527,282.369,258.919z M271.333,301.563c0.263,5.194-0.897,10.965,7.194,10.828
		c6.609-0.11,7.003-4.383,6.786-9.269c-0.247-5.5-1.61-10.546-8.144-11.002C269.621,291.594,272.025,297.768,271.333,301.563z
		 M542.469,261.575c-5.258,1.626-6.589,6.16-6.79,11.492c-0.208,5.52,2.099,8.568,7.89,7.874c7.512-0.902,5.892-6.844,5.976-11.592
		C549.619,265.133,548.445,261.552,542.469,261.575z"/>
	<path style="fill-rule:evenodd;clip-rule:evenodd;fill:#3D3C3C;" d="M261.087,703.634c-10.043-10.325-23.342-15.938-35.015-23.893
		c-8.64-5.885-12.479-12.319-9.844-22.789c4.815-19.123,9.091-38.388,14.131-59.896c38.023,51.977,87.177,81.375,147.802,91.029
		c33.253,5.295,66.604,5.784,99.201-5.057c2.263-0.154,4.526-0.309,6.79-0.463c7.683,0.06,14.721-1.751,20.529-7.106
		c5.254-0.892,9.861-3.044,13.547-6.981c15.372-6.676,26.471-18.849,38.644-29.724c13.394-11.968,23.876-27.366,40.903-35.102
		c0.966,1.378,1.936,2.753,2.901,4.131c-0.802,10.375,0.929,20.408,5.609,29.606c7.881,15.472,1.817,25.421-11.515,33.704
		c-10.896,6.767-23.855,10.804-31.297,22.43c-38.385,18.695-68.739,47.262-96.753,78.702
		c-11.877,10.492-15.184,26.344-24.261,38.653c-15.036,20.396-37.196,23.232-56.025,6.261c-11.556-10.415-18.938-24.2-28.371-36.333
		c-6.943-8.933-13.14-18.741-24.893-22.329C310.732,738.106,285.698,721.145,261.087,703.634z"/>
	<path style="fill-rule:evenodd;clip-rule:evenodd;fill:#D8C4B6;" d="M302.076,116.438c-0.041,3.447-0.079,6.891-0.119,10.338
		c-10.458,5.878-20.209,11.964-7.149,24.66c-1.447,20.609-1.403,41.547-13.2,59.863c-22.271-6.345-10.987,11.109-13.381,18.869
		c-10.144,35.337-15.201,70.003,13.157,100.287c0.065,2.045,0.131,4.094,0.194,6.14c-5.808,0.674-9.76,3.236-9.859,9.708
		c0.847,22.464-3.875,43.623-12.925,64.27c-4.888,11.149-8.706,23.47-1.17,35.562c-12.03,57.516-37.014,109.895-64.416,161.243
		c-8.303,15.563-17.85,30.465-26.938,45.602c-3.057,5.091-3.04,10.067-2.792,16.069c0.758,18.369,5.03,37.128-2.823,55.102
		c-10.387-5.047-6.541-16.783-11.453-24.496c-3.744-5.875-6.323-12.853-15.252-7.558c-12.552,7.438-24.648,39.451-20.35,53.649
		c-1.974,17.259-7.444,34.603,1.779,52.029c-16.295-5.882-21.847-18.118-22.534-33.563c-1.236-27.741,9.334-52.619,20.68-76.699
		c24.508-52.023,49.498-103.762,65.956-159.104c0.75-2.519,3.223-4.523,4.901-6.771c12.919-22.135,22.147-45.639,24.888-71.231
		c0.621-5.784,3.639-15.086-8.499-14.081c-0.745-6.596,1.033-12.471,5.082-17.695c7.479-8.276,15.088-16.535,3.763-27.396
		c0.223-19.533,6.222-38.02,10.739-56.714c4.032-16.689,6.477-33.329,6.12-50.547c-0.635-30.676-0.219-61.373,3.772-91.851
		C235.81,149.635,261.073,125.478,302.076,116.438z M278.883,187.866c6.306-2.468,6.304-8.256,6.356-13.849
		c0.039-4.125-2.449-6.76-6.383-5.432c-6.232,2.099-7.359,8.038-7.429,13.638C271.376,186.223,274.736,187.706,278.883,187.866z"/>
	<path style="fill-rule:evenodd;clip-rule:evenodd;fill:#DBC8BB;" d="M544.123,218.076c-17.562-15.338-16.743-37.208-20.408-57.476
		c5.368-0.238,11.425-1.556,11.079-7.662c-0.477-8.363-6.888-12.247-15.083-12.847c-1.157-6.871-2.313-13.738-3.471-20.606
		c20.525,11.415,45.806,15.388,58.77,38.583c9.701,17.36,14.067,36.538,14.933,55.628c2.388,52.694,17.414,101.729,38.097,149.611
		c7.444,17.236,13.558,35.029,14.355,54.189c0.161,3.826,1.033,8.498,3.384,11.217c27.215,31.514,35.364,71.08,45.474,109.442
		c11.861,45.011,34.113,85.646,50.87,128.565c7.149,18.306,11.528,36.92,9.989,56.685c-0.547,7.035-0.499,14.402-10.857,13.45
		c-1.097-7.069,5.281-16.707-6.858-19.993c0.178-1.049,0.43-2.082,0.745-3.095c3.199-0.393,9.365,0.131,8.329-3.303
		c-5.479-18.182-5.178-38.992-21.896-52.473c-8.209-6.619-18.726-8.511-23.983,0.529c-4.996,8.592-14.396,20.057-1.502,30.814
		c0.292,11.938,0.761,23.875,0.758,35.813c0,3.227-1.02,7.357-5.459,6.901c-3.213-0.325-3.783-3.866-4.135-6.717
		c-6.388-51.366-19.476-101.316-31.863-151.422c3.772-2.702,4.41-6.509,3.424-10.64c-4.986-20.925-8.49-42.365-15.432-62.626
		c-15.284-44.606-35.391-87.173-58.385-128.402c-9.349-16.76-20.013-33.416-18.329-54.092c0.423-5.191-1.388-8.94-7.246-9.437
		c3.862-20.643,6.944-41.292,1.013-62.103c-2.016-7.075-3.954-14.167-10.442-18.742
		C549.427,223.767,549.179,219.481,544.123,218.076z M549.944,187.655c-0.58-3.725,0.117-8.641-5.624-8.551
		c-4.479,0.07-4.912,3.92-4.886,7.404c0.03,3.903-0.382,8.564,5.437,8.45C549.31,194.868,549.92,191.287,549.944,187.655z"/>
	<path style="fill-rule:evenodd;clip-rule:evenodd;fill:#DBC7BA;" d="M466.721,772.226c28.014-31.44,58.368-60.007,96.753-78.702
		c25.787,11.364,44.764,28.319,47.862,58.308l0.057-0.063c-3.139-0.084-5.865,0.449-6.395,4.271
		c-0.044,0.902-0.285,1.744-0.722,2.535c-5.774,11.381-11.552,22.763-17.329,34.144c-5.433,7.229-4.158,13.102,3.571,17.669
		c7.873,2.166,10.006,10.287,15.811,17.604c6.884-19.637,9-37.443,8.417-55.695l-0.051,0.063c2.891-1.469,3.431-4.044,3.279-6.944
		c0.654-4.939-0.101-9.507-3.537-13.362c4.114-6.291,3.833-13.403,3.836-20.466c4.933-0.204,6.401-5.328,10.184-7.169
		c3.659,41.098-9.014,80.07-15.079,119.944c-3.209,21.108-8.723,42.393-2.884,64.306c2.991,11.228,0.999,19.47-14.879,18.661
		c-26.803-1.361-53.713-0.536-80.58-0.634c0.007-12.548,1.214-25.243-0.271-37.613c-2.035-16.961,0.369-34.438-1.73-50.357
		c-2.068-15.659-20.009-27.617-28.714-43.069C479.689,787.433,479.156,774.942,466.721,772.226z M560.772,840.614
		c4.875-1.332,9.885-3.85,11.686-9.829c1.207-4.004-1.448-6.488-5.302-6.844c-6.77-0.62-10.388,3.836-12.276,9.393
		C553.639,836.992,555.749,839.762,560.772,840.614z M538.445,856.092c-0.318-4.309-2.843-6.851-6.432-6.951
		c-5.026-0.138-10.63,0.429-12.447,6.317c-1.097,3.558,1.429,7.81,4.611,7.867C529.767,863.426,534.861,860.589,538.445,856.092z"/>
	<path style="fill-rule:evenodd;clip-rule:evenodd;fill:#DAC7B9;" d="M497.012,191.267c-1.563,5.191-4.4,9.389-9.748,11.129
		c-23.346,7.609-38.094,25.727-53.871,42.942c-15.841,17.29-29.613,17.531-44.671,0.382c-16.647-18.963-38.22-30.036-60.066-40.964
		c-4.643-2.32-8.507-3.122-7.986-10.56c1.713-24.479,2.042-49.055,2.901-73.598c10.71,1.026,15.525-3.223,12.757-14.258
		c11.261-3.316,16.317-13.708,24.033-21.065c-1.103,6.264,8.937,10.315,3.462,17.444c-0.644,0.369-1.338,0.55-2.079,0.54
		c-2.579,0.121-4.156,0.64-1.162,2.954c4.611,15.955,12.179,13.759,21.071,3.431c9.711,5.312,19.481,10.221,30.808,4.53
		c3.239-0.436,6.479-0.869,9.718-1.305c8.001-1.056,16.002-2.116,24.003-3.172c9.114,5.144,16.932,7.079,18.142-7.33
		c5.945,5.938,11.972,11.743,21.126,12.055c-3.089,10.14,4.302,13.235,11.207,16.656c0.137,10.617,0.278,21.233,0.412,31.823
		c-2.1,3.397-2.689,6.771,0.349,10.013c-0.077,5.788-0.154,11.572-0.231,17.34c0-0.02-0.748,0.396-0.748,0.396L497.012,191.267z"/>
	<path style="fill-rule:evenodd;clip-rule:evenodd;fill:#DBC7BA;" d="M261.087,703.634c24.611,17.511,49.646,34.472,72.084,54.844
		c1.267,3.058,3.549,6.086,3.64,9.175c0.721,24.411-5.201,48.515-10.551,71.576c-2.307,9.949,0.528,13.158,3.313,19.254
		c-5.778-0.295-11.883-5.13-17.08,1.868c-4.521,6.086,3.363,7.216,3.994,11.163c-1.288,18.396-2.577,36.789-3.865,55.182
		c-27.965,0.094-55.931,0.014-83.893,0.386c-8.348,0.11-12.508-2.133-12.458-11.479c0.169-31.866,1.11-63.776-2.78-95.532
		c14.968,1.667,7.808-17.212,18.301-19.7c-6.47-7.827,6.762-7.991,5.382-13.843c5.753-5.402-0.69-8.829-2.116-13.067
		c2.785-6.773,3.519-13.276,3.367-21.042c-0.298-15.254,3.003-30.811,6.561-45.83C247.286,696.871,255.853,705.965,261.087,703.634z
		 M289.013,851.387c2.285-0.761,6.115-1.509,5.501-5.881c-0.937-6.674-6.428-8.826-12.13-9.544
		c-3.556-0.446-7.189,1.626-6.412,5.707C277.141,847.787,281.631,850.958,289.013,851.387z M263.585,816.896
		c-1.799-5.342-5.798-8.816-11.835-9.678c-2.614-0.372-7.109-0.477-6.514,2.887c1.035,5.855,4.399,11.509,10.71,13.015
		C258.882,823.82,262.24,821.302,263.585,816.896z"/>
	<path style="fill-rule:evenodd;clip-rule:evenodd;fill:#C0A392;" d="M312.622,926.7c1.288-18.396,2.577-36.789,3.863-55.186
		c10.659,1.985,15.42-1.958,13.088-13.031c-2.785-6.096-5.62-9.305-3.313-19.254c5.351-23.062,11.272-47.165,10.551-71.576
		c-0.09-3.089-2.373-6.117-3.64-9.175c11.753,3.588,17.95,13.396,24.893,22.329c9.433,12.133,16.815,25.918,28.371,36.333
		c18.829,16.972,40.989,14.135,56.025-6.261c9.077-12.31,12.384-28.161,24.261-38.653c12.435,2.716,12.968,15.207,17.599,23.43
		c8.705,15.452,26.646,27.41,28.714,43.069c2.1,15.919-0.305,33.396,1.73,50.357c1.485,12.37,0.278,25.065,0.271,37.613
		c-23.355,0.154-46.722-0.066-70.061,0.641c-10.05,0.306-12.887-3.756-12.347-13.058c1.365-23.486-3.159-46.443-7.334-69.376
		c-1.469-8.068-3.551-14.865-14.952-14.212c-12.104,0.694-11.551,8.159-11.991,16.341c-0.463,8.628,2.959,18.362-6.326,24.774
		c-1.89,7.189,3.184,11.76,6.41,17.028c-3.753,6.334-8.139,12.97-6.691,20.435c3.298,17.005-5.605,18.769-19.23,18.107
		C352.585,926.411,332.589,926.854,312.622,926.7z M444.664,885.856c6.083-0.218,11.324-1.918,11.568-9.101
		c0.151-4.383-3.453-5.033-7.048-4.906c-5.815,0.208-11.616,0.963-12.455,8.169C436.066,885.715,440.727,885.618,444.664,885.856z
		 M364.396,882.245c3.645-0.473,9.374,0.999,9.161-4.53c-0.27-7.002-6.842-8.118-12.441-8.726c-4.916-0.533-7.218,2.398-6.822,7.257
		C354.837,882.912,360.021,881.903,364.396,882.245z M497.8,868.305c-0.067-4.175-1.959-6.637-6.325-5.667
		c-5.358,1.19-9.269,4.343-10.217,10.046c-0.563,3.37,1.476,6.352,4.594,4.896C490.349,875.481,498.33,877.041,497.8,868.305z"/>
	<path style="fill-rule:evenodd;clip-rule:evenodd;fill:#DBC8BB;" d="M366.778,74.33c-3.065-19.677-15.241-35.441-22.974-53.109
		c-3.341-7.639-3.398-11.375,6.576-11.308c39.938,0.269,79.881,0.272,119.818-0.01c9.319-0.067,11.2,3.434,7.36,11.17
		c-2.264,4.56-4.332,9.402-7.508,13.289c-10.912,13.356-19.966,27.598-24.036,44.585c-4.544-0.131-9.477-1.258-13.229,2.039
		c-19.763,17.354-38.392,12.337-56.863-2.287C373.34,76.657,369.85,75.759,366.778,74.33z"/>
	<path style="fill-rule:evenodd;clip-rule:evenodd;fill:#C3A797;" d="M559.42,308.716c5.858,0.497,7.669,4.246,7.246,9.437
		c-1.684,20.676,8.98,37.332,18.329,54.092c22.994,41.229,43.101,83.796,58.385,128.402c6.941,20.261,10.445,41.701,15.432,62.626
		c0.986,4.131,0.349,7.938-3.424,10.64c-11.767-33.489-32.315-62.663-47.087-94.375c-15.941-34.234-28.211-70.563-42.081-105.981
		c-3.293-8.406-4.788-17.833-12.621-23.858c-0.486-1.429-0.977-2.86-1.469-4.292c-0.46-6.75,1.687-14.989-9.064-15.854
		c-0.061-1.13-0.12-2.26-0.185-3.391c6.305-2.511,11.066-6.187,10.503-13.886C555.396,311.087,557.408,309.9,559.42,308.716z"/>
	<path style="fill-rule:evenodd;clip-rule:evenodd;fill:#C0A494;" d="M597.775,603.653c-17.027,7.735-27.51,23.134-40.903,35.102
		c-12.173,10.875-23.271,23.048-38.644,29.724c0.825-7.487-11.304-5.076-9.926-12.987l-0.101,0.121
		c16.629,2.18,27.282-4.889,32.859-20.613c2.854-8.051,6.395-15.874,9.919-23.667c6.025-13.316,6.589-24.268-3.782-37.574
		c-14.675-18.828-16.311-42.265-11.586-65.718c15.146,26.119,35.767,48.224,53.271,72.616
		C593.859,587.593,599.505,594.166,597.775,603.653z"/>
	<path style="fill-rule:evenodd;clip-rule:evenodd;fill:#C0A494;" d="M433.068,311.821c12.749,8.396,24.335,18.406,38.717,24.492
		c21.692,9.182,43.066,7.616,64.709,0.688c-7.86,37.118-15.633,74.252-18.554,112.188c-13.396,0.583-11.438-10.663-12.736-17.98
		c-3.672-20.673-5.106-41.678-3.602-62.65c0.953-13.246-2.189-19.479-17.336-19.077c-17.062,0.453-31.407-9.047-44.441-19.285
		C434.422,325.949,431.787,319.249,433.068,311.821z"/>
	<path style="fill-rule:evenodd;clip-rule:evenodd;fill:#C0A494;" d="M611.336,751.832c-3.099-29.988-22.075-46.943-47.862-58.308
		c7.441-11.626,20.401-15.663,31.297-22.43c13.332-8.283,19.396-18.232,11.515-33.704c-4.681-9.198-6.411-19.231-5.609-29.606
		c8.939,4.051,3.35,17.866,13.973,20.79c-1.412,6.274,2.947,11.328,3.635,17.159c-7.333,7.928,0.242,15.747,0.171,23.621
		c-0.184,8.973-2.444,19.489,12.683,17.128c-10.593,6.821-4.591,15.808-3.162,24.201c-16.568,0.778-15.67,9.664-9.701,20.904
		c-0.003,7.063,0.278,14.175-3.833,20.462C613.398,752.096,612.362,752.023,611.336,751.832z"/>
	<path style="fill-rule:evenodd;clip-rule:evenodd;fill:#C0A494;" d="M366.778,74.33c3.072,1.429,6.563,2.327,9.145,4.37
		c18.472,14.624,37.101,19.64,56.863,2.287c3.753-3.296,8.686-2.169,13.229-2.039c2.571,6.603,5.147,13.202,7.723,19.805
		c-4.719,2.129-7.126,5.852-7.556,10.945c-8.001,1.057-16.002,2.116-24.003,3.172c-0.456-4.997,2.938-11.831-5.646-13.088
		c-5.201-0.758-11.137,0.637-12.915,5.338c-2.661,7.035,4.795,6.985,8.844,9.054c-11.327,5.69-21.097,0.781-30.808-4.53
		c-3.588-8.374-11.235-6.294-17.83-6.925c5.474-7.129-4.565-11.18-3.462-17.444C359.982,80.148,365.069,78.23,366.778,74.33z"/>
	<path style="fill-rule:evenodd;clip-rule:evenodd;fill:#C0A494;" d="M696.087,689.336c-12.894-10.758-3.494-22.223,1.502-30.814
		c5.258-9.04,15.774-7.148,23.983-0.529c16.719,13.48,16.418,34.291,21.896,52.473c1.036,3.434-5.13,2.91-8.329,3.303
		c-7.032-13.296-22.48-18.229-30.177-32.067C700.674,673.985,697.794,684.732,696.087,689.336z"/>
	<path style="fill-rule:evenodd;clip-rule:evenodd;fill:#C3A797;" d="M113.599,745.746c-4.299-14.198,7.798-46.212,20.35-53.649
		c8.93-5.295,11.508,1.683,15.252,7.558c4.913,7.713,1.066,19.449,11.453,24.496c-0.039,3.33-0.074,6.659-0.103,9.993
		c-3.811-0.051-7.628-0.101-11.445-0.151c-1.572-5.211,1.997-13.041-3.749-15.452c-6.246-2.619-11.475,3.347-15.632,7.813
		C124.007,732.497,118.944,739.25,113.599,745.746z"/>
	<path style="fill-rule:evenodd;clip-rule:evenodd;fill:#C3A797;" d="M200.77,436.326c12.137-1.006,9.119,8.296,8.499,14.081
		c-2.741,25.592-11.969,49.096-24.888,71.231C184.622,492.199,188.208,463.4,200.77,436.326z"/>
	<path style="fill-rule:evenodd;clip-rule:evenodd;fill:#C3A797;" d="M734.395,716.863c12.14,3.286,5.762,12.924,6.858,19.993
		c-3.287,0.241-6.569,0.492-9.853,0.744c-3.44-3.877-6.844-3.859-10.214,0.098c-5.902-0.044-11.991-0.939-12.589-8.015
		c-0.674-7.964,6.19-7.525,11.616-8.618C725.03,720.092,729.674,718.295,734.395,716.863z"/>
	<path style="fill-rule:evenodd;clip-rule:evenodd;fill:#D8C4B6;" d="M149.106,733.992c3.816,0.051,7.634,0.101,11.445,0.151
		c1.33,12.26,1.828,24.415-4.691,36.923C145.073,759.527,147.204,746.738,149.106,733.992z"/>
	<path style="fill-rule:evenodd;clip-rule:evenodd;fill:#DD3E8F;" d="M541.738,399.537c1.107-4.497,0.275-11.167,6.147-10.713
		c6.29,0.486,8.671,6.364,8.437,12.652c-0.201,5.389-3.394,8.695-8.396,8.749C539.981,410.314,541.705,404.101,541.738,399.537z"/>
	<path style="fill-rule:evenodd;clip-rule:evenodd;fill:#DD3E8F;" d="M398.435,888.834c-3.227-5.269-8.3-9.839-6.41-17.028
		c1.698,0.033,3.538-0.359,5.055,0.171c6.313,2.206,17.486-2.338,18.015,7.36C415.563,887.918,405.222,887.493,398.435,888.834z"/>
	<path style="fill-rule:evenodd;clip-rule:evenodd;fill:#DD3E8F;" d="M552.13,345.404c0.492,1.432,0.982,2.864,1.469,4.292
		c-0.664,5.523,3.85,13.068-4.963,15.489c-4.859,1.338-6.7-2.927-7.468-6.955C539.501,349.512,544.34,346.146,552.13,345.404z"/>
	<path style="fill-rule:evenodd;clip-rule:evenodd;fill:#DD3E8F;" d="M496.657,131.078c-6.905-3.42-14.296-6.516-11.207-16.656
		c5.734-1.325,11.485-2.807,16.391,2.159C503.994,122.802,505.137,128.661,496.657,131.078z"/>
	<path style="fill-rule:evenodd;clip-rule:evenodd;fill:#DD3E8F;" d="M578.279,509.08c5.791,2.568,8.719,7.326,8.632,13.383
		c-0.057,4.017-3.833,6.247-7.233,5.248c-5.197-1.526-8.319-6.15-9.225-11.321C569.49,510.9,574.825,510.752,578.279,509.08z"/>
	<path style="fill-rule:evenodd;clip-rule:evenodd;fill:#DB3088;" d="M336.328,106.341c2.768,11.036-2.047,15.284-12.757,14.258
		c-4.027-2.337-7.133-5.332-7.353-10.372C322.88,108.698,329.058,104.698,336.328,106.341z"/>
	<path style="fill-rule:evenodd;clip-rule:evenodd;fill:#DD3E8F;" d="M559.467,491.095c-6.271-0.861-9.57-4.872-10.137-11.317
		c-0.256-2.951,0.06-6.109,4.033-5.771c6.365,0.539,10.312,4.426,11.878,10.489C566.358,488.825,564.007,490.807,559.467,491.095z"
		/>
	<path style="fill-rule:evenodd;clip-rule:evenodd;fill:#DB3088;" d="M618.274,731.587c-5.969-11.24-6.867-20.126,9.701-20.904
		c0.161,4.577,0.325,9.154,0.486,13.735C624.675,726.259,623.207,731.383,618.274,731.587z"/>
	<path style="fill-rule:evenodd;clip-rule:evenodd;fill:#DD3E8F;" d="M202.085,648.429c12.365,3.946,10.177,10.71,3.544,18.329
		C190.674,663.314,194.25,656.286,202.085,648.429z"/>
	<path style="fill-rule:evenodd;clip-rule:evenodd;fill:#DD3E8F;" d="M595.887,546.016c5.134,0.936,8.125,4.124,8.403,9.255
		c0.198,3.628,1.915,9.121-4.262,9.117c-4.879,0-8.396-3.483-9.114-8.705C590.331,551.452,591.008,547.635,595.887,546.016z"/>
	<path style="fill-rule:evenodd;clip-rule:evenodd;fill:#DD3E8F;" d="M216.04,607.875c1.073,6.207-0.96,11.83-3.279,17.399
		c-10.667,0.752-10.989-5.455-8.73-13.175C206.029,605.269,209.521,602.126,216.04,607.875z"/>
	<path style="fill-rule:evenodd;clip-rule:evenodd;fill:#DD3E8F;" d="M250.534,542.123c-5.278,0.661-11.08,9.182-15.602,0.245
		c-2.594-5.128,1.575-10.382,6.331-12.217c15.596-6.019,6.013,8.035,9.168,12.065C250.43,542.22,250.534,542.123,250.534,542.123z"
		/>
	<path style="fill-rule:evenodd;clip-rule:evenodd;fill:#DB3088;" d="M278.683,463.9c5.708,0.077,12.714-2.726,13.292,7.301
		c0.625,10.871-6.708,9.241-13.292,9.117C278.683,474.845,278.683,469.373,278.683,463.9z"/>
	<path style="fill-rule:evenodd;clip-rule:evenodd;fill:#DB3088;" d="M274.922,397.988c0.012-1.11-0.033-2.224,0.047-3.33
		c0.498-6.871-2.55-18.577,5.501-18.46c8.965,0.131,2.557,11.689,4.404,17.917c0.307,1.029,0.134,2.206,0.185,3.31
		C281.681,397.612,278.303,397.8,274.922,397.988z"/>
	<path style="fill-rule:evenodd;clip-rule:evenodd;fill:#DB3088;" d="M274.607,494.164c1.938,8.957-4.406,13.151-10.159,17.688
		c-5.28-0.929-8.159-4.021-5.986-9.181C261.364,495.777,267.398,493.543,274.607,494.164z"/>
	<path style="fill-rule:evenodd;clip-rule:evenodd;fill:#DB3088;" d="M631.137,686.482c-15.127,2.361-12.866-8.155-12.683-17.128
		C632.07,668.113,633.958,675.554,631.137,686.482z"/>
	<path style="fill-rule:evenodd;clip-rule:evenodd;fill:#DB3088;" d="M201.886,689.423c8.291,0.023,13.042,3.648,10.792,12.35
		c-2.512,9.715-8.321,3.615-13.058,2.086C199.557,698.919,197.446,693.659,201.886,689.423z"/>
	<path style="fill-rule:evenodd;clip-rule:evenodd;fill:#DB3088;" d="M610.193,587.06c6.458-1.043,8.45,2.28,8.306,7.669
		c-0.11,4.252,1.513,9.883-5.657,9.682c-5.995-0.172-6.432-5.453-7.414-9.742C604.475,590.521,604.17,586.396,610.193,587.06z"/>
	<path style="fill-rule:evenodd;clip-rule:evenodd;fill:#DB3088;" d="M446.182,109.697c0.43-5.093,2.837-8.815,7.556-10.945
		c3.577,1.06,8.182-0.882,10.586,3.615C463.114,116.776,455.296,114.841,446.182,109.697z"/>
	<path style="fill-rule:evenodd;clip-rule:evenodd;fill:#DB3088;" d="M618.284,645.733c-0.688-5.831-5.047-10.885-3.635-17.159
		c7.615-1.397,13.088,0.416,14.158,9.198C629.879,646.578,623.955,645.948,618.284,645.733z"/>
	<path style="fill-rule:evenodd;clip-rule:evenodd;fill:#DB3088;" d="M556.721,441.771c0.462,4.997-0.829,9.031-5.621,8.974
		c-6.579-0.081-5.566-5.664-5.318-9.933c0.212-3.611-0.496-8.42,5.416-8.272C558.253,432.718,555.826,438.596,556.721,441.771z"/>
	<path style="fill-rule:evenodd;clip-rule:evenodd;fill:#DB3088;" d="M226.732,583.355c-4.319-0.627-11.812,2.793-10.006-6.224
		c0.858-4.282,1.573-11.378,8.5-10.54c9.271,1.12,3.201,8.9,4.751,13.464l0.222-0.234c-1.231,1.23-2.461,2.464-3.692,3.698
		L226.732,583.355z"/>
	<path style="fill-rule:evenodd;clip-rule:evenodd;fill:#C3A797;" d="M209.614,391.234c11.326,10.861,3.717,19.121-3.763,27.396
		C206.577,409.426,203.47,399.694,209.614,391.234z"/>
	<path style="fill-rule:evenodd;clip-rule:evenodd;fill:#DBC8BB;" d="M721.187,737.698c3.37-3.957,6.773-3.975,10.214-0.098
		C728.041,742.161,724.634,742.06,721.187,737.698z"/>
	<path style="fill-rule:evenodd;clip-rule:evenodd;fill:#C3A797;" d="M508.272,514.759c13.735,16.522,14.725,36.209,13.272,56.198
		c-0.433,5.962-2.475,14.182-9.634,14.201c-9.037,0.027-7.109-8.829-6.892-14.543c0.718-18.621,4.866-37.051,3.22-55.822
		L508.272,514.759z"/>
	<path style="fill-rule:evenodd;clip-rule:evenodd;fill:#C3A797;" d="M406.359,641.846c-5.644-0.174-11.263-2.021-10.57-8.322
		c0.86-7.811,8.192-8.27,14.485-8.686c6.725-0.446,8.968,3.293,8.589,9.547C418.327,643.165,411.818,641.535,406.359,641.846z"/>
	<path style="fill-rule:evenodd;clip-rule:evenodd;fill:#C3A797;" d="M508.239,514.793c-0.477-0.477-0.952-0.949-1.429-1.422
		c0.306,0.07,0.721,0.04,0.892,0.231c0.275,0.309,0.39,0.765,0.57,1.156L508.239,514.793z"/>
	<path style="fill-rule:evenodd;clip-rule:evenodd;fill:#C0A494;" d="M429.848,307.824c1.087,1.365,2.173,2.729,3.263,4.094
		C432.025,310.554,430.935,309.189,429.848,307.824z"/>
	<path style="fill-rule:evenodd;clip-rule:evenodd;fill:#D8C4B6;" d="M508.302,655.491c-1.378,7.911,10.751,5.5,9.926,12.987
		c-3.686,3.938-8.293,6.09-13.547,6.981c-5.892-4.956-11.233,2.968-17.008,0.729l-0.044-0.051
		C493.145,667.878,500.231,661.192,508.302,655.491z"/>
	<path style="fill-rule:evenodd;clip-rule:evenodd;fill:#DD3E8F;" d="M221.92,742.412c1.257,4.729-0.858,7.884-4.433,7.944
		c-6.621,0.114-9.617-4.883-10.682-10.734c-0.773-4.255,0.401-7.803,5.731-8.172C221.159,730.853,218.875,739.196,221.92,742.412z"
		/>
	<path style="fill-rule:evenodd;clip-rule:evenodd;fill:#DD3E8F;" d="M235.059,773.46c1.425,4.238,7.869,7.665,2.116,13.067
		c-4.693,1.681-9.498,4.504-11.84-3.266c-1.124-3.726-3.766-7.166-0.061-10.761C228.865,769.02,232.167,769.37,235.059,773.46z"/>
	<path style="fill-rule:evenodd;clip-rule:evenodd;fill:#DB3088;" d="M271.718,346.303c0.099-6.472,4.051-9.034,9.859-9.708
		c0.984,1.948,2.377,3.799,2.869,5.865c1.194,5.02,1.407,10.898-4.037,12.876C272.601,358.17,276.148,347.977,271.718,346.303z"/>
	<path style="fill-rule:evenodd;clip-rule:evenodd;fill:#D8C4B6;" d="M484.152,682.566c-2.264,0.154-4.527,0.309-6.79,0.463
		c1.951-4.49,5.318-6.868,10.268-6.892l0.044,0.051C486.5,678.314,485.326,680.44,484.152,682.566z"/>
	<path style="fill-rule:evenodd;clip-rule:evenodd;fill:#FEFEFE;" d="M226.508,583.519c1.23-1.234,2.461-2.468,3.692-3.698
		C228.969,581.054,227.738,582.285,226.508,583.519z"/>
	<path style="fill-rule:evenodd;clip-rule:evenodd;fill:#DD3E8F;" d="M519.71,140.092c8.195,0.6,14.606,4.483,15.083,12.847
		c0.346,6.106-5.711,7.424-11.079,7.662C520.844,154.058,512.259,148.639,519.71,140.092z"/>
	<path style="fill-rule:evenodd;clip-rule:evenodd;fill:#DB3088;" d="M294.808,151.436c-13.06-12.696-3.308-18.782,7.149-24.66
		C309.26,137.805,304.081,145.212,294.808,151.436z"/>
	<path style="fill-rule:evenodd;clip-rule:evenodd;fill:#BE2377;" d="M282.352,258.936c-1.159,4.591,0.861,11.18-6.878,11.68
		c-6.539,0.419-7.132-4.272-7.079-9.151c0.057-5.197-0.416-11.069,7.588-10.083C280.104,251.891,284.039,253.232,282.352,258.936z"
		/>
	<path style="fill-rule:evenodd;clip-rule:evenodd;fill:#DB3088;" d="M553.384,312.274c0.563,7.699-4.198,11.375-10.503,13.886
		c-1.174-3.749-2.984-7.434-3.354-11.264c-0.402-4.191-2.096-10.271,3.706-11.623C549.35,301.852,552.06,306.892,553.384,312.274z"
		/>
	<path style="fill-rule:evenodd;clip-rule:evenodd;fill:#DB3088;" d="M268.226,230.168c2.394-7.76-8.89-25.214,13.381-18.869
		C282.354,221.292,285.026,232.636,268.226,230.168z"/>
	<path style="fill-rule:evenodd;clip-rule:evenodd;fill:#DB3088;" d="M271.333,301.563c0.692-3.796-1.712-9.969,5.836-9.443
		c6.534,0.456,7.897,5.502,8.144,11.002c0.218,4.886-0.176,9.158-6.786,9.269C270.436,312.529,271.596,306.758,271.333,301.563z"/>
	<path style="fill-rule:evenodd;clip-rule:evenodd;fill:#BE2377;" d="M542.469,261.575c5.976-0.023,7.149,3.558,7.075,7.773
		c-0.084,4.749,1.536,10.69-5.976,11.592c-5.791,0.694-8.098-2.354-7.89-7.874C535.88,267.735,537.211,263.202,542.469,261.575z"/>
	<path style="fill-rule:evenodd;clip-rule:evenodd;fill:#BE2377;" d="M544.123,218.076c5.057,1.405,5.305,5.69,5.868,9.795
		c-0.882,4.111,1.412,9.715-4.624,11.452c-3.683,1.056-6.918-0.919-8.239-4.322C534.163,227.365,537.369,221.896,544.123,218.076z"
		/>
	<path style="fill-rule:evenodd;clip-rule:evenodd;fill:#DD3E8F;" d="M497.417,172.914c-3.038-3.243-2.448-6.616-0.349-10.013
		C497.186,166.258,497.303,169.584,497.417,172.914z"/>
	<path style="fill-rule:evenodd;clip-rule:evenodd;fill:#DD3E8F;" d="M497.012,191.267l-0.574-0.617c0,0,0.748-0.416,0.748-0.396
		S497.012,191.267,497.012,191.267z"/>
	<path style="fill-rule:evenodd;clip-rule:evenodd;fill:#C0A494;" d="M484.152,682.566c1.174-2.126,2.348-4.252,3.521-6.378
		c5.774,2.239,11.116-5.685,17.008-0.729C498.873,680.815,491.834,682.625,484.152,682.566z"/>
	<path style="fill-rule:evenodd;clip-rule:evenodd;fill:#DB3088;" d="M278.883,187.866c-4.146-0.161-7.506-1.643-7.456-5.644
		c0.07-5.6,1.197-11.539,7.429-13.638c3.934-1.328,6.422,1.308,6.383,5.432C285.187,179.61,285.189,185.398,278.883,187.866z"/>
	<path style="fill-rule:evenodd;clip-rule:evenodd;fill:#DD3E8F;" d="M549.934,187.665c-0.014,3.622-0.624,7.203-5.063,7.293
		c-5.818,0.114-5.406-4.547-5.437-8.45c-0.026-3.484,0.406-7.334,4.886-7.404C550.061,179.014,549.364,183.93,549.934,187.665z"/>
	<path style="fill-rule:evenodd;clip-rule:evenodd;fill:#C0A494;" d="M614.747,772.296c0.583,18.252-1.533,36.059-8.417,55.695
		c-5.805-7.317-7.938-15.438-15.808-17.608c5.171-4.479,11.546-9.021,8.336-16.851c-2.564-6.25-7.81-1.469-11.91-0.814
		c5.777-11.381,11.555-22.763,17.333-34.146C604.381,765.731,604.14,773.152,614.747,772.296z"/>
	<path style="fill-rule:evenodd;clip-rule:evenodd;fill:#DD3E8F;" d="M560.772,840.614c-5.023-0.852-7.133-3.622-5.893-7.28
		c1.889-5.557,5.507-10.013,12.276-9.393c3.854,0.355,6.509,2.84,5.302,6.844C570.657,836.764,565.647,839.282,560.772,840.614z"/>
	<path style="fill-rule:evenodd;clip-rule:evenodd;fill:#DD3E8F;" d="M586.948,792.718c4.101-0.654,9.346-5.436,11.91,0.814
		c3.21,7.83-3.165,12.371-8.336,16.851C582.79,805.82,581.515,799.948,586.948,792.718z"/>
	<path style="fill-rule:evenodd;clip-rule:evenodd;fill:#DD3E8F;" d="M538.445,856.092c-3.584,4.497-8.678,7.334-14.268,7.233
		c-3.183-0.058-5.708-4.31-4.611-7.867c1.817-5.889,7.421-6.455,12.447-6.317C535.602,849.242,538.126,851.784,538.445,856.092z"/>
	<path style="fill-rule:evenodd;clip-rule:evenodd;fill:#DB3088;" d="M614.747,772.296c-10.606,0.855-10.365-6.565-10.466-13.725
		c0.433-0.788,0.674-1.63,0.714-2.535c2.133-1.425,4.266-2.847,6.398-4.269l-0.057,0.063c1.025,0.191,2.062,0.265,3.104,0.218
		c3.434,3.859,4.188,8.427,3.538,13.363c-2.609,1.6-3.3,4.107-3.283,6.947L614.747,772.296z"/>
	<path style="fill-rule:evenodd;clip-rule:evenodd;fill:#C0A494;" d="M614.696,772.36c-0.017-2.84,0.674-5.348,3.283-6.947
		C618.126,768.316,617.586,770.891,614.696,772.36z"/>
	<path style="fill-rule:evenodd;clip-rule:evenodd;fill:#C0A494;" d="M611.393,751.768c-2.133,1.422-4.266,2.844-6.398,4.269
		C605.528,752.217,608.254,751.684,611.393,751.768z"/>
	<path style="fill-rule:evenodd;clip-rule:evenodd;fill:#DB3088;" d="M412.461,114.174c-4.049-2.069-11.505-2.019-8.844-9.054
		c1.778-4.701,7.714-6.096,12.915-5.338c8.584,1.257,5.19,8.091,5.646,13.088C418.94,113.306,415.701,113.738,412.461,114.174z"/>
	<path style="fill-rule:evenodd;clip-rule:evenodd;fill:#DB3088;" d="M363.824,102.719c6.594,0.63,14.241-1.449,17.83,6.925
		c-8.892,10.328-16.46,12.524-21.071-3.434c0.506-0.936,0.894-1.921,1.162-2.951C362.486,103.269,363.18,103.088,363.824,102.719z"
		/>
	<path style="fill-rule:evenodd;clip-rule:evenodd;fill:#C0A494;" d="M361.745,103.259c-0.268,1.029-0.656,2.015-1.162,2.951
		C357.588,103.899,359.166,103.38,361.745,103.259z"/>
	<path style="fill-rule:evenodd;clip-rule:evenodd;fill:#DD3E8F;" d="M289.013,851.387c-7.382-0.429-11.873-3.601-13.041-9.718
		c-0.778-4.081,2.855-6.153,6.412-5.707c5.702,0.718,11.193,2.87,12.13,9.544C295.128,849.878,291.298,850.626,289.013,851.387z"/>
	<path style="fill-rule:evenodd;clip-rule:evenodd;fill:#DD3E8F;" d="M329.573,858.483c2.332,11.073-2.43,15.017-13.088,13.031
		c-0.628-3.947-8.512-5.077-3.992-11.163C317.69,853.353,323.795,858.188,329.573,858.483z"/>
	<path style="fill-rule:evenodd;clip-rule:evenodd;fill:#DD3E8F;" d="M263.585,816.896c-1.345,4.406-4.703,6.924-7.639,6.224
		c-6.311-1.506-9.676-7.159-10.71-13.015c-0.595-3.363,3.9-3.259,6.514-2.887C257.787,808.08,261.786,811.554,263.585,816.896z"/>
	<path style="fill-rule:evenodd;clip-rule:evenodd;fill:#DB3088;" d="M444.654,885.856c-3.927-0.238-8.588-0.141-7.925-5.838
		c0.839-7.206,6.64-7.961,12.455-8.169c3.595-0.127,7.199,0.523,7.048,4.906C455.988,883.938,450.747,885.638,444.654,885.856z"/>
	<path style="fill-rule:evenodd;clip-rule:evenodd;fill:#DB3088;" d="M364.38,882.242c-4.359-0.339-9.543,0.67-10.087-5.996
		c-0.396-4.858,1.906-7.79,6.822-7.257c5.599,0.607,12.171,1.724,12.441,8.726C373.77,883.244,368.041,881.772,364.38,882.242z"/>
	<path style="fill-rule:evenodd;clip-rule:evenodd;fill:#DB3088;" d="M497.806,868.308c0.523,8.732-7.457,7.173-11.954,9.272
		c-3.118,1.455-5.157-1.526-4.594-4.896c0.948-5.703,4.858-8.855,10.217-10.046C495.841,861.668,497.733,864.13,497.806,868.308z"/>
</g>
</svg>
