<?xml version="1.0" encoding="utf-8"?>
<!-- Generator: Adobe Illustrator 15.0.0, SVG Export Plug-In . SVG Version: 6.00 Build 0)  -->
<!DOCTYPE svg PUBLIC "-//W3C//DTD SVG 1.1//EN" "http://www.w3.org/Graphics/SVG/1.1/DTD/svg11.dtd">
<svg version="1.1" id="Capa_1" xmlns="http://www.w3.org/2000/svg" xmlns:xlink="http://www.w3.org/1999/xlink" x="0px" y="0px"
	 width="612px" height="792px" viewBox="0 0 612 792" enable-background="new 0 0 612 792" xml:space="preserve">
<path fill="#6B6975" d="M495.008,418.236c5.955,7.137-9.285,12.616-10.11,10.679c-18.488-43.383,11.331-164.511,5.059-213.656
	c19.521,43.508,10.611,145.423,5.053,197.631c0-46.288,0-92.58,0-138.872C486.594,309.699,486.594,382.55,495.008,418.236z"/>
<path fill="#332E38" d="M156.272,423.575c0-26.704,0-53.414,0-80.118c3.247-21.5-6.571-56.801,5.059-69.439
	C157.991,322.118,168.032,384.363,156.272,423.575z"/>
<path fill="#332E38" d="M495.008,412.891c0,1.781,0,3.563,0,5.347c-8.414-35.687-8.414-108.538,0-144.218
	C495.008,320.311,495.008,366.603,495.008,412.891z"/>
<path fill="#B1B6C3" d="M511.798,399.369c3.544-5.614,7.763-10.769,12.536-15.356c0.369-1.021,0.713-2.069,1.009-3.167
	c-9.078,0.686-11.832-5.308-10.112-16.029v-5.34c-4.207,0.976-4.889-2.078-5.054-5.34c-4.119-81.921-5.777-0.38-5.057,48.074
	C507.551,401.479,509.771,400.525,511.798,399.369z"/>
<path fill="#332E38" d="M474.787,359.477c0,3.563,0,7.126,0,10.685c-10.057,101.088-16.086,3.636-5.06-48.074
	C481.035,324.389,471.779,348.413,474.787,359.477z"/>
<path fill="#332E38" d="M373.674,386.187c9.354,19.728,37.197-13.277,45.496,5.34c10.883-4.53,17.885-13.152,15.168-32.05
	c14.297,42.132,16.445,93.499,25.281,138.876c-1.688,0-3.371,0-5.053,0c-3.943-20.761-8.697-40.671-20.229-53.412
	c-7.172-0.457-14.313-0.884-15.168,5.345c-1.682,0-3.365,0-5.053,0c-29.166-2.332-44.953,9.483-65.726,16.02
	c-13.479,0-26.965,0-40.442,0c-17.875-14.943-53.779-10.841-75.839-21.363c-1.683,0-3.372,0-5.054,0
	c-2.208-7.928-6.473,2.107-15.168,0c-4.623-9.36-1.74-26.652-10.114-32.051c0-1.775,0-3.559,0-5.34c0-5.34,0-10.68,0-16.024
	c14.223,5.464,21.542,6.066,20.222-16.025c15.859,17.074,55.528,8.997,85.953,10.685
	C328.082,397.188,351.141,387.849,373.674,386.187z"/>
<path fill="#6B6975" d="M414.117,450.285c-2.037,15.649-29.666,4.27-35.392,16.02c-1.688,0-3.37,0-5.053,0
	c-8.432,0-16.854,0-25.281,0C369.164,459.77,384.951,447.953,414.117,450.285z"/>
<path fill="#959CA0" d="M328.17,514.38c6.924-6.961,6.758,38.89,10.108,53.413C320.659,565.045,330.865,532.896,328.17,514.38z"/>
<path fill="#6B6975" d="M186.607,546.428c22.351-12.211,0.42,34.585,0,48.074c-11.163-0.664-2.146-22.658-5.054-32.048
	C187.479,561.592,185.818,552.714,186.607,546.428z"/>
<path fill="#CFCFD1" d="M500.005,423.415c0.737-0.81,1.499-1.598,2.269-2.377c0.753-2.772,1.637-5.495,2.679-8.147
	c-1.631,0-3.257,0-4.892,0.001C500.466,416.847,500.476,420.385,500.005,423.415z"/>
<path fill="#CFCFD1" d="M487.835,440.929c1.24-2.401,2.597-4.733,4.065-6.991c-1.94,0.524-4.253,0.657-7.006,0.324
	c-0.508,3.483-0.558,7.45-0.423,11.612C485.525,444.178,486.661,442.539,487.835,440.929z"/>
<path fill="#CFCFD1" d="M471.158,493.771c-2.637,2.809-5.725,5.14-6.485,9.93h2.237
	C468.104,500.284,469.525,496.969,471.158,493.771z"/>
<path fill="#B1B6C3" d="M489.955,145.82c10.436,10.342,9.646,32.538,15.166,48.074c0,5.346,0,10.686,0,16.025
	C497.439,191.324,489.244,173.278,489.955,145.82z"/>
<path fill="#B1B6C3" d="M484.474,445.872c-0.135-4.162-0.085-8.128,0.423-11.611h-5.055c-0.466,6.153-0.165,13.116,0.086,20.026
	C481.281,451.39,482.794,448.577,484.474,445.872z"/>
<path fill="#959CA0" d="M151.215,220.598c-0.233,0.038-0.434,0.11-0.65,0.166c0.348,1.236,0.673,2.48,0.982,3.728
	C151.444,223.185,151.336,221.885,151.215,220.598z"/>
<path fill="#959CA0" d="M479.926,454.291c-0.251-6.912-0.552-13.877-0.086-20.031h5.055c2.753,0.333,5.066,0.2,7.008-0.325
	c2.419-3.72,5.12-7.246,8.102-10.519c0.472-3.031,0.462-6.569,0.057-10.526h4.892c0.056-0.141,0.112-0.279,0.168-0.42v-10.26
	c-0.72-48.453,0.938-129.995,5.057-48.074c0.164,3.263,0.847,6.317,5.054,5.34c7.221-34.475-14.296-66.602,0-90.798
	c2.908,9.387-6.107,31.38,5.055,32.045v-16.025c-0.053-14.191,1.912-30.502-5.055-37.389c-7.816-7.761-10.611-20.835-10.109-37.39
	c-7.682-18.596-15.877-36.641-15.166-64.099v-10.679c-24.431-23.212-74.977-24.284-113.906-15.541
	c-7.691,8.022-16.994,14.486-27.353,18.813c22.599-0.822,43.607-5.75,60.366-19.296c12.076,42.428-90.481,26.808-126.396,26.704
	c-12.867,0.654-19.604,7.777-20.222,21.37c-18.881-8.545-22.476-33.234-45.503-37.39c17.645-1.971,38.572,0.343,60.502,3.084
	c-3.112-1.897-6.077-4.015-8.898-6.307c-1.043-0.601-2.073-1.222-3.088-1.868c-9.653,0.149-18.504-0.55-23.236-5.596
	c-18.419-1.652-32.901,0.847-45.503,5.34c-0.578-0.178-1.122-0.321-1.65-0.447c-5.269,2.346-10.819,4.135-16.58,5.29
	c-2.779,1.137-5.63,2.119-8.546,2.938c-10.025,16.555-14.489,38.986-18.727,61.658v21.365
	c25.723,44.07,16.014,153.973,10.113,213.656c-15.836-33.724-11.63-88.625-9.583-141.245c-0.358,1.959-0.725,3.908-1.09,5.842
	c-1.42,7.504-2.873,14.982-4.282,22.469c0.046,1.143,0.096,2.285,0.135,3.428c0.485,14.034,0.018,28.039-0.17,42.071
	c-0.044,3.295-0.123,6.601-0.313,9.898c1.115,9.159-0.538,29.587,0.137,36.171c-0.38,9.303,1.127,16.612,5.054,21.364
	c32.002,5.36,13.645,63.923,40.449,74.784c3.885,20.129-6.172,25.53-5.06,42.729c22.351-12.211,0.42,34.585,0,48.074
	c-11.163-0.664-2.145-22.658-5.054-32.048c-11.402,3.979-1.979,29.96-5.054,42.728c39.477,45.534,86.019,83.61,166.839,85.464
	c54.942-7.826,90.512-36.127,126.391-64.094c-13.288-23.353-10.166-64.042-10.108-101.487c0.864-7.994-1.807-19.713,5.055-21.364
	c0.761-4.793,3.852-7.124,6.489-9.935c0.465-0.91,0.938-1.814,1.437-2.705c-0.057-1.181-0.098-2.365-0.098-3.559
	C472.5,475.707,475.181,464.451,479.926,454.291z M489.955,215.26c19.521,43.508,10.612,145.423,5.053,197.631
	c0,1.781,0,3.563-0.001,5.347c5.955,7.137-9.285,12.616-10.11,10.679C466.408,385.532,496.228,264.405,489.955,215.26z
	 M171.439,247.309c25.811,42.521,18.623,147.219,20.228,197.631C161.991,403.291,175.501,316.02,171.439,247.309z M459.619,498.354
	h-5.051c-17.168-8.57-8.197-44.755-30.336-48.068h-10.114c-2.037,15.651-29.666,4.27-35.392,16.02
	c23.49,5.23,30.524-6.919,45.505-10.68c18.248,25.23,24.102,63.559,20.221,112.168c-18.356,13.854-33.687,16.897-45.502,26.709
	c-6.25,17.282,16.363,4.084,10.113,21.365c-12.271-10.29-30.564,7.262-45.503,10.685c2.066-12.871-9.236-11.614-5.055-26.71
	c-17.511,11.771-17.76,41.773-35.39,53.415c-18.835-59.076-10.77-99.629-15.167-160.242c-15.179,5.334-4.255,38.242-25.282,37.391
	c1.418-18.088,8.041-30.674,5.054-53.415c-27.494,31.489-18.658,101.357-25.276,154.901
	c-36.059-14.314-10.201-65.958-15.167-106.826c-8.373,5.396-5.49,22.683-10.113,32.048c-20.362-3.412-1.356-48.422-25.276-48.074
	c5.282-25.95,7.314-23.582,10.108-48.073c55.377,4.313,97.457,31.962,151.677,5.34H307.95c-27.687-4.576-58.771-5.567-75.839-21.363
	h-5.054c-11.708,14.336-19.9,32.393-20.222,58.759c-18.378-0.176-22.212-15.708-20.227-37.396
	c30.688,24.913,21.712-25.146,15.167-53.414v-5.34c-4.175-20.575-1.402-79.719,5.06-106.828
	c8.768,8.539,10.944,24.045,10.108,42.734c-1.547,10.845,14.606-1.096,15.168-5.345c8.768,8.54,10.949,24.045,10.113,42.734
	c17.214-9.262,29.65,4.104,55.611,0c-10.701-10.067-18.908-22.757-25.282-37.389c-9.687,0.592,5.943,17.884,0,32.044
	c-20.507-35.987-29.821-56.25-45.497-90.803c11.319-32.554,52.708-33.338,55.611-74.779c43.919,32.502,79.138-3.651,106.175-32.049
	c14.927,4.643-11.736,7.999-5.061,21.37c1.787,7.012,8.901,8.394,10.112,16.019c24.685-23.769,45.853-51.269,75.834-69.439
	c17.255,20.711,21.857,39.374,15.169,74.779c-22.041-19.365-26.092,62.177-25.277,101.488c10.076-14.274,2.606-47.092,10.108-64.099
	c12.669,18.778,15.007,76.587,5.06,101.488v10.685C472.918,416.262,480.687,472.543,459.619,498.354z"/>
<path fill="#B1B6C3" d="M297.835,380.846c-10.701-10.066-18.908-22.756-25.282-37.389c-9.687,0.592,5.943,17.884,0,32.044
	c-20.507-35.987-29.821-56.25-45.497-90.803c11.318-32.554,52.708-33.338,55.611-74.779c43.919,32.501,79.138-3.651,106.175-32.049
	c14.928,4.644-11.735,7.999-5.061,21.37c1.787,7.012,8.901,8.394,10.112,16.019c24.685-23.769,45.853-51.269,75.834-69.439
	c17.255,20.71,21.857,39.374,15.168,74.779c-22.04-19.364-26.092,62.177-25.276,101.488c0,3.563,0,7.127,0,10.685
	c-19.318,15.184-4.285-42.849-25.281-42.733c-12.602,27.633-43.098,36.371-35.389,85.463c-12.217,10.238-40.625,3.372-60.671,5.345
	c0-8.903,0.005-17.806,0-26.709c-7.512,4.524-7.313,17.199-10.108,26.709c-12.555,6.945-20.98-15.676-25.281,0
	C301.207,380.846,299.518,380.846,297.835,380.846z"/>
<path fill="#6B6975" d="M201.774,412.891c8.374,5.397,5.491,22.689,10.114,32.051c8.695,2.107,12.96-7.928,15.168,0
	c-11.708,14.336-19.9,32.393-20.222,58.759c-18.378-0.176-22.211-15.708-20.227-37.396
	C217.295,491.218,208.32,441.158,201.774,412.891z"/>
<path fill="#B1B6C3" d="M191.667,503.699c-28.866-8.681-26.066-50.808-40.449-74.784
	C183.22,434.275,164.863,492.838,191.667,503.699z"/>
<path fill="#6B6975" d="M409.063,119.116c-16.758,13.546-37.767,18.474-60.365,19.297c-9.356,3.908-19.559,6.087-30.197,6.087
	c-14.921,0-28.995-4.264-41.057-11.616c-21.93-2.741-42.857-5.055-60.501-3.084c23.027,4.156,26.622,28.845,45.503,37.39
	c0.618-13.593,7.356-20.716,20.222-21.37C318.582,145.925,421.139,161.544,409.063,119.116z"/>
<path fill="#959CA0" d="M459.619,332.772c-1.767,35.525,4.481,79.516-5.053,106.829c-2.479-48.542-10.011-83.345-20.229-133.533
	c-14.602,22.798-4.688,43.104-5.055,74.778c-19.22,4.281-6.431-25.255-10.113-37.389c-8.85,12.009-12.014,30.034-20.221,42.729
	c-8.427,0-16.853,0-25.275,0c-22.533,1.662-45.592,11.002-65.725,0c-0.291-3.257-0.761-6.322-5.06-5.34
	c4.299-15.676,12.726,6.945,25.281,0c2.795-9.51,2.598-22.185,10.108-26.709c0.005,8.903,0,17.807,0,26.709
	c20.046-1.973,48.454,4.894,60.671-5.345c-7.709-49.092,22.787-57.83,35.389-85.463
	C455.334,289.923,440.301,347.956,459.619,332.772z"/>
<path fill="#6B6975" d="M156.272,423.576c0.432-1.441,0.827-2.924,1.202-4.426c-0.423-1.281-0.82-2.59-1.202-3.914V423.576z"/>
<path fill="#6B6975" d="M151.218,215.259v5.34c0.122,1.292,0.23,2.597,0.333,3.908c2.142,8.675,3.344,17.654,3.728,27.367
	c0.47,11.9-1.38,24.032-3.531,35.779c-1.79,46.012-5.226,93.763,4.524,127.583v-71.778c3.246-21.5-6.571-56.801,5.059-69.439
	c-3.217,46.331,5.972,105.777-3.857,145.131c1.13,3.42,2.409,6.682,3.857,9.765C167.232,369.232,176.941,259.328,151.218,215.259z"
	/>
<path fill="#6B6975" d="M474.787,359.477c-3.008-11.064,6.248-35.088-5.06-37.389c-11.026,51.71-4.997,149.163,5.06,48.074
	c-1.869,46.1,5.899,102.381-15.168,128.191c-8.836-45.378-10.984-96.744-25.281-138.876c2.717,18.897-4.285,27.52-15.168,32.05
	c-8.299-18.617-36.143,14.388-45.496-5.34c8.424,0,16.851,0,25.275,0c8.207-12.695,11.371-30.72,20.221-42.729
	c3.684,12.134-9.104,41.669,10.113,37.389c0.365-31.675-9.547-51.98,5.055-74.778c10.219,50.188,17.75,84.991,20.229,133.533
	c9.534-27.313,3.286-71.303,5.053-106.829c0-3.558,0-7.122,0-10.685c10.076-14.274,2.606-47.092,10.108-64.099
	C482.396,276.767,484.734,334.575,474.787,359.477z"/>
<path fill="#6B6975" d="M515.23,359.477c7.221-34.475-14.296-66.603,0-90.798c2.907,9.387-6.107,31.38,5.055,32.045
	c-0.836,18.689,1.346,34.194,10.113,42.734c0,8.903,0,17.801,0,26.704c-6.962,0.234-11.101-2.514-15.169-5.345
	C515.23,363.04,515.23,361.258,515.23,359.477z"/>
<path fill="#959CA0" d="M525.343,380.847c0.945,0.159,1.825,0.083,2.654-0.153c1.406-1.197,2.848-2.353,4.332-3.453
	c6.046-8.828,5.718-30.678-1.931-33.783v26.705c-6.961,0.234-11.101-2.514-15.168-5.345
	C513.511,375.538,516.265,381.533,525.343,380.847z"/>
<path fill="#6B6975" d="M419.17,450.285c0.854-6.229,7.996-5.802,15.168-5.345c11.531,12.741,16.285,32.651,20.229,53.412
	c-17.168-8.569-8.197-44.754-30.336-48.067C422.543,450.285,420.859,450.285,419.17,450.285z"/>
<path fill="#6B6975" d="M232.11,444.94c22.06,10.522,57.964,6.42,75.839,21.363C280.262,461.729,249.179,460.736,232.11,444.94z"/>
<path fill="#B1B6C3" d="M378.727,466.305c23.49,5.23,30.523-6.919,45.505-10.68c18.247,25.229,24.102,63.559,20.221,112.168
	c-18.355,13.854-33.687,16.896-45.502,26.709c-6.25,17.282,16.363,4.084,10.113,21.365c-12.271-10.29-30.564,7.262-45.503,10.685
	c2.066-12.871-9.235-11.615-5.055-26.71c-17.511,11.771-17.76,41.773-35.39,53.415c-18.835-59.076-10.77-99.629-15.167-160.242
	c-15.179,5.334-4.255,38.241-25.282,37.391c1.418-18.089,8.041-30.675,5.054-53.415c-27.494,31.488-18.658,101.357-25.276,154.901
	c-36.06-14.314-10.202-65.958-15.167-106.827c-8.374,5.396-5.491,22.684-10.113,32.049c-20.363-3.412-1.356-48.423-25.276-48.074
	c5.283-25.95,7.314-23.582,10.108-48.073c55.377,4.313,97.458,31.962,151.677,5.34C375.355,466.305,377.039,466.305,378.727,466.305
	z M338.278,567.793c-3.352-14.523-3.186-60.374-10.108-53.413C330.865,532.896,320.659,565.045,338.278,567.793z"/>
<path fill="#B1B6C3" d="M464.5,567.5c0-0.135,0.01-0.268,0.011-0.402c-0.053-6.386,0.054-12.941,0.146-19.481
	c-1.395-5.839-2.157-11.9-2.157-18.116c0-0.848,0.038-1.687,0.065-2.528c-0.703-0.931-1.656-1.597-2.946-1.907
	c-0.057,37.261-3.143,77.727,9.921,101.134c1.874-3.312,3.632-6.746,5.247-10.331c-8.221-10.723-10.029-28.221-10.262-47.384
	C464.521,568.154,464.5,567.829,464.5,567.5z"/>
<path fill="#B1B6C3" d="M363.56,690.645c48.168-7.441,84.58-27.31,105.486-63.562c-35.649,27.793-71.116,55.785-125.709,63.562
	H363.56z"/>
<path fill="#CFCFD1" d="M363.561,690.646c-86.228,18.076-154.419-29.131-187.062-85.465c39.477,45.534,86.019,83.61,166.839,85.465
	C350.08,690.646,356.818,690.646,363.561,690.646z"/>
<path fill="#CFCFD1" d="M505.121,209.919c0-5.339,0-10.679,0-16.025c7.834,13.085,7.537,34.767,10.109,53.415
	C507.414,239.548,504.619,226.474,505.121,209.919z"/>
<path fill="#B1B6C3" d="M520.285,284.698c7.635,15.084,8.924,36.87,10.113,58.759c-8.769-8.54-10.949-24.045-10.113-42.734
	C520.285,295.383,520.285,290.039,520.285,284.698z"/>
<path fill="#6B6975" d="M201.774,407.551c-4.176-20.575-1.402-79.719,5.06-106.828c8.768,8.54,10.944,24.045,10.108,42.734
	c-1.547,10.845,14.606-1.096,15.168-5.345c8.768,8.54,10.95,24.044,10.113,42.734c17.214-9.262,29.65,4.104,55.611,0
	c1.683,0,3.372,0,5.054,0c4.299-0.982,4.769,2.083,5.06,5.34c-30.424-1.688-70.094,6.389-85.953-10.685
	c1.319,22.091-6,21.489-20.222,16.025C201.774,396.871,201.774,402.211,201.774,407.551z"/>
<path fill="#ECE7E1" d="M465.987,552.425c-0.486-1.586-0.942-3.185-1.33-4.809c-0.093,6.542-0.2,13.099-0.146,19.486
	C464.536,562.098,465.048,557.192,465.987,552.425z"/>
<path fill="#ECE7E1" d="M464.525,568.47c0.231,19.168,2.038,36.672,10.262,47.397c-0.133-3.465-0.273-6.921-0.438-10.353
	C468.234,594.424,464.69,581.794,464.525,568.47z"/>
<path fill="#6B6975" d="M171.439,247.309c25.811,42.521,18.622,147.219,20.228,197.631
	C161.991,403.291,175.501,316.02,171.439,247.309z"/>
</svg>
