<?xml version="1.0" encoding="utf-8"?>
<!-- Generator: Adobe Illustrator 15.0.0, SVG Export Plug-In . SVG Version: 6.00 Build 0)  -->
<!DOCTYPE svg PUBLIC "-//W3C//DTD SVG 1.1//EN" "http://www.w3.org/Graphics/SVG/1.1/DTD/svg11.dtd">
<svg version="1.1" id="Capa_1" xmlns="http://www.w3.org/2000/svg" xmlns:xlink="http://www.w3.org/1999/xlink" x="0px" y="0px"
	 width="612px" height="792px" viewBox="0 0 612 792" enable-background="new 0 0 612 792" xml:space="preserve">
<path fill="#F26868" d="M186.909,169.897c10.996,1.722,22.181,3.235,18.933,20.003c-9.011-9.371-11.891-0.544-23.665,0
	C180.174,179.449,185.421,176.658,186.909,169.897z"/>
<path fill="#F26868" d="M158.508,274.915c-7.844-7.003-7.844-48.005,0-55.009C158.508,238.24,158.508,256.58,158.508,274.915z"/>
<path fill="#F26868" d="M446.621,379.936c0.186-0.231,0.369-0.464,0.556-0.695c-1.88-16.783,1.979-27.501,4.803-39.315
	c1.115-20.494,2.321-40.89,9.469-55.008V229.91c-4.857,51.545-22.246,89.849-18.93,150.026H446.621z"/>
<path fill="#F26868" d="M248.444,309.92c9.849,2.932,15.3,10.509,23.665,15.003C267.761,344.376,239.919,333.594,248.444,309.92z"/>
<path fill="#F26868" d="M414.116,374.932c3.822,29.048-25.012,23.585-33.139,40.009c-9.08-6.658,5.438-22.201-4.729-35.005
	C389.839,393.704,401.374,377.096,414.116,374.932z"/>
<path fill="#F26868" d="M338.38,454.947c11.15-0.111,13.935,8.613,28.396,5c-2.314,17.313-14.813,16.102-28.396,10.002
	C331.013,468.646,335.097,458.982,338.38,454.947z"/>
<path fill="#F26868" d="M404.647,589.971c6.311,0,12.623,0,18.932,0c-12.643,19.682-10.188,32.004,14.199,35.006
	c3.916,14.135-6.67,12.955-4.732,25.006C413.595,640.406,395.368,614.65,404.647,589.971z"/>
<path fill="#F26868" d="M167.978,649.982c15.922-1.818,7.888,21.672,14.201,30.008C172.276,675.447,167.743,665.23,167.978,649.982z
	"/>
<path fill="#F26868" d="M349.159,723.41c8.83-1.568,17.666-3.104,26.521-4.523c0.026-0.004,0.052-0.008,0.078-0.012
	c-6.288-14.48-14.94-26.461-27.91-33.887C350.706,695.846,356.581,713.254,349.159,723.41z"/>
<path fill="#F26868" d="M158.181,714.537c2.386,0.463,4.776,0.91,7.165,1.361c-10.83-6.271-19.029-15.322-21.038-30.91
	c2.864-11.979,6.803-22.813,4.732-40.006h-4.732C127.335,679.039,137.862,698.93,158.181,714.537z"/>
<path fill="#F26868" d="M428.421,87.538c-0.491,3.523-1.039,7.051-1.664,10.568c1.804-2.275,1.889-6.368,1.689-10.759
	C428.438,87.411,428.43,87.475,428.421,87.538z"/>
<path fill="#F26868" d="M431.24,64.26c0.019,0.669,0.036,1.338,0.038,2.011c-0.474,3.526-0.947,7.053-1.422,10.58
	c0.807-0.929,1.877-1.579,3.189-1.972c18.617-6.331,14.082,11.799,14.201,25.007h4.732C463.416,84.303,453.573,60.475,431.24,64.26z
	"/>
<path fill="#F26868" d="M188.494,104.475c-0.609-1.102-1.219-2.204-1.793-3.326c-3.436-6.714-6.165-13.539-8.025-20.482
	c-1.655-0.615-3.601-0.923-5.966-0.788c-5.447,5.416-7.448,17.06-11.815,24.938c0.963,4.89,1.485,9.923,1.485,15.062
	c0,6.977-0.941,13.766-2.685,20.253c2.345-0.543,5.071-0.785,8.284-0.24c3.967,5.807,6.244,13.408,4.731,25.007
	c18.617-5.341,1.308-48.628,14.201-60.013C187.388,104.696,187.922,104.565,188.494,104.475z"/>
<path fill="#F26868" d="M200.119,146.35c-1.223-5.911-1.972-11.781-2.553-17.642c-0.403,0.366-0.801,0.75-1.188,1.18
	c0.75,9.606,2.783,17.859,6.025,24.834C201.48,151.951,200.698,149.15,200.119,146.35z"/>
<path fill="#F26868" d="M167.978,139.891c-3.212-0.545-5.937-0.303-8.282,0.239c-0.704,2.62-1.544,5.188-2.505,7.701
	c3.297,1.22,6.8,2.114,10.788,2.063v25.002c4.601-0.136,3.671-6.118,4.731-9.999C174.222,153.299,171.945,145.698,167.978,139.891z"
	/>
<path fill="#F26868" d="M409.13,152.427c-1.78,3.865-3.712,7.644-5.87,11.259C406.931,159.704,411.935,155.658,409.13,152.427z"/>
<path fill="#F26868" d="M314.711,454.947c6.221,6.42,17.45,6.42,23.669,0c11.15-0.111,13.934,8.613,28.396,5
	c-2.314,17.313-14.813,16.102-28.396,10.002c0.74,5.887-0.813,14.197,4.732,15.004c3.676,1.119,9.336,0.137,9.469,5
	c-0.806,7.484,1.688,18.455-4.731,20.002c-5.953-2.047-9.679-6.447-9.47-14.998h-9.471c21.207,56.846,4.193,116.836,18.939,180.027
	c25.056,2.922,3.015-20.564,14.2-25.002c5.701,5.648,8.578,14.273,23.664,10.004c6.265-12.533-22.041-12.145-4.735-20.008
	c10.266,31.051,48.015,33.059,51.796,70.949c9.099-0.947,18.214-1.668,27.336-2.088c6.037-4.262,11.781-9.088,16.059-14.684
	c-1.482-3.537-2.952-7.08-4.405-10.635c-20.304-49.678-33.577-102.09-48.046-153.674c-5.123-18.26-8.434-36.848-10.01-55.793
	c-2.009-24.151,4.46-47.43,15.745-68.612c3.962-7.438,8.623-14.379,13.684-21.034c-0.056-1.332-0.242-2.803-0.617-4.472
	c-3.316-60.177,14.072-98.481,18.93-150.026c3.842-17.299-8.84-21.117,0-30.007c-7.026-9.245-9.069-23.761-9.469-40.01
	c-2.88-0.282-5.602-0.744-4.732-4.999c-4.786,29.165-25.082,10.859-42.6,25.007c0.014-5.019-3.832-5.953-4.732-10.004
	c-0.037-0.35-0.006-0.706,0.063-1.064c-2.188,3.262-4.507,6.446-6.907,9.566c3.695,17.847-8.964,21.68-12.092,41.507
	c2.918,13.588,9.393,23.422,18.938,30.007c3.971-5.807,6.244-13.408,4.732-25.007c-7.495-0.414-18.053,2.407-18.935-5
	c-0.202-8.554,3.517-12.955,9.466-15.003c43.149,44.597-9.097,121.158-18.931,160.03c-13.383-4.133-12.264,7.047-23.668,5
	c-3.557,17.09,19.229,6.352,14.195,25.007c-9.891,2.117-12.53-3.428-18.928-5.004c-5.193,20.157,15.416,38.57-4.736,45.009
	c-8.307-18.539-17.717-1.299-33.133,0C309.38,443.912,315.772,445.492,314.711,454.947z M423.579,589.971
	c-12.643,19.682-10.188,32.004,14.199,35.006c3.916,14.135-6.67,12.955-4.732,25.006c-19.451-9.576-37.678-35.332-28.398-60.012
	H423.579z M414.117,374.933c3.822,29.047-25.012,23.586-33.139,40.01c-9.081-6.659,5.437-22.203-4.729-35.006
	C389.839,393.704,401.374,377.096,414.117,374.933z"/>
<path fill="#F26868" d="M190.316,720.389c-1.525-2.459-3.25-3.918,1.324-5.395c2.777,2.91,6.145,5.199,9.731,7.256
	c25.764,4.252,51.604,8.023,77.452,11.727c1.615,0.199,3.231,0.389,4.846,0.584c0.656-0.074,1.312-0.145,1.967-0.221
	c21.248-3.195,42.367-7.17,63.523-10.93c7.422-10.156,1.547-27.564-1.311-38.422c12.969,7.426,21.622,19.406,27.91,33.887
	c18.855-3.021,37.897-5.959,57.015-7.947c-3.781-37.893-41.53-39.898-51.796-70.949c-17.306,7.863,11,7.475,4.735,20.008
	c-15.086,4.27-17.963-4.357-23.663-10.004c-11.186,4.438,10.855,27.924-14.201,25.002c-14.746-63.191,2.268-123.18-18.939-180.027
	c-32.036-7.197-24.537-5.244-42.601-15.004c26.343-0.568,5.166-28.625,28.4-25.006c1.062-9.453-5.331-11.034-4.73-20.002
	c15.416-1.299,24.826-18.539,33.133,0c20.152-6.439-0.457-24.852,4.736-45.009c6.398,1.576,9.037,7.119,18.928,5.004
	c5.034-18.655-17.752-7.918-14.195-25.007c11.404,2.047,10.285-9.133,23.668-5c9.834-38.872,62.08-115.433,18.931-160.03
	c-5.949,2.048-9.668,6.449-9.466,15.003c0.882,7.407,11.44,4.586,18.935,5c1.512,11.599-0.761,19.2-4.732,25.007
	c-9.545-6.585-16.02-16.419-18.938-30.007c3.128-19.827,15.787-23.661,12.092-41.505c-2.872,3.734-5.859,7.379-8.887,10.951
	c-2.106,2.486-4.353,4.89-6.909,6.924c-6.678,5.314-14.996,13.309-23.554,17.334c-20.23,9.516-26.623,11.389-48.701,13.581
	c-10.002,0.993-20.941-0.256-30.317-3.712c-3.749-1.382-6.985-2.623-9.878-3.812c-8.949-0.48-15.335,1.599-16.379,10.244
	c-19.472-2.762-13.822-32.073-28.402-40.01c4.918,40.579,28.3,106.607-23.664,135.023c-2.744-16.234,3.219-23.266,4.732-35.006
	c-35.731,7.742-10.564-48.851-33.134-55.008c-17.698,76.271,7.683,131.575,37.865,190.03c-12.446,1.484-3.726-19.397-18.933-15.002
	c17.309,44.193,4.995,60.605,9.469,120.025c14.463,3.611,17.245-5.117,28.401-5.006c-0.759-15.801-0.171-30.18,9.464-35.006
	c6.973,19.945,10.188,9.256,28.401,5.004c0.898,4.049,4.746,4.986,4.731,10c-10.18,14.662-9.415,21.506,4.732,30.008
	c-9.756,1.359-1.128,22.146-14.201,20.002c0.428-18.682,5.311-14.254,0-30.008c-16.398,8.842-6.769,16.195-33.128,10.006
	c-5.923,18.746-24.126,24.52-33.138,40.006c11.778,0.771,14.657-7.855,23.669-10c-1.95,27.063,19.366,29.545,18.933,55.008
	c-3.832,0.953-4.717,5.02-9.464,5c-20.658-7.49-39.26,2.221-52.071-5c22.648-1.197,20.344-17.24,14.201-35.004
	c-22.696-5.643-16.657,19.072-28.401,25.006c-7.319,7.266-9.935,19.5-9.468,35.004c2.071,17.193-1.868,28.027-4.732,40.006
	c7.21,16.609,24.443,22.633,36.801,33.803C184.175,719.336,187.245,719.863,190.316,720.389z M347.849,224.905
	c14.233,14.965,22.211,36.542,28.399,60.013c-10.265,7.494-11.026,25.022-28.399,25.002c-3.809-19.317-28.439-16.627-37.869-30.001
	c-5.948-31.067,7.94-26.063-4.731-50.009C324.281,233.348,332.267,225.115,347.849,224.905z M210.58,424.939
	c15.041-17.176,19.122,19.518,33.128,20.008C228.812,461.969,230.304,419.393,210.58,424.939z M248.444,309.92
	c9.849,2.932,15.3,10.509,23.665,15.003C267.761,344.376,239.919,333.594,248.444,309.92z M167.977,649.982
	c15.923-1.818,7.888,21.672,14.201,30.008C172.276,675.447,167.743,665.23,167.977,649.982z"/>
<path fill="#F26868" d="M314.711,454.947c6.221,6.42,17.45,6.42,23.669,0c-3.282,4.035-7.366,13.699,0,15.002
	c0.74,5.887-0.813,14.197,4.732,15.004c-0.9,4.053-4.748,4.984-4.732,10.004c-3.155,0-6.313,0-9.471,0
	c-32.036-7.197-24.537-5.242-42.6-15.004C312.653,479.385,291.475,451.328,314.711,454.947z"/>
<path fill="#F26868" d="M193.323,720.91c2.683,0.453,5.367,0.896,8.051,1.34c-3.587-2.057-6.955-4.346-9.733-7.258
	c-4.575,1.479-2.849,2.936-1.324,5.396C191.32,720.561,192.32,720.74,193.323,720.91z"/>
<path fill="#F26868" d="M165.348,715.898c5.249,0.99,10.502,1.961,15.762,2.895c-12.358-11.172-29.592-17.195-36.802-33.805
	C146.317,700.576,154.517,709.627,165.348,715.898z"/>
<path fill="#F26868" d="M267.375,504.955c0.015-5.014-3.833-5.951-4.731-10c-18.213,4.252-21.427,14.941-28.401-5.004
	c-9.634,4.826-10.223,19.205-9.464,35.006c-11.155-0.111-13.938,8.617-28.401,5.006c-4.474-59.42,7.84-75.832-9.469-120.025
	c15.207-4.396,6.488,16.485,18.933,15.002c-30.181-58.456-55.562-113.759-37.865-190.03c22.57,6.157-2.596,62.75,33.134,55.008
	c-1.512,11.74-7.475,18.773-4.732,35.006c51.964-28.416,28.581-94.444,23.664-135.023c14.58,7.936,8.93,37.247,28.402,40.01
	c1.043-8.645,7.431-10.724,16.38-10.243c-12.926-5.311-18.952-9.58-32.57-20.675c-7.901-6.437-14.713-16.103-19.999-24.082
	c-4.049-6.112-7.467-13.039-9.846-20.174c-3.247-6.978-5.282-15.235-6.032-24.849c-4.824-6.565-4.64-18.432-9.469-25.002
	c-12.892,11.386,4.416,54.673-14.201,60.013c-1.06,3.881-0.13,9.863-4.731,9.999c-0.394,7.918,2.275,19.073-4.737,20.002
	c3.915,14.138-6.672,12.956-4.732,25.007v55.009c-3.263,55.129,4.751,98.33,18.933,135.022c8.773,15.738,10.119,39.319,9.468,65.012
	c7.835,63.291-22.385,86.371-28.401,135.029c11.744-5.934,5.704-30.65,28.401-25.006c6.143,17.764,8.447,33.807-14.201,35.004
	c12.81,7.221,31.412-2.49,52.071,5c4.746,0.02,5.632-4.047,9.464-5c0.433-25.463-20.883-27.945-18.933-55.008
	c-9.011,2.145-11.89,10.771-23.669,10c9.012-15.486,27.215-21.26,33.138-40.006c26.358,6.189,16.73-1.164,33.128-10.006
	c5.311,15.754,0.428,11.326,0,30.008c13.073,2.145,4.445-18.643,14.201-20.002C257.959,526.461,257.194,519.617,267.375,504.955z
	 M186.909,169.897c10.996,1.722,22.182,3.235,18.933,20.003c-9.012-9.371-11.892-0.544-23.665,0
	C180.174,179.449,185.421,176.658,186.909,169.897z"/>
<path fill="#F26868" d="M210.579,424.939c15.042-17.176,19.122,19.518,33.128,20.008
	C228.812,461.969,230.304,419.393,210.579,424.939z"/>
<path fill="#F26868" d="M196.659,118.446c-2.691-4.672-5.555-9.25-8.165-13.972c-0.572,0.091-1.106,0.222-1.585,0.412
	c4.829,6.57,4.645,18.437,9.469,25.002c0.387-0.429,0.785-0.814,1.188-1.18C197.227,125.286,196.944,121.868,196.659,118.446z"/>
<path fill="#F26868" d="M442.519,79.879c-7.438-1.367-8.135,4.384-13.734,4.954c-0.112,0.838-0.225,1.675-0.338,2.513
	c0.199,4.394,0.116,8.488-1.689,10.764c-1.859,10.472-4.401,20.857-8.171,30.78c-2.945,7.752-5.898,15.814-9.457,23.54
	c2.808,3.231-2.2,7.279-5.871,11.262c-0.454,0.759-0.916,1.512-1.39,2.256c-0.617,0.969-1.249,1.93-1.89,2.885
	c-0.069,0.359-0.101,0.716-0.063,1.066c0.9,4.051,4.746,4.985,4.732,10.004c17.518-14.148,37.814,4.158,42.6-25.007
	C442.004,133.764,441.793,107.313,442.519,79.879z"/>
<path fill="#F26868" d="M447.247,99.887c-0.119-13.209,4.416-31.339-14.201-25.007c-1.313,0.393-2.383,1.043-3.189,1.972
	c-0.357,2.66-0.715,5.32-1.072,7.98c5.6-0.57,6.296-6.32,13.734-4.954c-0.725,27.433-0.514,53.885,4.729,75.016
	c-0.869,4.255,1.852,4.716,4.732,4.999C453.889,136.211,443.532,125.483,447.247,99.887z"/>
<path fill="#F26868" d="M461.448,289.917c10.938-16.783,1.658-54.926,4.732-80.015c6.006,21.476,12.387,86.337-4.732,100.018
	C461.448,303.253,461.448,296.585,461.448,289.917z"/>
<path fill="#F26868" d="M461.448,309.92c0.625,12.329,0.715,24.098-4.729,30.006c-1.582,0-3.158,0-4.74,0
	c1.115-20.494,2.32-40.89,9.469-55.008c0,1.668,0,3.331,0,4.999C461.448,296.585,461.448,303.253,461.448,309.92z"/>
<path fill="#F26868" d="M451.374,374.17c-0.323-13.64,8.313-17.808,5.346-34.244h-4.74c-2.824,11.813-6.682,22.532-4.803,39.314
	C448.553,377.534,449.957,375.848,451.374,374.17z"/>
<path fill="#F26868" d="M177.441,409.938c8.773,15.737,10.12,39.319,9.468,65.012C179.708,457.553,178.36,433.971,177.441,409.938z"
	/>
<path fill="#F26868" d="M343.112,484.953c3.676,1.119,9.336,0.137,9.469,5c-0.807,7.484,1.688,18.455-4.731,20.002
	c-5.953-2.047-9.679-6.447-9.47-14.998C338.364,489.938,342.212,489.004,343.112,484.953z"/>
<path fill="#F26868" d="M466.181,209.902c-3.074,25.089,6.205,63.232-4.732,80.015c0-1.668,0-3.331,0-4.999
	c0-18.34,0-36.674,0-55.008c3.842-17.299-8.84-21.117,0-30.007C466.052,200.04,465.12,206.021,466.181,209.902z"/>
<path fill="#F26868" d="M347.849,224.906c14.233,14.964,22.211,36.542,28.399,60.013c-10.266,7.494-11.026,25.021-28.399,25.002
	c-3.81-19.317-28.439-16.628-37.869-30.001c-5.948-31.067,7.939-26.063-4.731-50.009
	C324.281,233.348,332.267,225.115,347.849,224.906z"/>
<ellipse cx="173.18" cy="96.476" rx="20.075" ry="18.41"/>
<ellipse cx="313.201" cy="257.412" rx="7.953" ry="10.002"/>
<ellipse cx="318.443" cy="355.351" rx="8.502" ry="9.58"/>
<ellipse cx="318.462" cy="444.945" rx="8.483" ry="10"/>
<ellipse cx="318.442" cy="528.357" rx="8.483" ry="10"/>
<ellipse cx="321.153" cy="629.982" rx="8.483" ry="10"/>
</svg>
