<?xml version="1.0" encoding="utf-8"?>
<!-- Generator: Adobe Illustrator 15.0.0, SVG Export Plug-In . SVG Version: 6.00 Build 0)  -->
<!DOCTYPE svg PUBLIC "-//W3C//DTD SVG 1.1//EN" "http://www.w3.org/Graphics/SVG/1.1/DTD/svg11.dtd">
<svg version="1.1" id="Capa_1" xmlns="http://www.w3.org/2000/svg" xmlns:xlink="http://www.w3.org/1999/xlink" x="0px" y="0px"
	 width="612px" height="792px" viewBox="0 0 612 792" enable-background="new 0 0 612 792" xml:space="preserve">
<path fill="#467BB5" d="M502.008,364.196c-0.152-0.943-0.273-1.895-0.392-2.848c-1.206-5.448-1.866-11.081-1.866-16.849
	c0-0.407,0.025-0.809,0.031-1.214c-0.201-2.472-0.387-4.941-0.531-7.405c-0.65-3.62-1.271-7.249-1.832-10.896
	c-4.165-27.074-6.973-54.27-10.311-81.426c-3.349-21.17-8.602-41.884-16.75-61.792c1.205,2.855,2.409,5.71,3.614,8.565
	c-4.099-9.895-7.945-19.758-11.526-29.934c-2.215-6.293-4.477-12.568-6.869-18.793c-0.946-2.004-1.928-3.992-2.952-5.957
	c-0.234-0.31-0.468-0.62-0.697-0.932c-9.229-5.541-17.413-13.144-23.726-21.643c-0.206-0.144-0.42-0.276-0.625-0.422
	c-0.549-0.171-1.089-0.352-1.646-0.515c-1.492,1.507-3.027,2.966-4.619,4.356c-42.866,37.462-90.12,73.13-142.93,95.445
	c-17.149,7.247-34.147,14.8-52.235,19.416c-14.149,3.611-28.836,6.148-43.471,7.376c-0.276,0.251-0.561,0.494-0.832,0.752v6.958
	c4.052,8.699,6.934,17.847,8.531,26.766c1.453,8.111,2.654,16.285,3.646,24.486c1.646,5.202,2.023,11.745,1.895,18.822
	c0.293,3.629,0.558,7.259,0.772,10.888c0.806,13.631,1.947,27.246,1.087,40.906c-1.39,22.06-5.004,43.904-8.187,65.769
	c-3.317,26.973-6.023,54.267-14.133,80.26c-3.534,11.326-5.107,23.287-7.561,34.873c-0.178,0.843-0.365,1.68-0.551,2.519
	c-1.334,7.698-2.475,15.113-3.334,22.207c0.687,1.171,1.423,2.289,2.191,3.374l9.866,7.623c0.868,1.091,1.759,2.163,2.646,3.24
	c4.212,3.494,8.02,7.197,11.609,11.164c1.734,1.336,3.451,2.69,5.131,4.084c10.804,6.416,21.514,12.988,32.135,19.704
	c2.123,1.001,4.22,2.099,6.289,3.298c1.425,1.102,2.851,2.203,4.276,3.304c0.706,0.515,1.423,1.02,2.137,1.527
	c1.856,1.202,3.716,2.399,5.567,3.609c19.487,6.667,37.373,15.022,54.58,24.099c9.713,4.218,19.355,8.604,28.97,13.042
	c30.105,13.895,60.056,28.271,88.471,45.419c3.116,1.881,6.052,3.961,8.831,6.189c5.915,2.083,11.961,4.028,18.195,5.774
	c1.875-6.698,2.741-13.368,2.915-20.06c-0.058-0.721-0.13-1.439-0.184-2.16c-0.321-4.329-0.533-8.665-0.785-12.998
	c-0.129-0.402-0.255-0.807-0.387-1.209c-5.482-11.078-8.258-22.895-8.297-35.458c0.008-0.057,0.016-0.114,0.023-0.171
	c-0.713-5.315-1.332-10.646-1.964-15.974c-2.658-19.192-4.617-38.442-6.996-57.665c-1.716-12.11-3.487-24.21-5.06-36.348
	c-0.429-3.311-0.749-6.627-1.04-9.945c-2.609-7.947-3.937-16.245-3.964-24.897c0.778-5.795,1.558-11.59,2.336-17.385
	c-2.007-10.472-2.701-22.33-3.352-34.233V380.8c-12.021-47.834,13.449-95.269,26.753-131.894
	c-7.444,53.373-2.336,120.006-13.377,169.583v4.707c5.787,7.551-1.248,24.257,7.796,36.286c5.584-6.307,12.139-11.767,19.466-16.06
	c0.679-0.397,1.374-0.763,2.064-1.139c0.156-0.089,0.314-0.172,0.472-0.26c0.338-0.182,0.669-0.379,1.01-0.555
	c14.733-7.969,31.569-10.964,47.914-9.053c-3.397-18.292-5.401-36.753-6.513-55.284
	C503.131,372.819,502.553,368.506,502.008,364.196z"/>
<path fill="#332E38" d="M431.527,418.488c-4.287-12.742-7.21-26.927-13.376-37.689c-12.021-47.834,13.449-95.27,26.753-131.894
	C437.46,302.278,442.568,368.912,431.527,418.488z"/>
<path fill="#332E38" d="M499.932,339.463c-0.226-1.195-0.467-2.385-0.682-3.582c0.145,2.464,0.33,4.933,0.531,7.405
	C499.802,342.005,499.85,340.73,499.932,339.463z"/>
<path fill="#332E38" d="M502.008,364.196c0.545,4.31,1.123,8.623,1.729,12.937c-0.123-2.05-0.217-4.103-0.317-6.155
	C502.853,368.75,502.378,366.489,502.008,364.196z"/>
<path fill="#959CA0" d="M195.449,603.417c-1.677-1.392-3.391-2.743-5.123-4.077c0.652,0.72,1.293,1.455,1.933,2.192
	C193.323,602.16,194.387,602.786,195.449,603.417z"/>
<path fill="#959CA0" d="M166.201,577.308c-0.768-1.084-1.503-2.202-2.189-3.372h-2.175L166.201,577.308z"/>
<path fill="#959CA0" d="M418.151,380.799c6.166,10.762,9.089,24.947,13.376,37.689c0,1.569,0,3.137,0,4.707
	c-17.535-28.411-1.229,32.153-13.376,37.688C418.151,434.191,418.151,407.492,418.151,380.799z"/>
<path fill="#B1B6C3" d="M178.054,239.09c1.353,2.405,2.627,4.854,3.79,7.349v-6.957c0.271-0.258,0.555-0.5,0.832-0.752
	C181.134,238.859,179.593,238.99,178.054,239.09z"/>
<path fill="#959CA0" d="M195.917,316.515c0.128-7.077-0.249-13.62-1.895-18.822C194.779,303.954,195.409,310.231,195.917,316.515z"
	/>
<path fill="#F6F5F3" d="M438.088,460.883H427.07v16.987C430.019,471.768,433.722,466.05,438.088,460.883z"/>
<path fill="#B1B6C3" d="M161.524,573.694l0.312,0.241h2.174c0.859-7.094,2-14.508,3.334-22.205
	C165.696,559.194,163.774,566.504,161.524,573.694z"/>
<path fill="#959CA0" d="M447.819,709.326c-0.174,6.691-1.04,13.362-2.915,20.061c2.006-0.5,3.155-1.904,4.549-3.051
	C448.827,720.674,448.271,715.004,447.819,709.326z"/>
<path fill="#B1B6C3" d="M433.987,730.197c3.246-0.135,6.39-0.532,9.373-1.256c-5.688-1.628-11.223-3.416-16.645-5.324
	C429.287,725.68,431.717,727.873,433.987,730.197z"/>
<path fill="#B1B6C3" d="M255.878,641.483c3.623,1.278,7.244,2.563,10.852,3.883c11.402,4.173,22.627,8.783,33.758,13.617
	c-17.22-9.084-35.123-17.446-54.626-24.118C249.21,637.056,252.547,639.266,255.878,641.483z"/>
<path fill="#B1B6C3" d="M448.196,727.438c-1.559,0.601-3.173,1.1-4.836,1.503c0.515,0.147,1.026,0.3,1.544,0.445
	C446.29,729.041,447.266,728.264,448.196,727.438z"/>
<path fill="#CFCFD1" d="M422.024,491.233c1.27-4.616,2.978-9.082,5.046-13.363v-16.987h11.018c0.402-0.476,0.823-0.935,1.236-1.401
	c-9.043-12.029-2.01-28.735-7.797-36.286c-17.535-28.41-1.229,32.154-13.376,37.688c0.65,11.902,1.346,23.761,3.352,34.232
	C421.677,493.821,421.851,492.527,422.024,491.233z"/>
</svg>
