<?xml version="1.0" encoding="utf-8"?>
<!-- Generator: Adobe Illustrator 15.0.0, SVG Export Plug-In . SVG Version: 6.00 Build 0)  -->
<!DOCTYPE svg PUBLIC "-//W3C//DTD SVG 1.1//EN" "http://www.w3.org/Graphics/SVG/1.1/DTD/svg11.dtd">
<svg version="1.1" id="Capa_1" xmlns="http://www.w3.org/2000/svg" xmlns:xlink="http://www.w3.org/1999/xlink" x="0px" y="0px"
	 width="612px" height="792px" viewBox="0 0 612 792" enable-background="new 0 0 612 792" xml:space="preserve">
<path fill="#9F1C1A" d="M521.447,247.052c-3.191-15.372-7.446-30.081-12.539-44.917c-4.612-13.433-9.189-26.898-14.015-40.271
	c-5.36-9.21-9.688-19.51-13.003-30.88c-6.513-6.806-11.433-14.656-14.815-23.078c-5.262-4.358-10.943-7.008-16.885-8.317
	c-15.965,12.937-32.128,26.602-50.237,36.47c-12.484,6.803-25.802,12.977-39.524,16.758c-9.892,2.726-20.209,3.486-30.341,4.829
	c-3.56,0.472-7.165,0.776-10.759,0.572c-23.537-1.341-39.621-5.763-60.642-15.887c-8.62-4.151-17.113-11.965-24.004-17.35
	c-2.6-2.032-5.118-4.219-7.233-6.765c-6.784-8.168-12.669-15.72-17.534-23.912c-5.313-0.746-11.112,0.673-19.872,5.816
	c-18.741,17.21-29.514,42.839-40.914,67.807c-3.584,11.1-6.891,22.298-10.313,33.381c-3.539,11.461-7.012,22.949-10.854,34.313
	c-2.815,8.328-6.014,16.466-9.353,24.557c0.768,3.389,1.316,6.874,1.618,10.468c7.512,5.666,14.011,12.62,19.182,20.496
	c7.275,2.477,13.272,6.302,18.295,11.159c1.533,0.316,3.05,0.659,4.532,1.047c33.572,8.801,57.304,38.672,65.41,71.429
	c6.731,27.2,6.447,52.034,1.064,79.333c-0.06,0.302-0.13,0.602-0.191,0.902c0.069,1.453,0.139,2.905,0.173,4.356
	c0.395,16.809-2.49,33.871-4.976,50.355c-1.997,13.244-5.014,26.32-8.983,39.113c-7.738,24.942-17.999,48.8-29.034,72.327v10.729
	c0.119,0.152,0.241,0.302,0.358,0.454c2.628,0.698,3.743,2.994,4.183,6.004c0.884,1.396,1.716,2.827,2.516,4.277
	c5.206,0.372,10.432,1.283,15.606,2.801c20.7,6.07,41.102,13.363,62.278,17.508c16.037,1.189,32.209,0.692,48.271,1.196
	c19.77,0.62,39.525,1.586,59.291,2.317c13.498-0.982,27.076-1.351,40.604-2.14c4.691-1.353,9.467-2.857,14.382-4.542
	c13.463,0.461,20.743-5.61,30.396-9.177v-2.351c-3.114-7.656-6.026-15.351-8.802-22.974c-7.272-19.979-12.9-40.598-16.528-61.554
	c-4.187-24.176-7.684-49.016-7.645-73.697c-0.266-1.602-0.521-3.206-0.753-4.813c-2.503-17.264-4.972-34.569-5.858-52.007
	c-1.096-21.538-0.546-43.111,1.08-64.608c0.045-14.44,3.686-27.9,10.922-40.377l12.51-16.191
	c9.981-9.915,21.749-16.773,35.301-20.574c10.297-2.832,21.059-3.523,31.552-2.165c4.496-1.979,9.347-3.584,14.482-4.887
	C526.43,272.1,524.042,259.554,521.447,247.052z"/>
<path fill="#F6F5F3" d="M203.809,82.328c-9.492,3.87-17.746,9.047-25.025,15.255c-0.073,0.337-0.146,0.674-0.217,1.009
	c-1.004,4.672-2.532,9.258-4.366,13.741c4.637-4.752,9.853-8.892,15.845-12.212c8.76-5.143,14.558-6.562,19.871-5.816
	C207.654,90.496,205.612,86.544,203.809,82.328z"/>
<path fill="#F6F5F3" d="M145.332,300.604c4.211,0.295,8.366,0.871,12.373,1.698c-5.023-4.857-11.021-8.684-18.296-11.16
	c1.92,2.925,3.668,5.969,5.2,9.132C144.853,300.379,145.089,300.496,145.332,300.604z"/>
<path fill="#F6F5F3" d="M532.024,291.767c-0.78-2.444-1.492-4.904-2.178-7.371c-5.137,1.303-9.986,2.908-14.483,4.888
	c5.557,0.719,11.032,2.027,16.33,3.884c0.19-0.246,0.37-0.497,0.553-0.747C532.175,292.202,532.095,291.987,532.024,291.767z"/>
<path fill="#A88772" d="M465.927,104.872c-3.854-3.193-8.149-5.922-12.373-8.726l-1.485,1.922c-0.626,0.505-1.252,1.014-1.878,1.521
	c5.941,1.309,11.623,3.959,16.885,8.317C466.672,106.902,466.286,105.892,465.927,104.872z"/>
<path fill="#A88772" d="M485.967,138.141c-1.005-2.106-2.066-4.183-3.197-6.22c-0.303-0.306-0.582-0.626-0.879-0.937
	c3.315,11.371,7.644,21.67,13.003,30.881C492.025,153.916,489.07,145.999,485.967,138.141z"/>
<path fill="#A88772" d="M174.2,112.333c-2.391,5.842-5.303,11.509-8.268,16.964c-3.379,6.22-6.804,12.352-9.917,18.671
	c-2.454,6.585-4.72,13.254-6.885,19.959c11.4-24.967,22.173-50.596,40.915-67.806C184.053,103.441,178.837,107.581,174.2,112.333z"
	/>
<path fill="#D2C7B1" d="M185.699,631.895c0-3.575,0-7.15,0-10.725c-1.069,2.277-2.149,4.551-3.231,6.824
	C183.584,629.261,184.662,630.561,185.699,631.895z"/>
<path fill="#A88772" d="M190.241,638.352c-0.44-3.01-1.556-5.306-4.184-6.004C187.541,634.283,188.934,636.287,190.241,638.352z"/>
<path fill="#C2AE9D" d="M463.586,648.244v2.35c-9.653,3.567-16.933,9.638-30.396,9.176v2.887c8.967-2.362,17.733-5.588,26.628-8.139
	c1.896-0.543,3.805-1.052,5.719-1.544C464.876,651.399,464.228,649.822,463.586,648.244z"/>
<path fill="#A88772" d="M429.393,663.598c1.27-0.294,2.534-0.609,3.795-0.941v-2.888c-4.919,1.687-9.698,3.192-14.394,4.545
	C422.331,664.107,425.865,663.882,429.393,663.598z"/>
<ellipse fill="#FFFFFF" cx="365.167" cy="566.5" rx="11.333" ry="10.667"/>
<ellipse fill="#FFFFFF" cx="384.833" cy="572.063" rx="11.333" ry="10.667"/>
<ellipse fill="#FFFFFF" cx="387.833" cy="589.729" rx="11.333" ry="10.667"/>
<ellipse fill="#FFFFFF" cx="371.122" cy="600.396" rx="11.333" ry="10.667"/>
<ellipse fill="#FFFFFF" cx="353.834" cy="591.729" rx="11.333" ry="10.667"/>
<ellipse fill="#FFFFFF" cx="353.834" cy="575.729" rx="11.333" ry="10.667"/>
<ellipse fill="#FFFFFF" stroke="#0C0B0B" stroke-miterlimit="10" cx="369.919" cy="582.73" rx="12.536" ry="11.237"/>
</svg>
