<?xml version="1.0" encoding="utf-8"?>
<!-- Generator: Adobe Illustrator 15.0.0, SVG Export Plug-In . SVG Version: 6.00 Build 0)  -->
<!DOCTYPE svg PUBLIC "-//W3C//DTD SVG 1.1//EN" "http://www.w3.org/Graphics/SVG/1.1/DTD/svg11.dtd">
<svg version="1.1" id="Capa_1" xmlns="http://www.w3.org/2000/svg" xmlns:xlink="http://www.w3.org/1999/xlink" x="0px" y="0px"
	 width="612px" height="792px" viewBox="0 0 612 792" enable-background="new 0 0 612 792" xml:space="preserve">
<path fill="#959CA0" d="M272.87,200.005c0,3.752,0,7.501,0,11.254c-11.775-1.312-4.188-23.083-21.303-18.756
	c0.037-11.683,8.397-24.444,0-33.761c-6.669,9.207-3.01,29.328-10.652,37.511c-2.232-18.683-1.108-66.143,3.553-90.026
	c10.006,10.685,13.672,28.067,17.75,45.013c0,3.751,0,7.502,0,11.253c-3.112,18.294,4.976,24.756,10.652,33.759
	C272.87,197.504,272.87,198.753,272.87,200.005z"/>
<path fill="#959CA0" d="M340.334,113.729c7.938,1.616,1.438,18.487,3.546,26.257C333.563,139.917,335.489,118.788,340.334,113.729z"
	/>
<path fill="#959CA0" d="M379.388,147.49c7.61-0.416,1.671,45.651,3.55,63.769C368.199,195.97,382.503,172.257,379.388,147.49z"/>
<path fill="#959CA0" d="M191.208,154.992c7.376-3.869,1.846,37.938,3.553,52.515C187.386,211.375,192.915,169.569,191.208,154.992z"
	/>
<path fill="#959CA0" d="M230.266,166.245c-0.036,9.964,1.339,21.422-3.549,26.258C216,192.326,215.708,161.862,230.266,166.245z"/>
<path fill="#959CA0" d="M411.344,263.773c0,1.251,0,2.5,0,3.75c6.909,21.654,19.071,30.431,10.651,60.022
	c-8.099-5.202-1.328-26.112-3.554-37.515c-19.858,11.531,5.852,71.199-14.2,82.526c0-15.004,0-30.011,0-45.011
	c-10.255,9.17-6.385,33.265-7.104,52.515c-18.021-51.807,1.824-121.144-3.551-183.807c4.25-37.357,2.595,17.865,3.551,37.513
	c1.407,28.999,1.871,68.722,3.553,82.521C410.716,305.395,396.86,224.351,411.344,263.773z"/>
<path fill="#B1B6C3" d="M468.147,222.512c0,2.5,0,5.001,0,7.502c-12.066-12.257-23.311-25.386-24.854-48.765
	c14.883,5.533,12.486,29.32,24.854,37.51C468.147,220.012,468.147,221.261,468.147,222.512z"/>
<path fill="#CFCFD1" d="M358.084,203.757c6.026,9.573,8.229,55.028,3.549,78.774C343.656,265.807,362.768,230.67,358.084,203.757z"
	/>
<path fill="#CFCFD1" d="M375.835,278.78c-11.674-10.805-2.934-114.24,3.553-45.014C380.438,245.001,377.359,259.841,375.835,278.78z
	"/>
<path fill="#CFCFD1" d="M272.87,226.262c4.129-0.608,6.318,0.828,7.103,3.752c1.828,96.707-4.899,210.988-7.103,300.089
	c-0.481,19.474,11.965,42.695-7.099,56.267C271.892,465.596,274.259,348.987,272.87,226.262z"/>
<path fill="#CFCFD1" d="M187.659,233.766c5.549-0.707,3.965,38.208,7.103,52.514C182.636,279.087,189.417,251.914,187.659,233.766z"
	/>
<path fill="#CFCFD1" d="M343.88,233.766c13.001,12.074,1.735,28.353,3.552,48.765C331.367,275.009,349.46,253.538,343.88,233.766z"
	/>
<path fill="#959CA0" d="M453.946,278.78c2.849-13.013-5.285-14.421-3.549-26.261C456.628,253.752,468.76,279.196,453.946,278.78z"/>
<path fill="#959CA0" d="M429.093,267.523c5.421,0.063,7.785,27.801-3.553,22.508C422.979,278.569,429.175,276.362,429.093,267.523z"
	/>
<path fill="#959CA0" d="M208.962,391.31c-12.618-29.183-7.715-76.875-10.651-116.283
	C203.906,296.662,210.148,350.016,208.962,391.31z"/>
<path fill="#959CA0" d="M382.938,365.053c-4.665,4.501-5.586,1.463-10.651,0c9.27-22.719-2.36-67.511,7.103-90.026
	C387.632,297.575,380.599,336.264,382.938,365.053z"/>
<path fill="#959CA0" d="M453.946,301.285c-3.731-3.871-19.753-25.208-3.549-26.258C455.289,279.86,453.91,291.322,453.946,301.285z"
	/>
<path fill="#959CA0" d="M365.183,282.531c3.474,3.297,10.521,72.983-3.55,82.522C360.039,334.608,363.162,309.153,365.183,282.531z"
	/>
<path fill="#CFCFD1" d="M134.403,353.803c-8.698-23.026,10.882-48.463,14.201-71.272
	C156.612,304.826,136.392,329.584,134.403,353.803z"/>
<path fill="#959CA0" d="M436.192,293.78c12.717-2.181,10.797,11.104,10.65,22.507C439.421,312.881,436.021,305.221,436.192,293.78z"
	/>
<path fill="#959CA0" d="M187.659,316.288c12.852,7.015,7.861,42.327,7.103,52.515C189.246,354.627,187.834,336.11,187.659,316.288z"
	/>
<path fill="#ECE7E1" d="M433.161,374.615c-0.062-1.521-0.1-3.035-0.123-4.53c-0.088-5.617-0.098-11.236-0.086-16.856
	c-0.179-4.191-0.452-8.283-0.865-12.227c-0.438-2.398-0.795-4.81-0.936-7.214c-0.548-3.478-1.222-6.824-2.059-9.996
	c2.351,37.529-4.712,84.999,3.554,116.284C431.374,419.78,432.843,396.59,433.161,374.615z"/>
<path fill="#959CA0" d="M290.624,338.795c0-1.247,0-2.502,0-3.75c3.162-2.306,6.351-4.534,7.103,0
	c-9.7,38.646,12.662,117.156,0,157.544c9.939-31.711-2.896-1.539-3.553-15c-2.028-41.688-4.896-77.229-3.549-131.291
	C290.624,343.796,290.624,341.298,290.624,338.795z"/>
<path fill="#CFCFD1" d="M290.624,338.795c0,2.503,0,5.001,0,7.504C288.235,391.515,274.23,358.99,290.624,338.795z"/>
<path fill="#959CA0" d="M109.549,353.803c-7.52,2.167-8.322-2.761-9.962-6.804c-0.429,4.137-0.896,8.27-1.419,12.396
	c2.666,4.326-0.174,14.47,7.83,13.16C104.544,363.52,112.482,364.403,109.549,353.803z"/>
<path fill="#CFCFD1" d="M184.109,350.049c6.296-10.007,2.587,21.979,3.549,30.011C181.359,390.066,185.073,358.078,184.109,350.049z
	"/>
<path fill="#959CA0" d="M340.334,391.31c0,1.251,0,2.503,0,3.754c-12.178,21.132,1.758,38.554-3.554,56.265
	c-7.697,0.631-1.608-13.305-3.554-18.754c-5.453,19.237-6.224,43.438-7.1,67.519c0,2.502,0,5.001,0,7.503
	c-2.349-1.035-6.186,8.105-3.549,11.254c-12.589-15.044,8.803-100.771,0-135.041c4.461,1.54,7.256,4.837,7.103,11.254
	c5.314-8.138,6.05-21.118,7.1-33.761C344.787,364.097,338.167,382.343,340.334,391.31z"/>
<path fill="#959CA0" d="M116.65,368.803c14.168,3.137,9.024,18.436,3.551,26.261C115.311,389.256,113.051,372.545,116.65,368.803z"
	/>
<path fill="#959CA0" d="M500.103,402.568c-8.994-6.753-12.06-19.772-14.199-33.767C495.945,374.45,498.272,388.246,500.103,402.568z
	"/>
<path fill="#CFCFD1" d="M400.69,380.06c10.731,12.804-2.531,32.174,0,48.765C384.571,420.544,403.857,398.176,400.69,380.06z"/>
<path fill="#CFCFD1" d="M315.477,387.56c7.72,1.948,1.599,50.756,3.555,71.272C311.308,456.885,317.432,408.076,315.477,387.56z"/>
<path fill="#959CA0" d="M177.007,387.56C193.182,404.494,170.007,438.934,177.007,387.56L177.007,387.56z"/>
<path fill="#959CA0" d="M414.893,398.813c0-1.251,0-2.498,0-3.75c3.454-0.106,2.755-4.593,3.55-7.504
	c4.026,11.881,9.963,57.95-3.55,63.769C414.893,433.823,414.893,416.32,414.893,398.813z"/>
<path fill="#B1B6C3" d="M340.334,395.064c-2.776,80.213,1.692,182.54,0,251.325c-1.187,0-2.372,0-3.554,0
	c-6.194-36.154-2.619-111.225-3.554-165.049c-9.882-1.691,2.787,20.442-7.1,18.754c0.876-24.08,1.646-48.279,7.1-67.519
	c1.944,5.449-4.145,19.385,3.554,18.754C342.092,433.618,328.156,416.196,340.334,395.064z"/>
<path fill="#CFCFD1" d="M198.311,398.813c6.088,43.973-2.382,104.997-17.754,138.791C182.147,500.91,198.19,449.333,198.311,398.813
	z"/>
<path fill="#959CA0" d="M116.65,402.568c8.448,8.574,10.29,24.134,10.651,41.257C118.853,435.249,117.011,419.69,116.65,402.568z"/>
<path fill="#CFCFD1" d="M382.938,402.568c7.372,0.959,0.971,16.477,7.103,18.753c-6.431,10.827,0.263,55.145-7.103,52.515
	C379.217,446.295,380.971,430.9,382.938,402.568z"/>
<path fill="#CFCFD1" d="M489.451,402.568c8.408,9.869,11.688,25.162,14.205,41.257C491.275,438.152,488.704,422.113,489.451,402.568
	z"/>
<path fill="#CFCFD1" d="M102.448,421.321c4.142,1.083,10.254,21.277,10.649,3.75c10.788,4.626-3.85,12.902,0,22.507
	C104.498,444.16,103.697,432.502,102.448,421.321z"/>
<path fill="#959CA0" d="M219.614,447.578c0,1.252,0,2.5,0,3.751c-5.69,25.247-7.124,54.991-10.652,82.524
	c-10.039-35.657,5.876-76.283,7.102-112.532C224.003,422.938,217.502,439.806,219.614,447.578z"/>
<path fill="#959CA0" d="M141.502,462.582c-7.252-7.339-10.586-18.822-10.652-33.757
	C137.986,436.289,142.998,445.999,141.502,462.582z"/>
<path fill="#B1B6C3" d="M233.816,443.825c11.775,1.319,5.573,21.624,7.098,33.765C226.52,479.042,237.007,454.211,233.816,443.825z"
	/>
<path fill="#CFCFD1" d="M407.79,447.578c13.103,16.168,4.735,55.015,7.103,82.525C402.924,503.22,412.863,482.978,407.79,447.578z"
	/>
<path fill="#959CA0" d="M500.103,492.59c-10.409-5.253,3.313-36.005-7.098-41.261C506.473,439.403,505.768,482.894,500.103,492.59z"
	/>
<path fill="#959CA0" d="M174.436,456.259c-0.262,0.589-0.571,1.154-0.914,1.7c-0.512,15.276-13.357,36.971-0.063,42.135
	C172.14,486.449,182.956,467.553,174.436,456.259z"/>
<path fill="#959CA0" d="M390.039,458.832c7.719,1.948,1.595,50.753,3.549,71.271C385.866,528.156,391.995,479.349,390.039,458.832z"
	/>
<path fill="#959CA0" d="M482.354,470.086C498.526,487.022,475.352,521.459,482.354,470.086L482.354,470.086z"/>
<path fill="#CFCFD1" d="M287.074,563.862c0,1.251,0,2.502,0,3.749c-6.617-23.31-4.932-70.174,0-93.775
	C294.545,496.807,282.559,531.535,287.074,563.862z"/>
<path fill="#959CA0" d="M304.825,642.634c-4.91-26.854-2.214-107.444,3.553-153.794c4.633-37.271,0.52,52.228,0,63.771
	C306.89,585.604,317.228,618.42,304.825,642.634z"/>
<path fill="#B1B6C3" d="M350.981,646.389c-2.458-35.134-5.885-104.725-3.551-161.299c-0.794-6.376,4.002-9.28,3.551,0
	c-0.727,53.5,13.436,110.557,3.55,161.299C353.35,646.389,352.167,646.389,350.981,646.389z"/>
<path fill="#CFCFD1" d="M336.78,646.389c-3.554,0-7.1,0-10.652,0c5.225-38.854-2.425-83.643,0-138.792c0-2.502,0-5.001,0-7.503
	c9.887,1.688-2.782-20.445,7.1-18.754C334.161,535.164,330.586,610.233,336.78,646.389z"/>
<path fill="#959CA0" d="M418.441,488.84c9.631,33.589,7.733,79.355,10.65,120.037C410.817,584.422,421.279,529.604,418.441,488.84z"
	/>
<path fill="#CFCFD1" d="M489.451,492.59c8.236,18.81,1.218,53.729,3.554,78.776C482.359,546.834,488.262,520.018,489.451,492.59z"/>
<path fill="#959CA0" d="M287.074,567.611c0-1.247,0-2.498,0-3.749c8.201-12.586,1.24-41.198,3.55-60.016
	c18.302,37.807-1.441,97.8-3.55,138.786C276.218,621.061,291.62,595.004,287.074,567.611z"/>
<path fill="#959CA0" d="M166.359,586.37c-8.128-10.051,14.543-19.48,24.849-22.508C187.035,575.706,172.794,576.915,166.359,586.37z
	"/>
<path fill="#CFCFD1" d="M223.164,571.366c7.942-5.229,1.948,32.667,0,41.262c-4.195-17.635-18.539-9.908-14.201,11.253
	c-7.321-1.018-0.846-16.608-10.651-15.004C202.408,591.946,226.439,596.083,223.164,571.366z"/>
<path fill="#959CA0" d="M148.604,608.877c13.107-11.159,31.267-16.984,42.604-30.008
	C193.342,589.77,156.492,619.619,148.604,608.877z"/>
<path fill="#F6F5F3" d="M102.448,305.038c-2.895-25.565,7.305-37.296,10.649-56.269c3.021-0.689,3.351,1.463,3.552,3.75
	c-1.965,15.43-10.176,24.262-10.652,41.261c0,3.754,0,7.504,0,11.258C104.814,305.038,103.63,305.038,102.448,305.038z"/>
<path fill="#F6F5F3" d="M120.201,537.605c-6.289-5.478-3.592-20.445-10.732-25.018c0.006,0.638,0.028,1.274,0.031,1.912
	c0.007,1.953-0.084,3.885-0.222,5.806c6.593,20.155,10.332,43.322,28.675,51.062C130.282,561.966,130.734,543.982,120.201,537.605z"
	/>
<path fill="#F6F5F3" d="M326.128,646.389c3.554,0,7.1,0,10.652,0c1.182,0,2.367,0,3.554,0c1.182,0,2.363,0,3.546,0
	c-10.572,12.54-67.953,10.005-88.761,0c3.553,0,7.099,0,10.652,0c4.735,0,9.47,0,14.201,0c2.696,6.2,29.26,6.2,31.956,0
	c1.187,0,2.367,0,3.549,0c2.368,0,4.735,0,7.104,0C323.761,646.389,324.946,646.389,326.128,646.389z"/>
<path fill="#F6F5F3" d="M432.161,323.971c1.04-3.394,4.952-4.2,7.521-1.986c0.022,0.019,0.042,0.041,0.064,0.06v-2.005
	c-7.749,2.392-11.295-10.631-10.653,3.753c0.837,3.172,1.511,6.518,2.059,9.996C430.959,330.481,431.174,327.189,432.161,323.971z"
	/>
<path fill="#F6F5F3" d="M432.978,345.537c-0.306-1.503-0.613-3.016-0.89-4.535c0.412,3.938,0.686,8.023,0.864,12.208
	C432.958,350.653,432.969,348.095,432.978,345.537z"/>
<path fill="#F6F5F3" d="M433.162,374.619c-0.319,21.974-1.788,45.162-0.516,65.456c1.941,5.449-4.151,19.389,3.546,18.757
	c1.196-20.956-0.025-44.463-0.442-67.12C434.006,386.246,433.395,380.375,433.162,374.619z"/>
<path fill="#F6F5F3" d="M464.482,563.873c-0.079,1.771-0.263,3.547-0.375,5.308c-0.358,5.625-0.394,11.349-0.429,16.987
	c-0.063,10.065,0.193,20.13,0.855,30.173c1.37-3.564,4.586-5.178,3.614-11.213v-3.75c-1.992-4.166-4.014-20.647-3.551-37.515
	C464.558,563.861,464.521,563.873,464.482,563.873z"/>
<path fill="#F6F5F3" d="M466.006,626.971c0.02,0.088,0.066,0.167,0.096,0.252c7.142-0.187,14.159,1.293,21.292,1.972
	c1.069,0.102,2.138,0.196,3.206,0.284c1.022-0.041,2.045-0.085,3.067-0.145c5.247-0.307,10.79-1.983,16.05-1.432
	c3.389,0.355,6.724,1.091,10.104,1.357c1.087-0.05,2.189-0.028,3.322,0.076c0.063-0.002,0.127,0.001,0.19-0.002l-0.003,0.023
	c0.064,0.007,0.131,0.016,0.195,0.022c1.854-0.511,3.533-1.09,4.98-1.746c-2.364,0-4.731,0-7.098,0.001
	c-18.272-1.791-43.67,3.943-56.512-3.586c-0.049,0.22-0.117,0.425-0.197,0.62C465.308,625.194,465.778,625.949,466.006,626.971z"/>
<path fill="#F6F5F3" d="M425.54,136.236c21.917,4.355,28.479,24.929,35.509,45.013c-3.854-0.929-2.407-7.458-7.103-7.502
	c-6.184-10.973-10.487-23.93-21.3-30.009c-1.187,0-2.372,0-3.555,0c0.653-3.19-1.385-3.539-3.553-3.752
	C425.54,138.737,425.54,137.486,425.54,136.236z"/>
<path fill="#ECE7E1" d="M382.938,121.231c17.219,1.814,26.55,11.963,42.604,15.005c0,1.25,0,2.5,0,3.75
	c-22.704-2.27-38.938-11.374-53.255-22.506C375.142,119.465,378.049,121.393,382.938,121.231z"/>
<path fill="#F6F5F3" d="M368.735,117.48c-6.592-14.294-20.774-20.567-28.401-33.761c18.195,8.284,25.188,28.402,42.603,37.511
	c-4.888,0.162-7.795-1.766-10.65-3.75C371.1,117.48,369.918,117.48,368.735,117.48z"/>
<path fill="#CFCFD1" d="M244.467,102.475c6.23-5.92,7.369-17.224,17.75-18.755c23.321-1.265,39.93-6.251,63.91,0
	c-16.554-1.233-18.494,12.969-39.054,7.502c2.642,8.461,19.914,1.468,28.401,3.751c0.676,3.039,3.562,3.739,3.555,7.502
	c3.458,12.712,1.896,27.271-7.104,33.761c-4.389,12.136,11.486,2.867,7.104,15.004c-3.555,0-7.104,0-10.652,0
	c-2.447,10.086,7.34,7.25,10.652,11.253c-4.682,18.502,0.779,33.371-21.304,41.263c-11.411,3.299-4.867-12.366-14.206-11.254
	c-3.735,1.869,2.441,18.395-10.651,7.502c0-1.251,0-2.5,0-3.752c0.678-3.037,3.564-3.739,3.553-7.502
	c11.571-6.168-6.493-20.351,3.549-26.257c10.791,6.104,10.648,23.758,17.754,33.759c7.963-19.229,0.171-26.048,0-60.017
	c3.549,0,7.098,0,10.651,0c-13.088-13.778,4.218-16.989-3.553-33.761c-15.503,2.63-19.997-6.38-35.505-3.75
	c-3.549,0-7.102,0-10.648,0c2.784,17.154,13.402,45.732,3.546,63.769c0-3.751,0-7.502,0-11.253
	C260.445,130.609,264.954,103.34,244.467,102.475z"/>
<path fill="#D2C7B1" d="M319.03,102.475c13.568,13.641,2.107,29.51,0,60.019c-3.313-4.003-13.1-1.167-10.652-11.253
	c3.55,0,7.099,0,10.652,0c4.384-12.137-11.491-2.868-7.104-15.004C320.927,129.747,322.488,115.188,319.03,102.475z"/>
<path fill="#B1B6C3" d="M108.232,487.561c0.124,1.463,0.246,2.926,0.353,4.39c0.352-0.562,0.672-1.543,0.959-3.11
	C109.071,488.444,108.642,488.011,108.232,487.561z"/>
<path fill="#B1B6C3" d="M521.406,601.38c-11.302-5.565-33.116-0.024-42.607-7.504c11.3-5.565,33.115-0.024,42.607-7.503
	c-5.006-10.966-36.385,5.927-35.506-11.254h31.951c0.428-25.456-6.146-43.516-3.546-71.27c-19.862,8.025,4.226,64.239-10.65,67.52
	c-6.322-27.213-2.524-58.035,0-86.276c36.099-8.267-11.021-63.838,3.549-93.78c6.133,2.276-0.273,17.794,7.103,18.758
	c-4.092-44.447-19.981-76.42-42.606-101.281c3.192,25.382,19.042,37.395,24.854,60.015c-18.36-20.61-34.907-43.14-39.058-78.772
	c8.338,1.196,7.949,11.611,14.204,15.007c3.137-17.237-13.271-33.276-7.104-41.265c21.067,14.037,16.851,74.679,42.607,71.272
	c-23.565-38.872-36.124-89.371-60.361-127.539c-7.872-2.064-5.055,7.163-10.651,7.502c4.494-12.605-13.9-19.841-3.546-26.258
	c-0.58,4.361,0.78,6.674,3.546,7.502c-3.91-16.881,9.076-34.468-3.546-52.515h-3.554c-23.74,17.711-8.135,77.49,10.653,86.276
	c0.554-4.414-0.613-10.649,3.549-11.254c-0.922,10.983,8.029,11.526,7.103,22.508c-4.887,0.162-7.798-1.768-10.65-3.752
	c-1.095,11.41,13.332,25.588,7.098,30.007c-12.005-14.821-13.095-41.18-28.401-52.515v26.26c3.305,2.698,14.27,0.11,10.65,18.755
	c-5.065-0.9-5.989-6.178-10.65-7.504c-0.052,9.869,1.97,24.921-7.099,15.003c6.909,21.653,19.071,30.43,10.651,60.022
	c-8.1-5.202-1.328-26.112-3.554-37.515c-19.858,11.531,5.852,71.199-14.2,82.526v-45.011c-10.255,9.171-6.386,33.265-7.104,52.515
	c-18.021-51.807,1.824-121.144-3.551-183.807c4.25-37.358,2.595,17.865,3.551,37.513c1.407,28.998,1.871,68.722,3.552,82.521
	c10.025-10.892-3.829-91.937,10.653-52.514c6.116-41.179-0.43-83.695,3.549-120.035c-16.263,9.077-0.471,52.017-14.201,63.768
	v-71.27c-13.847-0.872-4.094,23.181-14.204,26.257v-33.761c-20.421-4.072-3.407,31.411-14.201,37.512
	c-2.36-17.515,7.227-47.645-10.652-48.765c-0.995,22.393,13.305,48.351,3.55,67.521c-3.566-24.988-2.225-55.163-14.2-71.272
	c-4.922,25.298,8.648,50.757,0,67.521c-6.381-23.144,2.339-71.697-14.201-93.778c-4.129,0.61-6.319-0.828-7.1-3.751h-3.554
	c-16.554-1.233-18.494,12.969-39.054,7.502c2.641,8.46,19.914,1.467,28.401,3.751c0.676,3.039,3.562,3.739,3.555,7.502
	c13.569,13.641,2.108,29.51-0.007,60.019c-4.681,18.502,0.78,33.37-21.304,41.263c-11.412,3.299-4.867-12.366-14.206-11.254
	c-3.734,1.869,2.441,18.395-10.651,7.502v11.254c-11.775-1.312-4.188-23.083-21.303-18.756c0.037-11.683,8.397-24.445,0-33.761
	c-6.669,9.207-3.009,29.328-10.652,37.511c-2.233-18.683-1.109-66.143,3.553-90.026c10.005,10.684,13.672,28.067,17.75,45.013
	c-1.772-20.631,2.737-47.9-17.75-48.765c-5.603,12.837-15.143,21.514-28.403,26.258c-2.279,15.098,4.615,39.887-3.552,48.764
	c-3.575-12.478,7.85-40.805-7.099-41.261c-12.782,37.323,9.711,89.706-3.553,127.537c-6.264-34.643-2.605-79.772-3.549-120.035
	c-15.559,5.707-16.073,5.004-31.952,7.502c-10.528,15.141-17.729,33.786-28.406,48.765c-8.237,15.055-12.849,33.938-17.752,52.515
	c-4.301,14.212-6.873,30.252-14.203,41.261v11.258h-3.549c0.902,5.787,0.324,10.009-0.946,13.501
	c-0.144,5.255-0.382,10.508-0.763,15.753c-0.308,4.246-0.709,8.483-1.148,12.715c1.638,4.042,2.444,8.962,9.958,6.795
	c2.933,10.6-5.005,9.717-3.551,18.753c-8,1.309-5.167-8.825-7.826-13.155c-0.544,4.293-1.139,8.58-1.75,12.865
	c2.781,16.376,9.137,33.375,2.476,45.302c-0.246-0.422-0.465-0.872-0.673-1.334c2.152,13.264,4.395,26.533,6.313,39.834
	c0.516-3.259,1.076-6.192,1.46-8.491c4.81,22.428,20.543,33.313,21.304,60.02c43.734,5.668,63.389,75.934,14.201,71.271v30.008
	c9.561,9.904,26.06,12.477,39.054,18.758c12.885,3.607,2.984-16.857,14.205-15.007c2.109,11.968-6.665,11.601,0,18.758
	c16.466,1.451,21.967,6.236,28.402-7.505c0.811,6.649-3.578,18.786,7.103,15.004c7.803-33.013,7.627-74.461,7.102-116.283
	c-2.166-8.971,4.455-27.218-3.552-30.012c0.383,24.164,0.262,47.79-7.099,63.772c-5.563-25.918,5.829-59.285-3.553-90.029
	c-0.795,2.911-0.094,7.401-3.549,7.503v-22.507c-5.691,25.247-7.124,54.991-10.652,82.525
	c-10.039-35.658,5.876-76.284,7.102-112.533c7.939,1.616,1.438,18.485,3.55,26.257c15.799-47.491-0.78-110.617-7.102-146.293
	c-2.196,10.181,4.508,29.77-3.55,33.761c4.031-20.64-10.969-40.754,0-56.265c0.81,6.647-3.579,18.783,7.102,15
	c1.554-35.441-2.225-85.123,0-108.779c6.212,49.702,7.551,104.552,7.099,161.298c-0.154,3.987,1.671,9.524,3.553,3.75v-15.004
	c10.458-38.962-3.403-103.625,7.099-142.542c6.215,76.987,1.043,128.973,3.552,206.312c-1.182,25.295,6.326,8.354,3.546-7.503
	c9.616-49.86-3.196-123.415,10.652-168.798c-0.519,16.805,0.386,32.105,7.105,41.261c2.298-17.576-4.647-44.917,3.546-56.267
	c5.859,126.277,5.169,278-10.651,393.871c-1.839-109.99,9.845-188.988,7.105-303.843c0.263-5.256-0.795-14.347-3.553-7.503
	c-6.859,108.933-13.417,267.356-10.652,352.604c3.645-11.151,0.022-29.986,10.652-33.758c-1.824,18.614-1.482,20.006-3.553,33.758
	c17.436-4.087,6.011-38.659,17.753-48.762c-0.412,18.321,1.912,39.533-3.549,52.517h14.201c14.511-3.683,14.351,0.411,31.956,0
	h3.549c4.189-32.084-14.606-75.165,3.555-97.53c-5.406,25.171,3.57,65.727,3.549,97.53h3.549c5.225-38.854-2.425-83.644,0-138.792
	c-2.349-1.035-6.187,8.105-3.549,11.254c-12.589-15.044,8.803-100.773,0-135.042c4.461,1.54,7.256,4.837,7.103,11.254
	c5.315-8.138,6.049-21.117,7.1-33.761c8.007,2.794,1.387,21.04,3.554,30.007c11.644-17.484-4.027-58.085,3.546-71.272
	c5.771,30.168,2.936,69.426,3.552,105.033v41.262c14.6-48.345-2.061-129.716,14.201-176.302
	c-8.072,118.395-1.06,223.571,3.55,352.603h3.553c11.019-84.521-13.149-176.531,3.551-258.824
	c1.375,83.993-0.785,186.435,10.65,255.074c6.038-7.375,4.082-23.195,10.651-30.007c1.573,7.092-4.829,22.609,7.103,18.757
	c3.859-39.396-11.789-109.845,0-157.548c6.122,47.298,2.843,104.526,7.101,153.795c11.162,6.004,12.198-23.135,14.205-3.75h7.098
	c4.922-2.302,0.534-14.44,7.1-15.004c0.406,4.575,1.065,8.88,7.104,7.501v-37.512c-9.255-41.647,0.741-80.637-14.202-116.284
	c-2.162,8.967,4.458,27.214-3.553,30.008c2.365-57.523-4.72-125.028,3.553-176.302c6.107-0.201,9.103,2.889,10.653,7.5v2.003
	c4.605,4.013,6.232,10.167,10.271,14.608c0.711,0.782,1.077,1.633,1.183,2.477c5.477,8.751,9.793,18.927,8.088,28.053
	c1.558,8.13,3.472,16.187,4.946,24.334c1.003,2.042,1.925,4.113,2.741,6.218c6.403,7.764,13.938,14.33,15.377,27.339
	c1.114,5.074,5.053,7.164,3.549,15.004c-6.709,2.809-2.462,11.199-10.65,3.75c10.406,20.903-14.209,41.389,3.549,33.765
	c1.251,15.073-0.054,27.446-10.652,30.007v56.267c-3.771,16.554,7.026,28.994,0,37.515v3.75c10.418,3.188-4.617,9.441,0,18.754
	c17.051-3.244,47.344,7.5,53.261-7.504c-18.24,0.519-34.984-0.547-46.156-7.5C485.28,603.605,510.738,614.162,521.406,601.38z
	 M198.311,398.813c6.089,43.973-2.382,104.997-17.754,138.791C182.147,500.91,198.19,449.333,198.311,398.813z M194.761,368.803
	c-5.515-14.176-6.927-32.693-7.103-52.515C200.51,323.303,195.519,358.615,194.761,368.803z M191.208,154.991
	c7.376-3.868,1.846,37.938,3.553,52.515C187.386,211.375,192.915,169.569,191.208,154.991z M187.658,233.766
	c5.549-0.707,3.966,38.208,7.103,52.514C182.636,279.087,189.417,251.914,187.658,233.766z M184.11,350.049
	c6.296-10.007,2.587,21.979,3.549,30.011C181.359,390.066,185.073,358.078,184.11,350.049z M177.008,154.991
	c18.009,67.645-7.49,131.42,3.549,195.058c-7.004,14.172,0.875-17.893-7.099-15.004c0,5.002,0,10.003,0.001,15.002v25.833
	c1.484,2.613,1.995,5.833,0.91,9.41c-0.341,1.125-0.638,2.259-0.91,3.398v6.375c-1.784,13.637,1.99,33.149-0.055,46.512
	c0.501,2.057,1.007,4.111,1.631,6.137c0.894,2.898,0.574,5.907-0.6,8.548c8.52,11.294-2.296,30.19-0.978,43.835
	c-13.293-5.164-0.449-26.858,0.063-42.135c-0.482,0.768-1.049,1.479-1.674,2.138c-0.427,2.867-1.102,5.66-2.05,8.44
	c-0.417,2.196-1.16,4.318-2.439,6.383c-0.025,0.21-0.042,0.42-0.068,0.63c-0.318,2.582-0.213,5.839-2.542,7.426
	c-0.301,0.981-0.632,1.953-1.022,2.901c-0.873,7.69,2.996,13.577,2.634,25.469c-8.354-18.685-21.056-32.772-21.304-60.019v-3.751
	c-1.883-3.017-3.706-6.088-3.553-11.253c-5.351-18.248-2.654-45.001-10.088-61.05c4.26,4.607,8.045,1.746,13.712-3.342
	c0.668-2.5,1.54-4.958,2.563-7.361c-11.543-6.525,3.081-24.229,4.465-37.026c8.733-7.861-2.626,13.406,0,22.504
	c7.041-0.995,3.625-13.029,9.89-14.837c0.185-0.417,0.385-0.827,0.598-1.231c-0.843-6.842,5.499-6.095,10.815-6.436v-15.007
	c-4.37,1.638-7.292,4.8-7.098,11.253c-7.704,0.631-1.613-13.303-3.553-18.753c-7.296,1.043-7.084,10.017-10.652,15
	c-8.47-14.099,10.163-31.657,7.099-52.515c5.946-10.801,2.827,19.17,3.553,26.257c12.796-19.527,0.798-41.981,14.201-60.014
	C165.951,226.745,178.368,171.963,177.008,154.991z M116.65,357.553c-3.535-33.779,18.512-72.943,28.406-105.033
	C147.554,270.581,127.261,328.446,116.65,357.553z M120.201,395.064c-4.89-5.808-7.15-22.519-3.551-26.261
	C130.818,371.94,125.675,387.239,120.201,395.064z M155.707,233.766c6.202,3.45,7.836,11.726,7.099,22.505
	c-7.748-0.68-11.294,3.07-10.652,11.252C144.038,261.112,157.947,246.386,155.707,233.766z M134.403,353.803
	c-8.698-23.025,10.882-48.462,14.201-71.272C156.612,304.826,136.392,329.584,134.403,353.803z M152.154,226.262
	c-3.192-9.762,6.72-37.81,10.652-52.514C174.458,192.445,161.726,217.518,152.154,226.262z M105.998,342.545
	c1.769-51.909,32.641-105.544,46.156-157.544C146.664,232.981,122.48,293.679,105.998,342.545z M113.098,447.578
	c-8.6-3.418-9.401-15.076-10.649-26.257c4.142,1.083,10.253,21.277,10.649,3.75C123.886,429.697,109.248,437.974,113.098,447.578z
	 M116.65,402.568c8.447,8.574,10.29,24.134,10.651,41.257C118.853,435.249,117.011,419.69,116.65,402.568z M141.502,462.582
	c-7.252-7.339-10.586-18.822-10.652-33.757C137.986,436.289,142.998,445.999,141.502,462.582z M137.954,473.836
	c13.231,22.285,25.903,45.157,35.504,71.272C158.669,524.473,142.291,505.514,137.954,473.836z M191.208,563.862
	c-4.173,11.844-18.414,13.053-24.849,22.508C158.231,576.319,180.902,566.889,191.208,563.862z M148.604,608.877
	c13.107-11.159,31.267-16.985,42.604-30.008C193.342,589.77,156.492,619.619,148.604,608.877z M166.359,620.131
	c3.24-14.081,20.632-13.214,28.402-22.508C198.328,604.088,181.804,621.305,166.359,620.131z M223.163,571.366
	c7.942-5.229,1.948,32.667,0,41.262c-4.195-17.635-18.538-9.908-14.201,11.253c-7.32-1.018-0.846-16.608-10.651-15.004
	C202.408,591.946,226.439,596.083,223.163,571.366z M208.962,567.611c13.329,15.556-11.181,23.04-17.754,30.012
	C184.503,589.069,210.958,583.638,208.962,567.611z M208.962,391.31c-12.618-29.183-7.715-76.875-10.651-116.283
	C203.906,296.662,210.148,350.016,208.962,391.31z M226.717,192.503c-10.717-0.177-11.009-30.641,3.549-26.258
	C230.23,176.21,231.605,187.668,226.717,192.503z M272.87,530.104c-0.482,19.474,11.965,42.696-7.099,56.267
	c6.121-120.774,8.488-237.383,7.099-360.108c4.13-0.609,6.319,0.828,7.103,3.752C281.8,326.72,275.073,441.001,272.87,530.104z
	 M379.388,147.49c7.611-0.416,1.671,45.651,3.55,63.769C368.199,195.97,382.503,172.257,379.388,147.49z M340.334,113.729
	c7.938,1.615,1.438,18.486,3.546,26.257C333.563,139.917,335.489,118.788,340.334,113.729z M340.334,151.24
	c2.926,22.352,2.801,27.579-7.106,41.263C331.477,182.402,325.166,159.482,340.334,151.24z M287.074,642.633
	c-10.856-21.573,4.546-47.629,0-75.021c-6.617-23.309-4.932-70.174,0-93.775c7.471,22.97-4.516,57.699,0,90.026
	c8.201-12.586,1.24-41.199,3.55-60.016C308.926,541.653,289.182,601.646,287.074,642.633z M300.767,477.576
	c-1.769,1.003-6.214,7.791-6.594,0.014c-2.028-41.688-4.895-77.229-3.549-131.291c-2.389,45.216-16.394,12.691,0-7.504
	c0-1.247,0-2.502-0.001-3.749c3.163-2.306,6.352-4.534,7.103,0C289.12,369.332,305.748,434.994,300.767,477.576z M304.825,642.634
	c-4.91-26.855-2.215-107.443,3.553-153.794c4.633-37.271,0.52,52.227,0,63.771C306.89,585.604,317.228,618.42,304.825,642.634z
	 M319.03,458.832c-7.723-1.947-1.599-50.756-3.555-71.272C323.195,389.508,317.074,438.316,319.03,458.832z M347.432,282.531
	c-16.064-7.522,2.028-28.993-3.552-48.765C356.881,245.841,345.616,262.119,347.432,282.531z M347.432,196.253
	c-11.154,5.722-5.91,28.766-7.098,45.015c-5.494-5.453-7.457-14.633-7.106-26.26c-13.344,43.571-0.46,110.954-10.648,153.793
	c-7.843-0.467-1.507-15.912-3.549-22.504c-12.4,4.74-6.188,35.141-7.104,56.271c-0.58,13.324-0.872,56.297-3.55,15
	c-2.182-33.576,1.576-73.872,0-123.789c11.042,0.839,5.997,18.67,7.099,30.011c8.252-25.043,1.208-66.243,3.555-97.53
	c-15.591,5.963,0.423,104.859-10.652,33.762c-1.437-9.229-2.952-13.629-7.103-26.257c-5.468,49.517-8.426,36.494-10.651-7.504
	c2.645-11.545-9.743-7.208-7.103-18.755c21.344,3.793,25.558-10.51,42.607-11.253c0.296,5.941-1.707,14.309,3.554,15.006
	c4.439-10.314,4.926-24.804,17.75-26.258c9.07,0.42,7.049,12.559,7.101,22.505C350.164,205.87,347.244,202.708,347.432,196.253z
	 M358.084,203.757c6.027,9.573,8.23,55.028,3.549,78.774C343.656,265.807,362.768,230.67,358.084,203.757z M361.633,365.053
	c-1.594-30.445,1.529-55.9,3.55-82.522C368.655,285.828,375.703,355.514,361.633,365.053z M379.388,233.766
	c1.05,11.235-2.028,26.075-3.553,45.014C364.161,267.975,372.902,164.54,379.388,233.766z M372.285,365.053
	c9.27-22.719-2.36-67.511,7.103-90.026c8.244,22.548,1.211,61.237,3.548,90.026C378.271,369.554,377.351,366.516,372.285,365.053z
	 M382.938,473.836c-3.721-27.541-1.967-42.936,0-71.268c7.373,0.959,0.971,16.477,7.103,18.753
	C383.609,432.148,390.302,476.466,382.938,473.836z M393.588,530.104c-7.722-1.947-1.593-50.755-3.549-71.271
	C397.758,460.78,391.634,509.584,393.588,530.104z M400.69,428.825c-16.119-8.281,3.167-30.649,0-48.765
	C411.422,392.864,398.159,412.234,400.69,428.825z M493.005,571.366c-10.646-24.532-4.743-51.349-3.554-78.776
	C497.689,511.398,490.669,546.319,493.005,571.366z M500.103,492.59c-10.41-5.253,3.313-36.005-7.098-41.261
	C506.473,439.403,505.768,482.894,500.103,492.59z M489.451,402.568c8.408,9.87,11.688,25.162,14.205,41.257
	C491.275,438.152,488.704,422.113,489.451,402.568z M450.397,252.52c6.23,1.232,18.362,26.676,3.549,26.261
	C456.794,265.768,448.661,264.359,450.397,252.52z M414.893,530.104c-11.969-26.884-2.029-47.126-7.103-82.525
	C420.893,463.746,412.526,502.592,414.893,530.104z M414.893,451.33v-52.516c-7.876-11.415,6.134-82.869,3.55-26.257
	c0.08,8.839-6.113,11.042-3.55,22.507c3.454-0.106,2.754-4.593,3.55-7.503C422.469,399.442,428.405,445.511,414.893,451.33z
	 M429.093,608.877c-18.275-24.455-7.813-79.273-10.65-120.037C428.072,522.429,426.176,568.195,429.093,608.877z M425.54,290.031
	c-2.562-11.462,3.635-13.669,3.553-22.508C434.514,267.586,436.878,295.324,425.54,290.031z M446.844,316.288
	c-7.423-3.407-10.822-11.067-10.65-22.507C448.909,291.6,446.99,304.885,446.844,316.288z M450.397,275.027
	c4.892,4.833,3.513,16.295,3.549,26.258C450.214,297.414,434.193,276.077,450.397,275.027z M450.397,308.788
	c15.475,18.663,22.488,46.259,31.955,71.272C470.335,357.743,451.261,342.881,450.397,308.788z M485.902,368.803
	c10.043,5.647,12.37,19.443,14.199,33.766C491.107,395.816,488.043,382.796,485.902,368.803z"/>
<path fill="#B1B6C3" d="M109.396,508.086c0.038,1.501,0.057,3.004,0.073,4.506c7.134,4.576,4.439,19.538,10.727,25.014
	c-0.632-21.063,11.993,13.038,14.203,0C124.848,529.051,116.271,519.469,109.396,508.086z"/>
<path fill="#B1B6C3" d="M177.007,387.56C170.007,438.934,193.182,404.494,177.007,387.56L177.007,387.56z"/>
<path fill="#B1B6C3" d="M482.354,470.086C475.352,521.459,498.526,487.022,482.354,470.086L482.354,470.086z"/>
<path fill="#B1B6C3" d="M269.32,98.725c15.508-2.63,20.001,6.38,35.505,3.75c7.771,16.772-9.535,19.983,3.553,33.761
	c-3.553,0-7.103,0-10.651,0c0.171,33.969,7.963,40.787,0,60.017c-7.106-10.001-6.964-27.655-17.754-33.759
	c-10.042,5.906,8.021,20.088-3.549,26.257c-4.071-16.24,3.093-24.84-7.103-30.008c1.255-5.255,6.249-0.323,7.103,3.751
	c3.159-1.663,6.347-3.294,7.098-7.502c-17.998-4.204-4.151-21.368-10.651-33.761c13.169,2.657,15.241-6.408,28.406-3.75
	c-12.239-9.153-25.961-14.081-31.956-11.253C269.32,103.726,269.32,101.226,269.32,98.725z"/>
<path fill="#CFCFD1" d="M411.344,263.773c6.116-41.179-0.431-83.695,3.549-120.035c-16.263,9.077-0.471,52.017-14.201,63.768
	c0-23.756,0-47.513,0-71.27c-13.847-0.872-4.094,23.182-14.204,26.257c0-11.253,0-22.507,0-33.761
	c-20.421-4.072-3.407,31.412-14.201,37.512c-2.36-17.515,7.227-47.645-10.652-48.765c-0.995,22.393,13.306,48.351,3.55,67.521
	c-3.566-24.988-2.226-55.163-14.2-71.272c-4.921,25.297,8.648,50.756,0,67.521c-6.381-23.144,2.339-71.697-14.201-93.778
	c12.797,7.739,19.159,22.27,31.955,30.009c1.183,0,2.363,0,3.55,0c14.318,11.132,30.551,20.236,53.255,22.506
	c2.168,0.213,4.206,0.562,3.553,3.752c-23.738,17.71-8.135,77.49,10.653,86.276c0.554-4.415-0.613-10.649,3.549-11.254
	c-0.923,10.983,8.028,11.526,7.104,22.508c-4.889,0.162-7.8-1.768-10.651-3.752c-1.096,11.411,13.332,25.588,7.098,30.007
	c-12.005-14.821-13.096-41.179-28.401-52.515c0,8.753,0,17.506,0,26.26c3.306,2.699,14.271,0.111,10.65,18.755
	c-5.065-0.899-5.988-6.178-10.65-7.504c-0.052,9.87,1.971,24.922-7.099,15.003C411.344,266.274,411.344,265.024,411.344,263.773z"/>
<path fill="#CFCFD1" d="M482.354,380.06c-12.018-22.317-31.092-37.179-31.955-71.272
	C465.872,327.451,472.886,355.047,482.354,380.06z"/>
<path fill="#CFCFD1" d="M468.147,563.862c-3.771,16.554,7.025,28.993,0,37.515c-1.992-4.166-4.014-20.646-3.551-37.515
	C465.784,563.862,466.966,563.862,468.147,563.862z"/>
<path fill="#CFCFD1" d="M451.197,339.123c0.028,0.221,0.037,0.44,0.03,0.658c1.074,1.944,1.93,4.036,2.661,6.054
	c2.438,6.729,3.952,13.752,5.282,20.773c0.036,0.193,0.079,0.385,0.116,0.578C460.995,358.057,456.677,347.877,451.197,339.123z"/>
<path fill="#CFCFD1" d="M446.844,609.627c-0.485-3.836-0.255-7.914,0-11.857v-15.15h-3.549c0,10.003,0,20.006,0.001,30.009
	c-6.039,1.379-6.698-2.926-7.103-7.501c-6.056,0.52-2.803,10.873-6.115,14.29c4.79-3.108,12.416-3.223,16.766-6.789V609.627z"/>
<path fill="#CFCFD1" d="M340.334,391.31c11.645-17.484-4.027-58.085,3.546-71.272c5.771,30.168,2.937,69.426,3.552,105.033
	c0,13.756,0,27.509,0,41.262c14.601-48.346-2.061-129.716,14.201-176.302c-8.072,118.395-1.061,223.571,3.55,352.603
	c-5.733-1.054-6.109,3.547-10.65,3.755c9.886-50.742-4.275-107.799-3.55-161.299c0.451-9.28-4.345-6.376-3.551,0
	c-2.334,56.574,1.093,126.165,3.551,161.299c-2.367,0-4.731,0-7.103,0c-1.183,0-2.364,0-3.546,0
	c1.692-68.785-2.776-171.11,0-251.325C340.334,393.813,340.334,392.561,340.334,391.31z"/>
<path fill="#CFCFD1" d="M315.477,646.389c4.188-32.084-14.605-75.165,3.555-97.529c-5.406,25.171,3.57,65.728,3.549,97.529
	C320.212,646.389,317.845,646.389,315.477,646.389z"/>
<path fill="#CFCFD1" d="M219.614,447.578c15.799-47.491-0.78-110.618-7.102-146.293c-2.196,10.181,4.508,29.77-3.55,33.761
	c4.031-20.64-10.969-40.754,0-56.265c0.81,6.647-3.579,18.783,7.102,15c1.554-35.441-2.225-85.123,0-108.779
	c6.212,49.702,7.551,104.552,7.099,161.298c-0.153,3.988,1.671,9.524,3.553,3.75c0-5.001,0-10.002,0-15.004
	c10.458-38.963-3.403-103.625,7.099-142.542c6.215,76.986,1.043,128.973,3.552,206.312c-1.182,25.295,6.326,8.354,3.546-7.503
	c9.616-49.859-3.195-123.415,10.652-168.798c-0.519,16.805,0.386,32.105,7.105,41.261c2.298-17.576-4.647-44.917,3.546-56.267
	c5.858,126.277,5.169,278-10.651,393.871c-1.839-109.991,9.845-188.989,7.105-303.843c0.263-5.256-0.795-14.347-3.553-7.503
	c-6.858,108.933-13.417,267.355-10.652,352.603c3.645-11.149,0.022-29.984,10.652-33.757c-1.824,18.614-1.481,20.006-3.553,33.757
	c17.437-4.086,6.012-38.659,17.753-48.761c-0.412,18.32,1.912,39.532-3.549,52.516c-3.553,0-7.099,0-10.652,0
	c-27.137-3.843-53.558-8.438-74.563-18.755c12.884,3.608,2.984-16.855,14.205-15.006c2.109,11.967-6.665,11.601,0,18.757
	c16.467,1.452,21.967,6.237,28.402-7.504c0.81,6.649-3.579,18.786,7.103,15.003c7.803-33.013,7.627-74.46,7.102-116.282
	c-2.166-8.971,4.455-27.218-3.552-30.012c0.383,24.164,0.262,47.79-7.099,63.772c-5.563-25.918,5.829-59.285-3.553-90.029
	c-0.795,2.911-0.095,7.401-3.549,7.503c0-7.503,0-15.004,0-22.507C219.614,450.078,219.614,448.83,219.614,447.578z M240.914,477.59
	c-1.525-12.141,4.677-32.443-7.098-33.765C237.007,454.211,226.52,479.042,240.914,477.59z"/>
<path fill="#959CA0" d="M194.761,597.623c3.567,6.465-12.957,23.682-28.402,22.508C169.599,606.05,186.991,606.917,194.761,597.623z
	"/>
<path fill="#CFCFD1" d="M208.962,567.611c13.329,15.556-11.181,23.04-17.754,30.012
	C184.503,589.069,210.958,583.638,208.962,567.611z"/>
<path fill="#CFCFD1" d="M137.953,473.836c13.231,22.285,25.903,45.157,35.504,71.272
	C158.669,524.473,142.291,505.514,137.953,473.836z"/>
<path fill="#CFCFD1" d="M105.998,293.78c0.476-16.999,8.688-25.831,10.652-41.261c1.184,0,2.367,0,3.551,0
	C115.899,266.731,113.328,282.771,105.998,293.78z"/>
<path fill="#CFCFD1" d="M137.953,200.005c8.546-42.237,38.484-61.872,78.111-71.272c-2.279,15.099,4.615,39.887-3.552,48.764
	c-3.575-12.478,7.85-40.805-7.099-41.261c-12.782,37.323,9.711,89.707-3.553,127.537c-6.264-34.644-2.604-79.772-3.549-120.035
	c-15.559,5.707-16.073,5.004-31.952,7.502C155.831,166.381,148.63,185.026,137.953,200.005z"/>
<path fill="#959CA0" d="M322.579,368.803c-7.843-0.467-1.507-15.912-3.549-22.504c-12.399,4.739-6.188,35.14-7.104,56.271
	c-0.58,13.324-0.872,56.297-3.55,15c-2.182-33.576,1.576-73.871,0-123.788c11.042,0.839,5.997,18.67,7.099,30.011
	c8.253-25.042,1.208-66.243,3.555-97.53c-15.592,5.963,0.423,104.859-10.652,33.762c-1.437-9.229-2.951-13.629-7.103-26.257
	c-5.468,49.516-8.426,36.493-10.651-7.504c2.645-11.545-9.743-7.208-7.103-18.755c21.344,3.792,25.558-10.511,42.607-11.253
	c0.296,5.94-1.707,14.309,3.554,15.006c4.439-10.313,4.926-24.804,17.75-26.258c9.069,0.42,7.049,12.56,7.101,22.505
	c-4.367-1.636-7.288-4.799-7.101-11.253c-11.153,5.722-5.908,28.767-7.098,45.015c-5.494-5.453-7.457-14.632-7.106-26.26
	C319.884,258.579,332.768,325.962,322.579,368.803z"/>
<path fill="#CFCFD1" d="M340.334,151.24c2.926,22.352,2.801,27.579-7.105,41.263C331.477,182.402,325.166,159.482,340.334,151.24z"
	/>
<path fill="#ECE7E1" d="M333.228,83.72c2.371,0,4.734,0,7.106,0c7.627,13.194,21.811,19.467,28.401,33.761
	c-12.796-7.739-19.158-22.27-31.955-30.009c-4.129,0.609-6.318-0.828-7.1-3.751C330.864,83.72,332.046,83.72,333.228,83.72z"/>
<path fill="#CFCFD1" d="M526.423,556.888c-0.021-0.813-0.027-1.625-0.002-2.437c-0.356-7.956-1.853-15.848-2.572-23.771
	c-0.153-1.688-0.259-3.355-0.321-5.012c-3.058-11.752-5.705-36.841-0.1-47.313c-0.429-9.428-0.543-18.861-0.447-28.241
	c0.004-0.432,0.011-0.863,0.016-1.294c-3.978-11.774-6.396-25.198-5.143-42.503c0.97-0.417,1.803-0.689,2.529-0.85
	c-0.103-2.057-0.187-4.108-0.305-6.133c-0.062-1.045-0.76-6.706-0.352-4.423c-0.318-1.926-0.648-3.85-0.946-5.779
	c-0.953-6.176-1.972-12.369-1.78-18.632c0.038-1.233,0.173-2.445,0.391-3.63c-1.159-5.97-2.37-11.93-3.587-17.889
	c-0.2-0.981-0.326-1.963-0.417-2.943c-2.98-10.196-5.426-20.956-6.182-33.5c-13.829-29.154-23.81-62.371-39.059-90.026v7.502
	c-12.066-12.257-23.31-25.386-24.853-48.765c14.883,5.533,12.487,29.32,24.853,37.51c-3.997-15.776-12.328-26.983-14.2-45.012
	c-6.184-10.973-10.487-23.93-21.3-30.009c12.622,18.048-0.365,35.634,3.547,52.513c-2.767-0.828-4.126-3.141-3.546-7.502
	c-10.355,6.417,8.04,13.653,3.546,26.258c5.595-0.339,2.778-9.566,10.65-7.502c24.237,38.168,36.796,88.667,60.361,127.539
	c-25.756,3.407-21.54-57.235-42.607-71.272c-6.168,7.989,10.241,24.029,7.104,41.265c-6.255-3.396-5.866-13.811-14.204-15.007
	c4.152,35.632,20.698,58.162,39.058,78.772c-5.812-22.62-21.662-34.633-24.854-60.015c22.625,24.861,38.514,56.834,42.606,101.281
	c-7.376-0.964-0.97-16.482-7.103-18.758c-14.57,29.942,32.55,85.513-3.549,93.78c-2.524,28.241-6.322,59.063,0,86.276
	c14.876-3.281-9.212-59.495,10.65-67.52c-2.6,27.753,3.974,45.813,3.546,71.27h-31.95c-0.879,17.181,30.499,0.288,35.505,11.254
	c-9.492,7.478-31.307,1.937-42.607,7.503c9.491,7.479,31.306,1.938,42.607,7.504c-10.668,12.782-36.126,2.225-46.156,7.5
	c11.172,6.953,27.916,8.019,46.156,7.5c-5.917,15.004-36.21,4.26-53.261,7.504c-4.617-9.313,10.419-15.565,0-18.754
	c0.973,6.033-2.241,7.647-3.613,11.209c0.14,2.111,0.29,4.222,0.467,6.331c0.043,0.512-0.011,0.961-0.104,1.382
	c12.844,7.527,38.239,1.794,56.511,3.585C527.82,609.278,520.649,584.086,526.423,556.888z"/>
<path fill="#CFCFD1" d="M147.689,364.572c2.692-6.322,6.505-12.225,10.969-17.237c0.339-1.311,0.665-2.625,0.964-3.945
	c0.626-2.761,1.274-5.585,2.422-8.178c-6.266,1.809-2.85,13.843-9.892,14.837c-2.626-9.098,8.733-30.365,0-22.504
	C150.769,340.342,136.145,358.047,147.689,364.572z"/>
<path fill="#CFCFD1" d="M131.414,375.275c-1.122-2.42-2.468-4.604-4.113-6.472C128.762,371.766,130.109,373.865,131.414,375.275z"/>
<path fill="#CFCFD1" d="M142.966,401.662c-0.229-0.492-0.399-1.038-0.466-1.662c-0.213-2.009-0.208-4.232,0.086-6.418
	c-0.012-3.11-0.073-6.22-0.086-9.332c-0.005-1.265,0.423-2.246,1.086-2.957c0.194-3.144,0.716-6.28,1.541-9.361
	c-5.667,5.088-9.454,7.951-13.713,3.343c7.435,16.049,4.737,42.802,10.088,61.05c1.058-1.448,1.961-2.895,2.733-4.339
	c-0.853-5.399-1.394-10.838-1.604-16.213C142.449,411.104,142.531,406.364,142.966,401.662z"/>
<path fill="#CFCFD1" d="M163.724,485.883c-0.191,0.465-0.373,0.934-0.588,1.389c-1.701,3.591-7.316,2.497-8.225-1.075
	c-0.264-1.035-0.536-2.071-0.812-3.107c-0.419-0.444-0.797-0.951-1.112-1.527c-2.803-5.132-3.692-11.414-4.374-17.131
	c-0.246-2.064-0.434-4.131-0.567-6.197c-0.259-1.566-0.476-3.138-0.649-4.715c-0.748-0.764-1.524-1.497-2.339-2.189
	c0.247,27.246,12.949,41.334,21.303,60.019C166.72,499.458,162.853,493.571,163.724,485.883z"/>
<path fill="#CFCFD1" d="M105.998,342.545c1.769-51.909,32.641-105.544,46.156-157.544
	C146.664,232.981,122.48,293.679,105.998,342.545z"/>
<path fill="#959CA0" d="M162.806,173.748c11.651,18.697-1.08,43.771-10.652,52.514C148.962,216.5,158.874,188.452,162.806,173.748z"
	/>
<path fill="#959CA0" d="M155.707,233.766c6.202,3.45,7.836,11.726,7.099,22.505c-7.749-0.68-11.294,3.07-10.652,11.252
	C144.038,261.112,157.947,246.386,155.707,233.766z"/>
<path fill="#CFCFD1" d="M116.65,357.553c-3.535-33.779,18.512-72.943,28.406-105.033
	C147.554,270.581,127.261,328.446,116.65,357.553z"/>
<path fill="#F6F5F3" d="M162.644,333.979c0.363-0.688,0.757-1.361,1.22-2c1.995-2.751,7.546-3.206,8.225,1.075
	c0.901,5.682,1.038,11.594,0.116,17.311c0.344-0.183,0.75-0.3,1.253-0.315c0-5.001,0-10.002,0.001-15.004v-7.5
	C168.144,327.886,161.804,327.139,162.644,333.979z"/>
<path fill="#F6F5F3" d="M146.973,444.958c-1.133-4.261-2.048-8.599-2.738-12.97c-0.771,1.443-1.675,2.889-2.731,4.336
	c-0.154,5.165,1.67,8.236,3.553,11.253c0.696,0.149,1.333,0.36,1.945,0.597C146.965,447.104,146.955,446.032,146.973,444.958z"/>
<path fill="#CFCFD1" d="M414.893,398.813c-7.876-11.414,6.134-82.868,3.55-26.256c0.08,8.839-6.113,11.042-3.55,22.507
	C414.893,396.314,414.893,397.563,414.893,398.813z"/>
<path fill="#CFCFD1" d="M468.147,466.333c8.519-8.508-1.604-36.705,10.651-41.262c1.183,0,2.367,0,3.554,0
	c1.114,5.073,5.053,7.164,3.55,15.004c-6.709,2.809-2.462,11.199-10.651,3.75c10.406,20.901-14.209,41.389,3.549,33.765
	c1.251,15.073-0.055,27.446-10.651,30.007C470.884,489.004,468.063,487.727,468.147,466.333z"/>
<path fill="#959CA0" d="M127.302,507.596c-0.761-26.706-16.494-37.591-21.304-60.019c-0.385,2.303-0.946,5.243-1.463,8.508
	c1.509,10.466,2.804,20.952,3.696,31.469c0.412,0.452,0.843,0.888,1.317,1.285c-0.288,1.574-0.609,2.558-0.963,3.118
	c0.395,5.364,0.673,10.736,0.811,16.119c6.875,11.387,15.455,20.971,25.008,29.527c-2.21,13.038-14.836-21.063-14.203,0
	c10.533,6.378,10.08,24.362,17.753,33.762c0.795,2.911,0.098,7.399,3.549,7.503C190.691,583.531,171.036,513.265,127.302,507.596z"
	/>
<path fill="#ECE7E1" d="M147.002,448.175c-0.613-0.236-1.25-0.447-1.946-0.597v3.751c0.815,0.692,1.592,1.426,2.339,2.19
	C147.2,451.745,147.065,449.964,147.002,448.175z"/>
<path fill="#F6F5F3" d="M326.128,83.72c-23.98-6.251-40.589-1.265-63.91,0c9.324-12.119,61.693-12.119,71.01,0
	c-1.182,0-2.362,0-3.546,0C328.496,83.72,327.311,83.72,326.128,83.72z"/>
<path fill="#B1B6C3" d="M262.218,162.494c9.856-18.037-0.762-46.615-3.546-63.769c3.546,0,7.099,0,10.648,0c0,2.501,0,5.001,0,7.502
	c5.994-2.827,19.717,2.101,31.956,11.253c-13.165-2.657-15.237,6.408-28.406,3.75c6.5,12.393-7.347,29.557,10.651,33.761
	c-0.751,4.208-3.939,5.839-7.098,7.502c-0.854-4.075-5.848-9.007-7.103-3.751c10.196,5.168,3.032,13.768,7.103,30.008
	c0.011,3.763-2.875,4.465-3.553,7.502C267.194,187.25,259.106,180.788,262.218,162.494z"/>
<path fill="#FFFFFF" d="M172.205,350.364c-0.276,1.715-0.638,3.414-1.116,5.082c-0.144,0.5-0.37,0.945-0.656,1.333
	c0.051,0.342,0.096,0.686,0.156,1.024c0.78,4.439-4.347,6.87-7.101,4.994c-0.051,0.132-0.097,0.267-0.149,0.398
	c-0.802,2.021-1.748,3.953-2.729,5.868c5.082-0.25,10.347,2.413,12.848,6.814v-25.829
	C172.956,350.064,172.549,350.182,172.205,350.364z"/>
<path fill="#FFFFFF" d="M173.458,395.064v-6.372c-0.709,2.973-1.199,5.986-1.518,9.03
	C172.378,396.765,172.876,395.87,173.458,395.064z"/>
<path fill="#ECE7E1" d="M173.458,395.064c-0.582,0.806-1.08,1.701-1.518,2.659c-1.307,12.497,0.168,25.488,0.226,38.11
	c0.001,0.258-0.022,0.5-0.033,0.75c0.462,1.654,0.865,3.322,1.271,4.99C175.448,428.21,171.675,408.699,173.458,395.064z"/>
<path fill="#F6F5F3" d="M468.147,466.333c-0.085,21.394,2.735,22.671,0,41.264c0,7.501,0,15.004,0,22.509
	C461.313,520.664,463.548,451.478,468.147,466.333z"/>
<path fill="#F6F5F3" d="M447.167,590.651c0-6.229,0.289-12.534-0.233-18.745c-0.028-0.342-0.06-0.683-0.09-1.024v26.888
	C447.002,595.313,447.167,592.907,447.167,590.651z"/>
<path fill="#CFCFD1" d="M368.735,642.634c11.018-84.521-13.15-176.531,3.55-258.824c1.375,83.993-0.784,186.435,10.65,255.074
	c6.038-7.375,4.082-23.196,10.651-30.007c1.572,7.092-4.829,22.608,7.104,18.757c3.858-39.396-11.789-109.845,0-157.548
	c6.121,47.298,2.842,104.526,7.1,153.795c11.162,6.004,12.198-23.135,14.205-3.75C405.667,629.137,389.063,637.855,368.735,642.634z
	"/>
<path fill="#CFCFD1" d="M311.928,646.389c-2.694,6.2-29.26,6.2-31.956,0C294.483,642.707,294.323,646.8,311.928,646.389z"/>
<path fill="#CFCFD1" d="M436.192,458.832c5.848,35.085,8.403,73.65,7.103,116.284c-9.255-41.647,0.741-80.638-14.202-116.284
	c-2.162,8.967,4.458,27.214-3.553,30.008c2.364-57.522-4.721-125.027,3.553-176.302c6.107-0.201,9.104,2.889,10.653,7.5
	c-7.749,2.393-11.295-10.63-10.653,3.753c2.352,37.529-4.712,85,3.554,116.284C434.588,445.524,428.495,459.464,436.192,458.832z"/>
<path fill="#959CA0" d="M173.458,327.545c0-5.005,0-10.006,0-15.007c-4.37,1.638-7.292,4.801-7.098,11.253
	c-7.705,0.631-1.613-13.304-3.553-18.753c-7.296,1.043-7.084,10.017-10.652,15c-8.47-14.1,10.163-31.657,7.099-52.515
	c5.946-10.801,2.827,19.17,3.553,26.257c12.796-19.527,0.798-41.981,14.201-60.014c-11.057-7.021,1.36-61.803,0-78.774
	c18.009,67.645-7.489,131.42,3.549,195.058c-7.004,14.172,0.875-17.893-7.099-15.004
	C173.458,332.543,173.458,330.044,173.458,327.545z"/>
<line fill="#FFFFFF" stroke="#707070" stroke-width="2" stroke-miterlimit="10" x1="295.95" y1="210.073" x2="295.95" y2="642.634"/>
<polygon fill="#CFCFD1" points="339.735,139.987 352.043,200.25 296.915,211.509 "/>
<polygon fill="#CFCFD1" points="294.789,210.477 236.753,190.111 255.384,137.02 "/>
<ellipse fill="#CFCFD1" cx="296" cy="268.303" rx="4.167" ry="4.53"/>
<ellipse fill="#CFCFD1" cx="296" cy="353.959" rx="4.167" ry="4.53"/>
<ellipse fill="#CFCFD1" cx="295.95" cy="518.851" rx="4.167" ry="4.53"/>
<ellipse fill="#CFCFD1" cx="295.95" cy="434.45" rx="4.167" ry="4.53"/>
</svg>
