<?xml version="1.0" encoding="utf-8"?>
<!-- Generator: Adobe Illustrator 15.0.0, SVG Export Plug-In . SVG Version: 6.00 Build 0)  -->
<!DOCTYPE svg PUBLIC "-//W3C//DTD SVG 1.1//EN" "http://www.w3.org/Graphics/SVG/1.1/DTD/svg11.dtd">
<svg version="1.1" id="Capa_1" xmlns="http://www.w3.org/2000/svg" xmlns:xlink="http://www.w3.org/1999/xlink" x="0px" y="0px"
	 width="612px" height="792px" viewBox="0 0 612 792" enable-background="new 0 0 612 792" xml:space="preserve">
<path fill="#959CA0" d="M200.01,150.387c14.806-4.099,5.715,17.044,8.194,25.962C198.491,173.958,191.206,159.616,200.01,150.387z"
	/>
<path fill="#D2C7B1" d="M318.799,159.044c-1.854,13.736-22.01,16.367-24.578,0C301.506,167.124,304.633,155.525,318.799,159.044z"/>
<path fill="#D2C7B1" d="M445.777,185.006c7.139-0.324,12.744,0.968,16.389,4.331c0,4.327,0,8.653,0,12.979
	c-6.826,5.774-6.363,19.246-12.289,25.967C432.172,222.205,451.182,204.083,445.777,185.006z"/>
<path fill="#959CA0" d="M396.627,197.989c-4.482,9.692-6.785,21.682-12.289,30.293C375.318,221.254,379.662,191.899,396.627,197.989
	z"/>
<path fill="#CFCFD1" d="M113.992,210.973c4.095,0,8.194,0,12.285,0c-3.678,12.672-3.678,13.294,0,25.966
	C117.712,233.004,113.794,224.166,113.992,210.973z"/>
<path fill="#CFCFD1" d="M367.955,288.868c14.52,5.883,8.088,7.02,24.576,8.657c-9.226,21.99-12.068,50.725-32.771,60.59
	C360.557,332.985,355.893,302.091,367.955,288.868z"/>
<path fill="#CFCFD1" d="M417.109,301.855c15.571-3.472,5.207,20.462,8.188,30.293c-6.151,6.481-17.246,7.739-20.479,17.305
	C400.654,332.375,416.727,324.943,417.109,301.855z"/>
<path fill="#E5D9CD" d="M298.32,401.387c0.008-4.34-3.316-5.151-4.1-8.653c7.314-18.997-10.765-35.89-4.094-51.933
	c13.365,1.747-0.518,32.283,20.482,25.966c-15.329,12.625,8.829,23.791-8.193,34.62C301.047,401.387,299.684,401.387,298.32,401.387
	z"/>
<path fill="#E5D9CD" d="M212.299,345.127c15.167-3.039,7.066,18.505,16.388,21.64C220.951,378.803,210.548,357.416,212.299,345.127z
	"/>
<path fill="#C2AE9D" d="M359.76,388.407c-3.024-19.073,13.263-17.73,16.385-30.293c12.271,2.05-0.411,35.478-12.288,38.945
	C364.52,392.026,362.955,389.358,359.76,388.407z"/>
<path fill="#CFCFD1" d="M249.165,384.077c3.384-12.23-5.774-11.211-4.099-21.636c7.735,6.253,18.16,9.663,16.388,25.966
	C258.159,386.118,254.805,383.887,249.165,384.077z"/>
<path fill="#C2AE9D" d="M142.665,379.75c3.447,16.552,5.354,34.736,4.095,56.259c0,1.443,0,2.883,0,4.326
	c-3.19,0.955-4.76,3.623-4.095,8.656c-6.456,0.387-3.207,11.035-12.289,8.651c-8.042-25.721,3.788-43.178,0-82.225
	C139.82,366.834,134.93,376.51,142.665,379.75z"/>
<path fill="#C2AE9D" d="M396.627,388.407c0.838,18.198-15.566,18.173-16.385,34.618C362.307,414.988,380.74,387.633,396.627,388.407
	z"/>
<path fill="#959CA0" d="M396.627,453.318c-11.545-12.486,11.367-25.279,12.289-38.945
	C419.508,425.846,396.59,438.639,396.627,453.318z"/>
<path fill="#E5D9CD" d="M216.397,427.352c9.974,2.441,21.068,3.705,20.479,17.314C226.902,442.221,215.809,440.959,216.397,427.352z
	"/>
<path fill="#959CA0" d="M318.799,457.645c-0.227-5.528-5.252-5.991-4.095-12.979c11.552,12.314,22.924,24.826,28.673,43.271
	c-12.929-3.651-11.648-22.309-24.578-25.967C318.799,460.531,318.799,459.088,318.799,457.645z"/>
<path fill="#C2AE9D" d="M429.398,483.611c0,7.213,0,14.428,0,21.641c-2.298,12.537-6.394-6.641-12.289-4.33
	c-2.988-11.807,8.139-8.709,8.188-17.311C426.662,483.611,428.031,483.611,429.398,483.611z"/>
<path fill="#C2AE9D" d="M171.337,492.264c6.333,6.293,8.598,16.886,8.194,30.297C167.815,521.955,172.04,504.512,171.337,492.264z"
	/>
<path fill="#C2AE9D" d="M183.626,544.197c13.295-2.508,19.056,2.949,28.673,4.33C211.314,554.781,178.588,558.586,183.626,544.197z"
	/>
<path fill="#CFCFD1" d="M236.876,557.18c9.317,17.146-25.091,19.17-20.479,4.332C226.262,563.283,225.299,553.604,236.876,557.18z"
	/>
<path fill="#A88772" d="M478.549,617.77c0-1.442,0-2.887,0-4.329c3.39-12.23-5.77-11.212-4.094-21.638
	c9.924,3.939,10.846,17.392,12.289,30.293C482.631,622.109,481.869,618.592,478.549,617.77z"/>
<path fill="#D2C7B1" d="M519.512,674.025c2.5,0.248,4.849,0.647,4.099,4.33c-5.955,6.69-15.979,9.086-28.677,8.651
	C497.299,676.525,510.404,677.389,519.512,674.025z"/>
<path fill="#D2C7B1" d="M527.705,691.34c4.129,0.049,5.15,7.582,0,8.652c-4.844,4.981-14.482,4.897-24.578,4.33
	C500.746,688.822,515.252,691.162,527.705,691.34z"/>
<path fill="#ECE7E1" d="M206.616,143.378c-0.807,0.923-1.636,1.823-2.507,2.678c13.992-4.507,18.742-9.902,22.576-17.641
	C221.317,135.134,214.607,139.935,206.616,143.378z"/>
<path fill="#ECE7E1" d="M246.809,89.124c-0.562,0.483-1.108,0.983-1.646,1.493c-0.491,2.111-1.098,4.211-1.793,6.294
	c3.548-4.384,7.737-8.09,12.602-11.083c-1.711-0.086-3.421-0.188-5.132-0.287C249.62,86.831,248.272,88.033,246.809,89.124z"/>
<path fill="#F6F5F3" d="M70.803,614.772c-0.68,7.558-1.585,15.1-2.976,22.642c-0.746,4.044-2.805,7.505-5.634,10.241
	c-1.085,6.143-1.115,11.219,2.644,13.388C72.553,651.451,80.345,623.407,70.803,614.772z"/>
<path fill="#F6F5F3" d="M440.213,618.817c2.761,0.097,5.522,0.169,8.287,0.183c1.205,0.006,2.392,0.105,3.553,0.29
	c0.88-8.91,1.432-18.166,10.113-18.833c-0.867-4.854-4.545-6.738-8.193-8.654c-4.719,5.115-4.635,15.295-4.096,25.967h-4.1
	C443.937,618.05,442.03,618.391,440.213,618.817z"/>
<path fill="#F6F5F3" d="M507.222,481.487v2.125c-0.394,1.931,0.071,2.955,0.96,3.531
	C507.855,485.259,507.536,483.374,507.222,481.487z"/>
<path fill="#CFCFD1" d="M255.973,85.828c-4.865,2.993-9.055,6.699-12.604,11.083c-1.156,3.466-2.566,6.878-4.127,10.199h1.734
	c1.065-6.086,8.981-4.932,12.285-8.657c-0.32-15.402,23.417-5.388,31.513-11.895C275.171,86.563,265.569,86.311,255.973,85.828z"/>
<path fill="#CFCFD1" d="M343.147,83.147c-11.836,1.424-23.695,2.384-35.565,2.911c5.183,1.166,8.93,3.848,11.218,8.069
	c-17.583,4.07-35.2,1.41-61.444,4.327c5.281,20.39,10.899,40.422,20.482,56.259c0.467-5.282,1.225-10.248,8.194-8.657
	c-2.23,25.546,22.957,44.846,8.189,69.247c-4.974-7.73-0.748-25.179-8.189-30.297c-3.148,16.308,4.995,20.685,4.096,34.623v4.326
	c10.525,10.521,10.845,31.821,12.289,51.933c19.291-1.633,15.348,21.291,28.672,25.966c10.344-13.068-4.444-25.786,4.101-38.954
	c-10.271,0.749-9.95-9.688-16.39-12.979c9.284-13.274-1.954-48.226,8.189-60.586c-0.538-10.672-0.613-20.853,4.1-25.966
	c-0.834-23.963-0.573-46.764,8.189-60.585c-3.816-4.621-15.108-1.347-12.289-12.988c9.503-1.38,15.731,0.699,20.481,4.331
	c0.479-3.108,0.271-5.493-0.458-7.326C345.606,85.771,344.317,84.581,343.147,83.147z M294.221,159.044
	c7.285,8.08,10.412-3.519,24.578,0C316.944,172.78,296.789,175.411,294.221,159.044z"/>
<path fill="#D2C7B1" d="M427.958,509.262c0.54-0.498,1.021-1.722,1.44-4.012C428.678,506.431,428.214,507.781,427.958,509.262z"/>
<path fill="#D2C7B1" d="M503.264,454.619c-0.002-0.004-0.003-0.008-0.004-0.012c0.492,4.008,0.048,1.256-0.332-1.183
	c-9.809-35.738-11.098-92.958-3.895-129.936v-38.95c-4.193-4.226-8.291-8.552-12.289-12.979c15.559-3.947,2.996-17.394,4.094-30.297
	v-4.326c-3.752-2.777-4.479-8.75-4.801-15.152c-0.35-0.768-0.694-1.539-1.05-2.304c-3.18-6.839-6.394-13.704-9.865-20.405
	c1.956,8.876,7.051,14.437,7.522,24.877c-18.23,5.446-9.633,42.645-28.672,21.64c-0.918,8.182,4.615,9.545,4.095,17.306
	c15.866,3.779,6.694-18.892,24.577-12.979c-25.94,75.012-46.444,155.77-94.211,207.722c19.211-64.81,53.681-113.501,65.539-186.082
	c-8.159-9.024-14.343,3.185-20.483,8.652c-8.824-3.657,1.541-27.59-8.189-30.292c-4.965,18.075-19.086,2.011-20.479-8.657
	c8.35,2.416,8.03,13.021,16.385,4.331v-21.64c-16.246-2.736-11.738,16.455-28.674,12.983c0.27,12.697,12.518,12.743,16.385,21.636
	c-19.676,10.188-26.084,11.388-45.061,17.313c-2.449-7.706,12.012-17.974,0-21.64c-9.298,10.37-12.72,26.951-20.479,38.95
	c2.671-39.278,27.709-85.272,8.189-121.175c-14.436,6.385-9.798,32.928-24.578,38.95v-21.636
	c-10.143,12.36,1.095,47.312-8.189,60.586c6.44,3.291,6.119,13.728,16.39,12.979c-8.545,13.169,6.243,25.887-4.101,38.954
	c-13.324-4.675-9.381-27.599-28.672-25.966c-1.444-20.112-1.764-41.412-12.289-51.933c-2.45,7.706,12.006,17.97-0.006,21.639
	c-15.862-33.736-27.048-72.408-49.152-99.54c-0.042,25.933-20.377,30.41-32.771,43.28c-8.766-6.607-13.382-17.6-28.672-17.313
	c0.063,12.915,10.648,14.713,12.289,25.966c12.516,3.127,14.924-4.423,24.578-4.326c2.206,19.426,15.883,49.412,12.289,60.585
	c-33.306-13.862-53.321-41.756-65.543-77.899c-5.077-7.813-13.083-2.336-20.206,1.164c-0.636,0.425-1.269,0.856-1.906,1.28
	c-3.498,2.326-7.033,4.603-10.459,7.035c-0.717,0.509-2.768,2.105-3.334,2.527c-0.656,0.554-1.306,1.117-1.934,1.703
	c-1.493,1.395-2.967,2.825-4.316,4.365c-0.323,0.481-0.655,0.957-0.957,1.452c-0.446,0.762-1.11,2.367-1.471,3.223
	c-0.274,0.982-0.519,1.972-0.729,2.984c-0.677,3.263-2.166,6.155-4.201,8.595c-5.477,18.275-9.707,36.919-13.454,55.63
	c-1.343,27.203-1.528,55.628-6.667,78.82c4.747,6.405,4.747,10.908,0,17.314c0.063,43.338,1.549,88.184-8.189,121.17
	c-0.003,0.012-0.006,0.024-0.009,0.035c-0.039,0.291-0.075,0.556-0.103,0.76c-0.105,0.865-0.216,1.729-0.312,2.596
	c-0.025,0.229-0.045,0.458-0.07,0.688c-0.018,7.862,3.436,19.393-1.988,21.543c-0.109,1.318-0.219,2.636-0.33,3.954
	c-1.191,14.255-2.519,28.569-5.082,42.653c-0.141,0.775-0.307,1.537-0.458,2.307c0.885,16.425,2.407,33.522-3.937,42.311
	c-0.435,0.066-0.813,0.191-1.167,0.343c-0.307,4.666-0.639,9.323-1.057,13.975c9.537,8.64,1.745,36.678-5.97,46.269h4.095
	c10.252-10.897,16.085,4.969,28.677,4.33c16.009-117.418,12.55-301.005,16.384-424.108c9.713,66.196,36.845,113.984,36.862,190.415
	c12.672-0.403,12.209,13.07,12.289,25.965v4.326c8.232,31.81,9.932,86.929-4.095,90.883c0.24,19.007-1.646,35.769-8.194,47.604
	c0.236,2.642,0.614,5.125,4.099,4.33c9.318-3.141-3.771-29.951,12.289-25.967c7.609,10.648-10.319,9.688,0,25.967
	c28.147-17.006,55.629-28.707,81.923-8.656c-31.816,3.938-70.172,23.887-94.211,21.639c-13.907,9.688,16.505,5.629,20.157,12.086
	c16.142-6.294,31.956-13.772,48.775-17.898c-0.792-0.871-1.905-1.814-3.397-2.844c7.12-0.58,13.748-0.641,20.074-0.382
	c16.405-2.636,32.944-3.942,49.556-3.962c-2.533-5.972-15.761-0.644-16.375-8.639c8.806,1.688,16.116,4.957,22.979,8.698
	c2.026,0.039,4.052,0.09,6.08,0.167c8.528,0.323,17.079,0.825,25.554,1.897c-0.485-0.671-0.948-1.365-1.366-2.106
	c21.568,1.298,38.854,5.705,56.325,8.586c6.364,0.768,12.729,1.555,19.096,2.295c10.787,0.703,22.199,0.288,35.179-2.229
	c-11.578-28.34-28.937-30.195-65.539-25.967c3.943-15.996-27.965-16.227-16.383-25.961c12.643,1.064,23.155,4.384,32.768,8.652
	c-23.938-42.524-79.523-74.635-90.113-116.847c39.948,45.789,94.153,76.516,126.979,129.828c9.731,3.599,19.069-21.412,20.479,0
	c6.727,0.711,6.727-26.678,0-25.967c-9.039,10.67-22.541-10.555-24.572-21.635c8.604,5.332,15.97,11.977,24.572,17.309
	c-9.461-13.811-19.731-32.496-17.819-43.59c-2.415,2.227-6.03-10.23-10.849-8.342c-2.989-11.807,8.138-8.709,8.188-17.311h4.101
	c-2.231-2.168-2.88-28.063,8.188-38.945c-0.602-11.877-0.762-22.313,8.189-12.986c0.674-13.69-10.883-14.461-8.189-30.293
	c6.377-37.983,30.252-57.472,40.961-90.879c18.303,51.883-4.69,132.198,28.674,173.104v-2.123
	C505.733,472.56,504.379,463.611,503.264,454.619z M126.277,236.939c-8.565-3.935-12.483-12.773-12.285-25.966h12.285
	C122.599,223.645,122.599,224.267,126.277,236.939z M417.11,301.855c15.571-3.472,5.207,20.462,8.188,30.293
	c-6.152,6.481-17.247,7.739-20.479,17.305C400.654,332.375,416.727,324.943,417.11,301.855z M380.242,423.025
	c-17.936-8.037,0.498-35.393,16.385-34.618C397.465,406.605,381.06,406.58,380.242,423.025z M367.955,288.867
	c14.519,5.884,8.088,7.02,24.576,8.657c-9.225,21.99-12.068,50.725-32.771,60.59C360.557,332.985,355.893,302.091,367.955,288.867z
	 M376.144,358.115c12.272,2.05-0.411,35.478-12.288,38.945c0.664-5.035-0.9-7.703-4.097-8.652
	C356.734,369.335,373.021,370.678,376.144,358.115z M232.777,288.869c3.817,10.395,16.464,11.46,12.289,30.293
	c-4.933-4.882-7.424-12.348-20.479-8.653c-0.286,21.943,14.486,27.969,16.388,47.606c-3.321-0.825-4.087-4.344-8.198-4.331
	c8.442,31.475,30.744,48.304,36.866,82.227c-32.17-22.293-70.918-75.084-81.923-134.155
	C198.452,292.994,211.675,286.773,232.777,288.869z M245.066,362.441c7.735,6.253,18.159,9.662,16.388,25.966
	c-3.295-2.289-6.649-4.52-12.289-4.33C252.549,371.847,243.391,372.865,245.066,362.441z M179.531,522.561
	c-11.716-0.605-7.491-18.049-8.194-30.297C177.671,498.557,179.935,509.149,179.531,522.561z M183.626,544.197
	c13.295-2.508,19.056,2.949,28.673,4.33C211.314,554.781,178.588,558.586,183.626,544.197z M216.397,561.512
	c9.865,1.771,8.902-7.908,20.479-4.332C246.193,574.326,211.785,576.35,216.397,561.512z M326.987,535.547
	c3.881,15.638-16.127,6.035-24.572,8.652c-5.502,2.849-7.631,9.25-8.195,17.313c11.221,5.147,35.25,11.304,57.346,25.961
	c-28.744,23.871-58.292-24.422-94.211-21.635c-2.02-13.59,14.123-11.436,4.099-21.641c-7.205,1.043-9.339,7.449-8.194,17.313
	c-10.685-13.232-30.2-17.143-45.056-25.967c-3.599-59.9-51.353-95.467-45.061-151.468c18.913,27.909,43.713,82.394,65.543,121.175
	c-0.387-61.646-45.443-113.546-53.254-181.761C210.135,408.01,278.978,479.512,326.987,535.547z M396.627,474.958
	c-13.859,1.658-6.443-19.158-24.578-12.988c-1.767,16.396,22.681,42.326,28.674,64.916c-22.467,6.786-36.45-29.938-53.252-43.274
	c3.523,3.494,2.438,11.855,8.193,12.981c-13.009,6.373-28.758-21.434-36.867-34.623v-4.326
	c-25.116-39.815-55.371-74.211-65.539-129.827c19.923,7.807,16.022,40.776,32.772,51.933
	c-19.763-38.529-14.494-89.873-16.388-142.812c21.413,40.852,47.825,76.418,69.634,116.845c-7.223-15.954-3.553-39.379,0-56.259
	c12.457,6.561-7.171,51.812,16.389,34.624v43.272c-9.621-1.381-9.166-13.392-16.389-17.306
	c16.35,33.213,37.699,61.148,45.061,103.855c31.012-0.408,26.149-38.727,45.062-51.928
	C426.154,422.575,420.19,469.491,396.627,474.958z"/>
<path fill="#D2C7B1" d="M351.565,94.178c-1.231-0.158-2.588-0.184-4.095-0.051c-4.75-3.631-10.979-5.71-20.482-4.331
	c-2.819,11.641,8.473,8.367,12.289,12.988c-8.762,13.82-9.023,36.622-8.189,60.585c10.543-17.714-2.255-60.089,20.479-64.916
	c1.212,0.292,1.963,1.07,2.534,2.038C353.217,98.38,352.385,96.262,351.565,94.178z"/>
<path fill="#B1B6C3" d="M156.822,167.959c-4.585,3.257-9.227,6.436-13.904,9.563c7.128-3.5,15.144-8.994,20.225-1.173
	c-1.153-6.986,3.872-7.449,4.099-12.979C164.125,165.276,160.55,166.699,156.822,167.959z"/>
<path fill="#C2AE9D" d="M290.128,223.955v-4.326c-15.404-37.102-29.784-75.281-36.867-121.175
	c-3.304,3.725-11.22,2.572-12.285,8.657h-1.735c-2.748,5.844-5.962,11.401-9.106,16.439c-1.078,1.728-2.233,3.341-3.45,4.864
	c-3.834,7.739-8.583,13.134-22.576,17.642c-18.622,5.264-24.719,16.555-35.708,13.369c-0.386,0.296-0.771,0.594-1.158,0.889
	c0,1.018,0,2.037,0.002,3.056c-0.227,5.53-5.252,5.993-4.099,12.979c12.221,36.142,32.237,64.036,65.543,77.899
	c3.594-11.173-10.083-41.159-12.289-60.585c-9.655-0.097-12.062,7.453-24.578,4.326c-1.642-11.253-12.226-13.05-12.289-25.966
	c15.289-0.287,19.906,10.706,28.672,17.313c12.394-12.869,32.729-17.347,32.771-43.28c22.104,27.133,33.29,65.805,49.152,99.54
	C302.134,241.925,287.678,231.661,290.128,223.955z M208.204,176.349c-9.713-2.391-16.998-16.733-8.194-25.962
	C214.816,146.287,205.725,167.431,208.204,176.349z"/>
<path fill="#C2AE9D" d="M351.566,98.454c-17.045,25.933,2.248,28.824,20.481,38.95c-1.35,15.857,4.549,24.047,8.193,34.619
	c14.94-9.057,27.676-18.13,45.057-4.327c7.045-6.354-5.317-9.132,12.289-4.326c3.316,0.821,4.082,4.343,8.189,4.326
	c4.748,6.405,4.748,10.909,0,17.31c5.403,19.077-13.605,37.199,4.1,43.276c5.926-6.721,5.463-20.192,12.289-25.967
	c13.682-0.025,10.854,17.386,20.479,21.64c-18.229,5.446-9.633,42.645-28.672,21.64c-0.918,8.182,4.615,9.545,4.095,17.306
	c15.866,3.779,6.694-18.892,24.577-12.979c-25.94,75.012-46.444,155.77-94.211,207.722c19.211-64.81,53.681-113.501,65.539-186.082
	c-8.159-9.023-14.344,3.186-20.483,8.652c-8.824-3.657,1.541-27.591-8.189-30.292c-4.965,18.075-19.086,2.011-20.479-8.657
	c8.35,2.416,8.03,13.021,16.385,4.331c0-7.213,0-14.427,0-21.64c-16.246-2.735-11.738,16.456-28.674,12.983
	c0.27,12.697,12.518,12.743,16.385,21.636c-19.676,10.189-26.084,11.388-45.061,17.314c-2.449-7.706,12.012-17.975,0-21.64
	c-9.298,10.37-12.72,26.951-20.479,38.95c2.672-39.278,27.709-85.272,8.189-121.175c-14.437,6.384-9.798,32.927-24.578,38.95
	c0-7.213,0-14.423,0-21.636c-0.538-10.672-0.613-20.853,4.1-25.966C341.631,145.656,328.832,103.281,351.566,98.454z
	 M408.916,414.373c-0.922,13.666-23.834,26.459-12.289,38.945C396.59,438.639,419.508,425.846,408.916,414.373z M384.338,228.282
	c5.504-8.611,7.807-20.601,12.289-30.293C379.662,191.899,375.318,221.254,384.338,228.282z"/>
<path fill="#B1B6C3" d="M474.337,197.543c-3.173-6.026-6.686-11.883-10.699-17.389c-0.645-0.828-1.511-1.937-1.897-2.395
	c-0.901-1.068-1.803-2.136-2.736-3.177c-2.141-2.385-4.332-4.725-6.616-6.972c-1.987-0.2-4.294-0.062-6.61,0.085
	c4.748,6.406,4.748,10.909-0.001,17.309c7.139-0.323,12.743,0.969,16.389,4.331v12.979c13.682-0.025,10.854,17.386,20.479,21.64
	c-0.472-10.443-5.569-16.004-7.524-24.884C474.856,198.563,474.604,198.049,474.337,197.543z"/>
<path fill="#CFCFD1" d="M339.277,353.784c0,1.444,0,2.883,0,4.331c16.35,33.214,37.698,61.148,45.061,103.855
	c31.012-0.407,26.148-38.727,45.062-51.928c-3.244,12.533-9.209,59.449-32.771,64.916c-13.859,1.658-6.443-19.158-24.578-12.988
	c-1.768,16.396,22.681,42.326,28.674,64.916c-22.467,6.785-36.45-29.938-53.252-43.274c-13.739-30.199-35.877-51.533-49.149-82.226
	c1.363,0,2.727,0,4.096,0c17.022-10.829-7.135-21.994,8.193-34.62c-21,6.317-7.117-24.22-20.482-25.966
	c-6.671,16.042,11.408,32.936,4.094,51.933c-3.82-3.173-6.203-7.87-8.189-12.983c-19.763-38.529-14.494-89.873-16.388-142.812
	C291.057,277.791,317.469,313.357,339.277,353.784z M335.188,388.407c3.816,4.617,15.107,1.347,12.283,12.979
	c-5.146-0.946-8.369-6.738-8.192,4.326c7.836-1.818,17.635-1.565,16.389-12.979C354.336,387.75,337.797,377.831,335.188,388.407z
	 M355.666,466.303c-8.443-1.176-0.977-19.162-12.289-17.311c-0.051,5.719-7.18,3.957-8.189,8.651
	C341.496,464.291,349.967,469.412,355.666,466.303z M326.988,440.336c0.91-3.371,3.435-5.029,8.199-4.326
	c-14.697-14.254-7.585-26.819-28.679-30.297C311.956,418.717,317.818,431.275,326.988,440.336z"/>
<path fill="#C2AE9D" d="M318.799,457.645c-25.116-39.815-55.371-74.211-65.539-129.827c19.923,7.807,16.022,40.776,32.772,51.933
	c1.986,5.113,4.369,9.81,8.189,12.983c0.783,3.501,4.107,4.313,4.1,8.653c13.273,30.691,35.411,52.025,49.15,82.226
	c3.523,3.493,2.438,11.854,8.195,12.981c-13.009,6.373-28.758-21.434-36.867-34.623c12.929,3.658,11.649,22.314,24.578,25.967
	c-5.749-18.444-17.121-30.957-28.673-43.271C313.547,451.652,318.572,452.115,318.799,457.645z"/>
<path fill="#C2AE9D" d="M383.306,613.373c-17.469-2.882-34.753-7.289-56.317-8.586c0.418,0.741,0.881,1.436,1.366,2.106
	c4.876,0.617,9.727,1.419,14.531,2.492c0.37,0.083,0.737,0.176,1.106,0.261c2.275,0.113,4.533,0.249,6.763,0.408
	C361.616,610.829,372.462,612.065,383.306,613.373z"/>
<path fill="#C2AE9D" d="M355.666,561.511c-11.582,9.734,20.326,9.965,16.383,25.961c36.602-4.228,53.961-2.373,65.539,25.968
	c-12.976,2.517-24.385,2.932-35.168,2.229c12.577,1.461,25.165,2.704,37.788,3.148c1.819-0.429,3.729-0.769,5.571-1.05
	c-12.457-11.618,12.457-23.004,0-34.623c-1.411-21.411-10.749,3.599-20.479,0c-32.827-53.312-87.032-84.039-126.979-129.827
	c10.589,42.211,66.174,74.322,90.113,116.846C378.82,565.896,368.309,562.575,355.666,561.511z M376.145,535.545
	c10.504,10.537,29.725,11.871,28.677,34.619C388.704,565.555,379.885,553.233,376.145,535.545z"/>
<path fill="#CFCFD1" d="M290.118,604.77c2.2-0.003,4.4,0.018,6.603,0.06c-6.862-3.741-14.172-7.01-22.978-8.698
	C274.356,604.126,287.585,598.798,290.118,604.77z"/>
<path fill="#C2AE9D" d="M154.954,604.787c9.317-3.141-3.771-29.951,12.289-25.967c7.609,10.647-10.319,9.688,0,25.967
	c28.146-17.006,55.628-28.707,81.923-8.656c-31.816,3.938-70.172,23.887-94.211,21.639
	C154.954,613.439,154.954,609.113,154.954,604.787z"/>
<path fill="#C2AE9D" d="M68.932,661.043c10.252-10.896,16.085,4.969,28.677,4.33c16.009-117.418,12.55-301.005,16.384-424.108
	c9.713,66.196,36.845,113.983,36.862,190.415c0.757,3.683-1.595,4.082-4.095,4.33c1.258-21.522-0.648-39.707-4.095-56.259
	c-1.077-17.613-7.706-29.363-12.289-43.276C128.793,371.91,100.1,524.93,146.76,483.611c0,4.325,0,8.651,0,12.981
	c0,1.445,0,2.883,0,4.328c-9.398,18.799-5.492,27.842-8.194,56.258c-5.555,1.341-3.396,10.838-4.09,17.312
	c-9.376-7.408-1.507-33.033-4.099-47.604c-17.916,25.572-15.656,71.092-16.384,103.863c3.699,11.725,9.162-9.896,16.384-8.654
	c-14.494,14.979-4.091,56.265-12.289,77.896c-11.716,0.604-7.491,18.055-8.189,30.293c-2.736,0-5.463,0-8.194,0
	c-11.754-3.97-3.758-19.039,0-30.293c-12.739-11.107-19.085-6.429-32.771,0c2.87-13.32,2.87-8.316,0-21.638
	C79.495,677.313,63.309,670.906,68.932,661.043z"/>
<path fill="#CFCFD1" d="M99.161,271.414c-0.546,2.79-1.703,5.305-3.294,7.499c-0.544,7.903-1.249,15.636-2.358,22.942v43.272
	c5.141-23.2,5.325-51.636,6.669-78.847C99.835,267.991,99.496,269.702,99.161,271.414z"/>
<path fill="#CFCFD1" d="M498.5,254.212c-5.991-0.687-1.925-11.994-7.662-12.947c-1.098,12.903,11.465,26.35-4.094,30.297
	c3.998,4.427,8.096,8.753,12.289,12.979v-28.634C498.859,255.341,498.678,254.777,498.5,254.212z"/>
<path fill="#CFCFD1" d="M501.609,445.22c-0.605-3.824-1.204-7.649-1.726-11.486c-1.23-9.044-2.5-18.101-3.03-27.22
	c-0.76-13.074-0.029-25.997,1.854-38.86c-1.034-9.639,0.646-22.146,0.86-33.104c-0.005-1.366-0.01-2.732-0.001-4.098
	c-0.054-2.452-0.208-4.797-0.534-6.96c-7.203,36.976-5.914,94.19,3.895,129.929c-0.168-1.074-0.322-2.086-0.378-2.424
	C502.233,449.071,501.915,447.146,501.609,445.22z"/>
<path fill="#C2AE9D" d="M527.705,699.991c-4.844,4.981-14.482,4.897-24.578,4.33c-2.381-15.5,12.125-13.16,24.578-12.982
	c0.167-4.148,3.031-5.446,3.97-8.777c-0.153-1.401-0.301-2.804-0.446-4.206h-7.618c-5.955,6.69-15.979,9.086-28.677,8.651
	c2.365-10.481,15.472-9.619,24.578-12.981v-4.326c-5.952-2.365-21.17,5.059-20.479-4.326c3.084-20.736,26.438,6.848,28.672-12.984
	c-4.132-15.271-15.227,0.679-20.482-8.655c13.912-31.387,12.793-39.131,12.289-73.568c-0.199-26.449-7.914-42.513-8.586-67.724
	c-0.941-5.096-1.862-10.194-2.745-15.299c-0.887-0.576-1.352-1.601-0.958-3.53c-33.364-40.907-10.371-121.222-28.674-173.104
	c-10.709,33.407-34.584,52.897-40.961,90.879c15.318,2.928-3.029,14.385,12.289,17.312c-0.362-21.127-17.903-37.219,8.189-43.279
	c3.215,25.457,8.451,48.775,16.389,69.246c-21.936,3.889,5.781,24.99,12.289,56.256c11.135,53.539,6.295,114.34,4.094,164.451
	c-3.647-2.664-7.326-5.232-8.192,0c5.842,14.028,3.661,36.526,12.288,47.602c14.611,7.576,20.807-10.676,36.865,4.326v-12.979
	C529.301,704.073,526.951,703.673,527.705,699.991z"/>
<path fill="#CFCFD1" d="M93.51,362.441h-1.224c0.687,24.568,0.916,49.268-0.987,73.763c-1.173,15.102-3.395,30.021-5.655,44.987
	c-0.066,0.438-0.208,1.489-0.323,2.35v0.07C95.059,450.625,93.573,405.779,93.51,362.441z"/>
<path fill="#E5D9CD" d="M355.666,392.733c1.246,11.414-8.553,11.161-16.389,12.979c-0.177-11.064,3.047-5.272,8.192-4.326
	c2.824-11.633-8.467-8.363-12.283-12.979C337.797,377.831,354.336,387.75,355.666,392.733z"/>
<path fill="#E5D9CD" d="M335.188,457.645c1.011-4.694,8.14-2.934,8.189-8.651c11.313-1.853,3.846,16.135,12.289,17.311
	C349.967,469.412,341.496,464.291,335.188,457.645z"/>
<path fill="#E5D9CD" d="M306.51,405.713c21.094,3.478,13.98,16.043,28.679,30.297c-4.766-0.703-7.289,0.955-8.199,4.326
	C317.818,431.275,311.956,418.717,306.51,405.713z"/>
<path fill="#959CA0" d="M134.475,574.49c-7.592,9.293-2.77,31.703-4.099,47.604c-7.222-1.239-12.685,20.379-16.384,8.654
	c0.728-32.771-1.532-78.291,16.384-103.863C132.968,541.457,125.099,567.082,134.475,574.49z"/>
<path fill="#D2C7B1" d="M68.932,730.285c5.753-20.715-11.809-39.16,0-51.93c2.87,13.319,2.87,8.315,0,21.637
	c13.686-6.428,20.033-11.107,32.771,0c-3.758,11.254-11.754,26.324,0,30.293C90.782,730.285,79.857,730.285,68.932,730.285z"/>
<path fill="#C2AE9D" d="M339.277,353.784c-7.223-15.954-3.553-39.379,0-56.259c12.457,6.561-7.171,51.811,16.389,34.624
	c0,14.422,0,28.849,0,43.272c-9.621-1.38-9.166-13.392-16.389-17.306C339.277,356.667,339.277,355.228,339.277,353.784z"/>
<path fill="#CFCFD1" d="M326.988,535.545c3.881,15.639-16.127,6.035-24.572,8.652c-5.502,2.85-7.631,9.25-8.195,17.313
	c11.221,5.146,35.25,11.304,57.346,25.961c-28.744,23.871-58.292-24.422-94.211-21.635c-2.02-13.59,14.124-11.436,4.099-21.641
	c-7.205,1.043-9.339,7.448-8.194,17.313c-10.685-13.231-30.2-17.143-45.056-25.967c-3.598-59.9-51.352-95.467-45.061-151.468
	c18.913,27.91,43.714,82.394,65.543,121.175c-0.387-61.646-45.443-113.545-53.254-181.761
	C210.135,408.01,278.978,479.512,326.988,535.545z M224.587,448.992c4.213,18.627,29.577,14.91,32.768,34.619
	c-4.129,0.051-5.151,7.584,0,8.651c-3.03-14.737,15.096-7.129,16.388-17.305c-12.297-4.326-20.487-12.979-24.578-25.967
	C237.171,452.881,236.582,452.881,224.587,448.992z M236.876,444.666c0.589-13.609-10.505-14.873-20.479-17.314
	C215.809,440.959,226.902,442.221,236.876,444.666z"/>
<path fill="#CFCFD1" d="M269.644,436.01c-32.17-22.293-70.917-75.084-81.923-134.155c10.732-8.863,23.955-15.083,45.057-12.987
	c3.817,10.395,16.463,11.46,12.289,30.293c-4.932-4.882-7.424-12.348-20.479-8.653c-0.286,21.943,14.486,27.97,16.388,47.606
	c-3.32-0.825-4.086-4.343-8.198-4.331C241.219,385.259,263.521,402.088,269.644,436.01z M228.687,366.767
	c-9.322-3.135-1.221-24.679-16.388-21.64C210.548,357.416,220.951,378.803,228.687,366.767z"/>
<path fill="#E5D9CD" d="M249.165,448.992c4.091,12.988,12.28,21.641,24.578,25.967c-1.292,10.176-19.418,2.566-16.388,17.305
	c-5.151-1.067-4.129-8.602,0-8.651c-3.19-19.709-28.555-15.992-32.768-34.619C236.582,452.881,237.171,452.881,249.165,448.992z"/>
<path fill="#959CA0" d="M142.665,448.992c-4.124,11.502-4.276,22.035,4.095,30.293c0,1.438,0,2.887,0,4.326
	c-46.66,41.317-17.966-111.702-16.384-147.137c4.583,13.914,11.211,25.664,12.289,43.276c-7.735-3.241-2.845-12.916-12.289-4.331
	c3.788,39.047-8.042,56.504,0,82.225C139.458,460.027,136.209,449.379,142.665,448.992z"/>
<path fill="#959CA0" d="M437.588,401.387c15.318,2.929-3.029,14.386,12.289,17.313c-0.361-21.127-17.902-37.219,8.189-43.279
	c3.215,25.457,8.45,48.775,16.389,69.246c-21.937,3.889,5.781,24.99,12.289,56.256c11.135,53.539,6.295,114.34,4.094,164.451
	c-3.647-2.664-7.326-5.232-8.193,0c-9.372-7.408-1.497-33.033-4.096-47.604c3.32,0.822,4.082,4.341,8.195,4.326
	c-1.443-12.901-2.365-26.354-12.289-30.293c-1.676,10.426,7.482,9.406,4.094,21.638c-3.479,0.795-3.863-1.688-4.094-4.326
	c-6.793-18.978-13.412-24.148-12.289-43.275c-3.721-11.938-1.271-30.395-8.193-38.951c-3.633-30.774-2.879-66.198-8.194-95.207
	C446.451,417.988,434.895,417.219,437.588,401.387z"/>
<path fill="#C2AE9D" d="M142.665,448.992c-0.665-5.033,0.905-7.701,4.095-8.656c0,1.443,0,2.883,0,4.33c0,11.539,0,23.08,0,34.619
	C138.389,471.027,138.541,460.494,142.665,448.992z"/>
<path fill="#F6F5F3" d="M453.973,526.887c0,7.215,0,14.429,0,21.642c-30.979-15.054-11.293-59.302-16.385-103.861
	c-0.602-11.877-0.762-22.313,8.189-12.986C451.094,460.688,450.34,496.111,453.973,526.887z"/>
<path fill="#B1B6C3" d="M445.777,557.18c-9.039,10.67-22.541-10.555-24.572-21.635c8.604,5.332,15.971,11.977,24.572,17.309
	C445.777,554.297,445.777,555.736,445.777,557.18z"/>
<path fill="#CFCFD1" d="M437.588,444.666c5.092,44.561-14.596,88.809,16.385,103.861c0-7.213,0-14.427,0-21.642
	c6.922,8.558,4.474,27.013,8.193,38.951c-4.107,0.012-4.873-3.506-8.193-4.326c0,10.097,0,20.191,0,30.291
	c-4.719,5.115-4.635,15.295-4.096,25.967c-1.363,0-2.729,0-4.1,0c-12.457-11.618,12.457-23.004,0-34.622
	c6.727,0.711,6.727-26.679,0-25.968c0-1.442,0-2.883,0-4.325c-10.724-15.654-22.498-37.578-16.379-47.603c0-7.213,0-14.428,0-21.641
	C427.168,481.443,426.52,455.549,437.588,444.666z"/>
<path fill="#959CA0" d="M404.82,570.164c-16.117-4.609-24.937-16.932-28.677-34.619C386.648,546.082,405.869,547.416,404.82,570.164
	z"/>
<path fill="#ECE7E1" d="M462.166,565.838c-1.123,19.127,5.496,24.299,12.289,43.275c-5.379-1.527-6.443-7.621-12.289-8.656
	c-0.867-4.854-4.545-6.738-8.193-8.654c0-10.1,0-20.194,0-30.291C457.293,562.332,458.059,565.85,462.166,565.838z"/>
<path fill="#D2C7B1" d="M529.537,660.062c-0.398-4.86-0.763-9.723-1.098-14.586c-1.326-2.323-2.193-5.132-0.734-10.396
	c0.088-10.197-7.059-12.744-4.096-25.967c0.164-0.016,0.325-0.034,0.486-0.053c-2.107-12.976-3.275-26.149-4.086-39.232
	c-0.162,0.106-0.326,0.215-0.498,0.338c0.504,34.437,1.623,42.181-12.289,73.568c5.255,9.334,16.35-6.615,20.482,8.655
	c-2.234,19.832-25.588-7.752-28.672,12.984c-0.691,9.385,14.527,1.961,20.479,4.326c5.668-3.157,8.986,2.401,11.425,5.848
	c-0.129-1.292-0.25-2.584-0.373-3.876C527.64,668.842,527.584,664.084,529.537,660.062z"/>
<path fill="#CFCFD1" d="M172.743,630.771c0.79-0.301,1.579-0.608,2.367-0.916c-3.655-6.454-34.063-2.397-20.156-12.085
	c0-4.33,0-8.656,0.001-12.982c-3.485,0.795-3.863-1.688-4.099-4.33c-9.044,0.537-1.739,18.358-4.095,25.965
	C151.611,631.9,162.561,630.933,172.743,630.771z"/>
<path fill="#CFCFD1" d="M530.563,671.672c-0.368-3.868-0.709-7.738-1.026-11.611C527.583,664.084,527.639,668.843,530.563,671.672z"
	/>
<path fill="#CFCFD1" d="M531.675,682.56c-0.938,3.334-3.804,4.631-3.971,8.78c4.129,0.048,5.15,7.582,0,8.652
	c-0.754,3.682,1.596,4.082,4.094,4.33h2.646C533.388,697.087,532.473,689.83,531.675,682.56z"/>
<path fill="#CFCFD1" d="M531.229,678.356c-0.098-0.936-0.197-1.87-0.291-2.807c-2.438-3.445-5.758-9.008-11.427-5.85v4.326
	c2.5,0.248,4.849,0.647,4.099,4.33H531.229z"/>
<path fill="#E5D9CD" d="M538.965,730.467c-1.13-5.576-2.143-11.171-3.066-16.78v12.272c-4.845,4.982-14.48,4.898-24.578,4.326
	c1.75,9.625,19.974,1.848,28.521,4.292C539.544,733.208,539.243,731.84,538.965,730.467z"/>
<path fill="#D2C7B1" d="M534.444,704.322h-2.646V717.3c-16.058-15.002-22.254,3.25-36.865-4.326
	c-0.918,8.183,4.618,9.55,4.101,17.312h12.287c10.098,0.572,19.733,0.656,24.578-4.326v-12.267
	C535.386,710.573,534.901,707.45,534.444,704.322z"/>
<path fill="#D2C7B1" d="M307.581,86.058c-7.6,0.337-15.204,0.499-22.809,0.501c-8.096,6.507-31.833-3.508-31.514,11.895
	c7.083,45.893,21.463,84.073,36.867,121.175c0.901-13.939-7.243-18.316-4.095-34.624c-3.186-9.616-8.606-16.871-8.194-30.292
	c-9.582-15.837-15.2-35.869-20.482-56.259c26.244-2.917,43.861-0.257,61.444-4.327C316.51,89.907,312.763,87.224,307.581,86.058z"/>
<path fill="#ECE7E1" d="M166.259,161.068c-3.107,2.352-6.262,4.636-9.437,6.891c3.729-1.261,7.304-2.684,10.42-4.589v-3.056
	C166.914,160.564,166.588,160.819,166.259,161.068z"/>
<path fill="#E5D9CD" d="M286.032,185.006c-3.186-9.616-8.606-16.872-8.194-30.292c0.467-5.282,1.225-10.248,8.194-8.657
	c-2.23,25.546,22.957,44.846,8.189,69.247C289.247,207.572,293.473,190.124,286.032,185.006z"/>
<path fill="#CFCFD1" d="M488.947,228.313c-0.953-2.184-1.924-4.359-2.91-6.528c0.321,6.403,1.048,12.377,4.801,15.154
	c0-1.366,0-2.732,0-4.098C490.51,232.034,489.19,228.915,488.947,228.313z"/>
<path fill="#ECE7E1" d="M493.325,239.232c-0.807-2.123-1.62-4.244-2.47-6.349c-0.005-0.012-0.012-0.03-0.018-0.043v8.425
	c5.737,0.954,1.67,12.26,7.662,12.947C496.916,249.174,495.203,244.175,493.325,239.232z"/>
<path fill="#F6F5F3" d="M499.713,322.045c-0.216,0.544-0.441,1.033-0.68,1.446c0.326,2.165,0.48,4.51,0.534,6.963
	C499.584,327.65,499.638,324.848,499.713,322.045z"/>
<path fill="#F6F5F3" d="M500.32,358.17c-0.474-7.861-0.722-15.743-0.752-23.625c-0.214,10.959-1.896,23.469-0.86,33.11
	c0.463-3.164,1.015-6.322,1.612-9.48C500.32,358.173,500.32,358.172,500.32,358.17z"/>
<path fill="#ECE7E1" d="M93.509,345.127v-43.272c-2.043,2.526-3.267,5.917-3.962,9.868c1.243,14.3,2.064,28.638,2.512,43.007
	c0.08,2.568,0.155,5.139,0.227,7.71h1.223C98.256,356.035,98.256,351.532,93.509,345.127z"/>
<path fill="#E5D9CD" d="M163.143,457.645c-7.735-0.479-2.84-14.309-12.289-12.979c-1.364,0-2.727,0-4.095,0c0-1.447,0-2.887,0-4.33
	s0-2.883,0-4.326c2.5-0.248,4.852-0.647,4.095-4.33C163.526,431.275,163.063,444.75,163.143,457.645z"/>
<path fill="#F6F5F3" d="M84.826,487.643c-0.293,2.683-0.577,5.365-0.825,8.053c-0.417,4.511-0.793,9.025-1.168,13.539
	C88.275,507.085,84.795,495.509,84.826,487.643z"/>
<path fill="#F6F5F3" d="M163.143,461.971c8.232,31.81,9.932,86.929-4.095,90.883C160.576,522.734,155.273,485.396,163.143,461.971z"
	/>
<path fill="#CFCFD1" d="M146.76,500.922c0.568,22.236-0.602,42.646-8.194,56.258C141.268,528.764,137.362,519.721,146.76,500.922z"
	/>
<path fill="#CFCFD1" d="M519.826,566.784c-0.39-6.698-0.435-13.457-1.295-20.116c-0.153-1.082-0.308-2.165-0.468-3.247
	c-0.28-1.878-0.563-3.757-0.861-5.632c-0.595-3.722-1.208-7.439-1.858-11.151c-1.287-7.344-2.651-14.673-4.014-22.003
	c-0.136-0.73-0.269-1.462-0.404-2.193c0.672,25.21,8.387,41.273,8.586,67.723c0.172-0.123,0.335-0.231,0.498-0.338
	C519.947,568.812,519.885,567.797,519.826,566.784z"/>
<path fill="#ECE7E1" d="M527.141,624.628c-0.032-0.139-0.069-0.278-0.102-0.417c-1.151-5.008-2.117-10.064-2.943-15.15
	c-0.161,0.019-0.322,0.037-0.486,0.053c-2.963,13.223,4.184,15.77,4.096,25.967c0.02-0.002,0.036-0.011,0.056-0.013
	c-0.067-1.075-0.136-2.151-0.2-3.228C527.416,629.437,527.281,627.032,527.141,624.628z"/>
<path fill="#CFCFD1" d="M223.885,611.957c1.68-0.412,3.367-0.803,5.069-1.143c3.86-0.771,7.729-1.46,11.606-2.083
	c-6.326-0.259-12.953-0.198-20.072,0.382C221.98,610.143,223.093,611.086,223.885,611.957z"/>
<path fill="#ECE7E1" d="M93.509,734.615c-3.518,8.934-28.508,4.565-32.767,0c-0.114-26.088-1.28-53.279,4.095-73.572
	c1.368,0,2.731,0,4.095,0c-5.623,9.863,10.563,16.27,0,17.313c-11.809,12.771,5.753,31.216,0,51.931
	C69.445,739.842,86.309,732.123,93.509,734.615z"/>
<path fill="#CFCFD1" d="M101.703,730.285c2.731,0,5.458,0,8.194,0c0.749,3.682-1.6,4.082-4.099,4.33c-4.095,0-8.19,0-12.289,0
	c-7.201-2.492-24.064,5.227-24.578-4.33C79.857,730.285,90.782,730.285,101.703,730.285z"/>
<path fill="#ECE7E1" d="M146.76,479.285c0-11.539,0-23.08,0-34.619c1.368,0,2.731,0,4.095,0
	c-2.609,15.988,5.307,43.107-4.095,51.928c0-4.33,0-8.655,0-12.981C146.76,482.172,146.76,480.725,146.76,479.285z"/>
<path fill="#CFCFD1" d="M76.966,558.132c-0.675,3.42-1.466,6.778-2.347,10.1c-0.431,3.99-0.917,7.977-1.313,11.97
	c0.356,7.226,0.51,14.238-0.277,20.256C79.375,591.666,77.851,574.562,76.966,558.132z"/>
<path fill="#959CA0" d="M437.587,163.37c-19.251-18.466-52.542-22.094-69.883-42.577c-0.276-0.221-0.551-0.445-0.821-0.676
	c-6.034-5.173-9.726-12.338-12.778-19.619c-0.571-0.971-1.323-1.752-2.538-2.044c-17.045,25.933,2.248,28.824,20.481,38.95
	c-1.35,15.857,4.548,24.047,8.193,34.619c14.941-9.057,27.676-18.131,45.057-4.327C432.343,161.342,419.98,158.564,437.587,163.37z"
	/>
</svg>
