<?xml version="1.0" encoding="utf-8"?>
<!-- Generator: Adobe Illustrator 15.0.0, SVG Export Plug-In . SVG Version: 6.00 Build 0)  -->
<!DOCTYPE svg PUBLIC "-//W3C//DTD SVG 1.1//EN" "http://www.w3.org/Graphics/SVG/1.1/DTD/svg11.dtd">
<svg version="1.1" id="Capa_1" xmlns="http://www.w3.org/2000/svg" xmlns:xlink="http://www.w3.org/1999/xlink" x="0px" y="0px"
	 width="612px" height="792px" viewBox="0 0 612 792" enable-background="new 0 0 612 792" xml:space="preserve">
<path fill="#6B6975" d="M470.747,728.663v-14.441c-1.932-4.56-3.573-9.243-5.067-13.85c-5.09-15.696-7.643-32.106-9.009-48.524
	c-0.682-8.197-1.263-16.375-2.268-24.544c-0.186-1.503-0.375-3.006-0.568-4.508c-0.124-0.919-0.269-1.982-0.32-2.351
	c-0.526-3.71-1.066-7.419-1.621-11.126c-2.345-15.654-4.992-31.319-6.74-47.054c-0.609-5.483-1.087-10.978-1.516-16.477
	c-14.392-22.917-26.091-47.561-32.888-73.462c-0.521-1.985-1.002-3.985-1.462-5.991c-3.181-4.263-6.435-8.447-9.853-12.459
	c2.887,0.489,5.478,1.292,7.826,2.352c-2.419-14.249-3.022-28.808-0.835-43.085c-0.821-5.746-1.816-11.308-2.798-16.884
	c-18.066,21.28-2.68,55.523-16.778,75.343c-8.551-1.305-8.223-11.988-16.778-13.296c19.192-31.429,24.205-77.839,33.558-119.663
	c-2.051-20.874,7.56-10.715,4.194,4.431c3.528,11.047,5.49,23.744,4.197,39.889c0.633,1.334,1.289,2.912,1.946,4.649
	c0.359-0.779,0.729-1.553,1.11-2.319c0.134-3.781,0.406-7.573,0.947-11.394c1.186-8.369,4.815-16.552,8.771-24.073
	c0.986-3.549,2.461-6.964,4.318-10.23c1.028-7.148,2.159-14.282,3.374-21.4c0.891-5.216,1.853-10.427,2.605-15.666
	c0.077-0.534,0.282-2.086,0.403-2.992c0.132-1.055,0.269-2.108,0.392-3.165c0.354-3.046,0.694-6.094,0.989-9.146
	c1.156-11.992,2.16-24.178,2.188-36.284c-2.83-6.411-1.961-16.729-1.828-26.27c-0.337-2.158-0.688-4.313-1.041-6.468
	c-4.497-4.062-4.145-13.244-3.427-22.813c-0.944-7.55-1.622-15.07-1.764-22.635c-8.709-11.627,7.095-49.15-10.6-51.286
	c-0.232,2.703-0.625,5.245-4.193,4.431c-2.306,41.885-19.249,68.305-50.338,79.779c-4.753,3.493-10.708,5.717-17.443,7.114
	c-9.071,6.284-20.458,9.444-31.153,10.897c-10.691,1.453-21.32,2.061-31.94,1.298c-12.636,22.663-37.057-7.568-49.508-10.449
	c0.589-1.269,1.218-2.231,1.884-2.952c-7.884-4.928-15.354-10.474-22.218-16.673c-7.568-3.929-13.658-9.419-16.731-18.096
	c-1.632-2.142-3.2-4.339-4.695-6.597c-5.632-8.504-9.971-18.008-11.511-28.144c-0.887-5.836-1.27-11.598-1.436-17.389
	c-0.661-1.535-1.313-3.073-1.94-4.624c-0.438-1.083-0.848-2.177-1.244-3.277c-4.056,0.525-4.644,4.712-5.03,9.113
	c-3.039,27.263-1.616,59.233-7.181,83.815c0.61,24.517-1.091,49.211-3.529,73.402c-0.715,7.097-1.592,14.199-2.33,21.312
	c0.451,1.761,0.906,3.551,1.363,5.354c7.316,19.291,15.01,38.513,15.835,59.259c0.012,0.311,0.016,0.621,0.026,0.932
	c2.044,2.733,3.846,5.706,5.354,8.916c8.479,18.048,10.856,37.91,10.785,57.709c-0.113,31.239-5.221,62.605-11.398,93.152
	c-6.473,32.003-14.7,63.649-23.981,94.947c-4.433,14.949-9.09,29.843-14.037,44.638c-1.698,8.339-3.4,16.677-4.982,25.037
	c4.075,11.563-8.469,26.514-3.681,43.146c4.206-0.014,4.991,3.59,8.387,4.431c11.353-7.361,51.574-7.361,62.927,0
	c3.254,0.996,8.275,0.124,8.387,4.434c-0.707,9.613,14.878,2.011,20.977,4.432h16.779c14.076-10.24,46.073-1.551,67.12-4.432
	c23.83,2.894,58.654-5.83,75.508,4.432c17.8-9.271,53.521,0.406,71.317-8.864C471.441,741.21,471.109,734.952,470.747,728.663z
	 M210.66,329.778c15.641,39.619,27.955,82.746,29.364,137.395C217.836,434.479,216.143,380.128,210.66,329.778z M261.002,538.086
	c-15.155-3.197-1.94-36.363-12.586-44.323c-19.929,75.589,17.383,195.489-12.585,252.627c-17.65-10.52-8.542-45.553-8.392-75.343
	c0.302-59.112,0.259-126.698,8.392-181.715v-13.297c15.054-2.608,20.296,5.149,29.364,8.865
	C262.346,501.094,259.343,517.127,261.002,538.086z M290.366,648.885v-53.187C300.045,599.293,306.554,646.742,290.366,648.885z
	 M315.536,648.885c0.139-47.104,36.061-126.064-12.585-146.257c-12.81,14.537-9.293,46.319-12.585,70.913
	c-13.31-16.593,7.684-59.383-4.199-93.071c15.56,3.138,18.008-7.573,33.563-4.435c8.408,13.844-3.463,23.407,8.391,35.458
	c19.481-6.856-8.516-36.319,16.779-35.458C338.646,519.976,340.44,609.956,315.536,648.885z M357.486,476.035
	c-3.815-16.085-12.384-2.7-25.171-4.433c5.927-27.721,7.486-60.046,8.392-93.069c3.913,3.246,6.354,8.056,8.388,13.297
	c10.628-28.662,15.352-63.56,29.368-88.645c-16.603,124.917-10.965,240.832-8.392,398.885
	C355.429,634.144,350.172,546.591,357.486,476.035z"/>
<path fill="#C2AE9D" d="M410.75,472.327c-1.778-6.778-3.216-13.684-4.201-20.647H193.833c-0.352,0-0.698,0.021-1.042,0.053
	c-0.375,7.236-0.98,14.47-1.775,21.691c0.901,0.237,1.842,0.376,2.817,0.376h212.765c1.531,0,2.989-0.312,4.315-0.874
	C410.86,472.726,410.803,472.527,410.75,472.327z"/>
<path fill="#332E38" d="M269.274,222.726c-6.318-1.363-12.172-3.66-17.538-6.756c-4.156,0.096-8.352-0.903-12.098-3.179
	c-0.646-0.392-1.283-0.797-1.924-1.198c-0.666,0.72-1.294,1.683-1.883,2.951c12.45,2.88,36.872,33.111,49.508,10.449
	C279.985,224.609,274.632,223.882,269.274,222.726z"/>
<path fill="#332E38" d="M378.463,303.186c-16.603,124.917-10.965,240.832-8.392,398.885
	c-14.643-67.927-19.899-155.479-12.585-226.035c-3.814-16.085-12.383-2.699-25.171-4.432c5.927-27.723,7.485-60.047,8.392-93.07
	c3.913,3.246,6.354,8.056,8.388,13.297C359.723,363.168,364.446,328.27,378.463,303.186z M353.292,462.739
	c1.225-3.476,2.414-62.938-4.197-57.616C352.129,424.729,334.035,453.566,353.292,462.739z"/>
<path fill="#332E38" d="M407.899,405.362c1.435-6.269,3.491-12.172,6.068-17.749c-0.657-1.737-1.313-3.315-1.946-4.649
	c1.293-16.145-0.669-28.842-4.197-39.889c3.366-15.146-6.245-25.305-4.194-4.431c-9.353,41.824-14.366,88.234-33.558,119.663
	c8.555,1.308,8.227,11.991,16.778,13.296c14.098-19.82-1.288-54.063,16.778-75.343c0.98,5.577,1.976,11.141,2.797,16.888
	C406.825,410.542,407.309,407.945,407.899,405.362z"/>
<path fill="#6B6975" d="M349.095,405.123c6.611-5.32,5.422,54.142,4.197,57.616C334.035,453.566,352.129,424.729,349.095,405.123z"
	/>
<path fill="#332E38" d="M235.831,476.035c15.054-2.607,20.296,5.149,29.364,8.865c-2.849,16.192-5.853,32.227-4.193,53.186
	c-15.155-3.197-1.939-36.363-12.586-44.323c-19.929,75.589,17.383,195.489-12.585,252.627c-17.65-10.52-8.542-45.553-8.392-75.343
	c0.302-59.112,0.259-126.698,8.392-181.715C235.831,484.9,235.831,480.47,235.831,476.035z"/>
<path fill="#332E38" d="M319.73,476.035c8.407,13.844-3.463,23.407,8.391,35.458c19.481-6.856-8.516-36.319,16.779-35.458
	c-6.254,43.939-4.46,133.921-29.364,172.85c0.139-47.104,36.062-126.063-12.585-146.257c-12.81,14.537-9.292,46.319-12.585,70.913
	c-13.31-16.594,7.684-59.384-4.199-93.071C301.727,483.607,304.175,472.896,319.73,476.035z"/>
<path fill="#332E38" d="M290.366,595.698c9.679,3.595,16.188,51.044,0,53.187C290.366,631.157,290.366,613.431,290.366,595.698z"/>
<path fill="#A88772" d="M143.54,741.956c11.353-7.361,51.574-7.361,62.927,0C185.494,741.956,164.517,741.956,143.54,741.956z"/>
<path fill="#A88772" d="M319.73,750.82c0-1.479,0-2.952,0-4.432c23.829,2.894,58.653-5.83,75.507,4.432
	C370.071,750.82,344.9,750.82,319.73,750.82z"/>
<path fill="#F6F5F3" d="M407.823,755.252c9.93-10.193,37.651-1.587,54.538-4.432C452.432,761.015,424.709,752.407,407.823,755.252z"
	/>
<path fill="#C2AE9D" d="M432.017,191.883c0.062-0.52,0.108-1.056,0.161-1.586c-1.18-10.952-1.676-21.875-0.632-32.999
	c0.104-1.106,0.225-2.209,0.341-3.314c-1.049-20.685-1.921-41.162,5.25-52.196v-6.004c1.535-51.225-29.626-5.251-20.47,24.023
	C439.628,122.886,416.336,180.26,432.017,191.883z"/>
<path fill="#332E38" d="M407.262,456.229c-2.349-1.06-4.939-1.862-7.827-2.352c3.418,4.013,6.673,8.197,9.854,12.46
	C408.521,462.989,407.837,459.619,407.262,456.229z"/>
<path fill="#F6F5F3" d="M147.738,746.39c22.369,0,44.747,0,67.116,0c-0.707,9.612,14.878,2.011,20.977,4.432
	c47.561,10.323,113.255,1.492,167.798,4.432C321.354,766.82,221.854,758.213,147.738,746.39z"/>
<path fill="#A88772" d="M164.898,192.663c0.413,5.673,0.688,11.362,0.83,17.062c5.565-24.583,4.142-56.555,7.181-83.819
	c-11.396,3.171,3-20.9-8.392-17.729v70.914C165.624,184.089,165.475,188.599,164.898,192.663z"/>
<path fill="#CFCFD1" d="M436.197,218.207c-0.762-4.646-1.537-9.289-2.217-13.946c-0.433-2.961-0.841-5.913-1.21-8.861
	C432.053,204.966,431.702,214.146,436.197,218.207z"/>
<path fill="#CFCFD1" d="M437.191,117.139v-8.961c-5.759,7.976-5.19,22.639-4.356,37.582
	C434.054,136.188,435.604,126.657,437.191,117.139z"/>
<path fill="#C2AE9D" d="M175.279,70.712c-8.084-0.036-12.414,4.206-11.793,14.083v20.174c16.046-4.812-4.231,31.712,11.82,26.899
	c0.543-6.678,1.372-13.03,7.084-13.828C177.336,102.929,174.685,86.782,175.279,70.712z"/>
<path fill="#ECE7E1" d="M164.898,192.663c0.577-4.064,0.725-8.574-0.381-13.571c-0.257,0.416-0.506,0.851-0.75,1.294
	C164.226,184.467,164.6,188.56,164.898,192.663z"/>
<path fill="#959CA0" d="M161.237,309.802c-0.458-1.809-0.916-3.604-1.368-5.372c-0.048,0.463-0.086,0.927-0.133,1.39
	C160.234,307.148,160.734,308.475,161.237,309.802z"/>
<path fill="#CFCFD1" d="M470.749,714.227v14.437c1.005-2.361,1.86-5.374,2.576-8.824
	C472.409,717.998,471.553,716.124,470.749,714.227z"/>
<path fill="#C2AE9D" d="M138.833,694.377c-0.918,4.854-1.797,9.713-2.609,14.585c-0.661,3.967-1.284,7.94-1.85,11.923
	c-0.146,1.199-0.49,3.892-0.568,4.597c-0.258,2.324-0.511,4.649-0.717,6.979c-0.266,3.006-0.471,6.014-0.645,9.022
	c2.185,3.781,5.701,5.813,11.095,4.906v-4.434c-3.396-0.841-4.18-4.445-8.387-4.431C130.365,720.891,142.91,705.939,138.833,694.377
	z"/>
<path fill="#D2C7B1" d="M206.467,741.956c3.254,0.995,8.275,0.124,8.387,4.434c-22.369,0-44.747,0-67.116,0
	c-1.401,0-2.802,0-4.198,0c0-1.479,0-2.955,0-4.434C164.517,741.956,185.494,741.956,206.467,741.956z"/>
<path fill="#CFCFD1" d="M466.556,741.956c4.686,5.451,3.65,9.103-4.193,8.864c-16.887,2.845-44.608-5.763-54.538,4.432
	c-1.396,0-2.794,0-4.194,0c-54.543-2.939-120.237,5.893-167.798-4.432c5.59,0,11.185,0,16.779,0c22.373,0,44.747,0,67.121,0
	c25.17,0,50.341,0,75.507,0C413.038,741.55,448.76,751.227,466.556,741.956z"/>
<path fill="#F6F5F3" d="M361.708,205.684c-3.563,1.935-7.196,3.708-10.879,5.339c-0.778,0.619-1.579,1.208-2.397,1.775
	c6.736-1.397,12.691-3.62,17.445-7.114H361.708z"/>
<path fill="#959CA0" d="M252.61,750.82c14.076-10.239,46.073-1.552,67.121-4.432c0,1.479,0,2.953,0,4.432
	C297.357,750.82,274.983,750.82,252.61,750.82z"/>
</svg>
