<?xml version="1.0" encoding="utf-8"?>
<!-- Generator: Adobe Illustrator 15.0.0, SVG Export Plug-In . SVG Version: 6.00 Build 0)  -->
<!DOCTYPE svg PUBLIC "-//W3C//DTD SVG 1.1//EN" "http://www.w3.org/Graphics/SVG/1.1/DTD/svg11.dtd">
<svg version="1.1" id="Capa_1" xmlns="http://www.w3.org/2000/svg" xmlns:xlink="http://www.w3.org/1999/xlink" x="0px" y="0px"
	 width="612px" height="792px" viewBox="0 0 612 792" enable-background="new 0 0 612 792" xml:space="preserve">
<path fill="#7FEAFF" stroke="#1944A3" stroke-miterlimit="10" d="M209.969,285.955c0.966,8.125,12.547,5.031,20.773,5.483
	c-3.046,24.919-16.985,6.503-41.541,10.974c-0.944-11.966,4.252-17.45,15.578-16.457
	C206.507,285.955,208.24,285.955,209.969,285.955z"/>
<path fill="#7FEAFF" stroke="#1944A3" stroke-miterlimit="10" d="M194.391,307.896c6.087,0.885,4.38,10.002,5.196,16.457
	c5.191,0,10.381,0,15.578,0C175.432,345.288,156.744,307.901,194.391,307.896z"/>
<path fill="#7FEAFF" stroke="#1944A3" stroke-miterlimit="10" d="M230.742,379.211c-30.37,10.035-64.907-22.774-72.695-54.857
	C180.895,344.103,199.353,368.488,230.742,379.211z"/>
<path fill="#7FEAFF" stroke="#1944A3" stroke-miterlimit="10" d="M396.892,390.185c-41.872,4.172-75.069-15.098-124.613-21.942
	c10.392-44.972,47.063-5.228,62.31-32.915C353.979,355.066,380.295,367.49,396.892,390.185z"/>
<path fill="#7FEAFF" stroke="#1944A3" stroke-miterlimit="10" d="M386.51,401.152c13.894,7.267,30.398,11.773,25.959,38.404
	C396.342,434.649,390.016,419.392,386.51,401.152z"/>
<path fill="#7FEAFF" stroke="#1944A3" stroke-miterlimit="10" d="M402.088,477.956c2.545,23.948-16.004,11.673-5.196,32.916
	c-13.342-0.534-7.42-21.414-20.768-21.947C380.525,480.773,392.843,480.986,402.088,477.956z"/>
<path fill="#7FEAFF" stroke="#1944A3" stroke-miterlimit="10" d="M407.278,538.298c-9.906,17.081-22.544-8.573-36.346-5.485
	C376.443,510.695,402.189,527.585,407.278,538.298z"/>
<path fill="#7FEAFF" stroke="#1944A3" stroke-miterlimit="10" d="M469.589,609.612c-0.353-16.084-11.871-20.373-20.773-27.433
	c16.862-13.875,37.669,14.857,57.117,16.458c-3.59,10.835-13.848,14.627-25.963,16.458
	C479.826,609.762,473.616,610.839,469.589,609.612z"/>
<path fill="#7FEAFF" stroke="#1944A3" stroke-miterlimit="10" d="M178.814,626.07c25.948-24.664,92.594-4.823,20.773,0
	C192.663,626.07,185.739,626.07,178.814,626.07z"/>
<path fill="#7FEAFF" stroke="#1944A3" stroke-miterlimit="10" d="M428.089,631.553c1.716-0.264,3.433-0.527,5.148-0.79v-4.691
	c-15.982,4.086-9.978-15.063-25.959-10.975v16.456H428.089z"/>
<path fill="#7FEAFF" stroke="#1944A3" stroke-miterlimit="10" d="M272.278,620.585c24.23,0,48.46,0,72.69,0
	c1.174,7.9,15.498,1.911,15.578,10.968C316.626,625.301,277.506,639.406,272.278,620.585z"/>
<path fill="#7FEAFF" stroke="#1944A3" stroke-miterlimit="10" d="M344.969,620.585c23.104-4.294,31.166,7.304,51.923,5.485
	c0,1.829,0,3.652,0,5.481c-3.462,0-6.919,0-10.382,0c-8.651,0-17.311,0-25.963,0C360.467,622.496,346.143,628.485,344.969,620.585z"
	/>
<path fill="#7FEAFF" stroke="#1944A3" stroke-miterlimit="10" d="M178.814,626.07c-12.878,0.804-25.196,1.018-25.959-10.975
	c7.367,0.475,14.702,0.907,15.577-5.483h-31.154c-2.268,6.748-6.648,11.267-15.578,10.973v-10.961
	c-1.506,1.683-3.025,3.355-4.546,5.028c-1.32,1.453-2.632,2.916-3.92,4.398c7.41,19.904,57.974,10.883,86.353,12.502v-5.482H178.814
	z"/>
<path fill="#7FEAFF" stroke="#1944A3" stroke-miterlimit="10" d="M453.518,192.418c-0.762-1.695-1.479-3.41-2.143-5.148
	c-0.658,0.184-1.49,0.188-2.561-0.055c0,7.313,0,14.627-0.002,21.942c-3.009,17.807,3.537,25.521,5.196,38.399
	c2.7,8.12,7.683,13.828,10.382,21.942c6.534,22.357,35.924,20.56,36.347,49.373v38.399c1.072-4.328,2.745-9.412,4.494-14.677
	c1.311-8.081,2.74-16.137,4.088-24.226c0.357-2.146,0.702-4.294,1.028-6.445c0.05-0.489,0.3-2.458,0.51-4.164
	C473.807,288.91,453.57,232.876,453.518,192.418z"/>
<path fill="#7FEAFF" stroke="#FFFFFF" stroke-miterlimit="10" d="M443.98,155.555c-0.274-2.334-0.515-4.67-0.702-7.013
	c-0.063-0.79-0.385-3.045-0.436-3.593c-0.471-2.297-1.012-4.576-1.605-6.849c-0.958-3.671-1.813-7.313-2.553-10.974
	c-2.973-6.177-6.773-11.48-10.638-16.716c-13.399-2.668-29.437,19.402-15.578,27.431c-1.461-14.345,1.899-23.595,15.578-21.941
	c5.292,7.206,5.089,20.217,10.387,27.425c0.886,8.21-1.856,20.245,5.19,21.942c0.334-2.466,0.559-4.817,0.692-7.073
	C444.199,157.315,444.084,156.435,443.98,155.555z"/>
<path fill="#7FEAFF" stroke="#1944A3" stroke-miterlimit="10" d="M303.434,285.955c15.727-1.233,40.191-11.673,57.113-5.485
	c-0.294,3.345-0.772,6.493-5.19,5.485c-3.463,0-6.926,0-10.388,0c-1.729,0-3.462,0-5.189,0c-15.198,4.929-15.956,4.929-31.154,0
	C306.896,285.955,305.161,285.955,303.434,285.955z"/>
<path fill="#7FEAFF" stroke="#1944A3" stroke-miterlimit="10" d="M199.587,137.842c0.054-14.574-1.963-31.331,5.191-38.399
	c40.736,13.646,10.979,101.775,25.963,142.629c-7.602-4.771-16.457-8.215-15.577-21.941c12.019-7.875,6.412-80.49,0-104.229
	C200.825,113.547,210.289,136.348,199.587,137.842z"/>
<path fill="#7FEAFF" stroke="#1944A3" stroke-miterlimit="10" d="M215.165,115.9c6.412,23.739,12.019,96.355,0,104.229
	c-0.081-14.436,2.881-36.447-10.387-21.947C216.83,179.826,215.794,147.652,215.165,115.9z"/>
<path fill="#7FEAFF" stroke="#1944A3" stroke-miterlimit="10" d="M412.469,137.842c-1.461-14.345,1.899-23.595,15.578-21.941
	c5.292,7.207,5.089,20.218,10.387,27.425c-11.977,1.681-5.771-15.849-15.577-16.458c-15.326,13.033,6.273,33.235,5.19,49.373
	c-0.011,21.931-10.371,32.926-10.382,54.857c-1.162,4.257-0.144,10.819-5.196,10.973
	C415.947,205.923,407.198,158.114,412.469,137.842z"/>
<path fill="#7FEAFF" stroke="#1944A3" stroke-miterlimit="10" d="M215.165,115.9c0.629,31.752,1.665,63.925-10.387,82.282
	c-4.625-2.427-9.288-4.817-10.387-10.968c4.37-13.673,6.796-29.395,5.196-49.373C210.289,136.348,200.825,113.547,215.165,115.9z"/>
<path fill="#7FEAFF" stroke="#1944A3" stroke-miterlimit="10" d="M448.634,179.093c-1.243-4.248-2.247-8.57-3.052-12.919
	c-0.552-0.41-1.194-0.722-1.959-0.907c0.224,7.554-2.444,12.045-5.19,16.458c1.632,7.42,7.388,10.477,5.19,21.946
	c-7.148,0.235-11.399-2.587-15.577-5.489c-2.988,9.645,6.28,32.233-5.19,32.916h-5.19c-1.162,4.257-0.144,10.819-5.199,10.972
	v10.968c6.866-0.064,4.749-9.613,10.387-10.968v16.458h15.578c2.52-6.482,5.537-12.44,10.382-16.458c0.021-3.046-4.203-6.226-5.19,0
	c-8.183,0.496-4.064,13.988-15.577,10.968c0.438-17.823,2.678-33.741,10.387-43.883c0.438,35.135,2.672,12.046,10.382,0v-21.941
	C448.545,184.727,448.609,181.889,448.634,179.093z"/>
<path fill="#7FEAFF" stroke="#1944A3" stroke-miterlimit="10" d="M448.814,242.071c0.021-3.046-4.203-6.226-5.19,0
	c-8.184,0.496-4.064,13.988-15.577,10.968c0.438-17.823,2.678-33.742,10.387-43.883c0.438,35.135,2.673,12.046,10.382,0
	c-3.01,17.808,3.536,25.521,5.195,38.399C449.594,248.563,449.113,245.416,448.814,242.071z"/>
<path fill="#7FEAFF" stroke="#1944A3" stroke-miterlimit="10" d="M204.778,198.183c13.268-14.5,10.306,7.511,10.387,21.947
	c-0.88,13.726,7.975,17.172,15.577,21.941c4.53,8.013,4.119,21.243,20.769,16.458c0,1.825,0,3.655,0,5.484
	c-18.368,9.628-26.753-18.426-31.155-5.484c-9.672-0.757-17.354-3.611-20.768-10.974c-0.144-5.334-6.359-4.256-10.387-5.484
	c0-14.628,0-29.261,0-43.889c-0.843-6.375,1.147-9.757,5.19-10.968C195.491,193.366,200.153,195.755,204.778,198.183z"/>
<path fill="#7FEAFF" stroke="#1944A3" stroke-miterlimit="10" d="M189.201,253.039c1.147-4.272,4.348-6.375,10.387-5.484
	c3.415,7.362,11.096,10.217,20.768,10.974c1.099,6.151,5.762,8.542,10.386,10.968c-4.465,11.331-36.142,5.789-41.541,0
	C189.201,264.013,189.201,258.529,189.201,253.039z"/>
<path fill="#7FEAFF" stroke="#1944A3" stroke-miterlimit="10" d="M199.587,247.555c-6.039-0.891-9.24,1.211-10.387,5.484
	c-8.413,9.4-4.828,31.476-25.964,27.431c23.782-11.448,14.975-57.326,25.964-82.288c0,14.628,0,29.261,0,43.889
	C193.229,243.299,199.443,242.221,199.587,247.555z"/>
<path fill="#7FEAFF" stroke="#1944A3" stroke-miterlimit="10" d="M438.434,258.529c2.52-6.481,5.537-12.44,10.382-16.458
	c0.299,3.345,0.778,6.492,5.195,5.484c2.7,8.12,7.683,13.828,10.382,21.942c0.849,6.38-1.146,9.763-5.19,10.973
	c-15.199-4.929-15.951-4.929-31.154,0c1.051,7.362,21.563,10.217,0,10.968c-10.382,0-20.769,0-31.155,0
	c5.874-15.737,22.269-20.357,41.542-21.941c0-1.83,0-3.654,0-5.484C438.434,262.184,438.434,260.354,438.434,258.529z"/>
<path fill="#7FEAFF" stroke="#1944A3" stroke-miterlimit="10" d="M220.355,258.529c4.401-12.942,12.787,15.113,31.155,5.484
	c10.851,10.472,24.79,17.69,41.536,21.942c-15.001,22.523-50.653-31.005-57.114,0c-8.653,0-17.311,0-25.964,0
	c-1.729,0-3.462,0-5.19,0c-5.735-3.271-29.901-14.111-25.964,10.973c-5.276-3.563-5.367-12.617-15.578-10.973
	c0-1.83,0-3.655,0-5.485c21.136,4.044,17.551-18.031,25.964-27.431c0,5.49,0,10.974,0,16.458c5.399,5.789,37.076,11.331,41.541,0
	C226.117,267.07,221.454,264.68,220.355,258.529z"/>
<path fill="#7FEAFF" stroke="#1944A3" stroke-miterlimit="10" d="M235.933,406.64c-13.582,6.413-22.337-16.927-20.768,5.484
	c-4.786,23.339,34.27,0.362,31.149,21.942c0.767,13.608,0.971,26.625-10.382,27.431c-3.339-16.591-8.114-31.661-25.964-32.916
	c-8.296,7.693-13.262,18.901-15.578,32.916c9.325-0.71,12.153,5.446,10.387,16.457c11.326,3.494,16.521-15.55,15.577,5.483
	c15.226,6.311,19.285-26.311,25.959-10.974c2.603,22.865-13.15,26.332-31.149,27.431c4.289,15.504-7.319,14.214-5.196,27.428
	c16.175,4.854,30.221,11.961,25.964,38.403c-14.686,0.94-35.619-4.72-36.345,10.969c48.839,31.753,131.671-1.354,186.922,27.432
	c-46.128,29.053-102.692-16.735-114.23,16.457h72.689c23.105-4.294,31.166,7.303,51.923,5.485v5.481h10.388v-16.456
	c15.981-4.088,9.977,15.061,25.959,10.975v4.694c10.736-1.643,21.485-3.214,32.304-4.084c16.445-1.322,32.416,0.125,48.642,2.764
	c9.61-8.679-7.023-23.099-3.06-36.29c-8.209-11.438-16.926-22.348-20.767-38.399c-20.277-16.975-14.361-61.626-15.577-98.74
	c-10.749-21.563-26.728-37.594-31.155-65.83c16.158,8.53,25.036,24.747,25.965,49.373c7.143,0.235,11.399-2.588,15.576-5.488
	c3.228-27.673,6.385-55.423,15.573-76.799v-38.399c-13.813-0.037-13.243-15.263-20.77-21.942c4.998,19.739-23.33,10.696-20.769,0
	c-13.77-6.444-30.572,10.515-31.154,0c-22.646-6.439-62.886,34.105-67.5-5.49c9.816-1.226,11.459,6.183,20.769,5.49
	c-4.316-17.61-4.417-11.374,5.194-21.942c-14.676-4.534-13.453,7.731-25.963,5.484c-0.294,3.345-0.772,6.493-5.19,5.485
	c-4.064,3.809-11.556,30.61,0,32.915c0.059-5.533,9.102-6.898,10.382,0c-24.443,5.255-48.626,10.797-72.691,16.458
	c-10.989-12.158-34.057-11.56-31.155-38.399c-9.884-2.352-13.042-11.822-25.958-10.973h-25.964
	c0.966,8.124,12.547,5.03,20.773,5.483c-3.046,24.919-16.985,6.504-41.541,10.974c-0.943-11.966,4.252-17.45,15.578-16.457
	c-5.735-3.271-29.901-14.111-25.964,10.973c-5.277-3.563-5.367-12.617-15.578-10.973c-5.191,0-10.382,0-15.571-0.001
	c-4.615,9.757-14.501,13.944-10.387,32.915C159.503,359.391,197.502,383.243,235.933,406.64z M370.934,532.813
	c5.51-22.117,31.256-5.228,36.346,5.485C397.372,555.379,384.735,529.725,370.934,532.813z M402.088,477.956
	c2.545,23.948-16.004,11.673-5.196,32.916c-13.342-0.534-7.42-21.414-20.768-21.947
	C380.525,480.773,392.843,480.986,402.088,477.956z M386.51,401.153c13.894,7.266,30.398,11.773,25.959,38.404
	C396.342,434.649,390.016,419.392,386.51,401.153z M407.278,521.84c19.813-4.337,37.012,41.248,62.311,49.373
	c-9.966,10.162-26.142-19.659-51.924-10.975C408.457,542.16,423.192,532.828,407.278,521.84z M417.665,565.729
	c18.228-0.976,17.076,18.526,31.149,21.941C445.646,594.185,415.606,582.89,417.665,565.729z M479.97,615.097
	c-51.214,5.878-67.409-3.772-10.381-5.483c-0.352-16.084-11.871-20.373-20.773-27.433c16.862-13.875,37.669,14.857,57.117,16.458
	C502.343,609.474,492.085,613.266,479.97,615.097z M464.393,488.925c-9.096,29.378,16.468,65.638,31.155,87.772
	c-44.353,4.748-46.263-82.736-62.31-126.171C446.324,460.475,447.999,482.475,464.393,488.925z M454.01,445.041
	c-12.686-3.057-11.063-21.227-31.154-16.458c-7.132-12.504,13.385-20.623,0-21.941C435.152,395.797,452.053,426.759,454.01,445.041z
	 M417.665,384.701c5.025-21.777-15.038-17.034-25.964-21.947c2.748-4.412,5.414-8.904,5.189-16.458
	c16.934-1.424,24.993,6.514,25.965,21.947c9.246-3.035,21.563-2.822,25.959-10.973C455.408,362.829,436.311,387.63,417.665,384.701z
	 M422.856,302.413c7.654,6.029,34.223,39.931,41.536,10.974c27.138,18.25-23.28,33.293-31.154,49.367
	c-10.584-1.611-10.18-14.841-20.77-16.458v-5.484c-1.728,0-3.461,0-5.189,0.001c-19.487-4.129-11.32,20.955-25.964,21.942
	c-15.013-2.422-23.665-11.561-25.959-27.426C376.807,323.25,392.043,304.606,422.856,302.413z M334.588,335.328
	c19.391,19.738,45.707,32.162,62.303,54.857c-41.872,4.172-75.069-15.098-124.613-21.942
	C282.67,323.271,319.341,363.015,334.588,335.328z M235.932,302.413c15.812,8.893,32.473,16.89,36.346,38.399
	C251.376,337.296,232.898,331.219,235.932,302.413z M241.124,335.328c12.334,3.425,24.171,7.372,25.964,21.942
	c-22.774,2.379-17.055-16.81-36.346-5.484C234.113,346.205,242.676,346.11,241.124,335.328z M261.891,362.754
	c-7.399,26.342-48.444,2.465-57.113-5.484C222.238,339.19,234.007,373.663,261.891,362.754z M194.391,307.897
	c6.087,0.885,4.38,10.002,5.196,16.457h15.578C175.432,345.288,156.744,307.901,194.391,307.897z M230.741,379.211
	c-30.37,10.035-64.906-22.774-72.695-54.857C180.895,344.103,199.353,368.488,230.741,379.211z"/>
<path fill="#7FEAFF" stroke="#1944A3" stroke-miterlimit="10" d="M438.434,264.013c-25.746-7.084-25.511,13.278-46.731,10.973
	c4.699-9.666,19.114-9.063,20.768-21.947c6.866-0.063,4.749-9.613,10.388-10.968c0,5.484,0,10.968,0,16.458
	c5.19,0,10.382,0,15.577,0C438.434,260.354,438.434,262.184,438.434,264.013z"/>
<path fill="#7FEAFF" stroke="#1944A3" stroke-miterlimit="10" d="M391.701,274.986c21.222,2.305,20.985-18.058,46.731-10.973
	c0,1.83,0,3.654,0,5.484c-19.273,1.584-35.668,6.204-41.542,21.941c10.388,0,20.773,0,31.155,0c0,1.83,0,3.66,0,5.49
	c-22.646-6.439-62.886,34.105-67.5-5.49c9.815-1.227,11.459,6.183,20.769,5.49c-4.315-17.61-4.417-11.374,5.194-21.942
	C388.239,274.986,389.973,274.986,391.701,274.986z"/>
<path fill="#7FEAFF" stroke="#1944A3" stroke-miterlimit="10" d="M235.933,285.955c6.46-31.005,42.113,22.523,57.114,0
	c3.462,0,6.924,0,10.387,0c1.728,0,3.462,0,5.19,0c6.135,8.151,4.491,24.513,20.769,21.941c7.996-2.902,0.33-5.719-5.19-5.484
	c-1.59-12.648,15.002-6.092,15.577-16.457c1.729,0,3.462,0,5.189,0c-9.741,10.461,3.084,9.927,0,27.431
	c-12.51-2.247-11.283,10.018-25.959,5.484c-2.747-4.412-5.419-8.904-5.194-16.458c-9.175,4.817-15.156,17.386-25.958,5.484
	c-12.916,0.848-16.074-8.615-25.965-10.968C252.007,294.576,248.849,285.106,235.933,285.955z"/>
<path fill="#7FEAFF" stroke="#1944A3" stroke-miterlimit="10" d="M287.856,307.896c10.803,11.901,16.783-0.667,25.958-5.484
	c-0.225,7.554,2.447,12.046,5.194,16.458c-7.335,8.295-25.222,17.327-36.345,5.483C286.554,313.994,298.162,320.55,287.856,307.896z
	"/>
<path fill="#7FEAFF" stroke="#1944A3" stroke-miterlimit="10" d="M464.393,269.497c6.534,22.357,35.924,20.56,36.347,49.373
	c-13.813-0.037-13.242-15.263-20.77-21.942c4.998,19.739-23.329,10.696-20.769,0c21.883,0.944,3.559-12.286,0-16.458
	C463.245,279.26,465.24,275.877,464.393,269.497z"/>
<path fill="#7FEAFF" stroke="#1944A3" stroke-miterlimit="10" d="M261.891,296.928c9.891,2.353,13.049,11.816,25.965,10.968
	c10.306,12.653-1.302,6.098-5.191,16.457c11.123,11.844,29.01,2.812,36.345-5.483c14.676,4.534,13.449-7.73,25.959-5.484
	c3.084-17.504-9.741-16.97,0-27.431c3.462,0,6.925,0,10.388,0c-4.064,3.809-11.556,30.61,0,32.915c0.059-5.533,9.102-6.898,10.382,0
	c-24.443,5.255-48.626,10.797-72.691,16.458C282.057,323.169,258.989,323.768,261.891,296.928z"/>
<path fill="#7FEAFF" stroke="#1944A3" stroke-miterlimit="10" d="M412.469,340.812c9.906,2.336,9.396,15.673,25.965,10.974
	c9.806-0.608,3.603-18.138,15.577-16.458c-10.878-8.626-33.434-4.908-36.346-21.941c-22.992,4.961-34.809,21.738-57.118,27.425
	c11.502,27.618,28.438-6.855,46.731-5.484c0,1.83,0,3.654,0,5.484c-19.487-4.129-11.32,20.955-25.964,21.942
	c-15.013-2.422-23.665-11.561-25.959-27.426c21.45-12.078,36.688-30.723,67.5-32.916c7.654,6.029,34.223,39.931,41.536,10.974
	c27.138,18.25-23.28,33.293-31.154,49.367c-10.584-1.611-10.18-14.841-20.77-16.458
	C412.469,344.471,412.469,342.642,412.469,340.812z"/>
<path fill="#7FEAFF" stroke="#1944A3" stroke-miterlimit="10" d="M495.547,576.696c-44.353,4.748-46.263-82.736-62.31-126.171
	c13.086,9.948,14.762,31.948,31.154,38.398C455.297,518.303,480.86,554.563,495.547,576.696z"/>
<path fill="#7FEAFF" stroke="#1944A3" stroke-miterlimit="10" d="M417.665,560.238c-9.208-18.078,5.527-27.41-10.387-38.398
	c19.813-4.337,37.012,41.248,62.311,49.373C459.623,581.375,443.447,551.554,417.665,560.238z"/>
<path fill="#7FEAFF" stroke="#1944A3" stroke-miterlimit="10" d="M479.97,615.097c-51.214,5.878-67.409-3.771-10.381-5.483
	C473.616,610.839,479.826,609.762,479.97,615.097z"/>
<path fill="#7FEAFF" stroke="#1944A3" stroke-miterlimit="10" d="M360.546,631.552c-43.921-6.252-83.041,7.854-88.269-10.968
	c11.539-33.192,68.102,12.596,114.231-16.457c-44.751-23.315-107.593-6.031-155.813-15.489c-0.584,11.28,4.609,16.455,15.62,15.49
	c-12.286,12.616-46.599,1.963-67.5,5.484c27.842-15.621-1.035-0.556-5.19-21.942c14.616-6.629,29.809,2.796,54.117,0.352
	c-10.192-2.267-19.686-5.82-28.155-11.326c0.725-15.689,21.659-10.029,36.345-10.969c4.257-26.442-9.789-33.55-25.964-38.403
	c-2.123-13.214,9.485-11.924,5.196-27.427c17.999-1.1,33.752-4.567,31.149-27.432c-6.674-15.337-10.733,17.285-25.959,10.975
	c0.944-21.034-4.251-1.99-15.577-5.484c1.766-11.011-1.061-17.167-10.387-16.457c2.316-14.015,7.283-25.223,15.578-32.916
	c17.85,1.255,22.625,16.325,25.964,32.916c11.353-0.806,11.15-13.823,10.382-27.431c3.121-21.58-35.934,1.397-31.149-21.942
	c-1.568-22.411,7.186,0.929,20.768-5.484c-38.431-23.396-76.43-47.249-98.654-87.771c-1.653,12.723,0.832,21.061,5.189,27.425
	c37.702,18.134,37.854,52.365,39.649,89.763c2.579,11.135,2.839,22.976,1.719,34.06c-1.019,10.084-2.612,20.142-4.889,30.036
	c22.194,41.631,1.347,75.06-31.282,98.485c4.027,1.231,10.237,0.154,10.381,5.489H126.89c1.147,4.272,4.348,6.374,10.387,5.484
	h31.154c-0.875,6.39-8.21,5.958-15.577,5.483c0.763,11.993,13.081,11.779,25.959,10.975c25.948-24.664,92.594-4.823,20.773,0v5.481
	c16.72-1.205,21.969,9.705,41.537,5.484c48.732-6.203,97.246,8.269,145.386-5.484H360.546z"/>
<path fill="#7FEAFF" stroke="#1944A3" stroke-miterlimit="10" d="M230.741,587.67c-1.018,0.141-2.014,0.252-3,0.352
	c0.978,0.217,1.963,0.422,2.954,0.616C230.711,588.313,230.715,588.004,230.741,587.67z"/>
<path fill="#7FEAFF" stroke="#1944A3" stroke-miterlimit="10" d="M308.624,285.955c15.198,4.929,15.956,4.929,31.154,0
	c-0.575,10.365-17.167,3.809-15.577,16.457c5.521-0.235,13.188,2.583,5.19,5.484C313.115,310.468,314.759,294.106,308.624,285.955z"
	/>
<path fill="#7FEAFF" stroke="#1944A3" stroke-miterlimit="10" d="M235.933,302.412c15.812,8.893,32.473,16.89,36.346,38.399
	C251.376,337.296,232.898,331.219,235.933,302.412z"/>
<path fill="#7FEAFF" stroke="#1944A3" stroke-miterlimit="10" d="M267.088,357.27c-22.774,2.379-17.055-16.811-36.346-5.484
	c3.372-5.58,11.935-5.676,10.382-16.458C253.458,338.753,265.295,342.7,267.088,357.27z"/>
<path fill="#7FEAFF" stroke="#1944A3" stroke-miterlimit="10" d="M407.278,340.812c0-1.83,0-3.654,0-5.484
	c-18.293-1.371-35.229,33.102-46.731,5.484c22.311-5.687,34.126-22.464,57.118-27.425c2.912,17.034,25.468,13.315,36.346,21.941
	c-11.976-1.681-5.771,15.85-15.577,16.458c-16.568,4.7-16.059-8.637-25.965-10.974C410.741,340.812,409.008,340.812,407.278,340.812
	z"/>
<path fill="#7FEAFF" stroke="#1944A3" stroke-miterlimit="10" d="M448.814,357.27c6.594,5.559-12.505,30.359-31.149,27.431
	c5.025-21.776-15.038-17.034-25.964-21.947c2.748-4.412,5.414-8.904,5.189-16.458c16.934-1.424,24.993,6.514,25.965,21.947
	C432.102,365.208,444.419,365.421,448.814,357.27z"/>
<path fill="#7FEAFF" stroke="#1944A3" stroke-miterlimit="10" d="M422.855,406.642c12.297-10.845,29.197,20.117,31.154,38.399
	c-12.687-3.057-11.063-21.227-31.154-16.458C415.724,416.079,436.24,407.96,422.855,406.642z"/>
<path fill="#7FEAFF" stroke="#1944A3" stroke-miterlimit="10" d="M417.665,565.729c18.229-0.976,17.076,18.526,31.149,21.941
	C445.646,594.185,415.606,582.89,417.665,565.729z"/>
<path fill="#7FEAFF" stroke="#FFFFFF" stroke-miterlimit="10" d="M438.434,143.326c0.887,8.21-1.855,20.245,5.19,21.942
	c0.224,7.554-2.444,12.045-5.19,16.458c-4.209-1.041-5.175-5.5-10.387-5.485c1.083-16.138-20.518-36.34-5.19-49.373
	C432.661,127.477,426.457,145.006,438.434,143.326z"/>
<path fill="#7FEAFF" stroke="#1944A3" stroke-miterlimit="10" d="M438.434,181.726c1.633,7.42,7.389,10.478,5.19,21.946
	c-7.148,0.235-11.399-2.587-15.577-5.489c-2.988,9.645,6.279,32.232-5.19,32.916c-1.733,0-3.463,0-5.19,0
	c0.011-21.931,10.371-32.926,10.382-54.857C433.259,176.225,434.225,180.685,438.434,181.726z"/>
<path fill="#7FEAFF" stroke="#1944A3" stroke-miterlimit="10" d="M428.047,291.438c21.563-0.751,1.051-3.606,0-10.968
	c15.203-4.929,15.955-4.929,31.154,0c3.559,4.172,21.883,17.402,0,16.458c-13.771-6.444-30.572,10.515-31.154,0
	C428.047,295.099,428.047,293.269,428.047,291.438z"/>
<path fill="#7FEAFF" stroke="#1944A3" stroke-miterlimit="10" d="M261.891,362.753c-7.399,26.342-48.444,2.465-57.113-5.484
	C222.238,339.19,234.007,373.663,261.891,362.753z"/>
<path fill="#7FEAFF" stroke="#1944A3" stroke-miterlimit="10" d="M485.165,434.068c2.198,11.469-3.563,14.524-5.195,21.945
	c-1.729,0-3.463,0-5.189,0c-10.749-21.563-26.729-37.594-31.155-65.83c16.158,8.53,25.036,24.747,25.965,49.373
	C476.731,439.792,480.988,436.97,485.165,434.068z"/>
<path fill="#7FEAFF" stroke="#1944A3" stroke-miterlimit="10" d="M490.356,554.755c-20.277-16.976-14.361-61.626-15.577-98.74
	c1.728,0,3.461,0,5.189,0C492.768,479.061,478.022,531.213,490.356,554.755z"/>
<path fill="#7FEAFF" stroke="#1944A3" stroke-miterlimit="10" d="M230.742,587.67c-0.943,11.966,4.247,17.45,15.573,16.458
	c-12.286,12.616-46.599,1.963-67.5,5.484c27.841-15.621-1.035-0.557-5.19-21.942C188.833,580.771,204.661,591.265,230.742,587.67z"
	/>
<path fill="#7FEAFF" stroke="#1944A3" stroke-miterlimit="10" d="M514.185,629.443c0.65,0.105,1.301,0.21,1.952,0.319
	c1.744,0.293,3.485,0.599,5.228,0.905c4.816-11.933-3.216-36.451-10.241-37.513C507.16,606.345,523.79,620.763,514.185,629.443z"/>
<path fill="#7FEAFF" stroke="#1944A3" stroke-miterlimit="10" d="M415.941,633.374c4.051-0.58,8.099-1.199,12.147-1.821h-15.621
	c1.033,0.685,2.143,1.289,3.3,1.843C415.829,633.388,415.902,633.379,415.941,633.374z"/>
<path fill="#7FEAFF" stroke="#1944A3" stroke-miterlimit="10" d="M368.992,636.903c8.533-0.478,17.065-0.979,25.595-1.523
	c3.903-0.248,7.807-0.484,11.698-0.881c1.93-0.196,3.858-0.395,5.783-0.627c0.546-0.066,2.929-0.381,3.699-0.477
	c-1.156-0.554-2.266-1.158-3.299-1.843h-25.958c-48.14,13.753-96.654-0.719-145.386,5.484c11.997,1.474,24.944,2.706,38.521,3.705
	C309.442,639.813,339.228,638.569,368.992,636.903z"/>
<path fill="#7FEAFF" stroke="#1944A3" stroke-miterlimit="10" d="M148.313,325.315c-2.385,11.853,1.199,19.62,7.482,25.549
	c3.961,4.11,7.813,8.3,7.49,15.332c6.283,5.934,9.867,13.701,7.483,25.554c-27.786-13.169-50.919-82.81-7.483-97.098
	C156.633,303.742,142.383,307.643,148.313,325.315z"/>
<path fill="#7FEAFF" stroke="#1944A3" stroke-miterlimit="10" d="M163.285,366.196c0.323-7.032-3.529-11.222-7.49-15.332
	c66.515,20.674,51.956,63.807,59.885,107.32c-12.089,1.441-12.889-4.829-22.455-5.108c-4.561,12.217,9.397,37.074-7.491,40.881
	c0-15.33,0-30.662,0-45.994c0-10.217,0-20.438,0-30.662c8.729,0.859,8.129,8.08,7.491,15.33
	C208.358,413.597,197.169,368.75,163.285,366.196z"/>
<path fill="#7FEAFF" stroke="#1944A3" stroke-miterlimit="10" d="M163.285,366.196c6.283,5.933,9.867,13.701,7.483,25.554
	c2.324,8.072,3.16,17.16,4.37,25.992c4.762,8.391,7.43,17.917,8.6,27.664c0.619,0.884,1.28,1.738,1.996,2.556V417.3
	c8.728,0.859,8.129,8.08,7.491,15.33C208.358,413.597,197.169,368.751,163.285,366.196z"/>
<path fill="#7FEAFF" stroke="#FFFFFF" stroke-miterlimit="10" d="M134.893,593.385c-2.194,2.928-4.454,5.83-6.775,8.732
	c-0.74,0.925-1.499,1.833-2.261,2.737v1.53c12.873,0.273,19.187-3.936,22.456-10.223
	C141.533,596.809,137.244,595.759,134.893,593.385z"/>
<path fill="#7FEAFF" stroke="#1944A3" stroke-miterlimit="10" d="M208.189,493.956c-9.828,1.805-11.766,8.996-22.456,10.223
	c-9.042,7.188-7.128,21.854-17.166,28.36c-4.72,11.371-10.076,22.525-15.9,33.363c-4.793,8.92-10.185,17.145-16.061,25.151
	c13.884,0,27.768,0,41.645-0.001c-0.208-4.968-9.159-3.965-14.966-5.112C210.419,564.073,240.504,532.849,208.189,493.956z"/>
</svg>
