<?xml version="1.0" encoding="utf-8"?>
<!-- Generator: Adobe Illustrator 15.0.0, SVG Export Plug-In . SVG Version: 6.00 Build 0)  -->
<!DOCTYPE svg PUBLIC "-//W3C//DTD SVG 1.1//EN" "http://www.w3.org/Graphics/SVG/1.1/DTD/svg11.dtd">
<svg version="1.1" id="Capa_1" xmlns="http://www.w3.org/2000/svg" xmlns:xlink="http://www.w3.org/1999/xlink" x="0px" y="0px"
	 width="612px" height="792px" viewBox="0 0 612 792" enable-background="new 0 0 612 792" xml:space="preserve">
<path fill="#F6F5F3" d="M499.545,701.127c-10.973,11.636-42.554,1.495-61.304,4.92c19.487,5.89,49.163,11.469,66.137,4.396
	C502.596,707.443,500.993,704.331,499.545,701.127z"/>
<path fill="#F6F5F3" d="M211.63,112.957c-11.821-4.276-5.006-33.686,10.303-27.209c8.318,54.692,48.866,75.334,77.255,108.824
	c-1.72,0-3.435,0-5.154,0c-1.715,0-3.435,0-5.149,0c-29.473-28.711-70.556-45.163-72.101-103.384
	c-6.038,0.878-4.344,9.921-5.154,16.325C211.63,109.327,211.63,111.142,211.63,112.957z"/>
<path fill="#A88772" d="M216.784,58.187c-6.038,1.131-4.344,12.764-5.154,21.002v7.004c2.384,50.056-12.071,77.225-22.774,109.5
	c0.891,3.543,1.729,7.103,2.498,10.681c10.103-26.182,16.738-57.081,30.579-78.187c20.642,23.281,39.706,48.699,66.952,63.001
	C259.412,154.253,218.329,133.089,216.784,58.187z"/>
<path fill="#A88772" d="M458.861,276.361c0.633-7.604,1.101-15.219,1.139-22.861c0.013-2.586,0.461-5.083,1.264-7.426
	c-36.008-36.205-115.706-26.247-162.076-51.501h-5.154c38.939,38.664,136.867,15.011,164.806,65.296
	C458.901,265.309,458.894,270.822,458.861,276.361z"/>
<path fill="#A88772" d="M496.083,692.589c-11.874,10.497-46.404-2.943-62.99,2.573c12.034,12.359,45.372,2.215,66.166,5.324
	C498.112,697.904,497.058,695.269,496.083,692.589z"/>
<path fill="#A88772" d="M376.438,684.277c-7.309-0.467-14.584-0.896-15.45,5.443c-12.178,3.769-46.067,12.578-56.65,0
	c33.743,6.63,46.024-9.413,72.101-10.884C376.438,680.652,376.438,682.467,376.438,684.277z"/>
<path fill="#A88772" d="M283.736,689.722c-46.48-9.2-57.486,19.071-97.855,16.325c-1.714,0-3.434,0-5.148,0
	c29.759-10.35,72.593-35.66,113.3-16.325C290.599,689.722,287.171,689.722,283.736,689.722z"/>
<path fill="#C2AE9D" d="M134.38,706.047c-0.673-3.03-2.863-4.457-4.162-6.827c-0.323,1.267-0.637,2.534-0.928,3.809
	c-0.492,2.158-0.941,4.328-1.348,6.506c0.484,0.878,0.929,1.557,1.284,1.952c17.34-3.444,47.84,7.012,56.655-5.439h-5.148
	C167.944,693.178,150.418,705.993,134.38,706.047z"/>
<path fill="#E5D9CD" d="M304.336,689.722c10.583,12.578,44.474,3.769,56.65,0c-9.304,20.155-66.328,12.652-77.25,0
	c3.435,0,6.863,0,10.297,0C297.467,689.722,300.902,689.722,304.336,689.722z"/>
<path fill="#D2C7B1" d="M499.258,700.485c-20.795-3.109-54.13,7.036-66.165-5.324c-18.415-2.313-27.484-14.492-51.503-10.885
	c17.33,8.895,38.1,14.161,56.651,21.77c18.75-3.424,50.331,6.716,61.304-4.92C499.448,700.913,499.353,700.699,499.258,700.485z"/>
<path fill="#9F1C1A" d="M482.444,640.889c-8.313-30.74-18.563-61.46-23.412-93.004c-5.06-32.912-5.056-65.821-4.419-99.025
	C455.241,416.078,455,383.286,455,350.5c0-16.362-0.053-32.614,1.471-48.923c0.784-8.4,1.689-16.793,2.39-25.198
	c0.032-5.545,0.04-11.065-0.021-16.511c-27.938-50.284-125.866-26.631-164.806-65.296h-5.149
	c-27.245-11.118-46.31-30.875-66.952-48.972c-13.84,16.405-20.475,40.423-30.578,60.774c13.713,49.588,8.502,103.173,1.333,153.396
	c-8.845,61.954-22.613,123.028-32.02,184.873c-0.685,4.502-1.354,9.007-1.976,13.518c-0.052,0.379-0.096,0.691-0.132,0.955
	c-0.021,0.16-0.042,0.331-0.067,0.521c-0.246,1.909-0.5,3.818-0.729,5.729c-0.905,7.536-1.556,15.095-2.161,22.659
	c-1.367,17.087-2.046,35.098-6.441,51.721c-3.704,14.011-8.928,27.534-13.47,41.279c-1.985,6.009-3.905,12.058-5.473,18.194
	c1.299,2.37,3.489,3.797,4.162,6.827c16.038-0.054,33.564-12.869,46.353,0c29.758-10.349,72.593-35.66,113.3-16.325h10.302
	c33.744,6.631,46.025-9.412,72.101-10.884v5.439h5.153c24.02-3.608,33.088,8.57,51.503,10.884
	c16.586-5.517,51.118,7.926,62.991-2.573C489.978,675.796,486.902,657.372,482.444,640.889z M386.74,330.604
	c-4.588-3.349-9.213-6.577-10.303,0c-12.53-3.419-2.726-27.495,10.303-21.769V330.604z"/>
<ellipse fill="#A88772" cx="385.125" cy="320.279" rx="14.625" ry="16.279"/>
<ellipse fill="#A88772" cx="403.125" cy="345.646" rx="9.625" ry="9.087"/>
<ellipse fill="#A88772" cx="420.375" cy="361.07" rx="7.625" ry="6.337"/>
</svg>
