<?xml version="1.0" encoding="utf-8"?>
<!-- Generator: Adobe Illustrator 15.0.0, SVG Export Plug-In . SVG Version: 6.00 Build 0)  -->
<!DOCTYPE svg PUBLIC "-//W3C//DTD SVG 1.1//EN" "http://www.w3.org/Graphics/SVG/1.1/DTD/svg11.dtd">
<svg version="1.1" id="Capa_1" xmlns="http://www.w3.org/2000/svg" xmlns:xlink="http://www.w3.org/1999/xlink" x="0px" y="0px"
	 width="612px" height="792px" viewBox="0 0 612 792" enable-background="new 0 0 612 792" xml:space="preserve">
<path fill="#36204F" d="M394.698,326.22c0.168-2.946,0.542-5.923,1.142-8.967c1.361-6.914,6.808-12.406,13.256-15.211
	c-2.634-2.888-7.803,1.223-15.766-13.351c-6.036,13.531-10.252,28.977-13.044,45.934h13.957
	C393.89,331.809,394.059,328.959,394.698,326.22z"/>
<path fill="#36204F" stroke="#651FFF" stroke-miterlimit="10" d="M219.82,308.052c2.043-3.135,4.708-5.747,7.786-7.646
	c-1.855-1.765-4.467-2.73-8.185-2.526C220.101,300.694,220.072,304.256,219.82,308.052z"/>
<path fill="#36204F" stroke="#651FFF" stroke-miterlimit="10" d="M280.289,352.998c12.637,0.085,10.279,25.962,4.351,32.153
	c-9.095-4.172-13.258-13.557-13.044-27.562C276.648,358.34,279.328,356.576,280.289,352.998z"/>
<path fill="#36204F" stroke="#651FFF" stroke-miterlimit="10" d="M323.766,389.748c17.537,41.212,18.847,123.985,17.396,169.955
	C309.02,517.793,322.265,447.318,323.766,389.748z"/>
<path fill="#36204F" d="M349.853,394.34c5.058-0.746,7.737,1.014,8.697,4.592c1.336,52.438,5.07,78.437,0,128.617
	c3.142,9.961-4.443,29.232-4.351,9.186C352.854,491.755,337.483,438.67,349.853,394.34z"/>
<path fill="#36204F" stroke="#651FFF" stroke-miterlimit="10" d="M464.763,636.84c-0.325-3.748-0.644-7.497-1.04-11.237
	c-0.069-0.653-0.151-1.306-0.225-1.958c-0.023-0.144-0.048-0.281-0.071-0.407c-2.395-12.969-7.435-25.851-11.315-38.443
	c-1.158-3.757-2.317-7.515-3.472-11.273c6.076,31.109,12.153,62.219,18.926,92.594C466.382,656.369,465.605,646.56,464.763,636.84z"
	/>
<path fill="#36204F" d="M181.568,247.985c-4.905,25.679-10.643,50.477-18.667,72.862c-8.431,49.133-14.202,101.067-17.366,155.76
	c1.503-0.704,3.09-1.274,4.738-1.71c10.907-55.918,18.678-154.485,31.846-228.175C181.937,247.144,181.751,247.563,181.568,247.985z
	"/>
<path fill="#36204F" d="M397.302,380.431c-1.25-7.373-2.108-14.815-2.635-22.264c-0.05-0.704-0.053-1.401-0.025-2.091
	c-1.055-4.231-1.305-8.731-0.583-13.229c-0.399-2.444-0.252-5.092,0.284-7.645c-0.457-3.002-0.329-6.055,0.355-8.982
	c0.169-2.946,0.542-5.922,1.142-8.966C397.839,307.101,408.639,300,418.5,300c1.642,0,3.197,0.175,4.686,0.474
	c0.001-31.151,11.431-69.738,25.468-86.623c-5.807-12.392-9.543-26.039-14.5-38.497c-0.061-0.151-0.137-0.336-0.221-0.536
	c-0.336-0.744-0.677-1.486-1.041-2.217c-1.034-2.077-2.117-4.134-3.356-6.098c-0.869-1.377-1.739-2.755-2.694-4.075
	c-0.075-0.104-0.14-0.194-0.204-0.284c-0.011-0.012-0.019-0.021-0.029-0.034c-1.709-2.011-3.459-3.988-5.328-5.852
	c-1.631-1.627-3.32-3.191-5.032-4.729c-16.135-6.388-33.431-11.549-57.218-9.855c-5.417,12.198-16.244,21.603-30.405,25.143
	c-14.187,3.546-26.978,0.909-38.429-8.074c-6.997-5.489-10.297-13.186-11.289-21.371c-20.404,3.884-41.112,7.445-57.506,15.564
	c-1.598,4.68-3.279,9.329-5.026,13.952c15.712-6.37,37.252-7.356,50.87-2.215c-3.493,31.252,13.057,41.329,13.043,68.899
	c-4.422-2.984-4.493-10.559-13.043-9.184c-11.606,19.343,0.267,37.246-17.39,45.934c23.134,0.053,13.91,34.301,21.74,50.526
	c22.518,2.948-5.235-21.884,8.693-22.965c19.481,22.049-16.67,36.035-4.346,50.526c28.195,4.632,5.521-20.584,21.736-22.97
	c13.955,19.052,29.388,31.144,52.174,18.377c-0.355,18.748,3.307,33.252,17.391,36.745c5.279-8.206,0.796-26.721,8.696-32.153
	c18.274,71.03,19.999,159.542,34.779,234.261v41.341c2.633,23.922,6.255-9.271,4.353-18.372
	C420.15,527.456,396.729,453.189,397.302,380.431z"/>
<path fill="#36204F" d="M457.988,384.449c0.004,0.024,0.007,0.048,0.011,0.072c0.18,0.218,0.36,0.433,0.546,0.632
	c-0.12-15.433,5.986-24.296,13.045-32.153c-5.086,15.333,13.015,74.213-4.081,101.786c0.719,5.021,1.495,10.021,2.641,14.948
	c8.532-1.693,17.083-3.367,28.209-2.322c-1.093-17.651-2.125-35.307-3.872-52.906c-0.422-4.252-0.866-8.502-1.381-12.744
	c-0.152-1.249-0.311-2.497-0.469-3.745c-0.133-0.957-0.315-2.283-0.382-2.732c-1.118-7.504-2.617-14.936-4.301-22.333
	c-3.447-15.15-7.556-30.135-11.14-45.251c-2.685-11.324-4.715-22.732-6.732-34.165c-12.989,2.938-19.575,28.154-20.041,51.796
	C453.383,358.209,455.91,371.307,457.988,384.449z"/>
<path fill="#EF4BE4" d="M375.858,219.283c0.65-2.928,3.552-5.158,6.746-5.986c2.436-2.567,4.626-4.511,6.055-4.511
	c0.898-19.706-21.261-5.7-27.173-15.286c-2.505,4.973,9.077,25.935,7.919,32.167c1.443,0,3.665-1.985,6.133-4.593
	C375.619,220.482,375.724,219.887,375.858,219.283z"/>
<path fill="#36204F" stroke="#651FFF" stroke-miterlimit="10" d="M419.742,683.576c1.66-29.463-6.661-29.468-5.003-0.014
	C416.407,683.563,418.075,683.566,419.742,683.576z"/>
<path fill="#6B6975" d="M380.876,684.01c4.506-0.842,9.014-1.08,12.918-0.265c5.374-0.091,10.746-0.15,16.117-0.174
	c-12.887-8.844-32.098-3.582-48.713,0.954C367.76,684.344,374.318,684.164,380.876,684.01z"/>
<path fill="#36204F" stroke="#651FFF" stroke-miterlimit="10" d="M256.258,686.882c10.614-5.277,30.863-5.521,41.4-1.13
	c5.655-0.085,11.309-0.156,16.96-0.209c2.072-0.02,4.144-0.044,6.216-0.073c3.219-4.339,4.4-10.831,7.281-15.527
	c1.161,6.13,3.188,11.345,6.433,15.274c1.282-0.028,2.563-0.058,3.845-0.088c-7.142-7.26-4.504-24.854-10.278-33.56
	c-22.468-5.365-4.556,31.934-21.74,32.153c-12.671-7.849-46.958-8.265-57.811,3.535
	C251.128,687.128,253.692,686.993,256.258,686.882z"/>
<path fill="#36204F" d="M467.563,666.099c-6.77-30.366-12.846-61.465-18.92-92.564c-8.138-26.487-16.049-53.057-21.721-80.201
	c-0.344-1.645-0.519-3.291-0.563-4.923c-1.406-4.775-2.468-9.605-3.188-14.37c-1.061-7.029-2.021-14.073-2.953-21.121
	c-1.083-1.195-2.004-2.497-2.678-3.891c-2.563-5.302-4.395-10.769-6.368-16.281c-0.453-1.266-0.728-2.61-0.86-3.989
	c-1.684-4.923-3.011-9.99-4.072-15.095c-0.393-0.838-0.752-1.698-1.067-2.583c-3.551-9.95-6.104-20.227-7.869-30.644
	c-0.572,72.756,22.848,147.02,17.767,225.198c1.902,9.101-1.72,42.294-4.353,18.372v-41.341
	c-14.78-74.719-16.505-163.231-34.778-234.261c-7.901,5.432-3.417,23.947-8.697,32.153c-14.084-3.493-17.746-17.997-17.391-36.745
	c-22.785,12.768-38.219,0.675-52.174-18.377c-16.215,2.387,6.459,27.602-21.736,22.97c-12.324-14.491,23.826-28.477,4.346-50.526
	c-13.928,1.081,13.825,25.913-8.693,22.965c-7.83-16.224,1.394-50.472-21.74-50.526c17.658-8.689,5.785-26.592,17.39-45.934
	c8.549-1.376,8.621,6.2,13.043,9.184c0.015-27.57-16.536-37.648-13.043-68.899c-13.618-5.142-35.158-4.155-50.87,2.215
	c-10.23,27.077-22.72,53.286-34.254,79.833c-13.168,73.692-20.94,172.261-31.848,228.179c1.687-0.445,3.436-0.751,5.227-0.897
	c7.45-0.608,15.127-0.473,22.71,0.313c2.792-15.816,6.501-31.489,10.657-46.979c2.137-7.965,4.343-15.913,6.527-23.866
	c0.118-0.695,0.24-1.39,0.36-2.085c0.138-4.958,0.237-9.919,0.247-14.883c0.01-5.634,2.078-10.857,5.48-14.942
	c4.148-19.375,9.154-38.547,15.359-57.305c4.02-12.15,16.083-19.941,28.908-16.414c11.873,3.266,20.438,16.744,16.414,28.908
	c-1.65,4.987-3.205,10.003-4.686,15.041c-0.067,0.983-0.162,1.97-0.314,2.959c-3.375,21.891-8.856,43.284-14.657,64.607
	c-1.601,39.825-6.915,79.437-13.019,118.849c-0.208,1.713-0.457,3.453-0.746,5.236c-0.25,1.546-0.525,3.088-0.799,4.631
	c-0.58,3.675-1.164,7.348-1.75,11.019c-0.344,2.484-0.663,4.749-0.481,3.445c-0.167,1.256-0.35,2.511-0.547,3.762
	c-0.51,3.114-1.062,6.222-1.719,9.309c-5.218,24.515-12.322,48.485-16.717,73.196c-1.557,8.754-3.041,17.567-4.773,26.325
	c0.703,8.196,2.159,15.877,4.613,22.892c0.109,0.197,0.21,0.398,0.323,0.594c0.262,0.452,0.525,0.904,0.793,1.354
	c4.396-0.06,8.77-0.514,13.148-0.881c9.233-0.773,18.481-1.357,27.736-1.827c10.853-11.8,45.139-11.384,57.811-3.535
	c17.184-0.219-0.728-37.518,21.74-32.153c5.774,8.705,3.138,26.3,10.279,33.56c7.604-0.18,15.205-0.393,22.805-0.604
	c16.615-4.536,35.825-9.798,48.712-0.954c1.61-0.007,3.22-0.01,4.829-0.009c-1.657-29.454,6.664-29.449,5.003,0.014
	c16.307,0.094,32.595,0.636,48.855,1.979c0.658-0.282,1.273-0.611,1.848-0.982C469.236,678.468,468.316,672.297,467.563,666.099z"/>
<path fill="#36204F" d="M354.199,536.733c-0.094,20.048,7.491,0.775,4.351-9.186c5.07-50.182,1.336-76.18,0-128.617
	c-0.96-3.578-3.641-5.338-8.696-4.592C337.483,438.67,352.854,491.755,354.199,536.733z"/>
<path fill="#36204F" stroke="#651FFF" stroke-miterlimit="10" d="M201.069,669.464c0.03,0.302,0.052,0.604,0.085,0.906
	c0.046,0.238,0.097,0.501,0.155,0.813c0.333,1.767,0.677,3.532,1.12,5.275c0.75,2.954,1.597,5.89,2.673,8.744
	c0.472,0.948,0.954,1.894,1.466,2.821c-2.456-7.018-3.913-14.702-4.616-22.902C201.666,666.57,201.372,668.019,201.069,669.464z"/>
<path fill="#36204F" d="M472.075,476.741c0.264,0.809,0.536,1.614,0.817,2.416c10.231-0.69,19.785-2.098,25.742-7.305
	c-0.093-1.48-0.185-2.961-0.276-4.441c-11.127-1.045-19.677,0.629-28.209,2.322C470.696,472.088,471.319,474.427,472.075,476.741z"
	/>
<path fill="#CFCFD1" d="M334.549,685.217c-3.245-3.93-5.271-9.145-6.433-15.274c-2.881,4.696-4.063,11.188-7.281,15.527
	C325.406,685.405,329.978,685.317,334.549,685.217z"/>
<path fill="#36204F" stroke="#651FFF" stroke-miterlimit="10" d="M413.651,149.219c-7.167-2.352-14.427-4.427-21.766-6.167
	c-4.711-1.118-9.44-2.16-14.202-3.039c-2.617-0.483-5.238-0.953-7.87-1.358c-0.756-0.116-3.001-0.406-4.108-0.551
	c-1.707-0.188-3.416-0.348-5.126-0.495c-0.456,1.383-0.964,2.743-1.55,4.063c23.786-1.694,41.084,3.467,57.219,9.855
	C415.387,150.754,414.529,149.975,413.651,149.219z"/>
<path fill="#36204F" stroke="#651FFF" stroke-miterlimit="10" d="M178.814,254.402c-0.116,0.289-0.541,1.312-1.013,2.448
	c-1.407,4.913-3.146,9.837-4.782,14.991c-0.538,3.975-1.062,7.952-1.708,11.896c-1.384,8.445-3.542,16.56-6.758,24.193
	c-0.571,4.283-1.126,8.583-1.651,12.915c8.024-22.384,13.762-47.181,18.667-72.86C180.643,250.122,179.724,252.26,178.814,254.402z"
	/>
<path fill="#B1B6C3" d="M297.659,685.752c-10.537-4.39-30.783-4.146-41.398,1.13C270.053,686.285,283.858,685.959,297.659,685.752z"
	/>
<path fill="#36204F" d="M460.968,242.721c-1.741-5.415-3.443-10.842-5.231-16.242c-0.018-0.054-0.037-0.108-0.055-0.163
	c-2.691-3.932-4.991-8.119-7.028-12.466c-14.036,16.887-25.466,55.473-25.467,86.624c8.684,1.748,14.745,8.32,17.974,16.779
	c3.51,9.193,6.417,18.58,8.883,28.085c0.465-23.644,7.05-48.864,20.039-51.804c-0.667-3.782-1.333-7.566-2.021-11.351
	C465.674,269.034,463.231,255.893,460.968,242.721z"/>
<path fill="#36204F" d="M471.592,352.998c-7.059,7.857-13.165,16.72-13.045,32.153c-0.187-0.2-0.368-0.416-0.549-0.635
	c2.021,12.779,3.723,25.607,5.365,38.439c0.235,1.837,0.468,3.674,0.701,5.511c4.008,6.048,4.849,13.702,2.633,20.478
	c0.174,1.278,0.383,2.819,0.453,3.318c0.119,0.842,0.238,1.684,0.359,2.525C484.607,427.215,466.506,368.333,471.592,352.998z"/>
<ellipse fill="#B280F9" stroke="#651FFF" stroke-miterlimit="10" cx="319.025" cy="201" rx="8.666" ry="7.5"/>
<ellipse fill="#B280F9" stroke="#651FFF" stroke-miterlimit="10" cx="319.025" cy="266.097" rx="8.666" ry="7.5"/>
<ellipse fill="#B280F9" stroke="#651FFF" stroke-miterlimit="10" cx="321.385" cy="334.625" rx="8.666" ry="7.5"/>
<ellipse fill="#B280F9" stroke="#651FFF" stroke-miterlimit="10" cx="325.529" cy="403.893" rx="8.666" ry="7.5"/>
<ellipse fill="#B280F9" stroke="#651FFF" stroke-miterlimit="10" cx="327.691" cy="486.657" rx="8.666" ry="7.5"/>
<ellipse fill="#B280F9" stroke="#651FFF" stroke-miterlimit="10" cx="327.691" cy="573.521" rx="8.666" ry="7.5"/>
</svg>
