<?xml version="1.0" encoding="utf-8"?>
<!-- Generator: Adobe Illustrator 15.0.0, SVG Export Plug-In . SVG Version: 6.00 Build 0)  -->
<!DOCTYPE svg PUBLIC "-//W3C//DTD SVG 1.1//EN" "http://www.w3.org/Graphics/SVG/1.1/DTD/svg11.dtd">
<svg version="1.1" id="Capa_1" xmlns="http://www.w3.org/2000/svg" xmlns:xlink="http://www.w3.org/1999/xlink" x="0px" y="0px"
	 width="612px" height="792px" viewBox="0 0 612 792" enable-background="new 0 0 612 792" xml:space="preserve">
<path fill="#F6F5F3" d="M186.406,122.337c-16.912-4.763-12.464-32.092-13.771-53.344C182.973,80.703,182.34,104,186.406,122.337z"/>
<path fill="#6B6975" d="M186.406,136.886c4.985,1.198,3.117,9.641,9.182,9.698c-0.561,12.339-6.683,18.805-18.363,19.397
	C175.026,150.725,183.76,147.026,186.406,136.886z"/>
<path fill="#6B6975" d="M177.224,185.38c-0.294,0.688-0.578,1.457-0.857,2.259c3.878,22.939,6.475,46.812,5.608,70.294
	c9.23-10.845,11.519-17.056,22.79-4.663c1.367-9.875,9.195-12.917,13.77-19.396C195.069,227.955,202.275,189.626,177.224,185.38z"/>
<path fill="#C2AE9D" d="M213.946,413.303c-0.481,63.55-1.401,127.566,18.359,169.73c-6.211-94.371-16.525-242.994-4.589-310.366
	c0.58-8.696-5.616-10.226-4.588-19.396c-19.231,0.684-5.888-12.197-18.363-0.001c-6.462,2.197-14.871,3.416-22.738,3.095
	c-0.712,23.469-4.83,46.576-14.569,67.996c-0.32,0.703-0.684,1.371-1.083,2.009c-1.697,5.125-3.895,10.103-6.514,14.857
	c-9.388,73.317-29.288,152.511-33.128,241.807c-1.586,36.933-7.771,81.063,2.989,116.133c0.409-0.049,0.816-0.105,1.226-0.149
	c2.896-0.314,5.875-0.658,8.791-0.413c3.628,0.305,7.159,0.6,10.546,1.542c13.16-97.634-4.06-258.236,26.937-354.734
	c3.132,49.334,4.499,120.644,9.182,179.427c4.872,61.111-13.439,128.793-2.171,179.366c5.749-0.717,11.445-1.029,17.341-0.333
	c4.164,0.491,7.807,1.236,11.642,2.215C219.984,621.104,188.736,500.326,213.946,413.303z M195.588,466.645
	c-19.373-39.586-2.943-113.014,0-160.032c-1.292-8.663,4.338-9.951,4.588-4.848C203.359,361.705,195.597,410.076,195.588,466.645z"
	/>
<path fill="#6B6975" d="M379.186,336.465c-0.855-4.195-4.39-5.563-4.59-10.451v-43.646c-12.092-1.462-15.063,6.715-13.766,19.397
	c0,3.235,0,6.465,0.001,9.696c14.386,0.962,0.569,31.728,18.358,29.097c0.121-0.735,0.165-1.387,0.174-2.004
	C379.303,337.857,379.24,337.162,379.186,336.465z"/>
<path fill="#6B6975" d="M337.877,296.917c0,1.614,0,3.236,0,4.849c-9.531,1.245-1.255,21.306-9.177,24.249
	c-9.056-5.234-7.839-40.231,9.177-33.945C337.877,293.682,337.877,295.299,337.877,296.917z"/>
<path fill="#D2C7B1" d="M427.957,578.698c-2.466-17.349-4.636-34.729-5.873-52.182c-1.265-2.882-2.087-6.046-2.417-9.35
	c-1.711-17.12-2.864-34.283-3.886-51.455c-4.393-9.083-7.805-18.624-10.017-28.445c-1.495-3.354-2.959-6.726-4.35-10.13
	c10.061,97.249,35.002,201.532,33.694,278.513c3.555,0.119,7.111,0.268,10.667,0.474c1.695,0.099,3.396,0.186,5.095,0.271
	c-5.433-17.497-9.186-35.663-12.028-53.736C434.973,628.057,431.461,603.354,427.957,578.698z"/>
<path fill="#A88772" d="M258.608,706.343c4.183-0.673,8.39-1.311,12.608-1.8c-5.462-87.022,0.532-206.15-11.37-286.393
	c-2.924,71.564-2.914,153.074,0,223.071C260.645,660.405,255.396,685.893,258.608,706.343z"/>
<path fill="#A88772" d="M352.871,702.03c15.882-25.256,9.748-77.32,7.959-118.997c-1.758-40.926-4.41-82.029-13.771-101.84v222.383
	C348.959,702.976,350.894,702.471,352.871,702.03z"/>
<path fill="#F6F5F3" d="M347.059,136.886c22.783-19.574,10.801-75.879,32.131-96.99c18.362-6.147,17.538,32.764,9.177,38.795
	c-2.726-10.045,5.679-31.856-4.583-33.945C359.962,63.228,378.849,126.83,347.059,136.886z"/>
<path fill="#F6F5F3" d="M200.176,132.036c-13.417-23.002-11.784-61.909-27.541-82.44c-16.586-4.593-6.4,19.1-9.182,29.095
	c-9.05-5.229-7.838-40.229,9.182-33.945c23.858,18.444,16.756,69.586,36.723,92.14C204.75,136.9,203.897,132.958,200.176,132.036z"
	/>
<path fill="#F6F5F3" d="M164.643,160.544c1.21,0.786,2.342,1.678,3.378,2.664c-0.875-8.091-1.806-16.241,4.614-16.624
	c-0.891-23.307-2.193-46.173-9.182-63.042C166.186,115.43,166.581,132.863,164.643,160.544z"/>
<path fill="#E8D3BC" d="M382.631,135.755c0.071-1.989,0.199-4.014,0.386-6.055c-3.701-16.667-2.553-33.505,5.35-51.01
	c-2.726-10.045,5.679-31.856-4.583-33.945c-23.821,18.481-4.935,82.083-36.725,92.14c-5.149,1.024-7.144,5.381-9.182,9.698
	c15.948-0.934,17.43-17.151,32.135-19.399c3.149,6.495,7.443,11.782,12.869,15.872C382.631,140.578,382.546,138.125,382.631,135.755
	z"/>
<path fill="#E8D3BC" d="M163.453,78.691c2.782-9.995-7.404-33.688,9.182-29.095c15.756,20.531,14.124,59.438,27.541,82.44
	c-17.661-10.924-20.773,2.006-27.541,14.548c-0.891-23.307-2.193-46.173-9.182-63.042C163.453,81.924,163.453,80.309,163.453,78.691
	z M172.635,68.993c1.306,21.252-3.141,48.581,13.771,53.344C182.34,104,182.973,80.703,172.635,68.993z"/>
<path fill="#6B6975" d="M388.313,161.922c-2.993-5.826-4.781-12.436-5.432-18.866c-5.426-4.09-9.719-9.377-12.868-15.872
	c-14.705,2.247-16.187,18.465-32.135,19.399c-38.03,30.844-95.748,15.405-128.519-9.698c-4.608,0.014-5.462-3.928-9.183-4.85
	c-17.661-10.925-20.774,2.006-27.541,14.548c-6.419,0.383-5.488,8.534-4.613,16.625c2.897,2.76,5.019,6.27,5.806,10.377
	c0.888,4.637,1.741,9.325,2.54,14.053c0.278-0.802,0.563-1.57,0.856-2.259c25.051,4.246,17.845,42.575,41.311,48.494
	c-4.575,6.479-12.403,9.521-13.77,19.396c-11.273-12.393-13.56-6.182-22.79,4.663c-0.103,2.782-0.256,5.557-0.46,8.326
	c6.886,1.705,14.532,1.44,21.985-1.093c12.474-12.195,0.399-11.211,19.63-11.896c13.874,4.504,35.696-6.928,36.718,0
	c26.524-2.16,47.033,2.037,68.854,4.85c3.782-15.336,31.237,11.434,50.488-4.85c0.202-2.303,0.515-4.495,2.485-4.933
	c0.751-1.498,1.555-2.951,2.414-4.359c2.246-23.515,13.856-37.143,8.872-68.3C390.054,172.528,388.777,167.654,388.313,161.922z
	 M177.224,165.981c-2.198-15.256,6.536-18.955,9.181-29.095c4.985,1.198,3.117,9.641,9.182,9.698
	C195.026,158.923,188.905,165.389,177.224,165.981z"/>
<path fill="#A88772" stroke="#63452A" stroke-miterlimit="10" d="M377.174,294.081c-3.06-8.087-3.269-18.011-1.715-27.004
	c-0.233-4.44,0.657-9.016,3.729-13.805c-19.25,16.284-46.705-10.486-50.489,4.85v4.848c6.512-0.415,12.997-0.799,13.77,4.852
	c-40.571,23.107-24.738,110.343-22.952,164.879c17.964-4.797,26.651,10.713,36.724,0c1.501-25.967-22.635-19.6-7.694-43.643
	c0-4.854-1.486-19.4-1.486-24.248c-5.584-30.145-7.955-37.502-9.183-63.043c-9.531,1.245-1.255,21.306-9.177,24.249
	c-9.054-5.234-7.839-40.231,9.177-33.945v4.848c7.625-8.351,19.015-37.784,27.541-29.097c12.785,14.081-15.063,12.577-9.178,33.945
	h4.59c-1.297-12.682,1.674-20.859,13.766-19.397v29.093c1.635-1.571,2.949-3.125,3.996-4.667c0.109-2.89,0.271-5.778,0.479-8.662
	C378.354,296.852,377.712,295.504,377.174,294.081z"/>
<path fill="#C2AE9D" d="M377.454,258.813c1.181-3.721,2.58-7.202,4.222-10.475c-1.972,0.438-2.284,2.629-2.486,4.933
	c-3.07,4.788-3.962,9.362-3.729,13.8C375.957,264.193,376.631,261.409,377.454,258.813z"/>
<path fill="#C2AE9D" d="M382.749,363.842c-0.92,2.713-2.117,4.791-3.56,5.813c-9.621-4.386-1.633-27.371-13.771-29.098v14.553
	c3.915,19.902,5.55,49.254-4.588,67.891c-1.997-6.288-3.178-7.316-3.812-6.777c0.219-1.842,0.473-4.827,0.723-9.492
	c-14.94,24.041,0,0-1.499,25.965c-10.073,10.713-18.76-4.797-36.723,0c-1.787-54.535-17.62-141.772,22.951-164.879
	c-0.773-5.65-7.258-5.266-13.77-4.851c-5.583-11.986-10.469-10.07-30.61-27.868c-4.589,0-19.436,13.152-24.025,13.152
	c-17.332,3.484,11.66-17.763,2.915-19.318c0.9,5.219-29.402,38.822-26.311,29.187c-25.703-4.315-17.129,4.942-22.953,14.546
	c-11.936,67.372-1.622,215.995,4.589,310.366c-19.76-42.164-18.84-106.18-18.359-169.73c-25.209,87.025,6.04,207.805-0.729,292.787
	c0.872,0.223,1.751,0.453,2.652,0.7c0.229,0.063,0.475,0.115,0.719,0.16c1.173-0.027,2.338-0.109,3.522-0.205
	c6.322-0.507,12.734-1.238,19.071-0.513c2.609,0.287,5.211,0.627,7.808,1.015c1.253,0.108,2.514,0.211,3.771,0.192
	c0.935-0.014,2.666-0.25,3.009-0.276c0.559-0.104,1.117-0.213,1.679-0.305c8.569-1.403,17.256-2.789,25.947-3.147
	c9.128-0.376,18.291,0.362,27.268,2.103c6.02,1.166,11.799,3.631,17.766,4.959c0.461,0.014,1.219,0.054,1.964,0.074
	c0.249-0.057,0.483-0.115,0.68-0.175c1.009-0.307,2.009-0.637,2.999-0.995c0.624-0.265,1.241-0.529,1.547-0.673
	c9.3-4.372,17.384-7.35,27.657-8.303c8.607-0.799,17.132,0.549,25.644,1.74c3.071,0.43,6.109,1.011,9.165,1.509
	c0.901,0.125,2.046,0.28,2.485,0.319c1.753,0.155,3.506,0.309,5.264,0.399c10.423,0.537,20.849,0.633,31.276,0.982
	c1.309-76.979-23.634-181.262-33.694-278.51C393.076,406.727,386.662,385.473,382.749,363.842z"/>
<path fill="#C2AE9D" d="M378.489,309.423c0.025-0.875,0.068-1.751,0.102-2.626c-1.046,1.541-2.36,3.094-3.995,4.665v14.553
	c1.527-0.067,2.868,0.403,4.037,1.286C378.376,321.346,378.317,315.384,378.489,309.423z"/>
<path fill="#C2AE9D" d="M273.618,229.024c1.475-0.215,2.57-0.232,3.363-0.091C276.83,228.06,275.813,227.977,273.618,229.024z"/>
<path fill="#C2AE9D" d="M126.735,583.032c3.84-89.295,23.74-168.489,33.128-241.807c-0.492,0.893-1,1.776-1.521,2.652
	c-0.445,1.802-0.908,3.599-1.344,5.402c-4.633,19.137-9.551,38.395-12.732,57.835c-0.414,2.532-0.819,5.065-1.184,7.605
	c-0.108,0.746-0.211,1.492-0.316,2.238c-0.037,0.289-0.083,0.644-0.14,1.082c-0.64,5.13-1.233,10.265-1.792,15.403
	c-1.03,9.473-1.932,18.975-3.125,28.429c-0.811,6.417-1.736,12.771-2.864,19.135c-0.146,0.785-0.271,1.575-0.396,2.364
	c-0.234,2.109-0.451,4.221-0.671,6.332c-0.896,8.589-1.675,17.407-4.177,25.72c0.153,2.398,0.012,4.861-0.438,7.323
	c-0.443,2.425-0.875,4.852-1.238,7.289c-0.092,0.634-0.16,1.099-0.206,1.407c-0.064,0.522-0.133,1.044-0.194,1.566
	c-0.496,4.35-0.93,8.706-1.263,13.072c-0.72,9.445-1.166,18.906-1.529,28.372c-0.702,18.289-1.129,36.69-3.178,54.892
	c-1.03,9.142-2.406,18.211-3.949,27.251c-0.171,15.125-0.561,30.021-1.376,44.465c1.39-0.332,2.817-0.579,4.272-0.729
	c0.739-0.076,3.243-0.392,3.579-0.423c1.88-0.265,3.761-0.52,5.646-0.744C118.964,664.097,125.148,619.966,126.735,583.032z"/>
<path fill="#C2AE9D" d="M155.831,702.455c1.139,0.667,2.562,1.74,3.952,2.984c1.44,0.439,2.887,0.856,4.356,1.189
	c0.096,0.02,0.179,0.037,0.266,0.056c0.361,0.012,0.722,0.027,1.084,0.027c1.359-0.025,2.714-0.083,4.067-0.198
	c0.625-0.083,1.227-0.168,1.542-0.223c1.717-0.3,3.432-0.617,5.151-0.903c2.69-0.447,5.343-0.854,7.986-1.183
	c-11.269-50.573,7.042-118.256,2.171-179.368c-4.683-58.783-6.051-130.094-9.182-179.427
	c-30.997,96.498-13.777,257.103-26.938,354.736C152.183,700.675,154.034,701.402,155.831,702.455z"/>
<path fill="#C2AE9D" d="M258.609,706.343c4.182-0.674,8.389-1.311,12.607-1.8c-5.462-87.022,0.532-206.149-11.37-286.392
	c-2.924,71.563-2.914,153.073,0,223.071C260.645,660.405,255.397,685.893,258.609,706.343z"/>
<path fill="#C2AE9D" d="M352.871,702.03c15.883-25.256,9.749-77.32,7.959-118.997c-1.759-40.926-4.41-82.029-13.771-101.84v222.383
	C348.96,702.976,350.894,702.471,352.871,702.03z"/>
<path fill="#C2AE9D" d="M223.128,253.271c13.875,4.504,35.696-6.928,36.718,0c-0.122,4.716-5.621,3.763-9.177,4.85
	c-25.703-4.315-17.129,4.942-22.953,14.546C228.297,263.971,222.101,262.441,223.128,253.271z"/>
<path fill="#A88772" d="M378.633,327.301c-1.169-0.883-2.51-1.354-4.038-1.287c0.2,4.891,3.739,6.257,4.591,10.46
	C378.946,333.42,378.765,330.361,378.633,327.301z"/>
<path fill="#A88772" d="M379.362,338.538c-0.009,0.621-0.053,1.279-0.175,2.02c-17.788,2.632-3.971-28.135-18.357-29.097
	c-0.104,11.427,7.902,14.28,4.587,29.097c12.139,1.727,4.151,24.712,13.771,29.098c1.443-1.023,2.641-3.103,3.561-5.817
	C381.231,355.452,380.095,347.01,379.362,338.538z"/>
<path fill="#D2C7B1" d="M111.236,690.863c-0.132,0.691-0.354,2.203-0.534,3.409c-0.051,2.944-0.107,5.867-0.176,8.76
	c1.794-0.838,3.708-1.495,5.7-1.971c0.815-14.442,1.205-29.335,1.376-44.457C115.65,668.046,113.427,679.44,111.236,690.863z"/>
<path fill="#CFCFD1" d="M110.43,695.968c-0.043,0.524-0.091,1.049-0.127,1.574c-0.136,1.935-0.257,3.87-0.386,5.806
	c0.206-0.102,0.401-0.218,0.609-0.315c0.068-2.891,0.125-5.813,0.176-8.756C110.576,695.116,110.471,695.81,110.43,695.968z"/>
<path fill="#D2C7B1" d="M360.83,311.461c-0.104,11.427,7.902,14.28,4.588,29.097c0,1.618,0,3.235,0,4.853
	c-5.262-7.829-18.019-15.36-9.178-24.245c0-6.471,0-12.937,0-19.401c1.527,0,3.058,0,4.59,0
	C360.83,305,360.83,308.23,360.83,311.461z"/>
<path fill="#C2AE9D" d="M195.587,466.645c-19.373-39.586-2.943-113.014,0-160.032c-1.292-8.663,4.339-9.951,4.588-4.848
	C203.359,361.705,195.597,410.076,195.587,466.645z"/>
<path fill="#A88772" stroke="#63452A" stroke-miterlimit="10" d="M360.9,254.663c0,1.524,0,3.049,0,4.572
	c-5.003-0.391-9.984-0.753-10.578,4.576c31.167,21.792,19.004,104.065,17.632,155.498c-13.8-4.524-20.474,10.104-28.211,0
	c-1.153-24.489,17.388-18.484,5.911-41.159c0-4.578,1.142-18.296,1.142-22.869c4.289-28.43,6.111-35.369,7.054-59.457
	c7.322,1.174,0.964,20.093,7.05,22.869c6.955-4.937,6.021-37.942-7.05-32.014c0,1.521,0,3.047,0,4.572
	c-5.857-7.876-14.607-35.635-21.157-27.442c-9.821,13.28,11.572,11.861,7.051,32.014c-1.174,0-2.349,0-3.526,0
	c0.996-11.961-1.285-19.672-10.574-18.293c0,9.149,0,18.293,0,27.438c-15.778-18.609,6.991-34.74-3.528-54.879
	C336.902,265.447,357.993,240.2,360.9,254.663z"/>
<ellipse fill="#6B6975" stroke="#F9CFA2" stroke-miterlimit="10" cx="351.647" cy="267.818" rx="22.235" ry="22.392"/>
</svg>
