<?xml version="1.0" encoding="utf-8"?>
<!-- Generator: Adobe Illustrator 15.0.0, SVG Export Plug-In . SVG Version: 6.00 Build 0)  -->
<!DOCTYPE svg PUBLIC "-//W3C//DTD SVG 1.1//EN" "http://www.w3.org/Graphics/SVG/1.1/DTD/svg11.dtd">
<svg version="1.1" id="Capa_1" xmlns="http://www.w3.org/2000/svg" xmlns:xlink="http://www.w3.org/1999/xlink" x="0px" y="0px"
	 width="612px" height="792px" viewBox="0 0 612 792" enable-background="new 0 0 612 792" xml:space="preserve">
<path fill="#FFFFFF" stroke="#A8A7A5" stroke-miterlimit="10" d="M319.334,192.264c-29.009-11.518-58.687-22.327-76.972-45.177
	c1.181-49.652,38.676-23.359,72.698-22.588c35.371,0.803,75.452-23.83,81.242,9.035
	C388.872,172.363,340.357,167.792,319.334,192.264z"/>
<path fill="#ECE7E1" stroke="#A8A7A5" stroke-miterlimit="10" d="M434.788,165.158c0,27.105,0,54.212,0,81.32
	c-0.957,3.504-0.118,8.909-4.274,9.035C433.316,226.851,424.877,186.308,434.788,165.158z"/>
<path fill="#D2C7B1" stroke="#A8A7A5" stroke-miterlimit="10" d="M413.41,296.172c-29.502-30.849-6.502-76.635,8.549-108.426
	C432.833,220.395,423.502,270.637,413.41,296.172z"/>
<path fill="#D2C7B1" stroke="#A8A7A5" stroke-miterlimit="10" d="M409.131,305.209c9.565,1.941,1.735,22.265,4.279,31.624
	C388.188,333.995,411.433,321.486,409.131,305.209z"/>
<path fill="#ECE7E1" stroke="#A8A7A5" stroke-miterlimit="10" d="M268.02,485.918c-7.307-43.828-9.542-95.468,0-135.536
	C291.493,384.901,259.883,437.665,268.02,485.918z"/>
<path fill="#E5D9CD" stroke="#A8A7A5" stroke-miterlimit="10" d="M353.541,354.903c5.702,0,11.406,0,17.108,0
	c-5.853,29.963-4.244,67.803-4.279,103.91C357.161,432.631,354.828,399.193,353.541,354.903z"/>
<path fill="#D2C7B1" stroke="#A8A7A5" stroke-miterlimit="10" d="M426.234,422.671c22.31,19.586-3.453,57.052,0,85.834
	C417.816,488.932,420.971,442.811,426.234,422.671z"/>
<path fill="#ECE7E1" stroke="#A8A7A5" stroke-miterlimit="10" d="M439.063,467.848c15.912,25.355,18.359,64.936,17.107,108.427
	C434.261,557.254,441.527,507.41,439.063,467.848z"/>
<path fill="#C2AE9D" stroke="#A8A7A5" stroke-miterlimit="10" d="M404.855,707.289c-6.905,1.269-7.362-4.271-12.827-4.521
	c-1.411-70.791-10.978-132.972-8.556-207.817C399.803,556.007,396.649,637.648,404.855,707.289z"/>
<path fill="#D2C7B1" stroke="#A8A7A5" stroke-miterlimit="10" d="M272.298,571.757c0,3.01,0,6.023,0,9.032
	c0,18.07,0,36.145,0,54.215c-1.427,0-2.855,0-4.279,0C270.779,615.33,262.445,583.936,272.298,571.757z"/>
<path fill="#D2C7B1" stroke="#A8A7A5" stroke-miterlimit="10" d="M353.541,644.036c7.109,13.717,7.109,58.573,0,72.285
	C353.541,692.229,353.541,668.135,353.541,644.036z"/>
<path fill="#ECE7E1" stroke="#A8A7A5" stroke-miterlimit="10" d="M503.206,666.628c2.864,8.598,18.77,42.836,0,45.177
	C513.54,699.556,498.515,686.718,503.206,666.628z"/>
<path fill="#F6F5F3" stroke="#A8A7A5" stroke-miterlimit="10" d="M421.959,305.209c-1.389,48.187,31.07,84.586,29.933,117.462
	C441.932,385.349,406.377,354.89,421.959,305.209z"/>
<path fill="#F6F5F3" stroke="#A8A7A5" stroke-miterlimit="10" d="M451.892,65.767c-12.038,35.5-10.574,124.334-17.104,180.711
	c0-27.108,0-54.215,0-81.32c0-1.507,0-3.011,0-4.518C438.101,126.493,439.081,89.878,451.892,65.767z"/>
<path fill="#ECE7E1" stroke="#A8A7A5" stroke-miterlimit="10" d="M212.429,210.336c7.087,21.125,5.308,51.618,8.555,76.798
	c0,4.521,0,9.038,0,13.559C207.46,281.846,213.938,241.876,212.429,210.336z"/>
<path fill="#F6F5F3" stroke="#A8A7A5" stroke-miterlimit="10" d="M220.984,287.135c9.269-0.761,1.937,16.026,4.273,22.591
	c1.512,39.246-12.146,62.461-25.656,85.839c7.67-31.053,26.368-50.45,21.383-94.871
	C220.984,296.172,220.984,291.655,220.984,287.135z"/>
<path fill="#F6F5F3" stroke="#A8A7A5" stroke-miterlimit="10" d="M186.773,720.842c22.546,1.779,53.989-5.843,64.143,9.033
	c1.423,0,2.852,0,4.275,0C248.38,727.89,204.052,726.79,186.773,720.842z"/>
<path fill="#FBE0FC" stroke="#A8A7A5" stroke-miterlimit="10" d="M216.704,56.732c22.547,2.205,26.857,28.997,55.594,36.142
	c55.015,13.679,130.717-8.976,149.661-45.177c5.053,2.189,9.697,4.817,12.829,9.035c-46.974-6.331-7.135,115.118-59.864,117.461
	c3.906,12.44,7.837,24.85,21.378,27.105c-23.328,35.442-35.617,55.253-34.206,117.459c-9.916-1.441-16.418,0.729-21.383,4.521
	c11.154,6.286,18.521,16.576,38.486,13.553c-0.954,14.05-21.282,7.636-34.208,9.033c7.637,10.101-12.313,48.214,4.274,67.768
	c-16.123,8.563-24.542,25.271-21.383,54.215c-17.13-16.005,2.522-98.367-12.824-121.981c-11.52,19.458-11.857,50.722-12.828,81.321
	c0,1.508,0,3.01,0,4.517c-10.698,86.52-7.575,7.624-8.554-22.586c-0.765-23.562-11.085-51.556,0-63.252
	c-17.834-4.323-21.098,2.162-38.487-4.516c7.314-17.872,41.974-6.854,55.589-18.07c-11.897-10.021-43.117,0.373-51.312-13.554
	c0-22.591,0-45.177,0-67.766c-9.502-12.552-28.979-14.562-25.658-40.661c8.233-9.15,17.206-10.502,29.933-4.517
	c-1.964-23.526-21.879-28.086-29.933-45.177c13.325-32.202,11.221-58.604-4.279-90.355c-15.667-1.493-23.755,5.018-34.207,9.035
	c-1.833-12.475,15.943-4.239,17.103-13.553C213.857,56.732,215.281,56.732,216.704,56.732z M396.302,115.463
	c-60.461-2.491-90.229-5.022-145.386-4.519c1.094,17.723-15.464,16.792-12.829,36.142c17.842,26.332,48.13,39.507,81.247,49.695
	C346.336,173.108,415.593,173.352,396.302,115.463z"/>
<path fill="#ECE7E1" stroke="#A8A7A5" stroke-miterlimit="10" d="M439.063,56.732c2.853,0,5.702,0,8.555,0
	c-0.014,4.532,3.462,5.377,4.273,9.035c-12.811,24.111-13.791,60.726-17.104,94.873c-24.076-33.463,14.705-73.431,8.554-99.39
	C439.704,62.081,439.309,59.488,439.063,56.732z"/>
<path fill="#E5D9CD" stroke="#A8A7A5" stroke-miterlimit="10" d="M302.231,427.188c0.97-30.601,1.309-61.863,12.828-81.321
	c15.348,23.615-4.306,105.978,12.824,121.981c-3.159-28.942,5.26-45.65,21.383-54.215c-16.589-19.554,3.361-57.667-4.274-67.768
	c12.926-1.396,33.254,5.017,34.208-9.033c-19.965,3.023-27.332-7.267-38.486-13.553c4.965-3.792,11.467-5.962,21.383-4.521
	c-1.411-62.207,10.878-82.018,34.206-117.459c-13.541-2.256-17.472-14.665-21.378-27.105
	c52.729-2.343,12.892-123.792,59.864-117.461c1.429,0,2.852,0,4.275,0c0.244,2.756,0.641,5.349,4.277,4.518
	c6.151,25.959-32.63,65.927-8.554,99.39c0,1.507,0,3.011,0,4.518c-9.911,21.15-1.472,61.693-4.274,90.355
	c4.67,24.508-8.629,30.04-8.555,49.695c-15.582,49.681,19.973,80.14,29.933,117.462c11.517,19.459,13.821,48.645,21.384,72.279
	c0.729,20.312,3.396,38.58,8.554,54.215c1.938,22.047,6.187,41.65,12.824,58.732c-0.065,22.659,3.305,41.688,8.554,58.729
	c-4.691,20.09,10.334,32.928,0,45.177c-60.545,6.4-97.075,6.469-153.939,9.037c0-1.507,0-3.014,0-4.521c1.424,0,2.853,0,4.274,0
	c7.109-13.712,7.109-58.568,0-72.285c0-4.516,0-9.032,0-13.553c-4.679-62.821,9.982-146.076-8.55-194.264
	c-14.911,71.973-20.478,204.306-4.278,284.621c-2.271,15.447-20.601,6.915-29.933,4.517c18.898-92.743,5.82-228.654,4.278-329.793
	c0-9.038,0-18.07,0-27.108c-6.63,11.067-6.38,29.405-8.554,45.177C306.87,420.044,307.213,426.427,302.231,427.188z"/>
<path fill="#E5D9CD" stroke="#A8A7A5" stroke-miterlimit="10" d="M421.959,160.64c9.67-14.233-8.781-41.577-4.274-31.624
	C419.679,146.804,408.723,152.478,421.959,160.64z"/>
<path fill="#E5D9CD" stroke="#A8A7A5" stroke-miterlimit="10" d="M413.41,336.833c-2.544-9.358,5.286-29.682-4.279-31.624
	C411.433,321.486,388.188,333.995,413.41,336.833z"/>
<path fill="#E5D9CD" stroke="#A8A7A5" stroke-miterlimit="10" d="M404.855,391.043c-6.33-0.839-3.92-10.918-4.273-18.07
	c-4.28,0-8.554,0-12.829,0c15.315,7.802-7.403,44.87,12.829,63.248C399.417,419.561,392.194,390.459,404.855,391.043z"/>
<path fill="#E5D9CD" stroke="#A8A7A5" stroke-miterlimit="10" d="M456.171,576.273c1.252-43.491-1.195-83.07-17.106-108.427
	C441.527,507.41,434.261,557.254,456.171,576.273z"/>
<path fill="#D2C7B1" stroke="#A8A7A5" stroke-miterlimit="10" d="M315.06,395.564c-11.611-3.234,3.059,21.303-8.554,18.068
	c2.174-15.771,1.924-34.109,8.554-45.177C315.06,377.494,315.06,386.526,315.06,395.564z"/>
<path fill="#E5D9CD" stroke="#A8A7A5" stroke-miterlimit="10" d="M195.327,70.285c10.452-4.018,18.54-10.528,34.207-9.035
	c15.5,31.751,17.604,58.153,4.279,90.355c8.053,17.091,27.969,21.65,29.933,45.177c-12.727-5.985-21.699-4.633-29.933,4.517
	c-3.322,26.099,16.155,28.109,25.658,40.661c0,22.589,0,45.175,0,67.766c8.193,13.927,39.413,3.533,51.311,13.554
	c-13.615,11.216-48.275,0.198-55.589,18.07c17.389,6.678,20.653,0.193,38.487,4.516c-11.085,11.696-0.765,39.69,0,63.252
	c0.979,30.21-2.145,109.104,8.554,22.586c3.738,93.649-6.964,228.104,4.274,293.654c-10.668,7.461-34.668-5.192-51.315,4.518
	c-1.423,0-2.852,0-4.275,0c-15.513-25.772-70.649-9.688-102.625-18.07c-21.984-31.191,12.698-75.525,8.55-117.462
	c13.619-81.915,42.125-168.083,68.418-239.44c4.324-11.726,8.164-28.553,0-45.177c-2.337-6.564,4.996-23.352-4.273-22.591
	c-3.247-25.181-1.468-55.673-8.555-76.798c-4.925-5.34-4.836-15.97-4.274-27.108c-1.208-19.882,7.793-89.5-12.829-103.908
	C195.327,76.309,195.327,73.297,195.327,70.285z M208.155,445.257c7.056-2.008,7.056-34.132,0-36.14
	c1.116,13.225-9.671,13.879-8.554,27.104c-1.363,10.61-6.753,16.958-4.275,31.627c-4.596,10.428-14.625,38.456-4.275,49.694
	c-2.486-25.214,12.776-31.677,12.829-54.215C205.225,457.221,209.965,454.698,208.155,445.257z"/>
<path fill="#ECE7E1" stroke="#A8A7A5" stroke-miterlimit="10" d="M186.773,720.842c-7.092-7.564-25.104-3.598-38.483-4.521
	c0-1.507,0-3.011,0-4.518c31.976,8.383,87.112-7.702,102.625,18.07C240.762,714.999,209.319,722.621,186.773,720.842z"/>
<path fill="#ECE7E1" stroke="#A8A7A5" stroke-miterlimit="10" d="M156.84,576.273c11.266-37.798,17.508-80.896,25.658-121.979
	c0-1.508,0-3.015,0-4.521c8.831-13.26,11.923-32.577,17.104-49.693c0-1.507,0-3.009,0-4.516
	c13.51-23.378,27.168-46.593,25.656-85.839c8.164,16.624,4.324,33.451,0,45.177c-26.293,71.357-54.799,157.525-68.418,239.44
	c0-4.516,0-9.037,0-13.554C156.84,579.282,156.84,577.78,156.84,576.273z"/>
<path fill="#ECE7E1" stroke="#A8A7A5" stroke-miterlimit="10" d="M417.685,129.016c-4.507-9.953,13.944,17.391,4.274,31.624
	C408.723,152.478,419.679,146.804,417.685,129.016z"/>
<ellipse fill="#A8A7A5" stroke="#FBE0FC" stroke-miterlimit="10" cx="317.482" cy="331.753" rx="17.917" ry="18.628"/>
</svg>
