<?xml version="1.0" encoding="utf-8"?>
<!-- Generator: Adobe Illustrator 15.0.0, SVG Export Plug-In . SVG Version: 6.00 Build 0)  -->
<!DOCTYPE svg PUBLIC "-//W3C//DTD SVG 1.1//EN" "http://www.w3.org/Graphics/SVG/1.1/DTD/svg11.dtd">
<svg version="1.1" id="Capa_1" xmlns="http://www.w3.org/2000/svg" xmlns:xlink="http://www.w3.org/1999/xlink" x="0px" y="0px"
	 width="612px" height="792px" viewBox="0 0 612 792" enable-background="new 0 0 612 792" xml:space="preserve">
<path fill="#D3AC9C" d="M331.438,217.051c2.701-28.851-0.729-41.948,0-75.911c36.007,14.079,68.322-5.97,84.347-25.304
	C412.126,171.468,383.583,223.888,331.438,217.051z"/>
<path fill="#928B80" d="M411.566,183.312c10.709,5.628,2.657,27.567-12.651,21.086C401.386,195.624,407.777,190.77,411.566,183.312z
	"/>
<path fill="#D3AC9C" d="M242.875,221.268c10.489-0.653,13.059,6.623,21.086,8.435c-5.914,6.737-14.53,10.774-25.303,12.651
	C235.177,230.433,244.6,231.426,242.875,221.268z"/>
<path fill="#362F30" d="M188.051,292.961c9.555,4.498,15.32,12.79,16.869,25.304C198.012,311.116,187.282,307.788,188.051,292.961z"
	/>
<path fill="#AFBCB0" d="M183.833,309.83c3.284,0.934,4.904,3.531,4.218,8.436c-2.646,12.816,5.397,36.324-4.218,42.172
	C183.833,343.569,183.833,326.7,183.833,309.83z"/>
<path fill="#928B80" d="M344.09,309.83c-8.813,13.251,3.833,23.531-4.217,33.739C320.368,347.676,321.202,300.825,344.09,309.83z"/>
<path fill="#928B80" d="M339.873,398.393c-3.756-3.276-9.522-4.535-16.869-4.216c-2.405-13.646,1.279-21.212,8.436-25.304
	C337.962,375,340.29,385.324,339.873,398.393z"/>
<path fill="#D3AC9C" d="M301.917,470.087c-3.585,6.255-10.614,9.066-21.085,8.436c-2.229-3.395-4.399-6.849-4.218-12.651
	C286.915,455.178,285.597,474.761,301.917,470.087z"/>
<path fill="#D3AC9C" d="M365.177,465.87c15.54-3.196,5.941,27.577-8.435,21.086C350.636,471.01,368.328,478.862,365.177,465.87z"/>
<path fill="#D3AC9C" d="M348.308,474.305c-1.449,9.796-2.729,19.764-16.868,16.869C329.483,477.973,335.106,472.35,348.308,474.305z
	"/>
<path fill="#AFBCB0" d="M474.826,474.305c0,15.463,0,30.927,0,46.391C467.841,514.786,467.841,480.213,474.826,474.305z"/>
<path fill="#362F30" d="M348.308,512.26c-14.014,20.017-30.592,16.193-50.606,12.652c1.779-23.113,30.652,3.52,21.087-33.738
	C328.056,488.691,319.374,529.052,348.308,512.26z"/>
<path fill="#D3AC9C" d="M217.572,491.174c4.217,0,8.434,0,12.652,0c3.223,9.949,8.313,29.147,0,37.955
	C211.367,528.767,211.389,504.857,217.572,491.174z"/>
<path fill="#362F30" d="M221.79,554.433c-0.714-9.143,14.958-1.911,21.086-4.218C243.178,569.474,230.471,558.666,221.79,554.433z"
	/>
<path fill="#362F30" d="M500.13,613.474c-14.618-10.272-0.006-27.132-16.87-37.955C495.791,565.311,512.144,599.131,500.13,613.474z
	"/>
<path fill="#D3AC9C" d="M209.138,634.561c-10.049-15.842,3.668-43.995,8.435-59.042
	C230.817,594.563,215.776,621.393,209.138,634.561z"/>
<path fill="#362F30" d="M449.521,588.171c11.511-3.07,8.489,8.38,16.868,8.436c2.987,15.639-7.204,18.099-4.217,33.737
	C449.698,624.539,456.155,599.807,449.521,588.171z"/>
<path fill="#D3AC9C" d="M285.048,596.605c12.905,6.09,6.699,28.428-12.652,25.304C275.175,606.429,272.127,605.748,285.048,596.605z
	"/>
<path fill="#362F30" d="M377.829,596.605c5.622,0,11.245,0,16.868,0c-2.449,13.688,2.872,19.619,4.218,29.521
	c-12.433-15.348-14.662,0.813-21.086,12.652C369.756,627.84,386.361,612.305,377.829,596.605z"/>
<path fill="#362F30" d="M356.742,718.906c-7.029,0-14.059,0-21.087,0c11.069-39.219,10.126-89.496,29.521-109.649
	c-5.645,18.803-6.014,60.052,8.436,54.824c10.257,2.646,2.229,21.307-8.436,16.869c4.376,17.886,13.18,24.849,25.303,25.304
	c3.021,11.449-19.889-3.014-16.867,8.437C366.264,714.37,360.498,715.628,356.742,718.906z"/>
<path fill="#928B80" d="M289.266,642.995c-7.024,8.38,0.384,5.365,0,16.869c-8.062-1.773-18.155-1.526-16.87-12.651
	C276.152,643.935,281.918,642.677,289.266,642.995z"/>
<path fill="#D3AC9C" d="M301.917,689.386c-0.834,6.271-27.587,16.923-25.303,0C282.006,683.62,296.525,683.62,301.917,689.386z"/>
<path fill="#AFBCB0" d="M474.826,702.037c-17.16,12.359-52.464,6.579-75.911,12.652c0.802-3.416,4.228-4.207,4.217-8.437
	c10.191-8.083,33.894-2.663,50.606-4.217C460.768,702.037,467.797,702.037,474.826,702.037z"/>
<path fill="#E9E6E6" d="M209.138,98.967c21.02-30.35,49.8,9.632,67.476,21.087c-20.669-3.229-31.212-16.583-46.39-25.304
	C218.308,91.263,219.296,100.691,209.138,98.967z"/>
<path fill="#E9E6E6" d="M166.965,562.867c-3.586-0.774-3.976,1.646-4.217,4.217c-7.535,6.529-2.801,25.315-12.652,29.521
	c-3.086-7.495,6.359-38.482,16.869-46.392c0,2.813,0,5.623,0,8.436C166.965,560.056,166.965,561.461,166.965,562.867z"/>
<path fill="#AFBCB0" d="M280.832,120.054c14.881,6.205,31.195,10.977,54.824,8.434c-1.064,17.199-22.338-6.446-25.304,12.652
	c1.285-14.613-10.833,1.235-21.085-8.435C302.28,128.482,280.118,125.753,280.832,120.054z"/>
<path fill="#928B80" d="M209.138,98.967c10.159,1.725,9.17-7.704,21.086-4.217c15.177,8.72,25.721,22.074,46.39,25.304
	c1.406,0,2.812,0,4.218,0c-0.714,5.699,21.449,8.429,8.435,12.652c-17.935-1.752-31.992-7.375-42.173-16.87
	c-21.537,40.954,24.387,84.428,59.042,96.997c13.112-6.112-0.67-46.922,4.218-71.693c2.966-19.099,24.238,4.547,25.304-12.652
	c56.647,8.424,84.044-54.38,126.519-21.086c1.329,47.384-24.825,133.52,12.652,172.908c-0.928,13.58,7.457,17.847,4.217,33.738
	c-5.7,8.566-7.66,42.667-4.217,46.39c-5.328,42.003-0.236,69.189,0,113.867c-6.985,5.908-6.985,40.481,0,46.391
	c-2.229,3.394-4.398,6.848-4.217,12.651c-6.454-11.822-10.791-25.761-25.306-29.521c23.063-14.156-26.779-44.55-4.217-59.042
	c5.634,5.315,8.28,12.674,16.869,4.217c-7.677-10.598-21.531-15.018-33.739-21.086c2.361-8.764,6.578-8.934,12.652-4.217
	c-2.163-18.918-13.169-29-21.086-42.173c24.875-15.892,28.515-53.018,42.173-80.128c8.813-1.785,11.169,2.889,16.869,4.217
	c-8.457-17.083-0.374-35.847-21.088-46.39c5.558,12.772,3.815,59.113-25.303,46.39c3.146-18.609-3.252-27.676-12.651-33.738
	c3.635-8.72,15.64,9.27,21.086,12.652c5.283-10.653,3.689-27.637,12.65-42.173c-1.043-4.58-8.385-2.861-8.434-8.435
	c-9.428,24.069-36.342,24.184-50.608,33.739c-13.261-3.607-17.487-16.249-21.085-29.521c4.315-4.118,8.532-8.336,12.651-12.652
	c-13.542-13.876-16.111,26.396-33.738,8.434c6.344,11.933,18.582,17.968,21.087,33.739c-2.652,19.099-24.825,11.806-8.436,29.521
	c-9.72,10.142-13.596,6.436-29.521,4.217c-7.748-5.958,6.611-20.482-4.217-29.521c-17.869,0.407,2.157,38.708-21.087,33.738
	c0.467,7.968,13.942,2.927,12.652,12.652c-2.144,10.51,0.137,25.441-12.652,25.303c5.876-22.355-15.233-50.338-25.303-71.694
	c2.47-17.209,9.247-30.114,25.303-33.738c-26.248-14.882-25.661,33.293-50.607,33.738c1.972-9-6.023-8.033-12.652-8.435
	c-7.797,0.638-2.592,14.283-8.435,16.869c3.855,11.466,7.842-11.235,21.086-4.217c-2.91,20.471-23.497,36.056-4.217,54.824
	c-9.874,6.798-34.337-0.006-37.956-12.651c-17.616,6.292,0.022,31.7,0,46.39c15.387-2.74,22.459,2.839,29.521,8.435
	c4.701,20.164-13.135,17.792-8.435,37.955c-3.755-3.278-9.521-4.535-16.869-4.217c5.25,10.209,10.438,20.488,12.652,33.738
	c-8.029-7.902-10.599-0.462-21.086,0c-0.209,12.854,3.833,21.47,12.652,25.304c-2.334,2.904-16.309,6.457-25.304,0
	c11.367,22.53-11.477,28.181,4.218,46.39c11.817-2.239,7.797-20.316,12.651-29.521c10.115-2.978,18.264,0.752,29.521-8.436
	c0,9.841,0,19.682,0,29.521c22.52,26.528,44.82-28.346,12.652-42.173c-13.025-5.476,12.114-5.558,8.435,4.218
	c9.862-13.619,15.266-26.435,8.435-37.956c-9.725,29.664-21.74-11.701-37.956,0c3.899-13.732,52.793-14.574,46.391,8.436
	c8.379-0.057,5.359-11.506,16.869-8.436c4.36,11.098,16.727,14.206,21.087,25.304c10.307-10.778,27.773-14.393,33.736-29.521
	c12.202,10.29,31.098,13.887,29.521,37.955c3.954-12.19,26.006-11.317,21.086,8.435c-12.98-2.954-8.105-2.954-21.086,0
	c-7.754,6.375-12.477,28.461-4.217,37.955c9.854-1.389,17.423-5.067,25.303-8.435c-3.382-14.628,6.282-16.21,4.218-29.521
	c7.501,3.745,10.718,11.773,25.305,8.436c-0.929,13.58,7.457,17.847,4.217,33.737c14.211-21.524,20,45.857,16.868,54.824
	c12.757-0.417,35.484-1.965,25.305-12.651c31.432,32.041,62.49,86.234,71.693,126.519c-10.158-1.724-9.17,7.705-21.086,4.219
	c21.909-6.94-20.229-20.846,4.218-29.521c-11.279-5.844-15.788-15.441-8.437-29.521c-14.551,4.18-25.425,13.771-33.737,0
	c-9.727-1.29-4.686,12.187-12.651,12.652c3.092,3.937,7.665,6.392,12.651,8.435c-1.147,8.692-18.676,1.005-16.868,12.651
	c-3.938-3.091-6.394-7.665-8.437-12.651c-5.722,1.308-3.497,10.56-4.217,16.868c-19.917-6.193-24.633-4.321-37.956-12.651
	c8.238-21.35-17.302-44.968,12.652-54.823c-16.742-5.749-11.037-33.947-21.086-46.392c7.501-7.874,10.719,3.428,25.304,0
	c-12.323-29.877-61.558-12.492-80.129-4.217c2.867,30.46,5.843,29.724,4.218,50.607c70.123-29.176,13.826,86.607,37.955,109.647
	c0.011,4.229-3.415,5.021-4.217,8.437c-8.437,0-16.869,0-25.304,0c-3.021-11.449,19.889,3.014,16.867-8.437
	c-12.124-0.455-20.927-7.418-25.303-25.304c10.664,4.438,18.691-14.223,8.436-16.869c-14.448,5.229-14.079-36.021-8.436-54.824
	c-19.396,20.153-18.451,70.432-29.521,109.649c7.028,0,14.058,0,21.087,0c-25.602,10.043-65.039-2.373-88.563-8.437
	c-16.836-8.466-48.472-2.135-67.477-8.434c-11.405-4.059-24.107-6.82-33.738-12.651c38.087-4.688,25.21-44.901,33.738-71.693
	c-0.758-6.787-20.043,6.87-16.87-12.652c9.78,1.347,16.188-0.675,21.086-4.217c4.113-19.417-19.472-27.6,0-37.955
	c-0.4-16.469-17.045-16.693-25.303-25.304c-3.207,12.685,4.151,6.628-8.435,21.086c-1.406,0-2.812,0-4.217,0
	c0-2.813,0-5.623,0-8.436c6.013-10.855,13.619-20.119,12.652-37.955c5.03-12.389,13.349-37.352,8.435-46.39
	c-4.294-18.353,8.72-19.39,12.652-29.521c11.746-12.026-1.697-34.646-12.652-37.957c4.777-10.686,18.692-12.233,33.738-12.65
	c-29.862-12.855-7.216-52.09-33.738-67.476c0.687-4.904-0.934-7.501-4.218-8.436c-5.688-35.215,8.419-50.623,12.652-75.911
	c9.572-4.486,1.604-26.511,4.218-37.955c8.105,14.387,4.48,40.503,33.738,33.738c-0.824-18.857-13.871-25.49-25.303-33.738
	c28.51-26.281,14.991-61.568,21.086-96.998c-9.599,3.053-21.548,3.762-29.521,8.435c18.791,15.173-8.808,10.653-4.218,33.739
	c16.04,6.199,0.829-18.852,16.869-12.652c-3.492,20.406-4.865,42.931-12.651,59.042c-11.74,1.9,3.306-22.986-8.435-21.086
	C188.128,139.954,172.896,99.165,209.138,98.967z M432.653,98.967c-17.584,34.436-21.713,82.314-46.392,109.649
	c15.985,19.477,34.419-3.3,42.174-16.869c3.262-10.774-16.502-19.39-4.219-25.304c4.681,7.973,10.521,14.782,12.652,25.304
	c-4.941,9.324-27.61,22.711-12.652,37.955c1.101-6.562,9.248-2.927,12.652,0c8.929-20.181,24.667-70.42,8.435-88.563
	c5.843-8.215,15.156-12.959,16.869-25.304C445.689,119.773,449.753,103.476,432.653,98.967z M415.784,115.836
	c-16.023,19.334-48.34,39.383-84.347,25.304c-0.729,33.963,2.701,47.06,0,75.911C383.583,223.888,412.126,171.468,415.784,115.836z
	 M483.26,575.519c16.864,10.823,2.252,27.683,16.87,37.955C512.144,599.131,495.791,565.311,483.26,575.519z M377.829,638.778
	c6.424-11.841,8.653-28,21.086-12.652c-1.346-9.9-6.667-15.831-4.218-29.521c-5.623,0-11.246,0-16.868,0
	C386.361,612.305,369.756,627.84,377.829,638.778z M335.655,550.215c-6.238-2.195-10.631-6.238-16.868-8.434
	c-22.372,32.914-1.406,84.942-50.607,92.778c-2.526-22.2,3.129-36.23,4.217-54.823c-24.722,14.639-6.062,72.653-42.172,75.91
	c1.603-14.256-7.309-17.994-12.652-25.304c-9.396,3.151,13.942,38.725-12.652,33.737c1.236,18.665,32.893,21.829,12.652,37.956
	c14.2-2.67,39.174,5.436,46.39-4.218c-15.606-3.302-5.513-30.438,4.218-33.738c28.873-2.168,43.177,10.242,42.172,37.956
	c-7.513,2.334-17.518,2.168-21.085,8.434c15.232,2.521,28.136,6.979,37.956-4.217c-12.575-8.803,5.602-22.179,0-37.956
	c-7.26-1.662-10.813,6.262-12.651,0c9.681-24.171,23.106-39.256,8.435-67.476c19.923,1.999,7.854-5.261,4.218-12.651
	c5.408-7.243,25.217-0.088,25.304-12.652c-4.206-9.5-22.997,9.115-29.521-4.217C318.534,555.591,331.883,557.688,335.655,550.215z
	 M196.485,246.572c0,4.217,0,8.434,0,12.652c6.628,0.4,14.624-0.566,12.652,8.435c-14.843-6.008-26.995,11.828-16.869,16.869
	c10.725-23.607,33.419,6.497,42.172-25.303C214.678,262.721,215.128,231.01,196.485,246.572z M234.441,166.443
	c0.692,13.344-11.208,14.097-8.435,29.521c10.412,29.373,46.022,5.381,59.042,12.652c-14.612,0.346-25.117-25.205-33.738-16.869
	c5.523,0.065,5.37,11.695,0,12.651C221.152,211.57,242.854,170.82,234.441,166.443z M335.655,233.919
	c-21.011-16.945,4.844-80.754-16.868-96.997c-1.318,31.652-3.396,80.71,0,101.215C326.232,232.097,343.717,241.58,335.655,233.919z
	 M238.659,242.354c10.773-1.877,19.389-5.914,25.303-12.651c-8.028-1.812-10.598-9.088-21.086-8.435
	C244.6,231.426,235.177,230.433,238.659,242.354z M204.92,318.266c-1.548-12.515-7.313-20.807-16.869-25.304
	C187.282,307.788,198.012,311.116,204.92,318.266z M276.614,465.87c-0.181,5.804,1.988,9.258,4.218,12.651
	c10.472,0.632,17.5-2.181,21.085-8.436C285.597,474.761,286.915,455.178,276.614,465.87z M356.742,486.956
	c14.376,6.491,23.975-24.282,8.435-21.086C368.328,478.862,350.636,471.01,356.742,486.956z M331.438,491.174
	c14.141,2.895,15.42-7.073,16.869-16.869C335.106,472.35,329.483,477.973,331.438,491.174z M230.224,529.129
	c8.313-8.808,3.223-28.006,0-37.955c-4.218,0-8.435,0-12.652,0C211.389,504.857,211.367,528.767,230.224,529.129z M318.787,491.174
	c9.564,37.258-19.308,10.625-21.087,33.738c20.016,3.541,36.594,7.363,50.606-12.652
	C319.374,529.052,328.056,488.691,318.787,491.174z M242.875,550.215c-6.128,2.308-21.8-4.925-21.086,4.218
	C230.471,558.666,243.178,569.474,242.875,550.215z M217.572,575.519c-4.767,15.047-18.484,43.2-8.435,59.042
	C215.776,621.393,230.817,594.563,217.572,575.519z M462.174,630.344c-2.986-15.64,7.204-18.1,4.217-33.737
	c-8.379-0.056-5.357-11.506-16.868-8.436C456.155,599.807,449.698,624.539,462.174,630.344z M272.396,621.909
	c19.351,3.124,25.557-19.214,12.652-25.304C272.127,605.748,275.175,606.429,272.396,621.909z M276.614,689.386
	c-2.284,16.923,24.469,6.271,25.303,0C296.525,683.62,282.006,683.62,276.614,689.386z"/>
<path fill="#362F30" d="M476.409,555.634c10.181,10.686-12.548,12.233-25.305,12.649c3.132-8.967-2.657-76.35-16.868-54.823
	c3.24-15.892-5.145-20.158-4.217-33.738c-14.586,3.34-17.803-4.689-25.305-8.435c2.064,13.312-7.6,14.894-4.218,29.521
	c-7.88,3.367-15.446,7.047-25.303,8.436c-8.26-9.494-3.537-31.58,4.217-37.955c12.98-2.955,8.104-2.955,21.086,0
	c4.92-19.752-17.132-20.625-21.086-8.436c1.575-24.068-17.318-27.664-29.521-37.955c-5.963,15.129-23.432,18.742-33.737,29.521
	c-4.36-11.099-16.727-14.207-21.087-25.306c-11.509-3.069-8.49,8.379-16.869,8.437c6.403-23.011-42.491-22.168-46.391-8.437
	c16.216-11.701,28.23,29.664,37.956,0c6.831,11.521,1.428,24.338-8.435,37.957c3.68-9.774-21.459-9.692-8.435-4.219
	c32.168,13.828,9.868,68.701-12.652,42.174c0-9.84,0-19.682,0-29.521c-11.257,9.188-19.406,5.459-29.521,8.436
	c-4.854,9.203-0.834,27.279-12.651,29.521c-15.694-18.209,7.149-23.859-4.218-46.39c8.996,6.457,22.97,2.904,25.304,0
	c-8.819-3.834-12.861-12.449-12.652-25.305c10.488-0.461,13.058-7.902,21.086,0c-2.213-13.25-7.402-23.529-12.652-33.738
	c7.347-0.317,13.113,0.939,16.869,4.217c-4.7-20.163,13.135-17.791,8.435-37.955c-7.062-5.596-14.134-11.175-29.521-8.435
	c0.022-14.689-17.616-40.097,0-46.39c3.619,12.646,28.083,19.45,37.956,12.651c-19.28-18.769,1.307-34.354,4.217-54.824
	c-13.245-7.019-17.231,15.683-21.086,4.217c5.843-2.586,0.637-16.231,8.435-16.869c6.628,0.401,14.624-0.565,12.652,8.435
	c24.947-0.444,24.359-48.62,50.607-33.738c-16.057,3.624-22.833,16.529-25.304,33.738c10.07,21.355,31.18,49.339,25.304,71.694
	c12.788,0.138,10.509-14.793,12.651-25.303c1.29-9.726-12.187-4.685-12.651-12.652c23.243,4.969,3.218-33.332,21.086-33.738
	c10.828,9.039-3.53,23.563,4.218,29.521c15.925,2.219,19.801,5.925,29.521-4.217c-16.391-17.715,5.782-10.422,8.437-29.521
	c-2.506-15.771-14.744-21.806-21.087-33.739c17.627,17.962,20.195-22.31,33.737-8.434c-4.119,4.316-8.336,8.534-12.65,12.652
	c3.597,13.272,7.823,25.914,21.085,29.521c14.267-9.555,41.181-9.67,50.607-33.739c0.049,5.574,7.392,3.855,8.435,8.435
	c-8.961,14.536-7.368,31.52-12.651,42.173c-5.446-3.382-17.451-21.372-21.086-12.652c9.4,6.063,15.797,15.129,12.652,33.738
	c29.117,12.724,30.858-33.617,25.302-46.39c20.714,10.543,12.631,29.307,21.088,46.39c-5.7-1.329-8.056-6.002-16.869-4.217
	c-13.658,27.11-17.298,64.237-42.173,80.128c7.917,13.173,18.923,23.254,21.086,42.172c-6.074-4.717-10.291-4.547-12.652,4.217
	c12.208,6.068,26.063,10.488,33.739,21.086c-8.589,8.457-11.234,1.101-16.869-4.217c-22.563,14.492,27.279,44.887,4.217,59.043
	c14.515,3.76,18.852,17.697,25.306,29.521c5.842,2.586,0.637,16.229,8.434,16.866C476.409,552.821,476.409,554.228,476.409,555.634z
	 M400.498,281.51c6.471-1.011,0.621-6.946-4.217-8.435c-4.777,18.676,24.655,22.866,8.436,50.607c12.98,2.955,8.104,2.955,21.087,0
	C426.69,300.307,413.655,290.845,400.498,281.51z M337.239,344.77c8.05-10.208-4.597-20.487,4.217-33.739
	C318.568,302.025,317.734,348.877,337.239,344.77z M328.805,370.072c-7.155,4.092-10.84,11.658-8.436,25.304
	c7.348-0.317,13.113,0.938,16.869,4.218C337.656,386.525,335.328,376.201,328.805,370.072z"/>
<path fill="#AFBCB0" d="M183.833,449c5.722-1.307,3.498-10.559,4.218-16.868c3.393,2.229,6.848,4.397,12.652,4.218
	c-3.932,10.132-16.946,11.169-12.652,29.521C182.33,464.563,184.553,455.31,183.833,449z"/>
<path fill="#D3AC9C" d="M188.051,318.266c26.522,15.386,3.876,54.621,33.738,67.476c-15.046,0.417-28.961,1.965-33.738,12.65
	c10.955,3.313,24.397,25.931,12.652,37.957c-5.804,0.181-9.259-1.987-12.652-4.218c-0.72,6.311,1.504,15.563-4.218,16.868
	c6.853-31.305-1.845-52.254,0-88.563C193.449,354.589,185.405,331.082,188.051,318.266z"/>
<path fill="#362F30" d="M251.311,204.398c5.37-0.956,5.523-12.585,0-12.651c8.621-8.336,19.126,17.214,33.738,16.869
	c-13.02-7.271-48.63,16.721-59.042-12.652c-2.773-15.424,9.126-16.177,8.435-29.521C242.854,170.82,221.152,211.57,251.311,204.398z
	"/>
<path fill="#362F30" d="M318.787,238.137c-3.396-20.504-1.318-69.563,0-101.215c21.712,16.243-4.143,80.052,16.868,96.997
	C343.717,241.58,326.232,232.097,318.787,238.137z"/>
<path fill="#928B80" d="M428.438,322.482c-12.982,2.955-8.105,2.955-21.088,0c16.222-27.742-13.212-31.931-8.435-50.607
	c4.838,1.488,10.687,7.424,4.217,8.435C416.289,289.645,429.324,299.106,428.438,322.482z"/>
<path fill="#362F30" d="M234.441,259.224c-8.753,31.8-31.448,1.696-42.172,25.303c-10.126-5.041,2.026-22.876,16.869-16.869
	c1.972-9.001-6.024-8.034-12.652-8.435c0-4.218,0-8.435,0-12.652C215.128,231.01,214.678,262.721,234.441,259.224z"/>
<path fill="#AFBCB0" d="M479.043,314.048c0.417,17.292,0.829,34.567-4.217,46.39C471.383,356.715,473.343,322.614,479.043,314.048z"
	/>
<path fill="#AFBCB0" d="M129.009,634.561c12.432-4.437,14.662-19.076,21.086-29.521c3.586-0.773,3.976,1.647,4.217,4.218
	c-1.493,5.541-7.424,6.634-8.435,12.652c-4.98,6.265-3.646,18.841-16.869,16.869C129.009,637.372,129.009,635.967,129.009,634.561z"
	/>
<path fill="#D3AC9C" d="M145.878,621.909c1.011-6.02,6.942-7.111,8.435-12.652c4.904,0.688,7.501-0.934,8.436-4.218
	c12.909,10.066,15.413,29.22-4.218,33.739c-3.789-12.346-3.789-12.96,0-25.306C152.995,614.962,151.897,620.898,145.878,621.909z"/>
<path fill="#AFBCB0" d="M150.096,596.605c9.852-4.206,5.118-22.992,12.652-29.521c-3.482,11.922,5.941,10.928,4.217,21.087
	C160.727,590.367,156.333,594.409,150.096,596.605z"/>
<path fill="#D3AC9C" d="M289.266,132.706c10.252,9.67,22.372-6.178,21.085,8.435c-4.888,24.771,8.896,65.581-4.218,71.693
	c-34.655-12.569-80.579-56.043-59.042-96.997C257.274,125.331,271.331,130.954,289.266,132.706z"/>
<path fill="#AFBCB0" d="M200.703,195.964c-2.614,11.444,5.354,33.469-4.218,37.955c3.142-27.039-4.92-42.875-4.217-67.476
	c11.74-1.899-3.306,22.987,8.435,21.086C200.703,190.341,200.703,193.153,200.703,195.964z"/>
<path fill="#E9E6E6" d="M474.826,280.31c21.103,85.449-5.021,169.542,4.217,269.905c-7.797-0.637-2.592-14.282-8.434-16.868
	c-0.183-5.805,1.986-9.259,4.217-12.651c0-15.464,0-30.928,0-46.391c-0.236-44.678-5.328-71.863,0-113.867
	c5.046-11.822,4.634-29.098,4.217-46.39C482.283,298.157,473.898,293.89,474.826,280.31z"/>
<path fill="#E9E6E6" d="M183.833,449c0.72,6.31-1.504,15.563,4.218,16.87c4.914,9.038-3.404,34.001-8.435,46.39
	c2.8-66.082-5.612-143.376,4.217-202.43c0,16.87,0,33.739,0,50.607C181.989,396.746,190.687,417.695,183.833,449z"/>
<path fill="#362F30" d="M166.965,558.649c1.406,0,2.812,0,4.217,0c12.585-14.458,5.228-8.401,8.435-21.087
	c8.258,8.61,24.903,8.836,25.303,25.305c-19.472,10.355,4.113,18.538,0,37.955c-4.898,3.542-11.306,5.563-21.086,4.217
	c-3.173,19.521,16.112,5.865,16.87,12.652c-8.528,26.792,4.349,67.005-33.738,71.693c-5.7-1.33-8.055-6.002-16.869-4.217
	c-8.775-8.875-8.401-14.037-12.652-33.739c11.34,2.905,8.149-8.721,12.652-12.65c5.618,4.222,12.729,6.95,16.869,12.65
	c18.912-10.186,10.625-37.631,4.217-54.823c7.028,0,14.058,0,21.086,0c2.564-18.028-15.321-15.606-25.304-21.088
	c0-4.217,0-8.435,0-12.65C166.965,561.461,166.965,560.056,166.965,558.649z"/>
<path fill="#928B80" d="M129.009,638.778c13.223,1.972,11.889-10.604,16.869-16.869c6.019-1.011,7.117-6.947,12.652-8.437
	c-3.789,12.346-3.789,12.96,0,25.306c19.631-4.521,17.127-23.673,4.218-33.739c-0.934,3.284-3.531,4.904-8.436,4.218
	c-0.241-2.568-0.631-4.991-4.217-4.218c0-2.813,0-5.622,0-8.434c6.238-2.196,10.631-6.238,16.869-8.436
	c1.724-10.159-7.699-9.165-4.217-21.087c0.241-2.569,0.631-4.991,4.217-4.217c0,4.217,0,8.435,0,12.65
	c9.983,5.48,27.868,3.06,25.304,21.087c-7.029,0-14.058,0-21.086,0c6.408,17.193,14.695,44.64-4.217,54.824
	c-4.141-5.7-11.251-8.43-16.869-12.65c-4.503,3.931-1.312,15.557-12.652,12.65c4.25,19.702,3.876,24.864,12.652,33.739
	c-7.029,0-14.057,0-21.086,0C129.009,669.704,129.009,654.241,129.009,638.778z"/>
<path fill="#362F30" d="M323.004,571.302c6.523,13.332,25.314-5.283,29.521,4.217c-0.088,12.564-19.896,5.409-25.304,12.652
	c3.636,7.391,15.705,14.65-4.218,12.651c14.673,28.22,1.246,43.305-8.435,67.476c1.839,6.262,5.393-1.662,12.651,0
	c5.602,15.777-12.576,29.153,0,37.956c-9.818,11.196-22.724,6.738-37.956,4.217c3.569-6.266,13.574-6.1,21.085-8.434
	c1.005-27.714-13.3-40.124-42.172-37.956c-9.73,3.301-19.824,30.438-4.218,33.738c-7.215,9.652-32.189,1.548-46.39,4.218
	c20.241-16.127-11.417-19.291-12.652-37.956c26.595,4.986,3.256-30.586,12.652-33.737c5.343,7.31,14.255,11.048,12.652,25.303
	c36.11-3.256,17.451-61.271,42.172-75.909c-1.087,18.593-6.743,32.623-4.217,54.823c49.201-7.836,28.236-59.864,50.607-92.778
	c6.237,2.194,10.63,6.236,16.868,8.434C331.883,557.688,318.534,555.591,323.004,571.302z M272.396,647.213
	c-1.285,11.125,8.808,10.878,16.87,12.651c0.384-11.504-7.024-8.489,0-16.869C281.918,642.677,276.152,643.935,272.396,647.213z"/>
<path fill="#362F30" d="M495.911,693.604c-15.672-8.703-11.025,6.047-29.521,4.217c0.804-3.415,4.229-4.206,4.22-8.435
	c-10.565-0.726-10.237,9.443-16.871,12.651c-16.714,1.554-40.415-3.866-50.606,4.217c-24.129-23.04,32.168-138.823-37.955-109.648
	c1.625-20.884-1.351-20.146-4.218-50.606c18.571-8.275,67.806-25.66,80.129,4.217c-14.585,3.427-17.803-7.874-25.304,0
	c10.049,12.443,4.344,40.642,21.086,46.392c-29.954,9.855-4.414,33.475-12.652,54.823c13.323,8.33,18.039,6.458,37.956,12.651
	c0.72-6.311-1.505-15.563,4.217-16.868c2.043,4.986,4.498,9.562,8.437,12.651c-1.808-11.646,15.721-3.959,16.868-12.651
	c-4.986-2.043-9.561-4.498-12.651-8.435c7.967-0.468,2.926-13.942,12.651-12.652c8.313,13.771,19.188,4.18,33.737,0
	c-7.353,14.079-2.844,23.678,8.437,29.521c-24.447,8.677,17.691,22.58-4.218,29.521C516.63,686.206,505.808,689.445,495.911,693.604
	z"/>
<path fill="#928B80" d="M495.911,693.604c-3.585,6.255-10.613,9.064-21.085,8.435c-7.029,0-14.06,0-21.088,0
	c6.634-3.208,6.306-13.377,16.871-12.651c0.011,4.229-3.416,5.02-4.22,8.435C484.886,699.649,480.239,684.899,495.911,693.604z"/>
<path fill="#E9E6E6" d="M200.703,702.037c19.005,6.299,50.64-0.032,67.477,8.434C245.506,707.842,210.719,717.325,200.703,702.037z"
	/>
<path fill="#362F30" d="M462.174,115.836c-1.713,12.345-11.026,17.089-16.869,25.304c16.232,18.143,0.494,68.382-8.435,88.563
	c-3.404-2.927-11.553-6.562-12.652,0c-14.958-15.244,7.711-28.631,12.652-37.955c-2.131-10.522-7.973-17.331-12.652-25.304
	c-12.283,5.914,7.479,14.53,4.22,25.304c-7.756,13.568-26.188,36.346-42.175,16.869c24.679-27.335,28.808-75.214,46.392-109.649
	C449.753,103.476,445.689,119.773,462.174,115.836z M398.915,204.398c15.31,6.48,23.36-15.458,12.651-21.086
	C407.777,190.77,401.386,195.624,398.915,204.398z"/>
<path fill="#362F30" d="M200.703,187.53c7.786-16.111,9.16-38.636,12.651-59.042c-16.04-6.199-0.829,18.852-16.869,12.652
	c-4.59-23.085,23.009-18.566,4.218-33.739c7.973-4.673,19.922-5.381,29.521-8.435c-6.095,35.43,7.424,70.717-21.086,96.998
	c11.433,8.248,24.479,14.881,25.303,33.738c-29.257,6.765-25.632-19.351-33.738-33.738
	C200.703,193.153,200.703,190.341,200.703,187.53z"/>
</svg>
