<?xml version="1.0" encoding="utf-8"?>
<!-- Generator: Adobe Illustrator 15.0.0, SVG Export Plug-In . SVG Version: 6.00 Build 0)  -->
<!DOCTYPE svg PUBLIC "-//W3C//DTD SVG 1.1//EN" "http://www.w3.org/Graphics/SVG/1.1/DTD/svg11.dtd">
<svg version="1.1" id="Capa_1" xmlns="http://www.w3.org/2000/svg" xmlns:xlink="http://www.w3.org/1999/xlink" x="0px" y="0px"
	 width="612px" height="792px" viewBox="0 0 612 792" enable-background="new 0 0 612 792" xml:space="preserve">
<polygon fill="#E9E6E6" points="467.5,690.451 132.5,690.451 159.695,503.088 433.313,503.019 "/>
<path fill="#D44C7B" d="M534.089,216.526c-2.741-4.009-5.648-7.911-8.538-11.815c-11.375-15.367-18.439-33.165-25.911-50.659
	c-1.396-1.405-2.75-2.852-4.085-4.318c-2.981-2.033-5.54-4.766-7.524-7.99c-0.805-0.787-1.612-1.571-2.428-2.347
	c-2.379-2.267-4.791-4.508-7.333-6.593c-0.161-0.134-0.326-0.262-0.488-0.395c-0.067-0.05-0.133-0.098-0.208-0.153
	c-1.113-0.781-2.226-1.566-3.38-2.286c-1.622-1.012-3.239-2.003-4.979-2.805c-0.238-0.11-0.436-0.202-0.613-0.286
	c-3.111-1.174-6.254-2.261-9.435-3.232c-10.625-3.244-21.346-6.118-31.622-10.203c-3.813,1.5-8.417,3.251-15.138,4.837
	c-8.883,8.345-5.056,29.404-5.743,45.946c-23.663,19.63-22.427,27.356-45.946,28.717c-2.88-23.945,16.788-25.337,11.486-51.691
	c-11.292-1.719-11.389,7.756-17.23,11.487c0.246,7.904,0.647,11.639-2.391,16.26l-3.354,29.688
	c-27.22,18.232-83.855,10.745-103.38-11.487l-10.348-21.36c0.943-18.172-4.915-15.067-1.139-36.075
	c-24.492-21.612-0.479,42.044-17.23,45.948c-27.37-7.09-27.273-41.641-34.46-68.921c-22.854-3.71-23.093,15.195-45.947,11.487
	c-5.138,6.233-12.908,9.831-20.402,13.703c-0.475,0.556-0.956,1.105-1.417,1.672c-0.412,0.55-0.831,1.117-1.082,1.474
	c-0.915,1.304-1.823,2.613-2.692,3.949c-1.555,2.391-3.067,4.811-4.491,7.282c-2.954,5.125-5.697,10.37-8.221,15.72
	c-0.592,1.253-1.175,2.511-1.752,3.771c-1.419,7.049-3.354,13.584-7.406,18c-0.527,1.379-1.062,2.755-1.577,4.138
	c-0.761,2.042-1.508,4.089-2.254,6.137c-0.114,5.733-1.554,10.144-4.632,12.915c-1.317,3.714-2.632,7.429-3.955,11.14
	c-3.764,10.559-7.734,20.997-12.103,31.321c-0.626,1.481-1.279,2.949-1.935,4.417c4.799,2.722,9.698,5.27,14.689,7.621
	c2.042,0.962,4.099,1.895,6.164,2.808c1.457,0.592,4.896,2.014,6.06,2.457c0.221,0.084,0.443,0.163,0.664,0.247
	c4.538-0.986,9.085-1.912,13.692-2.544c16.716-2.294,34.26-1.779,48.386,8.797c2.262,1.693,4.293,3.647,6.006,5.791h1.229v1.646
	c0.736,1.064,1.389,2.168,1.96,3.304c3.061,2.04,5.913,4.487,8.476,7.417c8.002,9.147,12.661,19.968,15.116,31.438
	c16.166,38.558,7.791,83.858-5.045,122.418c-0.116,0.348-0.241,0.693-0.358,1.041c-1.499,5.58-3.093,9.894-2.918,10.781
	c-3.014,18.045-10.073,32.038-17.23,45.947c36.95,1.339,67.35,9.23,109.124,5.745h22.975c35.814-17.358,115.195,8.853,137.3-22.212
	c-1.322-4.107-2.531-8.235-3.623-12.392c-10.651-3.227-35.04,7.281-36.039-5.602c12.847-8.068,20.327-21.503,29.065-33.681
	c-2.265-22.938-2.406-46.676,0.037-69.604c2.995-28.108,9.249-55.779,27.931-77.866c0.815-0.964,1.731-1.813,2.716-2.566
	c4.3-4.467,10.318-7.279,16.901-7.315c1.982-0.011,3.964-0.045,5.944-0.084c17.615-9.846,42.892-12.029,60.991-21.39
	c0.698-4.156,3.121-6.589,5.604-8.961c0.5-1.18,1.002-2.36,1.507-3.538c0.317-0.782,0.623-1.568,0.917-2.358
	c0.727-2.011,1.441-4.046,1.905-6.138c0.038-0.17,0.072-0.358,0.104-0.554c0.006-0.187,0.008-0.374,0.013-0.561
	C540.824,227.434,537.628,221.809,534.089,216.526z"/>
<path fill="#E3CEBD" d="M268.821,514.575c0-1.914,0-3.829,0-5.742c7.659,0,15.316,0,22.975,0c15.315,0,30.633,0,45.948,0
	c0,1.913,0,3.828,0,5.742c-3.83,0-7.659,0-11.487,0C307.111,514.575,287.967,514.575,268.821,514.575z"/>
<path fill="#E9E6E6" d="M199.901,514.575c22.974,0,45.948,0,68.92,0c19.146,0,38.291,0,57.436,0
	C297.427,524.132,228.73,524.132,199.901,514.575z"/>
<path fill="#E3CEBD" d="M326.257,537.549c11.71-13.177,47.696-2.078,68.92-5.743C383.465,544.982,347.48,533.885,326.257,537.549z"
	/>
<path fill="#D44C7B" d="M280.309,543.293c56.956,7.119,118.452-11.652,160.816,0c-11.292,41.633-78.225,21.044-120.612,22.973
	c-60.725,2.761-132.278,17.066-166.559-11.485c-3.507-22.651,31.537-6.761,45.947-11.486
	C234.332,548.161,242.431,543.666,280.309,543.293z"/>
<path fill="#E3CEBD" d="M309.025,577.753c9.827-13.146,43.839-2.108,63.179-5.743C362.378,585.156,328.365,574.118,309.025,577.753z
	"/>
<path fill="#D44C7B" d="M446.869,606.471c4.657,22.958-23.991,21.066-34.462,22.976c-71.681,13.041-195.403-5.379-264.197-5.745
	c2.782-30.78,47.091-16.512,68.921-17.229C288.386,604.137,384.35,597.392,446.869,606.471z"/>
<path fill="#E3CEBD" d="M153.954,635.188c57.435,0,114.868,0,172.303,0C282.156,644.752,198.054,644.752,153.954,635.188z"/>
<path fill="#D44C7B" d="M194.157,686.878c-2.804-18.263-51.772,9.655-45.947-17.229c105.581,4.111,196.787-6.147,298.659-5.744
	c-34.364,42.216-153.742-0.584-206.764,22.974C224.789,686.878,209.473,686.878,194.157,686.878z"/>
<path fill="#E3CEBD" d="M274.565,692.621c-38.349-3.771-91.819,7.583-120.611-5.743c13.401,0,26.803,0,40.204,0
	c15.316,0,30.632,0,45.948,0c11.486,0,22.974,0,34.46,0C274.565,688.793,274.565,690.706,274.565,692.621z"/>
<path fill="#E9E6E6" d="M274.565,692.621c0-1.915,0-3.828,0-5.743c22.975,0,45.948,0,68.922,0
	C331.775,700.055,295.789,688.958,274.565,692.621z"/>
<path fill="#E9E6E6" d="M366.46,686.878c22.974,0,45.947,0,68.922,0C425.472,696.406,376.37,696.406,366.46,686.878z"/>
<path fill="#E9E6E6" d="M85.432,194.12c-1.565,4.3-3.105,8.61-4.635,12.923C83.878,204.271,85.318,199.857,85.432,194.12z"/>
<path fill="#D44C7B" d="M419.947,446.821c-2.869,5-4.153,11.585-7.54,16.063c3.874-0.474,7.333-0.533,10.337-0.14
	C421.639,457.5,420.719,452.192,419.947,446.821z"/>
<path fill="#E9E6E6" d="M533.019,256.121c0.655,0.176,1.28,0.321,1.888,0.451c0.379-1.197,0.799-2.393,1.288-3.594
	c0.793-1.946,1.607-3.883,2.428-5.817C536.139,249.532,533.717,251.965,533.019,256.121z"/>
<path fill="#E9E6E6" d="M352.582,93.248c3.687-1.094,7.457-2.343,11.326-3.758C359.252,89.862,355.234,90.873,352.582,93.248z"/>
<path fill="#D3AC9C" d="M496.68,150.461c-0.381-0.229-0.753-0.474-1.121-0.725c1.333,1.464,2.685,2.909,4.079,4.312
	c-0.139-0.324-0.278-0.647-0.417-0.97C498.374,152.206,497.528,151.333,496.68,150.461z"/>
<path fill="#D3AC9C" d="M543.077,233.6c-0.002-0.061-0.004-0.124-0.008-0.187c-0.094-0.387-0.169-0.779-0.276-1.163
	c-0.256-0.858-0.528-1.71-0.82-2.557c-2.258-4.531-4.916-8.818-7.759-12.987c3.489,5.228,6.637,10.798,8.854,17.298
	C543.071,233.87,543.077,233.735,543.077,233.6z"/>
<path fill="#D44C7B" d="M425.47,474.229c-0.44-1.678-0.875-3.357-1.278-5.044c-9.545-0.312-21.715,2.002-23.269-6.3
	c10.674-2.827,12.339-14.663,18.201-22.302c-0.199-1.662-0.398-3.324-0.567-5.001c-0.021-0.21-0.039-0.422-0.06-0.632
	c-8.737,12.177-16.218,25.609-29.063,33.678C390.433,481.509,414.818,471.004,425.47,474.229z"/>
<path fill="#D3AC9C" d="M429.649,488.388c-0.194-0.587-0.366-1.177-0.556-1.765c-22.106,31.062-101.485,4.853-137.298,22.21
	c15.315,0,30.633,0,45.949-0.001c18.571,0.795,71.204,6.59,95.568-5.813C431.733,498.263,430.544,493.352,429.649,488.388z"/>
<path fill="#D3AC9C" d="M159.698,503.088c7.157-13.909,14.216-27.902,17.23-45.947c-0.343,0.105-0.665,0.232-0.991,0.355
	c-6.332,17.432-13.586,34.527-21.055,51.499c4.94,8.181,21.237-1.662,22.045,5.58h91.894v-5.742
	C227.048,512.318,196.648,504.427,159.698,503.088z"/>
<path fill="#D3AC9C" d="M125.264,122.888c-0.041,0.036-0.084,0.068-0.125,0.104c-3.158,2.776-6.089,5.797-8.818,8.994
	c7.494-3.873,15.265-7.47,20.403-13.705c-1.838,0.145-3.591,0.375-5.288,0.662c-1.459,0.787-2.89,1.627-4.266,2.554
	C126.67,121.833,125.885,122.419,125.264,122.888z"/>
<path fill="#D3AC9C" d="M93.92,172.049c-0.183,0.442-0.365,0.882-0.488,1.184c-1.433,3.525-2.815,7.069-4.174,10.624
	c4.058-4.418,5.993-10.959,7.413-18.016c-0.689,1.504-1.368,3.012-2.028,4.528C94.401,170.929,94.163,171.49,93.92,172.049z"/>
<path fill="#D44C7B" d="M422.744,462.746c-3.004-0.395-6.463-0.335-10.336,0.139c3.386-4.479,4.67-11.063,7.539-16.063
	c-0.298-2.069-0.574-4.148-0.824-6.239c-5.862,7.639-7.526,19.476-18.201,22.303c1.555,8.302,13.725,5.987,23.27,6.3
	C423.679,467.047,423.198,464.9,422.744,462.746z"/>
<path fill="#D3AC9C" d="M322.264,534.488c20.749-3.943,55.926,8,67.375-6.181c26.736,2.325,41.986-14.712,56.147,6.181
	c0,10.301,0,20.604,0,30.902c-16.786,12.427-52.974,3.495-78.604,6.182c-18.906,3.912-52.155-7.966-61.762,6.181
	c-35.559,0-71.118,0-106.678,0c-6.257-15.774-43.425,2.479-50.531-12.362c0-8.238,0-16.481,0-24.722
	c3.539-30.373,30.287,3.228,50.531-6.181c0,2.062,0,4.12,0,6.181c-14.087,5.086-48.345-12.015-44.917,12.361
	c33.512,30.727,103.461,15.331,162.823,12.359c41.438-2.075,106.869,20.081,117.908-24.722c-41.415-12.539-101.531,7.661-157.21,0
	c0-2.061,0-4.119,0-6.182C292.319,534.488,307.291,534.488,322.264,534.488z"/>
<path fill="#E3CEBD" d="M142.467,543.293c1.914,0,3.829,0,5.743,0c0,7.656,0,15.315,0,22.973c7.269,13.79,45.289-3.171,51.69,11.487
	c-23.923,0.95-47.937,1.99-57.434-11.487C142.467,558.608,142.467,550.949,142.467,543.293z"/>
<path fill="#D3AC9C" d="M153.954,635.188c-21.478,4.682-10.627-35.402-5.743-40.203c91.61,6.984,197.116,4.263,298.659-5.743
	c7.964,3.528,0.866,22.105,11.486,22.973c0,3.83,0,7.659,0,11.487c-23.654,24.2-90.019,5.707-132.1,11.487
	C268.821,635.188,211.388,635.188,153.954,635.188z M217.131,606.471c-21.83,0.719-66.139-13.551-68.921,17.229
	c68.794,0.366,192.517,18.786,264.197,5.745c10.471-1.908,39.119-0.018,34.462-22.976
	C384.35,597.392,288.386,604.137,217.131,606.471z"/>
<path fill="#E3CEBD" d="M136.724,675.391c30.901-38.02,130.521-7.313,189.533-17.229c-49.814,13.371-124.412,1.943-183.79,5.743
	c-2.431,12.004,3.934,15.211,5.743,22.974C143.095,684.335,137.935,681.837,136.724,675.391z"/>
<path fill="#D3AC9C" d="M326.257,658.161c47.113,1.167,92,0.104,132.1-5.744c0,9.572,0,19.146,0,28.718
	c-12.004-2.431-15.212,3.935-22.975,5.743c-22.975,0-45.948,0-68.922,0c-7.657,0-15.316,0-22.973,0c-22.976,0-45.948,0-68.922,0
	c-11.486,0-22.974,0-34.46,0c53.022-23.558,172.4,19.242,206.764-22.974c-101.872-0.403-193.078,9.855-298.659,5.744
	c-5.826,26.885,43.143-1.033,45.947,17.229c-13.401,0-26.802,0-40.204,0c-1.914,0-3.829,0-5.743,0
	c-1.81-7.763-8.174-10.97-5.743-22.974C201.845,660.105,276.442,671.532,326.257,658.161z"/>
<path fill="#E3CEBD" d="M280.309,543.293c-37.878,0.373-45.977,4.868-80.408,0c0-1.915,0-3.828,0-5.744c26.803,0,53.606,0,80.408,0
	C280.309,539.465,280.309,541.378,280.309,543.293z"/>
<rect x="214.26" y="91.369" fill="#D44C7B" width="25.845" height="83.48"/>
<rect x="352.582" y="93.248" fill="#D44C7B" width="19.622" height="100.872"/>
</svg>
