<?xml version="1.0" encoding="utf-8"?>
<!-- Generator: Adobe Illustrator 15.0.0, SVG Export Plug-In . SVG Version: 6.00 Build 0)  -->
<!DOCTYPE svg PUBLIC "-//W3C//DTD SVG 1.1//EN" "http://www.w3.org/Graphics/SVG/1.1/DTD/svg11.dtd">
<svg version="1.1" id="Capa_1" xmlns="http://www.w3.org/2000/svg" xmlns:xlink="http://www.w3.org/1999/xlink" x="0px" y="0px"
	 width="612px" height="792px" viewBox="0 0 612 792" enable-background="new 0 0 612 792" xml:space="preserve">
<g id="XMLID_1_">
	<g>
		<path fill="#AFBCB0" d="M393.731,356.501c5.779,0,11.561,0,17.341,0c5.316,6.589,8.496,37.339,0,43.35
			c-1.389-17.397,6.993-44.563-17.341-39.015C393.731,359.392,393.731,357.946,393.731,356.501z"/>
		<path fill="#362F30" d="M373.675,364.42c8.382,0,11.562,5.202,20.058,5.086c-6.646,15.317-19.247-2.196-30.346,8.67
			c0.231-5.549,5.549-6.011,4.335-13.005C369.976,364.651,371.941,364.42,373.675,364.42z"/>
		<path fill="#E9E6E6" d="M359.052,430.197c24.16-3.295,56.761,1.85,52.021-30.347c8.496-6.011,5.316-36.761,0-43.35
			c-5.78,0-11.562,0-17.341,0c-6.704,0-13.353,0-20.058,0c-6.3,0-12.658,0-18.958,0c8.901-9.884,37.454-0.116,47.687-8.67
			c19.998-40.46,9.362-101.844,13.005-130.051c17.051-6.936,1.503,18.728,13.005,17.34c7.397-17.167,4.797-44.333,8.67-65.025
			c9.248,104.503,18.149,192.475-26.01,264.438c-8.034-4.855-32.195,3.063-52.021,0
			C354.139,433.723,356.624,430.197,359.052,430.197z"/>
		<path fill="#E9E6E6" d="M354.717,118.075c-16.474-0.115-15.778-22.542,4.335-17.34
			C355.699,104.608,354.37,110.503,354.717,118.075z"/>
		<path fill="#928B80" d="M345.931,413.608c11.966,10.809,43.235,9.536,52.137-9.423c-8.207-7.688-28.61-3.179-43.351-4.335
			c-0.692-10.809,6.82-13.41,8.67-21.675c11.099-10.867,23.698,6.647,30.346-8.67c-8.496,0.116-11.676-5.086-20.058-5.086v-7.918
			c6.705,0,13.354,0,20.058,0c0,1.445,0,2.89,0,4.335c24.334-5.549,15.952,21.617,17.341,39.015
			c4.739,32.195-27.86,27.052-52.021,30.347c-0.692-5.087-7.919-3.643-13.005-4.335c-1.271-4.973-3.873-8.612-7.226-11.214
			L345.931,413.608z"/>
		<path fill="#928B80" d="M341.712,399.852c-3.526-0.809-4.335-4.334-8.67-4.334c9.652-12.022,21.328-22.022,34.68-30.345
			c1.214,6.994-4.104,7.457-4.335,13.005c-1.85,8.265-9.362,10.866-8.67,21.675C350.382,399.852,346.047,399.852,341.712,399.852z"
			/>
		<path fill="#928B80" d="M341.712,399.852c4.335,0,8.67,0,13.005,0c14.739,1.156,35.144-3.353,43.351,4.335
			c-8.9,18.96-40.171,20.23-52.137,9.423C342.116,410.198,340.267,405.574,341.712,399.852z"/>
		<path fill="#E9E6E6" d="M354.717,698.968c-10.115,0-20.229,0-30.346,0c3.353-19.247-14.334-17.455-21.675-26.01
			c19.189-6.069,35.721-4.509,56.355,4.335C360.844,687.755,351.133,686.715,354.717,698.968z"/>
		<path fill="#AFBCB0" d="M298.361,417.191c12.312-7.86,30.172-10.347,40.46-2.543c3.353,2.602,5.954,6.241,7.226,11.214
			C333.967,410.082,322.521,415.284,298.361,417.191z"/>
		<path fill="#E3CEBD" d="M333.042,373.842c2.658,17.109-23.814,5.086-34.681,8.67c-4.046-24.218-32.542-29.363-56.355-21.675
			C276.513,326.099,300.327,392.742,333.042,373.842z"/>
		<path fill="#928B80" d="M298.361,399.852c-8.15,25.374-43.061,26.012-69.36,21.676c-2.716-13.179,5.549-37.338-4.335-43.351
			c6.474-12.312,25.49-12.022,43.35-13.005c-1.561,20.115-35.952,7.398-34.68,30.345
			C244.203,418.175,290.385,393.725,298.361,399.852z"/>
		<path fill="#928B80" d="M220.331,365.171c12.253,3.584,11.213-6.126,21.675-4.335c23.813-7.688,52.309-2.543,56.355,21.675
			c10.866-3.583,37.339,8.439,34.681-8.67c7.976-5.029,14.681-11.329,21.675-17.34c6.3,0,12.658,0,18.958,0v7.918
			c-1.732,0-3.699,0.231-5.953,0.751c-13.352,8.323-25.026,18.323-34.68,30.345c4.335,0,5.144,3.526,8.67,4.334
			c-1.445,5.724,0.404,10.348,4.219,13.758l-7.108,1.039c-10.288-7.803-28.148-5.316-40.46,2.544
			c-11.098,1.907-19.941,6.068-26.01,13.006c-19.999-0.231-42.367,1.906-56.355-4.335c0-1.445,0-2.892,0-4.336
			C217.73,403.03,211.776,376.847,220.331,365.171z M224.666,378.177c9.884,6.011,1.619,30.172,4.335,43.351
			c26.299,4.336,61.21,3.698,69.36-21.676c-7.977-6.125-54.159,18.323-65.025-4.334c-1.271-22.947,33.12-10.23,34.68-30.345
			C250.156,366.154,231.14,365.865,224.666,378.177z"/>
		<path fill="#E3CEBD" d="M276.687,87.73c-10.635,23.351-50.344-5.145-60.69,4.335c-3.353-3.873-4.682-9.769-4.335-17.34
			C229.406,81.257,251.832,102.296,276.687,87.73z"/>
		<path fill="#E3CEBD" d="M215.996,425.862c13.988,6.241,36.356,4.104,56.355,4.335c-9.826,8.092-46.182,5.953-56.355,0
			C215.996,428.752,215.996,427.307,215.996,425.862z"/>
		<path fill="#E3CEBD" d="M359.052,100.735c-20.114-5.202-20.809,17.225-4.335,17.34
			C354.37,110.503,355.699,104.608,359.052,100.735z M359.052,126.746c-52.367,32.831-115.774,13.756-143.056-30.345
			c6.531,6.474,18.265,7.745,21.675,17.34c22.484-33.351,69.592,29.999,99.706-13.005c-1.561-5.665-7.63-6.82-8.67-13.005
			c12.369,16.357,37.801,2.601,56.354,0C375.005,108.654,362.23,103.915,359.052,126.746z"/>
		<path fill="#E9E6E6" d="M482.848,528.714c-4.661-10.092-7.563-20.688-11.776-30.926c-4.28-10.4-8.813-20.808-11.774-31.683
			c-1.436-5.272-2.691-10.902-3.296-16.583c-0.575-0.841-1.081-1.755-1.489-2.744c-8.126-19.688-4.919-42.768-1.844-63.173
			c1.094-7.259,2.403-14.345,3.621-21.381c-1.299-8.364-1.526-16.813-0.278-25.321c0.369-2.515,1.964-4.654,4.056-6.198
			c0.098-2.848,0.115-5.715,0.016-8.611c-0.213-6.193,5.025-11.409,10.991-11.947c5.745-6.34,17.517-2.099,20.08,5.757
			c6.962,21.337,8.382,44.965,5.982,67.217c2.29,10.623,4.037,21.437,6.1,32.153c7.311-2.307,14.478-5.03,21.77-7.443
			c8.815-2.917,17.79-4.961,26.959-6.063c13.606-13.762,39.328-15.411,45.513-36.596c-45.198-59.939-56.99-163.922-82.364-234.091
			C470.664,8.082,337.03,89.233,198.656,57.385c-96.121-5.029-93.405,97.509-121.38,186.406
			C59.705,299.742,39.648,351.3,29.591,395.517c19.704,2.838,38.847,8.055,53.308,17.432c3.464,0.11,6.917,0.564,10.331,1.184
			c4.749-17.464,11.302-34.718,19.49-50.766c0.659-3.367,1.426-6.713,2.397-10.031c-0.008-0.415-0.001-0.826-0.017-1.243
			c-0.021-0.56,0.001-1.091,0.042-1.61c-0.613-3.479-1.211-6.918-1.713-10.293c-2.045-13.765,13.514-20.293,21.933-9.247
			c12.409,16.281,19.423,36.671,23.209,56.617c2.315,12.197,3.744,24.541,4.336,36.927c0.283,1.257,0.574,2.513,0.878,3.766
			c2.004,8.256,3.696,16.429,4.702,24.879c1.371,11.511,0.198,22.588-1.554,34.022c-1.518,9.905-3.558,20.169-6.653,30.05
			c-5.402,48.698-16.516,96.947-28.12,144.543c-0.29,1.187-0.678,2.326-1.153,3.414c107.693,54.557,334.062,65.144,401.444-31.218
			c-17.211-31.889-32.794-65.406-47.018-100.281C484.488,532.046,483.623,530.393,482.848,528.714z M211.662,74.725
			c17.744,6.531,40.171,27.57,65.025,13.005h52.021c12.369,16.357,37.8,2.601,56.354,0c-10.058,20.923-22.831,16.184-26.011,39.015
			c-52.368,32.831-115.774,13.757-143.056-30.345c0-1.445,0-2.89,0.001-4.335C212.644,88.193,211.315,82.297,211.662,74.725z
			 M354.717,698.968h-30.346c3.353-19.247-14.334-17.455-21.674-26.01c19.189-6.069,35.72-4.509,56.355,4.335
			C360.844,687.755,351.133,686.715,354.717,698.968z M411.073,434.532c-8.035-4.855-32.196,3.063-52.021,0
			c-4.913-0.811-2.428-4.335,0-4.335c-0.692-5.087-7.919-3.643-13.005-4.335c-12.081-15.78-23.525-10.578-47.686-8.671
			c-11.097,1.907-19.941,6.068-26.01,13.006c-9.826,8.092-46.182,5.953-56.355,0v-8.671c-6.474-9.596-9.884-53.061,4.335-56.355
			c12.253,3.584,11.213-6.127,21.675-4.335c34.507-34.737,58.321,31.906,91.036,13.005c7.976-5.028,14.681-11.329,21.675-17.34
			c8.902-9.884,37.455-0.116,47.687-8.67c19.998-40.461,9.362-101.844,13.005-130.051c17.051-6.936,1.503,18.727,13.005,17.34
			c7.399-17.167,4.797-44.333,8.67-65.025C446.331,274.598,455.232,362.57,411.073,434.532z"/>
	</g>
</g>
</svg>
