<?xml version="1.0" encoding="utf-8"?>
<!-- Generator: Adobe Illustrator 15.0.0, SVG Export Plug-In . SVG Version: 6.00 Build 0)  -->
<!DOCTYPE svg PUBLIC "-//W3C//DTD SVG 1.1//EN" "http://www.w3.org/Graphics/SVG/1.1/DTD/svg11.dtd">
<svg version="1.1" id="Capa_1" xmlns="http://www.w3.org/2000/svg" xmlns:xlink="http://www.w3.org/1999/xlink" x="0px" y="0px"
	 width="612px" height="792px" viewBox="0 0 612 792" enable-background="new 0 0 612 792" xml:space="preserve">
<path fill="#E9E6E6" d="M544.911,599.064c-1.721-3.814-3.529-7.588-5.46-11.301c-0.831-1.598-1.675-3.188-2.527-4.773
	c-39.209,38.368-105.863,49.289-181.868,50.861h-57.494c-14.647,9.759-122.755,8.793-67.949-5.228
	c-38.369-2.121-74.77-6.206-103.012-18.452c-1.277,3.225-2.614,6.429-4.003,9.611c119.001,42.531,335.395,45.271,422.361-20.522
	C544.851,598.979,544.816,598.872,544.911,599.064z"/>
<path fill="#928B80" d="M229.025,142.466c1.814,3.631,3.853,7.036,11.042,5.291c2.091-0.02,3.336-0.885,4.136-2.196
	C239.121,144.639,234.061,143.607,229.025,142.466z"/>
<path fill="#928B80" d="M198.252,137.304c-19.791,8.085-37.411,18.341-41.814,41.814c0-3.485,0-6.969,0-10.454
	C155.805,143.641,173.86,137.304,198.252,137.304z"/>
<path fill="#4763A1" d="M501.406,524.088c16.328,14.986-18.484,23.031-20.906,36.586C463.697,545.213,502.51,541.17,501.406,524.088
	z"/>
<path fill="#E9E6E6" d="M449.512,140.843c-1.585-1.07-3.181-2.125-4.809-3.127c-0.529-0.326-1.069-0.631-1.602-0.952
	c-0.863,0.593-1.743,1.167-2.642,1.717c3.265,1.914,7.363,2.994,11.451,4.084C450.989,141.891,450.013,141.181,449.512,140.843z"/>
<path fill="#362F30" d="M499.047,510.202c-0.631-1.7-1.223-3.408-1.781-5.124c-3.208-4.649-6.16-9.448-8.844-14.316
	c-10.385-18.84-18.293-39.4-23.525-60.29c-23.49-44.023-32.268-95.412-9.991-138.18c2.05-8.075,5.261-15.907,9.413-23.3
	c1.208-29.047,5.685-57.876,13.606-85.764c-0.007-0.036-0.016-0.082-0.022-0.115c-0.919-4.34-2.06-8.644-3.621-12.801
	c-0.106-0.284-0.252-0.646-0.402-1.011c-0.127-0.271-0.25-0.543-0.382-0.812c-0.831-1.688-1.686-3.367-2.632-4.994
	c-0.934-1.606-1.891-3.201-2.933-4.741c-0.489-0.724-1.648-2.255-2.277-3.098c-3.654-4.28-7.674-8.239-12.012-11.826
	c-0.405-0.292-1.054-0.768-1.729-1.263c-4.09-1.091-8.189-2.171-11.455-4.086c-0.329,0.202-0.645,0.42-0.979,0.616
	c-19.902,11.663-44.189,14.081-66.811,14.352c-19.924,0.238-39.836-1.217-59.756-1.479c-22.994-0.303-46.056-2.297-68.711-6.408
	c-0.8,1.311-2.045,2.177-4.136,2.196c-7.188,1.744-9.228-1.66-11.041-5.291c-0.59-0.134-1.183-0.26-1.772-0.397
	c-6.216-1.442-12.387-3.045-18.523-4.766c-3.493,0-6.985,0-10.477-0.001c-19.791,8.085-37.411,18.341-41.814,41.814
	c-2.172,19.548,3.419,31.331,5.378,46.748c0.861,2.121,1.49,4.386,1.896,6.733c10.859,24.82,16.174,52.629,19.486,78.604
	c5.376,42.166,3.945,84.991-2.581,126.941c-2.784,17.899-6.628,35.75-12.57,52.887c-4.581,13.212-9.981,26.685-17.784,38.436
	c-5.188,21.438-10.404,42.93-17.486,63.838c-1.912,5.646-3.965,11.282-6.178,16.869c28.242,12.246,64.644,16.331,103.013,18.452
	c12.121-1.668,20.07,0.838,26.134,5.227c21.043-8.69,78.267-8.69,99.309,0c76.004-1.572,142.658-12.492,181.866-50.86
	C523.934,558.855,508.647,536.064,499.047,510.202z M409.976,595.432c-48.729-44.838,63.83-56.563,60.63-106.102
	C517.958,532.791,416.999,556.122,409.976,595.432z"/>
<path fill="#AFBCB0" d="M155.791,216.851c2.6,2.45,4.615,5.538,6.025,9.009c-1.96-15.414-7.55-27.197-5.378-46.742v-10.454
	c-4.907,8.338-6.911,23.973-6.25,39.284C152.168,210.84,154.035,213.81,155.791,216.851z"/>
<path fill="#928B80" d="M255.747,633.852c21.043-8.69,78.267-8.69,99.309,0c-19.164,0-38.329,0-57.494,0
	C283.624,633.852,269.686,633.852,255.747,633.852z"/>
<path fill="#AFBCB0" d="M297.562,633.852c-14.646,9.761-122.755,8.793-67.949-5.227c12.121-1.668,20.07,0.838,26.134,5.227
	C269.686,633.852,283.624,633.852,297.562,633.852z"/>
<polygon fill="#FFFFFF" points="322.09,197.262 298.308,185.879 275.448,199.016 278.926,172.881 259.367,155.2 285.298,150.431 
	296.07,126.365 308.619,149.553 334.835,152.361 316.659,171.462 "/>
</svg>
