<?xml version="1.0" encoding="utf-8"?>
<!-- Generator: Adobe Illustrator 15.0.0, SVG Export Plug-In . SVG Version: 6.00 Build 0)  -->
<!DOCTYPE svg PUBLIC "-//W3C//DTD SVG 1.1//EN" "http://www.w3.org/Graphics/SVG/1.1/DTD/svg11.dtd">
<svg version="1.1" id="Capa_1" xmlns="http://www.w3.org/2000/svg" xmlns:xlink="http://www.w3.org/1999/xlink" x="0px" y="0px"
	 width="612px" height="792px" viewBox="0 0 612 792" enable-background="new 0 0 612 792" xml:space="preserve">
<path fill="#928B80" d="M184.541,202.821c-4.028,7.591,0.147,23.387-13.073,21.787C170.612,212.131,170.924,200.824,184.541,202.821
	z"/>
<path fill="#E9E6E6" d="M341.404,289.968c2.304,81.252-0.767,187.423-4.357,265.799c-54.834-57.694-48.395-160.395-47.931-265.799
	C299.108,283.16,331.414,283.154,341.404,289.968z"/>
<path fill="#D3AC9C" d="M415.48,398.901c4.964,57.274-5.63,136.693-39.218,169.937C392.462,515.318,395.838,448.977,415.48,398.901z
	"/>
<path fill="#E9E6E6" d="M245.543,468.619c7.506,14.28,14.57,29.004,17.43,47.931C247.592,510.144,246.826,489.123,245.543,468.619z"
	/>
<path fill="#D3AC9C" d="M450.339,603.697c11.33,6.076-3.178,22.552-4.356,30.501c-10.843,0.676-13.492-6.843-21.787-8.715
	C426.9,612.212,447.632,616.967,450.339,603.697z"/>
<path fill="#E9E6E6" d="M398.051,629.841c18.962-4.437,20.033,9.016,30.501,13.071C419.207,659.304,396.076,649.229,398.051,629.841
	z"/>
<path fill="#E9E6E6" d="M302.189,642.912c11.494-1.327,11.238,9.096,13.072,17.431c-7.264,0-14.525,0-21.787,0
	C290.303,648.456,302.133,651.57,302.189,642.912z"/>
<path fill="#E9E6E6" d="M154.065,209.437c-10.127,5.324-20.297,10.58-30.642,15.469c-3.799,1.795-7.629,3.583-11.49,5.333
	c-1.939,1.031-3.875,2.064-5.824,3.084c21.871-5.725,37.213-17.98,56.645-26.145c2.814-2.334,5.733-4.563,8.721-6.724
	C165.741,203.598,159.786,206.429,154.065,209.437z"/>
<path fill="#E9E6E6" d="M188.343,189.127c17.692-11.334,35.768-22.285,48.486-38.594c-10.708,8.146-21.644,16.065-32.794,23.769
	C199.065,179.526,193.919,184.56,188.343,189.127z"/>
<path fill="#E9E6E6" d="M180.85,665.416c0.163-0.05,0.327-0.091,0.49-0.14c-6.491,0.104-12.77-0.005-18.585-0.576
	c-9.617-7.813-10.638-24.222-17.43-34.859c-1.264,18.694,6.066,28.794,13.073,39.215c4.209,1.088,8.34,1.807,12.433,2.262
	C173.573,668.65,176.979,666.588,180.85,665.416z"/>
<path fill="#E9E6E6" d="M482.771,609.75c0.261-1.879,0.568-3.755,0.92-5.625c-43.311,15.166-69.319,76.565-128.47,75.599
	c1.787-25.517-16.21-31.916-31.648-40.782c-10.593,16.238-9.976,41.02-31.647,20.392c26.497,26.073-16.181,55.722,21.092,71.374
	c22.735-8.62-3.957-65,21.102-71.374c14.161,6.703,19.643,21.799,21.098,40.783c5.095,32.114-32.376,23.092-21.098,61.18
	c50.028-33.221,42.237-122.316,137.14-112.158C463.456,624.756,469.845,614.092,482.771,609.75z"/>
<path fill="#E9E6E6" d="M491.448,577.492c9.707-39.025,19.788-77.678,24.252-121.946c-20.601,67.999-31.023,146.176-52.288,213.51
	c-13.329,3.161-12.818-7.516-26.146-4.355c6.967,7.557,19.614,9.435,34.859,8.713c2.433-19.549,5.904-38.059,9.861-56.083
	C482.914,603.763,486.497,590.27,491.448,577.492z"/>
<path fill="#E9E6E6" d="M524.413,237.68c-65.099-10.428-100.82-50.234-148.149-78.432c-0.249-2.655-0.651-5.157-4.356-4.357
	c0-1.453,0-2.905,0-4.358C418.021,184.302,463.689,218.52,524.413,237.68z"/>
<path fill="#D3AC9C" d="M245.542,167.961c1.221,12.71-1.049,14.979-8.714,8.715v8.715c22.505,13.344,59.748-54.518,78.384-17.521
	c-1.282-16.817-15.196-30.65-26.097-43.481C286.92,150.095,283.243,169.334,245.542,167.961z"/>
<path fill="#D3AC9C" d="M376.263,163.604v-4.357c-0.249-2.655-0.651-5.157-4.356-4.357c-19.013-2.78-21.253-22.32-30.502-34.859
	c-1.044-6.218-7.177-7.354-8.714-13.072h-43.574c-5.813,1.298-11.037,3.185-15.617,5.716c-0.878,10.332-8.289,17.952-17.843,20.526
	c-0.517,1.37-0.998,2.775-1.4,4.26c0.834,18.263-21.389,13.469-17.429,34.858c30.002-26.558,36.311-67.096,78.433-61.002
	c28.805,4.165,28.753,33.82,56.646,56.645c-13.935,2.95-2.91,19.79-8.714,21.787c-17.102-4.687-26.185-17.39-47.932-17.43
	c0.088-1.478,0.063-2.929-0.042-4.362c-9.91-1.202-16.339,1.065-17.388,8.719c29.197-1.521,51.454,26.87,78.432,13.072
	C364.388,185.742,382.351,176.125,376.263,163.604z"/>
<path fill="#E3CEBD" d="M236.829,172.319c30.002-26.558,36.311-67.096,78.433-61.002c28.805,4.165,28.753,33.82,56.646,56.645
	c-13.935,2.95-2.91,19.79-8.714,21.787c-17.102-4.687-26.185-17.39-47.932-17.43c1.122-18.859-14.298-33.985-26.146-47.931
	c-2.195,25.708-5.872,44.946-43.573,43.573c1.22,12.709-1.049,14.979-8.714,8.715C236.829,175.225,236.829,173.772,236.829,172.319z
	"/>
<path fill="#D3AC9C" d="M371.906,154.891c-19.013-2.78-21.253-22.321-30.502-34.859c14.548,5.788,15.178,25.486,30.502,30.501
	C371.906,151.985,371.906,153.438,371.906,154.891z"/>
<path fill="#D3AC9C" d="M376.87,165.091c4.079,11.792-12.006,20.811-0.606,24.657c-26.978,13.799-49.235-14.593-78.432-13.072
	c1.05-7.665,7.495-9.929,17.43-8.715c-18.621-37.207-55.909,30.785-78.433,17.43v-13.072c-3.961-21.389,18.263-16.594,17.429-34.858
	c-1.452,0-2.905,0-4.36-0.001c-4.652,4.063-1.355,16.073-13.071,13.072c-12.715,16.304-30.784,27.254-48.472,38.585
	c-2.547,2.087-5.179,4.083-7.933,5.946c-2.873,1.944-5.886,3.713-8.96,5.398c-2.984,2.159-5.899,4.385-8.71,6.717
	c-21.837,24.64-64.815,28.141-91.504,47.931c0.845,5.443-0.211,8.987-1.576,12.221c1.009,5.951,1.844,11.926,2.363,17.93
	c0.287,0.117,0.576,0.229,0.861,0.351h2.71c6.854-3.313,6.513-13.821,17.429-13.072c11.027,6.754,8.085,22.563,6.838,35.883
	c3.697,5.62,6.609,11.755,8.64,18.175c22.963-27.063,0.855-76.583,41.167-84.559c17.543,17.192-15.37,28.55-4.358,39.216h39.217
	c12.567,12.13,2.592,46.791,17.429,56.646c8.131-16.561-0.976-50.359,8.715-65.36c38.286,72.1,32.629,188.143,87.147,244.011
	c-5.76-39.267-27.483-62.568-21.787-113.291c-18.32-21.191-48.668-94.397-30.501-139.435c-19.834-21.678-21.792-36.708-8.714-69.717
	c64.753-0.228,166.391-16.181,130.72,69.717c-19.681,8.278-92.797-4.062-117.648,13.072c33.662,9.912,87.166-0.017,122.006,8.715
	c3.495,86.33-5.038,206.343-17.43,283.227c31.756-38.512,25.202-108.083,30.501-169.937c2.894-33.786,11.263-64.855,8.716-95.862
	c5.077-0.732,4.73-6.887,4.356-13.072c3.024-8.596,24.312,1.072,26.145-8.715C374.574,276.378,392.315,204.14,376.87,165.091z
	 M171.468,224.607c-0.856-12.476-0.544-23.783,13.073-21.787C180.512,210.412,184.688,226.207,171.468,224.607z"/>
<path fill="#E3CEBD" d="M79.872,289.085c4.549,2.631,8.776,5.86,12.519,9.832c2.774,2.944,5.268,6.136,7.487,9.509
	c1.247-13.321,4.19-29.132-6.838-35.887c-10.916-0.749-10.575,9.759-17.429,13.072C78.898,284.901,79.584,286.794,79.872,289.085z"
	/>
<path fill="#E3CEBD" d="M546.77,261.892c-0.082-5.058-1.93-11.882-0.57-15.497c-5.724-4.443-16.062-4.273-21.786-8.715
	c-65.098-10.428-100.82-50.234-148.149-78.432v4.357c16.521,38.671-2.326,112.712,47.936,117.648
	c-1.833,9.787-23.121,0.119-26.145,8.715c0.374,6.185,0.721,12.34-4.356,13.072c2.547,31.007-5.822,62.076-8.715,95.862
	c-5.3,61.854,1.254,131.425-30.501,169.937c12.391-76.884,20.924-196.897,17.429-283.227c-34.841-8.732-88.344,1.197-122.006-8.715
	c5.543-3.822,13.49-6.174,22.707-7.619c9.102,3.625,17.889,5.375,20.256-1.864c29.216-1.294,62.386,1.584,74.686-3.589
	c35.671-85.898-65.967-69.945-130.72-69.717c-13.078,33.009-11.12,48.038,8.714,69.717
	c-18.167,45.038,12.181,118.244,30.501,139.435c-5.696,50.722,16.027,74.024,21.787,113.291
	c-54.518-55.868-48.861-171.911-87.147-244.011c-9.691,15.001-0.585,48.798-8.715,65.36c-14.837-9.855-4.862-44.516-17.429-56.646
	h-39.217c-11.012-10.666,21.901-22.025,4.358-39.216c-40.313,7.976-18.202,57.499-41.17,84.562c1.094,3.46,1.937,7,2.513,10.582
	c0.15,0.932,0.271,1.861,0.405,2.792c1.177,2.936,2.047,6.006,2.554,9.169c0.099,0.256,0.207,0.514,0.301,0.77
	c2.335,6.351,2.854,13.605,2.926,20.342c0.054,5.017-0.189,10.088-0.648,15.148c9.378,7.818,5.41,17.004,1.671,28.459
	c4.265,26.997,7.108,54.252,9.455,81.449c1.305,15.123,1.896,30.419,3.167,45.598c5.536,28.932,9.73,59.203,14.468,88.932
	c6.792,10.637,7.813,27.046,17.43,34.859c5.815,0.571,12.093,0.681,18.583,0.576c24.317-7.223,48.713-3.902,73.264-1.866
	c3.85-14.487,12.201-24.473,25.798-29.211c-12.045-9.743-18.45-25.124-17.429-47.933c15.976,1.453,17.593,17.266,39.216,13.072
	c14.292-3.308,10.854-47.022,4.359-56.645c19.301,4.493,40.537,53.842,21.786,87.146c12.079,8.256,29.611,11.059,34.859,26.146
	c21.418-0.67-9.527-26.656,13.07-26.146c-0.493,20.828,6.956,33.712,21.787,39.216c-14.138,29.032-51.034-5.729-56.646,8.715
	c-16.063-8.505-23.603-23.812-17.43-43.572c-14.315,4.566-35.676,2.087-47.931,8.714c-6.093,3.596-3.204,16.172-7.638,21.425
	c2.893,0.134,5.788,0.221,8.685,0.238c6.867,0.041,13.123,3.096,17.451,7.902c10.863-0.535,21.892-1.94,33.792-3.423
	c1.373,5.891,6.202,8.324,4.357,17.431c8.951,8.815,8.696-1.776,13.071-8.716c6.377,3.79,13.81,6.526,13.072,17.43
	c32.565,0.551,40.809-46.251,74.074-30.5h4.356c13.328-3.161,12.817,7.516,26.146,4.355c21.265-67.334,31.687-145.511,52.288-213.51
	v-4.356c2.724-10.35,5.861-20.283,17.429-21.787c0.056-0.342,0.093-0.665,0.136-0.994c-9.527-9.726-15.696-21.897-18.27-35.764
	c-3.471-18.706-2.848-36.86-0.038-55.592c2.317-15.449,6.415-31.896,13.226-46.849c-20.565,22.733-12.129,74.468-29.913,99.984
	c-5.102-13.781-7.966-29.798-17.43-39.216c-9.033,38.076,5.504,52.021,13.071,82.789c-6.846,0.415-15.108-0.584-13.071,8.715
	c-13.714,48.98-13.877,133.949-61.003,135.078c46.077-60.549,39.813-175.332,47.932-252.726c6.87,0.397,3.409,11.114,13.071,8.714
	c-2.934-21.809,4.034-33.724,4.357-52.288c-13.446-4.539-25.065,18.423-34.858-8.714c7.665-1.05,9.936-7.501,8.715-17.429
	c10.696,2.916,11.648,27.052,26.145,13.072c-7.302-33.866-74.415-29.481-61.003-69.718c33.673,24.425,80.229,35.965,117.647,56.646
	v12.454C543.406,265.601,545.046,263.707,546.77,261.892z M257.633,262.468c-2.142,0.887-4.606,1.453-7.733,1.356
	C247.07,258.255,251.074,259.465,257.633,262.468z M149.682,603.697c-6.757-10.673-6.496-28.363-8.715-43.574
	C148.479,570.041,150.289,585.661,149.682,603.697z M219.399,634.198c-4.947-0.828-2.417-4.369,0-4.356
	c0.488-18.178-8.528-23.738-21.787-17.43c0.097-10.264-7.506-12.829-4.357-26.146c-10.247,13.413-2.588,1.736-17.43,0
	c1.011-23.438,4.165-36.146-4.357-56.645c-9.622,0.545-1.849,18.485-4.357,26.145c-14.853-32.374-3.778-76.451-8.714-113.292
	c-5.623-10.279-20.42-43.033,8.714-39.216c12.187,74.488,31.018,127.839,39.216,187.365
	C221.572,596.633,233.424,624.178,219.399,634.198z M245.543,468.619c7.506,14.281,14.57,29.004,17.43,47.931
	C247.592,510.144,246.826,489.123,245.543,468.619z M337.047,555.767c-54.835-57.694-48.395-160.395-47.931-265.799
	c9.992-6.808,42.298-6.814,52.288,0C343.708,371.22,340.639,477.391,337.047,555.767z M293.475,660.343
	c-3.172-11.887,8.658-8.772,8.715-17.431c11.494-1.327,11.238,9.096,13.072,17.431H293.475z M376.264,568.838
	c16.198-53.52,19.574-119.861,39.218-169.937C420.445,456.177,409.852,535.596,376.264,568.838z M450.338,603.697
	c11.331,6.076-3.177,22.552-4.356,30.501c-10.843,0.676-13.492-6.843-21.787-8.715C426.9,612.212,447.632,616.967,450.338,603.697z
	 M428.552,642.912c-9.345,16.392-32.476,6.316-30.501-13.071C417.013,625.404,418.084,638.855,428.552,642.912z"/>
<path fill="#E3CEBD" d="M86.32,240.768c-2.154,0.77-4.319,1.501-6.492,2.204c-1.29,5.615-10.859,2.951-8.578,12.138
	c26.688-19.79,69.667-23.29,91.504-47.93c-19.432,8.164-34.773,20.419-56.645,26.145C99.748,236.04,93.568,238.938,86.32,240.768z"
	/>
<path fill="#D3AC9C" d="M376.263,629.84c-22.597-0.51,8.348,25.476-13.07,26.146c-5.248-15.087-22.78-17.89-34.859-26.146
	c18.751-33.304-2.485-82.652-21.786-87.146c6.496,9.623,9.934,53.338-4.359,56.645c-21.622,4.194-23.239-11.619-39.216-13.072
	c-1.021,22.809,5.384,38.19,17.429,47.933c-13.599,4.738-21.949,14.724-25.798,29.211c4.595,0.382,9.196,0.717,13.803,0.929
	c4.435-5.253,1.545-17.83,7.638-21.426c12.256-6.627,33.616-4.148,47.931-8.714c-6.173,19.76,1.367,35.067,17.43,43.573
	c5.611-14.444,42.507,20.316,56.646-8.716C383.219,663.552,375.77,650.668,376.263,629.84z"/>
<path fill="#D3AC9C" d="M498.27,390.187c17.784-25.516,9.348-77.251,29.913-99.984c3.7-8.124,8.209-15.799,13.66-22.64V255.11
	c-37.418-20.681-83.974-32.221-117.647-56.646c-13.412,40.238,53.701,35.852,61.003,69.718
	c-14.497,13.98-15.449-10.156-26.145-13.072c1.221,9.928-1.05,16.379-8.715,17.429c9.793,27.137,21.412,4.175,34.858,8.714
	c-0.323,18.564-7.291,30.479-4.357,52.288c-9.662,2.401-6.201-8.317-13.07-8.714c-8.119,77.394-1.856,192.177-47.933,252.726
	c47.126-1.129,47.289-86.098,61.003-135.078c-2.037-9.299,6.225-8.3,13.071-8.715c-7.567-30.768-22.104-44.713-13.071-82.789
	C490.304,360.389,493.168,376.406,498.27,390.187z"/>
<path fill="#E3CEBD" d="M219.399,629.841c0.488-18.178-8.528-23.737-21.787-17.43c0.097-10.264-7.506-12.828-4.357-26.146
	c-10.247,13.413-2.587,1.736-17.43,0c1.01-23.438,4.165-36.146-4.357-56.645c-9.622,0.545-1.849,18.484-4.357,26.145
	c-14.854-32.374-3.779-76.451-8.714-113.292c-5.623-10.279-20.42-43.033,8.714-39.216c12.187,74.488,31.018,127.839,39.216,187.365
	c15.245,6.009,27.097,33.555,13.072,43.574C214.452,633.37,216.982,629.829,219.399,629.841z"/>
<path fill="#D3AC9C" d="M140.967,560.123c7.512,9.918,9.322,25.538,8.715,43.574C142.925,593.024,143.186,575.334,140.967,560.123z"
	/>
</svg>
