<?xml version="1.0" encoding="utf-8"?>
<!-- Generator: Adobe Illustrator 15.0.0, SVG Export Plug-In . SVG Version: 6.00 Build 0)  -->
<!DOCTYPE svg PUBLIC "-//W3C//DTD SVG 1.1//EN" "http://www.w3.org/Graphics/SVG/1.1/DTD/svg11.dtd">
<svg version="1.1" id="Capa_1" xmlns="http://www.w3.org/2000/svg" xmlns:xlink="http://www.w3.org/1999/xlink" x="0px" y="0px"
	 width="612px" height="792px" viewBox="0 0 612 792" enable-background="new 0 0 612 792" xml:space="preserve">
<path fill="#928B80" d="M309.585,81.905c-5.708-0.21-11.548,0.008-17.351,0.467c-0.528,0.349-1.036,0.717-1.497,1.128h38.125
	C322.44,82.925,316.023,82.142,309.585,81.905z"/>
<path fill="#362F30" d="M404.149,120.757c-3.903-2.811-7.687-5.81-11.218-9.038c-7.895-5.894-15.863-11.842-19.407-19.77
	c-5.328-3.798-14.438-4.122-20.662-7.098c-1.607-0.252-3.214-0.506-4.813-0.797c-5.266,0.225-10.576,0.121-15.88-0.277
	c-1.104-0.083-2.206-0.177-3.309-0.276h-38.125c-10.14,1.71-17.665,5.822-24.081,10.953c-0.956,0.851-1.937,1.674-2.932,2.479
	c-10.877,9.648-18.979,21.846-32.779,28.811c-5.551,6.568-14.696,16.462-4.599,25.344c13.774,5.071,39.568-10.12,50.593-21.121
	c-13.714-8.816,6.108-22.221,0-38.017c26.566-6.144,77.021-5.138,91.987,12.672c-5.294,4.994-5.204,14.928-4.6,25.345
	c20.332,2.448,29.753,14.917,45.994,21.121C416.96,137.375,412.25,128.402,404.149,120.757z"/>
<path fill="#D3AC9C" d="M350.527,104.622c-20.415,8.003-33.985,22.298-68.989,16.897
	C298.498,112.091,332.161,99.072,350.527,104.622z"/>
<path fill="#362F30" d="M355.127,167.984c-24.529,0-49.059,0-73.589,0c1.246-14.344-3.563-34.244,4.6-42.241
	c31.303-3.168,50.347,7.084,73.59,0C362.446,143.729,356.421,153.684,355.127,167.984z M336.73,134.191
	c-19.23-5.506-53.318-5.072-36.795,16.896c6.377,9.631,32.016,1.573,45.993,4.224C343.887,147.326,352.188,129.856,336.73,134.191z"
	/>
<path fill="#D3AC9C" d="M187.138,135.366c-1.735,0.329-3.47,0.579-5.196,0.738c-13.454,7.206-37.454,4.725-42.985,19.208
	C155.086,167.393,203.405,145.864,187.138,135.366z"/>
<path fill="#D3AC9C" d="M207.948,167.984c-5.342-3.542-12.33-5.571-22.997-4.223c6.953-10.511,15.769-19.312,32.196-21.122
	c-1.03,7.987,5.187,9.318,4.599,16.896C213.835,159.311,209.955,162.787,207.948,167.984z"/>
<path fill="#AFBCB0" d="M132.187,153.013c-0.971,1.615-1.897,3.256-2.756,4.936c-2.004,5.616-3.725,11.332-5.455,17.042
	c-0.154,0.507-0.328,1.004-0.495,1.504c0.021,2.441,0.014,4.882-0.026,7.32c6.907,4.845,3.552-23.107,10.903-24.278
	C134.456,154.345,133.671,152.955,132.187,153.013z"/>
<path fill="#E3CEBD" d="M267.739,163.761c8.522,13.288,9.834,33.21,9.199,54.914C261.703,203.714,265.134,179.282,267.739,163.761z"
	/>
<path fill="#AFBCB0" d="M122.86,209.439c0.698-4.042,1.459-8.01,2.299-11.885c-0.047-1.52-0.832-2.361-1.981-2.869
	C123.056,199.6,122.962,204.52,122.86,209.439z"/>
<path fill="#AFBCB0" d="M111.162,419.74c0.348,2.978,0.654,5.953,0.936,8.929c3.468-28.234,3.021-66.641,3.391-106.837
	c-0.277,2.908-0.658,5.811-1.1,8.709c0.04,0.765,0.077,1.53,0.111,2.292c0.48,10.915-0.337,21.568-1.751,32.293
	c0.877,12.751,0.746,25.503-0.203,38.31C112.144,408.878,111.679,414.312,111.162,419.74z"/>
<path fill="#AFBCB0" d="M115.68,306.414c0.029-1.802,0.061-3.604,0.096-5.409c-0.122,0.879-0.251,1.757-0.375,2.636
	C115.511,304.558,115.603,305.482,115.68,306.414z"/>
<path fill="#928B80" d="M286.138,235.571c22.703,6.138,32.489-1.915,55.191,4.224c3.336,12.92-7.936,12.425-4.599,25.346
	c-20.764-8.125-14.325-20.071-45.994-12.674C291.323,244.888,285.107,243.557,286.138,235.571z"/>
<path fill="#928B80" d="M523.304,493.558c-0.537-23.558-1.72-47.089-2.695-70.629c0.694,26.725,1.588,53.864,2.863,80.694
	C523.433,500.268,523.38,496.912,523.304,493.558z"/>
<path fill="#928B80" d="M518.527,297.25c-0.252-1.652-0.476-3.292-0.703-4.933c0.438,17.887,0.803,36.775,1.18,56.338
	c-0.023-16.04,0.073-32.08,0.073-48.115C518.881,299.441,518.694,298.344,518.527,297.25z"/>
<path fill="#928B80" d="M171.153,256.691c15.637,5.352,21.212,19.944,27.597,33.793C176.208,291.475,174.65,273.192,171.153,256.691
	z"/>
<path fill="#E9E6E6" d="M442.516,408.761c-2.011-14.521,1.814-23.672,4.602-33.792c6.807,0.78,4.216,10.208,4.598,16.896
	c-6.81,0.781-4.215,10.209-4.598,16.896C445.583,408.761,444.049,408.761,442.516,408.761z"/>
<path fill="#D3AC9C" d="M336.73,429.882c0.545,18.8,20.539,59.705,0,59.138C336.73,469.308,336.73,449.595,336.73,429.882z"/>
<path fill="#362F30" d="M226.346,467.899c-5.019,9.472-22.578,7.426-27.596,16.896C186.922,476.369,213.529,467.674,226.346,467.899
	z"/>
<path fill="#E9E6E6" d="M230.161,113.998c-4.874,3.891-9.92,7.538-15.348,10.607c-0.832,0.47-1.688,0.938-2.556,1.401
	c11.882-4.422,22.094-10.377,31.326-17.232C239.166,110.635,234.643,112.29,230.161,113.998z"/>
<path fill="#E9E6E6" d="M289.34,82.606c-5.157,1.049-10.228,2.521-15.224,4.233c-2.303,2.698-4.798,5.244-7.456,7.61
	c6.416-5.128,13.939-9.239,24.077-10.949c0.461-0.411,0.969-0.779,1.497-1.128C291.269,82.449,290.302,82.517,289.34,82.606z"/>
<path fill="#E9E6E6" d="M255.977,102.486c-1.384,0.874-2.81,1.673-4.25,2.442c-7.462,6.447-15.788,12.101-20.781,20.815
	c13.797-6.963,21.898-19.158,32.772-28.805C261.242,98.938,258.656,100.795,255.977,102.486z"/>
<path fill="#E9E6E6" d="M166.797,703.994c0.05-1.17-0.021-2.421-0.242-3.766c-3.81,0.033-4.445,2.981-4.969,6.032
	C163.306,705.465,165.044,704.708,166.797,703.994z"/>
<path fill="#AFBCB0" d="M369.617,86.863c-5.582-0.485-11.187-1.137-16.757-2.012c6.224,2.977,15.335,3.301,20.664,7.1
	c1.231,0.33,2.332,0.78,3.351,1.306c-1.459-1.725-2.959-3.406-4.515-5.035C371.441,87.776,370.53,87.317,369.617,86.863z"/>
<path fill="#928B80" d="M392.966,111.75c-0.896-0.82-1.78-1.652-2.643-2.501c-4.636-4.562-8.621-9.706-12.527-14.902
	c-0.303-0.365-0.61-0.724-0.916-1.085c-1.021-0.527-2.124-0.979-3.358-1.309C377.071,99.893,385.059,105.847,392.966,111.75z"/>
<path fill="#928B80" d="M447.228,516.854c1.197,21.866,9.378,68.938,18.283,94.666c-18.5-2.903-26.254,4.049-41.396,4.225
	c-69.265-2.766-109.815-66.673-87.387-126.726v-59.138c-18.188-64.968-58.067-110.004-82.789-168.966
	c-5.707-22.919-15.751-41.856-22.997-63.362c-3.671-7.892-7.684-15.471-9.199-25.345c14.146-8.129,20.596-23.326,41.395-25.345
	c1.018-3.288,3.85-4.911,9.199-4.224c7.659,5.638,1.539,23.932,9.199,29.569h78.188c2.785-10.12,6.612-19.272,4.6-33.792
	c16.116-7.607,38.555,15.169,50.593,25.345c-26.146,72.063-76.207,144.341-91.987,206.983
	c21.993-37.534,39.845-78.868,64.392-114.053c6.942-7.706,4.882-23.678,13.796-29.567c2.546-7.524,2.365-17.546,9.2-21.121
	c3.551-10.819,4.587-23.948,13.796-29.569c0.72-4.972-0.788-11.99,4.602-12.672c-2.828-14.091-13.499-14.422-4.602-29.569
	c-1.205-1.126-2.452-2.215-3.721-3.283c-2.813-1.454-5.56-3.012-8.202-4.702c-2.719-1.739-5.417-3.561-8.063-5.466
	c8.112,7.648,12.835,16.625,6.189,30.348c-16.241-6.204-25.662-18.673-45.994-21.121c-0.604-10.417-0.694-20.351,4.6-25.345
	c-14.966-17.809-65.421-18.816-91.987-12.672c6.108,15.796-13.714,29.201,0,38.017c-11.026,11.001-36.819,26.192-50.593,21.121
	c-10.097-8.884-0.952-18.778,4.599-25.345c-12.133-1.287-11.858,8.822-13.798,16.896c-1.03,7.986,5.186,9.317,4.599,16.896
	c-7.911-0.225-11.791,3.251-13.798,8.448c2.049,13.608,8.816,22.881,9.199,38.018c8.516,11.89,12.636,27.82,18.398,42.241
	c25.895,69.159,90.465,125.295,87.387,206.983c-0.692,7.81-15.577,2.596-18.396,8.447c-1.293,6.82,4.349,7.272,4.601,12.672
	c35.154,34.861-34.867,132.918-82.789,139.397c-18.391,1.402-25.53-7.53-45.994-4.224c-7.15,15.015,15.618,2.552,13.798,12.673
	c32.489,4.493,49.521-5.209,68.991-12.673c3.024-5.672,9.833-7.866,18.397-8.447c16.498-14.417,18.272-42.363,36.795-54.916
	c23.5,21.704-16.721,27.403-4.6,46.467c25.416-3.097,34.058-13.415,41.394,12.672c31.31,20.918,83.345,16.963,110.385,21.121
	c15.417-22.914-3.754-82.6-13.798-109.827C449.771,518.421,447.908,518.18,447.228,516.854z M350.527,104.622
	c-20.415,8.003-33.985,22.298-68.989,16.897C298.498,112.091,332.161,99.072,350.527,104.622z M286.138,125.743
	c31.303-3.168,50.347,7.084,73.589,0c2.719,17.986-3.307,27.941-4.601,42.241h-73.589
	C282.784,153.64,277.975,133.74,286.138,125.743z"/>
<path fill="#E3CEBD" d="M243.58,108.775c-9.23,6.853-19.439,12.807-31.317,17.228c-7.518,4.02-16.316,7.694-25.124,9.363
	c16.267,10.499-32.052,32.026-48.181,19.946c5.53-14.483,29.531-12.001,42.985-19.208c-2.409,0.223-4.801,0.28-7.146,0.113
	c-0.05-0.003-0.102-0.009-0.152-0.012c-10.627,3.376-21.422,6.032-32.393,7.506c-0.862,0.587-1.729,1.167-2.58,1.771
	c-2.412,2.066-4.716,4.23-6.895,6.533c-0.204,0.328-0.391,0.666-0.59,0.996c1.483-0.057,2.267,1.334,2.169,6.523
	c21.117,35.74,5.27,66.343,0,97.156c-23.021,134.545,3.314,307.431-22.839,451.099c13.12-1.032,26.019,1.818,39.005,4.48
	c0.811-0.541,1.633-1.063,2.475-1.554c0.591-0.345,1.193-0.676,1.793-1.009c-23.201-32.186-2.754-106.213-2.037-144.655
	c-0.42-6.653-11.732-3.306-9.199-12.673c16.709-29.162-2.863-69.269,18.397-97.155c3.438-13.014-15.858-5.147-9.198-21.121
	c23.812-49.34,3.707-183.023,18.397-245c25.494,6.44,17.77,36.401,9.199,54.914c15.685,5.6,41.203-11.567,36.795-38.017
	c-0.383-15.137-7.15-24.41-9.199-38.018c-5.343-3.541-12.33-5.571-22.997-4.223c6.953-10.511,15.769-19.312,32.196-21.122
	c1.94-8.074,1.665-18.183,13.798-16.896c4.992-8.712,13.315-14.366,20.777-20.811C249.077,106.343,246.353,107.606,243.58,108.775z"
	/>
<path fill="#E3CEBD" d="M420.408,130.918c1.266,1.065,2.508,2.15,3.709,3.273c3.959,1.572,8.269,2.823,12.779,3.888
	C431.257,136.011,425.707,133.656,420.408,130.918z"/>
<path fill="#E3CEBD" d="M502.592,153.984c-1.197-0.292-2.404-0.551-3.61-0.811c1.155,0.67,2.271,1.376,3.326,2.138
	c0.212,0.044,0.396,0.115,0.585,0.181C502.793,154.99,502.692,154.487,502.592,153.984z"/>
<path fill="#D3AC9C" d="M410.32,417.211c-6.875,1.209-33.227,5.435-18.397,12.672c3.646-9.736,21.619,2.189,22.996,8.449
	c0.605,10.416,0.695,20.35-4.599,25.344c11.436-0.648,14.233,6.634,22.998,8.449c9.771-17.777,2.231-51.461,4.597-76.035
	c-13.017-0.693,3.822,26.037-9.197,25.345c6.133-30.791-24.446-128.573,32.194-126.725c-0.778,21.815,2.851,47.676-4.598,63.363
	c-9.5-9.098-17.416-1.827-13.8,12.672c6.079-0.05,4.203-7.404,9.198-8.449c4.763,11.111,5.505,25.923,4.602,42.242v16.896
	c6.489,21.742,11.113,95.204-4.602,97.156c10.044,27.227,29.215,86.913,13.798,109.827c2.23,23.464,2.008,49.18,7.361,69.775
	c4.882-0.757,9.782-1.421,14.682-2.026c0.106-14.33,5.077-24.191,14.753-29.732c-17.002-43.483-32.986-128.108-13.799-156.293
	c-8.023-79.467-18.327-204.421-22.997-287.242c-9.151,12.715-0.796,41.503-18.396,46.465c-4.061-25.84-15.375-45.02-18.398-71.812
	c17.321-7.062,20.95,19.647,27.598,8.449c-6.814-13.454-24.997-16.468-32.198-29.569c-9.209,5.621-10.245,18.75-13.796,29.569
	c10.768-1.375,4.469-18.425,13.796-21.121c-1.718,16.297,8.523,77.509-9.197,92.932c1.067-22.1-16.063-27.491-13.799-50.69
	c-8.916,5.89-6.856,21.863-13.798,29.569C447.911,292.521,388.041,353.232,410.32,417.211z"/>
<path fill="#E3CEBD" d="M364.326,138.416c16.116-7.607,38.555,15.169,50.593,25.345c-26.147,72.063-76.207,144.341-91.987,206.983
	c21.992-37.534,39.845-78.868,64.392-114.053c60.589,35.829,0.719,96.54,22.998,160.519c-6.875,1.209-33.228,5.435-18.397,12.672
	c3.646-9.734,21.619,2.189,22.996,8.449c0.605,10.416,0.695,20.35-4.599,25.344c-11.438,0.64-1.349,14.301,0,16.896
	c7.49,35.063,22.862,81.354,32.194,126.725c-2.819,5.853-17.703,0.639-18.398,8.448c-69.265-2.766-109.814-66.673-87.387-126.726
	c20.54,0.567,0.546-40.338,0-59.138c-18.188-64.968-58.066-110.004-82.789-168.966c4.474-0.115,3.569-5.17,4.599-8.449
	c9.198,0,18.397,0,27.597,0c6.188,33.744,20.309,60.195,22.997,97.156C340.102,288.845,367.644,194.688,364.326,138.416z"/>
<path fill="#AFBCB0" d="M299.936,151.088c-16.523-21.968,17.564-22.402,36.795-16.896c0,1.408,0,2.816,0,4.224
	c-12.266,0-24.53,0-36.795,0c-6.486,18.635,27.524,0.065,27.596,12.672C318.333,151.088,309.135,151.088,299.936,151.088z"/>
<path fill="#AFBCB0" d="M511.958,191.764c-1.707-8.575-4.182-16.958-6.59-25.381c-1.016-3.553-1.746-7.219-2.476-10.89
	c-0.188-0.066-0.373-0.137-0.585-0.181c3.243,12.514,6.971,26.314,9.876,39.443C512.109,193.758,512.035,192.761,511.958,191.764z"
	/>
<path fill="#E9E6E6" d="M327.531,151.088c-0.071-12.607-34.082,5.962-27.596-12.672c12.265,0,24.53,0,36.795,0
	C348.175,140.121,340.233,157.76,327.531,151.088z"/>
<path fill="#D3AC9C" d="M364.326,138.416c3.316,56.272-24.226,150.43-55.191,211.208c-2.688-36.961-16.811-63.412-22.997-97.156
	c-9.199,0-18.398,0-27.597,0c-1.03,3.279-0.125,8.333-4.599,8.449c-5.708-22.919-15.751-41.856-22.997-63.362
	c4.474,0.116,3.569,5.17,4.6,8.449c0.455-23.019,42.525-49.821,27.596-59.139c1.018-3.288,3.85-4.911,9.199-4.224
	c7.659,5.638,1.539,23.932,9.199,29.569c26.063,0,52.126,0,78.188,0C362.512,162.088,366.339,152.936,364.326,138.416z
	 M276.938,218.674c0.635-21.704-0.677-41.625-9.199-54.914C265.134,179.282,261.703,203.714,276.938,218.674z M290.737,252.467
	c31.668-7.397,25.23,4.549,45.994,12.674c-3.337-12.921,7.935-12.425,4.599-25.346c-22.702-6.138-32.488,1.914-55.191-4.224
	C285.107,243.557,291.323,244.888,290.737,252.467z"/>
<path fill="#AFBCB0" d="M180.352,611.521c-7.15,15.015,15.619,2.552,13.798,12.673c-11.732,4.618-23.667-14.434-22.997,4.224
	c-3.581-0.936-5.347-3.538-4.599-8.448c0.874-3.421,4.611-4.214,4.599-8.448C174.219,611.521,177.286,611.521,180.352,611.521z"/>
<path fill="#D3AC9C" d="M309.136,476.347c-0.252-5.4-5.894-5.852-4.601-12.672C293.278,464.142,303.56,477.641,309.136,476.347z"/>
<path fill="#D3AC9C" d="M322.932,455.227c-44.963-29.789-129.099-150.045-101.185-211.208c6.33-0.182,10.098,1.991,13.799,4.224
	c-5.762-14.421-9.882-30.35-18.398-42.241c4.408,26.45-21.11,43.617-36.795,38.017c8.571-18.513,16.295-48.474-9.199-54.914
	c-14.69,61.976,5.415,195.658-18.397,245c-6.66,15.973,12.636,8.106,9.198,21.12c-21.26,27.886-1.689,67.993-18.397,97.155
	c-2.533,9.367,8.78,6.02,9.199,12.673c-0.717,38.442-21.163,112.468,2.035,144.653c2.212-1.227,4.482-2.376,6.795-3.446
	c0.523-3.052,1.159-6.001,4.969-6.034v-4.224c1.737-23.337-9.295-35.713,4.599-50.69v-16.896c-3.581-0.935-5.348-3.538-4.599-8.448
	c-4.336-29.376,3.275-84.251,18.397-109.828c-17.308-1.793-9.972-83.162-4.6-105.604v-21.121
	c-0.951-12.138,1.163-21.462,9.199-25.344c0.72,4.971-0.789,11.99,4.6,12.672c1.03-3.279,0.126-8.333,4.6-8.449
	c3.676-16.759-21.177-45.816,0-63.362c14.492,14.603-7.738,99.301,13.797,80.259c2.347,12.348-2.564,39.437-9.199,29.569
	c-0.719,16.44-1.39,38.685-4.599,59.14c15.457,5.346,24.326-16.545,32.195-4.226c0.982,22.023-27.692,16.809-36.795,29.569
	c-2.791,43.902-8.018,85.564-22.997,118.275h9.199c20.464-3.305,27.602,5.627,45.994,4.225
	c-50.767-39.282-0.803-120.69,27.596-152.069c-2.928-21.247-22.249-27.439-18.397-54.914c25.152,16.325,40.89,41.295,68.989,54.914
	C307.355,457.824,322.239,463.038,322.932,455.227z M175.753,307.381c9.018,11.43,12.408,28.03,13.797,46.466
	C168.818,367.647,177.46,324.455,175.753,307.381z M171.153,256.692c15.637,5.351,21.212,19.943,27.597,33.793
	C176.208,291.475,174.65,273.192,171.153,256.692z"/>
<path fill="#E3CEBD" d="M235.545,248.243c25.895,69.16,90.465,125.295,87.387,206.982
	c-44.963-29.787-129.099-150.045-101.186-211.208C228.076,243.837,231.844,246.01,235.545,248.243z"/>
<path fill="#E3CEBD" d="M456.315,206.002c-6.648,11.198-10.277-15.511-27.598-8.449c3.023,26.791,14.337,45.971,18.398,71.812
	c17.6-4.962,9.245-33.749,18.396-46.465c4.67,82.822,14.974,207.775,22.997,287.242c-19.187,28.185-3.203,112.81,13.799,156.293
	c-9.677,5.541-14.646,15.402-14.754,29.732c3.171-0.392,6.34-0.763,9.5-1.122c6.673-0.758,13.249-1.125,19.788-1.158
	c-7.565-33.002,1.223-87.597-9.933-116.157c18.312-124.998-17.974-304.751-13.799-418.192c-20.117,14.829-40.423-16.946-59.79-4.224
	c-1.033,3.278-0.128,8.333-4.602,8.449c-5.39,0.681-3.882,7.699-4.602,12.672C431.318,189.534,449.501,192.548,456.315,206.002z"/>
<path fill="#928B80" d="M198.75,467.899c15.457,5.347,24.326-16.546,32.195-4.226c0.982,22.023-27.692,16.81-36.795,29.569
	c-2.791,43.901-8.019,85.564-22.997,118.275c0.013,4.234-3.725,5.027-4.599,8.448c-4.336-29.376,3.275-84.251,18.397-109.828
	c10.025-8.834-2.299-12.057,0-25.344c4.474-0.116,3.569-5.171,4.599-8.45C193.647,474.477,197.779,472.641,198.75,467.899z
	 M198.75,484.797c5.018-9.472,22.577-7.426,27.596-16.896C213.529,467.674,186.922,476.369,198.75,484.797z"/>
<path fill="#E3CEBD" d="M180.352,383.416c-0.952-12.139,1.163-21.462,9.199-25.344c0.719,4.972-0.79,11.99,4.6,12.672
	c0,5.632,0,11.264,0,16.896c-6.24-1.31-3.815-10.577-4.6-16.896c-5.39,0.682-3.88,7.7-4.599,12.672
	C183.418,383.416,181.885,383.416,180.352,383.416z"/>
<path fill="#928B80" d="M189.55,353.847c-20.732,13.8-12.091-29.392-13.797-46.466C184.771,318.811,188.161,335.411,189.55,353.847z
	"/>
<path fill="#928B80" d="M410.32,480.571c-1.349-2.597-11.438-16.258,0-16.896c11.437-0.647,14.233,6.634,22.998,8.449
	c6.04,1.496,7.231,7.436,13.798,8.447c-0.751,4.911,1.018,7.514,4.598,8.447c0.588,7.58-5.63,8.911-4.598,16.897
	C440.887,491.924,430.634,481.627,410.32,480.571z"/>
<path fill="#D3AC9C" d="M410.32,480.571c20.313,1.056,30.565,11.353,36.796,25.346c0,2.815,0,5.632,0,8.448
	c0.658,20.581,9.138,70.407,18.396,97.154c-18.5-2.903-26.254,4.049-41.396,4.225c0.696-7.811,15.579-2.597,18.398-8.448
	C433.184,561.925,417.813,515.636,410.32,480.571z"/>
<path fill="#E3CEBD" d="M451.714,391.864c-0.382-6.688,2.209-16.116-4.598-16.896c-2.786,10.12-6.611,19.272-4.602,33.792
	c2.988,21.192-6.028,53.407,4.602,67.586c0,1.409,0,2.816,0,4.226c-6.565-1.013-7.758-6.951-13.798-8.447
	c9.771-17.777,2.23-51.461,4.597-76.035c2.646-7.426-5.557-24.817,4.601-25.345c6.079-0.05,4.203-7.404,9.198-8.449
	c4.763,11.111,5.505,25.923,4.602,42.242c-1.534,0-3.067,0-4.602,0C451.714,400.313,451.714,396.089,451.714,391.864z"/>
<path fill="#E9E6E6" d="M180.352,383.416c1.533,0,3.066,0,4.6,0c0.719-4.972-0.791-11.99,4.599-12.672
	c0.785,6.32-1.641,15.586,4.6,16.896c-3.018,26.795,6.061,64.704-4.6,84.483c0-28.161,0-56.322,0-84.483
	c-13.594,10.042,4.396,49.095-9.199,59.138c0-14.081,0-28.161,0-42.241C180.352,397.497,180.352,390.456,180.352,383.416z"/>
<path fill="#AFBCB0" d="M203.349,408.761c-0.719,16.439-1.389,38.685-4.599,59.14c-0.971,4.74-5.103,6.576-9.2,8.446
	c0-1.406,0-2.814,0-4.223c10.661-19.779,1.582-57.688,4.6-84.483c0-5.633,0-11.264,0-16.896c1.03-3.279,0.126-8.333,4.6-8.449
	C196.492,381.266,201.085,393.943,203.349,408.761z"/>
<path fill="#FFFFFF" d="M180.352,446.778c13.595-10.043-4.396-49.096,9.199-59.138c0,28.161,0,56.322,0,84.483
	c0,1.407,0,2.815,0,4.223c-1.03,3.279-0.125,8.334-4.599,8.45C174.513,480.303,183.203,458.241,180.352,446.778z"/>
<path fill="#928B80" d="M299.936,151.088c9.199,0,18.397,0,27.596,0c12.702,6.672,20.644-10.967,9.199-12.672
	c0-1.408,0-2.816,0-4.224c15.456-4.335,7.155,13.134,9.197,21.121C331.951,152.661,306.313,160.719,299.936,151.088z"/>
<path fill="#D3AC9C" d="M112.462,653.323c-1.003,17.342-2.472,35.27-6.171,52.546c0.141,0.832,0.272,1.662,0.418,2.495
	c1.606-0.248,3.21-0.448,4.809-0.574c26.152-143.667-0.182-316.553,22.839-451.098c5.27-30.813,21.117-61.416,0-97.156
	c-7.351,1.171-3.995,29.121-10.902,24.279c-0.027,1.638-0.062,3.274-0.112,4.908c-0.062,1.986-0.115,3.973-0.165,5.961
	c1.149,0.508,1.935,1.35,1.98,2.87c-0.839,3.873-1.6,7.839-2.297,11.879c-0.174,8.38-0.375,16.761-0.801,25.119
	c-1.041,20.395-2.779,40.686-5.517,60.917c-0.25,1.847-0.51,3.691-0.767,5.537c-0.035,1.804-0.066,3.606-0.096,5.407
	c0.058,0.692,0.113,1.386,0.153,2.086c0.256,4.456,0.079,8.899-0.344,13.332c-0.371,40.194,0.077,78.599-3.392,106.833
	c2.071,21.864,2.502,43.709,3.157,65.857c0.834,28.222,1.507,56.514-1.421,84.645c-0.013,4.299-0.542,8.457-1.535,12.488
	c1.258,9.481,1.443,19.199,1.201,28.579C113.213,631.266,113.1,642.305,112.462,653.323z"/>
<path fill="#D3AC9C" d="M523.472,503.604c-1.274-26.806-2.167-53.921-2.861-80.621c-0.359-8.648-0.691-17.298-0.952-25.95
	c-0.486-16.136-0.631-32.28-0.654-48.426c-0.377-19.542-0.741-38.412-1.179-56.281c-2.447-17.622-3.511-34.716-3.386-52.583
	c0.074-10.629-0.902-20.95-0.73-31.286c-0.83-4.552-1.186-9.126-1.525-13.707c-2.905-13.126-6.633-26.925-9.876-39.438
	c-1.055-0.762-2.171-1.468-3.326-2.138c-5.239-1.127-10.545-1.998-15.836-2.917c-10.356-1.8-20.669-4.197-30.763-7.141
	c-5.145-1.501-10.348-3.152-15.479-5.034c-4.515-1.065-8.826-2.316-12.787-3.889c-8.897,15.147,1.774,15.477,4.602,29.569
	c4.474-0.116,3.569-5.171,4.602-8.449c19.366-12.721,39.673,19.054,59.79,4.224c-4.175,113.442,32.111,293.194,13.799,418.192
	c11.155,28.56,2.369,83.154,9.934,116.157c5.938-0.03,11.843,0.218,17.76,0.716c-4.221-18.3-6.752-37.016-8.597-55.666
	C521.556,593.937,524.003,548.729,523.472,503.604z"/>
<path fill="#E3CEBD" d="M401.12,227.123c2.546-7.524,2.365-17.545,9.2-21.121c10.768-1.375,4.469-18.425,13.796-21.121
	c-1.719,16.297,8.522,77.509-9.197,92.932C415.986,255.712,398.856,250.322,401.12,227.123z"/>
<path fill="#928B80" d="M198.75,362.295c3.676-16.759-21.177-45.816,0-63.362c14.492,14.603-7.738,99.3,13.797,80.259
	c2.348,12.348-2.563,39.437-9.199,29.569C201.085,393.943,196.492,381.266,198.75,362.295z"/>
<path fill="#FFFFFF" d="M447.116,476.347c-10.63-14.179-1.612-46.394-4.602-67.586c1.533,0,3.067,0,4.602,0
	c0.383-6.688-2.212-16.115,4.598-16.896c0,4.225,0,8.447,0,12.673C449.421,427.77,456.786,459.879,447.116,476.347z"/>
<path fill="#E3CEBD" d="M309.135,476.347c35.154,34.861-34.867,132.919-82.789,139.397c-50.767-39.282-0.803-120.69,27.596-152.069
	c-2.928-21.247-22.249-27.439-18.397-54.914c25.152,16.325,40.891,41.295,68.989,54.914
	C293.276,464.142,303.559,477.641,309.135,476.347z"/>
<path fill="#E9E6E6" d="M451.714,489.02c-3.58-0.935-5.349-3.536-4.598-8.447c0-1.408,0-2.815,0-4.226
	c9.67-16.468,2.305-48.577,4.598-71.81c1.533,0,3.066,0,4.602,0c0,5.632,0,11.265,0,16.896
	C453.325,442.625,462.345,474.841,451.714,489.02z"/>
<path fill="#E3CEBD" d="M184.951,484.797c-2.299,13.287,10.025,16.51,0,25.344c-17.308-1.793-9.971-83.162-4.6-105.604
	c0,14.08,0,28.16,0,42.241C183.203,458.241,174.513,480.303,184.951,484.797z"/>
<path fill="#E3CEBD" d="M456.314,421.434c6.489,21.742,11.113,95.204-4.602,97.156c-2.803-0.243-5.443-0.634-4.598-4.225
	c0-2.816,0-5.633,0-8.448c-1.032-7.986,5.186-9.317,4.598-16.897C462.345,474.841,453.325,442.625,456.314,421.434z"/>
<path fill="#D3AC9C" d="M281.538,603.073c16.498-14.417,18.271-42.363,36.795-54.916c23.5,21.704-16.721,27.402-4.6,46.467
	c25.416-3.097,34.058-13.415,41.394,12.672c-10.73,0-21.463,0-32.195,0c-21.108-1.095-22.224-4.487-41.394,0
	C281.538,605.887,281.538,604.48,281.538,603.073z"/>
<path fill="#E9E6E6" d="M166.554,696.004c1.736-23.338-9.295-35.714,4.599-50.689C168.219,660.923,177.106,687.39,166.554,696.004z"
	/>
<path fill="#E3CEBD" d="M230.945,197.553c-3.671-7.892-7.684-15.472-9.199-25.345c14.146-8.129,20.596-23.326,41.395-25.345
	c14.93,9.318-27.141,36.12-27.596,59.139C234.514,202.724,235.418,197.669,230.945,197.553z"/>
<path fill="#E3CEBD" d="M322.932,607.296c-10.887,9.714-41.28,1.513-59.791,4.226c3.024-5.672,9.833-7.866,18.397-8.447
	c0,1.406,0,2.813,0,4.223C300.708,602.809,301.822,606.201,322.932,607.296z"/>
<path fill="#928B80" d="M442.516,370.744c-10.156,0.527-1.953,17.919-4.601,25.345c-13.019-0.693,3.821,26.037-9.197,25.345
	c6.134-30.791-24.446-128.573,32.194-126.725c-0.777,21.815,2.852,47.677-4.598,63.363
	C446.814,348.974,438.898,356.246,442.516,370.744z"/>
</svg>
