<?xml version="1.0" encoding="utf-8"?>
<!-- Generator: Adobe Illustrator 15.0.0, SVG Export Plug-In . SVG Version: 6.00 Build 0)  -->
<!DOCTYPE svg PUBLIC "-//W3C//DTD SVG 1.1//EN" "http://www.w3.org/Graphics/SVG/1.1/DTD/svg11.dtd">
<svg version="1.1" id="Capa_1" xmlns="http://www.w3.org/2000/svg" xmlns:xlink="http://www.w3.org/1999/xlink" x="0px" y="0px"
	 width="612px" height="792px" viewBox="0 0 612 792" enable-background="new 0 0 612 792" xml:space="preserve">
<path fill="#362F30" d="M314.767,112.068c26.562,8.447,45.769,33.117,30.413,56.257
	C304.529,173.138,290.846,120.186,314.767,112.068z"/>
<path fill="#E9E6E6" d="M83.508,341.493c-0.089,4.703-0.392,9.404-0.754,14.105C83.89,351.781,83.851,346.79,83.508,341.493z"/>
<path fill="#E9E6E6" d="M82.486,323.423c0.054-1.927,0.223-3.74,0.562-5.381c-0.39,0.237-0.743,0.513-1.078,0.805
	C82.133,320.373,82.306,321.898,82.486,323.423z"/>
<path fill="#D44C7B" d="M330.016,426.359C301.457,447.002,285.423,420.713,330.016,426.359L330.016,426.359z"/>
<path fill="#D44C7B" d="M416.67,426.359c0,2.891,0,5.778,0,8.666c-20.221,0-40.438,0-60.658,0
	C360.254,416.16,398.357,431.156,416.67,426.359z"/>
<path fill="#928B80" d="M221.696,97.072c19.779-10.55,22.691-37.968,51.993-38.995c5.778,0,11.555,0,17.332,0
	c-0.699,5.078-7.898,3.656-12.999,4.333c-10.775-0.671-13.41,6.804-21.663,8.666C241.645,76.582,239.947,95.103,221.696,97.072z"/>
<path fill="#541C28" d="M343.012,62.41c-21.691,2.916-33.537-4.012-51.992-4.333c-0.699,5.078-7.898,3.656-12.998,4.332
	c14.284,23.186,66.207,22.249,77.806,13.14c-4.321-2.886-8.589-5.826-12.816-8.806V62.41z"/>
<path fill="#541C28" d="M472.996,123.068c-47.966-6.84-84.133-25.476-117.008-47.411c-7.733,80.042-10.254,199.604-51.97,259.715
	c-29.952-74.034-47.542-160.429-47.66-264.297c-14.714,5.507-16.412,24.028-34.663,25.997c-7.648,5.871-17.288,9.751-28.073,12.484
	c-2.54,1.22-5.195,2.262-7.965,3.086c-9.075,2.698-17.583,6.79-26.411,10.148c-4.141,1.576-8.411,2.688-12.664,3.848
	c-1.465,1.814-3.002,3.586-4.647,5.297c-2.583,2.688-5.422,5-8.442,6.96c-29.386,50.018-43.683,117.99-50.131,193.526
	c0.51,8.809-0.161,17.609-0.863,26.411c-0.123,1.538-0.594,2.841-1.296,3.918c-6.462,111.111,1.297,235,1.844,340.904h38.994
	c36.784-38.317,9.321-140.883,25.997-199.308V487.02c3.988-42.289,1.275-91.289,8.038-130.81
	c-0.056-6.573-0.054-13.149,0.265-19.708c-0.423-4.66-0.525-8.997,1.068-11.641c1.483-9.523,4.256-19.807,1.709-28.902
	c-0.907-3.239,0.121-5.865,2.01-7.6c1.184-6.223,4.548-10.266,12.908-9.314c25.318,88.862,8.1,193.694-17.332,255.633
	c-0.519,12.479,2.369,28.365-4.333,34.662v25.996c26.087,23.017,73.848,24.361,121.316,25.996
	c4.475-12.857,29.116-5.545,30.33-21.664c16.586,9.41,36.642,15.351,56.326,21.664h12.998c29.174-8.377,71.391-3.711,90.988-21.664
	c-6.381-51.388-16.063-99.478-30.328-142.979c-3.375-0.959-5.039-3.628-4.334-8.666c-15.662-35.136-0.152-85.375,8.666-121.316
	v-30.33c13.685,0.757,11.746,17.14,12.996,30.33c14.117,110.09,19.432,228.979,21.666,350.953c3.373,0.959,5.037,3.627,4.332,8.664
	c11.746,5.586,24.06,10.602,43.328,8.666c0.726-5.049,6.848-4.705,12.996-4.332C530.443,484.451,548.209,257.271,472.996,123.068z
	 M416.67,435.025h-60.658c4.242-18.865,42.346-3.869,60.658-8.666V435.025z"/>
<path fill="#541C28" d="M330.016,426.359C285.423,420.713,301.457,447.002,330.016,426.359L330.016,426.359z"/>
<path fill="#E3CEBD" d="M273.688,58.077c17.879-10.499,53.696-1.823,69.323,4.333c-21.69,2.917-33.537-4.011-51.992-4.333
	C285.243,58.077,279.466,58.077,273.688,58.077z"/>
<path fill="#362F30" d="M256.358,71.075c8.253-1.862,10.888-9.337,21.663-8.666c14.358,23.306,66.752,22.239,77.99,12.999
	c-7.752,80.043-10.233,199.792-51.994,259.964C274.067,261.338,256.477,174.943,256.358,71.075z M338.68,166.396
	c8.75-17.822-2.194-36.823-17.33-43.328C307.719,129.32,315.516,170.103,338.68,166.396z"/>
<ellipse fill="#D44C7B" cx="302.986" cy="355.833" rx="13.153" ry="10"/>
<ellipse fill="#D44C7B" cx="306.184" cy="429.973" rx="13.153" ry="10"/>
<ellipse fill="#D44C7B" cx="309.517" cy="512.639" rx="13.153" ry="10"/>
</svg>
