<?xml version="1.0" encoding="utf-8"?>
<!-- Generator: Adobe Illustrator 15.0.0, SVG Export Plug-In . SVG Version: 6.00 Build 0)  -->
<!DOCTYPE svg PUBLIC "-//W3C//DTD SVG 1.1//EN" "http://www.w3.org/Graphics/SVG/1.1/DTD/svg11.dtd">
<svg version="1.1" id="Capa_1" xmlns="http://www.w3.org/2000/svg" xmlns:xlink="http://www.w3.org/1999/xlink" x="0px" y="0px"
	 width="612px" height="792px" viewBox="0 0 612 792" enable-background="new 0 0 612 792" xml:space="preserve">
<path fill="#928B80" d="M364.389,109.785c-8.678,17.113-28.99,9.258-28.978-11.591C353.25,93.879,346.551,114.1,364.389,109.785z"/>
<path fill="#E3CEBD" d="M410.749,179.325c25.344,5.781,3.907,55.371-17.385,52.157C383.688,211.486,402.675,197.646,410.749,179.325
	z"/>
<path fill="#E3CEBD" d="M410.749,260.456c0-1.931,0-3.863,0-5.794c6.503-1.223,9.024-6.429,11.59-11.59
	c11.649,6.46,6.654,44.822,0,52.156C407.533,294.578,410.839,275.82,410.749,260.456z"/>
<path fill="#928B80" d="M347.002,260.456c-1.388,10.195-9.968,13.206-23.18,11.592c1.327-10.271-5.842-29.021,11.589-23.182
	c4.695,1.102,5.78,5.811,11.591,5.795C347.002,256.593,347.002,258.525,347.002,260.456z"/>
<path fill="#928B80" d="M265.871,260.456c5.954,19.469-18.019,9.024-28.974,11.592c-1.744-15.273,8.028-19.016,23.179-17.386
	C265.01,253.598,265.547,256.926,265.871,260.456z"/>
<path fill="#E3CEBD" d="M167.354,295.227c20.888,1.321-0.067,51.402-11.589,57.951C137.594,334.623,162.253,309.73,167.354,295.227z
	"/>
<path fill="#E9E6E6" d="M312.233,301.021c3.861,0,7.727,0,11.589,0c-1.057,4.929,2.263,5.464,5.795,5.796c0,3.864,0,7.728,0,11.59
	c-4.919-1.064-5.463,2.264-5.795,5.796c-3.862,0-7.728,0-11.589,0c1.07-4.928-2.259-5.464-5.798-5.796c0-3.863,0-7.727,0-11.59
	C311.373,307.882,311.908,304.554,312.233,301.021z"/>
<path fill="#E3CEBD" d="M387.566,306.817c20.69,4.921,0.702,14.276,5.798,34.77c-25.021,3.774-32.478-10.013-46.362-17.384
	C357.944,317.668,373.277,321.396,387.566,306.817z"/>
<path fill="#FFFFFF" d="M178.944,335.793c7.871-1.796,4.814-14.51,5.796-23.18c8.384,1.388,13.478,47.688-5.796,40.564
	c0-3.864,0-7.727,0-11.59C178.944,339.655,178.944,337.725,178.944,335.793z"/>
<path fill="#928B80" d="M271.667,382.153c-1.389,10.195-9.968,13.205-23.182,11.59c-1.297-4.497-0.15-11.431-5.794-11.59
	c7.093-8.255,22.124-13.167,28.976-5.795C271.667,378.29,271.667,380.222,271.667,382.153z"/>
<path fill="#928B80" d="M323.822,370.564c22.893-1.111,31.979,28.446,0,23.179C323.822,386.017,323.822,378.29,323.822,370.564z"/>
<path fill="#E9E6E6" d="M457.108,556.006c-39.45-32.017-35.503-107.436-52.155-162.263
	C434.163,432.604,453.405,510.808,457.108,556.006z"/>
<path fill="#D3AC9C" d="M225.305,422.72c4.468,71.405,17.545,217.218-11.59,295.55C193.343,641.551,229.592,521.885,225.305,422.72z
	"/>
<path fill="#928B80" d="M370.183,654.521c0-3.863,0-7.727,0-11.591c0-38.634,0-77.268,0-115.899
	c3.594-15.727-7.35-45.992,5.796-52.156c-0.56,75.895,9.991,140.682,5.796,220.212C367.857,714.188,384.972,653.716,370.183,654.521
	z"/>
<path fill="#D3AC9C" d="M144.175,498.056c16.465,16.843-9.056,40.882-5.795,63.745C122.986,546.017,139.874,513.357,144.175,498.056
	z"/>
<path fill="#D3AC9C" d="M462.905,503.851c9.688,15.425,21.625,28.6,17.383,57.95C466.956,550.023,464.745,527.128,462.905,503.851z"
	/>
<path fill="#E9E6E6" d="M115.199,584.982c39.253,24.461-56.879,103.096,5.795,115.9c1.932,0,3.863,0,5.795,0
	c75.6,43.613,207.771,2.573,312.933,5.795c3.866,0,7.73,0,11.594,0c16.419-0.967,24.153-10.625,40.565-11.592
	c-5.677-49.076-35.284-102.893-34.771-139.081c6.203,11.19,11.093,23.688,34.771,17.386c21.052-0.195,15.06-27.437,28.975-34.771
	c-63.264-133.422-57.626-301.767-57.949-446.222c-34.909-19.182-81.523-26.651-104.313-57.951
	c38.014,19.936,78.368,37.532,115.9,57.951c20.854,110.552-2.423,268.203,28.976,382.476
	c10.188,37.049,50.192,96.403-23.182,104.313c0.062,48.23,24.236,72.354,23.182,121.695
	c-124.429,15.982-315.207,51.921-411.452-5.797C91.98,653.421,125.333,617.806,115.199,584.982z"/>
<path fill="#E3CEBD" d="M265.871,40.243c30.214,5.207,53.907-0.512,86.926-5.794c1.932,0,3.865,0,5.797,0
	c22.788,31.3,69.402,38.77,104.313,57.951c0.322,144.455-5.313,312.8,57.949,446.222c-13.915,7.334-7.923,34.574-28.975,34.771
	c-23.68,6.302-28.569-6.194-34.771-17.386c-0.513,36.188,29.096,90.005,34.771,139.081c-16.412,0.967-24.146,10.625-40.565,11.592
	c-4.112-88.602-26.153-159.281-40.565-237.599c-0.833,66.546,17.973,163.583,28.973,237.599
	c-105.161-3.222-237.333,37.818-312.933-5.795c35.993-76.053,36.809-187.275,57.951-278.164
	c-38.257,75.706-41.365,186.575-63.747,278.164c-62.674-12.806,33.458-91.439-5.795-115.9c-8.421-8.966-29.662-5.104-46.36-5.795
	c0-1.933,0-3.864,0-5.797c-14.684-13.092-8.813-39.901-5.795-57.95c21.399-127.719,75.811-281.771,81.131-428.836
	c47.123-5.041,71.759-32.553,110.106-46.362c-4.995,28.184,16.601,29.769,11.59,57.951c-18.699,7.712-42.996,16.231-63.745,5.795
	c38.499,21.453-2.807,90.443,52.155,98.517c17.324-12.134-0.86-37.313-11.59-40.565c2.565-16.759,12.224-26.418,28.976-28.975
	c10.291,32.205,35.796,49.198,57.95,69.541c23.059-23.814,17.859-50.044,5.794-81.132c21.295,23.565,63.589-1.961,75.338-23.18
	c-23.86,13.431-50.722,12.722-69.542-5.794c-22.44-5.056-9.463,25.3-34.771,17.386c-7.483,22.938,19.075,11.832,11.592,34.771
	c-26.741-13.998,8.873,9.054-5.794,11.59C288.749,137.93,273.659,90.075,265.871,40.243z M404.953,393.743
	c16.652,54.827,12.705,130.246,52.155,162.263C453.405,510.808,434.163,432.604,404.953,393.743z M329.617,69.219
	c9.023-1.509,4.021-12.707,0-17.385c10.277-1.32,29.021,5.84,23.18-11.591c-13.975,3.744-52.109,13.115-46.359,17.386
	c-1.569,11.945-25.655,1.381-23.181,17.386c8.428,8.964,29.67,5.101,46.36,5.794C329.617,76.945,329.617,73.082,329.617,69.219z
	 M393.364,231.481c21.292,3.214,42.729-46.375,17.385-52.157C402.675,197.646,383.688,211.486,393.364,231.481z M178.944,289.432
	c27.717-16.858,8.166-67.994-5.795-92.721C176.923,225.784,165.559,269.979,178.944,289.432z M306.438,214.096
	c-10.262-5.183-7.38-23.52-28.976-17.385c0,5.795,0,11.59,0,17.385C287.784,210.633,301.532,231.081,306.438,214.096z
	 M410.749,260.456c-19.877,24.464,17.847,58.948,23.18,92.722c8.761,55.4-7.991,113.005,28.978,144.878
	c-6.21-98.094-22.329-186.289-23.185-289.755c-23.064,2.038-15.495,34.718-28.973,46.361
	C410.749,256.593,410.749,258.525,410.749,260.456z M404.953,312.613c-0.121,29.096-2.263,60.222,17.386,69.54
	C422.096,353.419,426.834,319.706,404.953,312.613z M335.411,248.866c-12.782-21.112-25.972,21.174-11.589,28.976
	c15.361,5.04,35.17-14.156,23.18-17.386c0-1.931,0-3.863,0-5.794C341.191,254.677,340.106,249.968,335.411,248.866z
	 M260.076,254.662c-8.48-15.468-31.797,2.43-28.975,17.386c7.742,8.269,32.838,8.269,40.566,0
	c-1.298-4.499-0.151-11.433-5.796-11.592C265.547,256.926,265.01,253.598,260.076,254.662z M178.944,335.793
	c0,1.932,0,3.862,0,5.794c-8.594,20.541-27.994,60.646-11.59,86.926c2.505-43.84,53.221-94.812,17.386-139.082
	C186.023,308.093,174.494,313.956,178.944,335.793z M155.765,353.178c11.521-6.549,32.477-56.63,11.589-57.951
	C162.253,309.73,137.594,334.623,155.765,353.178z M306.438,306.817c0,3.864,0,7.728,0,11.59c3.538,0.332,6.867,0.868,5.797,5.796
	c3.861,0,7.727,0,11.589,0c0.332-3.532,0.876-6.86,5.795-5.796c0-3.863,0-7.727,0-11.59c-3.532-0.332-6.852-0.867-5.795-5.796
	c-3.862,0-7.728,0-11.589,0C311.908,304.554,311.373,307.882,306.438,306.817z M347.002,324.204
	c13.886,7.371,21.341,21.158,46.362,17.384c-5.096-20.494,14.894-29.849-5.798-34.77
	C373.277,321.396,357.944,317.668,347.002,324.204z M370.183,654.521c-10.954,36.265,9.913,70.959,40.566,46.361
	c-22.76-74.416-40.083-233.771-28.976-341.91c9.311,10.013,2.806,35.827,17.383,40.566c-1.418-17.893-5.869-32.764-11.59-46.362
	c-54.153-38.06-150.292,19.063-185.441-40.564c0,11.59,0,23.18,0,34.769c21.46-7.56,37.291,16.148,57.95,11.592
	c-9.28,11.968-34.19,8.3-34.771,28.975c9.524-0.271,19.378,9.252,40.566,11.592c-3.093-8.348,22.591-14.142,5.796-17.387
	c0-1.932,0-3.863,0-5.795c-14.232-26.086,70.431-32.129,86.927-11.59c14.337,82.248-3.631,196.806,11.589,278.163
	C370.183,646.796,370.183,650.658,370.183,654.521z M323.822,393.743c31.979,5.268,22.893-24.29,0-23.179
	C323.822,378.29,323.822,386.017,323.822,393.743z M260.076,411.129c1.087,10.059,3.638,44.074,11.591,63.746
	c28.643-23.519,62.765-41.546,81.13-75.335c-36.687-3.487-46.685,48.578-81.13,17.385c12.479-5.236,44.987-20.247,28.975-34.771
	c-0.966,6.754-9.16,6.293-17.385,5.795C294.047,414.185,262.43,398.022,260.076,411.129z M213.715,718.27
	c29.135-78.332,16.058-224.145,11.59-295.55C229.592,521.885,193.343,641.551,213.715,718.27z M138.38,561.801
	c-3.261-22.862,22.26-46.902,5.795-63.745C139.874,513.357,122.986,546.017,138.38,561.801z M480.288,561.801
	c4.242-29.352-7.695-42.525-17.383-57.95C464.745,527.128,466.956,550.023,480.288,561.801z"/>
<path fill="#D3AC9C" d="M439.722,706.679c-11-74.016-29.806-171.053-28.973-237.599c14.412,78.316,36.453,148.997,40.565,237.599
	C447.452,706.679,443.588,706.679,439.722,706.679z"/>
<path fill="#D3AC9C" d="M254.281,40.243c3.863,0,7.727,0,11.59,0c7.788,49.833,22.878,97.687,46.363,115.903
	c14.667-2.536-20.947-25.588,5.794-11.59c7.483-22.939-19.075-11.832-11.591-34.771c25.308,7.915,12.329-22.441,34.771-17.386
	c18.82,18.517,45.682,19.226,69.542,5.794c-11.749,21.219-54.043,46.746-75.338,23.18c12.065,31.088,17.265,57.317-5.794,81.132
	c-22.154-20.343-47.659-37.336-57.95-69.541c-16.752,2.557-26.411,12.216-28.976,28.975c10.729,3.252,28.914,28.432,11.59,40.565
	c-54.962-8.073-13.657-77.064-52.155-98.517c20.75,10.436,45.046,1.917,63.745-5.795C270.882,70.011,249.286,68.427,254.281,40.243z
	 M335.411,98.194c-0.014,20.849,20.3,28.704,28.978,11.591C346.551,114.1,353.25,93.879,335.411,98.194z M231.101,185.121
	c7.982-0.25,12.729,2.732,17.384,5.795c6.143-21.588-12.193-18.706-17.384-28.976c5.847-0.068,7.289-10.157,0-11.59
	C218.469,162.469,233.998,166.89,231.101,185.121z"/>
<path fill="#928B80" d="M231.101,150.351c7.289,1.433,5.847,11.522,0,11.59c5.191,10.27,23.527,7.387,17.384,28.976
	c-4.655-3.063-9.402-6.045-17.384-5.795C233.998,166.89,218.469,162.469,231.101,150.351z"/>
<path fill="#D3AC9C" d="M277.462,214.096c0-5.795,0-11.59,0-17.385c21.595-6.135,18.714,12.202,28.976,17.385
	C301.532,231.081,287.784,210.633,277.462,214.096z"/>
<path fill="#E3CEBD" d="M410.749,254.662c13.478-11.643,5.907-44.323,28.973-46.361c0.854,103.466,16.975,191.661,23.185,289.755
	c-36.969-31.873-20.217-89.478-28.978-144.878c-5.333-33.773-43.057-68.258-23.18-92.722c0.09,15.364-3.216,34.122,11.59,34.771
	c6.654-7.333,11.649-45.696,0-52.156C419.773,248.232,417.252,253.439,410.749,254.662z"/>
<path fill="#D3AC9C" d="M347.002,260.456c11.99,3.23-7.817,22.426-23.18,17.386c-14.383-7.802-1.193-50.088,11.589-28.976
	c-17.431-5.839-10.262,12.911-11.589,23.182C337.034,273.662,345.614,270.651,347.002,260.456z"/>
<path fill="#D3AC9C" d="M265.871,260.456c5.645,0.159,4.498,7.093,5.796,11.592c-7.728,8.269-32.824,8.269-40.566,0
	c-2.822-14.957,20.494-32.854,28.975-17.386c-15.151-1.63-24.923,2.113-23.179,17.386
	C247.852,269.48,271.824,279.925,265.871,260.456z"/>
<path fill="#E9E6E6" d="M178.944,341.587c0,3.864,0,7.727,0,11.59c19.273,7.124,14.18-39.177,5.796-40.564
	c-0.981,8.669,2.075,21.384-5.796,23.18c-4.451-21.837,7.079-27.7,5.796-46.361c35.834,44.27-14.881,95.242-17.386,139.082
	C150.95,402.232,170.35,362.128,178.944,341.587z"/>
<path fill="#D3AC9C" d="M271.667,382.153c16.795,3.245-8.889,9.039-5.796,17.387c-21.188-2.34-31.042-11.863-40.566-11.592
	c0.581-20.675,25.491-17.007,34.771-28.975c-20.659,4.557-36.49-19.152-57.95-11.592c0-11.589,0-23.178,0-34.769
	c35.148,59.626,131.288,2.505,185.441,40.564c5.721,13.599,10.172,28.47,11.59,46.362c-14.577-4.739-8.072-30.554-17.383-40.566
	c-11.107,108.138,6.216,267.494,28.976,341.91c-30.653,24.599-51.521-10.098-40.566-46.361c14.789-0.807-2.324,59.664,11.592,40.564
	c4.195-79.53-6.354-144.317-5.797-220.212c-13.145,6.164-2.201,36.431-5.795,52.156c0,38.633,0,77.267,0,115.899
	c-15.22-81.356,2.748-195.915-11.589-278.163c-16.496-20.54-101.159-14.496-86.927,11.59c-6.853-7.372-21.883-2.46-28.976,5.795
	c5.644,0.159,4.497,7.093,5.794,11.59C261.699,395.358,270.278,392.349,271.667,382.153z"/>
<path fill="#E3CEBD" d="M283.257,387.948c8.225,0.498,16.419,0.959,17.385-5.795c16.013,14.524-16.495,29.534-28.975,34.771
	c34.445,31.193,44.443-20.872,81.13-17.385c-18.365,33.789-52.487,51.816-81.13,75.335c-7.954-19.672-10.504-53.688-11.591-63.746
	C262.43,398.022,294.047,414.185,283.257,387.948z"/>
<path fill="#E9E6E6" d="M422.339,382.153c-19.647-9.318-17.507-40.444-17.386-69.54
	C426.834,319.706,422.096,353.419,422.339,382.153z"/>
<path fill="#D3AC9C" d="M173.149,196.711c13.96,24.728,33.512,75.863,5.795,92.721C165.559,269.979,176.923,225.784,173.149,196.711
	z"/>
<path fill="#D3AC9C" d="M126.789,700.884c-1.932,0-3.863,0-5.795,0c22.381-91.589,25.489-202.458,63.747-278.164
	C163.598,513.607,162.782,624.831,126.789,700.884z"/>
<ellipse fill="#928B80" cx="251.892" cy="266.798" rx="19.775" ry="19.035"/>
<ellipse fill="#928B80" cx="337.597" cy="265.465" rx="19.57" ry="17.702"/>
<ellipse fill="#928B80" cx="256.202" cy="384.5" rx="18.298" ry="20.667"/>
<ellipse fill="#928B80" cx="337.364" cy="386.5" rx="19.803" ry="18.667"/>
<ellipse fill="#928B80" cx="242.691" cy="172.911" rx="20.339" ry="22.56"/>
<ellipse fill="#928B80" cx="337.597" cy="179.325" rx="20.34" ry="22.56"/>
<ellipse fill="#928B80" cx="349.9" cy="108.858" rx="14.489" ry="16.975"/>
</svg>
