<?xml version="1.0" encoding="utf-8"?>
<!-- Generator: Adobe Illustrator 15.0.0, SVG Export Plug-In . SVG Version: 6.00 Build 0)  -->
<!DOCTYPE svg PUBLIC "-//W3C//DTD SVG 1.1//EN" "http://www.w3.org/Graphics/SVG/1.1/DTD/svg11.dtd">
<svg version="1.1" id="Capa_1" xmlns="http://www.w3.org/2000/svg" xmlns:xlink="http://www.w3.org/1999/xlink" x="0px" y="0px"
	 width="612px" height="792px" viewBox="0 0 612 792" enable-background="new 0 0 612 792" xml:space="preserve">
<path fill="#3D0510" stroke="#111010" stroke-miterlimit="10" d="M92.012,231.446c-9.096-3.53-11.845-22.762-4.317-30.222
	c1.439,0,2.878,0,4.317,0C92.012,211.299,92.012,221.372,92.012,231.446z"/>
<path fill="#3D0510" stroke="#111010" stroke-miterlimit="10" d="M101.291,231.714c-0.257-0.643-0.514-1.285-0.769-1.927
	c-1.598-4.017-2.982-8.113-4.193-12.261v22.554c2.71,13.121-5.526,37.187,4.317,43.174
	C98.806,268.13,101.806,248.165,101.291,231.714z"/>
<path fill="#3D0510" stroke="#111010" stroke-miterlimit="10" d="M523.746,231.446c0,4.317,0,8.635,0,12.952
	c0,14.391,0,28.782,0,43.173c-1.439,0-2.877,0-4.316,0C522.201,270.195,513.818,241.666,523.746,231.446z"/>
<path fill="#3D0510" stroke="#111010" stroke-miterlimit="10" d="M126.551,304.841c0-1.438,0-2.878,0-4.317
	c7.589,2.485,25.364-5.217,25.904,4.317c0,1.439,0,2.879,0,4.317C141.229,320.784,139.436,303.88,126.551,304.841z"/>
<path fill="#3D0510" stroke="#111010" stroke-miterlimit="10" d="M156.772,313.476c12.024,12.536-14.172,11.198-8.634,30.222
	c-10.985-0.528-16.741-6.285-17.27-17.27C136.422,319.03,145.057,314.713,156.772,313.476z"/>
<path fill="#3D0510" stroke="#111010" stroke-miterlimit="10" d="M221.532,326.428c6.15-10.012,23.419,5.021,30.222,8.635
	c0,1.439,0,2.878,0,4.317c3.131,13.205-7.449,12.699-4.317,25.904c-11.03-0.483-15.111-7.915-21.587-12.952
	c-6.392,0.804-3.958,10.434-4.317,17.27c-5.835-1.36-8.247-6.145-17.27-4.317c1.766-10.4-7.887-9.383-4.317-21.587
	c5.672-5.543,15.915-5.543,21.586,0C214.342,335.119,221.92,338.205,221.532,326.428z"/>
<path fill="#3D0510" stroke="#111010" stroke-miterlimit="10" d="M532.381,343.697c0-1.439,0-2.878,0-4.317
	C526.613,301.44,556.857,342.017,532.381,343.697z"/>
<path fill="#3D0510" stroke="#111010" stroke-miterlimit="10" d="M484.891,330.745c11.625-16.831,12.119,13.374,25.904,8.635
	c-0.068,7.128-11.975,2.417-12.953,8.635c-4.328,0.011-5.137-3.497-8.635-4.317C489.578,337.569,489.922,331.471,484.891,330.745z"
	/>
<path fill="#3D0510" stroke="#111010" stroke-miterlimit="10" d="M454.668,330.745c4.318,0,8.635,0,12.953,0
	c-3.627,5.009-5.695,11.575-4.318,21.587c-5.756,0-11.512,0-17.269,0c-7.28-13.054-19.399-1.107-25.903-8.635
	c0-2.878,0-5.757,0-8.635c13.626-2.113,15.245,7.78,30.221,4.317C451.318,336.029,450.47,330.863,454.668,330.745z"/>
<path fill="#3D0510" stroke="#111010" stroke-miterlimit="10" d="M480.572,330.745c1.438,0,2.879,0,4.317,0
	c5.031,0.726,4.688,6.824,4.316,12.952c-8.791-8.657-11.502-1.124-17.271,4.317C470.73,338.171,472.979,331.785,480.572,330.745z"/>
<path fill="#3D0510" stroke="#111010" stroke-miterlimit="10" d="M126.551,356.649c0.247,2.631,0.646,5.109,4.317,4.317
	c-3.542,12.288-9.742,21.918-21.587,25.904c-0.489-5.268-1.293-10.221-8.635-8.635c1.36-5.836,6.145-8.247,4.317-17.27
	C115.364,362.731,114.346,353.08,126.551,356.649z"/>
<path fill="#3D0510" stroke="#111010" stroke-miterlimit="10" d="M135.186,395.506c7.533-8.804-3.216-8.467,4.317-17.27
	c17.219-4.267,13.002,12.901,30.221,8.635c-10.518,23.61,10.675,21.918,12.952,43.173c-8.225-1.854-10.844-9.304-21.587-8.635
	c0-7.195,0-14.392,0-21.587c-13.598-2.085-9.776,13.25-25.904,8.635C135.186,404.14,135.186,399.822,135.186,395.506z"/>
<path fill="#3D0510" stroke="#111010" stroke-miterlimit="10" d="M191.311,378.236c1.439,0,2.878,0,4.317,0
	c22.756,3.502,5.7,27.771,25.904,17.27c-4.52,14.188-9.512,27.905-30.221,25.903c-0.708-13.66,11.474-14.432,8.635-30.221
	c-6.071,1.124-4.925,9.466-8.635,12.951c-6.161-1.033-7.28-7.109-12.952-8.634c-3.143-11.777,8.579-8.691,8.635-17.27
	C188.433,378.236,189.872,378.236,191.311,378.236z"/>
<path fill="#3D0510" stroke="#111010" stroke-miterlimit="10" d="M467.621,434.361c-5.672,5.543-15.914,5.543-21.587,0
	c0-2.878,0-5.756,0-8.636c8.579-0.056,5.493-11.776,17.269-8.635C462.336,425.255,468.172,426.615,467.621,434.361z"/>
<path fill="#3D0510" stroke="#111010" stroke-miterlimit="10" d="M156.772,451.631c-9.18,6.987-16.078,2.321-25.904-4.316
	c-0.967-8.162,4.868-9.522,4.317-17.271c14.706-3.192,7.117,15.909,17.269,17.271C152.702,449.944,153.101,452.424,156.772,451.631z
	"/>
<path fill="#3D0510" stroke="#111010" stroke-miterlimit="10" d="M364.005,468.9c-8.163,14.684-15.134-7.394-25.904-4.317
	c1.424-10.091,5.188-17.837,8.636-25.904c7.472,6.92,12.647,16.135,17.27,25.904C361.609,464.571,359.103,468.079,364.005,468.9z"/>
<path fill="#3D0510" stroke="#111010" stroke-miterlimit="10" d="M376.957,455.948c18.213,6.701-0.945-23.972,17.27-17.271
	c0,8.636,0,17.271,0,25.904c-5.757,0-11.514,0-17.27,0C376.957,461.705,376.957,458.826,376.957,455.948z"/>
<path fill="#3D0510" stroke="#111010" stroke-miterlimit="10" d="M420.131,503.439c14.407-12.576-10.647-21.407,0-30.223
	c4.316,0,8.634,0,12.951,0c1.203,8.87,11.529,8.617,17.27,12.952c0,1.438,0,2.878,0,4.317c-12.405,8.104,4.718,25.229,8.636,8.635
	c3.93,11.811,15.127-7.662,21.586,4.316c-5.498,13.199-14.082,2.188-30.222,8.635c0.91,4.847,4.789,6.724,8.636,8.635
	c-11.912,11.53,5.1,9.383,4.315,21.587c-13.192,3.12-15.733-4.413-25.902-4.317c-0.983-7.649,4.351-21.619-8.636-17.27
	c0.012-4.328-3.497-5.138-4.316-8.635C423.48,508.724,424.33,503.557,420.131,503.439z"/>
<path fill="#3D0510" stroke="#111010" stroke-miterlimit="10" d="M238.802,507.756c1.439,0,2.878,0,4.317,0
	c-5.099,6.415-3.738,19.288-17.27,17.271c0-1.438,0-2.878,0-4.317C225.068,511.292,229.386,506.975,238.802,507.756z"/>
<path fill="#3D0510" stroke="#111010" stroke-miterlimit="10" d="M446.034,555.247c-9.079,2.839-19.192,11.429-25.903,4.317
	c-1.484-18.54,15.729-11.683,25.903-8.636C446.034,552.369,446.034,553.808,446.034,555.247z"/>
<path fill="#3D0510" stroke="#111010" stroke-miterlimit="10" d="M126.551,568.199c-4.402,5.672-4.233,15.914-8.635,21.587
	c-14.127-7.381-5.83-24.33-4.317-38.856c9.956-1.32,4.795,12.476,12.952,12.952C126.551,565.321,126.551,566.76,126.551,568.199z"/>
<path fill="#3D0510" stroke="#111010" stroke-miterlimit="10" d="M402.861,550.93c4.873,5.2,12.321,7.825,8.635,21.587
	c-8.163,0.968-9.523-4.867-17.271-4.316C393.018,558.355,395.266,551.97,402.861,550.93z"/>
<path fill="#3D0510" stroke="#111010" stroke-miterlimit="10" d="M195.628,581.151c-17.371-10.845,16.679-28.806,12.952-4.317
	C202.453,576.463,196.354,576.12,195.628,581.151z"/>
<path fill="#3D0510" stroke="#111010" stroke-miterlimit="10" d="M506.477,589.786c5.082,0.675,12.257-0.742,12.953,4.317
	c-6.393,0.804-3.959,10.434-4.317,17.27c0.235,17.511-9.59,24.948-12.951,38.855c-6.189-12.88-22.504,11.35-21.588-8.636
	c1.36-5.835,6.145-8.246,4.317-17.27c2.632-0.247,5.109-0.646,4.316-4.317c13.555,2.041,11.406-11.619,21.588-12.951
	c0.793-3.671-1.688-4.069-4.318-4.316C506.477,598.421,506.477,594.104,506.477,589.786z"/>
<path fill="#3D0510" stroke="#111010" stroke-miterlimit="10" d="M489.207,620.007c3.133-13.204-7.447-12.698-4.316-25.903
	c13.289-3.216,8.297,11.851,21.586,8.636c2.632,0.247,5.111,0.646,4.318,4.316C500.613,608.388,502.762,622.048,489.207,620.007z"/>
<path fill="#3D0510" stroke="#111010" stroke-miterlimit="10" d="M243.119,620.007c9.219,8.82-1.214,17.084-4.317,25.904
	c-17.478-5.964-13.655,9.371-25.904,8.635c0-4.317,0-8.635,0-12.952c1.439,0,2.878,0,4.317,0c-0.95-3.36-3.615-5.02-8.635-4.316
	C218.294,629.716,232.86,627.018,243.119,620.007z"/>
<path fill="#3D0510" stroke="#111010" stroke-miterlimit="10" d="M342.418,654.546c-1.377-10.012,0.691-16.578,4.317-21.587
	c3.474,2.282,7.011,4.503,12.951,4.317C361.688,650.791,355.932,656.547,342.418,654.546z"/>
<path fill="#3D0510" stroke="#111010" stroke-miterlimit="10" d="M446.034,637.276c5.757,0,11.513,0,17.269,0
	C466.705,653.899,442.633,653.899,446.034,637.276z"/>
<path fill="#3D0510" stroke="#111010" stroke-miterlimit="10" d="M402.861,654.546c10.512,2.439,22.205,3.699,21.586,17.271
	C408.264,675.048,403.406,666.953,402.861,654.546z"/>
<path fill="#3D0510" stroke="#111010" stroke-miterlimit="10" d="M174.042,693.402c-5.02-0.703-7.679,0.955-8.635,4.316
	c-11.209-3.255-17.663-24.24-8.635-34.539C167.104,668.679,174.351,677.263,174.042,693.402z"/>
<path fill="#3D0510" stroke="#111010" stroke-miterlimit="10" d="M212.897,667.498c9.815,11.692,14.813,15.347,8.635,34.539
	c-1.068,4.688-8.584,2.929-8.635,8.635c-11.53,0.018-9.382-13.644-21.586-12.952c-9.36,0.726-1.957-15.313-4.317-21.587
	C195.061,672.688,202.807,668.92,212.897,667.498z"/>
<path fill="#3D0510" stroke="#111010" stroke-miterlimit="10" d="M441.717,680.45c-0.096,10.169,7.438,12.71,4.317,25.903
	c-7.161,7.229-25.349,3.436-38.856,4.317c-0.674-5.082,0.742-12.255-4.315-12.952c0-4.316,0-8.635,0-12.952
	c9.69-7.837,28.443-3.523,30.221-8.635C437.41,676.121,438.221,679.629,441.717,680.45z"/>
<path fill="#3D0510" stroke="#111010" stroke-miterlimit="10" d="M346.735,693.402c10.865,1.765,19.833,14.772,12.951,21.587
	c-2.879,0-5.757,0-8.635,0c-2.092-5.101-4.604-9.787-8.635-12.952C342.406,697.708,345.914,696.898,346.735,693.402z"/>
<path fill="#3D0510" stroke="#111010" stroke-miterlimit="10" d="M221.532,702.037c6.459,0.736,15.932-1.541,17.27,4.316
	c6.088,13.784-25.837,10.911-25.904,4.317C212.948,704.966,220.464,706.726,221.532,702.037z"/>
<path fill="#3D0510" stroke="#111010" stroke-miterlimit="10" d="M269.023,702.037c5.234-1.321,14.886,12.474,4.317,12.952
	c-10.012,1.377-16.578-0.691-21.586-4.317c0-1.438,0-2.879,0-4.316C259.916,707.321,261.277,701.486,269.023,702.037z"/>
<path fill="#3D0510" stroke="#111010" stroke-miterlimit="10" d="M532.381,136.465c1.619-30.042-5.914-69.235,25.904-69.077
	c-2.361,6.273,5.043,22.312-4.316,21.586C541.264,42.86,538.975,122.754,532.381,136.465z"/>
<path fill="#3D0510" stroke="#111010" stroke-miterlimit="10" d="M523.746,287.571h-4.316c-4.392,2.151-9.666,3.418-15.398,4.228
	c-3.545,3.562-7.697,6.488-12.27,8.527c4.263-0.577,7.901-1.778,10.398-4.12C510.322,294.289,528.176,302.081,523.746,287.571z"/>
<path fill="#3D0510" stroke="#111010" stroke-miterlimit="10" d="M109.281,598.421c8.995,6.836,1.456,30.204,8.635,38.855
	c16.319,31.991-14.054,66.509,21.587,69.077c0,1.438,0,2.879,0,4.317C85.435,717.249,118.304,636.889,109.281,598.421z"/>
<path fill="#3D0510" stroke="#111010" stroke-miterlimit="10" d="M346.735,719.307c18.962,5.763,35.68-12.919,47.49,0
	c-18.389-3.783-38.301,13.223-51.809,0C343.857,719.307,345.297,719.307,346.735,719.307z"/>
<path fill="#3D0510" stroke="#111010" stroke-miterlimit="10" d="M541.016,244.398c-0.116,26.022-1.344,53.151,4.318,73.395
	c-23.172-13.699-5.566-43.656-8.635-73.395C538.137,244.398,539.576,244.398,541.016,244.398z"/>
<path fill="#3D0510" stroke="#111010" stroke-miterlimit="10" d="M546.655,337.374c0.182-5.321,0.583-10.607,1.146-15.863
	c-0.629-1.433-1.433-2.691-2.468-3.717c-23.172-13.7-5.567-43.657-8.635-73.395c2.479-30.621,1.725-64.474,8.635-90.664
	c-4.83-29.294,6.256-42.674,8.635-64.761c-12.705-46.113-14.994,33.78-21.588,47.491c-1.844,19.743-6.566,36.607-4.318,60.444
	c-2.731,14.538,5.565,40.104-4.317,47.491v43.173c4.43,14.51-13.424,6.718-21.586,8.635c5.391,11.879,25.28,9.259,30.221,21.587
	c-7.049-1.945-7.049,23.532,0,21.587c-5.768-37.94,24.478,2.636,0,4.317c-0.078,13.278,23.256,25.341,8.635,38.856
	c-12.092,6.47-7.1,12.985,0,21.585c2.549-1.248,4.409-3.185,5.746-5.645c1-5.281,1.975-10.568,2.89-15.866V366.62
	C547.341,357.107,546.315,347.344,546.655,337.374z"/>
<path fill="#3D0510" stroke="#111010" stroke-miterlimit="10" d="M84.557,135.008c-0.273-4.155-0.533-8.314-0.813-12.472
	c-0.507-2.075-0.608-4.555-0.521-7.224c-0.441-5.62-0.976-11.23-1.724-16.812c-0.32-2.392-0.184-4.899,0.284-7.423
	c-1.427-1.621-3.637-2.459-7.041-2.104c-13.222,13.509,3.783,33.42,0,51.809c11.72,3.086-3.087-20.355,8.635-17.271
	C81.697,128.331,82.948,133.019,84.557,135.008z"/>
<path fill="#3D0510" stroke="#111010" stroke-miterlimit="10" d="M85.059,142.217c-0.18-2.4-0.343-4.804-0.501-7.209
	c-1.609-1.989-2.86-6.677-1.179-11.496c-11.721-3.085,3.086,20.356-8.635,17.271c-0.568,10.642-0.653,20.8,4.317,25.904
	c6.645-5.719,6.558-3.318,8.19-0.129C86.37,158.447,85.667,150.321,85.059,142.217z"/>
<path fill="#3D0510" stroke="#111010" stroke-miterlimit="10" d="M92.012,240.081c1.439,0,2.878,0,4.317,0
	c2.71,13.121-5.526,37.187,4.317,43.174c0,5.756,0,11.513,0,17.269c-5.942-0.186-9.478,2.035-12.952,4.317
	c3.378-24.965-6.263-36.911-4.317-60.442c4.199,0.118,3.35,5.284,4.317,8.635C92.754,252.336,91.337,245.163,92.012,240.081z"/>
<path fill="#3D0510" stroke="#111010" stroke-miterlimit="10" d="M433.082,425.727c-6.797-2.248-23.121-16.623-30.221-4.316
	c-19.664-3.013-34.157,14.504-25.904,25.904c5.795-2.84,8.039-9.23,8.635-17.271c5.756,0,11.514,0,17.271,0
	c21.854-4.587,21.776,12.761,34.538,17.271c-4.971,5.104-4.887,15.263-4.317,25.903c-4.317,0-8.635,0-12.951,0
	c-10.647,8.814,14.407,17.646,0,30.223c-21.328-8.895-35.73-24.714-56.126-34.539c-4.902-0.821-2.396-4.329,0-4.317
	c4.317,0,8.634,0,12.952,0c5.756,0,11.513,0,17.27,0c0-8.635,0-17.27,0-25.904c-18.215-6.7,0.943,23.972-17.27,17.271
	c-29.176-36.99,44.77-54.682,69.077-30.222c0,2.879,0,5.757,0,8.635c5.673,5.543,15.915,5.543,21.587,0
	c5.52,0.235,5.979,5.532,12.951,4.316c-1.013,26.781-19.332,14.627-30.222,25.904c8.187,6.273,20.535,21.367,8.636,34.539
	c-3.918,16.595-21.041-0.529-8.636-8.635c1.523,6.049,7.601,0.371,8.636-4.317c0.668-12.183-12.205-10.821-17.271-17.27
	c13.756-6.577-9.096-29.604,8.635-25.904C447.412,434.423,437.203,433.119,433.082,425.727z"/>
<path fill="#3D0510" stroke="#111010" stroke-miterlimit="10" d="M364.005,503.439c19.181-0.124,27.286,27.804,38.856,21.586
	c-5.363,14.977-12.56,7.955-21.588,12.951c0.696,5.061,7.87,3.644,12.952,4.317c3.756,16.707-10.547,15.358-12.952,25.904
	c-9.359,0.726-1.955-15.313-4.316-21.587c-23.262,12.457-35.725-9.652-43.174-25.904c1.359-6.948,6.145,0.332,4.316,8.635
	c5.796-2.839,8.039-9.229,8.636-17.27c8.663,1.468,13.509-0.882,12.951-8.634C361.127,503.439,362.565,503.439,364.005,503.439z"/>
<path fill="#3D0510" stroke="#111010" stroke-miterlimit="10" d="M325.148,460.266c12.108,3.723,9.186,22.476,17.27,30.223
	c3.148-8.771,18.253-12.368,25.904-4.317c0.326,7.521-0.967,13.43-4.317,17.271c-1.438,0-2.878,0-4.316,0
	c0.557,7.752-4.289,10.102-12.952,8.634c-1.124-6.071-9.468-4.924-12.952-8.634c0-1.439,0-2.88,0-4.317
	c9.151-1.36,0.934-20.463-8.635-17.271C325.621,471.115,333.238,468.49,325.148,460.266z"/>
<path fill="#3D0510" stroke="#111010" stroke-miterlimit="10" d="M402.861,550.93c-7.597,1.04-9.845,7.427-8.636,17.271
	c-3.672-0.793-4.069,1.687-4.317,4.316c0.979,6.219,12.885,1.508,12.953,8.636c-11.199,6.07-28.56,5.98-38.856,12.952
	c8.089-8.226,0.472-10.846,0-21.587c6.459-0.736,15.931,1.539,17.27-4.317c2.405-10.546,16.708-9.197,12.952-25.904
	c-5.082-0.675-12.256,0.742-12.952-4.316c9.028-4.997,16.225,2.023,21.588-12.952c4.315-7.195,19.967-3.059,21.586-12.952
	c0.819,3.497,4.328,4.307,4.316,8.635C415.313,525.965,412.143,541.503,402.861,550.93z"/>
<path fill="#3D0510" stroke="#111010" stroke-miterlimit="10" d="M389.908,667.498c0.411-6.785-0.578-14.97,8.635-12.952
	c-9.135-8.134-12.26-22.278-34.538-17.27c-7.747-15.279-19.76-26.292-25.904-43.174c2.632,0.247,5.11,0.646,4.317,4.317
	c6.477,14.268,10.557-8.973,21.587-4.317c10.298-6.971,27.657-6.881,38.856-12.951c6.971-1.216,7.432,4.081,12.95,4.316
	c11.783-3.9-13.132-9.658,0-17.27c11.029,0.482,15.111,7.915,21.588,12.952c-1.339,5.856-10.811,3.58-17.27,4.316
	c14.486,22.666,12.568,30.198,12.951,51.809c16.865-11.288,19.281-42.348,25.904-51.809c5.02-0.703,7.686,0.955,8.635,4.317
	c0.072,7.201,14.043,31.524-4.318,30.221c26.035,15.578-21.839,35.523,4.318,47.491c2.924,14.667,14.346,4.232,17.27-4.317
	c20.896,4.627,15.363,42.634-12.953,34.539c2.132-13.554-14.879-11.405-4.315-21.587c-10.17-0.096-12.711,7.438-25.904,4.317
	c-3.496-0.821-4.307-4.329-8.635-4.317c-1.776,5.11-20.529,0.798-30.221,8.635c0,4.317,0,8.636,0,12.952c0,2.878,0,5.756,0,8.636
	c-15.668,4.153-3.627-19.4-17.271-17.271c-1.321-9.956,12.474-4.795,12.951-12.952C397.633,671.287,393.754,669.409,389.908,667.498
	z M463.303,637.276c-5.756,0-11.512,0-17.269,0C442.633,653.899,466.705,653.899,463.303,637.276z M364.005,620.007
	c17.388-16.971,10.72,10.136,25.903,17.271c11.463-4.367,24.561-7.101,25.904-21.586c-21.873,6.043-11.855-19.806-30.222-17.271
	C377.26,604.48,359.164,600.776,364.005,620.007z M424.447,671.815c0.619-13.57-11.074-14.83-21.586-17.271
	C403.406,666.953,408.264,675.048,424.447,671.815z"/>
<path fill="#3D0510" stroke="#111010" stroke-miterlimit="10" d="M325.148,684.768c1.438,0,2.879,0,4.316,0
	c-5.931,13.66-0.938,14.432,0,30.223c11.221,2.586,15.538-1.731,12.952-12.952c4.031,3.165,6.543,7.853,8.635,12.952
	c-3.671-0.793-4.069,1.687-4.316,4.316c-1.438,0-2.878,0-4.317,0c-25.258,3.093-29.49,1.157-56.125,0
	c-5.082-0.675-12.255,0.741-12.952-4.316c10.568-0.479,0.917-14.273-4.317-12.952c0-2.879,0-5.757,0-8.635
	c7.387-0.911,11.182,7.363,12.952,0c1.439,0,2.878,0,4.317,0C283.611,714.641,327.83,702.902,325.148,684.768z"/>
<path fill="#3D0510" stroke="#111010" stroke-miterlimit="10" d="M320.831,645.911c8.241,7.286,18.866,26.461,8.635,38.855
	c-1.438,0-2.878,0-4.316,0c0-4.316,0-8.635,0-12.951c-9.519-1.821-23.813,12.93-12.951,17.27
	c-5.758,13.313-19.198-8.045-25.905,4.317c-1.439,0-2.878,0-4.317,0c1.585-7.342-3.367-8.146-8.635-8.636
	c0.011-2.395-3.497-4.901-4.317,0c-10.737-0.651-1.265-14.622,0-17.27c7.685,2.58,17.927-12.654,21.587,0
	c4.199-0.118,3.351-5.284,4.317-8.635c13.625-2.113,15.246,7.779,30.221,4.316C325.699,655.435,319.864,654.074,320.831,645.911z"/>
<path fill="#3D0510" stroke="#111010" stroke-miterlimit="10" d="M251.754,598.421c0-1.438,0-2.879,0-4.317
	c11.277,7.433-5.414,42.83,21.586,34.538c3.216,13.29-11.85,8.299-8.635,21.587c21.227-3.722,37.293-20.528,56.125-4.316
	c-27.478-4.452-40.014,6.038-56.125,12.952c3.216-13.289-11.85-8.297-8.634-21.587c-12.66,0.293-16.033,9.872-21.587,17.27
	c-10.344-1.709,2.395,19.664-12.952,12.952c-0.191,7.387,3.21,11.182,8.635,12.952c9.062-1.203-6.257-11.53,4.317-17.271
	c7.195,0,14.391,0,21.587,0c2.878,0,5.756,0,8.634,0c3.671-0.793,4.07,1.688,4.317,4.317c-1.265,2.647-10.737,16.617,0,17.271
	c0.821-4.902,4.329-2.396,4.317,0c-6.982,5.97-10.63,15.272-25.904,12.951c-0.703,5.021,0.95,7.68,4.317,8.636
	c0,1.438,0,2.878,0,4.316c-3.845,1.911-7.724,3.788-8.635,8.636c-27.827,3.36-42.516-6.415-69.078-4.317
	c-14.841,1.889-24.201-1.704-34.539-4.317c0-1.438,0-2.879,0-4.316c15.217-1.216,64.412,17.409,51.808-8.636
	c12.204-0.69,10.057,12.97,21.586,12.952c0.067,6.595,31.992,9.468,25.904-4.316c-1.338-5.858-10.81-3.581-17.27-4.317
	c6.178-19.192,1.181-22.847-8.635-34.539c14.824-10.962-18.467-9.973-17.269-21.587c5.037-8.809,11.288,12.548,17.269-4.317
	c0,4.317,0,8.636,0,12.952c12.25,0.736,8.427-14.599,25.904-8.635c3.103-8.82,13.537-17.084,4.317-25.904c0-1.438,0-2.878,0-4.315
	C256.105,620.041,250.77,606.071,251.754,598.421z"/>
<path fill="#3D0510" stroke="#111010" stroke-miterlimit="10" d="M169.724,555.247c-0.472-10.737-8.089-13.362,0-21.587
	c-5.127-9.264-18.703-10.079-25.904-17.271c18.759-1.488,24.094,10.445,38.856,12.952c3.699,13.773-6.796,13.353-8.635,21.587
	c1.125,6.071,9.467,4.925,12.952,8.636c16.078,5.986-12.71,0.651-8.635,8.635C174.328,565.034,171.821,560.352,169.724,555.247z"/>
<path fill="#3D0510" stroke="#111010" stroke-miterlimit="10" d="M186.995,641.594v-8.635c-2.62-7.454-20.48,0.332-21.587-8.635
	c0.478-8.156,14.273-2.996,12.952-12.951c-4.239-5.836-11.519-8.63-17.27-12.952c-2.36,6.273,5.043,22.313-4.317,21.586
	c-15.42-1.848-2.991-31.548-25.904-25.903c-4.655,11.029,18.585,15.11,4.317,21.588c-14.78-6.151-2.03-23.421-8.635-30.223
	c-5.931-9.844,11.13-16.229,0-17.27c-4.402,5.672-4.233,15.914-8.635,21.587c-14.127-7.38-5.829-24.33-4.317-38.856
	c9.956-1.32,4.795,12.475,12.952,12.952v-4.317c-0.68-15.358-22.379-18.91-4.317-30.222c-0.731,10.805,6.633,13.515,12.952,17.271
	c-2.974-14.363,8.927-6.959,12.952-4.317c-1.686-17.022-23.667-13.75-25.904-30.222c8.163-0.967,9.523,4.869,17.27,4.316
	c-13.396-13.945-36.59-18.096-38.856-43.173c4.306-5.768,11.67-8.478,12.952-17.27c-13.262-4.008-7.505-27.034-17.27-34.539
	c3.497-0.82,4.306-4.328,8.635-4.317c12.446,6.454,10.962,67.38,34.539,60.443c-10.569-0.479-0.917-14.273,4.317-12.952
	c8.483,20.074,27.49-4.986,34.539-12.952c-5.672-5.543-15.915-5.543-21.587,0c-9.18,6.988-16.078,2.322-25.904-4.316
	c-0.967-8.163,4.868-9.523,4.317-17.271c14.706-3.192,7.117,15.91,17.269,17.271c9.411-9.028-2.159-12.322,0-25.904
	c-7.791-9.479-31.177-3.361-30.221-21.587c9.573-2.378,6.15,8.241,12.952,8.635v-12.951h-17.27
	c-8.212,24.043,16.398,15.263,17.27,30.222c-8.804-8.675-8.467,1.905-17.27,4.316c-1.333-21.457-15.633-23.296-25.904-25.904
	c-2.002-13.514,3.755-19.271,17.269-17.269c-0.489-5.268-1.293-10.221-8.635-8.635c1.36-5.836,6.144-8.248,4.317-17.27
	c-14.739,1.091-8.792,22.868-21.586,25.904v-56.126c-3.361,0.956-5.02,3.615-4.317,8.635c0,15.047,0,30.094,0,45.141
	c0.351,5.592,0.726,11.185,1.309,16.738c0.349,3.325,0.566,6.672,0.705,10.029c8.063,12.386,2.338,19.733,6.621,40.344
	c13.25,42.876,9.393,102.857,21.586,146.79c8.995,6.835,1.456,30.204,8.635,38.855c4.143-7.369,13.565-9.461,21.587-12.952
	c1.36,5.836,6.144,8.248,4.317,17.27c8.489,1.293,8.562-5.829,12.952-8.635c10.777,7.932,13.863,23.554,30.222,25.904
	C191.121,650.824,174.065,644.433,186.995,641.594z"/>
<path fill="#3D0510" stroke="#111010" stroke-miterlimit="10" d="M515.112,438.679c2.067-13.581-6.151-16.876-8.636-25.903v-17.27
	h12.953c0.967-8.164-4.869-9.524-4.317-17.27c8.274-4.897,26.584-16.607,25.903,4.317c14.621-13.514-8.713-25.578-8.635-38.856
	v-4.317c-7.049,1.945-7.049-23.532,0-21.587c-4.941-12.328-24.83-9.708-30.221-21.587c-2.497,2.342-6.136,3.543-10.398,4.12
	c-4.558,2.032-9.524,3.189-14.718,3.194c-8.792,4.368-17.435,9.068-27.239,10.822c-7.989,1.429-16.049,2.548-24.141,3.269
	c-12.953,5.825-26.488,9.926-39.73,15.02c-7.807,3.893-14.811,9.14-22.112,13.808c10.176,3.364,20.191,6.887,30.408,10.21
	c8.163,0.967,9.522-4.868,17.27-4.317c-6.797-6.415-4.812-19.289,8.635-17.27c13.626-2.114,15.245,7.78,30.222,4.317
	c0.966-3.351,0.117-8.517,4.315-8.635c-0.707-7.083,26.613-7.083,25.904,0h4.318c11.625-16.831,12.118,13.374,25.903,8.635
	c-0.067,7.128-11.974,2.417-12.953,8.635c-4.328,0.011-5.137-3.497-8.635-4.317c-8.791-8.658-11.502-1.124-17.27,4.317
	c-0.949,3.361-3.614,5.019-8.636,4.317h-17.269c-19.653,10.956-40.177,45.922-69.077,21.587
	c-6.483,22.002-29.733,0.595-43.174,4.317c-0.027-6.87,0.553-14.346-0.248-20.442c-19.646,2.557-39.371-0.696-56.869-10.803
	c-5.961-3.443-11.558-7.508-16.801-12.003c-2.228-0.451-4.845-0.513-8.111,0.074v4.317c10.518,6.656,1.389,29.828-4.317,34.539
	c-10.641,0.568-20.8,0.652-25.904-4.317c-5.835-1.36-8.247-6.144-17.27-4.317c-7.752-0.557-10.101,4.289-8.634,12.952
	c22.756,3.502,5.7,27.771,25.904,17.27c-4.519,14.188-9.512,27.905-30.221,25.903c-0.911,4.846-4.79,6.724-8.635,8.635
	c-8.225-1.854-10.844-9.304-21.587-8.635v-21.587c-13.598-2.085-9.776,13.25-25.904,8.635c-6.802-0.394-3.379-11.013-12.952-8.635
	c-0.956,18.226,22.43,12.109,30.221,21.587c-2.159,13.582,9.411,16.876,0,25.904c0.247,2.63,0.646,5.109,4.317,4.316
	c5.672-5.543,15.915-5.543,21.587,0c-7.05,7.966-26.056,33.026-34.539,12.952c-5.234-1.321-14.886,12.473-4.317,12.952
	c-23.577,6.937-22.093-53.989-34.539-60.443c-4.329-0.011-5.138,3.497-8.635,4.317c9.765,7.505,4.009,30.531,17.27,34.539
	c-1.282,8.792-8.646,11.502-12.952,17.27c2.265,25.077,25.46,29.228,38.856,43.173h4.317c18.759-1.488,24.094,10.445,38.856,12.952
	c3.698,13.774-6.797,13.353-8.635,21.587c1.124,6.072,9.467,4.926,12.952,8.636c0.438-10.984,16.088-10.197,21.586-4.317
	c32.403-5.06,34.994,19.692,43.174,38.856c11.276,7.432-5.414,42.83,21.586,34.538c3.216,13.289-11.85,8.298-8.635,21.587
	c21.227-3.722,37.293-20.529,56.125-4.317c8.241,7.286,18.866,26.46,8.635,38.856c-5.931,13.659-0.938,14.431,0,30.222
	c11.222,2.586,15.538-1.731,12.952-12.952c-0.012-4.329,3.496-5.139,4.317-8.635c-0.781-9.416,3.536-13.733,12.952-12.952
	c11.715-11.243,28.023,16.746,30.221-12.952c0.411-6.785-0.578-14.97,8.635-12.952c-9.135-8.134-12.26-22.279-34.538-17.27
	c-7.747-15.279-19.759-26.292-25.904-43.174c2.631,0.247,5.11,0.646,4.317,4.317c6.478,14.269,10.557-8.972,21.587-4.317
	c8.089-8.225,0.473-10.845,0-21.587c6.459-0.735,15.932,1.54,17.27-4.316c-9.359,0.726-1.955-15.314-4.316-21.587
	c-23.262,12.457-35.725-9.652-43.174-25.904c1.359-6.948,6.144,0.332,4.316,8.635c5.797-2.839,8.039-9.23,8.636-17.27
	c-1.124-6.071-9.468-4.924-12.952-8.634v-4.317c-35.691,18.1-54.849-31.358-25.904-43.174c8.163-0.967,9.524,4.868,17.271,4.316
	c12.109,3.723,9.186,22.476,17.27,30.223c3.148-8.77,18.253-12.368,25.904-4.317c0.327,7.522-0.966,13.43-4.317,17.271
	c19.181-0.124,27.286,27.804,38.856,21.586c4.315-7.195,19.967-3.058,21.586-12.952c-0.966-3.351-0.117-8.518-4.316-8.634
	c-21.328-8.894-35.73-24.714-56.126-34.539c-8.163,14.684-15.133-7.393-25.904-4.317c1.424-10.091,5.189-17.837,8.636-25.904
	c7.472,6.92,12.648,16.134,17.27,25.904h12.952v-8.635c-29.176-36.991,44.77-54.681,69.077-30.222
	c8.58-0.057,5.494-11.778,17.269-8.636c-0.967,8.164,4.869,9.524,4.318,17.271c5.519,0.235,5.98,5.531,12.951,4.316
	c-1.012,26.781-19.332,14.627-30.221,25.904c8.186,6.273,20.534,21.367,8.635,34.539c3.93,11.81,15.127-7.662,21.586,4.317
	c-5.498,13.198-14.082,2.187-30.221,8.634c0.909,4.847,4.788,6.724,8.635,8.635c5.103-4.968,15.261-4.884,25.903-4.317
	c16.358,15.488,33.538,50.809,17.271,73.396h4.316c5.081,0.674,12.256-0.743,12.952,4.317c8.181,7.492,4.767-39.992,0-47.491
	c8.488,1.293,8.561-5.829,12.951-8.636c-0.116-8.84,1.074-16.374,2.328-23.844c-1.725-15.137-1.673-30.534,0.087-45.923
	c1.664-14.551,4.176-28.937,6.888-43.283c-0.088-2.477-0.295-5.072-0.669-7.835C525.995,417.902,521.825,429.561,515.112,438.679z
	 M346.736,632.959c3.473,2.282,7.011,4.503,12.951,4.317c2,13.515-3.756,19.271-17.269,17.27
	C341.042,644.534,343.11,637.968,346.736,632.959z M243.119,507.756c-5.098,6.415-3.738,19.288-17.269,17.27
	c-36.596-5.452-11.743-33.245,12.952-34.538C242.152,494.326,243.445,500.235,243.119,507.756z M269.023,568.199
	c-13.772-2.563-13.351,8.101-21.586,0c-1.974-13.492,9.224-13.801,21.586-12.952V568.199z M269.023,425.727
	c0,2.879,0,5.757,0.001,8.635c-7.887,0.191-27.63-9.118-17.269-12.952c3.636-12.192,19.765-11.895,21.586-25.903
	c9.264,6.477-3.092,10.557,4.317,21.586C270.316,415.507,269.512,420.459,269.023,425.727z"/>
<path fill="#3D0510" stroke="#111010" stroke-miterlimit="10" d="M420.13,343.697v-8.635c-13.448-2.018-15.432,10.856-8.635,17.27
	c-1.322,13.491,12.473-10.974,12.951,4.317c-7.387,29.48-51.139,19.372-60.442,8.635c5.706-0.051,3.946-7.567,8.634-8.635
	c10.515-3.851,22.205,19.254,21.588,0c-10.215-3.323-20.23-6.846-30.404-10.209c-6.843,4.374-13.945,8.24-22.225,9.985
	c-2.682,0.565-5.372,1.019-8.063,1.369c0.801,6.096,0.221,13.572,0.248,20.442c13.441-3.721,36.691,17.685,43.174-4.317
	c28.9,24.335,49.424-10.631,69.077-21.587C438.753,339.278,426.634,351.224,420.13,343.697z"/>
<path fill="#3D0510" stroke="#111010" stroke-miterlimit="10" d="M87.695,304.841c3.474-2.282,7.01-4.503,12.952-4.317
	c4.317,0,8.635,0,12.952,0s8.635,0,12.952,0c0,1.439,0,2.879,0,4.317c-11.513,0-23.026,0-34.539,0
	c0.703,5.021-0.956,7.68-4.317,8.635C87.695,310.598,87.695,307.72,87.695,304.841z"/>
<path fill="#3D0510" stroke="#111010" stroke-miterlimit="10" d="M87.695,313.476c3.361-0.955,5.02-3.614,4.317-8.635
	c11.513,0,23.025,0,34.539,0c12.885-0.961,14.678,15.943,25.904,4.317c25.916-3.412,35.304,0.287,60.443,8.635
	c-19.333,8.354-20.535,25.961-21.586,43.174c-24.482,4.199-46.389-16.758-64.76-4.317c-12.205-3.569-11.187,6.082-21.587,4.317
	c-14.74,1.091-8.792,22.868-21.586,25.904c0-18.709,0-37.417,0-56.126C86.733,326.905,88.021,320.997,87.695,313.476z
	 M130.868,326.428c0.528,10.984,6.285,16.741,17.27,17.27c-5.538-19.023,20.659-17.686,8.634-30.222
	C145.057,314.713,136.422,319.03,130.868,326.428z"/>
<path fill="#3D0510" stroke="#111010" stroke-miterlimit="10" d="M249.211,324.795c-24.319-11.707-51.895-20.157-83.805-24.272
	c-0.725,5.031-6.824,4.688-12.952,4.317v4.317c25.916-3.412,35.304,0.287,60.443,8.635c-19.332,8.354-20.535,25.961-21.586,43.174
	c-24.482,4.2-46.389-16.757-64.76-4.317c0.247,2.631,0.646,5.11,4.317,4.317c12.176-3.395,57.542-2.957,60.443,17.27h4.317
	c-1.468-8.663,0.882-13.509,8.634-12.952c1.766-10.4-7.887-9.383-4.317-21.587v-8.635c8.235-1.838,7.814-12.334,21.586-8.635
	c6.15-10.011,23.42,5.021,30.222,8.635c3.268-0.587,5.887-0.525,8.115-0.073C256.136,331.788,252.585,328.368,249.211,324.795z"/>
<path fill="#3D0510" stroke="#111010" stroke-miterlimit="10" d="M541.016,382.554c-12.092,6.47-7.1,12.985,0,21.585
	c0,1.439,0,2.879,0,4.317c-10.799,7.898-16.604-0.337-34.539,4.317c0-5.757,0-11.514,0-17.27c4.318,0,8.636,0,12.953,0
	c0.967-8.163-4.869-9.523-4.317-17.27C523.387,373.34,541.695,361.63,541.016,382.554z"/>
<path fill="#3D0510" stroke="#111010" stroke-miterlimit="10" d="M221.532,326.428c0.388,11.777-7.19,8.691,0,17.27
	c-5.672-5.543-15.915-5.543-21.586,0c0-2.878,0-5.757,0-8.635C208.181,333.225,207.76,322.729,221.532,326.428z"/>
<path fill="#3D0510" stroke="#111010" stroke-miterlimit="10" d="M411.496,352.332c-1.322,13.491,12.474-10.974,12.951,4.317
	c-7.388,29.479-51.14,19.372-60.442,8.635c5.706-0.051,3.946-7.566,8.634-8.635c10.515-3.851,22.205,19.254,21.588,0
	C402.389,357.616,403.749,351.781,411.496,352.332z"/>
<path fill="#3D0510" stroke="#111010" stroke-miterlimit="10" d="M130.868,360.967c12.176-3.396,57.542-2.957,60.443,17.27
	c-1.439,0-2.878,0-4.317,0c-0.056,8.578-11.777,5.492-8.635,17.27c5.672,1.523,6.791,7.601,12.952,8.634
	c3.71-3.484,2.563-11.827,8.635-12.951c2.839,15.791-9.343,16.561-8.635,30.221c-0.911,4.846-4.79,6.724-8.635,8.635
	c-2.277-21.255-23.47-19.563-12.952-43.173c-17.219,4.267-13.002-12.901-30.221-8.635c-7.533,8.803,3.215,8.466-4.317,17.27
	c-5.756,0-11.513,0-17.27,0c-8.213,24.043,16.398,15.262,17.27,30.221c-8.803-8.674-8.466,1.906-17.27,4.317
	c-1.333-21.457-15.633-23.296-25.904-25.904c-2.001-13.514,3.755-19.271,17.269-17.269
	C121.126,382.885,127.327,373.255,130.868,360.967z"/>
<path fill="#3D0510" stroke="#111010" stroke-miterlimit="10" d="M251.754,421.409c3.637-12.192,19.765-11.896,21.586-25.903
	c9.265,6.477-3.092,10.557,4.317,21.586c-7.342-1.585-8.146,3.367-8.635,8.635c-5.059-0.696-3.643-7.869-4.317-12.951
	C259.034,414.298,257.915,420.375,251.754,421.409z"/>
<path fill="#3D0510" stroke="#111010" stroke-miterlimit="10" d="M541.684,424.931c0.844-4.46,1.706-8.917,2.569-13.373
	c-0.756-1.356-1.799-2.427-3.237-3.101c-10.799,7.898-16.605-0.337-34.54,4.318c2.485,9.027,10.703,12.322,8.636,25.903
	c6.713-9.118,10.883-20.776,25.903-21.587C541.389,419.855,541.596,422.453,541.684,424.931z"/>
<path fill="#3D0510" stroke="#111010" stroke-miterlimit="10" d="M402.861,421.409c7.1-12.307,23.424,2.068,30.221,4.316
	c-2.131,13.555,14.881,11.406,4.317,21.587c-12.762-4.509-12.684-21.855-34.538-17.27
	C405.514,426.199,408.078,422.32,402.861,421.409z"/>
<path fill="#3D0510" stroke="#111010" stroke-miterlimit="10" d="M433.082,425.727c4.121,7.394,14.33,8.696,17.27,17.271
	c-17.729-3.699,5.121,19.327-8.635,25.904c5.064,6.447,17.938,5.087,17.271,17.27c-1.035,4.688-7.111,10.366-8.636,4.317
	c0-1.439,0-2.879,0-4.317c-5.739-4.335-16.065-4.082-17.27-12.952c-0.568-10.642-0.652-20.8,4.317-25.903
	C447.963,437.133,430.951,439.28,433.082,425.727z"/>
<path fill="#3D0510" stroke="#111010" stroke-miterlimit="10" d="M225.85,525.025c-36.596-5.452-11.743-33.245,12.952-34.538
	c3.351,3.839,4.644,9.747,4.317,17.269c-1.439,0-2.878,0-4.317,0c-0.214-24.188-26.112-5.323-21.587,12.952c2.878,0,5.756,0,8.635,0
	C225.85,522.146,225.85,523.587,225.85,525.025z"/>
<path fill="#3D0510" stroke="#111010" stroke-miterlimit="10" d="M225.85,520.708c-2.878,0-5.756,0-8.635,0
	c-4.525-18.275,21.373-37.142,21.587-12.952C229.386,506.975,225.068,511.292,225.85,520.708z"/>
<path fill="#3D0510" stroke="#111010" stroke-miterlimit="10" d="M148.138,542.295c-1.687-17.021-23.667-13.75-25.904-30.222
	c8.163-0.967,9.523,4.869,17.27,4.316c1.439,0,2.878,0,4.317,0c7.201,7.19,20.777,8.007,25.904,17.271
	c-8.089,8.225-0.472,10.85,0,21.587C159.656,553.803,151.123,550.823,148.138,542.295z"/>
<path fill="#3D0510" stroke="#111010" stroke-miterlimit="10" d="M458.986,520.708c5.104-4.969,15.262-4.885,25.903-4.317
	c16.357,15.487,33.537,50.809,17.271,73.396c1.438,0,2.877,0,4.315,0c0,4.316,0,8.635,0,12.952
	c-13.289,3.215-8.297-11.852-21.586-8.636c-3.131,13.205,7.449,12.699,4.316,25.903c0.793,3.671-1.687,4.07-4.316,4.317
	c-19.651-32.239,18.838-49.16,8.636-73.396c-18.709,1.439-10.035,30.262-21.589,38.856c-1.438,0-2.877,0-4.315,0
	c-0.949-3.362-3.615-5.021-8.635-4.317c-6.623,9.461-9.039,40.521-25.904,51.809c-0.383-21.609,1.535-29.143-12.951-51.809
	c6.459-0.735,15.931,1.54,17.27-4.316c5.673,1.522,6.791,7.601,12.951,8.635c3.316-16.27-5.268-20.637-4.316-34.539
	c0-1.439,0-2.878,0-4.317c-2.807-4.391-9.928-4.464-8.635-12.952c10.169-0.096,12.71,7.438,25.902,4.317
	C464.086,530.091,447.074,532.238,458.986,520.708z M458.986,581.151c11.379,1.304,14.166-5.981,12.95-17.271
	c-10.805-0.54-13.514-8.241-17.27,4.317C459.701,568.925,459.357,575.023,458.986,581.151z"/>
<path fill="#3D0510" stroke="#111010" stroke-miterlimit="10" d="M428.765,520.708c12.985-4.351,7.651,9.619,8.636,17.271
	c-1.293,8.487,5.829,8.562,8.635,12.951c-10.175-3.047-27.388-9.904-25.903,8.636c6.711,7.11,16.824-1.479,25.903-4.317
	c-0.95,13.902,7.634,18.271,4.316,34.539c-6.16-1.034-7.278-7.111-12.951-8.635c-6.477-5.037-10.559-12.47-21.587-12.952
	c-13.133,7.61,11.782,13.368,0,17.27c-5.521-0.235-5.98-5.531-12.951-4.316c-0.068-7.128-11.976-2.417-12.953-8.636
	c0.248-2.631,0.646-5.109,4.317-4.316c7.746-0.551,9.106,5.284,17.271,4.316c3.688-13.762-3.762-16.387-8.635-21.587
	C412.143,541.503,415.313,525.965,428.765,520.708z"/>
<path fill="#3D0510" stroke="#111010" stroke-miterlimit="10" d="M135.186,546.612c-2.974-14.363,8.927-6.959,12.952-4.317
	c2.985,8.528,11.518,11.508,21.586,12.952c2.097,5.104,4.604,9.787,8.635,12.952c16.398,3.749,3.716,36.579,12.952,47.491
	c-3.474-2.283-7.01-4.503-12.952-4.317c-4.239-5.836-11.519-8.63-17.27-12.952C156.12,577.486,145.945,561.757,135.186,546.612z"/>
<path fill="#3D0510" stroke="#111010" stroke-miterlimit="10" d="M126.551,559.564c12.666-9.513,18.534,16.616,21.587,30.222
	c-10.012,1.377-16.578-0.691-21.587-4.317c-5.931-9.844,11.13-16.229,0-17.27c0-1.439,0-2.878,0-4.317
	C126.551,562.443,126.551,561.004,126.551,559.564z"/>
<path fill="#3D0510" stroke="#111010" stroke-miterlimit="10" d="M208.58,555.247c-2.642,31.217,11.333,86.83,43.174,43.174
	c-0.984,7.65,4.351,21.62-8.635,17.271c0,1.438,0,2.878,0,4.315c-10.259,7.011-24.825,9.709-34.539,17.271
	c5.02-0.702,7.685,0.956,8.635,4.316c-1.439,0-2.878,0-4.317,0c-5.981,16.865-12.232-4.49-17.269,4.317
	c-3.497-0.82-4.306-4.328-8.635-4.317c0-2.878,0-5.756,0-8.635c-2.62-7.454-20.479,0.332-21.587-8.635
	c0.478-8.156,14.273-2.996,12.952-12.951c5.942-0.186,9.478,2.034,12.952,4.317c-9.236-10.912,3.446-43.742-12.952-47.491
	c-4.076-7.982,24.712-2.647,8.635-8.635C187.432,548.58,203.083,549.367,208.58,555.247z M208.58,576.834
	c3.727-24.487-30.322-6.526-12.952,4.317C196.354,576.12,202.453,576.463,208.58,576.834z"/>
<path fill="#3D0510" stroke="#111010" stroke-miterlimit="10" d="M126.551,585.469c5.009,3.626,11.575,5.694,21.587,4.317
	c-3.053-13.604-8.921-39.733-21.587-30.222c-0.68-15.358-22.379-18.911-4.317-30.223c-0.731,10.806,6.633,13.516,12.952,17.271
	c10.759,15.145,20.935,30.874,25.904,51.809c-2.361,6.273,5.042,22.313-4.317,21.586c-15.42-1.849-2.991-31.548-25.904-25.902
	c-4.655,11.028,18.585,15.109,4.317,21.587C120.406,609.54,133.156,592.271,126.551,585.469z"/>
<path fill="#3D0510" stroke="#111010" stroke-miterlimit="10" d="M467.621,667.498c-26.157-11.968,21.717-31.913-4.318-47.491
	c18.361,1.305,4.392-23.02,4.318-30.221c1.438,0,2.879,0,4.316,0c11.553-8.597,2.879-37.417,21.588-38.856
	c10.203,24.234-28.287,41.155-8.636,73.396c1.826,9.022-2.957,11.435-4.317,17.27C473.377,647.351,473.867,660.792,467.621,667.498z
	"/>
<path fill="#3D0510" stroke="#111010" stroke-miterlimit="10" d="M532.38,537.977c-4.39,2.807-4.463,9.929-12.951,8.636
	c4.767,7.499,8.181,54.983,0,47.491c-6.392,0.804-3.959,10.434-4.317,17.27c2.514,21.794,17.275,71.157-4.316,77.712
	c-8.063-7.678,3.508-10.973,0-25.904c-10.805,0.54-13.516,8.242-17.27-4.316c5.268-0.489,10.219-1.293,8.635-8.636
	c-6.189-12.879-22.504,11.35-21.589-8.635c-7.195,5.757-6.705,19.198-12.951,25.904c2.924,14.667,14.346,4.234,17.27-4.317
	c20.896,4.627,15.363,42.634-12.952,34.539c2.131-13.554-14.88-11.405-4.316-21.587c-10.17-0.096-12.711,7.438-25.904,4.317
	c-0.096,10.169,7.438,12.71,4.317,25.903c-7.161,7.229-25.347,3.435-38.856,4.317c-0.673-5.082,0.743-12.255-4.315-12.952v8.635
	c-15.668,4.154-3.627-19.4-17.271-17.27c-1.32-9.956,12.474-4.795,12.951-12.952c-0.91-4.846-4.789-6.724-8.635-8.635
	c-2.198,29.698-18.506,1.709-30.222,12.952c27.423,4.237,23.109,40.211,60.443,34.539c0.653,0.026,1.288,0.033,1.934,0.051
	c5.054-2.266,10.617-3.539,16.437-3.539h20.144c24.973-5.639,44.726-16.499,69.421-22.416
	C518.827,632.43,530.665,593.569,532.38,537.977z"/>
<path fill="#3D0510" stroke="#111010" stroke-miterlimit="10" d="M502.16,650.229c3.361-13.906,13.188-21.345,12.951-38.854
	c2.514,21.794,17.274,71.157-4.316,77.712c-8.063-7.679,3.508-10.974,0-25.904c-10.805,0.54-13.516,8.241-17.27-4.316
	C498.793,658.374,503.744,657.57,502.16,650.229z"/>
<path fill="#3D0510" stroke="#111010" stroke-miterlimit="10" d="M385.592,598.421c18.365-2.535,8.349,23.313,30.222,17.271
	c-1.345,14.485-14.441,17.219-25.904,21.586c-15.185-7.135-8.517-34.24-25.903-17.271
	C359.164,600.776,377.26,604.48,385.592,598.421z"/>
<path fill="#3D0510" stroke="#111010" stroke-miterlimit="10" d="M117.916,637.276c4.143-7.369,13.565-9.461,21.587-12.952
	c1.36,5.836,6.144,8.247,4.317,17.27c8.488,1.293,8.562-5.829,12.952-8.635c10.777,7.933,13.863,23.555,30.222,25.904
	c4.126-8.039-12.93-14.432,0-17.271c4.329-0.011,5.138,3.497,8.635,4.317c-1.198,11.614,32.093,10.625,17.269,21.587
	c-10.09,1.422-17.837,5.188-25.904,8.635c2.361,6.273-5.042,22.313,4.317,21.587c12.604,26.044-36.591,7.42-51.808,8.635
	C103.862,703.785,134.235,669.269,117.916,637.276z M156.772,663.181c-9.028,10.3-2.575,31.284,8.635,34.539
	c0.956-3.361,3.615-5.021,8.635-4.316C174.351,677.263,167.104,668.679,156.772,663.181z"/>
<path fill="#3D0510" stroke="#111010" stroke-miterlimit="10" d="M256.071,663.181c-1.108-8.966-18.967-1.181-21.587-8.635
	c5.554-7.396,8.927-16.977,21.587-17.27c-3.216,13.29,11.85,8.298,8.634,21.587c0,1.438,0,2.878,0,4.316
	C261.828,663.181,258.949,663.181,256.071,663.181z"/>
<path fill="#3D0510" stroke="#111010" stroke-miterlimit="10" d="M264.706,658.863c16.111-6.914,28.647-17.404,56.125-12.952
	c-0.967,8.163,4.868,9.522,4.317,17.27c-14.977,3.463-16.596-6.431-30.222-4.316c-0.967,3.351-0.118,8.517-4.317,8.635
	c-3.66-12.654-13.902,2.58-21.587,0c-0.247-2.631-0.646-5.11-4.317-4.317C264.706,661.741,264.706,660.303,264.706,658.863z"/>
<path fill="#3D0510" stroke="#111010" stroke-miterlimit="10" d="M256.071,663.181c-7.196,0-14.392,0-21.587,0
	c-10.574,5.739,4.745,16.066-4.317,17.271c-5.425-1.771-8.826-5.565-8.635-12.952c15.347,6.712,2.608-14.661,12.952-12.952
	C237.104,662,254.963,654.215,256.071,663.181z"/>
<path fill="#3D0510" stroke="#111010" stroke-miterlimit="10" d="M286.292,693.402c6.707-12.362,20.147,8.994,25.905-4.317
	c-10.861-4.34,3.434-19.091,12.951-17.271c0,4.317,0,8.636,0,12.952C327.83,702.902,283.611,714.641,286.292,693.402z"/>
<path fill="#3D0510" stroke="#111010" stroke-miterlimit="10" d="M251.754,706.354c-3.368-0.955-5.02-3.614-4.317-8.635
	c15.273,2.321,18.922-6.981,25.904-12.952c5.268,0.489,10.22,1.293,8.635,8.636c-1.771,7.363-5.565-0.911-12.952,0
	c0,2.878,0,5.756,0,8.635C261.277,701.486,259.916,707.321,251.754,706.354z"/>
<path fill="#3D0510" stroke="#111010" stroke-miterlimit="10" d="M413.915,719.874c1.9-1.445,3.93-2.723,6.06-3.825
	c0.075-0.33,0.135-0.676,0.156-1.06c-37.334,5.672-33.021-30.302-60.443-34.539c-9.416-0.781-13.733,3.536-12.951,12.952
	c10.865,1.765,19.833,14.773,12.951,21.587h-8.635c-3.671-0.793-4.069,1.686-4.316,4.316c18.962,5.763,35.679-12.919,47.49,0
	C399.028,717.733,407.903,720.236,413.915,719.874z"/>
<path fill="#3D0510" stroke="#111010" stroke-miterlimit="10" d="M93.296,205.458c-0.456-2.129-0.874-4.268-1.284-6.407v41.031
	h4.317v-22.554C95.167,213.544,94.165,209.514,93.296,205.458z"/>
<path fill="#3D0510" stroke="#111010" stroke-miterlimit="10" d="M536.699,244.398c2.479-30.621,1.725-64.474,8.635-90.664
	c-2.379,29.282,5.07,68.392-4.318,90.664C539.576,244.398,538.137,244.398,536.699,244.398z"/>
<path fill="#3D0510" stroke="#111010" stroke-miterlimit="10" d="M92.012,201.224v-2.174c-2.06-10.739-3.58-21.6-4.762-32.494
	c-1.631-3.189-1.544-5.589-8.19,0.129c1.253,26.089-3.458,58.144,4.317,77.712c4.2,0.119,3.351,5.285,4.318,8.635
	c5.059-0.697,3.642-7.87,4.317-12.952v-8.635c-9.095-3.531-11.844-22.762-4.317-30.222H92.012z"/>
<path fill="#3D0510" stroke="#111010" stroke-miterlimit="10" d="M523.746,244.398c0-4.317,0-8.635,0-12.952
	c2.631-10.321-5.418-31.323,4.318-34.539C525.332,211.445,533.629,237.012,523.746,244.398z"/>
<path fill="#3D0510" stroke="#111010" stroke-miterlimit="10" d="M113.599,300.523c9.984-9.691,40.661-3.457,51.808,0
	c-0.725,5.031-6.824,4.688-12.952,4.317c-0.54-9.534-18.315-1.832-25.904-4.317C122.233,300.523,117.916,300.523,113.599,300.523z"
	/>
<path fill="#3D0510" stroke="#111010" stroke-miterlimit="10" d="M463.303,352.332c-1.377-10.012,0.691-16.578,4.318-21.587
	c-4.318,0-8.635,0-12.953,0c-0.707-7.083,26.613-7.083,25.904,0c-7.595,1.04-9.842,7.426-8.636,17.27
	C470.988,351.376,468.324,353.034,463.303,352.332z"/>
<path fill="#3D0510" stroke="#111010" stroke-miterlimit="10" d="M221.532,369.602c0.36-6.836-2.074-16.466,4.317-17.27
	c6.476,5.037,10.557,12.469,21.587,12.952c-3.131-13.205,7.448-12.699,4.317-25.904c10.518,6.656,1.388,29.828-4.317,34.539
	C236.795,374.486,226.637,374.57,221.532,369.602z"/>
<path fill="#3D0510" stroke="#111010" stroke-miterlimit="10" d="M549.65,366.62v16.011c0.575-3.331,1.119-6.667,1.641-10.008
	C550.688,370.632,550.139,368.632,549.65,366.62z"/>
<path fill="#3D0510" stroke="#111010" stroke-miterlimit="10" d="M79.06,384.51v-45.13c-1.482,2.414-2.653,6.109-3.523,10.536
	C77.706,361.216,78.33,372.864,79.06,384.51z"/>
<path fill="#3D0510" stroke="#111010" stroke-miterlimit="10" d="M402.861,430.044c-5.758,0-11.515,0-17.271,0
	c-0.596,8.039-2.84,14.431-8.635,17.271c-8.253-11.4,6.24-28.917,25.904-25.904C408.078,422.32,405.514,426.199,402.861,430.044z"/>
<path fill="#3D0510" stroke="#111010" stroke-miterlimit="10" d="M81.338,440.096c0.006,0.409,0.014,0.817,0.021,1.227
	c1.333,4.216,3.334,7.762,6.336,10.309c-4.282-20.609,1.44-27.957-6.62-40.342C81.471,420.879,81.201,430.56,81.338,440.096z"/>
<path fill="#3D0510" stroke="#111010" stroke-miterlimit="10" d="M269.023,425.727c0,2.88,0,5.758,0,8.636
	c-7.887,0.19-27.63-9.118-17.269-12.952c6.161-1.034,7.28-7.111,12.952-8.635C265.38,417.856,263.964,425.029,269.023,425.727z"/>
<path fill="#3D0510" stroke="#111010" stroke-miterlimit="10" d="M544.253,411.558c0.843-4.352,1.683-8.704,2.508-13.06
	c-1.337,2.459-3.197,4.394-5.745,5.642v4.317C542.454,409.131,543.497,410.201,544.253,411.558z"/>
<path fill="#3D0510" stroke="#111010" stroke-miterlimit="10" d="M333.783,499.122c-35.691,18.101-54.849-31.357-25.904-43.174
	c8.162-0.967,9.523,4.868,17.271,4.316c8.09,8.226,0.473,10.851,0,21.587C334.717,478.659,342.936,497.762,333.783,499.122z"/>
<path fill="#3D0510" stroke="#111010" stroke-miterlimit="10" d="M269.023,555.247c0,4.317,0,8.635,0,12.952
	c-13.772-2.563-13.351,8.101-21.586,0C245.463,554.707,256.661,554.398,269.023,555.247z"/>
<path fill="#3D0510" stroke="#111010" stroke-miterlimit="10" d="M174.042,714.989c26.562-2.099,41.251,7.679,69.078,4.316
	C227.547,727.524,184.453,726.282,174.042,714.989z"/>
<path fill="#3D0510" stroke="#111010" stroke-miterlimit="10" d="M286.292,719.307c-9.512,11.996-30.767-0.606-43.173,0
	c0.911-4.847,4.79-6.724,8.635-8.635c5.009,3.626,11.575,5.694,21.586,4.317C274.038,720.048,281.21,718.632,286.292,719.307z"/>
<path fill="#3D0510" stroke="#111010" stroke-miterlimit="10" d="M454.668,568.199c3.756-12.56,6.465-4.857,17.27-4.317
	c1.216,11.288-1.571,18.573-12.95,17.271C459.357,575.023,459.701,568.925,454.668,568.199z"/>
<path fill="#3D0510" stroke="#111010" stroke-miterlimit="10" d="M251.754,598.421c-31.841,43.656-45.816-11.957-43.174-43.174
	c32.403-5.06,34.994,19.692,43.174,38.856C251.754,595.542,251.754,596.981,251.754,598.421z"/>
</svg>
