<?xml version="1.0" encoding="utf-8"?>
<!-- Generator: Adobe Illustrator 15.0.0, SVG Export Plug-In . SVG Version: 6.00 Build 0)  -->
<!DOCTYPE svg PUBLIC "-//W3C//DTD SVG 1.1//EN" "http://www.w3.org/Graphics/SVG/1.1/DTD/svg11.dtd">
<svg version="1.1" id="Capa_1" xmlns="http://www.w3.org/2000/svg" xmlns:xlink="http://www.w3.org/1999/xlink" x="0px" y="0px"
	 width="612px" height="792px" viewBox="0 0 612 792" enable-background="new 0 0 612 792" xml:space="preserve">
<path fill="#B4D8D9" d="M254.344,658.494c0-1.064,0-2.128,0-3.192c38.31,0,76.619,0,114.931,0
	C337.332,662.734,291.602,656.379,254.344,658.494z"/>
<path fill="#E9E6E6" d="M448.334,569.213c-3.704,0.817-3.004,6.04-2.425,11.143C446.657,576.625,447.471,572.912,448.334,569.213z"
	/>
<path fill="#E9E6E6" d="M442.383,647.021c-9.251,0.854-18.9,1.306-25.223,5.089c8.629-0.103,17.855,0.393,26.094-0.102
	C442.929,650.355,442.636,648.693,442.383,647.021z"/>
<path fill="#6C8EBC" d="M442.914,185.775c-0.327,0.885-0.469,1.956-0.213,3.425c0.537-1.205,1.131-2.182,1.773-2.98
	C443.949,186.084,443.432,185.932,442.914,185.775z"/>
<path fill="#6C8EBC" d="M465.817,185.853c1.825,0.234,3.701,0.327,5.614,0.155c-0.633-0.508-1.311-0.969-2.018-1.402
	C468.239,185.076,467.04,185.493,465.817,185.853z"/>
<path fill="#6C8EBC" d="M465.106,421.596c0.347-13.219,1.024-26.47,0.87-39.695c-0.068-5.907-0.297-11.909,0.455-17.785
	c0.027-0.216,0.052-0.435,0.078-0.651c-5.635-12.588-1.318-26.631-1.462-46.566c-7.25,21.483-6.073,51.392-12.769,73.426
	c-2.95-5.561,0.107-17.134-9.576-15.962c-1.663,17.626,1.828,30.096,3.191,44.695c11.348,4.964,1.929-10.841,9.576-9.577
	c-8.271,33.422,0.292,54.307,0,79.813c-10.074-0.62-9.078-21.907-19.153-12.77c-1.159,13.929,8.482,17.055,9.577,28.731
	c-6.344,5.316-4.058-0.29-12.771,0c15.331,46.652-20.605,104.056,6.384,134.084c-63.915,23.345-165.954,8.568-249.013,12.771
	c14.949,7.399,43.598,1.101,63.85,3.191h114.93c16.727-0.298,28.74-5.311,47.887-3.191c6.321-3.783,15.971-4.235,25.221-5.089
	c-1.996-13.227-1.796-27.022-0.445-40.462c-0.063-5.636,0.59-11.357,1.96-15.019c0.179-1.131,0.363-2.257,0.553-3.377
	c0.443-2.616,0.94-5.219,1.461-7.814c-0.58-5.1-1.278-10.318,2.423-11.136c0.409-1.749,0.826-3.496,1.252-5.241
	c3.48-34.972,9.989-66.913,15.792-99.563C464.754,450.209,464.729,435.977,465.106,421.596z"/>
<path fill="#6C8EBC" d="M168.146,489.292c-8.273-7.893-11.869,6.893-22.348,6.385c19.147-20.16-1.231-41.456-3.192-67.042
	c5.624,2.891,5.275,11.752,12.77,12.771c1.621-23.782,5.521-55.204-3.192-73.427c-2.81,8.895-3.982,19.429-9.577,25.539
	c8.13-17.824-6.901-42.321,6.384-51.079c-17.317-4.303-19.853-44.367-28.732-67.042c0.458,30.437,18.308,60.399,12.771,86.197
	c-0.465,5.595-1.806,10.314-2.733,15.447c-0.151,5.066-0.369,10.131-0.608,15.194c0.048,0.427,0.086,0.843,0.147,1.282
	c-1.636,24.859,1.464,44.98,2.834,66.831c0.813,4.668,1.657,9.331,2.527,13.988c1.378,5.261,2.472,10.805,3.2,16.716
	c4.241,21.747,8.641,43.464,11.953,65.382c1.665,9.869,2.957,19.984,3.667,30.15c1.54,18.064,1.834,36.21,1.732,54.346
	c-0.015,2.693-0.075,5.398-0.167,8.106c3.009,0.075,5.605,0.563,6.179,3.072h19.155
	C180.999,602.026,175.362,541.433,168.146,489.292z"/>
<path fill="#6C8EBC" d="M158.569,307.322c5.188,16.096,2.378,40.188,25.54,38.31C156.616,351.842,158.969,328.206,158.569,307.322z"
	/>
<path fill="#6C8EBC" d="M238.381,358.401c24.8,4.997,40.484,19.109,73.427,15.962C285.33,383.767,257.037,367.451,238.381,358.401z"
	/>
<path fill="#6C8EBC" d="M433.607,325.074c0.062,8.626-1.77,15.359-11.239,14.455c-0.653,0.53-1.325,1.042-2.016,1.533v1.378
	c15.688,0.702,17.388-12.583,16.658-28.297C436.368,317.948,435.218,321.625,433.607,325.074z"/>
<path fill="#B4D8D9" d="M428.523,333.306c-0.997,2.302-2.521,4.078-4.813,5.084c-0.438,0.389-0.886,0.769-1.343,1.139
	c9.468,0.903,11.3-5.829,11.238-14.454C432.237,328.008,430.534,330.773,428.523,333.306z"/>
<path fill="#6C8EBC" d="M180.917,533.987C196.771,549.322,178.111,573.25,180.917,533.987L180.917,533.987z"/>
<path fill="#4763A1" d="M473.237,185.672c-0.546,0.056-1.142,0.162-1.805,0.336c-1.913,0.172-3.79,0.079-5.615-0.155
	c-3.607,1.064-7.403,1.647-11.317,1.647c-3.448,0-6.808-0.447-10.025-1.28c-0.643,0.799-1.237,1.776-1.774,2.982
	c-2.717,6.129-3.283,14.407-3.327,23.209c4.967,14.674,2.951,31.389,0.713,47.196c-0.828,7.464-1.224,14.955-1.466,22.461
	c-0.198,6.142-1.365,12.352-1.474,18.508c0.681,4.582,0.608,9.16-0.137,13.57c0.729,15.714-0.972,28.997-16.658,28.294
	c-0.699-0.008-1.38,0.002-2.07,0.002c-3.186,1.974-6.714,3.537-10.549,4.591c-6.576,1.809-13.441,1.805-19.938,0.294
	c-4.526,0.718-9.038,1.328-13.553,1.572c-22.543,6.756-41.136,17.462-62.434,25.464c-26.479,9.403-54.771-6.912-73.427-15.962
	c-16.258-6.089-30.046-14.648-54.272-12.77c-27.493,6.21-25.141-17.426-25.54-38.31c-3.658-42.101-8.114-83.403-19.155-118.122
	c-10.516,2.253-20.41,5.13-31.924,6.385c2.79,28.072,6.494,55.229,12.77,79.813c8.879,22.675,11.415,62.739,28.732,67.042
	c-13.284,8.758,1.746,33.255-6.384,51.079c5.595-6.11,6.767-16.644,9.577-25.539c8.713,18.223,4.813,49.645,3.192,73.427
	c-7.496-1.02-7.146-9.881-12.77-12.771c1.962,25.586,22.339,46.883,3.192,67.042c10.48,0.509,14.076-14.278,22.348-6.385
	c7.216,52.14,12.853,112.734,12.77,162.816h9.577c83.059-4.203,185.098,10.574,249.013-12.771
	c-26.989-30.028,8.947-87.432-6.384-134.084c8.713-0.29,6.427,5.316,12.771,0c-1.096-11.676-10.737-14.802-9.578-28.731
	c10.075-9.137,9.078,12.15,19.153,12.77c0.292-25.506-8.271-46.391,0-79.812c-7.647-1.265,1.771,14.541-9.575,9.576
	c-1.364-14.599-4.855-27.07-3.192-44.695c9.683-1.173,6.626,10.4,9.576,15.962c6.697-22.036,5.521-51.945,12.771-73.427
	c4.606-14.545,2.885-35.425,6.385-51.08c1.769-8.563-2.764-23.427,1.153-29.843C472.834,219.209,473.065,202.441,473.237,185.672z"
	/>
<path fill="#4763A1" d="M180.917,533.987C178.111,573.25,196.771,549.322,180.917,533.987L180.917,533.987z"/>
<path fill="#AFBCB0" d="M472.157,265.644c0.139-9.89,0.284-19.779,0.43-29.668c-3.918,6.415,0.614,21.28-1.154,29.845
	C471.695,265.782,471.934,265.72,472.157,265.644z"/>
<path fill="#AFBCB0" d="M130.5,365.5c-0.011,3.849-0.089,7.696-0.204,11.542c0.928-5.133,2.269-9.853,2.734-15.449
	c-1.183,0.219-1.989,0.814-2.594,1.611C130.478,363.965,130.502,364.73,130.5,365.5z"/>
<path fill="#B4D8D9" d="M129.837,393.519c-0.07,0-0.141,0-0.21,0c-0.656,13.688-1.417,27.371-1.272,41.075
	c0.295,0.999,0.538,2.002,0.681,3.007c1.083,7.612,2.318,15.196,3.637,22.764C131.302,438.508,128.2,418.383,129.837,393.519z"/>
<path fill="#B4D8D9" d="M152.887,575.184c0.448,3.823,0.81,7.652,1.136,11.483c-0.711-10.229-2.012-20.409-3.69-30.338
	C151.281,562.596,152.147,568.878,152.887,575.184z"/>
<path fill="#B4D8D9" d="M155.582,649.037c-0.04,1.194-0.088,2.389-0.146,3.584c1.762,0.177,3.813,0.063,6.327-0.512
	C161.189,649.599,158.592,649.111,155.582,649.037z"/>
<path fill="#AFBCB0" d="M443.898,591.535c-1.373,3.664-2.027,9.396-1.963,15.039C442.446,601.493,443.117,596.463,443.898,591.535z"
	/>
<path fill="#E9E6E6" d="M164.954,652.109c5.321,0,10.642,0,15.963,0c3.192,0,6.385,0,9.577,0c14.948,7.399,43.597,1.102,63.85,3.191
	c0,1.064,0,2.128,0,3.192C225.167,655.747,184.142,664.847,164.954,652.109z"/>
</svg>
