<?xml version="1.0" encoding="utf-8"?>
<!-- Generator: Adobe Illustrator 15.0.0, SVG Export Plug-In . SVG Version: 6.00 Build 0)  -->
<!DOCTYPE svg PUBLIC "-//W3C//DTD SVG 1.1//EN" "http://www.w3.org/Graphics/SVG/1.1/DTD/svg11.dtd">
<svg version="1.1" id="Capa_1" xmlns="http://www.w3.org/2000/svg" xmlns:xlink="http://www.w3.org/1999/xlink" x="0px" y="0px"
	 width="612px" height="792px" viewBox="0 0 612 792" enable-background="new 0 0 612 792" xml:space="preserve">
<path fill="#AFBCB0" d="M254.476,366.418c-16.09,13-54.654,8.949-43.209-24.692c16.364,0.092,36.346-3.424,37.036,12.345
	C248.288,360.266,253.302,361.418,254.476,366.418z"/>
<path fill="#AFBCB0" d="M340.895,483.699c4.95-21.411-9.194-23.727-6.173-43.209c0-6.172,0-12.347,0-18.52
	C340.646,434.917,355.425,470.752,340.895,483.699z"/>
<path fill="#6C8EBC" d="M235.958,681.229c-14.949-60.015-1.343-190.286,0-67.899C236.256,640.133,235.732,660.45,235.958,681.229z"
	/>
<path fill="#6C8EBC" d="M266.822,699.746c-4.083-47.3,10.031-76.388,12.345-117.281c29.514,19.266-4.438,65.222,6.172,104.937
	c-14.789-2.444,3.424,28.113-18.518,18.52C266.822,703.86,266.822,701.802,266.822,699.746z"/>
<path fill="#E9E6E6" d="M149.539,712.091c20.038-3.578,28.718,4.204,43.21,6.174c5.183,7.17,8.142,16.55,6.172,30.864
	c39.102-9.101,88.049,3.149,135.8,0c-39.504,18.589-100.025-6.85-141.973,6.171c7.265-34.014-13.495-39.992-43.21-37.035
	C149.539,716.205,149.539,714.15,149.539,712.091z"/>
<path fill="#E9E6E6" d="M365.586,749.129c25.503,7.088,48.57,7.088,74.073,0C425.809,765.702,379.434,765.702,365.586,749.129z"/>
<path fill="#E9E6E6" d="M199.94,415.497c6.837-22.479,9.321-46.895,9.479-72.435c-0.315,13.477-2.192,26.993-4.914,40.049
	c-0.825,3.959-1.777,7.882-2.824,11.777C201.271,401.769,200.709,408.635,199.94,415.497z"/>
<path fill="#E9E6E6" d="M198.301,178.958c-0.006,0.919,0.024,1.841,0.074,2.767c0.651,7.146,1.04,14.328,1.296,21.491
	c0.817,22.883,1.03,45.727,2.35,68.598c0.328,5.68,0.667,11.374,0.967,17.074c2.201,11.284,4.398,22.569,5.642,34.054
	c0.386,3.563,0.627,7.149,0.749,10.745c-0.734-50.069-9.284-103.984-10.792-155.765
	C198.495,178.268,198.387,178.609,198.301,178.958z"/>
<path fill="#E9E6E6" d="M212.151,65.94c0.155,1.172,0.327,2.344,0.47,3.517c0.458-1.229,0.953-2.446,1.437-3.666
	C213.426,65.856,212.791,65.906,212.151,65.94z"/>
<path fill="#E9E6E6" d="M434.667,84.167c-0.319-0.383-0.646-0.759-0.954-1.152c0.963,2.405,1.852,4.818,2.697,7.236
	C435.765,88.246,435.182,86.218,434.667,84.167z"/>
<path fill="#E9E6E6" d="M502.062,628.635c-3.418-12.627-5.213-25.73-6.86-38.771c-0.541-2.214-1.076-4.429-1.6-6.648
	c5.099,45.813,8.298,93.293,13.956,141.22c-21.427,7.382-47.943,9.663-61.728,24.693c28.107-2.749,45.863-15.868,67.902-24.693
	c-1.999-26.921-4.141-53.7-6.695-80.066C505.231,639.171,503.5,633.949,502.062,628.635z"/>
<path fill="#B4D8D9" d="M493.599,583.205c-2.825-11.992-5.408-24.071-8.055-36.155c-1.159-5.291-2.417-10.551-3.722-15.797
	c-3.723-10.728-7.517-21.432-11.061-32.221c-5.493-16.723-10.334-33.818-13.654-51.17c-11.213-18.13-21.606-36.668-28.3-57.382
	c-14.48-44.817-5.708-91.439,0.579-136.834c1.645-12.291,3.416-24.5,6.051-36.636c-2.111-11.751-1.268-24.183,1.443-35.557
	c0.467-1.958,1.012-3.896,1.595-5.823c-0.218-3.495-0.314-7-0.206-10.527c0.217-7.092,0.959-14.129,1.91-21.148
	c-1.926-16.981-2.574-34.135-2.953-51.27c-0.28-0.795-0.545-1.597-0.805-2.4c-0.851-2.43-1.743-4.855-2.711-7.272
	c-3.835-4.912-6.597-10.685-7.887-16.947c-0.441-0.828-0.88-1.655-1.337-2.48c-2.777-0.756-5.439-1.81-7.96-3.112
	c-0.343,0.009-0.683,0.027-1.027,0.027c-2.202,0-4.366-0.188-6.481-0.535c-0.829,2.139-1.853,4.227-3.116,6.229
	c-0.538,0.854-1.056,1.72-1.563,2.591c-0.357,6.038-1.079,12.078-2.482,18.17c-2.5,10.849-7.397,20.609-14.153,28.753
	c-3.177,6.394-6.994,12.181-12.404,17.937c-4.882,5.193-10.787,9.596-16.807,13.38c-23.371,14.692-55.255,22.246-82.352,15.101
	c-17.62-4.646-32.598-15.97-41.604-31.85c-8.267-14.575-11.508-31.013-12.092-47.622c-0.22-6.256-0.042-12.523,0.405-18.785
	c-2.816,0.954-5.756,1.614-8.791,1.923c-0.484,1.219-0.979,2.435-1.437,3.664c1.158,9.504,1.901,19.039,2.039,28.584
	c0.237,16.416-1.201,33.521-5.625,49.359c-2.898,10.375-7.728,20.127-10.451,30.525c1.509,51.772,10.055,105.678,10.792,155.739
	c0.107,3.135,0.115,6.277,0.041,9.423c-0.158,25.53-2.643,49.938-9.478,72.409c-0.611,5.462-1.341,10.923-2.207,16.389
	c-3.031,19.134-8.734,37.514-15.181,55.743c-4.884,13.812-10.156,27.482-15.211,41.231c-0.35,22.669-1.453,45.194-4.846,67.814
	c-3.819,25.462-13.285,49.438-17.527,74.792c-1.319,12.197-1.781,24.431-1.687,36.669c1.909,1.495,3.499,3.31,6.256,3.957
	c20.037-3.578,28.717,4.204,43.21,6.174c5.183,7.171,8.141,16.55,6.172,30.864c39.101-9.101,88.049,3.149,135.8,0
	c8.109-7.925,22.753-7.925,30.864,0c25.503,7.088,48.57,7.088,74.073,0h6.171c13.785-15.03,40.301-17.311,61.728-24.693
	C501.897,676.505,498.699,629.021,493.599,583.205z"/>
<path fill="#B4D8D9" d="M421.688,354.072H248.302c-0.69-15.77-20.672-12.253-37.036-12.345
	c-11.445,33.641,27.119,37.692,43.209,24.692c77.683-18.009,63.729,55.61,74.072,104.937c-16.758,4.411,4.413-29.107-12.345-24.691
	c-0.636,33.558,2.099,63.745,18.519,80.246c27.648,0.467-3.754-22.874,6.173-43.21c14.53-12.947-0.249-48.782-6.173-61.729v18.52
	c-14.009-6.566-2.347-38.8-6.174-55.555c10.99-3.411,25.633-3.171,30.865-12.345c13.32-11.279,49.48,0.288,63.104-10.68
	C422.183,359.302,421.909,356.688,421.688,354.072z"/>
<path fill="#B4D8D9" d="M235.958,613.328c-1.343-122.387-14.949,7.886,0,67.898C235.732,660.45,236.256,640.133,235.958,613.328z"/>
<path fill="#B4D8D9" d="M285.339,687.4c-10.61-39.715,23.341-85.672-6.172-104.937c-2.314,40.895-16.428,69.981-12.345,117.281
	c-11.028,7.668,4.791,17.957-6.172,30.864C288.419,735.754,279.271,703.965,285.339,687.4z"/>
<path fill="#E3CEBD" d="M421.688,354.072H208.829c-0.214,2.582-0.479,5.159-0.788,7.729c1.455,1.306,2.833,2.669,3.439,4.617
	c102.884-18.009,84.404,55.61,98.103,104.937c0.343,20.318,13.807,30.727,8.177,55.555c36.618,0.467-4.971-22.874,8.175-43.21
	c6.557-21.411-12.178-23.727-8.175-43.209c-18.554-6.567-3.108-38.8-8.177-55.555c-5.725-21.371,28.658-22.14,40.876-12.345
	c14.754-9.432,50.662-2.887,72.58-6.903C422.458,361.824,422.017,357.952,421.688,354.072z"/>
<path fill="#B4D8D9" d="M266.822,699.746c0,2.056,0,4.114,0,6.174c21.942,9.595,3.729-20.964,18.518-18.52
	c-6.068,16.563,3.08,48.354-24.69,43.21C271.612,717.703,255.794,707.414,266.822,699.746z"/>
</svg>
