<?xml version="1.0" encoding="utf-8"?>
<!-- Generator: Adobe Illustrator 15.0.0, SVG Export Plug-In . SVG Version: 6.00 Build 0)  -->
<!DOCTYPE svg PUBLIC "-//W3C//DTD SVG 1.1//EN" "http://www.w3.org/Graphics/SVG/1.1/DTD/svg11.dtd">
<svg version="1.1" id="Capa_1" xmlns="http://www.w3.org/2000/svg" xmlns:xlink="http://www.w3.org/1999/xlink" x="0px" y="0px"
	 width="612px" height="792px" viewBox="0 0 612 792" enable-background="new 0 0 612 792" xml:space="preserve">
<path fill="#E9E6E6" d="M391.298,718.178c-6.748,19.98-41.089,10.265-50.357-4.579C354.179,703.705,381.98,709.839,391.298,718.178z
	"/>
<path fill="#928B80" d="M298.156,737.406c4.836-2.102,7.748-6.126,6.159-14.652c-18.486-3.973-22.652,6.371-26.821,16.717
	C284.37,738.651,291.259,737.978,298.156,737.406z"/>
<path fill="#E9E6E6" d="M227.902,312.372c-0.275-1.05-0.572-2.108-0.912-3.18c0.037,0.285,0.067,0.57,0.102,0.855
	C227.374,310.819,227.64,311.595,227.902,312.372z"/>
<path fill="#E9E6E6" d="M254.838,743.872c-12.035-0.848-24.55-1.637-37.322-2.849c0.095,0.015,0.19,0.029,0.285,0.043
	c12.003,1.474,24.034,2.511,36.081,3.245C254.197,744.158,254.519,744.018,254.838,743.872z"/>
<path fill="#E9E6E6" d="M471.351,678.036c-0.183-1.978-0.376-3.953-0.597-5.928c-0.126-0.81-0.264-1.617-0.395-2.427
	c0.206,3.347,0.339,6.649,0.387,9.903C470.938,679.065,471.137,678.548,471.351,678.036z"/>
<path fill="#E9E6E6" d="M469.979,705.977c-0.282-0.972-0.542-1.947-0.757-2.924c-0.376,2.308-0.829,4.576-1.364,6.803
	C468.589,708.576,469.293,707.281,469.979,705.977z"/>
<path fill="#E9E6E6" d="M422.462,357.588c-0.428-1.248-0.831-2.501-1.223-3.758c-0.912-2.158-1.749-4.314-2.474-6.468
	c0.79,6.503,2.193,12.394,3.983,17.897C422.53,362.706,422.429,360.144,422.462,357.588z"/>
<path fill="#E9E6E6" d="M199.078,81.478c3.704-0.734,6.422-2.454,9.1-4.215c10.396,0.645,13.646-5.856,20.757-8.493
	c-1.01,0.11-2.02,0.221-3.03,0.336c-6.397,1.052-12.889,2.464-19.295,4.185C204.16,76.065,201.607,78.766,199.078,81.478z"/>
<path fill="#E9E6E6" d="M193.539,88.061c-0.095,0.164-0.197,0.323-0.291,0.487c-1.208,3.78-2.126,7.641-2.85,11.547
	c-0.965,11.99-0.019,23.856,1.371,35.732C190.75,120.904,191.212,105.249,193.539,88.061z"/>
<path fill="#E9E6E6" d="M210.564,253.781c-4.106-17.378-10.246-32.724-6.964-57.492c-3.685-12.18-6.707-24.076-8.841-36.17
	c2.079,18.13,3.798,36.307,6.046,54.417c0.598,3.086,1.177,6.176,1.722,9.27c0.942,5.355,1.639,10.684,2.168,16
	c0.291,1.664,0.587,3.327,0.892,4.988c1.066,1.377,2.075,2.812,2.983,4.347C209.236,250.685,209.902,252.232,210.564,253.781z"/>
<path fill="#E9E6E6" d="M441.896,80.829c-2.362-1.889-4.634-3.909-6.751-6.158c-0.193-0.206-0.381-0.417-0.572-0.625
	c-4.25,0.276-8.523,0.406-12.922,0.344c-4.715-0.066-9.388-0.035-14.062,0.287c-6.761,1.359-13.375,3.292-19.996,5.262
	c-1.557,0.463-3.11,0.915-4.662,1.366c18.948-2.407,37.299-4.42,54.147-4.043c3.172,7.445,4.598,15.086,5.096,23.559
	C442.218,94.154,442.071,87.492,441.896,80.829z"/>
<path fill="#E9E6E6" d="M441.539,160.125c-0.355-6.012-0.486-11.988-0.456-17.836c-0.335,7.864-0.585,16.466-0.521,25.981
	C440.871,165.553,441.198,162.838,441.539,160.125z"/>
<path fill="#E3CEBD" d="M438.115,191.431c0.792-7.723,1.568-15.449,2.446-23.165c-0.063-9.509,0.187-18.107,0.521-25.967
	c0.002-0.461,0.003-0.924,0.007-1.383c0.115-12.466,0.873-24.913,1.065-37.376c0.014-0.907,0.013-1.814,0.019-2.721
	c-0.499-8.472-1.925-16.113-5.096-23.557c6.962,35.146-50.377,43.712-86.982,50.357c-11.993-6.315-15.761-20.866-32.046-22.889
	c-24.558,40.695-103.897,17.215-109.871-27.468c-2.679,1.762-5.397,3.481-9.102,4.215c-1.569,1.682-3.129,3.37-4.646,5.085
	c-0.31,0.49-0.601,0.993-0.892,1.495c-2.328,17.197-2.789,32.86-1.769,47.789c0.823,7.031,1.8,14.065,2.628,21.13
	c0.122,1.042,0.238,2.084,0.357,3.127c2.135,12.099,5.158,24,8.844,36.185c14.855-29.399,57.499-31.008,91.56-41.201
	c10.103,53.991,23.169,105.013,22.889,169.385c30.628-38.04,9.771-127.569,41.202-164.807
	C392.754,163.043,421.654,171.014,438.115,191.431z M340.939,173.4c-8.547,12.329,3.721-7.928,0-18.312
	c5.412-5.272,16.184-5.182,27.469-4.578C356.491,155.377,343.914,159.588,340.939,173.4z M391.298,150.51
	c-6.795-1.997,1.806-5.86,0.001-13.734c-14.813-5.657-3.5,14.813-18.313,9.156c1.347-9.334,12.387-8.977,13.733-18.312
	c3.48,7.198,14.521,6.841,13.734,18.312C395.13,145.187,392.306,146.942,391.298,150.51z M423.344,164.244
	c-18.586,5.308-25.061-2.844-27.468-4.578c-7.648-5.508,33.315-7.764,27.468-36.624c12.428-3.275-3.272,21.587,9.156,18.312
	C423.905,145.604,404.281,158.757,423.344,164.244z"/>
<path fill="#E9E6E6" d="M423.344,123.042c12.429-3.275-3.271,21.587,9.156,18.312c-8.596,4.25-28.219,17.403-9.156,22.89
	c-18.586,5.308-25.061-2.843-27.468-4.578C388.228,154.158,429.191,151.902,423.344,123.042z"/>
<path fill="#E9E6E6" d="M391.298,136.776c-14.813-5.657-3.499,14.813-18.313,9.156c1.348-9.334,12.388-8.977,13.733-18.312
	c3.48,7.198,14.521,6.841,13.734,18.312c-5.324-0.745-8.148,1.01-9.156,4.578C384.503,148.513,393.104,144.65,391.298,136.776z"/>
<path fill="#E9E6E6" d="M340.939,155.088c5.412-5.272,16.184-5.183,27.469-4.578c-11.917,4.867-24.494,9.079-27.469,22.89
	C332.393,185.729,344.66,165.472,340.939,155.088z"/>
<path fill="#AFBCB0" d="M470.746,679.584c-0.048-3.25-0.181-6.549-0.386-9.892c-4.102-25.197-10.709-49.896-15.066-75.054
	c-2.994-17.295-3.852-34.55-4.013-51.854c-3.772-14.965-6.447-30.079-6.447-46.019v-52.379c-0.493-3.2-0.975-6.402-1.438-9.608
	c-3.313-10.762-6.223-21.651-9.936-32.29c-2.686-7.695-6.665-15.163-8.469-23.131c-1.042-4.603-1.836-9.336-2.243-14.098
	c-1.79-5.503-3.193-11.395-3.983-17.897c0.059-0.604,0.133-1.192,0.197-1.791c-2.455-10.295-3.525-20.911-2.506-31.903
	c1.779-19.17,5.374-38.608,9.595-57.399c3.328-14.818,7.474-29.281,9.824-44.285c0.819-6.843,1.536-13.697,2.239-20.552
	c-16.461-20.417-45.361-28.388-78.863-31.765c-31.431,37.238-10.574,126.767-41.202,164.807
	c0.28-64.372-12.785-115.394-22.889-169.385c-34.061,10.193-76.705,11.802-91.56,41.201c-3.283,24.77,2.857,40.116,6.964,57.496
	c4.953,11.587,9.681,23.316,12.746,35.561c1.631,6.518,2.824,13.163,3.678,19.839c0.342,1.078,0.64,2.141,0.916,3.197
	c3.998,11.836,5.825,24.25,4.315,36.897c-1.682,14.085-4.193,27.389-8.565,40.854c-8.562,26.375-17.886,52.417-25.55,79.089
	c-0.214,0.743-0.42,1.489-0.633,2.232c-1.248,21.566-4.043,42.976-7.271,64.341c-1.174,28.402-2.504,56.65-6.679,82.054
	c2.395,37.888-2.727,75.998-8.705,113.762c13.789,4.543,28.255,7.284,42.607,9.397c12.812,1.215,25.366,2.003,37.437,2.852
	c1.943-0.882,3.96-1.638,6.072-2.229c3.633-0.488,7.266-0.977,10.899-1.465c42.408-5.596,85.35-4.892,127.767-10.377
	c8.509-1.133,17.01-2.166,25.591-2.785c6.237-0.45,12.475-0.888,18.692-1.537c4.742-0.812,9.426-1.861,13.997-3.337
	c0.557-0.304,1.108-0.616,1.653-0.939c1.249-1.2,2.456-2.441,3.61-3.736c1.679-2.468,3.235-5.011,4.714-7.6
	c0.535-2.227,0.988-4.495,1.364-6.803c-0.695-3.169-1.056-6.322-1.056-9.219C468.167,688.939,469.064,684.113,470.746,679.584z"/>
<path fill="#AFBCB0" d="M298.156,737.406c4.835-2.102,7.747-6.126,6.159-14.651c-18.485-3.973-22.651,6.371-26.82,16.716
	C284.371,738.651,291.259,737.978,298.156,737.406z"/>
<path fill="#AFBCB0" d="M272.27,727.334c10.843-9.347,11.285-28.637-4.577-32.045C263.8,699.114,255.151,731.064,272.27,727.334z"/>
<path fill="#AFBCB0" d="M263.115,475.546c-0.221-30.306,2.516-63.559-9.156-82.403c-6.604,92.703-30.389,216.665-9.156,306.723
	c6.165-53.35-4.769-123.796,18.313-160.229c2.724,9.483-5.657,30.072,4.578,32.046c22.204-30.161,16.893-134.169,13.733-187.696
	C273.624,412.808,272.253,448.065,263.115,475.546z"/>
<path fill="#AFBCB0" d="M290.583,576.26c-1.145,28.982-19.302,111.894,9.156,123.605c18.079-58.644-15.48-140.685,9.154-192.273
	c2.534,8.152,2.355,19.017,9.156,22.889c2.497-44.844,20.07-98.902,13.734-137.337c-10.819,28.856-10.808,68.542-22.892,96.137
	c-3.003-30.566,6.047-73.186-4.578-96.137C286.768,456.757,292.794,520.335,290.583,576.26z"/>
<path fill="#AFBCB0" d="M208.179,576.26c-2.038,43.707-18.866,93.711,9.156,109.873c15.438-64.832,26.163-211.477,4.578-288.412
	C204.769,446.032,211.106,513.479,208.179,576.26z"/>
<path fill="#AFBCB0" d="M368.408,562.526c-3.94-41.841,9.106-100.666-9.156-128.184c-4.936,89.677-16.054,173.17-18.313,265.521
	c21.889-2.063,19.313-2.063,41.201,0c11.053-84.548,17.781-218.919,0-302.146C379.036,454.129,377.642,512.245,368.408,562.526z"/>
<path fill="#AFBCB0" d="M414.188,676.977c7.804-2.88,7.534-13.828,13.734-18.313c-0.686,11.368,2.366,18.997,9.156,22.889
	c4.862-67.833,17.321-169.85-9.156-228.896c-10.122,46.73,18.239,98.698,0,123.604c-13.889-41.046,8.487-118.358-18.313-146.493
	C407.636,486.549,394.236,613.874,414.188,676.977z"/>
<path fill="#AFBCB0" d="M199.023,709.021c-2.671,28.861,42.071,3.993,27.468-4.579c4.983,8.822-28.375-7.104-13.734,4.579
	c3.552,1.025,9.031,0.125,9.156,4.576c-6.187,1.443-8.745,6.516-18.313,4.579C202.576,714.624,203.476,709.146,199.023,709.021z"/>
<path fill="#AFBCB0" d="M340.939,713.599c9.27,14.844,43.609,24.561,50.357,4.579C381.98,709.839,354.179,703.705,340.939,713.599z"
	/>
<path fill="#AFBCB0" d="M203.601,718.178c9.568,1.937,12.125-3.136,18.313-4.579c-0.125-4.452-5.604-3.551-9.156-4.577
	c-14.64-11.684,18.717,4.244,13.734-4.578c14.603,8.572-30.139,33.44-27.468,4.578C203.476,709.146,202.576,714.624,203.601,718.178
	z"/>
<path fill="#AFBCB0" d="M437.079,77.262c-16.848-0.377-35.197,1.635-54.146,4.042c-4.391,1.277-8.756,2.554-13.061,4.099
	c-11.678,5.529-23.039,12.189-35.897,14.249c-16.983,2.719-34.645,3.399-51.577-0.331c-20.612-4.541-36.393-17.744-52.232-30.688
	c-0.41,0.044-0.82,0.09-1.23,0.135c-7.111,2.636-10.361,9.138-20.758,8.493c5.973,44.683,85.313,68.163,109.872,27.468
	c16.285,2.023,20.053,16.574,32.046,22.889C386.702,120.973,444.041,112.408,437.079,77.262z"/>
<path fill="#AFBCB0" d="M267.693,695.289c15.862,3.408,15.42,22.698,4.577,32.045C255.151,731.064,263.8,699.114,267.693,695.289z"
	/>
</svg>
