<?xml version="1.0" encoding="utf-8"?>
<!-- Generator: Adobe Illustrator 15.0.0, SVG Export Plug-In . SVG Version: 6.00 Build 0)  -->
<!DOCTYPE svg PUBLIC "-//W3C//DTD SVG 1.1//EN" "http://www.w3.org/Graphics/SVG/1.1/DTD/svg11.dtd">
<svg version="1.1" id="Capa_1" xmlns="http://www.w3.org/2000/svg" xmlns:xlink="http://www.w3.org/1999/xlink" x="0px" y="0px"
	 width="612px" height="792px" viewBox="0 0 612 792" enable-background="new 0 0 612 792" xml:space="preserve">
<path fill="#362F30" d="M444.014,493.845c-0.247-1.769-0.496-3.538-0.748-5.309c-91.189,12.392-188.043,28.289-269.571,2.734
	c-3.686,15.2-7.148,30.453-10.333,45.763c10.039,5.798,24.939,6.732,30.123,17.384h6.333c52.217-4.354,94.466,15.667,139.312,0
	c19.352-13.16,48.863,7.305,82.321,0c5.127-7.868,16.32-9.669,27.457-11.526C447.653,526.508,446.101,510.151,444.014,493.845z"/>
<path fill="#E9E6E6" d="M415.117,567.081c0,14.775,0,29.551,0,44.327c-40.633-2.938-48.021-2.938-88.653,0
	C315.11,541.802,363.916,571.376,415.117,567.081z"/>
<path fill="#E9E6E6" d="M249.581,45.783c0.32,0.625,0.625,1.289,0.896,2.044c7.958,1.856,11.58,8.049,22.688,6.754
	c-6.222-3.003-12.276-6.351-18.266-9.829C253.127,45.107,251.354,45.451,249.581,45.783z"/>
<path fill="#E9E6E6" d="M215.326,50.892c-3.927,0.448-7.858,0.853-11.794,1.219c0.169,3.073,0.32,6.146,0.438,9.22
	c7.428-1.641,15.734,0.174,21.178,5.494C226.69,56.697,220.066,54.737,215.326,50.892z"/>
<path fill="#E9E6E6" d="M161.031,548.507c-1.656,8.351-3.216,16.721-4.688,25.106c0.358,5.339,0.902,10.659,1.561,15.973
	c0.25,1.764,0.501,3.529,0.752,5.295c18.715,1.765,36.622,23.046,60.159,22.859h-31.662v6.333h107.65
	c8.789-8.098,3.875-29.898,12.664-37.995C272.95,559.26,192.132,578.742,161.031,548.507z"/>
<path fill="#E9E6E6" d="M197.105,697.183c8.359,3.046,16.96,5.445,25.716,7.01c3.259,0.306,6.535,0.514,9.818,0.668
	C220.578,702.518,208.539,700.153,197.105,697.183z"/>
<path fill="#E9E6E6" d="M408.973,53.793c-2.002-1.193-4.069-2.259-6.183-3.252c-6.34-2.434-12.798-4.517-19.334-6.336
	c-0.55,0.435-1.107,0.87-1.675,1.308c-0.444,0.342-0.896,0.673-1.345,1.008c6.063,2.687,12.579,6.219,22.018,7.64h6.331
	c0.183-0.01,0.352-0.006,0.531-0.014C409.202,54.028,409.09,53.909,408.973,53.793z"/>
<path fill="#D3AC9C" d="M383.457,54.16c1.03,7.363-1.402,11.263-6.334,12.665c-13.58,37.079-28.165,73.152-69.656,82.321
	C275.335,135.994,227.9,73.8,250.475,47.827c-0.271-0.755-0.576-1.419-0.895-2.044c-11.365,2.128-22.789,3.801-34.255,5.109
	c4.74,3.845,11.364,5.806,9.821,15.933c22.147,43.287,39.817,91.052,88.654,107.65c40.601-24.834,64.693-66.176,82.32-113.982
	C390.993,59.288,389.805,54.143,383.457,54.16z"/>
<path fill="#AFBCB0" d="M380.437,46.521c-1.092,0.814-2.192,1.614-3.313,2.383v17.922c4.932-1.402,7.364-5.302,6.334-12.665
	c6.348-0.016,7.536,5.129,12.663,6.333c5.384,1.162,5.971-2.474,6.334-6.333C393.016,52.739,386.5,49.208,380.437,46.521z"/>
<path fill="#928B80" d="M313.799,478.429v-31.661c31.209-12.39,87.834,0.638,121.142-9.653
	c-6.877-37.022-15.971-73.714-29.392-108.62c-0.725-1.884-1.198-3.893-1.466-5.968c-2.31-4.489-3.802-9.439-4.3-14.645
	c-4.479-12.574-7.209-25.773-6.875-38.972c0.465-18.346,5.867-35.871,15.65-50.901c0.83-4.899,1.661-9.797,2.412-14.715
	c2.745-24.147,2.832-48.665,7.11-72.605c0.534-2.986,1.213-5.931,1.972-8.855c-0.037-1.508-0.063-3.019-0.029-4.534
	c0.054-2.388,0.173-4.778,0.328-7.167c-3.639-11.976-6.162-24.292-7.269-37.025c-0.244-2.809,0.019-5.704,0.653-8.574
	c-0.619-2.087-1.264-4.166-1.98-6.222c-0.681-1.323-1.401-2.623-2.176-3.892c-0.024-0.025-0.05-0.051-0.074-0.077
	c-0.243-0.058-0.469-0.133-0.721-0.182h-6.331c-0.363,3.859-0.95,7.494-6.334,6.334c-17.627,47.805-41.719,89.148-82.32,113.982
	c-48.837-16.598-66.507-64.362-88.653-107.65c-5.443-5.32-13.75-7.135-21.178-5.493c1.01,26.509,0.273,53.085,0.829,79.805
	c0.323,15.513,0.891,31.012,1.489,46.509c3.645,3.842,6.729,8.09,8.973,12.475c4.222,8.251,6.843,16.314,8.522,24.763
	c1.808,4.586,2.814,9.549,2.814,14.714c0,6.143-0.022,12.271-0.091,18.39c-0.003,0.199-0.004,0.397-0.008,0.596
	c-0.165,14.068-0.594,28.08-1.61,42.074c-0.129,6.736-0.7,13.198-1.808,19.266c-0.549,4.719-1.173,9.438-1.905,14.158
	c-2.116,13.647-5.237,27.143-9.664,40.233c-5.329,15.76-12.331,30.853-18.927,46.105c-0.243,0.589-0.478,1.181-0.72,1.77
	c-0.433,1.53-0.873,3.059-1.3,4.592c-0.868,3.118-1.727,6.239-2.583,9.361c40.117,5.364,85.146,5.816,119.485,16.955v44.327
	c-47.198,4.423-94.772-10.341-132.042-13.248c-0.584,2.362-1.157,4.728-1.731,7.093c81.528,25.555,178.383,9.657,269.571-2.734
	c-0.4-2.811-0.811-5.624-1.227-8.438C400.938,487.891,345.331,506.531,313.799,478.429z"/>
<path fill="#928B80" d="M163.361,537.033c-0.345,1.658-0.689,3.316-1.027,4.976c12.287,2.232,15.213,13.826,31.15,12.408
	C188.301,543.766,173.4,542.831,163.361,537.033z"/>
<path fill="#928B80" d="M448.907,542.89c-11.137,1.857-22.33,3.659-27.457,11.527c10.741-0.254,19.511-2.479,27.938-5.048
	C449.233,547.209,449.072,545.05,448.907,542.89z"/>
<path fill="#D3AC9C" d="M187.981,436.144c-4.376,15.959-8.585,31.968-12.556,48.034c37.269,2.908,84.843,17.671,132.042,13.248
	v-44.327C273.127,441.96,228.099,441.508,187.981,436.144z"/>
<path fill="#AFBCB0" d="M223.082,319.909c1.104-6.057,1.675-12.507,1.804-19.23C224.42,307.091,223.828,313.5,223.082,319.909z"/>
<path fill="#928B80" d="M199.817,554.417c52.217-4.354,94.466,15.667,139.312,0c-33.938,28.685-88.604-0.544-139.312,6.332
	C199.817,558.64,199.817,556.527,199.817,554.417z"/>
<path fill="#E3CEBD" d="M160.307,607.115c7.568,4.922,9.769,15.212,26.845,10.625h31.662c-23.536,0.187-41.443-21.095-60.158-22.859
	C159.233,598.953,159.799,603.031,160.307,607.115z"/>
<path fill="#928B80" d="M294.955,63.142c-7.57-2.222-14.784-5.178-21.791-8.561c-11.109,1.295-14.729-4.898-22.688-6.754
	C227.9,73.8,275.335,135.994,307.467,149.146c41.491-9.169,56.076-45.242,69.656-82.321V48.903
	C353.313,65.246,323.035,71.382,294.955,63.142z"/>
<path fill="#D3AC9C" d="M434.94,437.113c-33.308,10.292-89.933-2.736-121.142,9.653v31.661c31.533,28.103,87.139,9.462,128.24,1.669
	C439.923,465.774,437.598,451.42,434.94,437.113z"/>
<path fill="#E3CEBD" d="M449.389,549.369c-8.428,2.568-17.197,4.794-27.938,5.048c-33.458,7.305-62.969-13.16-82.321,0
	c-33.938,28.685-88.604-0.544-139.312,6.332v-6.332h-6.334c-15.936,1.418-18.862-10.175-31.149-12.408
	c-0.441,2.165-0.874,4.332-1.304,6.499c31.103,30.233,111.919,10.752,146.436,37.57c-8.789,8.097-3.875,29.897-12.664,37.995
	h-37.994c58.145,9.511,145.157-14.346,196.306-9.94C452.013,592.541,450.938,570.936,449.389,549.369z M415.117,611.408
	c-40.632-2.938-48.021-2.938-88.653,0c-11.354-69.606,37.452-40.032,88.653-44.327V611.408z"/>
<path fill="#928B80" d="M162.1,640.078c-0.122,2.715-0.492,5.37-1.066,7.949c5.421,7.019,9.319,16.441,8.566,25.05
	c-0.134,1.538-0.192,3.066-0.185,4.593c0.052,0.19,0.114,0.379,0.167,0.568c0.442,0.782,0.905,1.553,1.385,2.313
	c1.793,1.94,3.687,3.78,5.672,5.528c5.736,3.938,11.825,7.309,18.137,10.244c0.771,0.294,1.548,0.574,2.324,0.856
	c11.437,2.973,23.479,5.338,35.544,7.681c7.27,0.343,14.57,0.396,21.786,0.479c14.214,0.164,28.428-0.023,42.639-0.327
	c3.343-0.071,6.685-0.145,10.028-0.217c52.051-5.326,109.383,6.378,151.098-14.889c-2.235-24.787-3.745-49.64-5.017-74.544
	c-0.021-0.409-0.042-0.819-0.063-1.229c-51.149-4.405-138.161,19.451-196.305,9.94h-69.656v-6.333
	c-17.077,4.587-19.277-5.704-26.846-10.626C161.667,618.062,162.596,629.051,162.1,640.078z"/>
</svg>
