<?xml version="1.0" encoding="utf-8"?>
<!-- Generator: Adobe Illustrator 15.0.0, SVG Export Plug-In . SVG Version: 6.00 Build 0)  -->
<!DOCTYPE svg PUBLIC "-//W3C//DTD SVG 1.1//EN" "http://www.w3.org/Graphics/SVG/1.1/DTD/svg11.dtd">
<svg version="1.1" id="Capa_1" xmlns="http://www.w3.org/2000/svg" xmlns:xlink="http://www.w3.org/1999/xlink" x="0px" y="0px"
	 width="612px" height="792px" viewBox="0 0 612 792" enable-background="new 0 0 612 792" xml:space="preserve">
<path fill="#44715D" d="M352.432,140.057c2.136,0.572,3.743,1.673,3.947,4.176c-4.077,0.047-5.081,7.08,0,8.08
	c6.414-5.186,4.669-13.211,0.387-18.46C355.33,135.927,353.884,137.994,352.432,140.057z"/>
<path fill="#44715D" d="M348.299,184.633c4.389,8.233,14.74,21.142,8.08,28.28c-4.734-0.652-3.409-7.365-4.04-12.12
	c-4.04,0-8.08,0-12.12,0c0.11-3.93,4.945-3.135,8.08-4.04C348.299,192.713,348.299,188.673,348.299,184.633z"/>
<path fill="#44715D" d="M380.619,208.874c23.015,11.999,11.468,58.559,28.28,76.76C391.86,283.75,388.362,233.503,380.619,208.874z"
	/>
<path fill="#44715D" d="M364.459,281.594c-12.283-10.61-12.993-32.793-12.12-56.56C365.911,234.355,365.195,257.964,364.459,281.594
	z"/>
<path fill="#44715D" d="M198.819,233.114c22.441,8.8-4.545,31.331,0,48.479c-15.15-9.863-18.522-9.216-20.2-28.28
	C194.947,256.175,201.68,249.442,198.819,233.114z"/>
<path fill="#44715D" d="M320.019,313.914c-15.345,1.957-3.786-27.691,8.08-24.24C324.874,297.222,321.35,304.471,320.019,313.914z"
	/>
<path fill="#44715D" d="M418.359,488.566c-0.521-1.923-1.013-3.856-1.477-5.798c-1.146,3.101-2.447,6.078-3.942,8.905
	c2.211-1.256,4.038-2.063,5.585-2.521C418.472,488.957,418.412,488.763,418.359,488.566z"/>
<path fill="#44715D" d="M416.785,351.992c-0.657-1.197-1.834-1.874-3.845-1.718c-1.727,16.239-24.793,43.477-4.04,56.56
	c0.77-1.371,1.417-2.899,1.972-4.517C411.896,385.454,414.072,368.639,416.785,351.992z"/>
<path fill="#44715D" d="M194.779,410.874c9.679-1.599-2.241,18.401,12.12,12.12c-4.519,5.817-4.356,9.856,4.04,12.119
	c-3.514,5.914-6.05,12.805-16.16,12.121c-10.147-10.332,6.197-22.078-8.08-28.281C187.698,414.566,194.731,416.213,194.779,410.874z
	"/>
<path fill="#44715D" d="M410.815,440.873c-0.061-0.926-0.101-1.852-0.151-2.777c-0.498-2.267-1.081-4.61-1.765-7.021
	c-5.377,5.639,0.173,6.98,0,12.119c-0.979,29.131,3.431,31.003,4.147,19.199C412.02,455.236,411.284,448.04,410.815,440.873z"/>
<path fill="#44715D" d="M315.979,435.113c18.771,0.819,1.548,22.272,4.04,32.319C305.284,464.678,320.882,451.348,315.979,435.113z"
	/>
<path fill="#44715D" d="M210.939,503.795c9.563-10.602,19.584,12.508,40.4,4.039c-5.518,17.639,15.645,8.596,12.12,24.24
	C232.743,543.078,231.144,513.863,210.939,503.795z"/>
<path fill="#44715D" d="M202.859,548.234c-1.273-5.461-5.75-7.718-4.04-16.16c4.05-0.01,4.808,3.271,8.08,4.039
	c6.87-1.482,7.622,3.151,8.08,8.08C208.456,543.059,208.024,548.014,202.859,548.234z"/>
<path fill="#44715D" d="M235.179,564.395c-7.249,0.517-8.522-4.944-16.16-4.041c2.262-5.817,6.302-9.856,12.12-12.118
	c2.693,0,5.387,0,8.08,0C240.928,556.678,236.452,558.934,235.179,564.395z"/>
<path fill="#44715D" d="M263.459,592.674c-13.988,2.83-14.487-14.16-8.08-20.199C261.381,575.898,261.223,585.482,263.459,592.674z"
	/>
<path fill="#44715D" d="M348.299,588.635c1.348,0,2.693,0,4.04,0c6.044,0.688,14.908-1.44,16.16,4.039
	c-0.905,3.135-0.11,7.971-4.04,8.08c-7.038,0.305-12.562-0.897-16.16-4.039C348.299,594.021,348.299,591.328,348.299,588.635z"/>
<path fill="#44715D" d="M255.379,596.715c15.297,2.162,0.51,15.748,8.08,28.279C248.24,619.076,255.294,614.289,255.379,596.715z"/>
<path fill="#44715D" d="M372.539,616.914c11.357-0.584,11.651,9.895,12.12,20.199C372.402,638.598,376.273,623.953,372.539,616.914z
	"/>
<path fill="#44715D" d="M223.059,633.074c11.126,6.375,20.663,14.455,8.08,24.24C224.084,653.596,222.222,644.684,223.059,633.074z"
	/>
<path fill="#44715D" d="M219.019,685.594c-5.387,0-10.773,0-16.16,0c-0.595-8.832-10.179-8.674-20.2-8.08
	C186.551,651.201,216.042,667.309,219.019,685.594z"/>
<path fill="#44715D" d="M405.415,103.116c-8.331-3.266-16.754-6.17-25.464-7.906c-0.652-0.037-1.305-0.072-1.96-0.089
	c-0.652,4.013-1.994,7.96-4.044,11.646c-0.729,1.311-1.473,2.613-2.228,3.908c11.848-5.338,22.359-7.004,41.22,1.237
	C410.903,108.509,408.355,105.617,405.415,103.116z"/>
<path fill="#44715D" d="M335.579,164.199c-0.021,0.079-0.041,0.158-0.063,0.236c1.14-1.356,2.214-2.966,3.211-4.868
	C337.671,161.107,336.618,162.649,335.579,164.199z"/>
<path fill="#44715D" d="M267.431,243.459c-1.349-0.898-2.638-1.841-3.897-2.805c-1.915-0.824-3.769-1.818-5.533-2.949
	c1.528,3.401,4.438,6.067,9.498,7.528c-1.099,8.328-17.891,0.963-16.16,12.12c-1.936,12.709,5.755,15.792,8.08,24.24
	c13.913,1.315,19.684-14.098,36.36-20.2c-1.709-4.706-3.568-9.262-5.471-13.773C282.406,249.068,274.097,247.901,267.431,243.459z"
	/>
<path fill="#44715D" d="M473.539,620.954c-20.401-30.497-23.12-45.114-32.017-74.857c-2.009-4.521-3.983-9.048-5.93-13.575
	c-3.39,1.316-4.931,4.486-6.493,7.632c-1.005,25.102,1.51,50.51,0,64.641c-16.112-2.215-12.168-2.215-28.279,0
	c-5.787-9.027-8.344-21.285-20.2-24.24c-10.684,1.436-3.656,20.584-12.12,24.24v8.08c2.462,0.229,4.781,0.603,4.04,4.039
	c11.357-0.584,11.651,9.894,12.12,20.199c-0.543,6.644-10.935,3.437-14.973,6.584c4.603-6.197-1.526-4.396-1.188-14.664
	c-7.943-1.209-8.012,5.455-12.12,8.08c-2.977-9.143-15.396-8.843-16.16-20.199h-4.04c-14.177-3.187-4.666-14.129,0-20.199
	c-15.433-1.969-12.645,14.287-20.199,20.199c-2.209-5.871,4.719-20.879-4.04-20.199c1.132,9.211-0.974,15.186-8.08,16.16
	c-3.393-4.687-5.328-10.832-4.039-20.201c22.125,0.801,25.627-10.799,44.438-4.039h8.08c17.682-10.006-12.352-7.219,0-24.239
	c21.068,6.254,15.918-13.709,24.24-20.201c1.798,28.713,33.724-12.026,40.4,16.16c12.267-15.219-4.636-28.264-4.04-44.439
	c-3.151-0.895-4.698-3.383-4.04-8.08c3.765,4.314,14.901,1.258,12.119,12.119c4.261,0.649,6.251-0.972,7.819-3.016
	c-3.928-9.089-7.688-18.288-10.313-27.784c-1.547,0.458-3.374,1.265-5.585,2.521c1.495-2.827,2.797-5.805,3.942-8.905
	c-1.602-6.709-2.852-13.524-3.836-20.376c-0.717,11.804-5.127,9.932-4.147-19.199c0.173-5.139-5.377-6.48,0-12.119
	c0.684,2.411,1.267,4.755,1.765,7.021c-0.654-11.922-0.515-23.861,0.208-35.777c-0.555,1.617-1.202,3.145-1.972,4.516
	c-20.753-13.083,2.313-40.321,4.04-56.56c2.01-0.156,3.188,0.522,3.845,1.719c0.18-1.104,0.357-2.209,0.542-3.313
	c3.236-19.353,7.924-38.393,11.407-57.694c1.368-7.582,2.727-15.173,4.188-22.742c-2.287-8.485-5.083-17.179-7.864-27.05
	c6.725-29.448,17.239-106.566-8.078-129.28h-4.04c-18.862-8.242-29.373-6.575-41.222-1.236c-4.628,7.944-9.714,15.608-14.953,23.175
	c4.282,5.249,6.027,13.274-0.387,18.46c-5.081-0.999-4.077-8.033,0-8.08c-0.205-2.503-1.812-3.604-3.947-4.176
	c-3.903,5.541-7.845,11.056-11.707,16.617c5.631,3.522,8.162,10.143,7.574,19.881c-16.861,1.715-8.842,10.234-18.922,11.87
	c-0.925,3.546-1.882,7.082-2.902,10.598c3.561,5.651,9.711,8.713,9.704,17.933c-4.896-8.017-13.93,1.015-4.04,4.04
	c-3.614-0.203-6.642-4.285-9.703-9.342c-2.364,6.675-5.109,13.236-8.485,19.609c-1.217,2.296-2.761,4.388-4.545,6.267
	c1.491,21.965,3.411,40.755,2.533,56.187c-7.117-3.656-6.675-14.871-16.159-16.16c-13.751,15.334,5.55,31.983,8.079,44.44
	c9.212,1.131,15.187-0.973,16.16-8.08c9.111,3.009,1.578,22.662,4.04,32.32c15.056,0.531,11.163-31.252,28.28-16.16
	c5.255-10.032-11.852-16.765,0-20.2c13.619,5.234,12.682,25.024,24.24,32.32c19.264-20.778-16.854-37.717-8.08-48.48
	c6.391,13.809,24.551,15.85,24.24,36.36c17.88,0.626-1.91-11.42,8.08-16.16c11.95,10.647-6.099,53.883-12.12,72.72
	c27.396,42.883-4.057,101.125-8.08,149.479c-15.928-7.892-12.352,7.891-28.28,0c-7.243,7.569-8.916,20.711-16.16,28.28
	c-18.201-2.935-6.27-12.593-8.08-28.28c-17.147,3.052-18.006,22.394-24.24,36.36c-9.211,5.549-15.187-10.416-16.16,0
	c-11.373-4.082,1.115-17.16,0-24.239c-3.693-4.505-7.512-1.273-20.2-4.041c-1.594-19.101,1.294-33.72,4.04-48.479
	c10.647,2.818,8.542,18.388,20.2,20.199c1.809-16.623-17.087-12.541-12.121-32.32c10.38,9.19,25.592-1.276,32.319-8.08
	c-5.869-11.973-15.76,5.324-28.279,0c2.736-9.385,13.425-10.813,16.161-20.198c-16.544,0.963-21.289,13.724-36.36,16.159
	c11.631-13.618-1.642-11.715,4.04-24.239c42.751,20.052,50.626-66.688,4.04-72.721c-5.424,2.657-7.522,8.638-8.08,16.16
	c-13.767-15.686-32.678-14.561-52.52-16.16c-3.486,2.796-12.616,15.184-10.011,19.088c-23.694-14.497-49.894-64.221-34.429-107.969
	c15.255,3.777,18.969,0.226,28.28,4.04c19.943-24.499,15.013-73.868,28.28-105.041c3.761,6.475,7.985,23.84-4.04,24.24
	c15.839,19.705,12.052,49.9,16.16,72.72c14.546-17.981,4.27-44.865,3.009-73.021c-5.17-10.119-9.293-20.954-13.437-31.675
	c-0.546-0.096-1.105-0.205-1.692-0.342c-8.879-0.21-8.457-7.651-4.876-14.853c-8.991-17.454-21.043-33.178-30.445-50.433
	c-1.074-1.971-1.944-4.007-2.623-6.08c-0.826-0.524-1.604-1.114-2.366-1.728c-1.611,0.833-3.227,1.66-4.85,2.475
	c-14.816,7.436-29.758,14.453-43.348,24.032c-1.338,0.943-2.672,1.899-4.003,2.859c1.141,12.321,3.746,33.524,7.671,27.568
	c1.368-14.292,0.237-20.815,4.04-24.24c15.924-2.457,17.896,9.037,20.2,20.2c-8.811,12.735-10.989,32.105-24.24,40.4
	c7.001-9.069,2.593-26.618,0-28.28c-3.203,8.917-18.99,5.25-20.2,16.16c5.371,9.895,15.034-4.439,16.16,4.04v20.2
	c17.575,12.568,31.847-6.886,36.36-20.2c17.632,3.503,17.964,0.905,32.32,4.04c1.236,12.23,12.498,14.434,8.08,32.32
	c-10.647-1.037-13.256-8.323-12.12,8.08c-10.863,2.783-7.807-8.354-12.12-12.12c-11.409,19.563-10.758,51.189-24.24,68.68
	c-5.208-5.566-17.549-3.998-28.28-4.04c-0.106-17.611-2.404-37.417,8.08-44.44c-9.265-7.502-16.386-17.119-8.36-31.801
	c-3.047,4.766-15.29,0.337-15.88,7.561c13.08,15.229,10.372,43.49,8.583,73.957c1.727,5.231,3.27,10.542,5.25,15.68
	c9.052,20.79,19.106,41.316,25.777,63.005c6.693,21.761,10.146,45.06,10.284,68.178c3.639-3.51,7.216-7.081,10.706-10.739
	c2.809,9.791,4.75,29.033,12.12,44.44c-10.586-6.359-14.45-19.441-22.865-27.972c-0.136,7.62-0.641,15.2-1.507,22.688
	c20.423,17.312,37.862,37.749,20.333,53.762c-23.418-13.545-11.763-28.121-21.564-44.432c-2.365,16.137-5.63,31.713-10.148,47.484
	c-3.432,11.981-6.615,24.03-9.86,36.063c-7.46,27.654-15.492,55.698-26.664,82.193c7.719,4.505,14.075,9.46,11.677,12.011
	c-2.462,0.232-4.782,0.605-4.04,4.041c14.866-10.946,19.069-7.639,40.4-12.12c5.576-19.105-12.656-26.559-4.04-36.359
	c10.779,5.182,14.792,10.857,20.2,12.121c-9.837,8.494,3.577,17.959-4.04,24.238c21.063-3.093,40.784,21.016,40.4,4.041
	c9.117,5.696,3.314,26.312,20.2,24.239c2.236-7.19,2.078-16.774,8.08-20.201c12.688-1.913,16.507,5.041,20.2,12.121
	c-3.24,9.73-5.934,29.369,8.08,32.32c-1.71-13.888-4.071-24.34,4.04-36.361c7.123,7.607,12.51-5.523,16.161,8.08
	c-12.736-0.614-7.86,16.381-16.161,20.201c8.448,2.324,11.531,10.016,24.24,8.08c1.19-60.239,65.888-32.221,96.961-60.602
	c1.052-11.824-9.133-12.414-8.08-24.238c3.414-3.789,25.755-8.629,28.279,0c-4.918,19.729,6.508,23.119,16.159,28.279
	c-4.418,9.047-6.69,20.241-12.119,28.278c16.648-9.979,7.591,8.765,24.239,8.08c0.337-25.365-13.161-31.892-4.04-48.479
	C455.738,642.979,461.956,627.087,473.539,620.954z M320.019,313.914c-15.345,1.957-3.786-27.691,8.08-24.24
	C324.874,297.222,321.35,304.471,320.019,313.914z M340.219,200.793c0.11-3.93,4.945-3.135,8.08-4.04v-12.12
	c4.389,8.233,14.74,21.141,8.08,28.28c-4.734-0.652-3.409-7.365-4.04-12.12H340.219z M364.459,281.594
	c-12.283-10.61-12.993-32.793-12.12-56.56C365.911,234.355,365.195,257.964,364.459,281.594z M356.379,176.554
	c11.525,7.328,13.024,24.682,16.16,40.4C362.266,210.368,365.269,192.808,356.379,176.554z M412.939,273.514
	c-1.926-4.566-6.107-17.323-8.08-32.32c12.15-4.071,7.158,9.001,8.08,16.16c0.65,4.734,7.363,3.409,12.118,4.04
	C424.612,269.027,411.703,264.198,412.939,273.514z M421.019,241.193c-6.122-10.036-7.801-24.518-8.078-40.4
	c-4.025-13.278,5.875,18.027,16.158,16.16C425.874,224.502,422.35,231.751,421.019,241.193z M392.739,136.154
	c4.744,16.181,13.677,19.158,24.239,36.36c15.361-9.648-12.062-39.801,12.119-36.36c1.441,20.295-1.071,36.634-8.08,48.479
	c-9.157-4.308-14.681-12.252-16.158-24.24c-11.854,3.435,5.255,10.169,0,20.2c-8.345-8.706-15.299-1.746-12.12,12.12
	c-9.785-2.336-8.985-15.255-12.12-24.24C400.419,188.585,384.769,149.263,392.739,136.154z M380.619,208.874
	c23.014,11.999,11.467,58.559,28.28,76.76C391.86,283.75,388.362,233.503,380.619,208.874z M154.378,200.793
	c-6.217-2.135-0.257-4.213,4.04-4.04c-0.111-3.93-4.945-3.135-8.08-4.04c6.313-12.541,11.989-25.718,20.2-36.36
	C182.637,172.676,163.92,192.692,154.378,200.793z M198.819,233.113c22.441,8.8-4.545,31.331,0,48.479
	c-15.15-9.863-18.522-9.216-20.2-28.28C194.947,256.175,201.68,249.442,198.819,233.113z M251.339,394.713
	c17.838,3.314,12.772,38.58,8.08,52.521c-5.082-1-4.077-8.033,0-8.081c-2.262-5.818-6.302-9.859-12.12-12.121
	C259.566,409.311,245.053,426.37,251.339,394.713z M251.339,507.834c-5.518,17.638,15.644,8.595,12.12,24.24
	c-30.716,11.004-32.315-18.211-52.52-28.279C220.502,493.193,230.524,516.303,251.339,507.834z M219.019,487.635
	c-8.296,10.625-19.716-9.643-20.2-20.201c3.598-1.789,7.227-3.545,8.08-8.08C222.497,465.883,202.207,487.276,219.019,487.635z
	 M186.699,418.953c0.999-4.387,8.032-2.74,8.08-8.079c9.679-1.599-2.241,18.401,12.12,12.12c-4.519,5.818-4.356,9.856,4.04,12.119
	c-3.514,5.914-6.05,12.805-16.16,12.121C184.632,436.902,200.976,425.156,186.699,418.953z M206.899,536.113
	c6.87-1.482,7.622,3.152,8.08,8.08c-6.523-1.136-6.954,3.819-12.12,4.041c-8.101-6.714-18.78-10.848-20.2-24.24
	C194.973,523.799,203.227,527.666,206.899,536.113z M214.979,612.875c-24.629,0.389-44.813-3.668-56.56-16.16
	c-7.98,6.111,1.852,23.386,0,44.439c-4.698-0.658-7.186,0.894-8.08,4.039c-13.724-2.734-3.961-13.425,4.04-16.16
	c-5.913-12.939-19.785-17.921-16.16-40.398c6.986,1.746,28.711-10.459,4.04-12.121c33.561-9.494,70.374,6.412,84.84,20.201
	C214.606,586.287,207.315,600.959,214.979,612.875z M231.139,657.314c-7.055-3.719-8.917-12.631-8.08-24.24
	C234.185,639.449,243.722,647.529,231.139,657.314z M255.379,596.715c15.297,2.162,0.51,15.748,8.08,28.279
	C248.24,619.076,255.294,614.289,255.379,596.715z M255.379,572.475c6.002,3.424,5.844,13.008,8.08,20.199
	C249.471,595.504,248.972,578.514,255.379,572.475z M259.419,572.474c-0.063-10.711,2.241-23.788-8.08-24.239
	c-12.099,2.655,3.861,8.637,0,16.16h-16.16c-7.249,0.516-8.522-4.945-16.16-4.041c2.262-5.818,6.302-9.857,12.12-12.119
	c10.957-8.502,45.061-7.402,48.48,24.239H259.419z"/>
<path fill="#44715D" d="M142.259,136.153c-3.803,3.425-2.672,9.948-4.04,24.24c-3.925,5.956-6.531-15.246-7.671-27.567
	c-6.031,4.351-12,8.853-17.987,13.346c4.072,41.927,3.322,84.328,5.268,121.901c3.071,7.049,5.875,14.228,8.336,21.504
	c0.15,0.442,0.29,0.889,0.436,1.333c1.788-30.467,4.497-58.728-8.583-73.957c0.61-7.47,13.682-2.477,16.16-8.08v-20.2
	c-1.126-8.479-10.789,5.855-16.16-4.04c1.21-10.91,16.996-7.243,20.2-16.16c2.593,1.662,7.001,19.211,0,28.28
	c13.251-8.296,15.429-27.665,24.24-40.4C160.155,145.191,158.182,133.696,142.259,136.153z"/>
<path fill="#44715D" d="M166.367,466.191c-0.148,1.28-0.287,2.563-0.456,3.838c-0.245,1.84-0.508,3.667-0.776,5.492
	c9.802,16.312-1.854,30.888,21.564,44.432C204.229,503.94,186.79,483.503,166.367,466.191z"/>
<path fill="#44715D" d="M481.091,622.2c-15.224-24.185-27.983-50.036-39.571-76.111c8.898,29.749,11.615,44.366,32.019,74.865
	c-11.583,6.133-17.801,22.024-28.28,8.078c-9.121,16.587,4.377,23.114,4.04,48.479c-16.648,0.685-7.591-18.059-24.24-8.08
	c5.43-8.037,7.702-19.231,12.12-28.278c-9.651-5.16-21.078-8.55-16.16-28.279c-2.523-8.629-24.864-3.789-28.278,0
	c-1.054,11.824,9.132,12.414,8.08,24.238c-31.073,28.381-95.772,0.363-96.961,60.602c-12.709,1.937-15.792-5.756-24.24-8.08
	c8.302-3.82,3.425-20.815,16.161-20.201c-3.652-13.603-9.038-0.473-16.161-8.08c-8.111,12.021-5.749,22.473-4.04,36.361
	c-14.014-2.951-11.321-22.59-8.08-32.32c-3.693-7.079-7.512-14.034-20.2-12.12c-6.002,3.426-5.844,13.01-8.08,20.2
	c-16.886,2.073-11.083-18.543-20.2-24.239c0.384,16.975-19.337-7.134-40.4-4.041c7.617-6.279-5.797-15.744,4.04-24.238
	c-5.408-1.264-9.421-6.939-20.2-12.121c-8.616,9.8,9.616,17.254,4.04,36.359c-21.331,4.481-25.534,1.174-40.4,12.121
	c-0.742-3.437,1.578-3.81,4.04-4.041c2.397-2.551-3.958-7.506-11.677-12.011c-6.045,14.337-13.015,28.217-21.314,41.336
	c28.553,8.419,74.428,10.2,105.71,2.994c-0.595-8.832-10.179-8.674-20.2-8.08c3.893-26.313,33.383-10.205,36.36,8.08
	c77.118,40.013,161.679-11.973,250.48,0C474.391,669.309,456.739,631.182,481.091,622.2z M328.099,697.715
	c-10.415-0.975,5.55-6.949,0-16.16c4.698,0.656,7.191-0.895,8.08-4.041c5.481,1.252,3.353,10.117,4.04,16.16
	C334.486,693.326,328.778,693.006,328.099,697.715z"/>
<path fill="#44715D" d="M425.058,241.194c2.781,9.873,5.577,18.568,7.864,27.054c1.172-6.066,2.418-12.117,3.798-18.137
	c-7.186-42.971,1.867-90.624,8.538-130.116c-12.523,0.405-19.3-4.94-28.279-8.08C442.298,134.628,431.782,211.746,425.058,241.194z"
	/>
<path fill="#44715D" d="M221.325,168.146c-0.992-2.18-2.049-4.323-3.143-6.445c-3.581,7.202-4.002,14.643,4.876,14.852
	c0.11-0.799,0.405-1.415,0.822-1.907C223.036,172.47,222.188,170.3,221.325,168.146z"/>
<path fill="#44715D" d="M429.099,136.153c1.441,20.295-1.071,36.634-8.08,48.48c-9.157-4.308-14.682-12.251-16.158-24.24
	c-11.854,3.435,5.255,10.168,0,20.2c-8.345-8.706-15.298-1.746-12.12,12.12c-9.785-2.335-8.985-15.255-12.12-24.24
	c19.8,20.11,4.149-19.211,12.12-32.32c4.744,16.181,13.677,19.159,24.24,36.36C432.34,162.866,404.917,132.713,429.099,136.153z"/>
<path fill="#44715D" d="M412.939,515.914c5.396,4.029,7.933,10.92,16.158,12.119c0.854,6.912-6.886,10.463,0,12.121
	c-1.004,25.102,1.511,50.51,0,64.641c-16.111-2.215-12.167-2.215-28.278,0c-5.787-9.027-8.345-21.285-20.2-24.24
	c-10.686,1.437-3.656,20.584-12.12,24.24c-3.437,0.74-3.809-1.578-4.04-4.041c3.93-0.109,3.135-4.945,4.04-8.08
	c-1.252-5.479-10.116-3.352-16.16-4.039c17.681-10.006-12.352-7.219,0-24.24c21.068,6.255,15.918-13.709,24.24-20.2
	c1.799,28.713,33.725-12.025,40.399,16.159C429.246,545.135,412.345,532.09,412.939,515.914z"/>
<path fill="#44715D" d="M336.179,596.715c-15.434-1.969-12.646,14.287-20.2,20.199c-2.209-5.871,4.72-20.879-4.039-20.199
	c1.132,9.211-0.974,15.187-8.081,16.16c-3.393-4.688-5.328-10.832-4.039-20.201c22.125,0.801,25.628-10.799,44.439-4.039
	C345.742,595.504,341.108,596.256,336.179,596.715z"/>
<path fill="#44715D" d="M340.219,616.914c15.008,8.338,10.563-5.791,28.28-4.039c2.462,0.23,4.781,0.604,4.04,4.039
	c3.734,7.039-0.137,21.684,12.12,20.199c-0.61,7.471-13.684,2.479-16.16,8.08c6.729-8.027-0.363-5.14,0-16.16
	c-7.943-1.209-8.012,5.455-12.12,8.08C353.401,627.971,340.981,628.271,340.219,616.914z"/>
<path fill="#44715D" d="M400.818,313.913c-9.99,4.74,9.8,16.786-8.08,16.16c0.311-20.51-17.849-22.551-24.24-36.36
	c-8.774,10.763,27.344,27.701,8.08,48.48c-11.557-7.296-10.621-27.086-24.24-32.32c-11.852,3.435,5.255,10.168,0,20.2
	c-17.117-15.092-13.224,16.691-28.28,16.16c-2.462-9.658,5.071-29.311-4.04-32.32c-0.972,7.107-6.947,9.211-16.16,8.08
	c-2.529-12.457-21.83-29.106-8.079-44.44c9.484,1.289,9.042,12.504,16.16,16.16c0.878-15.431-1.042-34.22-2.534-56.184
	c-4.972,5.235-11.859,8.763-19.097,10.09c1.903,4.51,3.762,9.066,5.471,13.771c-16.675,6.102-22.446,21.515-36.36,20.2
	c-2.325-8.448-10.016-11.531-8.08-24.24c-1.731-11.157,15.06-3.792,16.16-12.12c-5.059-1.46-7.968-4.125-9.497-7.526
	c-6.629-4.249-11.896-10.544-13.5-18.09c-2.293-3.548-4.374-7.249-6.313-11.044c1.261,28.156,11.537,55.04-3.009,73.021
	c-4.108-22.82-0.321-53.014-16.16-72.72c12.025-0.4,7.801-17.764,4.04-24.24c-13.267,31.174-8.338,80.543-28.28,105.041
	c-9.311-3.814-13.025-0.263-28.28-4.04c-15.465,43.747,10.734,93.472,34.429,107.969c-2.604-3.905,6.525-16.292,10.011-19.088
	c19.842,1.599,38.753,0.473,52.52,16.16c0.558-7.522,2.656-13.503,8.08-16.16c46.586,6.034,38.711,92.774-4.04,72.721
	c-5.682,12.524,7.591,10.62-4.04,24.239c15.07-2.435,19.816-15.196,36.36-16.16c-2.737,9.386-13.426,10.814-16.161,20.199
	c12.52,5.324,22.41-11.973,28.28,0c-6.729,6.804-21.941,17.27-32.32,8.08c-4.965,19.779,13.931,15.697,12.121,32.32
	c-11.658-1.811-9.553-17.381-20.2-20.199c-2.746,14.76-5.634,29.379-4.04,48.479c12.688,2.768,16.507-0.464,20.2,4.041
	c1.115,7.08-11.373,20.157,0,24.239c0.973-10.416,6.949,5.55,16.16,0c6.234-13.966,7.092-33.308,24.24-36.36
	c1.81,15.687-10.121,25.345,8.08,28.28c7.244-7.569,8.917-20.711,16.16-28.28c15.928,7.891,12.352-7.892,28.28,0
	c4.023-48.354,35.476-106.596,8.08-149.479C394.72,367.796,412.769,324.56,400.818,313.913z M320.019,467.434
	c-14.734-2.756,0.863-16.086-4.04-32.319C334.748,435.934,317.526,457.387,320.019,467.434z"/>
<path fill="#44715D" d="M372.539,414.914C355.348,458.701,380.666,448.912,372.539,414.914L372.539,414.914z"/>
<path fill="#44715D" d="M322.436,211.652c3.062,5.057,6.088,9.138,9.702,9.341c-9.89-3.025-0.856-12.057,4.04-4.04
	c0.008-9.219-6.143-12.281-9.703-17.932C325.242,203.267,323.913,207.482,322.436,211.652z"/>
<path fill="#44715D" d="M340.726,156.672c-0.672,0.966-1.339,1.935-2.005,2.905c-0.994,1.896-2.066,3.502-3.203,4.855
	c-2.134,7.974-4.059,16.006-6.141,23.99c10.077-1.637,2.061-10.154,18.921-11.87C348.887,166.814,346.355,160.194,340.726,156.672z"
	/>
<path fill="#44715D" d="M158.418,196.753c-0.11-3.93-4.945-3.135-8.08-4.04c6.313-12.541,11.988-25.718,20.2-36.36
	c12.099,16.323-6.618,36.339-16.16,44.44C148.161,198.658,154.121,196.58,158.418,196.753z"/>
<path fill="#44715D" d="M356.379,176.553c11.525,7.328,13.024,24.682,16.16,40.4C362.266,210.368,365.269,192.808,356.379,176.553z"
	/>
<path fill="#44715D" d="M412.939,200.793c-4.024-13.277,5.875,18.027,16.158,16.16c-3.225,7.549-6.749,14.797-8.08,24.24
	C414.896,231.157,413.218,216.675,412.939,200.793z"/>
<path fill="#44715D" d="M404.859,241.193c12.15-4.071,7.158,9.001,8.08,16.16c0.65,4.734,7.363,3.409,12.118,4.04
	c-0.445,7.633-13.354,2.804-12.118,12.12C411.014,268.948,406.832,256.191,404.859,241.193z"/>
<path fill="#44715D" d="M259.419,439.154c-2.262-5.818-6.302-9.859-12.12-12.121c12.267-17.723-2.246-0.662,4.04-32.319
	c17.838,3.313,12.772,38.579,8.08,52.521C254.337,446.234,255.342,439.201,259.419,439.154z"/>
<path fill="#44715D" d="M372.539,414.914C380.666,448.912,355.348,458.701,372.539,414.914L372.539,414.914z"/>
<path fill="#44715D" d="M178.618,427.033c-3.49,3.657-7.067,7.229-10.705,10.738c0.012,1.912-0.005,3.822-0.04,5.731
	c8.415,8.531,12.279,21.612,22.864,27.971C183.368,456.066,181.427,436.824,178.618,427.033z"/>
<path fill="#44715D" d="M198.819,467.434c3.598-1.789,7.228-3.545,8.08-8.08c15.597,6.529-4.692,27.923,12.12,28.281
	C210.723,498.26,199.303,477.992,198.819,467.434z"/>
<path fill="#44715D" d="M434.444,529.848c-1.835-4.293-3.738-8.59-5.606-12.911c-1.568,2.044-3.559,3.666-7.82,3.017
	c2.783-10.861-8.353-7.805-12.118-12.119c-0.658,4.697,0.889,7.185,4.04,8.08c5.396,4.029,7.933,10.92,16.158,12.119
	c0.854,6.912-6.886,10.463,0,12.121c1.564-3.146,3.104-6.315,6.495-7.632C435.21,531.631,434.825,530.739,434.444,529.848z"/>
<path fill="#44715D" d="M206.899,536.113c-3.272-0.769-4.03-4.049-8.08-4.039c-1.71,8.442,2.767,10.699,4.04,16.16
	c-8.101-6.714-18.78-10.849-20.2-24.24C194.973,523.799,203.227,527.666,206.899,536.113z"/>
<path fill="#44715D" d="M231.139,548.234c10.958-8.502,45.061-7.402,48.48,24.239c-6.733,0-13.466,0-20.2,0
	c-0.063-10.711,2.241-23.789-8.08-24.239c-12.099,2.655,3.861,8.637,0,16.159c-5.387,0-10.773,0-16.16,0
	c1.273-5.461,5.75-7.717,4.04-16.159C236.525,548.234,233.832,548.234,231.139,548.234z"/>
<path fill="#44715D" d="M344.259,588.635c1.348,0,2.693,0,4.04,0c0,2.693,0,5.388,0,8.08c-7.08,3.691-14.035,7.512-12.12,20.199
	c-14.177-3.188-4.666-14.129,0-20.199C341.108,596.256,345.742,595.504,344.259,588.635z"/>
<path fill="#44715D" d="M336.179,616.914c-1.915-12.688,5.04-16.508,12.12-20.199c3.6,3.142,9.122,4.344,16.16,4.039
	c0.231,2.463,0.604,4.781,4.04,4.041c0,2.693,0,5.387,0,8.08c-17.717-1.752-13.272,12.377-28.28,4.039
	C338.872,616.914,337.525,616.914,336.179,616.914z"/>
<path fill="#44715D" d="M328.099,681.555c4.698,0.656,7.191-0.895,8.08-4.041c5.481,1.252,3.353,10.117,4.04,16.16
	c-5.732-0.348-11.44-0.668-12.12,4.041C317.684,696.74,333.648,690.766,328.099,681.555z"/>
<path fill="#44715D" d="M198.819,233.114c-10.863,2.783-7.807-8.354-12.12-12.12c-11.41,19.563-10.758,51.189-24.24,68.68
	c-5.208-5.566-17.549-3.998-28.28-4.04c-0.105-17.612-2.404-37.417,8.08-44.44c-9.374-7.59-16.565-17.343-8.08-32.32
	c17.575,12.567,31.847-6.886,36.36-20.2c17.633,3.503,17.964,0.905,32.32,4.04c1.236,12.23,12.499,14.435,8.08,32.32
	C200.292,223.997,197.683,216.711,198.819,233.114z"/>
<path fill="#44715D" d="M227.099,596.715c-12.493-10.428-19.784,4.244-12.12,16.16c-24.629,0.389-44.813-3.668-56.56-16.16
	c-7.98,6.111,1.852,23.387,0,44.439c-4.697-0.658-7.186,0.895-8.08,4.039c-13.725-2.734-3.961-13.424,4.04-16.16
	c-5.913-12.939-19.784-17.922-16.16-40.398c6.986,1.746,28.711-10.459,4.04-12.121C175.82,567.02,212.633,582.926,227.099,596.715z"
	/>
</svg>
