<?xml version="1.0" encoding="utf-8"?>
<!-- Generator: Adobe Illustrator 15.0.0, SVG Export Plug-In . SVG Version: 6.00 Build 0)  -->
<!DOCTYPE svg PUBLIC "-//W3C//DTD SVG 1.1//EN" "http://www.w3.org/Graphics/SVG/1.1/DTD/svg11.dtd">
<svg version="1.1" id="Capa_1" xmlns="http://www.w3.org/2000/svg" xmlns:xlink="http://www.w3.org/1999/xlink" x="0px" y="0px"
	 width="612px" height="792px" viewBox="0 0 612 792" enable-background="new 0 0 612 792" xml:space="preserve">
<path fill="#AC9684" d="M301.02,160.069c-7.055-6.225-24.443-2.118-29.881-9.96c1.025-7.829,11.53-6.178,9.961-16.601
	c10.236-0.757,23.923,7.842,36.522,0c10.963,1.902-4.182,21.477,3.32,19.92c-0.854,6.896-14.587,0.908-16.602,6.64
	C303.233,160.069,302.126,160.069,301.02,160.069z"/>
<path fill="#232221" d="M301.02,160.069c1.106,0,2.214,0,3.321,0c1.448,4.929,4.25-1.31,9.959,0
	c-16.522,7.825,3.979,52.673-13.28,59.762c1.526-16.181-3.475-38.89,3.321-49.802C303.38,166.156,285.509,160.441,301.02,160.069z"
	/>
<path fill="#232221" d="M427.185,243.072c3.848,11.997-26.812,6.623-39.842,6.64C393.067,239.942,421.461,252.842,427.185,243.072z"
	/>
<path fill="#D1C9B8" d="M125.053,794.213c15.567-5.525,54.155-5.525,69.723,0C171.535,794.213,148.294,794.213,125.053,794.213z"/>
<path fill="#232221" d="M347.503,130.188c1.105,0,2.212,0,3.319,0c10.047,16.968-13.488,25.342-26.563,29.881
	C322.393,153.641,354.168,152.452,347.503,130.188z"/>
<path fill="#934761" d="M438.44,389.208c-0.347-4.397-0.444-8.79-0.374-13.179c-4.234-12.369-7.064-25.32-7.126-38.324
	c-0.05-10.76,2.029-21.43,4.535-31.854c1.213-5.045,2.514-10.084,3.451-15.19c0.215-1.123,0.413-2.249,0.595-3.377
	c-0.132,1.301-0.093,0.981,0.118-0.961c0.205-2.276,0.328-4.537,0.36-6.822c0.034-2.443,0.646-4.761,1.683-6.833
	c3.329-38.972,20.729-76.757,15.386-112.598c-32.766-12.61-80.644-10.107-106.244-29.881c10.046,16.968-13.489,25.342-26.563,29.881
	c-1.867-6.428,29.908-7.617,23.243-29.881c-15.998-22.221-62.172-0.29-76.365-9.961c-25.895,29.441-85.674,24.997-126.165,39.842
	c0.307,42.855,17.05,69.272,19.921,109.564c6.406,57.328,5.239,135.823-3.319,189.249c-3.425,81.308-19.498,137.162-33.202,202.527
	c6.882-7.619,21.318-2.33,26.27,3.495c24.487-2.311,48.831-0.534,73.356,2.721c5.965,0.792,11.867,1.625,17.742,2.448
	c29.623,0.188,59.249,0.637,88.872,0.193c16.106-0.241,32.195-0.591,48.306-0.601c15.824-0.009,31.704-0.015,47.477-1.45
	c11.544-1.05,23.816-3.905,36.5-6.354c0.044-0.151,0.094-0.297,0.133-0.453c0.109,0.127,0.212,0.245,0.319,0.369
	c1.491-0.287,2.985-0.572,4.487-0.843c4.646-0.838,9.323-1.641,14.021-2.318c-24.85-63.143-33.678-142.312-37.423-226.562
	C443.031,418.37,439.608,404.019,438.44,389.208z M154.934,179.99c8.491,5.897,7.445,21.33,13.281,29.881
	C163.174,213.615,155.609,191.636,154.934,179.99z M310.98,342.676c-13.583-19.42-8.507-82.804-9.961-112.884
	c5.68-0.148,8.6,2.468,9.961,6.64c-1.756,5.11-3.463,0.212-3.32-3.32C306.644,259.223,307.146,320.17,310.98,342.676z
	 M320.941,153.429c-0.854,6.895-14.588,0.908-16.602,6.64c1.448,4.929,4.25-1.31,9.959,0.001
	c-16.522,7.824,3.979,52.673-13.28,59.762c1.527-16.181-3.475-38.89,3.321-49.802c-0.96-3.873-18.832-9.588-3.321-9.96
	c-7.055-6.225-24.443-2.118-29.881-9.96c1.025-7.83,11.53-6.178,9.961-16.601c10.236-0.757,23.923,7.842,36.522,0
	C328.584,135.411,313.439,154.986,320.941,153.429z M387.343,249.712c5.725-9.77,34.118,3.13,39.842-6.64
	C431.031,255.068,400.373,249.695,387.343,249.712z"/>
<path fill="#232221" d="M154.934,179.99c8.491,5.897,7.445,21.33,13.281,29.881C163.174,213.615,155.609,191.636,154.934,179.99z"/>
<path fill="#232221" d="M307.66,233.112c-1.017,26.111-0.514,87.058,3.32,109.564c-13.583-19.42-8.507-82.804-9.961-112.884
	c5.68-0.147,8.6,2.468,9.961,6.64C309.225,241.542,307.518,236.644,307.66,233.112z"/>
<path fill="#D1C9B8" d="M164.895,269.633c6.406,57.328,5.239,135.823-3.32,189.248C164.856,397.973,165.63,334.557,164.895,269.633z
	"/>
<path fill="#232221" d="M436.029,250.46c0,2.75-2.691,4.98-6.013,4.98h-78.752c-3.321,0-6.014-2.23-6.014-4.98l0,0
	c0-2.751,2.692-4.981,6.014-4.981h78.752C433.338,245.479,436.029,247.709,436.029,250.46L436.029,250.46z"/>
</svg>
