<?xml version="1.0" encoding="utf-8"?>
<!-- Generator: Adobe Illustrator 15.0.0, SVG Export Plug-In . SVG Version: 6.00 Build 0)  -->
<!DOCTYPE svg PUBLIC "-//W3C//DTD SVG 1.1//EN" "http://www.w3.org/Graphics/SVG/1.1/DTD/svg11.dtd">
<svg version="1.1" id="Capa_1" xmlns="http://www.w3.org/2000/svg" xmlns:xlink="http://www.w3.org/1999/xlink" x="0px" y="0px"
	 width="612px" height="792px" viewBox="0 0 612 792" enable-background="new 0 0 612 792" xml:space="preserve">
<path fill="#D1C9B8" d="M176.75,92.795c5.728-1.953,13.688,195.382,4.271,87.069C179.297,160.007,174.547,131.561,176.75,92.795z"/>
<path fill="#D1C9B8" d="M262.183,262.334c-7.248,8.146-19.868,11.091-34.174,12.405c3.632-6.132,10.751-8.89,21.359-8.271
	c-1.19-8.497-11.408-8.25-17.087-12.406C241.187,241.744,249.68,264.461,262.183,262.334z"/>
<path fill="#D1C9B8" d="M415.965,311.956c17.3,5.084,4.891,32.555,4.273,45.488C410.459,350.369,418.668,325.88,415.965,311.956z"/>
<path fill="#D1C9B8" d="M159.663,324.362c4.271,0,8.543,0,12.815,0c0.45,18.355-11.948,24.272-8.544,45.487
	C149.517,362.581,164.351,345.426,159.663,324.362z"/>
<path fill="#D1C9B8" d="M356.16,324.362c8.489,6.887,5.436-0.377,17.087,0c-12.181,30.605,21.676,50.043,17.087,86.839
	C371.991,388.986,361.117,359.544,356.16,324.362z"/>
<path fill="#D1C9B8" d="M257.912,349.173c15.857,26.492-9.25,48.854-4.272,78.57C239.3,408.407,254.858,375.541,257.912,349.173z"/>
<path fill="#D1C9B8" d="M317.716,349.173c16.151,15.625,28.417,44.412,21.358,70.299
	C324.546,405.968,330.554,373.123,317.716,349.173z"/>
<path fill="#D1C9B8" d="M398.879,411.201c7.118,0,14.237,0,21.359,0c-8.584,24.08-14,29.593-4.273,57.894
	c-16.652-7.312-9.122-38.035-21.357-49.622C398.762,419.358,397.922,414.41,398.879,411.201z"/>
<path fill="#D1C9B8" d="M240.824,452.554c10.296,10.865-9.478,61.836-12.815,86.84c-9.794-10.053,6.258-21.936-8.543-20.676
	C223.082,493.271,241.548,482.201,240.824,452.554z"/>
<path fill="#AC9684" d="M458.682,514.583c6.86,8.254-10.66,28.095-25.629,28.945C442.218,534.484,449.127,523.251,458.682,514.583z"
	/>
<path fill="#AC9684" d="M454.409,547.664c6.898-1.163,7.354,3.91,12.816,4.135c1.746,9.962-7.805,8.992-4.272,20.677
	c-8.242-1.669-0.372-18.938-17.086-12.404C448.642,555.865,455.69,555.794,454.409,547.664z"/>
<path fill="#AC9684" d="M121.216,667.586c-5.729,14.731,6.969,21.623-12.815,20.677
	C112.351,681.059,108.257,666.067,121.216,667.586z"/>
<path fill="#D1C9B8" d="M403.15,88.654c9.378,31.162-0.456,90.253-4.271,123.042C395.568,163.106,405.335,135.455,403.15,88.654z"/>
<path fill="#D1C9B8" d="M116.945,431.878c29.668,40.2,46.85,92.487,93.978,115.786c-25.263,23.789-64.709,33.847-93.978,53.759
	c10.234,13.902-13.193,56.169,12.816,70.298c29.395-2.961,19.038-24.82,34.173-45.486c29.124,3.726,34.535,22.322,51.261,28.946
	c-17.793,13.102-53.485,8.873-72.619,20.677c42.017,8.928,80.089-21.688,132.423-16.541c1.219,12.599,16.253,11.835,21.359,20.677
	c15.708,1.422,12.915-15.065,17.087-24.813c45.771,1.539,91.118,24.332,128.151,20.677c-12.404-14.184-46.656-7.217-59.806-20.677
	c6.881-25.933,29.785-11.038,34.174-37.218c9.528,0.609-5.545,10.419,0,20.676c5.734-2.719,7.954-8.841,8.543-16.541
	c7.521,12.02,9.735,29.174,12.816,45.488c8.986-1.304,25.496-11.759,21.356,8.271c27.276-8.056,2.478-60.198,8.546-74.435
	c-25.521-20.784-59.438-33.438-89.707-49.624c36.343-39.253,76.946-74.379,89.707-136.463c-8.232,1.682-3.38,16.036-17.089,12.407
	c-5.584-36.55-14.689-45.676-21.358-82.705c7.266-1.518,8.061,3.226,8.545,8.271c2.87-17.639-10.386-59.595-8.545-78.57
	c-4.738,14.177-10.656,4.405-12.814,16.541c-6.347-23.411-7.736-60.51-21.357-82.704c-2.164,4.953-18.422,16.455-38.446,24.812
	c10.475,5.508-7.697,12.481,4.271,16.541c-1.863,6.138-5.468-1.631-12.813,0c14.979,11.345-7.209,17.284,8.542,20.676
	c-16.73,12.411-25.028-23.147-4.271-24.812c-14.612-8.464-25.938,21.635-46.991,20.677c4.662,9.497,20.969-4.12,25.631-8.271
	c-38.09,46.688-118.83-33.189-140.967-49.622c-9.289,14.683-23.061,44.152-8.544,57.894c-12.219,7.468-11.346,27.61-29.902,28.946
	c4.75,4.296,13.238,22.765-8.543,24.811c27.071,12.836-10.634,76.135-4.272,103.381c-2.88,9.033-22.415,0.116-17.087-12.407
	c-5.006,0.669-3.604,7.538-4.271,12.407c-19.056-98.406,44.642-152.515,68.348-223.304c34.43,24.563,67.741,50.204,106.793,70.299
	c37.75-19.971,72.168-43.167,102.521-70.299c27.722,36.571,39.219,88.854,72.62,119.921
	c11.469,119.846,1.834,260.121,17.086,376.305c-116.66,30.528-252.898,11.408-380.184,0
	C122.907,613.203,99.802,513.226,116.945,431.878z M108.401,688.263c19.784,0.946,7.086-5.944,12.815-20.677
	C108.257,666.067,112.351,681.059,108.401,688.263z M125.489,539.394c0-2.757,0-5.514,0-8.271
	c8.488,0.054,5.428,11.286,17.086,8.271c-0.156-16.39-13.738-19.781-21.359-28.945C126.979,524.346,118.914,532.319,125.489,539.394
	z M433.053,543.528c14.969-0.852,32.489-20.691,25.629-28.945C449.127,523.251,442.218,534.484,433.053,543.528z M445.867,560.07
	c16.714-6.532,8.844,10.735,17.086,12.404c-3.531-11.685,6.02-10.715,4.272-20.677c-5.464-0.225-5.918-5.298-12.816-4.135
	C455.69,555.794,448.642,555.865,445.867,560.07z M125.489,576.61c-0.017-11.043,13.499-8.986,12.814-20.677
	c-7.954-3.951-14.278,12.386-17.087,0c2.37,0.012,4.851-3.349,0-4.136C114.186,558.224,119.393,571.098,125.489,576.61z"/>
<path fill="#AC9684" d="M116.945,423.608c0.667-4.869-0.734-11.738,4.271-12.407c-5.328,12.523,14.207,21.44,17.087,12.407
	c-6.362-27.246,31.343-90.545,4.272-103.381c21.781-2.046,13.293-20.515,8.543-24.811c18.556-1.336,17.683-21.479,29.902-28.946
	c-14.517-13.742-0.744-43.211,8.544-57.894c22.137,16.433,102.877,96.311,140.967,49.622c-4.662,4.152-20.972,17.769-25.631,8.271
	c21.053,0.958,32.377-29.141,46.991-20.677c-20.759,1.664-12.461,37.223,4.271,24.812c-15.751-3.393,6.437-9.332-8.542-20.676
	c7.347-1.631,10.95,6.138,12.813,0c-11.97-4.06,6.202-11.032-4.271-16.541c20.023-8.357,36.282-19.858,38.446-24.812
	c13.62,22.194,15.012,59.293,21.357,82.704c2.158-12.136,8.076-2.364,12.814-16.541c-1.842,18.975,11.415,60.931,8.545,78.57
	c-0.484-5.045-1.279-9.789-8.545-8.271c6.669,37.029,15.774,46.155,21.358,82.705c13.709,3.629,8.855-10.727,17.088-12.407
	c-12.76,62.084-53.363,97.21-89.707,136.463c30.271,16.188,64.187,28.84,89.707,49.624c-6.067,14.235,18.731,66.379-8.545,74.435
	c4.14-20.029-12.371-9.574-21.356-8.271c-3.081-16.313-5.296-33.47-12.816-45.488c-0.589,7.7-2.809,13.822-8.543,16.541
	c-5.545-10.257,9.528-20.065,0-20.676c-4.389,26.18-27.293,11.285-34.174,37.218c13.148,13.46,47.4,6.493,59.806,20.677
	c-37.034,3.655-82.382-19.138-128.151-20.677c-4.173,9.746-1.38,26.233-17.087,24.813c-5.106-8.842-20.141-8.078-21.359-20.677
	c-52.333-5.147-90.406,25.469-132.423,16.541c19.134-11.804,54.826-7.575,72.619-20.677c-16.726-6.624-22.137-25.222-51.261-28.946
	c-15.135,20.666-4.778,42.525-34.173,45.486c-26.009-14.129-2.582-56.396-12.816-70.298c29.268-19.912,68.714-29.97,93.978-53.759
	c-47.127-23.299-64.309-75.586-93.978-115.786C116.945,429.122,116.945,426.363,116.945,423.608z M232.281,254.063
	c5.679,4.156,15.897,3.909,17.087,12.406c-10.607-0.62-17.727,2.138-21.359,8.271c14.306-1.314,26.926-4.259,34.174-12.405
	C249.68,264.461,241.187,241.744,232.281,254.063z M257.912,270.604c3.721,8.497-21.737,8.249-8.544,12.405
	c9.567-11.016,21.403,5.848,29.902-4.135c0.957,3.209,0.117,8.158,4.272,8.271c0-4.135,0-8.271,0-12.406
	C270.538,279.93,266.933,277.9,257.912,270.604z M309.172,283.01c7.348-1.631,10.952,6.138,12.814,0
	c-2.603-0.236-5.057-0.62-4.271-4.135c10.868,2.133,16.563,7.048,17.087-8.27C323.89,272.446,315.162,276.403,309.172,283.01z
	 M347.618,328.498c2.886-23.471-18.04-23.891-25.632-37.217C328.684,305.474,335.804,319.258,347.618,328.498z M198.107,407.067
	c24.273-27.504,33.685-69.396,55.533-99.247c-24.162-2.014-15.179,26.254-34.174,8.27
	C216.162,347.397,196.684,384.948,198.107,407.067z M420.238,357.444c0.615-12.934,13.025-40.404-4.273-45.488
	C418.668,325.88,410.459,350.369,420.238,357.444z M163.934,369.849c-3.404-21.214,8.994-27.131,8.544-45.487
	c-4.272,0-8.544,0-12.815,0C164.351,345.426,149.517,362.581,163.934,369.849z M390.334,411.201
	c4.589-36.796-29.268-56.234-17.087-86.839c-11.651-0.377-8.598,6.887-17.087,0C361.117,359.544,371.991,388.986,390.334,411.201z
	 M253.64,427.743c-4.979-29.716,20.129-52.078,4.272-78.57C254.858,375.541,239.3,408.407,253.64,427.743z M339.074,419.473
	c7.059-25.888-5.207-54.674-21.358-70.299C330.554,373.123,324.546,405.968,339.074,419.473z M189.564,440.149
	c0.1-15.262-1.914-28.475-17.087-28.948c-5.802,20.139-2.849,34.438,0,62.029c13.238-15.604,0.444-40.18,12.815-49.622
	C186.021,429.795,183.769,438.866,189.564,440.149z M394.606,419.473c12.235,11.587,4.705,42.312,21.357,49.622
	c-9.727-28.301-4.311-33.813,4.273-57.894c-7.122,0-14.241,0-21.359,0C397.922,414.41,398.762,419.358,394.606,419.473z
	 M219.466,518.718c14.801-1.26-1.251,10.623,8.543,20.677c3.337-25.005,23.111-75.976,12.815-86.841
	C241.548,482.201,223.082,493.271,219.466,518.718z M351.891,518.718c8.075-0.927,9.42,4.663,17.084,4.136
	c-8.477-26.255-19.51-50.032-29.899-74.435C341.021,474.103,353.914,489.189,351.891,518.718z"/>
<path fill="#D1C9B8" d="M283.542,274.739c0,4.135,0,8.271,0,12.406c-4.155-0.113-3.315-5.061-4.272-8.271
	c-8.499,9.983-20.335-6.881-29.902,4.135c-13.193-4.157,12.265-3.909,8.544-12.405C266.933,277.9,270.538,279.93,283.542,274.739z"
	/>
<path fill="#D1C9B8" d="M334.803,270.604c-0.522,15.318-6.219,10.403-17.087,8.27c-0.785,3.516,1.669,3.899,4.271,4.135
	c-1.862,6.138-5.468-1.631-12.814,0C315.162,276.403,323.89,272.446,334.803,270.604z"/>
<path fill="#D1C9B8" d="M321.986,291.28c7.592,13.326,28.518,13.747,25.632,37.217C335.804,319.258,328.684,305.474,321.986,291.28z
	"/>
<path fill="#D1C9B8" d="M219.466,316.091c18.995,17.984,10.012-10.284,34.174-8.27c-21.848,29.851-31.26,71.742-55.533,99.247
	C196.684,384.948,216.162,347.397,219.466,316.091z"/>
<path fill="#D1C9B8" d="M185.292,423.608c-12.371,9.442,0.423,34.019-12.815,49.622c-2.849-27.592-5.802-41.892,0-62.029
	c15.173,0.475,17.187,13.688,17.087,28.948C183.769,438.866,186.021,429.795,185.292,423.608z"/>
<path fill="#D1C9B8" d="M339.074,448.419c10.391,24.401,21.424,48.18,29.899,74.435c-7.664,0.527-9.009-5.063-17.084-4.136
	C353.914,489.189,341.021,474.103,339.074,448.419z"/>
<path fill="#AC9684" d="M121.216,510.447c7.621,9.164,21.203,12.557,21.359,28.945c-11.658,3.017-8.599-8.217-17.086-8.271
	c0,2.757,0,5.514,0,8.271C118.914,532.319,126.979,524.346,121.216,510.447z"/>
<path fill="#AC9684" d="M121.216,551.799c4.851,0.787,2.37,4.146,0,4.136c2.809,12.386,9.133-3.951,17.087,0
	c0.685,11.689-12.832,9.634-12.814,20.677C119.393,571.098,114.186,558.224,121.216,551.799z"/>
</svg>
