<?xml version="1.0" encoding="utf-8"?>
<!-- Generator: Adobe Illustrator 15.0.0, SVG Export Plug-In . SVG Version: 6.00 Build 0)  -->
<!DOCTYPE svg PUBLIC "-//W3C//DTD SVG 1.1//EN" "http://www.w3.org/Graphics/SVG/1.1/DTD/svg11.dtd">
<svg version="1.1" id="Capa_1" xmlns="http://www.w3.org/2000/svg" xmlns:xlink="http://www.w3.org/1999/xlink" x="0px" y="0px"
	 width="612px" height="792px" viewBox="0 0 612 792" enable-background="new 0 0 612 792" xml:space="preserve">
<path fill="#934761" d="M88.812,83.852c0,1.421,0,2.844,0,4.265c0.322,7.431-0.95,13.262-4.266,17.061c-1.421,0-2.843,0-4.265,0
	c0-2.844,0-5.687,0-8.53c0-5.687,0-11.375,0-17.061C83.735,80.397,84.535,83.862,88.812,83.852z"/>
<path fill="#D1C9B8" d="M161.32,348.297c12.263-3.077,12.546-32.234,29.857-17.061c-3.11,9.686-12.834,12.756-21.326,17.061
	C167.007,348.297,164.164,348.297,161.32,348.297z"/>
<path fill="#D1C9B8" d="M122.933,356.827c-1.36-9.892,0.683-16.373,4.266-21.326C138.272,334.257,142.021,364.342,122.933,356.827z"
	/>
<path fill="#934761" d="M195.442,382.418c5.037-11.286,3.693-13.246,17.061-8.53c-8.919-6.721-7.498-23.781-17.061-29.857
	c0.938-3.321,3.571-4.959,8.53-4.265C227.237,329.486,239.589,393.504,195.442,382.418z"/>
<path fill="#44715D" d="M366.051,344.031c1.424,0,2.847,0,4.267,0c1.422,0,2.844,0,4.266,0c0,4.266,0,8.531,0,12.796
	c-10.852,2.199-16.539,7.27-17.062-8.53c2.601,0.244,5.05,0.638,4.267,4.265C365.113,351.618,366.746,348.991,366.051,344.031z"/>
<path fill="#934761" d="M549.457,386.685c1.316,15.538-0.678,27.756-4.264,38.386C537.602,419.939,545.547,394.431,549.457,386.685z
	"/>
<path fill="#934761" d="M430.029,408.011c-0.732,12.34-27.422,20.638-25.59,0c3.452,0.812,4.254,4.275,8.528,4.265
	c0-2.844,0-5.688,0-8.529C420.623,403.2,421.967,408.965,430.029,408.011z"/>
<path fill="#D1C9B8" d="M498.273,501.845c-12.058,0.685-9.937-12.812-21.326-12.796
	C483.189,477.665,500.352,490.837,498.273,501.845z"/>
<path fill="#934761" d="M135.729,506.111c-11.318-10.854,7.453-10.075,12.796-4.268c0,1.422,0,2.844,0,4.268
	c8.175,8.885,16.35,17.771,29.856,21.326c-0.233,5.452-5.465,5.907-4.265,12.794c4.976,8.702,11.152-12.396,17.061,4.267
	c0,1.421,0,2.843,0,4.266c-0.383,15.935-4.782,12.156,0,25.592c-16.922,0.473-33.361-14.707-21.326-29.856
	c-0.056-10.025-11.635,1.555-8.531,8.53c-7.042-0.066-2.388-11.829-8.53-12.797C149.979,525.981,139.528,519.373,135.729,506.111z"
	/>
<path fill="#934761" d="M511.07,518.905c-5.869,0.185-9.363-2.009-12.797-4.265c-0.183-5.87,2.012-9.363,4.266-12.797
	c5.453-0.231,5.91-5.464,12.795-4.266c-2.986,13.13-2.986,8.198,0,21.326C513.914,518.905,512.492,518.905,511.07,518.905z"/>
<path fill="#934761" d="M127.199,523.172c-9.836-8.465-4.738,1.071-12.796,4.266c-1.344-5.766-6.07-8.147-4.265-17.063
	C118.296,512.175,128.498,511.919,127.199,523.172z"/>
<path fill="#D1C9B8" d="M506.805,531.702c-11.975,9.352-24.823,17.827-21.326,42.651c-20.959-13.885,6.609-41.521,8.529-59.713
	C502.801,515.801,495.025,533.528,506.805,531.702z"/>
<path fill="#D1C9B8" d="M476.947,531.702c-4.554,3.977-1.326,15.732-12.795,12.796c5.553-5.682,2.621-12.874-4.267-17.061
	C464.074,514.363,471.268,532.335,476.947,531.702z"/>
<path fill="#D1C9B8" d="M122.933,557.294c9.397,3.398,17.028,8.563,17.061,21.326C127.998,577.819,121.823,571.199,122.933,557.294z
	"/>
<path fill="#232221" d="M122.933,612.742c1.894-8.064-5.804-25.703,8.531-21.326c5.654,12.695,4.371,21.643-4.265,29.856
	c-1.422,0-2.844,0-4.266,0C122.933,618.428,122.933,615.585,122.933,612.742z"/>
<path fill="#AC9684" d="M417.234,608.477c14.778-0.561,24.76,3.677,21.325,21.326C429.781,624.365,416.93,623,417.234,608.477z"/>
<path fill="#AC9684" d="M451.355,659.659c0-1.422,0-2.844,0-4.266c6.397-4.978,10.432-12.318,21.325-12.796
	C465.785,648.496,467.385,662.892,451.355,659.659z"/>
<path fill="#D1C9B8" d="M391.643,659.659c-6.196,6.598-16.639,8.952-29.854,8.53c2.609-3.977,9.924-15.733-4.266-12.795
	C365.186,635.29,382.586,655.538,391.643,659.659z"/>
<path fill="#934761" d="M272.217,680.985c-11.58-3.884,4.349-14.945,4.266-21.326c8.857,1.094,1.166,18.737,8.529,21.326
	C280.747,680.985,276.482,680.985,272.217,680.985z"/>
<path fill="#232221" d="M233.83,663.925c0.117,4.147,5.22,3.311,8.53,4.266c0,4.266,0,8.53,0,12.796c-2.843,0-5.687,0-8.53,0
	c-5.687,0-11.374,0-17.061,0C216.107,668.945,228.826,670.295,233.83,663.925z"/>
<path fill="#D1C9B8" d="M374.582,680.985c-6.525-13.106,27.852-13.106,21.326,0C388.801,680.985,381.691,680.985,374.582,680.985z"
	/>
<path fill="#D1C9B8" d="M97.342,216.074c10.858,14.973-11.469,48.106,21.326,46.917c-8.114,7.525-30.073,1.206-29.856,17.061
	c0-17.061,0-34.122,0-51.183C94.954,227.903,90.3,216.141,97.342,216.074z"/>
<path fill="#AC9684" d="M88.812,88.117c9.763,7.298,1.566,32.556,4.265,46.917c-10.896-11.274-8.464,5.843-8.531,17.061
	c-9.764-7.297-1.566-32.556-4.265-46.917c1.422,0,2.844,0,4.265,0C87.861,101.379,89.133,95.547,88.812,88.117z"/>
<path fill="#AC9684" d="M528.131,258.726c0.828-24.763-4.025-55.215,8.529-68.244c4.149,0.117,3.313,5.22,4.266,8.53
	c-16.389,4.938-5.285,37.365-8.529,55.448C533.18,258.088,530.73,258.482,528.131,258.726z"/>
<path fill="#934761" d="M528.131,258.726c2.6-0.244,5.049-0.638,4.266-4.265c1.423,0,2.845,0,4.265,0
	c-2.254,3.433-4.447,6.926-4.265,12.796c25.541,5.276,5.787,29.879,21.326,42.653c-12.008,4.31,1.179,18.116,0,25.591
	c-1.422,0-2.844,0-4.266,0c-11.652-18.316-19.947-47.685-21.326-63.979c-4.338,2.771-4.41,9.808-12.797,8.53
	c1.361-9.891-0.682-16.372-4.264-21.326C519.545,265.83,516.496,258.337,528.131,258.726z"/>
<path fill="#934761" d="M549.457,382.418c-13.607-3.654-13.189,6.709-21.326,8.53c-3.465,14.751,7.963,18.006,0,25.592
	c-20.965-22.236-22.098-56.625-8.531-85.304c14.152-1.355,26.236-0.645,29.857,8.53c4.148,0.116,3.311,5.221,4.266,8.531
	c-19.604,15.239-33.301-9.175-38.389,12.795c10.182-1.916,18.129,9.563,4.266,21.326c2.806,12.773,9.121-4.076,17.062,0
	c0-8.53,0-17.061,0-25.591c8.793,1.161,1.018,18.888,12.797,17.061C549.457,376.731,549.457,379.575,549.457,382.418z"/>
<path fill="#AC9684" d="M468.418,480.519c20.459-1.978,33.467,3.499,34.121,21.326c-2.254,3.434-4.447,6.927-4.266,12.797
	c3.434,2.256,6.928,4.448,12.797,4.265c6.901,14.817,9.912,19.827-4.267,29.857c-4.959,0.693-7.592-0.943-8.53-4.266
	c-9.857,4.357-8.824,19.609-8.529,34.122c-1.322,20.004,0.256,42.908-12.797,51.183c1.028,10.996,7.338-5.854,17.061,0
	c-11.766,11.391,5.039,9.27,4.267,21.326c-12.763-5.132-17.927-4.599-21.326,8.53c-8.187-5.676,4.897-18.934-4.267-29.856
	c-5.098,9.119-20.106,8.33-21.325,21.326c-2.248-4.599-4.431-20.305-4.265-38.387c5.697,4.253,8.375,11.527,17.062,12.795
	c3.854,11.64,9.541-12.975,17.061,0c0-5.688,0-11.374,0-17.062c-16.221-6.271-0.838,19.065-17.061,12.796
	c2.5-8.875,8.965-13.784,12.795-21.325c-0.715-4.973-6.742-4.634-12.795-4.267c7.299-16.062,6.471-18.062,8.528-34.123
	c-13.844,2.189-27.045,17.43-25.59-8.528c-5.586,0.065-5.432,11.829,0,12.796c0.715,9.251-15.129,1.933-21.326,4.266
	c-0.327-35.145-23.305-15.251-42.651-25.592c0,5.688,0,11.374,0,17.06c26.646-2.476,35.455,12.887,42.651,29.858
	c8.853-2.521,14.539-8.209,17.062-17.063c4.949,3.577,11.436,5.625,21.326,4.267c-9.265,18.532-16.961,2.792-17.062,21.326
	c-11.067,0.776-28.567-13.63-34.123-4.267c-4.024-7.342-15.766-6.98-12.795-21.326c-5.453,0.232-5.908,5.465-12.797,4.267
	c-4.014,18.23,16.896,11.54,17.063,25.591c-12.695-1.521-21.644-6.798-29.857-12.795c3.789-7.588,11.908-10.842,8.531-25.592
	c-1.232-17.938-25.17,4.076-12.797-12.796c13.141-4.255-4.754-11.53-8.529-12.797c2.949-13.372,11.379-5.56,21.326-4.265
	c3.979-3.128,6.465-7.753,8.528-12.796c1.423,0,2.845,0,4.267,0c5.604,1.51,6.709,7.508,12.795,8.53
	c4.633-1.057,2.895-8.48,8.531-8.53c-7.613,0.812-11.535-9.536-21.326-17.061c0-2.846,0-5.688,0-8.532
	c7.254,1.566,8.049-3.325,8.531-8.53c4.147-0.116,3.311-5.22,4.264-8.53c4.266,0,8.531,0,12.797,0
	c0.688,4.999,7.775,3.601,12.795,4.268c-0.115-4.149-5.219-3.312-8.528-4.268c6.896-10.707,20.524,7.576,29.854,8.53
	c-7.436,7.371-4.719,26.37,4.266,29.856c11.58,3.056-3.049-20.114,8.531-17.062c-1.832-6.696-13.418-3.643-8.531-17.06
	C464.846,485.479,467.479,483.841,468.418,480.519z M476.947,489.049c11.391-0.016,9.27,13.479,21.326,12.796
	C500.352,490.837,483.189,477.665,476.947,489.049z M494.008,514.642c-1.92,18.192-29.488,45.828-8.529,59.714
	c-3.497-24.825,9.353-33.302,21.326-42.652C495.025,533.528,502.801,515.801,494.008,514.642z M459.887,527.438
	c6.888,4.188,9.818,11.38,4.267,17.062c11.469,2.938,8.241-8.819,12.795-12.796C471.268,532.335,464.074,514.363,459.887,527.438z
	 M430.029,489.049c-8.867,4.177-25.979,22.038-17.062,29.856c1.256-10.141,11.541,4.743,12.797,8.532
	c10.273,1.742,9.271-7.787,21.326-4.267c0,9.951,0,19.904,0,29.856c28.469-23.304-15.09-48.272-12.797-51.185
	c-8.385-1.276-8.457,5.761-12.795,8.53C420.844,499.769,428.197,497.169,430.029,489.049z"/>
<path fill="#934761" d="M421.5,463.459c4.959-0.694,7.592,0.942,8.529,4.264c8.221-0.433-6.619-15.895,4.266-21.325
	c7.299-0.899,11.047,7.274,12.797,0c9.248-0.723,1.935,15.129,4.265,21.325c15.745,1.456,15.495-25.901,8.53-34.122
	c11.008,0.367,4.488,18.262,21.326,12.797c-5.893,17.267,9.258,13.489,8.531,25.593c-5.498,5.875-18.527,4.22-29.857,4.264
	c0.939,3.322,3.57,4.96,8.531,4.266c-0.939,3.322-3.572,4.961-8.531,4.268c-4.887,13.417,6.699,10.362,8.531,17.06
	c-11.58-3.054,3.049,20.116-8.531,17.062c-8.983-3.486-11.701-22.485-4.266-29.856c-9.33-0.954-22.959-19.236-29.855-8.53
	c3.312,0.956,8.414,0.117,8.529,4.268c-5.02-0.667-12.107,0.731-12.795-4.268C427.721,470.506,432.113,470.973,421.5,463.459z"/>
<path fill="#44715D" d="M481.213,403.745c0-1.422,0-2.844,0-4.267c2.844,0,5.688,0,8.531,0
	c-2.461,10.58-13.502,34.512-25.592,21.326c0-2.844,0-5.687,0-8.53c4.959-0.694,7.592,0.943,8.528,4.266
	C477.932,414.68,481.441,411.082,481.213,403.745z"/>
<path fill="#934761" d="M481.213,403.745c-3.787-7.443-18.67,3.176-8.531-4.267c-7.086-2.543-11.448,5.589-25.59-4.266
	c0-2.844,0-5.688,0-8.529c12.035,0.665,10.689-12.058,17.062-17.062c14.295,1.344,4.299,26.979,17.061,29.856
	C481.213,400.901,481.213,402.323,481.213,403.745z"/>
<path fill="#934761" d="M353.257,399.479c1.421,0,2.843,0,4.266,0c-1.812,14.862,28.272,38.581,17.061,12.796
	c5.604,1.511,6.709,7.51,12.795,8.53c10.082-3.781-9.779-23.813,12.797-21.325c-14.233,12.423,10.521,21.147,0,29.855
	c-2.844,0-5.688,0-8.531,0c-5.682-5.553-12.872-2.621-17.061,4.265c-4.959-0.692-7.592,0.944-8.531,4.267
	c-13.127,3.177-8.194-11.707-21.326-8.53c-12.5,3.609,2.552,13.729,0,21.326c9.582-2.894,18.529-15.661,29.857-4.266
	c4.561,15.934-10.59,12.157-8.531,25.593c0,1.421,0,2.843,0,4.264c-8.912-1.804-11.295,2.922-17.061,4.266
	c-4.254-5.697-11.529-8.375-12.795-17.06c-12.729,4.33-27.285,6.835-38.387,12.794c14.25-28.733-21.737-19.16,0-46.917
	c1.422,0,2.843,0,4.265,0c2.104,12.118,22.293,6.143,17.062,25.591c38.314-22.77-4.76-16.921-4.266-34.121c0-1.422,0-2.844,0-4.266
	c9.908,4.765,11.418-0.911,21.326,8.53C344.914,419.573,340.693,401.134,353.257,399.479z"/>
<path fill="#44715D" d="M353.257,399.479c0.145-18.627-11.78-25.191-12.796-42.651c3.326,0.944,4.959,3.571,4.264,8.531
	c2.602-0.245,5.051-0.64,4.267-4.266c1.062,9.063,16.317,18.654,8.531,38.387C356.1,399.479,354.678,399.479,353.257,399.479z"/>
<path fill="#232221" d="M387.377,284.317c10.621-2.421,26.682-21.331,38.389-8.53c3.004-16.661,54.726-14.49,85.306-17.061
	c3.582,4.955,5.625,11.436,4.264,21.326c8.387,1.278,8.459-5.759,12.797-8.53c1.379,16.294,9.674,45.663,21.326,63.979
	c0,1.421,0,2.843,0,4.265c-3.621-9.175-15.705-9.886-29.857-8.53c-13.565,28.679-12.434,63.068,8.531,85.304
	c7.963-7.586-3.465-10.841,0-25.592c8.138-1.82,7.719-12.184,21.326-8.53c0,1.421,0,2.842,0,4.266
	c-3.91,7.746-11.854,33.255-4.264,38.386c-0.013,27.002-2.771,51.256-8.533,72.509c-3.433,2.256-6.924,4.449-12.795,4.266
	c-1.037,21.056,11.168,45.829-17.062,46.919c14.179-10.031,11.168-15.04,4.267-29.857c1.422,0,2.844,0,4.264,0
	c-2.986-13.128-2.986-8.196,0-21.326c-6.885-1.198-7.342,4.033-12.795,4.266c-0.654-17.827-13.662-23.304-34.121-21.326
	c-4.961,0.694-7.592-0.942-8.531-4.266c11.33-0.044,24.359,1.611,29.857-4.264c0.727-12.104-14.424-8.326-8.531-25.594
	c-16.838,5.466-10.317-12.429-21.326-12.796c-10.44-0.471-0.903-14.101,4.267-12.795c12.09,13.186,23.131-10.746,25.592-21.325
	c-2.844,0-5.688,0-8.531,0c-12.762-2.878-2.766-28.514-17.061-29.857c-6.371,5.004-5.025,17.727-17.062,17.062
	c-17.406-10.831-39.125-16.873-59.715-4.266c-15.934,5.315-16.359,13.428-12.795,29.856c11.213,25.785-18.871,2.066-17.062-12.795
	c7.787-19.733-7.47-29.325-8.53-38.388c0.784,3.626-1.665,4.021-4.267,4.266c0.695-4.96-0.938-7.586-4.264-8.531
	c1.016,17.46,12.939,24.024,12.796,42.652c-12.563,1.653-8.343,20.094-17.062,25.591c-9.908-9.441-11.418-3.767-21.326-8.53
	c-1.904-14.973-22.26-4.927-4.267,0c-2.771,4.338-9.808,4.41-8.53,12.796c-1.422,0-2.843,0-4.265,0
	c-21.737,27.757,14.25,18.184,0,46.917c11.102-5.959,25.658-8.464,38.387-12.794c1.266,8.685,8.541,11.361,12.795,17.06
	c-5.476,0.7-5.476,26.036,0,12.798c16.155,7.27-9.264,7.02-8.529,12.796c7.525,3.842,9.613,0.343,4.264,17.061
	c10.144-14.284,15.361-7.131,34.123-12.797c-3.082,13.035,4.359,15.546,4.267,25.593c-9.947-1.295-18.377-9.107-21.326,4.265
	c3.774,1.267,21.67,8.542,8.529,12.797c-3.433,2.255-6.925,4.447-12.796,4.266c1.449-8.564-0.87-13.347-8.53-12.796
	c1.768,5.902-24.146,15.854-12.795,29.856c1.094,8.856,18.737,1.166,21.325,8.529c-0.366,6.055-0.704,12.079,4.267,12.796
	c-6.688,0.122-17.717,3.354-21.326,17.063c1.055,4.631,8.48,2.893,8.529,8.53c11.996-0.802,18.172-7.422,17.061-21.326
	c5.455,5.92,20.14,2.608,25.592,8.53c0,8.529,0,17.061,0,25.592c0.773,9.308-3.491,13.571-12.795,12.795
	c4.943-6.31,4.943-10.751,0-17.062c-9.112,12.483-35.621,20.959-38.387,51.184c-20.261,5.586,9.802-20.306-12.797-17.062
	c0.812-3.455,4.277-4.255,4.267-8.529c16.395-14.729,1.499-35.134-4.267-51.185c-2.842,0-5.688,0-8.529,0
	c-11.33,0.044-24.359-1.609-29.857,4.266c-7.297-0.188-11.046,3.171-12.795,8.53c-17.611-5.298,1.615-12.407,4.265-21.326
	c-17.539-0.261-24.675-8.485-21.326-38.387c-1.25-2.622-10.607-16.417,0-17.063c4.715-2.888,22.126-14.173,12.796-17.061
	c-1.771-9.475-23.387-4.094-21.327,4.267c0,2.843,0,5.686,0,8.529c-2.843,0-5.687,0-8.53,0
	c7.764-29.091-26.441-16.217-38.387-25.593c-16.817-10.518-11.074,22.215-17.061,8.53c-0.561-10.519-0.644-20.548,4.266-25.59
	c-0.645-7.888-14.445-2.622-17.061-8.53c-12.096-6.388-28.068-8.898-42.652-12.796c-10.88-13.297-24.181-24.159-34.122-38.389
	c0-1.422,0-2.844,0-4.266c7.053-13.662,14.689,18.761,17.061-4.266c14.04-10.226-15.518-12.584-8.531-29.856
	c-9.23-8.852-0.233-14.539,8.531-17.061c-6.787,15.723,5.653,32.756,12.796,46.917c-0.117,4.148-5.221,3.311-8.531,4.266
	c3.066,11.219,25.23,16.167,12.796,29.856c18.794,5.998,11.557-14.034,12.795-25.593c9.769,17.019,8.825-1.653,25.592,0
	c10.218,1.689-2.366-19.426,12.795-12.795c-1.427-15.105-11.734-10.484-4.265-25.592c-19.905,1.011-3.471,11.868-17.061,17.062
	c-4.148-0.116-3.31-5.221-4.265-8.529c4.843-0.813,2.366-4.276,0-4.266c-0.761-20.565-14.606-28.046-34.122-29.857
	c-2.938-14.19,8.82-6.875,12.796-4.265c19.188,6.397,25.808,25.379,51.183,25.59c3.799-1.887,7.631-3.742,8.531-8.53
	c44.146,11.085,31.795-52.933,8.53-42.652c0.783-3.626-1.666-4.021-4.265-4.265c0-2.844,0-5.688,0-8.53
	c10.046-0.095,12.557,7.347,25.591,4.265c5.454,5.92,20.138,2.61,25.591,8.53c8.858-1.094,1.167-18.739,8.531-21.326
	c6.376,6.764,24.314,6.237,21.326-8.53c-6.886-6.771-13.506-1.655-21.326,0c0-1.422,0-2.844,0-4.265
	c-5.121-5.598-1.661-6.709,0-12.796c17.556,8.03,39.276,11.907,59.714,17.061c8.914-1.805,11.295,2.921,17.062,4.265
	c0,2.843,0,5.687,0,8.53c-3.082,13.034,4.359,15.544,4.266,25.592c15.105-1.422,10.484-11.735,25.59-4.266
	c0.695,4.959-0.938,7.586-4.264,8.531c0.783-3.627-1.666-4.021-4.266-4.265c0.521,15.8,6.209,10.729,17.061,8.53
	c0-4.265,0-8.53,0-12.796c7.781-13.129,23.908,8.569,29.857-4.265c25.079,3.754,23.387-19.271,42.651-21.326
	c10.273,1.744,9.271-7.787,21.326-4.265c1.422,0,2.844,0,4.264,0c6.634-5.148,16.623-13.629,25.593-4.265
	c8.125-7.992,10.721-0.467,21.325,0c3.212-16.006-16.293-9.297-17.061-21.327c0-1.422,0-2.843,0-4.266
	c-9.969,1.316-17.621,8.354-25.592,0c-1.42,0-2.842,0-4.267,0c-7.924,3.45-17.231,5.516-21.325,12.796
	c-8.048,1.466-19.599-21.359-21.326,0c-7.457-12.807-26.367,6.109-12.795,12.796c-1.095,8.858-18.738,1.166-21.326,8.53
	c0-2.844,0-5.687,0-8.53c-10.674-5.632-13.353,16.86-17.062,4.265c-0.116-4.149-5.221-3.31-8.53-4.265
	C371.355,296.725,391.543,302.701,387.377,284.317z M272.217,382.418c11.252,1.299,11.002-8.908,12.795-17.061
	c-3.31-0.956-8.413-0.117-8.529-4.266c4.304-0.05,5.364-7.476,0-8.53c-4.166,20.349-13.885,9.541-21.327,21.326
	c2.843,0,5.687,0,8.53,0c-2.36,15.767-23.759-4.466-21.326,21.326c9.708-2.07,21.787-8.464,29.857,0
	C272.217,390.948,272.217,386.685,272.217,382.418z M246.625,454.927c-17.455-9.861-20.17,11.574-38.387,12.796
	C207.521,502.106,258.677,491.604,246.625,454.927z"/>
<path fill="#934761" d="M319.135,604.211c2.843,0,5.688,0,8.529,0c5.766,16.051,20.66,36.454,4.267,51.184
	c-3.144-18.472,9.646-26.413-4.267-34.121C322.128,611.259,329.836,611.725,319.135,604.211z"/>
<path fill="#44715D" d="M250.89,527.438c5.048,5.427,16.112,1.811,21.327-4.266c9.33,2.887-8.081,14.173-12.796,17.061
	c-0.117-4.147-5.221-3.311-8.531-4.265C250.89,533.123,250.89,530.28,250.89,527.438z"/>
<path fill="#AC9684" d="M174.116,484.785c-3.183,18.82,3.288,27.989,12.795,34.12c5.987,13.685,0.244-19.048,17.061-8.53
	c-5.415,14.302,33.811,18.577,12.796,21.327c-10.418-8.938-9.085-6.099-25.591-4.265c0,5.686,0,11.372,0,17.061
	c-5.909-16.661-12.085,4.437-17.061-4.268c-1.2-6.886,4.032-7.341,4.265-12.794c-13.507-3.555-21.682-12.44-29.856-21.325
	c11.152-1.2,18.349,1.554,17.061,12.794c18.822-6.652-20.826-20.942,4.266-21.326c-4.177-5.774-14.379-5.524-17.061-12.794
	c-19.027,6.369,18.505,19.115-4.265,17.06c-5.343-5.809-24.114-6.587-12.796,4.268c-3.793-3.312-9.63-4.588-17.061-4.268
	c19.177,19.205,12.563,64.212,38.387,76.775c12.019-17.283-6.198-15.522-4.265-38.389c6.142,0.968,1.488,12.729,8.53,12.797
	c-3.104-6.977,8.475-18.557,8.531-8.53c-12.035,15.148,4.404,30.329,21.326,29.855c-4.782-13.435-0.383-9.656,0-25.591
	c7.559-5.236,22.481-3.109,25.591-12.796c0,7.108,0,14.217,0,21.326c-1.422,0-2.843,0-4.265,0
	c-6.665-20.749-9.941,10.974-4.266,21.326c-9.324-0.628-9.158-10.747-8.53-21.326c-12.896,6.453,3.538,18.722,0,29.856
	c13.918-6.287,12.324,1,21.326,8.529c-11.174,8.464,16.817,2.07,21.326,0c-3.876,8.919-12.59,13.007-25.591,12.796
	c-0.899,7.298,7.27,11.047,0,12.797c-10.924-3.884-24.181-6.909-29.857,4.265c-6.142-2.388-10.407-6.653-12.795-12.795
	c0.283-18.761-24.403-12.563-21.326-34.122c-13.39-2.018-11.269,11.479-21.326,12.796c-14.334-4.377-6.637,13.262-8.531,21.326
	c-7.903-13.419-9.119-33.534-8.53-55.448c11.624-4.016,9.763-21.516,12.796-34.122c1.299-11.253-8.903-10.997-17.061-12.797
	c-1.805,8.914,2.921,11.297,4.265,17.063c-1.422,0-2.844,0-4.265,0c-1.422,0-2.844,0-4.266,0c0-17.063,0-34.122,0-51.186
	c7.559-0.972,21.36,4.299,17.061-8.53c4.276-0.011,5.076,3.455,8.531,4.268C146.048,475.887,162.02,478.397,174.116,484.785z
	 M139.994,578.62c-0.033-12.764-7.664-17.928-17.061-21.326C121.823,571.199,127.998,577.819,139.994,578.62z M199.708,612.742
	c0-5.688,0-11.375,0-17.063c-14.14,6.01-18.505-2.128-25.591,4.267C186.618,600.24,183.463,616.195,199.708,612.742z"/>
<path fill="#934761" d="M97.342,433.601c9.941,14.229,23.242,25.093,34.122,38.39c-3.455-0.813-4.254-4.277-8.531-4.268
	c4.299,12.829-9.502,7.56-17.061,8.53c-1.421,0-2.843,0-4.265,0c3.71-12.406,6.387-4.797,17.061-4.264
	c-0.522-15.802-6.209-10.73-17.061-8.53C106.45,444.753,101.584,449.451,97.342,433.601z"/>
<path fill="#934761" d="M114.403,373.888c0,1.421,0,2.843,0,4.265c-8.764,2.522-17.761,8.209-8.531,17.061
	c-5.359-0.933-8.719-6.642-8.53,4.267c-7.164-6.077,5.432-23.138-8.53-29.857c-11.552-7.897,9.752,1.099,8.53,8.53
	C103.106,376.809,105.489,372.083,114.403,373.888z"/>
<path fill="#934761" d="M157.055,403.745c0.955,3.31,0.117,8.413,4.265,8.529c13.59-5.192-2.844-16.051,17.061-17.062
	c-7.469,15.106,2.838,10.485,4.265,25.592c-15.162-6.631-2.577,14.484-12.795,12.795c-16.767-1.653-15.823,17.019-25.592,0
	c-1.238,11.559,5.999,31.591-12.795,25.593c12.435-13.689-9.73-18.639-12.796-29.856c3.31-0.955,8.414-0.116,8.531-4.266
	c3.432,2.256,6.925,4.449,12.795,4.266c1.761-20.243-14.556-22.409-12.795-42.651C147.286,384.451,141.549,395.03,157.055,403.745z"
	/>
<path fill="#934761" d="M157.055,399.479c-3.449-17.876-22.181-20.471-34.122-29.856
	C142.449,371.433,156.294,378.914,157.055,399.479z"/>
<path fill="#934761" d="M135.729,365.358c6.887,1.199,7.342-4.033,12.796-4.266c0.188-7.298-3.171-11.046-8.531-12.795
	c0.627-9.519,10.747,5.531,21.326,0c2.844,0,5.687,0,8.531,0c4.282,14.24-5.92,13.984-17.061,12.795
	c-3.104,11.64,8.475,8.586,8.53,17.061c4.998-0.689,3.599-7.774,4.265-12.795c3.144,12.496,18.828,12.451,21.326,25.59
	C161.537,390.737,154.917,371.755,135.729,365.358z"/>
<path fill="#44715D" d="M259.421,309.91c7.82-1.655,14.44-6.771,21.326,0c2.988,14.767-14.95,15.294-21.326,8.53
	C259.421,315.596,259.421,312.753,259.421,309.91z"/>
<path fill="#934761" d="M221.034,275.787c3.977,4.554,15.734,1.328,12.796,12.796c12.729-5.093,14.501-1.178,25.591,4.266
	c-1.661,6.086-5.121,7.198,0,12.796c-21.376-11.763,2.677,23.902-21.326,21.326c2.254-3.433,4.449-6.926,4.265-12.796
	c-5.387,5.987-22.503,0.244-17.061,17.061c-13.035,3.082-15.545-4.36-25.591-4.265c0,2.843,0,5.688,0,8.53
	c-5.698-4.254-8.375-11.53-17.061-12.796c-9.908-22.559,14.851,14.945,12.796-12.795c5.249,4.765,8.758,3.709,8.53-4.265
	c3.799,3.309,9.63,4.587,17.061,4.265c11.874,1.921-3.343-23.248,8.53-21.327c-11.107-12.201-28.757,5.121-34.122,12.796
	c0,1.422,0,2.843,0,4.266c-14.167-9.025,12.801-12.385,8.53-25.592C210.727,279.697,220.24,282.107,221.034,275.787z"/>
<path fill="#934761" d="M319.135,309.91c-1.36-7.531,23.893-7.609,17.062,4.265c5.697-5.376,8.375-12.818,17.062-4.265
	c-0.245,2.599-0.64,5.048-4.267,4.265c-4.998,0.688-3.599,7.775-4.267,12.796c-3.452-0.812-4.252-4.277-8.528-4.266
	c0-2.843,0-5.687,0-8.53C330.43,312.831,328.049,308.104,319.135,309.91z"/>
<path fill="#934761" d="M476.947,284.317c7.971,8.354,15.623,1.316,25.592,0c0,1.422,0,2.844,0,4.266
	c-6.887-1.2-7.342,4.032-12.795,4.266c-3.105,11.64,8.475,8.586,8.529,17.061c-8.97-9.364-18.959-0.883-25.593,4.265
	C475.604,304.623,485.502,292.804,476.947,284.317z"/>
<path fill="#AC9684" d="M502.539,288.583c0.768,12.029,20.271,5.32,17.061,21.327c-10.604-0.467-13.2-7.992-21.325,0
	c-0.056-8.475-11.636-5.421-8.529-17.061C495.197,292.615,495.652,287.383,502.539,288.583z"/>
<path fill="#934761" d="M430.029,297.113c1.729-21.359,13.278,1.466,21.326,0c4.094-7.28,13.401-9.346,21.325-12.796
	c-2.907,15.562-18.582,18.494-4.264,29.857c-12.057-3.521-11.053,6.009-21.326,4.265c2.256-3.433,4.449-6.926,4.265-12.795
	c-7.652-0.545-8.996,5.22-17.062,4.265C432.041,306.477,429.848,302.984,430.029,297.113z"/>
<path fill="#AC9684" d="M395.908,318.44c2.588-7.364,20.231,0.328,21.326-8.53c-13.572-6.687,5.338-25.603,12.795-12.796
	c-0.183,5.871,2.012,9.364,4.266,12.796c8.064,0.955,9.408-4.81,17.062-4.265c0.186,5.87-2.009,9.363-4.265,12.795
	c-19.266,2.055-17.572,25.08-42.651,21.326c1.319-5.787,10.68-3.538,17.061-4.265c-7.252-15.906,2.521-6.753,4.266-21.326
	C413.148,314.063,404.973,340.171,395.908,318.44z"/>
<path fill="#44715D" d="M370.316,314.175c-1.056-4.632-8.479-2.894-8.529-8.53c-5.766-0.722-8.525,21.692-12.797,8.53
	c3.627,0.783,4.021-1.667,4.267-4.265c4.425-15.484,22.893-16.917,34.12-25.592c4.166,18.383-16.021,12.407-17.061,25.592
	c3.311,0.955,8.414,0.116,8.53,4.265C376.004,314.175,373.16,314.175,370.316,314.175z"/>
<path fill="#232221" d="M118.668,262.991c2.844,0,5.687,0,8.531,0c-1.267,11.219,16.55,3.354,12.795,17.061
	c-1.421,0-2.844,0-4.265,0c-2.466-14.067-16.106-6.114-25.591-4.265c5.493,10.058-0.561,7.937,4.265,21.326
	c8.697-1.254,8.364-11.54,17.061-12.796c1.794,5.06,6.481,18.261,17.061,25.592c3.382-13.068,22.392-25.681,12.795-38.387
	c7.298,0.188,11.046-3.171,12.796-8.531c11.474,10.475,28.235,3.066,46.917,12.796c-0.794,6.32-10.307,3.91-17.061,4.265
	c4.271,13.207-22.698,16.567-8.53,25.592c0,1.421,0,2.843,0,4.265c2.055,27.741-22.704-9.764-12.796,12.795
	c-20.826-7.025-23.503-7.025-51.183-8.53c-16.889,3.01-30.995,8.819-38.387,21.326c0,2.843,0,5.687,0,8.53
	c-17.745-5.67-6.815-50.755-4.265-63.979C88.595,264.197,110.554,270.517,118.668,262.991z"/>
<path fill="#44715D" d="M161.32,271.522c9.597,12.707-9.414,25.319-12.795,38.387c-10.58-7.331-15.267-20.532-17.061-25.592
	c-0.783-3.626,1.666-4.021,4.265-4.265c1.421,0,2.844,0,4.265,0C153.134,283.24,145.193,265.346,161.32,271.522z"/>
<path fill="#934761" d="M127.199,262.991c19.882-4.542,33.639,11.147,46.917,0c-1.75,5.36-5.498,8.72-12.796,8.531
	c-16.127-6.176-8.186,11.718-21.326,8.53C143.749,266.346,125.932,274.21,127.199,262.991z"/>
<path fill="#934761" d="M93.077,335.501c7.392-12.507,21.498-18.316,38.387-21.326c-5.042,6.12-22.626,8.08,0,8.53
	c-6.459,9.18-10.38,20.898-21.326,25.592c-1.422,0-2.844,0-4.266,0C103.484,342.154,99.219,337.889,93.077,335.501z"/>
<path fill="#934761" d="M131.464,284.317c-8.697,1.256-8.364,11.542-17.061,12.796c-4.826-13.39,1.228-11.268-4.265-21.326
	c9.485-1.849,23.125-9.802,25.591,4.265C133.13,280.297,130.681,280.691,131.464,284.317z"/>
<path fill="#AC9684" d="M131.464,314.175c27.68,1.505,30.356,1.505,51.183,8.53c8.686,1.266,11.363,8.542,17.061,12.796
	c2.599,0.244,5.048,0.639,4.265,4.265c-4.959-0.694-7.592,0.944-8.53,4.265c9.563,6.076,8.142,23.136,17.061,29.857
	c-13.368-4.716-12.024-2.755-17.061,8.53c-0.899,4.788-4.732,6.643-8.531,8.53c-2.499-13.139-18.183-13.095-21.326-25.59
	c-0.666,5.021,0.733,12.106-4.265,12.795c-0.055-8.475-11.635-5.42-8.53-17.061c11.141,1.188,21.343,1.444,17.061-12.795
	c8.492-4.305,18.216-7.375,21.326-17.061c-17.311-15.173-17.594,13.984-29.857,17.061c-10.58,5.531-20.699-9.519-21.326,0
	c5.359,1.749,8.719,5.498,8.531,12.795c-5.454,0.233-5.909,5.464-12.796,4.266c-3.976-2.61-15.734-9.925-12.796,4.265
	c11.941,9.386,30.673,11.979,34.122,29.857c2.366-0.012,4.843,3.453,0,4.266c-15.506-8.715-9.769-19.294-29.856-17.061
	c-1.422,0-2.844,0-4.266,0c-3.066-13.997-1.883-32.24-12.795-38.388c10.946-4.693,14.867-16.412,21.326-25.592
	C108.838,322.255,126.421,320.294,131.464,314.175z M127.199,335.501c-3.583,4.954-5.626,11.435-4.266,21.326
	C142.021,364.342,138.272,334.257,127.199,335.501z M178.381,352.562c-1.022,6.086-7.025,7.197-8.53,12.796
	c16.005-3.211,9.296,16.294,21.326,17.061C200.629,371.71,186.307,358.926,178.381,352.562z"/>
<path fill="#AC9684" d="M195.442,305.645c0-1.422,0-2.844,0-4.266c5.365-7.675,23.015-24.997,34.122-12.796
	c-11.874-1.921,3.344,23.248-8.53,21.327c-7.431,0.322-13.262-0.956-17.061-4.265c0.228,7.975-3.282,9.03-8.53,4.265
	C195.442,308.487,195.442,307.066,195.442,305.645z"/>
<path fill="#AC9684" d="M472.682,284.317c1.425,0,2.847,0,4.267,0c8.555,8.486-1.345,20.305-4.267,29.857c-1.42,0-2.842,0-4.264,0
	C454.1,302.812,469.773,299.879,472.682,284.317z"/>
<path fill="#D1C9B8" d="M370.316,314.175c2.844,0,5.688,0,8.53,0c3.709,12.595,6.388-9.897,17.062-4.265c0,2.843,0,5.687,0,8.53
	c9.063,21.731,17.24-4.376,29.856-4.265c-1.743,14.573-11.518,5.42-4.266,21.326c-6.381,0.727-15.74-1.522-17.061,4.265
	c-5.949,12.834-22.076-8.864-29.857,4.265c-1.422,0-2.844,0-4.266,0c1.993-9.103-6.093-8.125-12.796-8.53
	C361.338,327.942,374.832,330.063,370.316,314.175z"/>
<path fill="#AC9684" d="M348.99,314.175c4.271,13.162,7.031-9.252,12.797-8.53c0.051,5.637,7.475,3.898,8.529,8.53
	c4.516,15.889-8.979,13.768-12.796,21.326c6.703,0.405,14.789-0.572,12.796,8.53c-1.421,0-2.843,0-4.267,0
	c-15.104-7.47-10.483,2.843-25.59,4.266c0.095-10.047-7.348-12.558-4.266-25.592c4.276-0.011,5.075,3.454,8.528,4.266
	C345.393,321.95,343.992,314.863,348.99,314.175z"/>
<path fill="#AC9684" d="M553.723,309.91c7.687,18.36,4.394,49.222-4.266,63.979c-11.779,1.827-4.004-15.9-12.797-17.061
	c0,8.531,0,17.061,0,25.591c-7.939-4.076-14.256,12.773-17.062,0c13.863-11.763,5.916-23.242-4.266-21.326
	c5.088-21.97,18.785,2.443,38.389-12.795c-0.955-3.31-0.116-8.415-4.266-8.531c0-1.422,0-2.844,0-4.265c1.422,0,2.844,0,4.266,0
	C554.9,328.025,541.715,314.219,553.723,309.91z"/>
<path fill="#AC9684" d="M93.077,344.031c0-2.843,0-5.688,0-8.53c6.142,2.388,10.407,6.653,12.795,12.796
	c-6.142,2.388-10.407,6.653-12.795,12.795c6.887,7.787,13.507-2.999,21.326,8.53c0,1.421,0,2.844,0,4.266
	c-8.914-1.805-11.296,2.92-17.061,4.265c1.222-7.431-20.082-16.427-8.53-8.53c13.962,6.72,1.366,23.781,8.53,29.857
	c-0.189-10.907,3.171-5.198,8.53-4.267c-6.987,17.272,22.571,19.632,8.531,29.856c-0.522-15.801-6.209-10.729-17.061-8.53
	C81.108,404.333,84.013,373,80.281,348.297c3.582-13.551,5.626,7.569,4.265,12.795C92.049,360.064,94.271,353.75,93.077,344.031z"/>
<path fill="#44715D" d="M263.686,373.888c-2.843,0-5.687,0-8.53,0c7.442-11.786,17.161-0.978,21.327-21.326
	c5.364,1.055,4.304,8.48,0,8.53c0.116,4.149,5.22,3.31,8.529,4.266c-1.793,8.152-1.543,18.36-12.795,17.061c0-2.843,0-5.688,0-8.53
	C269.374,373.888,266.53,373.888,263.686,373.888z"/>
<path fill="#934761" d="M272.217,382.418c0,4.266,0,8.53,0,12.795c-8.07-8.464-20.149-2.07-29.857,0
	c-2.433-25.792,18.966-5.559,21.326-21.326c2.844,0,5.688,0,8.531,0C272.217,376.731,272.217,379.575,272.217,382.418z"/>
<path fill="#AC9684" d="M447.092,395.214c14.142,9.854,18.504,1.723,25.59,4.267c-10.139,7.44,4.744-3.179,8.531,4.266
	c0.229,7.337-3.281,10.935-8.531,12.795c-0.938-3.321-3.569-4.96-8.528-4.266c0,2.845,0,5.688,0,8.53
	c-5.17-1.306-14.707,12.324-4.267,12.795c6.965,8.221,7.215,35.578-8.53,34.122c-2.33-6.196,4.983-22.048-4.265-21.325
	c-1.75,7.274-5.498-0.899-12.797,0c-10.885,5.432,3.955,20.894-4.266,21.325c-0.938-3.32-3.57-4.958-8.529-4.264
	c-14.973-6.354-31.102-11.553-38.387-25.593c3.442,2.955,11.686,6.637,12.795,0c12.707,1.511,10.879,17.556,29.856,12.796
	c8.246-2.043,13.834-28.362,4.265-34.122c-9.513,0.628,5.539,10.747,0,21.326c-7.652-0.544-8.996,5.221-17.062,4.266
	c1.994-17.544-10.723,3.351-17.061-8.531c-3.627,0.783-4.021-1.665-4.267-4.265c2.845,0,5.688,0,8.531,0
	c10.521-8.708-14.233-17.434,0-29.855c-22.576-2.488-2.715,17.544-12.797,21.325c-6.086-1.021-7.191-7.021-12.795-8.53
	c-3.564-16.428-3.139-24.542,12.795-29.856c-0.811,3.456-4.275,4.254-4.264,8.53c29.596-8.391,45.09,2.988,68.242,17.063
	c-21.236,6.381-5.421,26.713-8.529,34.121C453.855,425.237,473.465,405.005,447.092,395.214z M412.969,403.745
	c0,2.842,0,5.687,0,8.529c-4.274,0.012-5.076-3.453-8.528-4.265c-1.832,20.637,24.856,12.34,25.59,0
	C421.967,408.965,420.623,403.2,412.969,403.745z"/>
<path fill="#D1C9B8" d="M387.377,382.418c20.59-12.606,42.309-6.564,59.715,4.266c0,2.842,0,5.686,0,8.529
	c26.373,9.791,6.765,30.023-4.266,46.918c3.108-7.408-12.707-27.74,8.529-34.121c-23.152-14.074-38.646-25.453-68.242-17.063
	C383.102,386.673,386.566,385.874,387.377,382.418z"/>
<path fill="#D1C9B8" d="M374.582,433.601c4.188-6.886,11.379-9.816,17.061-4.265c0.244,2.6,0.64,5.048,4.267,4.265
	c0,1.424,0,2.846,0,4.267c-1.109,6.637-9.353,2.955-12.795,0C379.658,437.056,378.859,433.591,374.582,433.601z"/>
<path fill="#AC9684" d="M314.869,416.54c0,1.422,0,2.844,0,4.266c-0.494,17.2,42.58,11.353,4.266,34.121
	c5.231-19.449-14.957-13.473-17.062-25.591c-1.277-8.386,5.759-8.458,8.53-12.796C292.609,411.613,312.965,401.567,314.869,416.54z"
	/>
<path fill="#D1C9B8" d="M127.199,425.07c-7.143-14.161-19.583-31.194-12.796-46.917c0-1.422,0-2.843,0-4.265
	c0-1.422,0-2.844,0-4.266c-7.819-11.529-14.439-0.744-21.326-8.53c2.388-6.143,6.653-10.408,12.795-12.795c1.422,0,2.844,0,4.266,0
	c10.913,6.148,9.729,24.391,12.795,38.388c1.422,0,2.844,0,4.266,0c-1.761,20.242,14.556,22.408,12.795,42.651
	C134.124,429.52,130.63,427.326,127.199,425.07z"/>
<path fill="#934761" d="M395.908,433.601c6.338,11.882,19.055-9.013,17.061,8.531c8.064,0.955,9.408-4.81,17.062-4.266
	c5.539-10.579-9.513-20.698,0-21.326c9.569,5.76,3.981,32.079-4.265,34.122c-18.979,4.76-17.149-11.285-29.856-12.796
	C395.908,436.445,395.908,435.023,395.908,433.601z"/>
<path fill="#D1C9B8" d="M148.525,501.845c22.77,2.057-14.762-10.689,4.265-17.06c2.682,7.27,12.884,7.02,17.061,12.794
	c-25.092,0.384,14.556,14.674-4.266,21.326c1.289-11.24-5.909-13.994-17.061-12.794
	C148.525,504.688,148.525,503.267,148.525,501.845z"/>
<path fill="#44715D" d="M366.051,471.989c13.765-9.592,30.691,7.142,38.39,17.06c-0.482,5.205-1.277,10.099-8.531,8.53
	c0,2.845,0,5.688,0,8.532c0,5.686,0,11.373,0,17.061c-1.422,0-2.844,0-4.267,0c-2.063,5.043-4.549,9.668-8.528,12.796
	c0.094-10.047-7.349-12.558-4.267-25.593c-18.762,5.666-23.979-1.487-34.123,12.797c5.351-16.718,3.263-13.219-4.264-17.061
	c-0.732-5.776,24.687-5.526,8.529-12.796c-5.476,13.238-5.476-12.098,0-12.798c5.766-1.344,8.147-6.068,17.061-4.266
	C366.051,474.832,366.051,473.41,366.051,471.989z"/>
<path fill="#D1C9B8" d="M208.238,467.723c18.217-1.222,20.932-22.657,38.387-12.796
	C258.677,491.604,207.521,502.106,208.238,467.723z"/>
<path fill="#D1C9B8" d="M421.5,510.375c4.338-2.771,4.41-9.808,12.795-8.53c-2.293,2.911,41.266,27.881,12.797,51.185
	c0-9.952,0-19.905,0-29.856c-12.057-3.521-11.053,6.009-21.326,4.267c-1.256-3.789-11.541-18.673-12.797-8.532
	c-8.918-7.818,8.193-25.681,17.062-29.856C428.197,497.169,420.844,499.769,421.5,510.375z"/>
<path fill="#934761" d="M536.66,497.579c-3.908,34.039-9.283,66.079-12.795,89.571c-4.576-8.388-10.363,17.737-8.531,29.855
	c-6.885,1.199-7.342-4.032-12.795-4.265c5.121,4.893,1.66,10.807,0,4.265c-9.246-0.722-1.932,15.128-4.266,21.326
	c12.036,0.666,10.69-12.058,17.061-17.061c14.975,3.498-14.771,30.845,8.531,29.855c-6.394-0.811-21.342,13.891-21.326,0
	c-16.732,21.192-41.074,9.196-59.713,25.592c5.916-2.622,0.645-16.418,8.529-17.062c16.028,3.231,14.43-11.163,21.325-17.062
	c-10.895,0.478-14.928,7.818-21.325,12.797c-6.191-10.259-35.826-12.241-46.916-4.267c0.057,8.477,11.635,5.42,8.528,17.062
	c-3.326-0.943-4.959-3.57-4.266-8.53c-7.515,3.771-7.047,18.927-17.062,8.53c1.111-5.998,9.354-4.865,12.797-8.53
	c-0.717-4.972-6.741-4.632-12.797-4.266c1.029-7.504,7.336-9.721,17.062-8.53c-1.188-8.765-11.392-8.508-17.062-12.795
	c0-8.531,0-17.063,0-25.593c-5.453-5.921-20.137-2.609-25.592-8.529c1.111,13.904-5.063,20.524-17.061,21.325
	c-0.05-5.638-7.476-3.898-8.529-8.529c3.609-13.707,14.639-16.939,21.326-17.063c-4.972-0.717-4.633-6.742-4.267-12.796
	c-2.588-7.364-20.231,0.327-21.325-8.53c-11.353-14.001,14.563-23.953,12.795-29.855c7.66-0.551,9.979,4.23,8.53,12.796
	c5.871,0.183,9.363-2.011,12.796-4.266c-12.373,16.872,11.563-5.144,12.797,12.796c3.377,14.75-4.742,18.004-8.531,25.592
	c8.215,5.997,17.162,11.272,29.856,12.795c-0.165-14.051-21.075-7.359-17.063-25.591c6.889,1.198,7.344-4.033,12.797-4.267
	c-2.971,14.346,8.771,13.984,12.795,21.326c5.556-9.364,23.056,5.043,34.123,4.267c0.101-18.534,7.797-2.794,17.062-21.326
	c-9.892,1.358-16.377-0.688-21.326-4.267c-2.521,8.854-8.209,14.539-17.062,17.063c-7.196-16.973-16.006-32.334-42.651-29.858
	c0-5.686,0-11.373,0-17.06c19.348,10.341,42.323-9.553,42.651,25.592c6.197-2.333,22.041,4.985,21.326-4.266
	c-5.432-0.967-5.586-12.729,0-12.796c-1.455,25.958,11.746,10.719,25.59,8.528c-2.059,16.063-1.229,18.063-8.528,34.123
	c6.053-0.367,12.08-0.706,12.795,4.267c-3.83,7.541-10.295,12.45-12.795,21.325c0,1.422,0,2.844,0,4.266
	c-8.687-1.268-11.363-8.542-17.062-12.795c-0.166,18.082,2.017,33.788,4.264,38.387c1.22-12.996,16.229-12.207,21.326-21.326
	c9.164,10.924-3.92,24.182,4.267,29.856c3.399-13.129,8.563-13.662,21.325-8.53c0.773-12.058-16.03-9.938-4.266-21.326
	c-9.723-5.854-16.031,10.996-17.061,0c13.053-8.273,11.475-31.179,12.797-51.183c5.688,0,11.373,0,17.061,0
	c3.533-15.308-9.619-20.638,0-29.856c28.229-1.09,16.023-25.863,17.062-46.919C529.736,502.028,533.229,499.835,536.66,497.579z
	 M438.561,629.803c3.435-17.649-6.547-21.887-21.325-21.326C416.93,623,429.781,624.365,438.561,629.803z"/>
<path fill="#D1C9B8" d="M152.79,540.231c-1.933,22.865,16.284,21.104,4.265,38.389c-25.825-12.563-19.21-57.57-38.387-76.775
	c7.431-0.32,13.268,0.956,17.061,4.268C139.528,519.373,149.979,525.981,152.79,540.231z"/>
<path fill="#934761" d="M395.908,506.111c9.791,7.523,13.713,17.871,21.326,17.061c-5.638,0.05-3.898,7.475-8.531,8.53
	c-6.086-1.022-7.189-7.021-12.795-8.53C395.908,517.484,395.908,511.797,395.908,506.111z"/>
<path fill="#934761" d="M203.973,510.375c11.946,9.376,46.151-3.498,38.387,25.593c2.844,0,5.688,0,8.53,0
	c3.31,0.954,8.414,0.116,8.531,4.265c-10.607,0.646-1.25,14.439,0,17.063c-20.982,6.264-13.14,15.061-34.122,21.326
	c-8.058-0.473-2.96-14.103-12.795-12.796c0-2.845,0-5.688,0-8.53c1.422,0,2.843,0,4.265,0c0-7.109,0-14.218,0-21.326
	c0-1.422,0-2.845,0-4.266C237.784,528.952,198.558,524.677,203.973,510.375z"/>
<path fill="#AC9684" d="M250.89,527.438c-2.06-8.358,19.555-13.739,21.327-4.266C267.002,529.247,255.938,532.863,250.89,527.438z"
	/>
<path fill="#D1C9B8" d="M221.034,595.681c-9.002-7.529-7.408-14.816-21.326-8.529c3.538-11.136-12.896-23.403,0-29.856
	c-0.627,10.579-0.794,20.698,8.53,21.326c-5.676-10.354-2.399-42.075,4.266-21.326c0,2.843,0,5.688,0,8.53
	c9.835-1.307,4.737,12.323,12.795,12.796c0.067,7.041,11.83,2.387,12.796,8.53C229.62,587.206,232.668,598.79,221.034,595.681z"/>
<path fill="#934761" d="M174.116,599.946c7.086-6.395,11.452,1.743,25.591-4.267c0,5.688,0,11.374,0,17.063
	C183.463,616.195,186.618,600.24,174.116,599.946z"/>
<path fill="#934761" d="M131.464,591.416c10.058-1.316,7.936-14.813,21.326-12.796c-3.077,21.559,21.609,15.361,21.326,34.122
	c-4.148-0.118-3.31-5.223-4.265-8.531c-6.515,12.218-5.993,33.355,12.795,38.388c-2.338,17.017-2.338,12.841,0,29.856
	c-14.973-13.917-45.229-22.893-25.591-59.713c-1.055-4.633-8.48-2.896-8.53-8.531c-11.563,9.763-14.379,28.273-25.592,38.388
	c-6.964,1.921-6.964-23.248,0-21.325c1.422,0,2.844,0,4.266,0C135.834,613.059,137.118,604.111,131.464,591.416z"/>
<path fill="#232221" d="M122.933,642.599c11.213-10.113,14.029-28.625,25.592-38.388c0.05,5.637,7.475,3.898,8.53,8.531
	c-19.638,36.82,10.619,45.796,25.591,59.713c-2.338-17.018-2.338-12.841,0-29.856c-18.788-5.031-19.311-26.17-12.795-38.388
	c0.955,3.311,0.117,8.413,4.265,8.531c2.388,6.142,6.653,10.407,12.795,12.795c5.676-11.174,18.933-8.147,29.857-4.266
	c-7.392,5.403-11.174,14.418-25.591,12.797c0.872,13.345-2.877,31.311,4.265,38.387c0,1.421,0,2.843,0,4.266
	c-28.702,0.267-54.388-2.482-72.509-12.796c0.056-8.476,11.635-5.422,8.531-17.062C126.504,647.557,123.877,645.92,122.933,642.599z
	"/>
<path fill="#232221" d="M523.865,587.15c3.082,31.604-1.588,47.595,0,63.979c-23.304,0.988,6.442-26.357-8.531-29.855
	c0-1.423,0-2.846,0-4.267C513.502,604.889,519.289,578.764,523.865,587.15z"/>
<path fill="#934761" d="M221.034,595.681c11.635,3.109,8.586-8.475,17.061-8.529c4.265,0,8.53,0,12.795,0c0,4.266,0,8.529,0,12.796
	c-4.792,12.271-23.12,11.002-25.591,25.591c-11.257,10.164,0.373,33.505,8.531,38.388c-5.004,6.37-17.722,5.021-17.061,17.062
	c-2.843,0-5.687,0-8.531,0c-6.764-6.376-6.236-24.314,8.531-21.326c-1.732-14.406-16.534,11.352-12.796-8.53
	c-16.667-0.134-0.761,21.459-8.53,21.326c-7.142-7.076-3.393-25.042-4.265-38.387c14.417,1.621,18.2-7.394,25.591-12.797
	c7.27-1.75-0.899-5.498,0-12.796c13.001,0.211,21.715-3.877,25.591-12.796C237.851,597.751,209.86,604.145,221.034,595.681z"/>
<path fill="#AC9684" d="M289.277,608.477c-3.859,7.515-15.699,7.048-17.061,17.062c2.977,8.12,19.416-5.771,21.326-12.795
	c12.268,2.021,25.158,16.237,34.121,8.53c13.912,7.708,1.123,15.649,4.267,34.121c0.012,4.275-3.455,5.075-4.267,8.53
	c22.599-3.244-7.464,22.646,12.797,17.062c2.766-30.225,29.273-38.699,38.387-51.184c4.943,6.311,4.943,10.752,0,17.062
	c9.304,0.776,13.568-3.487,12.795-12.795c5.671,4.287,15.873,4.03,17.062,12.795c-9.726-1.189-16.031,1.026-17.062,8.53
	c6.056-0.366,12.08-0.705,12.798,4.266c-3.443,3.665-11.687,2.532-12.798,8.53c10.015,10.396,9.548-4.761,17.062-8.53
	c-0.693,4.96,0.938,7.587,4.266,8.53c-1.565,7.253,3.328,8.047,8.531,8.53c-0.533,9.418-18.094,1.811-25.592,4.266
	c6.524-13.106-27.853-13.106-21.326,0c-46.2,6.979-48.693-3.232-89.57,0c-7.363-2.588,0.328-20.232-8.529-21.326
	c0.083,6.381-15.845,17.443-4.266,21.326c-1.172,10.063-15.889-0.39-17.061-4.266c-5.048,1.256-16.111,17.184-21.326,4.266
	c2.843,0,5.687,0,8.53,0c10.857-1.934-4.332-29.923,17.061-21.326c-3.604-9.191-18.71-6.881-25.591-12.796
	c0.489,16.039,19.277,2.942,8.53,21.326c-3.31-0.955-8.414-0.117-8.53-4.266c-8.158-4.883-19.788-28.224-8.531-38.388
	c0,4.266,0,8.531,0,12.796c5.765-4.188,8.525-11.379,12.796-17.061c5.043,4.908,15.079,4.832,25.591,4.265
	c-8.042,6.631,6.12,16.623-4.265,25.592c0.117,4.147,5.22,3.311,8.53,4.267c12.896-6.454-3.538-18.723,0-29.857
	c1.844-16.061-9.008-19.427-17.061-25.591c0-4.267,0-8.53,0-12.796c-4.265,0-8.53,0-12.795,0c-0.966-6.145-12.729-1.489-12.796-8.53
	c20.982-6.266,13.14-15.063,34.122-21.326c-3.349,29.9,3.788,38.126,21.326,38.387c-2.649,8.92-21.876,16.028-4.265,21.326
	C278.231,611.646,281.98,608.288,289.277,608.477z M285.012,646.863c-0.455-20.717,22.209,1.943,8.531,8.53
	c23.575,0.327,21.576-20.938,25.592-29.856c-8.063,0.955-9.408-4.811-17.062-4.266C312.153,641.132,260.348,624.383,285.012,646.863
	z M357.521,655.395c14.188-2.938,6.875,8.819,4.266,12.796c13.217,0.422,23.658-1.934,29.854-8.53
	C382.586,655.538,365.186,635.29,357.521,655.395z"/>
<path fill="#D1C9B8" d="M289.277,608.477c5.498-5.876,18.527-4.222,29.857-4.266c10.701,7.514,2.993,7.048,8.529,17.063
	c-8.963,7.708-21.854-6.511-34.121-8.53c-1.91,7.024-18.35,20.915-21.326,12.795C273.578,615.523,285.418,615.99,289.277,608.477z"
	/>
<path fill="#D1C9B8" d="M464.152,621.271c16.223,6.271,0.84-19.066,17.061-12.796c0,5.688,0,11.374,0,17.062
	c-7.52-12.975-13.207,11.64-17.061,0C464.152,624.115,464.152,622.693,464.152,621.271z"/>
<path fill="#44715D" d="M515.334,621.271c-6.369,5.004-5.023,17.728-17.061,17.062c2.334-6.198-4.98-22.048,4.266-21.326
	c1.66,6.542,5.121,0.628,0-4.265c5.453,0.231,5.91,5.464,12.795,4.265C515.334,618.428,515.334,619.851,515.334,621.271z"/>
<path fill="#AC9684" d="M195.442,672.455c7.77,0.133-8.136-21.46,8.53-21.326c-3.738,19.882,11.063-5.876,12.796,8.53
	c-14.767-2.988-15.294,14.95-8.531,21.326c-6.053,0.366-12.079,0.705-12.795-4.266C195.442,675.298,195.442,673.876,195.442,672.455
	z"/>
<path fill="#934761" d="M242.36,668.189c10.747-18.384-8.042-5.287-8.53-21.326c6.881,5.915,21.987,3.604,25.591,12.796
	c-21.393-8.597-6.204,19.394-17.061,21.326C242.36,676.721,242.36,672.455,242.36,668.189z"/>
<path fill="#44715D" d="M540.926,92.382c-0.938-13.734,7.543-18.049,4.269-34.122c12.129,0.1,4.287,32.979,0,42.652
	C545.887,95.953,544.254,93.326,540.926,92.382z"/>
<path fill="#232221" d="M88.812,186.217c-1.422,0-2.844,0-4.266,0c0-11.374,0-22.748,0-34.122
	c0.067-11.218-2.366-28.335,8.531-17.061c0,8.531,0,17.061,0,25.592C90.622,168.124,98.23,185.684,88.812,186.217z"/>
<path fill="#AC9684" d="M88.812,228.87c0-14.217,0-28.435,0-42.652c9.419-0.533,1.81-18.094,4.265-25.591
	c9.808,10.096,1.527,38.282,4.265,55.448C90.3,216.141,94.954,227.903,88.812,228.87z"/>
<path fill="#232221" d="M540.926,199.013c3.256,23.159-6.752,33.056-4.266,55.448c-1.42,0-2.842,0-4.264,0
	C535.641,236.378,524.537,203.95,540.926,199.013z"/>
<path fill="#AC9684" d="M225.299,331.236c-5.442-16.817,11.674-11.074,17.061-17.061c0.184,5.87-2.011,9.363-4.265,12.796
	c24.003,2.576-0.05-33.089,21.326-21.326c0,1.421,0,2.843,0,4.265c0,2.843,0,5.687,0,8.53c-7.364,2.587,0.328,20.232-8.531,21.326
	C245.437,333.846,230.752,337.156,225.299,331.236z"/>
<path fill="#D1C9B8" d="M191.177,382.418c-12.03-0.766-5.321-20.271-21.326-17.061c1.505-5.599,7.508-6.709,8.53-12.796
	C186.307,358.926,200.629,371.71,191.177,382.418z"/>
<path fill="#934761" d="M97.342,416.54c10.852-2.198,16.539-7.271,17.061,8.53c-2.372,23.025-10.008-9.396-17.061,4.266
	C97.342,425.07,97.342,420.806,97.342,416.54z"/>
<path fill="#232221" d="M366.051,471.989c-2.059-13.436,13.092-9.659,8.531-25.593c-11.328-11.396-20.275,1.372-29.857,4.266
	c2.552-7.597-12.5-17.717,0-21.326c13.132-3.177,8.199,11.707,21.326,8.53c0.939-3.321,3.572-4.959,8.531-4.267
	c4.277-0.01,5.076,3.455,8.531,4.267c7.285,14.04,23.414,19.238,38.387,25.593c10.613,7.514,6.221,7.047,0,17.06
	c-4.266,0-8.531,0-12.797,0c-0.953,3.312-0.115,8.414-4.264,8.53C396.742,479.131,379.814,462.397,366.051,471.989z"/>
<path fill="#232221" d="M114.403,557.294c2.088-13.463-7.687-15.063-4.265-29.856c1.421,0,2.843,0,4.265,0
	c8.058-3.193,2.96-12.729,12.796-4.266C124.166,535.778,126.027,553.278,114.403,557.294z"/>
<path fill="#44715D" d="M489.744,578.62c-0.295-14.513-1.328-29.764,8.529-34.122c0.938,3.321,3.571,4.959,8.53,4.266
	c-9.619,9.22,3.533,14.551,0,29.856C501.117,578.62,495.432,578.62,489.744,578.62z"/>
<path fill="#934761" d="M267.951,625.537c-3.538,11.136,12.896,23.403,0,29.856c-3.31-0.956-8.414-0.117-8.53-4.266
	c10.385-8.969-3.776-18.961,4.265-25.592C265.108,625.537,266.53,625.537,267.951,625.537z"/>
<path fill="#232221" d="M451.355,659.659c-7.886,0.644-2.613,14.438-8.529,17.062c-7.109,0-14.217,0-21.326,0
	c-5.203-0.483-10.098-1.277-8.531-8.53c3.105-11.642-8.473-8.585-8.528-17.062c11.09-7.976,40.725-5.992,46.916,4.266
	C451.355,656.815,451.355,658.237,451.355,659.659z"/>
<path fill="#D1C9B8" d="M191.177,544.498c0-5.688,0-11.375,0-17.061c16.506-1.834,15.173-4.673,25.591,4.265
	c0,1.421,0,2.844,0,4.266c-3.11,9.687-18.033,7.56-25.591,12.796C191.177,547.341,191.177,545.919,191.177,544.498z"/>
<path fill="#D1C9B8" d="M225.299,625.537c2.472-14.589,20.799-13.318,25.591-25.591c8.053,6.164,18.905,9.529,17.061,25.591
	c-1.421,0-2.843,0-4.265,0c-10.513,0.566-20.548,0.645-25.591-4.266c-4.271,5.683-7.031,12.873-12.796,17.062
	C225.299,634.068,225.299,629.803,225.299,625.537z"/>
<path fill="#AC9684" d="M80.281,96.647c-9.619-3.177-1.666-23.925-4.265-34.122c4.976,6.398,12.318,10.43,12.796,21.326
	c-4.276,0.011-5.076-3.455-8.531-4.265C80.281,85.273,80.281,90.96,80.281,96.647z"/>
<path fill="#44715D" d="M186.912,518.905c-9.508-6.131-15.978-15.3-12.795-34.12c2.616,5.908,16.417,0.644,17.061,8.53
	C186.268,498.357,186.351,508.388,186.912,518.905z"/>
<path fill="#934761" d="M545.193,100.913c0.287,30.29-1.355,55.976-4.269,72.509c-12.85-22.937,2.795-53.981,0-81.04
	C544.254,93.326,545.887,95.953,545.193,100.913z"/>
<path fill="#934761" d="M302.073,621.271c7.652-0.545,8.997,5.221,17.062,4.266c-4.016,8.919-2.017,30.185-25.592,29.856
	c13.679-6.587-8.986-29.247-8.531-8.53C260.348,624.383,312.153,641.132,302.073,621.271z"/>
</svg>
