<?xml version="1.0" encoding="utf-8"?>
<!-- Generator: Adobe Illustrator 15.0.0, SVG Export Plug-In . SVG Version: 6.00 Build 0)  -->
<!DOCTYPE svg PUBLIC "-//W3C//DTD SVG 1.1//EN" "http://www.w3.org/Graphics/SVG/1.1/DTD/svg11.dtd">
<svg version="1.1" id="Capa_1" xmlns="http://www.w3.org/2000/svg" xmlns:xlink="http://www.w3.org/1999/xlink" x="0px" y="0px"
	 width="612px" height="792px" viewBox="0 0 612 792" enable-background="new 0 0 612 792" xml:space="preserve">
<path fill="#AC9684" d="M401.457,101.244c-0.389-0.182-0.728-0.336-0.829-0.398c-0.815-0.236-1.641-0.44-2.482-0.587
	c-0.477-0.083-0.799-0.144-1.015-0.187c-0.187-0.021-0.391-0.044-0.631-0.072c-1.039-0.121-2.079-0.25-3.123-0.38h-35.172
	c0.696,11.359-26.152-4.83-19.991,11.994c16.689,28.734,52.218-5.2,67.963,19.989v-18.718
	C403.727,109.743,402.132,105.885,401.457,101.244z"/>
<path fill="#AC9684" d="M378.193,307.506c-29.457,22.514-96.255,7.688-143.921,11.994
	C266.244,304.811,331.808,317.485,378.193,307.506z"/>
<path fill="#D1C9B8" d="M358.205,99.62c0.696,11.358-26.152-4.831-19.99,11.994c16.688,28.734,52.218-5.201,67.963,19.989
	c0-5.331,0-10.661,0-15.991c5.986,11.337,9.864,24.783,11.993,39.979c-5.938-3.389-5.783-12.874-7.996-19.99
	c-9.197,20.119-36.844,21.791-59.966,27.985c15.235,9.745,46.642,1.453,55.969-7.995c6.314,8.344,8.293,21.024,7.995,35.98
	c-26.198,21.774-77.301,18.646-123.931,19.989c36.026,10.661,85.713,0.463,123.931,0c-4.945,6.95,3.059,26.548,0,43.976
	c-4.685-0.646-3.372-7.288-3.998-11.994c-37.941,21.208-133.598,30.931-203.888,19.989c35.346,9.99,71.763,19.781,103.943,19.99
	c39.557,0.26,68.797-31.295,107.939-23.987c-3.79,59.847-3.935,141.532-15.991,203.889c-2.194,11.373-2.194,33.829-15.989,31.981
	c19.197,13.576-0.188,19.464,0,43.977c2.487,13.894,16.702-22.451,15.989,0c-12.569,3.42-16.579,15.403-19.987,27.984
	c0.441,9.786,13.217,0.849,11.993-3.998c9.13,5.56-12.511,13.831-15.991,19.989c-1.688,13.68,11.972,12.015,15.991,19.988
	c6.079,33.811-50.321,87.213-11.993,95.948c-55.146,12.352-152.838,12.737-207.887,0C133.109,513.046,83.25,284.785,158.313,99.62
	C222.352,109.099,287.118,95.273,358.205,99.62z M234.272,319.5c47.666-4.305,114.464,10.52,143.921-11.994
	C331.808,317.485,266.244,304.811,234.272,319.5z"/>
<path fill="#D1C9B8" d="M382.893,98.549c-4.774-0.291-9.55-0.42-14.328-0.485c-0.992,0.491-1.8,1.013-2.365,1.556h27.178
	C390.017,99.203,386.597,98.774,382.893,98.549z"/>
<path fill="#AC9684" d="M382.191,699.293c-38.328-8.735,18.072-62.139,11.993-95.948c-4.021-7.975-17.68-6.31-15.991-19.988
	c3.48-6.158,25.121-14.431,15.991-19.989c1.224,4.847-11.552,13.784-11.993,3.998c3.408-12.581,7.418-24.564,19.987-27.984
	c0.713-22.451-13.502,13.894-15.989,0c-0.188-24.513,19.197-30.399,0-43.977c13.795,1.848,13.795-20.608,15.989-31.981
	c12.058-62.356,12.201-144.042,15.991-203.889c-39.144-7.308-68.384,24.247-107.939,23.987c-32.182-0.208-68.598-10-103.943-19.99
	c70.29,10.942,165.945,1.218,203.888-19.989c0.626,4.706-0.687,11.348,3.998,11.994c3.059-17.428-4.945-37.026,0-43.976
	c-38.218,0.463-87.904,10.661-123.931,0c46.63-1.343,97.732,1.786,123.931-19.989c0.298-14.956-1.681-27.636-7.995-35.98
	c-9.327,9.448-40.732,17.74-55.969,7.995c23.122-6.194,50.77-7.866,59.966-27.985c2.213,7.116,2.059,16.601,7.996,19.99
	c66.813,169.522-3.164,351.6-11.993,535.707C396.833,692.614,389.662,696.101,382.191,699.293z"/>
</svg>
