<?xml version="1.0" encoding="utf-8"?>
<!-- Generator: Adobe Illustrator 15.0.0, SVG Export Plug-In . SVG Version: 6.00 Build 0)  -->
<!DOCTYPE svg PUBLIC "-//W3C//DTD SVG 1.1//EN" "http://www.w3.org/Graphics/SVG/1.1/DTD/svg11.dtd">
<svg version="1.1" id="Capa_1" xmlns="http://www.w3.org/2000/svg" xmlns:xlink="http://www.w3.org/1999/xlink" x="0px" y="0px"
	 width="612px" height="792px" viewBox="0 0 612 792" enable-background="new 0 0 612 792" xml:space="preserve">
<path fill="#232221" d="M438.791,83.098c-66.344,17.482-138.003,13.571-197.834-6.595c-9.855,15.889-7.218,44.271-12.096,65.136
	c0.007,0.013,0.015,0.025,0.022,0.038c2.225,3.842,2.578,8.313,1.368,12.316c1.863,9.73,2.122,23.648,0.775,34.546
	c1.921,26.752,2.771,53.621,3.26,80.456c4.002,35.173,8.692,69.658,13.264,104.261c5.486,19.835,5.486,62.596,0,82.432v56.055
	c-1.274,6.169,0.618,15.505,0.507,22.838c1.455,9.694,2.835,19.401,3.913,29.142c1.723,15.588,2.699,31.537,1.432,47.245
	c16.706,0.313,33.414,0.4,50.124,0.334c-0.138-5.704-0.142-11.419,0.078-17.128c2.344-60.88,9.407-121.973,13.19-174.755
	c5.092-71.071,1.313-145.533,23.08-204.429c10.427,47.823,10.054,106.448,13.189,161.565c7.619,11.065,1.153,36.212,3.297,52.755
	c1.447,59.645,3.322,123.418,6.266,181.296c17.721-0.307,35.44-0.658,53.158-0.956c-0.021-0.97-0.042-1.94-0.064-2.911
	c-0.908-4.709-1.045-10.806-0.409-15.932c-0.561-21.539-0.974-43.395,0.976-64.738c-0.822-5.092-1.368-10.196-1.253-15.457
	c0.178-8.06,0.724-16.099,1.579-24.113c0.338-3.162,0.701-6.283,1.071-9.392c0.302-9.673,1.249-19.274,3.402-28.694
	c0.516-4.892,0.975-9.826,1.321-14.86c0.126-1.834,0.238-3.669,0.348-5.504c-0.195-15.481-2.754-33.327,1.237-44.623
	c0.001-0.642,0.007-1.283,0.007-1.925c0.002-3.019,0.915-5.851,2.456-8.255C438.183,282.763,453.804,180.348,438.791,83.098z"/>
<path fill="#D1C9B8" d="M247.552,373.255c5.486,19.835,5.486,62.596,0,82.431C247.552,428.209,247.552,400.731,247.552,373.255z"/>
</svg>
