<?xml version="1.0" encoding="utf-8"?>
<!-- Generator: Adobe Illustrator 15.0.0, SVG Export Plug-In . SVG Version: 6.00 Build 0)  -->
<!DOCTYPE svg PUBLIC "-//W3C//DTD SVG 1.1//EN" "http://www.w3.org/Graphics/SVG/1.1/DTD/svg11.dtd">
<svg version="1.1" id="Capa_1" xmlns="http://www.w3.org/2000/svg" xmlns:xlink="http://www.w3.org/1999/xlink" x="0px" y="0px"
	 width="612px" height="792px" viewBox="0 0 612 792" enable-background="new 0 0 612 792" xml:space="preserve">
<path fill="#AC9684" d="M308.822,57.608c15.758-8.397,47.057-1.254,68.846-3.623c0,1.207,0,2.415,0,3.623
	C354.719,57.608,331.771,57.608,308.822,57.608z"/>
<path fill="#0F3249" stroke="#000F1F" stroke-miterlimit="10" d="M301.576,90.219c-2.355,3.685-8.333,3.746-7.247,10.87
	c-4.902-7.176-10.059-14.097-25.364-10.87c0-6.039,0-12.079,0-18.118c10.153,1.925,18.834,5.322,28.987,7.248
	c1.02,5.85-3.424,6.237-3.623,10.87C296.744,90.219,299.159,90.219,301.576,90.219z"/>
<path fill="#0F3249" stroke="#000F1F" stroke-miterlimit="10" d="M294.329,119.207c-13.05-2.651-18.307-13.097-36.235-10.871
	C264.591,99.65,295.801,94.187,294.329,119.207z"/>
<path fill="#0F3249" stroke="#000F1F" stroke-miterlimit="10" d="M305.198,159.064c-21.504,6.095-42.66,2.444-61.598-3.624
	C256.084,138.796,282.722,162.433,305.198,159.064z"/>
<path fill="#0F3249" stroke="#000F1F" stroke-miterlimit="10" d="M207.365,195.299c8.998-4.713,15.037,10.635,18.117,0
	C242.156,202.226,201.148,209.717,207.365,195.299z"/>
<path fill="#0F3249" stroke="#000F1F" stroke-miterlimit="10" d="M258.093,246.027c-1.018-12.267-12.012-14.56-21.74-18.117
	c7.86,2.619,23.062-3.704,7.247-3.624c0.67-5.369,8.756-3.321,14.493-3.624C258.881,233.916,263.071,234.563,258.093,246.027z"/>
<path fill="#0F3249" stroke="#000F1F" stroke-miterlimit="10" d="M323.315,343.86c9.891-2.637,7.294,7.2,14.493,7.247
	c-0.443,9.219-5.274,14.05-14.493,14.495C334.016,347.305,325.198,361.656,323.315,343.86z"/>
<path fill="#0F3249" stroke="#000F1F" stroke-miterlimit="10" d="M218.236,351.106c2.505-9.049,9.663,6.724,18.117,3.624
	c-0.689,2.935-3.633,3.614-3.624,7.247c-1.916,5.577-3.779,0.231-3.624-3.623c-8.87,0.4-0.769,11.979,3.624,10.87
	c-7.794,3.076-8.398,13.343-7.247,25.364c-6.331-3.335-7.996-11.328-7.246-21.74C218.236,365.601,218.236,358.354,218.236,351.106z"
	/>
<path fill="#0F3249" stroke="#000F1F" stroke-miterlimit="10" d="M395.785,376.471c-2.343,15.781,4.726,40.959-3.623,50.728
	c0-2.416,0-4.831,0-7.246c0-6.04,0-12.078,0-18.117C394.316,394.328,387.685,378.034,395.785,376.471z"/>
<path fill="#0F3249" stroke="#000F1F" stroke-miterlimit="10" d="M392.162,419.953c-4.222,0.607-3.938,5.728-3.625,10.869
	c-9.982-4.133-5.787-24.457,3.625-28.986C392.162,407.875,392.162,413.913,392.162,419.953z"/>
<path fill="#0F3249" stroke="#000F1F" stroke-miterlimit="10" d="M225.482,445.316h3.624c3.826-12.013,10.738-15.722-3.624-21.742
	c1.624,6.849-1.144,9.305-2.877,12.795c1.48,12.184,1.604,24.367,0.8,36.63c0.552,0.575,1.23,1.023,2.078,1.304
	c2.889-7.98,7.276-14.466,18.118-14.494C245.925,446.614,226.341,455.333,225.482,445.316z"/>
<path fill="#0F3249" stroke="#000F1F" stroke-miterlimit="10" d="M258.093,517.784c7.143-8.954,2.77,21.359,0,25.365
	C240.704,536.501,263.397,533.251,258.093,517.784z"/>
<path fill="#0F3249" stroke="#000F1F" stroke-miterlimit="10" d="M395.785,564.89v4.439c0.339-2.322,0.672-4.646,0.989-6.971
	c1.597-11.696,2.183-24.257,2.231-36.983C391.362,531.976,398.039,552.896,395.785,564.89z"/>
<path fill="#0F3249" stroke="#000F1F" stroke-miterlimit="10" d="M323.537,547.054c0.08,7.397,0.154,14.794,0.213,22.191
	c1.026,2.208,3.057,3.412,3.189,6.514h3.623C328.199,566.213,329.007,553.494,323.537,547.054z"/>
<path fill="#0F3249" stroke="#000F1F" stroke-miterlimit="10" d="M218.047,585.225c0.716,5.455,1.985,10.017,3.813,12.277v-47.105
	c-1.067,1.319-1.941,3.432-2.629,6.038C218.549,566.019,218.026,575.626,218.047,585.225z"/>
<path fill="#0F3249" stroke="#000F1F" stroke-miterlimit="10" d="M394.592,577.264c-2.808,4.206-3.206,10.82-2.942,18.096
	C392.665,589.331,393.655,583.301,394.592,577.264z"/>
<path fill="#0F3249" stroke="#000F1F" stroke-miterlimit="10" d="M377.668,608.371c0-4.83,0-9.661,0-14.494
	c6.651,7.668,12.484,10.521,7.246,21.742c-3.633,0.009-4.313-2.936-7.246-3.625C377.668,610.788,377.668,609.579,377.668,608.371z"
	/>
<path fill="#0F3249" stroke="#000F1F" stroke-miterlimit="10" d="M345.056,644.605c8.088,1.574,12.918,6.407,14.495,14.493
	c-3.082,0.666-3.416-1.415-3.624-3.623c-4.458,1.581-7.439,4.639-7.247,10.871C332.002,658.985,354.11,656.32,345.056,644.605z"/>
<path fill="#0F3249" stroke="#000F1F" stroke-miterlimit="10" d="M189.249,209.793c-9.356-44.194-1.076-172.68,39.857-155.808
	c-8.402-1.156-13.908,0.584-18.117,3.623c6.912,7.408,15.734,7.271,25.364,3.624c0.661,7.907-2.963,11.531-10.871,10.87
	c-3.623,0-7.246,0-10.87,0c1.142,8.521,17.174,2.152,14.494,14.494c-4.213-0.59-6.445,0.802-7.246,3.624c-2.417,0-4.832,0-7.248,0
	c2.355,3.685,8.332,3.746,7.248,10.87c-4.7,4.629-19.806,30.451-25.365,10.871c-4.917,1.123-3.005,9.073-3.624,14.494
	c10.238,2.991,9.39-5.104,18.118-3.624c5.264,3.175-16.48,9.851-21.741,14.494c5.982,11.786-6.487,19.523,7.247,21.74
	C186.229,170.747,190.801,184.495,189.249,209.793z"/>
<path fill="#0F3249" stroke="#000F1F" stroke-miterlimit="10" d="M395.785,376.471c15.668-111.151,47.368-219.054,10.419-318.021
	c-3.657-0.696-7.311-1.405-10.96-2.134c0.633,1.186,0.838,2.8,0.541,4.914c-11.813-0.943-17.438,4.303-18.117,14.494h3.622
	c4.267,0.566,10.285-0.623,10.872,3.624c-10.577,0.344-3.54,14.644-14.494,21.74c6.886,21.704,12.143-12.064,25.365-7.247
	c-0.455,9.069-6.918,11.343,3.62,14.494c11.325-1.66,11.585,7.743,10.871,18.118h-10.871c-4.477,11.724,11.726,2.769,7.248,14.494
	c-2.813,0.811-7.146,0.099-7.248,3.623c5.695,0.344,12.563-0.486,10.871,7.247h-7.246c-9.219,0.444-14.053,5.275-14.493,14.494
	c16.722,1.472-5.776,15.843,14.493,7.247c-1.858,17.985-1.511,19.324-3.625,32.61c-9.458,1.411-19.88,1.86-25.363,7.248
	c4.422,0.411,8.577,1.085,7.247,7.247c-4.896,1.143-6.921,5.158-14.494,3.624c-9.256,0.406-12.68,6.643-18.116,10.871
	c14.362,6.02,7.45,9.728,3.624,21.74c-1.396,20.915,2.68,79.258,0,101.457c10.252,10.36,34.584,25.698,25.363,43.481
	c-5.615-11.3-4.453-29.365-21.74-28.988c-5.963,5.634,1.237,14.121,3.624,21.74c-15.259-0.764-5.53,23.464-14.495,28.986
	c4.153,15.021-7.623,14.124-7.247,25.364c11.726,6.045,7.733,5.301,25.365,3.625c4.755-4.351,5.699-1.411,10.869,0
	c1.982-5.265-4.234-18.727,3.624-18.118c19.046,11.329-14.073,14.894,10.871,28.987c2.196-7.512-9.043-11.153,1.769-10.932
	c0.043-1.397,0.094-2.795,0.158-4.191c-2.698-6.188-5.849-11.927-5.55-21.11v-7.246c-4.222,0.607-3.938,5.727-3.625,10.869
	c-9.982-4.132-5.787-24.457,3.625-28.986C394.316,394.327,387.684,378.034,395.785,376.471z M384.914,314.873
	c-11.559,3.105-11.209-5.704-18.116-7.247v7.247C351.613,305.054,390.398,295.991,384.914,314.873z"/>
<path fill="#0F3249" stroke="#000F1F" stroke-miterlimit="10" d="M406.653,108.336c11.325-1.66,11.585,7.743,10.871,18.118
	c-2.415,0-4.832,0-7.246,0C404.958,117.91,402.63,119.711,406.653,108.336z"/>
<path fill="#0F3249" stroke="#000F1F" stroke-miterlimit="10" d="M377.668,101.089c-18.392-3.972,16.428-13.691,3.622-25.364
	c4.267,0.565,10.285-0.623,10.872,3.624C381.585,79.693,388.622,93.994,377.668,101.089z"/>
<path fill="#0F3249" stroke="#000F1F" stroke-miterlimit="10" d="M383.943,53.985h-6.275V68.48
	c-13.848-2.652-25.789,17.394-10.87,21.74c-1.379-17.382,6.279-3.077,10.87-14.494c0.679-10.191,6.304-15.437,18.117-14.494
	c0.297-2.115,0.092-3.729-0.541-4.916C391.471,55.563,387.703,54.788,383.943,53.985z"/>
<path fill="#0F3249" stroke="#000F1F" stroke-miterlimit="10" d="M406.653,126.454c-4.477,11.724,11.726,2.77,7.248,14.494
	c-2.813,0.811-7.146,0.099-7.248,3.623c5.695,0.344,12.563-0.486,10.871,7.247c-2.415,0-4.832,0-7.246,0
	c-0.803-2.822-3.034-4.213-7.245-3.624c4.061-11.413,0.33-8.205,0-21.741C404.241,126.454,405.445,126.454,406.653,126.454z"/>
<path fill="#0F3249" stroke="#000F1F" stroke-miterlimit="10" d="M395.785,166.312c16.722,1.472-5.775,15.843,14.493,7.247
	c-1.858,17.985-1.511,19.324-3.625,32.61c-9.458,1.411-19.88,1.859-25.363,7.248c4.422,0.41,8.577,1.085,7.247,7.247
	c-4.896,1.142-6.921,5.157-14.494,3.624c0.195-6.233-2.788-9.29-7.245-10.87c6.548-6.738,13.294-13.277,28.987-10.871
	c-16.979-12.338,0.745-13.055,3.623-32.611C395.554,170.091,390.208,168.227,395.785,166.312z"/>
<path fill="#0F3249" stroke="#000F1F" stroke-miterlimit="10" d="M352.303,423.574c7.274-47.92-0.604-90.556,7.248-166.677
	c-1.396,20.915,2.68,79.258,0,101.457c10.252,10.36,34.584,25.699,25.363,43.481c-5.615-11.3-4.453-29.366-21.74-28.988
	c-5.963,5.634,1.237,14.121,3.624,21.74C351.539,393.824,361.268,418.052,352.303,423.574z"/>
<path fill="#0F3249" stroke="#000F1F" stroke-miterlimit="10" d="M384.914,557.644c-17.484-29.126-37.942-71.487-18.116-101.457
	c-8.397,29.142,1.015,65.916,21.739,97.835C388.331,556.229,387.996,558.31,384.914,557.644z"/>
<path fill="#0F3249" stroke="#000F1F" stroke-miterlimit="10" d="M377.668,608.371v-14.494c6.651,7.668,12.484,10.522,7.246,21.742
	c-3.633,0.009-4.313-2.936-7.246-3.625c4.431,3.537,5.394,10.542,8.527,15.378c1.782-10.675,3.655-21.34,5.454-32.013
	c-0.264-7.275,0.135-13.89,2.942-18.096c0.41-2.644,0.807-5.289,1.193-7.935v-4.439c-13.578-0.289-0.917,25.651-14.495,25.365
	c-2.103-11.762,2.468-16.857,3.624-25.365c-16.131,10.498-0.208-7.058-18.116-3.624
	C384.193,570.723,370.315,593.779,377.668,608.371z"/>
<path fill="#0F3249" stroke="#000F1F" stroke-miterlimit="10" d="M403.033,148.195c4.061-11.413,0.33-8.205,0-21.741h7.245
	c-5.32-8.544-7.648-6.743-3.625-18.118c-10.538-3.152-4.075-5.426-3.62-14.494c-13.221-4.817-18.479,28.951-25.365,7.247
	c-18.392-3.972,16.428-13.692,3.622-25.364h-3.622c-4.591,11.418-12.249-2.888-10.87,14.494c-14.919-4.345-2.978-24.392,10.87-21.74
	V57.608h-68.846c-16.391,3.028-55.022-2.892-79.716-3.623c-8.402-1.156-13.909,0.585-18.117,3.623
	c6.912,7.408,15.734,7.271,25.364,3.624c0.66,7.907-2.964,11.531-10.871,10.87c8.361,9.756,15.052,21.184,28.988,25.364h-21.741
	c-0.567-4.266,0.622-10.286-3.624-10.871c-0.803,2.822-3.033,4.214-7.246,3.624h-7.248c2.355,3.684,8.332,3.746,7.248,10.87
	c-4.7,4.629-19.806,30.451-25.365,10.871c-4.917,1.123-3.006,9.074-3.624,14.494c10.238,2.99,9.39-5.105,18.118-3.624
	c5.264,3.175-16.481,9.851-21.741,14.494c5.983,11.785-6.487,19.523,7.247,21.74c-10.267,11.683-5.695,25.431-7.247,50.729v7.247
	c3.633-0.009,4.313,2.936,7.247,3.624c4.972-8.257-9.342-13.621,0-14.494c15.362,16.915,32.385-8.01,43.482,7.248
	c-2.28,6.176-10.947,5.963-14.495,10.87c2.812,0.812,7.148,0.1,7.247,3.624h3.624c7.86,2.618,23.062-3.704,7.247-3.624
	c0.67-5.37,8.756-3.322,14.493-3.624c0.788,13.253,4.978,13.9,0,25.364c2.964,7.818,3.888,17.404,7.248,32.611
	c14.277,11.087,2.104,50.794-18.118,50.728c-1.754-4.279-3.864-8.214-7.246-10.87c-8.922,4.289,7.421,13.687-3.624,18.117
	c-5.304,0.062-11.484-15.281-10.871,0c-13.247,5.701,8.418,5.417,3.624,14.494c10.662,0.755,24.005-14.318,32.611-3.623
	c-4.378,0.765-2.227,4.02,0,7.247c-9.889-0.326-7.294,6.034-14.494,0c0.35,22.08,14.281,8.058,10.87,32.611
	c14.711-1.019,8.176,1.321,7.248,10.87c17.286-0.377,17.399,16.425,21.74,28.988c-20.138-0.6-21.728,21.468-7.248,18.117
	c-7.525,0.929-0.99,15.92-7.247,18.117c-5.17-1.41-6.115-4.351-10.87,0h-3.624c-4.897,1.142-6.921,5.155-14.493,3.624
	c-1.429,6.23,5.378,9.288,0,10.869c-4.634-0.198-5.02-4.643-10.871-3.624c-6.093,0.829-7.625,6.219-10.347,10.419
	c-0.003,0.028-0.006,0.057-0.009,0.085c0.136,9.58-0.012,19.164-0.379,28.71c5.365,6.878-3.348,18.031-0.134,33.256v50.728
	c1.732,10.316,2.527,21.571,3.81,32.338c1.002,1.86,2.094,3.667,3.311,5.415c3.099,4.45,2.746,10.25,0.297,14.903
	c2.669,9.917,6.896,18.275,14.322,23.436c-0.868,2.057-1.683,4.167-2.443,6.332c11.832,1.842,23.665,3.679,35.495,5.53
	c2.185-11.365,7.587-19.513,16.431-24.22c-0.005-8.454-0.016-16.909-0.031-25.364c-2.407,1.286-4.962,2.425-9.594,1.486
	c7.682-3.565-7.766-22.807,3.624-28.986c2.152,2.958,3.854,1.862,5.903,2.317c-0.102-28.373-0.314-56.745-0.721-85.115
	c-1.641-3.48-1.159-7.087-0.158-11.044c-0.148-9.148-0.317-18.297-0.514-27.444c-0.072-3.335,1.045-6.442,2.919-8.993
	c-0.447-15.474-2.696-25.508-0.183-40.021c6.963-19.607,2.274-50.87,3.623-76.093c-8.314-7.388-1.312-30.091-3.623-43.481
	c3.784-36.074-2.632-82.349,10.87-108.703c1.01-8.257-0.872-13.621-7.247-14.494c-0.868,6.794-5.963-2.057-7.246,3.624
	c-5.201,1.835,11.077,14.626-3.624,21.741c1.698-12.569-19.664-2.076-21.74-10.87c18.282-10.45-7.842-11.621-10.871-21.741h18.117
	c-0.943-15.966-24.816-9.003-32.61-18.118c29.478-4.459,33.394,2.364,61.599,3.624c-0.18,5.416-14.14,20.656,0,18.117
	c7.822-3.954-5.869-17.787,7.247-21.741c-5.153,26.724,23.255,2.539,32.61,18.118c-4.647,6.223-21.666,0.076-21.741,10.87
	c7.423,5.865,23.746,2.827,28.987,10.871c-10.189-0.179-9.917,15.782-18.117,7.247c13.607,24.157,8.247,46.874-10.87,65.222v28.988
	c-1.028,60.107-4.095,103.027,3.624,163.054c8.511-10.087-6.36-30.139,10.869-36.232c10.668,24.712-6.345,41.527,14.494,68.845
	c-9.889-0.326-7.294,6.034-14.494,0v25.363c18.154,2.681-4.82-13.351,7.248-14.494c11.593,13.014-6.916,26.748-10.871,36.236
	c18.138,5.015-7.567,31.52,10.871,36.233c1.831-11.381-8.541-14.806,3.622-18.117c-2.084,6.37,4.379,21.287-3.622,21.739
	c-9.53-9.416-2.851,5.856-14.493,3.625c2.106,7.218-1.288,8.928-2.96,12.361c0.007,1.882,0.018,3.764,0.023,5.646
	c17.647-2.94,0.208,24.709,17.43,29.096c-1.144,4.897-5.157,6.921-3.624,14.493c-8.43-2.265-10.527,1.809-13.726,4.778
	c0.005,9.269,0.007,18.538,0.007,27.807c9.026-0.321,18.055-0.617,27.082-0.949c3.933-1.269,7.556-1.151,11.063-0.442
	c5.295-0.227,10.588-0.501,15.88-0.804c1.54-20.831,4.636-41.493,8.08-62.117c-3.134-4.836-4.097-11.841-8.527-15.378v-3.623
	c-7.352-14.591,6.526-37.648-10.87-47.105c17.908-3.434,1.985,14.122,18.116,3.624v-7.246
	c-17.484-29.126-37.942-71.487-18.116-101.457h3.623v-3.621c-17.632,1.675-13.639,2.419-25.365-3.625
	c-0.376-11.241,11.4-10.344,7.247-25.365c7.274-47.92-0.604-90.556,7.248-166.677c3.826-12.012,10.738-15.72-3.624-21.74
	c5.436-4.228,8.86-10.466,18.116-10.871c0.195-6.233-2.788-9.29-7.245-10.87c6.548-6.738,13.294-13.277,28.987-10.871
	c-16.979-12.338,0.745-13.055,3.623-32.611c-3.854,0.156-9.2-1.707-3.623-3.623c0.44-9.22,5.274-14.051,14.493-14.494
	C409.476,148.997,407.244,147.605,403.033,148.195z M207.365,195.299c8.997-4.713,15.036,10.635,18.117,0
	C242.156,202.226,201.148,209.717,207.365,195.299z M229.105,514.162c-11.28-6.912,5.663-15.734,3.624-25.364
	c13.296,1.219,18.589-5.567,21.74-14.494c2.926,2.518,9.926,5.639,10.871,0c9.874,3.335-5.063,11.329,0,21.741
	C241.74,496.502,236.626,495.503,229.105,514.162z M258.093,517.784c7.143-8.954,2.77,21.359,0,25.365
	C240.704,536.501,263.397,533.251,258.093,517.784z M250.846,669.969c-2.688-0.346-2.688-14.143,0-14.492
	c-3.151-5.469-5.425,0.995-14.493-3.625c-1.915-2.914-3.779-5.882-3.624-10.868c2.812-6.61,3.897,2.171,3.624,7.248
	c9.021-5.526,27.506-6.678,43.481,3.62C270.068,657.782,260.613,664.04,250.846,669.969z M323.315,365.601
	c10.7-18.296,1.883-3.945,0-21.742c9.89-2.636,7.294,7.201,14.493,7.247C337.365,360.326,332.534,365.157,323.315,365.601z
	 M359.551,659.1c-3.082,0.666-3.416-1.414-3.624-3.623c-4.458,1.581-7.439,4.639-7.247,10.871
	c-16.678-7.362,5.431-10.027-3.624-21.741C353.144,646.181,357.974,651.014,359.551,659.1z M268.965,72.101
	c10.153,1.926,18.835,5.322,28.987,7.248c1.019,5.849-3.424,6.237-3.623,10.87h7.247c-2.355,3.684-8.332,3.746-7.247,10.87
	c-4.902-7.176-10.058-14.097-25.364-10.87V72.101z M294.328,119.207c-13.05-2.651-18.306-13.098-36.235-10.871
	C264.591,99.65,295.801,94.187,294.328,119.207z M243.6,155.441c12.484-16.645,39.122,6.992,61.598,3.624
	C283.694,165.16,262.538,161.509,243.6,155.441z M312.446,159.064c-6.926-5.151-12.965-11.19-18.118-18.117
	c3.868-8.232,10.993,10.408,21.74,7.247C318.559,159.035,312.596,181.814,312.446,159.064z M316.068,133.7
	c-7.563-17.032-9.081-54.012-14.493-61.598c9.294,9.615,5.823-6.331,10.871-10.87c4.839,5.453,1.179,15.631,0,21.74
	c5.892,3.435,40.169,10.087,36.232,0c15.882,10.219-3.389,12.135-10.87,18.117c3.113,8.965,25.222-1.066,28.988,7.247
	C364.485,131.388,311.888,104.156,316.068,133.7z"/>
<path fill="#0F3249" stroke="#000F1F" stroke-miterlimit="10" d="M293.09,685.766c-1.282,0.584-2.614,1.144-3.945,1.646
	c1.315,0.206,2.63,0.412,3.945,0.618C293.09,687.275,293.09,686.521,293.09,685.766z"/>
<path fill="#0F3249" stroke="#000F1F" stroke-miterlimit="10" d="M348.679,506.916c-20.839-27.318-3.826-44.133-14.494-68.845
	c-17.229,6.093-2.358,26.146-10.869,36.232v36.235c4.382,6.07,0.953,15.439,0.151,29.69c0.027,2.274,0.045,4.55,0.07,6.825
	c5.469,6.439,4.662,19.158,7.024,28.705h-3.622v21.742c11.642,2.231,4.963-13.041,14.493-3.625
	c8.001-0.452,1.538-15.369,3.622-21.739c-12.163,3.311-1.791,6.736-3.622,18.117c-18.438-4.713,7.267-31.218-10.871-36.233
	c3.955-9.488,22.464-23.222,10.871-36.236c-12.068,1.143,10.906,17.175-7.248,14.494v-25.363
	C341.385,512.95,338.79,506.59,348.679,506.916z"/>
<path fill="#0F3249" stroke="#000F1F" stroke-miterlimit="10" d="M297.951,351.106c4.95,20.717,8.974,71.733-3.623,86.964
	c6.963-19.607,2.273-50.87,3.623-76.093C297.951,358.354,297.951,354.73,297.951,351.106z"/>
<path fill="#0F3249" stroke="#000F1F" stroke-miterlimit="10" d="M258.093,463.434c-4.897,1.143-6.921,5.156-14.493,3.624
	c-1.429,6.231,5.378,9.289,0,10.87c-4.633-0.199-5.02-4.643-10.871-3.624c3.558-4.896,9.667-7.243,14.494-10.87
	c-0.207-2.208-0.542-4.289-3.623-3.624c2.326-13.194-17.258-4.477-18.118-14.492c1.208,0,2.417,0,3.624,0
	c6.907,6.798,6.558-2.15,18.117,0C244.506,457.696,261.943,449.922,258.093,463.434z"/>
<path fill="#0F3249" stroke="#000F1F" stroke-miterlimit="10" d="M265.341,278.638c14.276,11.087,2.104,50.794-18.118,50.728
	c-1.754-4.279-3.864-8.214-7.246-10.87c-8.922,4.289,7.421,13.687-3.624,18.117c-5.304,0.062-11.483-15.281-10.871,0
	c-13.247,5.7,8.418,5.417,3.624,14.494c10.663,0.755,24.005-14.318,32.611-3.623c-4.378,0.765-2.227,4.02,0,7.247
	c-9.889-0.326-7.294,6.034-14.494,0c0.35,22.08,14.281,8.058,10.87,32.611c14.711-1.019,8.176,1.321,7.248,10.87
	c17.286-0.377,17.399,16.425,21.74,28.988c-20.137-0.601-21.728,21.468-7.248,18.117c-7.525,0.929-0.99,15.92-7.247,18.116
	c-5.17-1.409-6.114-4.35-10.87,0c2.944-15.021-10.55-13.606-14.494-21.739c12.32-11.257-9.859-17.15,0-43.482
	c5.171,0.869,6.115,5.969,10.87,7.248c2.293-17.995-19.418-11.979-18.116-28.988c2.812-0.811,7.147-0.099,7.246-3.624
	c-12.824,1.373,3.992-12.244-14.494-10.871c-0.01-3.632,2.935-4.312,3.624-7.247c-8.454,3.1-15.611-12.673-18.117-3.624
	c-4.162-4.034-12.281-29.435,0-18.116c2.99-10.243-5.105-9.389-3.624-18.118c4.898-1.141,6.921-5.157,14.494-3.623
	c-1.548,6.912-10.351,6.558-7.246,18.117C232.263,312.24,273.898,311.858,265.341,278.638z"/>
<path fill="#0F3249" stroke="#000F1F" stroke-miterlimit="10" d="M192.872,238.78c0.481-8.937,0.547-17.456-3.623-21.74
	c3.633-0.009,4.313,2.935,7.247,3.624c4.972-8.257-9.342-13.621,0-14.494c15.362,16.915,32.385-8.011,43.482,7.248
	c-2.279,6.176-10.947,5.963-14.495,10.87c2.813,0.812,7.148,0.099,7.247,3.624c-10.214-1.864-30.625,6.468-25.364-10.871
	c-12.502-1.189-13.257,18.929-7.247,25.364C197.005,249.315,197.967,238.488,192.872,238.78z"/>
<path fill="#0F3249" stroke="#000F1F" stroke-miterlimit="10" d="M225.482,72.102c8.36,9.757,15.051,21.184,28.988,25.365
	c-7.247,0-14.493,0-21.741,0c-0.566-4.265,0.623-10.286-3.624-10.871c-0.803,2.821-3.033,4.213-7.246,3.624
	c0.801-2.821,3.033-4.213,7.246-3.624c2.68-12.342-13.352-5.974-14.494-14.494C218.236,72.102,221.86,72.102,225.482,72.102z"/>
<path fill="#0F3249" stroke="#000F1F" stroke-miterlimit="10" d="M294.329,140.948c3.868-8.233,10.993,10.408,21.74,7.247
	c2.49,10.841-3.473,33.62-3.622,10.87C305.52,153.913,299.481,147.874,294.329,140.948z"/>
<path fill="#0F3249" stroke="#000F1F" stroke-miterlimit="10" d="M232.729,227.91c1.208,0,2.415,0,3.624,0
	c9.729,3.557,20.722,5.85,21.74,18.117c2.964,7.818,3.888,17.404,7.248,32.611c8.557,33.22-33.079,33.602-43.481,50.728
	c-3.104-11.559,5.698-11.205,7.246-18.117c-7.572-1.534-9.596,2.482-14.494,3.623c-1.481,8.729,6.614,7.875,3.624,18.118
	c-12.281-11.319-4.162,14.083,0,18.116c0,7.248,0,14.495,0,21.741c-9.72-43.425-22.024-84.264-25.365-134.068
	c5.095-0.292,4.133,10.536,7.247,3.624c-6.011-6.436-5.256-26.553,7.247-25.364C202.104,234.378,222.515,226.046,232.729,227.91z
	 M214.612,253.274c-8.375,12.767-1.312,19.735-14.494,28.987c12.342-2.679,5.973,13.352,14.494,14.495
	c-0.198-6.78,2.789-7.672,7.248-3.624c-1.586-12.455,1.433-20.311,3.623-28.988c-6.237-1.43-9.289,5.379-10.87,0
	c2.859-7.147,12.673-13.026,18.117-7.247c-0.812-6.851,4.085-7.992,3.624-14.494C224.09,241.012,230.653,258.445,214.612,253.274z"
	/>
<path fill="#0F3249" stroke="#000F1F" stroke-miterlimit="10" d="M236.353,242.404c0.462,6.501-4.436,7.643-3.624,14.494
	c-5.444-5.779-15.258,0.099-18.117,7.247c1.581,5.379,4.633-1.43,10.87,0c-2.189,8.677-5.209,16.533-3.623,28.988
	c-4.458-4.048-7.446-3.156-7.248,3.624c-8.521-1.143-2.151-17.174-14.494-14.495c13.182-9.252,6.119-16.22,14.494-28.987
	C230.653,258.445,224.09,241.012,236.353,242.404z"/>
<path fill="#0F3249" stroke="#000F1F" stroke-miterlimit="10" d="M384.914,314.873c-11.561,3.104-11.209-5.704-18.116-7.247
	c0,2.416,0,4.832,0,7.247C351.613,305.054,390.398,295.991,384.914,314.873z"/>
<path fill="#0F3249" stroke="#000F1F" stroke-miterlimit="10" d="M229.106,445.316c3.827-12.013,10.738-15.722-3.624-21.742
	c7.191-7.127,2.307-20.695,0-28.986c-1.151-12.021-0.547-22.288,7.247-25.364c-4.392,1.109-12.494-10.47-3.624-10.87
	c-0.156,3.854,1.708,9.2,3.624,3.623c18.485-1.373,1.67,12.244,14.494,10.871c-0.099,3.524-4.435,2.813-7.246,3.624
	c-1.302,17.009,20.409,10.993,18.116,28.988c-4.755-1.279-5.699-6.379-10.87-7.248c-9.859,26.332,12.32,32.227,0,43.482
	c3.944,8.133,17.438,6.719,14.494,21.739c-1.208,0-2.416,0-3.624,0c3.85-13.512-13.587-5.736-10.87-18.116
	C235.664,443.166,236.013,452.114,229.106,445.316z"/>
<path fill="#0F3249" stroke="#000F1F" stroke-miterlimit="10" d="M397.409,464.932c-0.021-4.147,0.017-8.291,0.145-12.431
	c-10.812-0.222,0.429,3.42-1.769,10.932c-24.944-14.093,8.175-17.658-10.871-28.987c-7.858-0.609-1.643,12.853-3.624,18.119
	c-5.17-1.412-6.114-4.352-10.869,0v3.621C387.544,450.39,388.628,470.131,397.409,464.932z"/>
<path fill="#0F3249" stroke="#000F1F" stroke-miterlimit="10" d="M243.601,459.809c-10.843,0.028-15.23,6.514-18.118,14.494
	c-0.848-0.28-1.527-0.729-2.079-1.305c-0.123,1.876-0.264,3.754-0.429,5.634c-0.178,2.033-0.381,4.063-0.596,6.094
	c2.723-4.2,4.254-9.594,10.35-10.423c3.558-4.896,9.668-7.243,14.494-10.87C247.017,461.225,246.682,459.144,243.601,459.809z"/>
<path fill="#0F3249" stroke="#000F1F" stroke-miterlimit="10" d="M254.47,474.304c2.926,2.518,9.926,5.639,10.871,0
	c9.874,3.335-5.063,11.329,0,21.741c-23.601,0.457-28.715-0.542-36.235,18.117c-11.281-6.912,5.662-15.734,3.624-25.364
	C246.025,490.017,251.318,483.23,254.47,474.304z"/>
<path fill="#0F3249" stroke="#000F1F" stroke-miterlimit="10" d="M232.729,640.982c2.812-6.61,3.897,2.171,3.624,7.248
	c9.021-5.526,27.506-6.678,43.481,3.62c-9.766,5.932-19.221,12.188-28.988,18.117c-2.688-0.347-2.688-14.144,0-14.492
	c-3.151-5.469-5.425,0.995-14.493-3.625C234.438,648.938,232.574,645.97,232.729,640.982z"/>
<path fill="#0F3249" stroke="#000F1F" stroke-miterlimit="10" d="M301.576,72.102c9.293,9.615,5.823-6.331,10.871-10.87
	c4.839,5.454,1.179,15.631,0,21.74c5.893,3.435,40.169,10.087,36.232,0c15.882,10.219-3.389,12.135-10.87,18.117
	c3.113,8.965,25.223-1.066,28.988,7.247c-2.313,23.052-54.909-4.18-50.729,25.364C308.506,116.668,306.987,79.688,301.576,72.102z"
	/>
<path fill="#0F3249" stroke="#000F1F" stroke-miterlimit="10" d="M316.068,267.768c-0.613-22.335,2.188-48.086-10.87-57.975
	c1.01-8.257-0.873-13.621-7.247-14.494c-0.868,6.794-5.963-2.057-7.246,3.624c-5.2,1.835,11.077,14.626-3.624,21.741
	c1.698-12.569-19.665-2.076-21.74-10.87c18.282-10.45-7.842-11.621-10.871-21.741c6.039,0,12.078,0,18.117,0
	c-0.943-15.966-24.816-9.002-32.61-18.118c29.478-4.458,33.394,2.364,61.599,3.624c-0.18,5.416-14.14,20.655,0,18.117
	c7.822-3.954-5.87-17.787,7.247-21.741c-5.152,26.724,23.255,2.539,32.61,18.118c-4.647,6.223-21.666,0.076-21.741,10.87
	c7.423,5.865,23.747,2.826,28.987,10.871c-10.189-0.179-9.917,15.781-18.117,7.247c13.606,24.156,8.247,46.874-10.87,65.222
	C319.39,276.524,321.439,268.442,316.068,267.768z"/>
<path fill="#0F3249" stroke="#000F1F" stroke-miterlimit="10" d="M297.951,351.106c0,3.624,0,7.248,0,10.871
	c-8.313-7.388-1.312-30.091-3.623-43.481C302.552,322.351,295.706,341.274,297.951,351.106z"/>
<path fill="#0F3249" stroke="#000F1F" stroke-miterlimit="10" d="M323.467,540.229c0.802-14.251,4.23-23.62-0.151-29.69
	c-0.093,0.151-0.181,0.327-0.271,0.49C323.209,520.762,323.351,530.495,323.467,540.229z"/>
<path fill="#0F3249" stroke="#000F1F" stroke-miterlimit="10" d="M292.104,514.537c-0.999,3.952-1.479,7.555,0.157,11.031
	C292.209,521.892,292.165,518.214,292.104,514.537z"/>
<path fill="#0F3249" stroke="#000F1F" stroke-miterlimit="10" d="M384.914,557.644v7.246c-1.156,8.507-5.727,13.603-3.624,25.365
	c13.578,0.286,0.917-25.654,14.495-25.365c2.254-11.991-4.423-32.913,3.221-39.514c0.002-0.494,0.003-0.989,0.004-1.484
	c-2.601-7.809-1.747-16.812-0.595-26.762c-0.087-2.186-0.177-4.364-0.273-6.525c-0.382-8.562-0.688-17.124-0.732-25.672
	c-8.78,5.199-9.864-14.542-26.988-8.745h-3.623c-8.398,29.141,1.013,65.916,21.739,97.834
	C388.331,556.229,387.996,558.31,384.914,557.644z"/>
<path fill="#0F3249" stroke="#000F1F" stroke-miterlimit="10" d="M220.312,542.177c-0.077,0.999-0.155,1.999-0.233,2.998
	c0.498,0.63,1.081,1.173,1.781,1.599c-3.214-15.227,5.5-26.38,0.132-33.258C221.623,523.125,221.045,532.695,220.312,542.177z"/>
<path fill="#0F3249" stroke="#000F1F" stroke-miterlimit="10" d="M341.433,644.605c-17.222-4.387,0.217-32.036-17.43-29.096
	c0.052,16.123,0.072,32.245,0.08,48.368c3.199-2.97,5.295-7.043,13.726-4.779C336.275,651.526,340.289,649.503,341.433,644.605z"/>
<path fill="#0F3249" stroke="#000F1F" stroke-miterlimit="10" d="M293.081,661.238c-8.842,4.707-14.244,12.854-16.428,24.219
	c4.165,0.652,8.33,1.304,12.494,1.956c1.33-0.503,2.661-1.063,3.943-1.646C293.089,677.591,293.086,669.414,293.081,661.238z"/>
<path fill="#0F3249" stroke="#000F1F" stroke-miterlimit="10" d="M362.239,690.294c-3.51-0.71-7.135-0.828-11.07,0.442
	C354.859,690.6,358.55,690.452,362.239,690.294z"/>
<path fill="#0F3249" stroke="#000F1F" stroke-miterlimit="10" d="M316.068,267.768c5.371,0.675,3.32,8.756,3.623,14.494
	c0,9.663,0,19.326,0,28.988C311.38,303.86,318.38,281.157,316.068,267.768z"/>
<path fill="#0F3249" stroke="#000F1F" stroke-miterlimit="10" d="M292.983,610.688c-2.049-0.453-3.75,0.642-5.901-2.316
	c-11.39,6.179,4.057,25.421-3.624,28.986c4.631,0.938,7.186-0.199,9.592-1.484C293.036,627.478,293.013,619.083,292.983,610.688z"/>
<path fill="#000F1F" stroke="#0F3249" stroke-miterlimit="10" d="M405.278,62.667c0,5.003-4.056,9.059-9.059,9.059H215.047
	c-5.003,0-9.059-4.056-9.059-9.059l0,0c0-5.003,4.056-9.059,9.059-9.059H396.22C401.223,53.608,405.278,57.664,405.278,62.667
	L405.278,62.667z"/>
</svg>
